G04 #@! TF.GenerationSoftware,KiCad,Pcbnew,(5.1.10)-1*
G04 #@! TF.CreationDate,2021-10-14T14:39:51-07:00*
G04 #@! TF.ProjectId,Plug_Pass,506c7567-5f50-4617-9373-2e6b69636164,v3.1*
G04 #@! TF.SameCoordinates,Original*
G04 #@! TF.FileFunction,Legend,Top*
G04 #@! TF.FilePolarity,Positive*
%FSLAX46Y46*%
G04 Gerber Fmt 4.6, Leading zero omitted, Abs format (unit mm)*
G04 Created by KiCad (PCBNEW (5.1.10)-1) date 2021-10-14 14:39:51*
%MOMM*%
%LPD*%
G01*
G04 APERTURE LIST*
%ADD10C,0.150000*%
%ADD11C,0.200000*%
%ADD12C,0.010000*%
%ADD13C,0.100000*%
%ADD14C,0.127000*%
%ADD15C,0.120000*%
%ADD16C,0.406400*%
%ADD17C,0.203200*%
%ADD18C,0.254000*%
%ADD19C,0.015000*%
%ADD20C,0.038608*%
%ADD21C,0.050800*%
%ADD22C,0.046329*%
%ADD23C,0.061772*%
%ADD24C,0.138988*%
G04 APERTURE END LIST*
D10*
X139041809Y-51793142D02*
X138994190Y-51840761D01*
X138851333Y-51888380D01*
X138756095Y-51888380D01*
X138613238Y-51840761D01*
X138518000Y-51745523D01*
X138470380Y-51650285D01*
X138422761Y-51459809D01*
X138422761Y-51316952D01*
X138470380Y-51126476D01*
X138518000Y-51031238D01*
X138613238Y-50936000D01*
X138756095Y-50888380D01*
X138851333Y-50888380D01*
X138994190Y-50936000D01*
X139041809Y-50983619D01*
X139613238Y-51888380D02*
X139518000Y-51840761D01*
X139470380Y-51745523D01*
X139470380Y-50888380D01*
X140422761Y-51888380D02*
X140422761Y-51364571D01*
X140375142Y-51269333D01*
X140279904Y-51221714D01*
X140089428Y-51221714D01*
X139994190Y-51269333D01*
X140422761Y-51840761D02*
X140327523Y-51888380D01*
X140089428Y-51888380D01*
X139994190Y-51840761D01*
X139946571Y-51745523D01*
X139946571Y-51650285D01*
X139994190Y-51555047D01*
X140089428Y-51507428D01*
X140327523Y-51507428D01*
X140422761Y-51459809D01*
X140756095Y-51221714D02*
X141137047Y-51221714D01*
X140898952Y-50888380D02*
X140898952Y-51745523D01*
X140946571Y-51840761D01*
X141041809Y-51888380D01*
X141137047Y-51888380D01*
X141422761Y-51840761D02*
X141518000Y-51888380D01*
X141708476Y-51888380D01*
X141803714Y-51840761D01*
X141851333Y-51745523D01*
X141851333Y-51697904D01*
X141803714Y-51602666D01*
X141708476Y-51555047D01*
X141565619Y-51555047D01*
X141470380Y-51507428D01*
X141422761Y-51412190D01*
X141422761Y-51364571D01*
X141470380Y-51269333D01*
X141565619Y-51221714D01*
X141708476Y-51221714D01*
X141803714Y-51269333D01*
X142279904Y-51888380D02*
X142279904Y-50888380D01*
X142375142Y-51507428D02*
X142660857Y-51888380D01*
X142660857Y-51221714D02*
X142279904Y-51602666D01*
X143518000Y-51888380D02*
X143518000Y-51364571D01*
X143470380Y-51269333D01*
X143375142Y-51221714D01*
X143184666Y-51221714D01*
X143089428Y-51269333D01*
X143518000Y-51840761D02*
X143422761Y-51888380D01*
X143184666Y-51888380D01*
X143089428Y-51840761D01*
X143041809Y-51745523D01*
X143041809Y-51650285D01*
X143089428Y-51555047D01*
X143184666Y-51507428D01*
X143422761Y-51507428D01*
X143518000Y-51459809D01*
X143994190Y-51221714D02*
X143994190Y-51888380D01*
X143994190Y-51316952D02*
X144041809Y-51269333D01*
X144137047Y-51221714D01*
X144279904Y-51221714D01*
X144375142Y-51269333D01*
X144422761Y-51364571D01*
X144422761Y-51888380D01*
X144898952Y-51888380D02*
X144898952Y-51221714D01*
X144898952Y-50888380D02*
X144851333Y-50936000D01*
X144898952Y-50983619D01*
X144946571Y-50936000D01*
X144898952Y-50888380D01*
X144898952Y-50983619D01*
X145756095Y-51840761D02*
X145660857Y-51888380D01*
X145470380Y-51888380D01*
X145375142Y-51840761D01*
X145327523Y-51745523D01*
X145327523Y-51364571D01*
X145375142Y-51269333D01*
X145470380Y-51221714D01*
X145660857Y-51221714D01*
X145756095Y-51269333D01*
X145803714Y-51364571D01*
X145803714Y-51459809D01*
X145327523Y-51555047D01*
X146994190Y-51888380D02*
X146994190Y-50888380D01*
X147375142Y-50888380D01*
X147470380Y-50936000D01*
X147518000Y-50983619D01*
X147565619Y-51078857D01*
X147565619Y-51221714D01*
X147518000Y-51316952D01*
X147470380Y-51364571D01*
X147375142Y-51412190D01*
X146994190Y-51412190D01*
X147994190Y-50888380D02*
X147994190Y-51697904D01*
X148041809Y-51793142D01*
X148089428Y-51840761D01*
X148184666Y-51888380D01*
X148375142Y-51888380D01*
X148470380Y-51840761D01*
X148518000Y-51793142D01*
X148565619Y-51697904D01*
X148565619Y-50888380D01*
X149041809Y-51888380D02*
X149041809Y-50888380D01*
X149279904Y-50888380D01*
X149422761Y-50936000D01*
X149518000Y-51031238D01*
X149565619Y-51126476D01*
X149613238Y-51316952D01*
X149613238Y-51459809D01*
X149565619Y-51650285D01*
X149518000Y-51745523D01*
X149422761Y-51840761D01*
X149279904Y-51888380D01*
X149041809Y-51888380D01*
X137494190Y-53538380D02*
X137494190Y-52538380D01*
X137875142Y-52538380D01*
X137970380Y-52586000D01*
X138018000Y-52633619D01*
X138065619Y-52728857D01*
X138065619Y-52871714D01*
X138018000Y-52966952D01*
X137970380Y-53014571D01*
X137875142Y-53062190D01*
X137494190Y-53062190D01*
X138637047Y-53538380D02*
X138541809Y-53490761D01*
X138494190Y-53395523D01*
X138494190Y-52538380D01*
X139446571Y-52871714D02*
X139446571Y-53538380D01*
X139018000Y-52871714D02*
X139018000Y-53395523D01*
X139065619Y-53490761D01*
X139160857Y-53538380D01*
X139303714Y-53538380D01*
X139398952Y-53490761D01*
X139446571Y-53443142D01*
X140351333Y-52871714D02*
X140351333Y-53681238D01*
X140303714Y-53776476D01*
X140256095Y-53824095D01*
X140160857Y-53871714D01*
X140018000Y-53871714D01*
X139922761Y-53824095D01*
X140351333Y-53490761D02*
X140256095Y-53538380D01*
X140065619Y-53538380D01*
X139970380Y-53490761D01*
X139922761Y-53443142D01*
X139875142Y-53347904D01*
X139875142Y-53062190D01*
X139922761Y-52966952D01*
X139970380Y-52919333D01*
X140065619Y-52871714D01*
X140256095Y-52871714D01*
X140351333Y-52919333D01*
X141589428Y-53538380D02*
X141589428Y-52538380D01*
X141970380Y-52538380D01*
X142065619Y-52586000D01*
X142113238Y-52633619D01*
X142160857Y-52728857D01*
X142160857Y-52871714D01*
X142113238Y-52966952D01*
X142065619Y-53014571D01*
X141970380Y-53062190D01*
X141589428Y-53062190D01*
X143018000Y-53538380D02*
X143018000Y-53014571D01*
X142970380Y-52919333D01*
X142875142Y-52871714D01*
X142684666Y-52871714D01*
X142589428Y-52919333D01*
X143018000Y-53490761D02*
X142922761Y-53538380D01*
X142684666Y-53538380D01*
X142589428Y-53490761D01*
X142541809Y-53395523D01*
X142541809Y-53300285D01*
X142589428Y-53205047D01*
X142684666Y-53157428D01*
X142922761Y-53157428D01*
X143018000Y-53109809D01*
X143446571Y-53490761D02*
X143541809Y-53538380D01*
X143732285Y-53538380D01*
X143827523Y-53490761D01*
X143875142Y-53395523D01*
X143875142Y-53347904D01*
X143827523Y-53252666D01*
X143732285Y-53205047D01*
X143589428Y-53205047D01*
X143494190Y-53157428D01*
X143446571Y-53062190D01*
X143446571Y-53014571D01*
X143494190Y-52919333D01*
X143589428Y-52871714D01*
X143732285Y-52871714D01*
X143827523Y-52919333D01*
X144256095Y-53490761D02*
X144351333Y-53538380D01*
X144541809Y-53538380D01*
X144637047Y-53490761D01*
X144684666Y-53395523D01*
X144684666Y-53347904D01*
X144637047Y-53252666D01*
X144541809Y-53205047D01*
X144398952Y-53205047D01*
X144303714Y-53157428D01*
X144256095Y-53062190D01*
X144256095Y-53014571D01*
X144303714Y-52919333D01*
X144398952Y-52871714D01*
X144541809Y-52871714D01*
X144637047Y-52919333D01*
X145875142Y-53157428D02*
X146637047Y-53157428D01*
X147779904Y-52871714D02*
X148018000Y-53538380D01*
X148256095Y-52871714D01*
X149065619Y-52871714D02*
X149065619Y-53538380D01*
X148827523Y-52490761D02*
X148589428Y-53205047D01*
X149208476Y-53205047D01*
X149589428Y-53443142D02*
X149637047Y-53490761D01*
X149589428Y-53538380D01*
X149541809Y-53490761D01*
X149589428Y-53443142D01*
X149589428Y-53538380D01*
X150256095Y-52538380D02*
X150351333Y-52538380D01*
X150446571Y-52586000D01*
X150494190Y-52633619D01*
X150541809Y-52728857D01*
X150589428Y-52919333D01*
X150589428Y-53157428D01*
X150541809Y-53347904D01*
X150494190Y-53443142D01*
X150446571Y-53490761D01*
X150351333Y-53538380D01*
X150256095Y-53538380D01*
X150160857Y-53490761D01*
X150113238Y-53443142D01*
X150065619Y-53347904D01*
X150017999Y-53157428D01*
X150017999Y-52919333D01*
X150065619Y-52728857D01*
X150113238Y-52633619D01*
X150160857Y-52586000D01*
X150256095Y-52538380D01*
D11*
X137213000Y-78538000D02*
X140663000Y-78538000D01*
X140663000Y-78538000D02*
X140663000Y-85038000D01*
X140663000Y-85038000D02*
X137213000Y-85038000D01*
X137213000Y-85038000D02*
X137213000Y-78538000D01*
X134913000Y-78688000D02*
X136863000Y-78688000D01*
D12*
G36*
X140599000Y-89271028D02*
G01*
X140599000Y-88846000D01*
X141849028Y-88846000D01*
X141849028Y-89271028D01*
X140599000Y-89271028D01*
G37*
X140599000Y-89271028D02*
X140599000Y-88846000D01*
X141849028Y-88846000D01*
X141849028Y-89271028D01*
X140599000Y-89271028D01*
D13*
X163710000Y-72638000D02*
X164210000Y-72638000D01*
X163710000Y-72638000D02*
X163710000Y-73138000D01*
X163710000Y-78238000D02*
X164210000Y-78238000D01*
X163710000Y-78238000D02*
X163710000Y-77738000D01*
X174110000Y-78238000D02*
X173610000Y-78238000D01*
X174110000Y-78238000D02*
X174110000Y-77738000D01*
X173435000Y-72688000D02*
X173435000Y-71013000D01*
X173585000Y-72688000D02*
X173435000Y-72688000D01*
X174110000Y-73213000D02*
X173585000Y-72688000D01*
X174110000Y-73388000D02*
X174110000Y-73213000D01*
X159048000Y-76752000D02*
X158598000Y-76752000D01*
X159048000Y-76752000D02*
X159048000Y-76302000D01*
X159048000Y-69552000D02*
X159048000Y-70002000D01*
X159048000Y-69552000D02*
X158598000Y-69552000D01*
X151848000Y-69552000D02*
X152298000Y-69552000D01*
X151848000Y-69552000D02*
X151848000Y-70002000D01*
X152298000Y-76752000D02*
X152298000Y-78052000D01*
X152198000Y-76752000D02*
X152298000Y-76752000D01*
X151848000Y-76402000D02*
X152198000Y-76752000D01*
X151848000Y-76302000D02*
X151848000Y-76402000D01*
D14*
X156551000Y-86404000D02*
X147741000Y-86404000D01*
X157821000Y-83064000D02*
X157821000Y-85084000D01*
X147741000Y-81744000D02*
X156551000Y-81744000D01*
X146471000Y-85084000D02*
X146471000Y-83064000D01*
X147741000Y-86404000D02*
G75*
G02*
X146471000Y-85084000I25000J1295000D01*
G01*
X157821000Y-85084000D02*
G75*
G02*
X156551000Y-86404000I-1295000J-25000D01*
G01*
X156551000Y-81744000D02*
G75*
G02*
X157821000Y-83064000I-25000J-1295000D01*
G01*
X146471000Y-83064000D02*
G75*
G02*
X147741000Y-81744000I1295000J25000D01*
G01*
X157894000Y-55050000D02*
X152494000Y-55050000D01*
X157894000Y-59250000D02*
X157894000Y-55050000D01*
X152494000Y-59250000D02*
X157894000Y-59250000D01*
X152494000Y-55050000D02*
X152494000Y-59250000D01*
X155994000Y-57150000D02*
G75*
G03*
X155994000Y-57150000I-800000J0D01*
G01*
D15*
X165860000Y-64830000D02*
X165860000Y-66040000D01*
X146560000Y-62170000D02*
X145890000Y-62170000D01*
X151640000Y-62170000D02*
X148080000Y-62170000D01*
X156720000Y-62170000D02*
X153160000Y-62170000D01*
X161800000Y-62170000D02*
X158240000Y-62170000D01*
X166530000Y-62170000D02*
X163320000Y-62170000D01*
X145890000Y-62170000D02*
X145890000Y-64830000D01*
X149100000Y-64830000D02*
X145890000Y-64830000D01*
X154180000Y-64830000D02*
X150620000Y-64830000D01*
X159260000Y-64830000D02*
X155700000Y-64830000D01*
X164340000Y-64830000D02*
X160780000Y-64830000D01*
X166530000Y-64830000D02*
X165860000Y-64830000D01*
X166530000Y-62170000D02*
X166530000Y-64830000D01*
D11*
X174582000Y-109444000D02*
G75*
G03*
X174582000Y-109444000I-100000J0D01*
G01*
D14*
X170832000Y-114744000D02*
X170832000Y-112164000D01*
X172612000Y-114744000D02*
X170832000Y-114744000D01*
X170832000Y-106744000D02*
X170832000Y-109324000D01*
X172612000Y-106744000D02*
X170832000Y-106744000D01*
D15*
X135586000Y-67131000D02*
X133771000Y-67131000D01*
X135586000Y-66876000D02*
X135586000Y-67131000D01*
X139446000Y-66876000D02*
X135586000Y-66876000D01*
X143306000Y-66876000D02*
X143306000Y-67131000D01*
X139446000Y-66876000D02*
X143306000Y-66876000D01*
X135586000Y-77396000D02*
X135586000Y-77141000D01*
X139446000Y-77396000D02*
X135586000Y-77396000D01*
X143306000Y-77396000D02*
X143306000Y-77141000D01*
X139446000Y-77396000D02*
X143306000Y-77396000D01*
D16*
X154386000Y-103394000D02*
X154386000Y-105394000D01*
D14*
X153386000Y-103294000D02*
X153386000Y-105494000D01*
X157386000Y-103294000D02*
X153386000Y-103294000D01*
X157386000Y-105494000D02*
X157386000Y-103294000D01*
X153386000Y-105494000D02*
X157386000Y-105494000D01*
D11*
X156523000Y-106816000D02*
X153298000Y-106816000D01*
X158398000Y-111116000D02*
X153298000Y-111116000D01*
X140775000Y-59318000D02*
X137550000Y-59318000D01*
X142650000Y-63618000D02*
X137550000Y-63618000D01*
D17*
X139192000Y-117094000D02*
X142748000Y-117094000D01*
X139192000Y-113538000D02*
X139192000Y-117094000D01*
X134366000Y-113538000D02*
X139192000Y-113538000D01*
X139192000Y-100330000D02*
X134366000Y-100330000D01*
X139192000Y-96774000D02*
X139192000Y-100330000D01*
X142748000Y-96774000D02*
X139192000Y-96774000D01*
X142748000Y-100330000D02*
X142748000Y-96774000D01*
X144780000Y-100330000D02*
X142748000Y-100330000D01*
X147574000Y-103124000D02*
X144780000Y-100330000D01*
X147574000Y-110744000D02*
X147574000Y-103124000D01*
X144780000Y-113538000D02*
X147574000Y-110744000D01*
X142748000Y-113538000D02*
X144780000Y-113538000D01*
X142748000Y-117094000D02*
X142748000Y-113538000D01*
D18*
X137970380Y-81092523D02*
X137970380Y-82120619D01*
X138030857Y-82241571D01*
X138091333Y-82302047D01*
X138212285Y-82362523D01*
X138454190Y-82362523D01*
X138575142Y-82302047D01*
X138635619Y-82241571D01*
X138696095Y-82120619D01*
X138696095Y-81092523D01*
X139966095Y-82362523D02*
X139240380Y-82362523D01*
X139603238Y-82362523D02*
X139603238Y-81092523D01*
X139482285Y-81273952D01*
X139361333Y-81394904D01*
X139240380Y-81455380D01*
D19*
X140135380Y-89387571D02*
X139494354Y-89387571D01*
X139494354Y-89234946D01*
X139524880Y-89143370D01*
X139585930Y-89082320D01*
X139646980Y-89051795D01*
X139769080Y-89021270D01*
X139860655Y-89021270D01*
X139982755Y-89051795D01*
X140043805Y-89082320D01*
X140104855Y-89143370D01*
X140135380Y-89234946D01*
X140135380Y-89387571D01*
X139555405Y-88777070D02*
X139524880Y-88746545D01*
X139494354Y-88685495D01*
X139494354Y-88532869D01*
X139524880Y-88471819D01*
X139555405Y-88441294D01*
X139616455Y-88410769D01*
X139677505Y-88410769D01*
X139769080Y-88441294D01*
X140135380Y-88807595D01*
X140135380Y-88410769D01*
D10*
X164667024Y-70466159D02*
X164667024Y-69466159D01*
X165714643Y-70370921D02*
X165667024Y-70418540D01*
X165524167Y-70466159D01*
X165428929Y-70466159D01*
X165286072Y-70418540D01*
X165190834Y-70323302D01*
X165143215Y-70228064D01*
X165095595Y-70037588D01*
X165095595Y-69894731D01*
X165143215Y-69704255D01*
X165190834Y-69609017D01*
X165286072Y-69513779D01*
X165428929Y-69466159D01*
X165524167Y-69466159D01*
X165667024Y-69513779D01*
X165714643Y-69561398D01*
X166095595Y-69561398D02*
X166143215Y-69513779D01*
X166238453Y-69466159D01*
X166476548Y-69466159D01*
X166571786Y-69513779D01*
X166619405Y-69561398D01*
X166667024Y-69656636D01*
X166667024Y-69751874D01*
X166619405Y-69894731D01*
X166047976Y-70466159D01*
X166667024Y-70466159D01*
X149847851Y-69049556D02*
X149847851Y-68049556D01*
X150895470Y-68954318D02*
X150847851Y-69001937D01*
X150704994Y-69049556D01*
X150609756Y-69049556D01*
X150466899Y-69001937D01*
X150371661Y-68906699D01*
X150324042Y-68811461D01*
X150276422Y-68620985D01*
X150276422Y-68478128D01*
X150324042Y-68287652D01*
X150371661Y-68192414D01*
X150466899Y-68097176D01*
X150609756Y-68049556D01*
X150704994Y-68049556D01*
X150847851Y-68097176D01*
X150895470Y-68144795D01*
X151228803Y-68049556D02*
X151847851Y-68049556D01*
X151514518Y-68430509D01*
X151657375Y-68430509D01*
X151752613Y-68478128D01*
X151800232Y-68525747D01*
X151847851Y-68620985D01*
X151847851Y-68859080D01*
X151800232Y-68954318D01*
X151752613Y-69001937D01*
X151657375Y-69049556D01*
X151371661Y-69049556D01*
X151276422Y-69001937D01*
X151228803Y-68954318D01*
D19*
X154266508Y-87688106D02*
X154266508Y-88164682D01*
X153932904Y-87163871D02*
X154266508Y-87688106D01*
X154600112Y-87163871D01*
X155457950Y-88164682D02*
X154886058Y-88164682D01*
X155172004Y-88164682D02*
X155172004Y-87163871D01*
X155076688Y-87306844D01*
X154981373Y-87402160D01*
X154886058Y-87449817D01*
D20*
X172325553Y-87338441D02*
X172546170Y-87338441D01*
X172435861Y-87724521D02*
X172435861Y-87338441D01*
X172638094Y-87338441D02*
X172895480Y-87724521D01*
X172895480Y-87338441D02*
X172638094Y-87724521D01*
X173244791Y-87724521D02*
X173024174Y-87724521D01*
X173134482Y-87724521D02*
X173134482Y-87338441D01*
X173097713Y-87393595D01*
X173060943Y-87430365D01*
X173024174Y-87448749D01*
D21*
X174525214Y-90823142D02*
X174525214Y-90532857D01*
X174670357Y-90678000D02*
X174380071Y-90678000D01*
D20*
X171955226Y-94910152D02*
X171826533Y-94726304D01*
X171734609Y-94910152D02*
X171734609Y-94524072D01*
X171881687Y-94524072D01*
X171918457Y-94542457D01*
X171936841Y-94560841D01*
X171955226Y-94597611D01*
X171955226Y-94652765D01*
X171936841Y-94689535D01*
X171918457Y-94707919D01*
X171881687Y-94726304D01*
X171734609Y-94726304D01*
X172083920Y-94524072D02*
X172341306Y-94910152D01*
X172341306Y-94524072D02*
X172083920Y-94910152D01*
X172690617Y-94910152D02*
X172470000Y-94910152D01*
X172580308Y-94910152D02*
X172580308Y-94524072D01*
X172543539Y-94579226D01*
X172506769Y-94615996D01*
X172470000Y-94634380D01*
D21*
X172493214Y-92093142D02*
X172493214Y-91802857D01*
X172638357Y-91948000D02*
X172348071Y-91948000D01*
D20*
X149052210Y-75589063D02*
X148923516Y-75405215D01*
X148831593Y-75589063D02*
X148831593Y-75202983D01*
X148978671Y-75202983D01*
X149015440Y-75221368D01*
X149033825Y-75239752D01*
X149052210Y-75276522D01*
X149052210Y-75331676D01*
X149033825Y-75368446D01*
X149015440Y-75386830D01*
X148978671Y-75405215D01*
X148831593Y-75405215D01*
X149383135Y-75202983D02*
X149309596Y-75202983D01*
X149272827Y-75221368D01*
X149254442Y-75239752D01*
X149217673Y-75294907D01*
X149199288Y-75368446D01*
X149199288Y-75515524D01*
X149217673Y-75552293D01*
X149236057Y-75570678D01*
X149272827Y-75589063D01*
X149346366Y-75589063D01*
X149383135Y-75570678D01*
X149401520Y-75552293D01*
X149419905Y-75515524D01*
X149419905Y-75423600D01*
X149401520Y-75386830D01*
X149383135Y-75368446D01*
X149346366Y-75350061D01*
X149272827Y-75350061D01*
X149236057Y-75368446D01*
X149217673Y-75386830D01*
X149199288Y-75423600D01*
X149072936Y-55187721D02*
X148944242Y-55003873D01*
X148852319Y-55187721D02*
X148852319Y-54801641D01*
X148999397Y-54801641D01*
X149036166Y-54820026D01*
X149054551Y-54838410D01*
X149072936Y-54875180D01*
X149072936Y-54930334D01*
X149054551Y-54967104D01*
X149036166Y-54985488D01*
X148999397Y-55003873D01*
X148852319Y-55003873D01*
X149422246Y-54801641D02*
X149238399Y-54801641D01*
X149220014Y-54985488D01*
X149238399Y-54967104D01*
X149275168Y-54948719D01*
X149367092Y-54948719D01*
X149403861Y-54967104D01*
X149422246Y-54985488D01*
X149440631Y-55022258D01*
X149440631Y-55114182D01*
X149422246Y-55150951D01*
X149403861Y-55169336D01*
X149367092Y-55187721D01*
X149275168Y-55187721D01*
X149238399Y-55169336D01*
X149220014Y-55150951D01*
X173945592Y-84778856D02*
X173816899Y-84595008D01*
X173724975Y-84778856D02*
X173724975Y-84392776D01*
X173872053Y-84392776D01*
X173908822Y-84411161D01*
X173927207Y-84429545D01*
X173945592Y-84466315D01*
X173945592Y-84521469D01*
X173927207Y-84558239D01*
X173908822Y-84576623D01*
X173872053Y-84595008D01*
X173724975Y-84595008D01*
X174276518Y-84521469D02*
X174276518Y-84778856D01*
X174184594Y-84374391D02*
X174092670Y-84650162D01*
X174331672Y-84650162D01*
X172509050Y-97205676D02*
X172380356Y-97021828D01*
X172288433Y-97205676D02*
X172288433Y-96819596D01*
X172435511Y-96819596D01*
X172472280Y-96837981D01*
X172490665Y-96856365D01*
X172509050Y-96893135D01*
X172509050Y-96948289D01*
X172490665Y-96985059D01*
X172472280Y-97003443D01*
X172435511Y-97021828D01*
X172288433Y-97021828D01*
X172637743Y-96819596D02*
X172876745Y-96819596D01*
X172748052Y-96966674D01*
X172803206Y-96966674D01*
X172839975Y-96985059D01*
X172858360Y-97003443D01*
X172876745Y-97040213D01*
X172876745Y-97132137D01*
X172858360Y-97168906D01*
X172839975Y-97187291D01*
X172803206Y-97205676D01*
X172692897Y-97205676D01*
X172656128Y-97187291D01*
X172637743Y-97168906D01*
X146129725Y-68038772D02*
X146001031Y-67854924D01*
X145909108Y-68038772D02*
X145909108Y-67652692D01*
X146056186Y-67652692D01*
X146092955Y-67671077D01*
X146111340Y-67689461D01*
X146129725Y-67726231D01*
X146129725Y-67781385D01*
X146111340Y-67818155D01*
X146092955Y-67836539D01*
X146056186Y-67854924D01*
X145909108Y-67854924D01*
X146276803Y-67689461D02*
X146295188Y-67671077D01*
X146331957Y-67652692D01*
X146423881Y-67652692D01*
X146460650Y-67671077D01*
X146479035Y-67689461D01*
X146497420Y-67726231D01*
X146497420Y-67763000D01*
X146479035Y-67818155D01*
X146258418Y-68038772D01*
X146497420Y-68038772D01*
X148656965Y-71399534D02*
X148528271Y-71215686D01*
X148436348Y-71399534D02*
X148436348Y-71013454D01*
X148583426Y-71013454D01*
X148620195Y-71031839D01*
X148638580Y-71050223D01*
X148656965Y-71086993D01*
X148656965Y-71142147D01*
X148638580Y-71178917D01*
X148620195Y-71197301D01*
X148583426Y-71215686D01*
X148436348Y-71215686D01*
X149024660Y-71399534D02*
X148804043Y-71399534D01*
X148914351Y-71399534D02*
X148914351Y-71013454D01*
X148877582Y-71068608D01*
X148840812Y-71105378D01*
X148804043Y-71123762D01*
X150261184Y-54924657D02*
X150261184Y-54538577D01*
X150408262Y-54538577D01*
X150445031Y-54556962D01*
X150463416Y-54575346D01*
X150481801Y-54612116D01*
X150481801Y-54667270D01*
X150463416Y-54704040D01*
X150445031Y-54722424D01*
X150408262Y-54740809D01*
X150261184Y-54740809D01*
X150610494Y-54538577D02*
X150702418Y-54924657D01*
X150775957Y-54648885D01*
X150849496Y-54924657D01*
X150941420Y-54538577D01*
X151309115Y-54924657D02*
X151180422Y-54740809D01*
X151088498Y-54924657D02*
X151088498Y-54538577D01*
X151235576Y-54538577D01*
X151272345Y-54556962D01*
X151290730Y-54575346D01*
X151309115Y-54612116D01*
X151309115Y-54667270D01*
X151290730Y-54704040D01*
X151272345Y-54722424D01*
X151235576Y-54740809D01*
X151088498Y-54740809D01*
X151676810Y-54924657D02*
X151456193Y-54924657D01*
X151566502Y-54924657D02*
X151566502Y-54538577D01*
X151529732Y-54593731D01*
X151492963Y-54630501D01*
X151456193Y-54648885D01*
D10*
X157138952Y-94686380D02*
X157138952Y-93686380D01*
X157710380Y-94686380D01*
X157710380Y-93686380D01*
X158186571Y-94162571D02*
X158519904Y-94162571D01*
X158662761Y-94686380D02*
X158186571Y-94686380D01*
X158186571Y-93686380D01*
X158662761Y-93686380D01*
X159091333Y-93686380D02*
X159091333Y-94495904D01*
X159138952Y-94591142D01*
X159186571Y-94638761D01*
X159281809Y-94686380D01*
X159472285Y-94686380D01*
X159567523Y-94638761D01*
X159615142Y-94591142D01*
X159662761Y-94495904D01*
X159662761Y-93686380D01*
X159996095Y-93686380D02*
X160567523Y-93686380D01*
X160281809Y-94686380D02*
X160281809Y-93686380D01*
X161424666Y-94686380D02*
X160853238Y-94686380D01*
X161138952Y-94686380D02*
X161138952Y-93686380D01*
X161043714Y-93829238D01*
X160948476Y-93924476D01*
X160853238Y-93972095D01*
X165218084Y-60950452D02*
X165218084Y-61664738D01*
X165170465Y-61807595D01*
X165075227Y-61902833D01*
X164932370Y-61950452D01*
X164837132Y-61950452D01*
X165646656Y-61045691D02*
X165694275Y-60998072D01*
X165789513Y-60950452D01*
X166027608Y-60950452D01*
X166122846Y-60998072D01*
X166170465Y-61045691D01*
X166218084Y-61140929D01*
X166218084Y-61236167D01*
X166170465Y-61379024D01*
X165599037Y-61950452D01*
X166218084Y-61950452D01*
D19*
X171042424Y-115142043D02*
X171042424Y-116142043D01*
X170975757Y-116342043D01*
X170842424Y-116475376D01*
X170642424Y-116542043D01*
X170509091Y-116542043D01*
X172442424Y-116542043D02*
X171642424Y-116542043D01*
X172042424Y-116542043D02*
X172042424Y-115142043D01*
X171909091Y-115342043D01*
X171775757Y-115475376D01*
X171642424Y-115542043D01*
D10*
X135831902Y-66464200D02*
X135831902Y-65464200D01*
X136879521Y-66368962D02*
X136831902Y-66416581D01*
X136689045Y-66464200D01*
X136593807Y-66464200D01*
X136450950Y-66416581D01*
X136355712Y-66321343D01*
X136308093Y-66226105D01*
X136260473Y-66035629D01*
X136260473Y-65892772D01*
X136308093Y-65702296D01*
X136355712Y-65607058D01*
X136450950Y-65511820D01*
X136593807Y-65464200D01*
X136689045Y-65464200D01*
X136831902Y-65511820D01*
X136879521Y-65559439D01*
X137831902Y-66464200D02*
X137260473Y-66464200D01*
X137546188Y-66464200D02*
X137546188Y-65464200D01*
X137450950Y-65607058D01*
X137355712Y-65702296D01*
X137260473Y-65749915D01*
X166401904Y-93734000D02*
X166306666Y-93686380D01*
X166163809Y-93686380D01*
X166020952Y-93734000D01*
X165925714Y-93829238D01*
X165878095Y-93924476D01*
X165830476Y-94114952D01*
X165830476Y-94257809D01*
X165878095Y-94448285D01*
X165925714Y-94543523D01*
X166020952Y-94638761D01*
X166163809Y-94686380D01*
X166259047Y-94686380D01*
X166401904Y-94638761D01*
X166449523Y-94591142D01*
X166449523Y-94257809D01*
X166259047Y-94257809D01*
X166878095Y-94686380D02*
X166878095Y-93686380D01*
X167449523Y-94686380D01*
X167449523Y-93686380D01*
X167925714Y-94686380D02*
X167925714Y-93686380D01*
X168163809Y-93686380D01*
X168306666Y-93734000D01*
X168401904Y-93829238D01*
X168449523Y-93924476D01*
X168497142Y-94114952D01*
X168497142Y-94257809D01*
X168449523Y-94448285D01*
X168401904Y-94543523D01*
X168306666Y-94638761D01*
X168163809Y-94686380D01*
X167925714Y-94686380D01*
X169449523Y-94686380D02*
X168878095Y-94686380D01*
X169163809Y-94686380D02*
X169163809Y-93686380D01*
X169068571Y-93829238D01*
X168973333Y-93924476D01*
X168878095Y-93972095D01*
D22*
X162879871Y-110114469D02*
X162686831Y-110114469D01*
X162686831Y-110417817D02*
X162686831Y-109838697D01*
X162962602Y-109838697D01*
X163486568Y-110417817D02*
X163155642Y-110417817D01*
X163321105Y-110417817D02*
X163321105Y-109838697D01*
X163265951Y-109921429D01*
X163210797Y-109976583D01*
X163155642Y-110004160D01*
D23*
X151871446Y-103925121D02*
X151871446Y-103152961D01*
X152055294Y-103152961D01*
X152165602Y-103189731D01*
X152239141Y-103263270D01*
X152275911Y-103336809D01*
X152312680Y-103483887D01*
X152312680Y-103594195D01*
X152275911Y-103741273D01*
X152239141Y-103814812D01*
X152165602Y-103888351D01*
X152055294Y-103925121D01*
X151871446Y-103925121D01*
X153048071Y-103925121D02*
X152606836Y-103925121D01*
X152827454Y-103925121D02*
X152827454Y-103152961D01*
X152753914Y-103263270D01*
X152680375Y-103336809D01*
X152606836Y-103373578D01*
D20*
X147677225Y-59816009D02*
X147658840Y-59834394D01*
X147603686Y-59852779D01*
X147566916Y-59852779D01*
X147511762Y-59834394D01*
X147474992Y-59797624D01*
X147456608Y-59760855D01*
X147438223Y-59687316D01*
X147438223Y-59632162D01*
X147456608Y-59558623D01*
X147474992Y-59521853D01*
X147511762Y-59485084D01*
X147566916Y-59466699D01*
X147603686Y-59466699D01*
X147658840Y-59485084D01*
X147677225Y-59503468D01*
X148044920Y-59852779D02*
X147824303Y-59852779D01*
X147934611Y-59852779D02*
X147934611Y-59466699D01*
X147897842Y-59521853D01*
X147861072Y-59558623D01*
X147824303Y-59577007D01*
X148191998Y-59503468D02*
X148210383Y-59485084D01*
X148247152Y-59466699D01*
X148339076Y-59466699D01*
X148375846Y-59485084D01*
X148394230Y-59503468D01*
X148412615Y-59540238D01*
X148412615Y-59577007D01*
X148394230Y-59632162D01*
X148173613Y-59852779D01*
X148412615Y-59852779D01*
D22*
X133306053Y-84927415D02*
X133278476Y-84954992D01*
X133195744Y-84982569D01*
X133140590Y-84982569D01*
X133057858Y-84954992D01*
X133002704Y-84899838D01*
X132975127Y-84844684D01*
X132947550Y-84734375D01*
X132947550Y-84651644D01*
X132975127Y-84541335D01*
X133002704Y-84486181D01*
X133057858Y-84431027D01*
X133140590Y-84403449D01*
X133195744Y-84403449D01*
X133278476Y-84431027D01*
X133306053Y-84458604D01*
X133857596Y-84982569D02*
X133526670Y-84982569D01*
X133692133Y-84982569D02*
X133692133Y-84403449D01*
X133636978Y-84486181D01*
X133581824Y-84541335D01*
X133526670Y-84568912D01*
X134216098Y-84403449D02*
X134271253Y-84403449D01*
X134326407Y-84431027D01*
X134353984Y-84458604D01*
X134381561Y-84513758D01*
X134409138Y-84624067D01*
X134409138Y-84761952D01*
X134381561Y-84872261D01*
X134353984Y-84927415D01*
X134326407Y-84954992D01*
X134271253Y-84982569D01*
X134216098Y-84982569D01*
X134160944Y-84954992D01*
X134133367Y-84927415D01*
X134105790Y-84872261D01*
X134078213Y-84761952D01*
X134078213Y-84624067D01*
X134105790Y-84513758D01*
X134133367Y-84458604D01*
X134160944Y-84431027D01*
X134216098Y-84403449D01*
D20*
X170730152Y-63896807D02*
X170711767Y-63915192D01*
X170656613Y-63933577D01*
X170619843Y-63933577D01*
X170564689Y-63915192D01*
X170527919Y-63878422D01*
X170509535Y-63841653D01*
X170491150Y-63768114D01*
X170491150Y-63712960D01*
X170509535Y-63639421D01*
X170527919Y-63602651D01*
X170564689Y-63565882D01*
X170619843Y-63547497D01*
X170656613Y-63547497D01*
X170711767Y-63565882D01*
X170730152Y-63584266D01*
X170913999Y-63933577D02*
X170987538Y-63933577D01*
X171024308Y-63915192D01*
X171042693Y-63896807D01*
X171079462Y-63841653D01*
X171097847Y-63768114D01*
X171097847Y-63621036D01*
X171079462Y-63584266D01*
X171061077Y-63565882D01*
X171024308Y-63547497D01*
X170950769Y-63547497D01*
X170913999Y-63565882D01*
X170895615Y-63584266D01*
X170877230Y-63621036D01*
X170877230Y-63712960D01*
X170895615Y-63749729D01*
X170913999Y-63768114D01*
X170950769Y-63786499D01*
X171024308Y-63786499D01*
X171061077Y-63768114D01*
X171079462Y-63749729D01*
X171097847Y-63712960D01*
X158836803Y-103738255D02*
X158818418Y-103756640D01*
X158763264Y-103775025D01*
X158726494Y-103775025D01*
X158671340Y-103756640D01*
X158634570Y-103719870D01*
X158616186Y-103683101D01*
X158597801Y-103609562D01*
X158597801Y-103554408D01*
X158616186Y-103480869D01*
X158634570Y-103444099D01*
X158671340Y-103407330D01*
X158726494Y-103388945D01*
X158763264Y-103388945D01*
X158818418Y-103407330D01*
X158836803Y-103425714D01*
X159057420Y-103554408D02*
X159020650Y-103536023D01*
X159002266Y-103517638D01*
X158983881Y-103480869D01*
X158983881Y-103462484D01*
X159002266Y-103425714D01*
X159020650Y-103407330D01*
X159057420Y-103388945D01*
X159130959Y-103388945D01*
X159167728Y-103407330D01*
X159186113Y-103425714D01*
X159204498Y-103462484D01*
X159204498Y-103480869D01*
X159186113Y-103517638D01*
X159167728Y-103536023D01*
X159130959Y-103554408D01*
X159057420Y-103554408D01*
X159020650Y-103572792D01*
X159002266Y-103591177D01*
X158983881Y-103627947D01*
X158983881Y-103701486D01*
X159002266Y-103738255D01*
X159020650Y-103756640D01*
X159057420Y-103775025D01*
X159130959Y-103775025D01*
X159167728Y-103756640D01*
X159186113Y-103738255D01*
X159204498Y-103701486D01*
X159204498Y-103627947D01*
X159186113Y-103591177D01*
X159167728Y-103572792D01*
X159130959Y-103554408D01*
D18*
X150542777Y-107555375D02*
X150482301Y-107615851D01*
X150300872Y-107676327D01*
X150179920Y-107676327D01*
X149998491Y-107615851D01*
X149877539Y-107494899D01*
X149817063Y-107373946D01*
X149756586Y-107132042D01*
X149756586Y-106950613D01*
X149817063Y-106708708D01*
X149877539Y-106587756D01*
X149998491Y-106466804D01*
X150179920Y-106406327D01*
X150300872Y-106406327D01*
X150482301Y-106466804D01*
X150542777Y-106527280D01*
X150966110Y-106406327D02*
X151812777Y-106406327D01*
X151268491Y-107676327D01*
D14*
X157794476Y-107224285D02*
X158181523Y-107224285D01*
X157988000Y-107417809D02*
X157988000Y-107030761D01*
D18*
X134876681Y-61387149D02*
X134816205Y-61447625D01*
X134634776Y-61508101D01*
X134513824Y-61508101D01*
X134332395Y-61447625D01*
X134211443Y-61326673D01*
X134150967Y-61205720D01*
X134090490Y-60963816D01*
X134090490Y-60782387D01*
X134150967Y-60540482D01*
X134211443Y-60419530D01*
X134332395Y-60298578D01*
X134513824Y-60238101D01*
X134634776Y-60238101D01*
X134816205Y-60298578D01*
X134876681Y-60359054D01*
X135965252Y-60238101D02*
X135723348Y-60238101D01*
X135602395Y-60298578D01*
X135541919Y-60359054D01*
X135420967Y-60540482D01*
X135360490Y-60782387D01*
X135360490Y-61266197D01*
X135420967Y-61387149D01*
X135481443Y-61447625D01*
X135602395Y-61508101D01*
X135844300Y-61508101D01*
X135965252Y-61447625D01*
X136025728Y-61387149D01*
X136086205Y-61266197D01*
X136086205Y-60963816D01*
X136025728Y-60842863D01*
X135965252Y-60782387D01*
X135844300Y-60721911D01*
X135602395Y-60721911D01*
X135481443Y-60782387D01*
X135420967Y-60842863D01*
X135360490Y-60963816D01*
D14*
X142046476Y-59726285D02*
X142433523Y-59726285D01*
X142240000Y-59919809D02*
X142240000Y-59532761D01*
D20*
X143805670Y-61412845D02*
X143787285Y-61431230D01*
X143732131Y-61449615D01*
X143695361Y-61449615D01*
X143640207Y-61431230D01*
X143603438Y-61394460D01*
X143585053Y-61357691D01*
X143566668Y-61284152D01*
X143566668Y-61228998D01*
X143585053Y-61155459D01*
X143603438Y-61118689D01*
X143640207Y-61081920D01*
X143695361Y-61063535D01*
X143732131Y-61063535D01*
X143787285Y-61081920D01*
X143805670Y-61100304D01*
X144154980Y-61063535D02*
X143971133Y-61063535D01*
X143952748Y-61247382D01*
X143971133Y-61228998D01*
X144007902Y-61210613D01*
X144099826Y-61210613D01*
X144136596Y-61228998D01*
X144154980Y-61247382D01*
X144173365Y-61284152D01*
X144173365Y-61376076D01*
X144154980Y-61412845D01*
X144136596Y-61431230D01*
X144099826Y-61449615D01*
X144007902Y-61449615D01*
X143971133Y-61431230D01*
X143952748Y-61412845D01*
X140204808Y-57311672D02*
X140186423Y-57330057D01*
X140131269Y-57348442D01*
X140094499Y-57348442D01*
X140039345Y-57330057D01*
X140002576Y-57293287D01*
X139984191Y-57256518D01*
X139965806Y-57182979D01*
X139965806Y-57127825D01*
X139984191Y-57054286D01*
X140002576Y-57017516D01*
X140039345Y-56980747D01*
X140094499Y-56962362D01*
X140131269Y-56962362D01*
X140186423Y-56980747D01*
X140204808Y-56999131D01*
X140535734Y-57091055D02*
X140535734Y-57348442D01*
X140443810Y-56943977D02*
X140351886Y-57219748D01*
X140590888Y-57219748D01*
X144773962Y-62268860D02*
X144755577Y-62287245D01*
X144700423Y-62305630D01*
X144663653Y-62305630D01*
X144608499Y-62287245D01*
X144571729Y-62250475D01*
X144553345Y-62213706D01*
X144534960Y-62140167D01*
X144534960Y-62085013D01*
X144553345Y-62011474D01*
X144571729Y-61974704D01*
X144608499Y-61937935D01*
X144663653Y-61919550D01*
X144700423Y-61919550D01*
X144755577Y-61937935D01*
X144773962Y-61956319D01*
X144902655Y-61919550D02*
X145141657Y-61919550D01*
X145012964Y-62066628D01*
X145068118Y-62066628D01*
X145104887Y-62085013D01*
X145123272Y-62103397D01*
X145141657Y-62140167D01*
X145141657Y-62232091D01*
X145123272Y-62268860D01*
X145104887Y-62287245D01*
X145068118Y-62305630D01*
X144957809Y-62305630D01*
X144921040Y-62287245D01*
X144902655Y-62268860D01*
D22*
X161047163Y-80429429D02*
X161019586Y-80457006D01*
X160936855Y-80484583D01*
X160881700Y-80484583D01*
X160798969Y-80457006D01*
X160743815Y-80401852D01*
X160716238Y-80346698D01*
X160688660Y-80236389D01*
X160688660Y-80153658D01*
X160716238Y-80043349D01*
X160743815Y-79988195D01*
X160798969Y-79933041D01*
X160881700Y-79905463D01*
X160936855Y-79905463D01*
X161019586Y-79933041D01*
X161047163Y-79960618D01*
X161267780Y-79960618D02*
X161295358Y-79933041D01*
X161350512Y-79905463D01*
X161488398Y-79905463D01*
X161543552Y-79933041D01*
X161571129Y-79960618D01*
X161598706Y-80015772D01*
X161598706Y-80070926D01*
X161571129Y-80153658D01*
X161240203Y-80484583D01*
X161598706Y-80484583D01*
X152002131Y-80462237D02*
X151974554Y-80489814D01*
X151891822Y-80517391D01*
X151836668Y-80517391D01*
X151753936Y-80489814D01*
X151698782Y-80434660D01*
X151671205Y-80379506D01*
X151643628Y-80269197D01*
X151643628Y-80186466D01*
X151671205Y-80076157D01*
X151698782Y-80021003D01*
X151753936Y-79965849D01*
X151836668Y-79938271D01*
X151891822Y-79938271D01*
X151974554Y-79965849D01*
X152002131Y-79993426D01*
X152553674Y-80517391D02*
X152222748Y-80517391D01*
X152388211Y-80517391D02*
X152388211Y-79938271D01*
X152333056Y-80021003D01*
X152277902Y-80076157D01*
X152222748Y-80103734D01*
D24*
X140388765Y-108004423D02*
X140425535Y-107894114D01*
X140462304Y-107857345D01*
X140535843Y-107820575D01*
X140646152Y-107820575D01*
X140719691Y-107857345D01*
X140756460Y-107894114D01*
X140793230Y-107967653D01*
X140793230Y-108261810D01*
X140021070Y-108261810D01*
X140021070Y-108004423D01*
X140057840Y-107930884D01*
X140094609Y-107894114D01*
X140168148Y-107857345D01*
X140241687Y-107857345D01*
X140315226Y-107894114D01*
X140351996Y-107930884D01*
X140388765Y-108004423D01*
X140388765Y-108261810D01*
X140793230Y-107085185D02*
X140793230Y-107526419D01*
X140793230Y-107305802D02*
X140021070Y-107305802D01*
X140131379Y-107379341D01*
X140204918Y-107452880D01*
X140241687Y-107526419D01*
D10*
X150145904Y-93734000D02*
X150050666Y-93686380D01*
X149907809Y-93686380D01*
X149764952Y-93734000D01*
X149669714Y-93829238D01*
X149622095Y-93924476D01*
X149574476Y-94114952D01*
X149574476Y-94257809D01*
X149622095Y-94448285D01*
X149669714Y-94543523D01*
X149764952Y-94638761D01*
X149907809Y-94686380D01*
X150003047Y-94686380D01*
X150145904Y-94638761D01*
X150193523Y-94591142D01*
X150193523Y-94257809D01*
X150003047Y-94257809D01*
X150622095Y-94686380D02*
X150622095Y-93686380D01*
X151193523Y-94686380D01*
X151193523Y-93686380D01*
X151669714Y-94686380D02*
X151669714Y-93686380D01*
X151907809Y-93686380D01*
X152050666Y-93734000D01*
X152145904Y-93829238D01*
X152193523Y-93924476D01*
X152241142Y-94114952D01*
X152241142Y-94257809D01*
X152193523Y-94448285D01*
X152145904Y-94543523D01*
X152050666Y-94638761D01*
X151907809Y-94686380D01*
X151669714Y-94686380D01*
X153098285Y-93686380D02*
X152907809Y-93686380D01*
X152812571Y-93734000D01*
X152764952Y-93781619D01*
X152669714Y-93924476D01*
X152622095Y-94114952D01*
X152622095Y-94495904D01*
X152669714Y-94591142D01*
X152717333Y-94638761D01*
X152812571Y-94686380D01*
X153003047Y-94686380D01*
X153098285Y-94638761D01*
X153145904Y-94591142D01*
X153193523Y-94495904D01*
X153193523Y-94257809D01*
X153145904Y-94162571D01*
X153098285Y-94114952D01*
X153003047Y-94067333D01*
X152812571Y-94067333D01*
X152717333Y-94114952D01*
X152669714Y-94162571D01*
X152622095Y-94257809D01*
D20*
X174080463Y-67561067D02*
X173951770Y-67377219D01*
X173859846Y-67561067D02*
X173859846Y-67174987D01*
X174006924Y-67174987D01*
X174043693Y-67193372D01*
X174062078Y-67211756D01*
X174080463Y-67248526D01*
X174080463Y-67303680D01*
X174062078Y-67340450D01*
X174043693Y-67358834D01*
X174006924Y-67377219D01*
X173859846Y-67377219D01*
X174301080Y-67340450D02*
X174264311Y-67322065D01*
X174245926Y-67303680D01*
X174227541Y-67266911D01*
X174227541Y-67248526D01*
X174245926Y-67211756D01*
X174264311Y-67193372D01*
X174301080Y-67174987D01*
X174374619Y-67174987D01*
X174411389Y-67193372D01*
X174429773Y-67211756D01*
X174448158Y-67248526D01*
X174448158Y-67266911D01*
X174429773Y-67303680D01*
X174411389Y-67322065D01*
X174374619Y-67340450D01*
X174301080Y-67340450D01*
X174264311Y-67358834D01*
X174245926Y-67377219D01*
X174227541Y-67413989D01*
X174227541Y-67487528D01*
X174245926Y-67524297D01*
X174264311Y-67542682D01*
X174301080Y-67561067D01*
X174374619Y-67561067D01*
X174411389Y-67542682D01*
X174429773Y-67524297D01*
X174448158Y-67487528D01*
X174448158Y-67413989D01*
X174429773Y-67377219D01*
X174411389Y-67358834D01*
X174374619Y-67340450D01*
X170646350Y-67020944D02*
X170517657Y-66837096D01*
X170425733Y-67020944D02*
X170425733Y-66634864D01*
X170572811Y-66634864D01*
X170609580Y-66653249D01*
X170627965Y-66671633D01*
X170646350Y-66708403D01*
X170646350Y-66763557D01*
X170627965Y-66800327D01*
X170609580Y-66818711D01*
X170572811Y-66837096D01*
X170425733Y-66837096D01*
X170830198Y-67020944D02*
X170903737Y-67020944D01*
X170940506Y-67002559D01*
X170958891Y-66984174D01*
X170995660Y-66929020D01*
X171014045Y-66855481D01*
X171014045Y-66708403D01*
X170995660Y-66671633D01*
X170977276Y-66653249D01*
X170940506Y-66634864D01*
X170866967Y-66634864D01*
X170830198Y-66653249D01*
X170811813Y-66671633D01*
X170793428Y-66708403D01*
X170793428Y-66800327D01*
X170811813Y-66837096D01*
X170830198Y-66855481D01*
X170866967Y-66873866D01*
X170940506Y-66873866D01*
X170977276Y-66855481D01*
X170995660Y-66837096D01*
X171014045Y-66800327D01*
X169699468Y-62373223D02*
X169570775Y-62189375D01*
X169478851Y-62373223D02*
X169478851Y-61987143D01*
X169625929Y-61987143D01*
X169662698Y-62005528D01*
X169681083Y-62023912D01*
X169699468Y-62060682D01*
X169699468Y-62115836D01*
X169681083Y-62152606D01*
X169662698Y-62170990D01*
X169625929Y-62189375D01*
X169478851Y-62189375D01*
X169828161Y-61987143D02*
X170085548Y-61987143D01*
X169920085Y-62373223D01*
M02*
