G04 #@! TF.GenerationSoftware,KiCad,Pcbnew,(5.1.10)-1*
G04 #@! TF.CreationDate,2021-10-14T14:39:51-07:00*
G04 #@! TF.ProjectId,Plug_Pass,506c7567-5f50-4617-9373-2e6b69636164,v3.1*
G04 #@! TF.SameCoordinates,Original*
G04 #@! TF.FileFunction,Soldermask,Bot*
G04 #@! TF.FilePolarity,Negative*
%FSLAX46Y46*%
G04 Gerber Fmt 4.6, Leading zero omitted, Abs format (unit mm)*
G04 Created by KiCad (PCBNEW (5.1.10)-1) date 2021-10-14 14:39:51*
%MOMM*%
%LPD*%
G01*
G04 APERTURE LIST*
%ADD10O,2.181600X1.141600*%
%ADD11C,1.131600*%
%ADD12C,2.101600*%
%ADD13C,2.601600*%
%ADD14C,4.101600*%
%ADD15O,1.201600X2.301600*%
G04 APERTURE END LIST*
D10*
X172212000Y-99822000D03*
X172212000Y-101092000D03*
X172212000Y-102362000D03*
D11*
X149706000Y-84074000D03*
X154586000Y-84074000D03*
D12*
X145034000Y-92456000D03*
X137414000Y-92456000D03*
X145034000Y-87376000D03*
X137414000Y-87376000D03*
X134874000Y-92456000D03*
G36*
G01*
X133823200Y-88376000D02*
X133823200Y-86376000D01*
G75*
G02*
X133874000Y-86325200I50800J0D01*
G01*
X135874000Y-86325200D01*
G75*
G02*
X135924800Y-86376000I0J-50800D01*
G01*
X135924800Y-88376000D01*
G75*
G02*
X135874000Y-88426800I-50800J0D01*
G01*
X133874000Y-88426800D01*
G75*
G02*
X133823200Y-88376000I0J50800D01*
G01*
G37*
D13*
X163402200Y-102412800D03*
X163402200Y-112572800D03*
G36*
G01*
X148702200Y-96552000D02*
X152702200Y-96552000D01*
G75*
G02*
X152753000Y-96602800I0J-50800D01*
G01*
X152753000Y-100602800D01*
G75*
G02*
X152702200Y-100653600I-50800J0D01*
G01*
X148702200Y-100653600D01*
G75*
G02*
X148651400Y-100602800I0J50800D01*
G01*
X148651400Y-96602800D01*
G75*
G02*
X148702200Y-96552000I50800J0D01*
G01*
G37*
D14*
X148162200Y-116382800D03*
G36*
G01*
X138722800Y-82423000D02*
X138722800Y-84453000D01*
G75*
G02*
X138672000Y-84503800I-50800J0D01*
G01*
X137172000Y-84503800D01*
G75*
G02*
X137121200Y-84453000I0J50800D01*
G01*
X137121200Y-82423000D01*
G75*
G02*
X137172000Y-82372200I50800J0D01*
G01*
X138672000Y-82372200D01*
G75*
G02*
X138722800Y-82423000I0J-50800D01*
G01*
G37*
G36*
G01*
X141262800Y-82423000D02*
X141262800Y-84453000D01*
G75*
G02*
X141212000Y-84503800I-50800J0D01*
G01*
X139712000Y-84503800D01*
G75*
G02*
X139661200Y-84453000I0J50800D01*
G01*
X139661200Y-82423000D01*
G75*
G02*
X139712000Y-82372200I50800J0D01*
G01*
X141212000Y-82372200D01*
G75*
G02*
X141262800Y-82423000I0J-50800D01*
G01*
G37*
G36*
G01*
X143802800Y-82423000D02*
X143802800Y-84453000D01*
G75*
G02*
X143752000Y-84503800I-50800J0D01*
G01*
X142252000Y-84503800D01*
G75*
G02*
X142201200Y-84453000I0J50800D01*
G01*
X142201200Y-82423000D01*
G75*
G02*
X142252000Y-82372200I50800J0D01*
G01*
X143752000Y-82372200D01*
G75*
G02*
X143802800Y-82423000I0J-50800D01*
G01*
G37*
G36*
G01*
X146342800Y-82423000D02*
X146342800Y-84453000D01*
G75*
G02*
X146292000Y-84503800I-50800J0D01*
G01*
X144792000Y-84503800D01*
G75*
G02*
X144741200Y-84453000I0J50800D01*
G01*
X144741200Y-82423000D01*
G75*
G02*
X144792000Y-82372200I50800J0D01*
G01*
X146292000Y-82372200D01*
G75*
G02*
X146342800Y-82423000I0J-50800D01*
G01*
G37*
G36*
G01*
X159042800Y-82423000D02*
X159042800Y-84453000D01*
G75*
G02*
X158992000Y-84503800I-50800J0D01*
G01*
X157492000Y-84503800D01*
G75*
G02*
X157441200Y-84453000I0J50800D01*
G01*
X157441200Y-82423000D01*
G75*
G02*
X157492000Y-82372200I50800J0D01*
G01*
X158992000Y-82372200D01*
G75*
G02*
X159042800Y-82423000I0J-50800D01*
G01*
G37*
G36*
G01*
X164122800Y-82423000D02*
X164122800Y-84453000D01*
G75*
G02*
X164072000Y-84503800I-50800J0D01*
G01*
X162572000Y-84503800D01*
G75*
G02*
X162521200Y-84453000I0J50800D01*
G01*
X162521200Y-82423000D01*
G75*
G02*
X162572000Y-82372200I50800J0D01*
G01*
X164072000Y-82372200D01*
G75*
G02*
X164122800Y-82423000I0J-50800D01*
G01*
G37*
G36*
G01*
X169202800Y-82423000D02*
X169202800Y-84453000D01*
G75*
G02*
X169152000Y-84503800I-50800J0D01*
G01*
X167652000Y-84503800D01*
G75*
G02*
X167601200Y-84453000I0J50800D01*
G01*
X167601200Y-82423000D01*
G75*
G02*
X167652000Y-82372200I50800J0D01*
G01*
X169152000Y-82372200D01*
G75*
G02*
X169202800Y-82423000I0J-50800D01*
G01*
G37*
G36*
G01*
X138722800Y-53723000D02*
X138722800Y-55753000D01*
G75*
G02*
X138672000Y-55803800I-50800J0D01*
G01*
X137172000Y-55803800D01*
G75*
G02*
X137121200Y-55753000I0J50800D01*
G01*
X137121200Y-53723000D01*
G75*
G02*
X137172000Y-53672200I50800J0D01*
G01*
X138672000Y-53672200D01*
G75*
G02*
X138722800Y-53723000I0J-50800D01*
G01*
G37*
G36*
G01*
X141262800Y-53723000D02*
X141262800Y-55753000D01*
G75*
G02*
X141212000Y-55803800I-50800J0D01*
G01*
X139712000Y-55803800D01*
G75*
G02*
X139661200Y-55753000I0J50800D01*
G01*
X139661200Y-53723000D01*
G75*
G02*
X139712000Y-53672200I50800J0D01*
G01*
X141212000Y-53672200D01*
G75*
G02*
X141262800Y-53723000I0J-50800D01*
G01*
G37*
G36*
G01*
X143802800Y-53723000D02*
X143802800Y-55753000D01*
G75*
G02*
X143752000Y-55803800I-50800J0D01*
G01*
X142252000Y-55803800D01*
G75*
G02*
X142201200Y-55753000I0J50800D01*
G01*
X142201200Y-53723000D01*
G75*
G02*
X142252000Y-53672200I50800J0D01*
G01*
X143752000Y-53672200D01*
G75*
G02*
X143802800Y-53723000I0J-50800D01*
G01*
G37*
G36*
G01*
X146342800Y-53723000D02*
X146342800Y-55753000D01*
G75*
G02*
X146292000Y-55803800I-50800J0D01*
G01*
X144792000Y-55803800D01*
G75*
G02*
X144741200Y-55753000I0J50800D01*
G01*
X144741200Y-53723000D01*
G75*
G02*
X144792000Y-53672200I50800J0D01*
G01*
X146292000Y-53672200D01*
G75*
G02*
X146342800Y-53723000I0J-50800D01*
G01*
G37*
G36*
G01*
X159042800Y-53723000D02*
X159042800Y-55753000D01*
G75*
G02*
X158992000Y-55803800I-50800J0D01*
G01*
X157492000Y-55803800D01*
G75*
G02*
X157441200Y-55753000I0J50800D01*
G01*
X157441200Y-53723000D01*
G75*
G02*
X157492000Y-53672200I50800J0D01*
G01*
X158992000Y-53672200D01*
G75*
G02*
X159042800Y-53723000I0J-50800D01*
G01*
G37*
G36*
G01*
X164122800Y-53723000D02*
X164122800Y-55753000D01*
G75*
G02*
X164072000Y-55803800I-50800J0D01*
G01*
X162572000Y-55803800D01*
G75*
G02*
X162521200Y-55753000I0J50800D01*
G01*
X162521200Y-53723000D01*
G75*
G02*
X162572000Y-53672200I50800J0D01*
G01*
X164072000Y-53672200D01*
G75*
G02*
X164122800Y-53723000I0J-50800D01*
G01*
G37*
G36*
G01*
X169202800Y-53723000D02*
X169202800Y-55753000D01*
G75*
G02*
X169152000Y-55803800I-50800J0D01*
G01*
X167652000Y-55803800D01*
G75*
G02*
X167601200Y-55753000I0J50800D01*
G01*
X167601200Y-53723000D01*
G75*
G02*
X167652000Y-53672200I50800J0D01*
G01*
X169152000Y-53672200D01*
G75*
G02*
X169202800Y-53723000I0J-50800D01*
G01*
G37*
G36*
G01*
X156207200Y-93424000D02*
X156207200Y-87424000D01*
G75*
G02*
X156258000Y-87373200I50800J0D01*
G01*
X162258000Y-87373200D01*
G75*
G02*
X162308800Y-87424000I0J-50800D01*
G01*
X162308800Y-93424000D01*
G75*
G02*
X162258000Y-93474800I-50800J0D01*
G01*
X156258000Y-93474800D01*
G75*
G02*
X156207200Y-93424000I0J50800D01*
G01*
G37*
D15*
X173482000Y-113544000D03*
X173482000Y-107944000D03*
X171332000Y-110744000D03*
G36*
G01*
X164589200Y-93424000D02*
X164589200Y-87424000D01*
G75*
G02*
X164640000Y-87373200I50800J0D01*
G01*
X170640000Y-87373200D01*
G75*
G02*
X170690800Y-87424000I0J-50800D01*
G01*
X170690800Y-93424000D01*
G75*
G02*
X170640000Y-93474800I-50800J0D01*
G01*
X164640000Y-93474800D01*
G75*
G02*
X164589200Y-93424000I0J50800D01*
G01*
G37*
G36*
G01*
X130045200Y-123142000D02*
X130045200Y-117142000D01*
G75*
G02*
X130096000Y-117091200I50800J0D01*
G01*
X136096000Y-117091200D01*
G75*
G02*
X136146800Y-117142000I0J-50800D01*
G01*
X136146800Y-123142000D01*
G75*
G02*
X136096000Y-123192800I-50800J0D01*
G01*
X130096000Y-123192800D01*
G75*
G02*
X130045200Y-123142000I0J50800D01*
G01*
G37*
G36*
G01*
X130045200Y-56086000D02*
X130045200Y-50086000D01*
G75*
G02*
X130096000Y-50035200I50800J0D01*
G01*
X136096000Y-50035200D01*
G75*
G02*
X136146800Y-50086000I0J-50800D01*
G01*
X136146800Y-56086000D01*
G75*
G02*
X136096000Y-56136800I-50800J0D01*
G01*
X130096000Y-56136800D01*
G75*
G02*
X130045200Y-56086000I0J50800D01*
G01*
G37*
G36*
G01*
X148333200Y-93424000D02*
X148333200Y-87424000D01*
G75*
G02*
X148384000Y-87373200I50800J0D01*
G01*
X154384000Y-87373200D01*
G75*
G02*
X154434800Y-87424000I0J-50800D01*
G01*
X154434800Y-93424000D01*
G75*
G02*
X154384000Y-93474800I-50800J0D01*
G01*
X148384000Y-93474800D01*
G75*
G02*
X148333200Y-93424000I0J50800D01*
G01*
G37*
G36*
G01*
X171701200Y-123142000D02*
X171701200Y-117142000D01*
G75*
G02*
X171752000Y-117091200I50800J0D01*
G01*
X177752000Y-117091200D01*
G75*
G02*
X177802800Y-117142000I0J-50800D01*
G01*
X177802800Y-123142000D01*
G75*
G02*
X177752000Y-123192800I-50800J0D01*
G01*
X171752000Y-123192800D01*
G75*
G02*
X171701200Y-123142000I0J50800D01*
G01*
G37*
G36*
G01*
X171701200Y-56086000D02*
X171701200Y-50086000D01*
G75*
G02*
X171752000Y-50035200I50800J0D01*
G01*
X177752000Y-50035200D01*
G75*
G02*
X177802800Y-50086000I0J-50800D01*
G01*
X177802800Y-56086000D01*
G75*
G02*
X177752000Y-56136800I-50800J0D01*
G01*
X171752000Y-56136800D01*
G75*
G02*
X171701200Y-56086000I0J50800D01*
G01*
G37*
M02*
