G04 #@! TF.GenerationSoftware,KiCad,Pcbnew,(5.1.10)-1*
G04 #@! TF.CreationDate,2021-10-14T14:39:51-07:00*
G04 #@! TF.ProjectId,Plug_Pass,506c7567-5f50-4617-9373-2e6b69636164,v3.1*
G04 #@! TF.SameCoordinates,Original*
G04 #@! TF.FileFunction,Legend,Bot*
G04 #@! TF.FilePolarity,Positive*
%FSLAX46Y46*%
G04 Gerber Fmt 4.6, Leading zero omitted, Abs format (unit mm)*
G04 Created by KiCad (PCBNEW (5.1.10)-1) date 2021-10-14 14:39:51*
%MOMM*%
%LPD*%
G01*
G04 APERTURE LIST*
%ADD10C,0.200000*%
%ADD11C,0.127000*%
%ADD12C,0.100000*%
%ADD13C,0.250000*%
%ADD14C,0.120000*%
%ADD15C,0.015000*%
%ADD16C,0.150000*%
G04 APERTURE END LIST*
D10*
X170007000Y-102342000D02*
G75*
G03*
X170007000Y-102342000I-100000J0D01*
G01*
D11*
X170437000Y-102817000D02*
X170437000Y-99367000D01*
X170437001Y-99367000D02*
G75*
G02*
X171957000Y-98617000I1739129J-1609369D01*
G01*
X174377000Y-101092000D02*
G75*
G03*
X171957000Y-98617000I-2447500J27500D01*
G01*
X171957000Y-103567000D02*
G75*
G03*
X174377000Y-101092000I-27500J2447500D01*
G01*
X170437001Y-102817000D02*
G75*
G03*
X171957000Y-103567000I1739129J1609369D01*
G01*
D12*
X146249000Y-93751000D02*
X146249000Y-93301000D01*
X145624000Y-93751000D02*
X146249000Y-93751000D01*
X146249000Y-86001000D02*
X145649000Y-86001000D01*
X146249000Y-86426000D02*
X146249000Y-86001000D01*
X146249000Y-86376000D02*
X146249000Y-86476000D01*
X133499000Y-93751000D02*
X133499000Y-93076000D01*
X134374000Y-93751000D02*
X133499000Y-93751000D01*
X133499000Y-86276000D02*
X133499000Y-86951000D01*
X133774000Y-86001000D02*
X133499000Y-86276000D01*
X134374000Y-86001000D02*
X133774000Y-86001000D01*
D13*
X136982200Y-95302800D02*
X169492200Y-95302800D01*
X136982200Y-122732800D02*
X169492200Y-122732800D01*
D14*
X171782000Y-81208000D02*
X171782000Y-56968000D01*
X134542000Y-81208000D02*
X171782000Y-81208000D01*
X134542000Y-56968000D02*
X134542000Y-81208000D01*
X171782000Y-56968000D02*
X134542000Y-56968000D01*
D15*
X176089619Y-100321761D02*
X176042000Y-100226523D01*
X175946761Y-100131285D01*
X175803904Y-99988428D01*
X175756285Y-99893190D01*
X175756285Y-99797952D01*
X175994380Y-99845571D02*
X175946761Y-99750333D01*
X175851523Y-99655095D01*
X175661047Y-99607476D01*
X175327714Y-99607476D01*
X175137238Y-99655095D01*
X175042000Y-99750333D01*
X174994380Y-99845571D01*
X174994380Y-100036047D01*
X175042000Y-100131285D01*
X175137238Y-100226523D01*
X175327714Y-100274142D01*
X175661047Y-100274142D01*
X175851523Y-100226523D01*
X175946761Y-100131285D01*
X175994380Y-100036047D01*
X175994380Y-99845571D01*
X175994380Y-101226523D02*
X175994380Y-100655095D01*
X175994380Y-100940809D02*
X174994380Y-100940809D01*
X175137238Y-100845571D01*
X175232476Y-100750333D01*
X175280095Y-100655095D01*
D16*
X133687907Y-85628341D02*
X134021240Y-85152151D01*
X134259335Y-85628341D02*
X134259335Y-84628341D01*
X133878383Y-84628341D01*
X133783145Y-84675961D01*
X133735526Y-84723580D01*
X133687907Y-84818818D01*
X133687907Y-84961675D01*
X133735526Y-85056913D01*
X133783145Y-85104532D01*
X133878383Y-85152151D01*
X134259335Y-85152151D01*
X132783145Y-85628341D02*
X133259335Y-85628341D01*
X133259335Y-84628341D01*
X132259335Y-85152151D02*
X132259335Y-85628341D01*
X132592668Y-84628341D02*
X132259335Y-85152151D01*
X131926002Y-84628341D01*
X131640287Y-84723580D02*
X131592668Y-84675961D01*
X131497430Y-84628341D01*
X131259335Y-84628341D01*
X131164097Y-84675961D01*
X131116478Y-84723580D01*
X131068859Y-84818818D01*
X131068859Y-84914056D01*
X131116478Y-85056913D01*
X131687907Y-85628341D01*
X131068859Y-85628341D01*
X135931343Y-99061536D02*
X136264676Y-98585346D01*
X136502771Y-99061536D02*
X136502771Y-98061536D01*
X136121819Y-98061536D01*
X136026581Y-98109156D01*
X135978962Y-98156775D01*
X135931343Y-98252013D01*
X135931343Y-98394870D01*
X135978962Y-98490108D01*
X136026581Y-98537727D01*
X136121819Y-98585346D01*
X136502771Y-98585346D01*
X135026581Y-99061536D02*
X135502771Y-99061536D01*
X135502771Y-98061536D01*
X134502771Y-98585346D02*
X134502771Y-99061536D01*
X134836104Y-98061536D02*
X134502771Y-98585346D01*
X134169438Y-98061536D01*
X133312295Y-99061536D02*
X133883723Y-99061536D01*
X133598009Y-99061536D02*
X133598009Y-98061536D01*
X133693247Y-98204394D01*
X133788485Y-98299632D01*
X133883723Y-98347251D01*
X174465413Y-81440557D02*
X174465413Y-80440557D01*
X174084461Y-80440557D01*
X173989223Y-80488177D01*
X173941604Y-80535796D01*
X173893985Y-80631034D01*
X173893985Y-80773891D01*
X173941604Y-80869129D01*
X173989223Y-80916748D01*
X174084461Y-80964367D01*
X174465413Y-80964367D01*
X173513032Y-81392938D02*
X173370175Y-81440557D01*
X173132080Y-81440557D01*
X173036842Y-81392938D01*
X172989223Y-81345319D01*
X172941604Y-81250081D01*
X172941604Y-81154843D01*
X172989223Y-81059605D01*
X173036842Y-81011986D01*
X173132080Y-80964367D01*
X173322556Y-80916748D01*
X173417794Y-80869129D01*
X173465413Y-80821510D01*
X173513032Y-80726272D01*
X173513032Y-80631034D01*
X173465413Y-80535796D01*
X173417794Y-80488177D01*
X173322556Y-80440557D01*
X173084461Y-80440557D01*
X172941604Y-80488177D01*
X171989223Y-81440557D02*
X172560651Y-81440557D01*
X172274937Y-81440557D02*
X172274937Y-80440557D01*
X172370175Y-80583415D01*
X172465413Y-80678653D01*
X172560651Y-80726272D01*
M02*
