G04 #@! TF.GenerationSoftware,KiCad,Pcbnew,(5.1.10)-1*
G04 #@! TF.CreationDate,2021-06-08T22:52:37-07:00*
G04 #@! TF.ProjectId,Plug_Pass,506c7567-5f50-4617-9373-2e6b69636164,v3.1*
G04 #@! TF.SameCoordinates,Original*
G04 #@! TF.FileFunction,Paste,Top*
G04 #@! TF.FilePolarity,Positive*
%FSLAX46Y46*%
G04 Gerber Fmt 4.6, Leading zero omitted, Abs format (unit mm)*
G04 Created by KiCad (PCBNEW (5.1.10)-1) date 2021-06-08 22:52:37*
%MOMM*%
%LPD*%
G01*
G04 APERTURE LIST*
%ADD10C,0.100000*%
%ADD11R,1.050000X0.600000*%
%ADD12R,1.500000X0.550000*%
%ADD13R,0.550000X1.500000*%
%ADD14R,1.000000X1.900000*%
%ADD15R,1.450000X0.750000*%
%ADD16R,3.200000X3.200000*%
%ADD17R,0.450000X1.500000*%
%ADD18R,1.200000X1.400000*%
%ADD19R,2.600000X1.800000*%
%ADD20R,2.150000X1.300000*%
%ADD21R,1.200000X0.800000*%
%ADD22R,0.450000X1.750000*%
G04 APERTURE END LIST*
D10*
G36*
X137690000Y-111671000D02*
G01*
X136690000Y-111671000D01*
X136690000Y-112671000D01*
X137690000Y-112671000D01*
X137690000Y-111671000D01*
G37*
G36*
X136390000Y-111671000D02*
G01*
X135390000Y-111671000D01*
X135390000Y-112671000D01*
X136390000Y-112671000D01*
X136390000Y-111671000D01*
G37*
G36*
X135090000Y-111671000D02*
G01*
X134090000Y-111671000D01*
X134090000Y-112671000D01*
X135090000Y-112671000D01*
X135090000Y-111671000D01*
G37*
G36*
X137690000Y-110371000D02*
G01*
X136690000Y-110371000D01*
X136690000Y-111371000D01*
X137690000Y-111371000D01*
X137690000Y-110371000D01*
G37*
G36*
X137690000Y-109071000D02*
G01*
X136690000Y-109071000D01*
X136690000Y-110071000D01*
X137690000Y-110071000D01*
X137690000Y-109071000D01*
G37*
G36*
X136390000Y-110371000D02*
G01*
X135390000Y-110371000D01*
X135390000Y-111371000D01*
X136390000Y-111371000D01*
X136390000Y-110371000D01*
G37*
G36*
X136390000Y-109071000D02*
G01*
X135390000Y-109071000D01*
X135390000Y-110071000D01*
X136390000Y-110071000D01*
X136390000Y-109071000D01*
G37*
G36*
X135090000Y-109071000D02*
G01*
X134090000Y-109071000D01*
X134090000Y-110071000D01*
X135090000Y-110071000D01*
X135090000Y-109071000D01*
G37*
G36*
X135090000Y-110371000D02*
G01*
X134090000Y-110371000D01*
X134090000Y-111371000D01*
X135090000Y-111371000D01*
X135090000Y-110371000D01*
G37*
D11*
X163446000Y-119380000D03*
X166246000Y-119380000D03*
G36*
G01*
X148886500Y-106622002D02*
X148886500Y-105721998D01*
G75*
G02*
X149136498Y-105472000I249998J0D01*
G01*
X149661502Y-105472000D01*
G75*
G02*
X149911500Y-105721998I0J-249998D01*
G01*
X149911500Y-106622002D01*
G75*
G02*
X149661502Y-106872000I-249998J0D01*
G01*
X149136498Y-106872000D01*
G75*
G02*
X148886500Y-106622002I0J249998D01*
G01*
G37*
G36*
G01*
X147061500Y-106622002D02*
X147061500Y-105721998D01*
G75*
G02*
X147311498Y-105472000I249998J0D01*
G01*
X147836502Y-105472000D01*
G75*
G02*
X148086500Y-105721998I0J-249998D01*
G01*
X148086500Y-106622002D01*
G75*
G02*
X147836502Y-106872000I-249998J0D01*
G01*
X147311498Y-106872000D01*
G75*
G02*
X147061500Y-106622002I0J249998D01*
G01*
G37*
G36*
G01*
X159708002Y-108462500D02*
X158807998Y-108462500D01*
G75*
G02*
X158558000Y-108212502I0J249998D01*
G01*
X158558000Y-107687498D01*
G75*
G02*
X158807998Y-107437500I249998J0D01*
G01*
X159708002Y-107437500D01*
G75*
G02*
X159958000Y-107687498I0J-249998D01*
G01*
X159958000Y-108212502D01*
G75*
G02*
X159708002Y-108462500I-249998J0D01*
G01*
G37*
G36*
G01*
X159708002Y-110287500D02*
X158807998Y-110287500D01*
G75*
G02*
X158558000Y-110037502I0J249998D01*
G01*
X158558000Y-109512498D01*
G75*
G02*
X158807998Y-109262500I249998J0D01*
G01*
X159708002Y-109262500D01*
G75*
G02*
X159958000Y-109512498I0J-249998D01*
G01*
X159958000Y-110037502D01*
G75*
G02*
X159708002Y-110287500I-249998J0D01*
G01*
G37*
G36*
G01*
X159708002Y-113034500D02*
X158807998Y-113034500D01*
G75*
G02*
X158558000Y-112784502I0J249998D01*
G01*
X158558000Y-112259498D01*
G75*
G02*
X158807998Y-112009500I249998J0D01*
G01*
X159708002Y-112009500D01*
G75*
G02*
X159958000Y-112259498I0J-249998D01*
G01*
X159958000Y-112784502D01*
G75*
G02*
X159708002Y-113034500I-249998J0D01*
G01*
G37*
G36*
G01*
X159708002Y-114859500D02*
X158807998Y-114859500D01*
G75*
G02*
X158558000Y-114609502I0J249998D01*
G01*
X158558000Y-114084498D01*
G75*
G02*
X158807998Y-113834500I249998J0D01*
G01*
X159708002Y-113834500D01*
G75*
G02*
X159958000Y-114084498I0J-249998D01*
G01*
X159958000Y-114609502D01*
G75*
G02*
X159708002Y-114859500I-249998J0D01*
G01*
G37*
G36*
G01*
X151163000Y-109350000D02*
X152113000Y-109350000D01*
G75*
G02*
X152363000Y-109600000I0J-250000D01*
G01*
X152363000Y-110100000D01*
G75*
G02*
X152113000Y-110350000I-250000J0D01*
G01*
X151163000Y-110350000D01*
G75*
G02*
X150913000Y-110100000I0J250000D01*
G01*
X150913000Y-109600000D01*
G75*
G02*
X151163000Y-109350000I250000J0D01*
G01*
G37*
G36*
G01*
X151163000Y-107450000D02*
X152113000Y-107450000D01*
G75*
G02*
X152363000Y-107700000I0J-250000D01*
G01*
X152363000Y-108200000D01*
G75*
G02*
X152113000Y-108450000I-250000J0D01*
G01*
X151163000Y-108450000D01*
G75*
G02*
X150913000Y-108200000I0J250000D01*
G01*
X150913000Y-107700000D01*
G75*
G02*
X151163000Y-107450000I250000J0D01*
G01*
G37*
G36*
G01*
X154973000Y-109350000D02*
X155923000Y-109350000D01*
G75*
G02*
X156173000Y-109600000I0J-250000D01*
G01*
X156173000Y-110100000D01*
G75*
G02*
X155923000Y-110350000I-250000J0D01*
G01*
X154973000Y-110350000D01*
G75*
G02*
X154723000Y-110100000I0J250000D01*
G01*
X154723000Y-109600000D01*
G75*
G02*
X154973000Y-109350000I250000J0D01*
G01*
G37*
G36*
G01*
X154973000Y-107450000D02*
X155923000Y-107450000D01*
G75*
G02*
X156173000Y-107700000I0J-250000D01*
G01*
X156173000Y-108200000D01*
G75*
G02*
X155923000Y-108450000I-250000J0D01*
G01*
X154973000Y-108450000D01*
G75*
G02*
X154723000Y-108200000I0J250000D01*
G01*
X154723000Y-107700000D01*
G75*
G02*
X154973000Y-107450000I250000J0D01*
G01*
G37*
G36*
G01*
X154973000Y-113922000D02*
X155923000Y-113922000D01*
G75*
G02*
X156173000Y-114172000I0J-250000D01*
G01*
X156173000Y-114672000D01*
G75*
G02*
X155923000Y-114922000I-250000J0D01*
G01*
X154973000Y-114922000D01*
G75*
G02*
X154723000Y-114672000I0J250000D01*
G01*
X154723000Y-114172000D01*
G75*
G02*
X154973000Y-113922000I250000J0D01*
G01*
G37*
G36*
G01*
X154973000Y-112022000D02*
X155923000Y-112022000D01*
G75*
G02*
X156173000Y-112272000I0J-250000D01*
G01*
X156173000Y-112772000D01*
G75*
G02*
X155923000Y-113022000I-250000J0D01*
G01*
X154973000Y-113022000D01*
G75*
G02*
X154723000Y-112772000I0J250000D01*
G01*
X154723000Y-112272000D01*
G75*
G02*
X154973000Y-112022000I250000J0D01*
G01*
G37*
G36*
G01*
X151163000Y-113922000D02*
X152113000Y-113922000D01*
G75*
G02*
X152363000Y-114172000I0J-250000D01*
G01*
X152363000Y-114672000D01*
G75*
G02*
X152113000Y-114922000I-250000J0D01*
G01*
X151163000Y-114922000D01*
G75*
G02*
X150913000Y-114672000I0J250000D01*
G01*
X150913000Y-114172000D01*
G75*
G02*
X151163000Y-113922000I250000J0D01*
G01*
G37*
G36*
G01*
X151163000Y-112022000D02*
X152113000Y-112022000D01*
G75*
G02*
X152363000Y-112272000I0J-250000D01*
G01*
X152363000Y-112772000D01*
G75*
G02*
X152113000Y-113022000I-250000J0D01*
G01*
X151163000Y-113022000D01*
G75*
G02*
X150913000Y-112772000I0J250000D01*
G01*
X150913000Y-112272000D01*
G75*
G02*
X151163000Y-112022000I250000J0D01*
G01*
G37*
D12*
X159140000Y-72638000D03*
X159140000Y-73438000D03*
X159140000Y-74238000D03*
X159140000Y-75038000D03*
X159140000Y-75838000D03*
X159140000Y-76638000D03*
X159140000Y-77438000D03*
X159140000Y-78238000D03*
D13*
X157740000Y-79638000D03*
X156940000Y-79638000D03*
X156140000Y-79638000D03*
X155340000Y-79638000D03*
X154540000Y-79638000D03*
X153740000Y-79638000D03*
X152940000Y-79638000D03*
X152140000Y-79638000D03*
D12*
X150740000Y-78238000D03*
X150740000Y-77438000D03*
X150740000Y-76638000D03*
X150740000Y-75838000D03*
X150740000Y-75038000D03*
X150740000Y-74238000D03*
X150740000Y-73438000D03*
D13*
X152140000Y-71238000D03*
X152940000Y-71238000D03*
X153740000Y-71238000D03*
X154540000Y-71238000D03*
X155340000Y-71238000D03*
X156140000Y-71238000D03*
X156940000Y-71238000D03*
X157740000Y-71238000D03*
D12*
X150740000Y-72638000D03*
G36*
G01*
X136988000Y-75484700D02*
X136988000Y-74883300D01*
G75*
G02*
X136997300Y-74874000I9300J0D01*
G01*
X137598700Y-74874000D01*
G75*
G02*
X137608000Y-74883300I0J-9300D01*
G01*
X137608000Y-75484700D01*
G75*
G02*
X137598700Y-75494000I-9300J0D01*
G01*
X136997300Y-75494000D01*
G75*
G02*
X136988000Y-75484700I0J9300D01*
G01*
G37*
G36*
G01*
X136088000Y-75484700D02*
X136088000Y-74883300D01*
G75*
G02*
X136097300Y-74874000I9300J0D01*
G01*
X136698700Y-74874000D01*
G75*
G02*
X136708000Y-74883300I0J-9300D01*
G01*
X136708000Y-75484700D01*
G75*
G02*
X136698700Y-75494000I-9300J0D01*
G01*
X136097300Y-75494000D01*
G75*
G02*
X136088000Y-75484700I0J9300D01*
G01*
G37*
D14*
X144780000Y-88264000D03*
X149860000Y-88264000D03*
X154940000Y-88264000D03*
X160020000Y-88264000D03*
X142240000Y-84964000D03*
X147320000Y-84964000D03*
X152400000Y-84964000D03*
X157480000Y-84964000D03*
G36*
G01*
X151490800Y-63703840D02*
X151490800Y-64312160D01*
G75*
G02*
X151371160Y-64431800I-119640J0D01*
G01*
X150812840Y-64431800D01*
G75*
G02*
X150693200Y-64312160I0J119640D01*
G01*
X150693200Y-63703840D01*
G75*
G02*
X150812840Y-63584200I119640J0D01*
G01*
X151371160Y-63584200D01*
G75*
G02*
X151490800Y-63703840I0J-119640D01*
G01*
G37*
G36*
G01*
X153090800Y-63703840D02*
X153090800Y-64312160D01*
G75*
G02*
X152971160Y-64431800I-119640J0D01*
G01*
X152412840Y-64431800D01*
G75*
G02*
X152293200Y-64312160I0J119640D01*
G01*
X152293200Y-63703840D01*
G75*
G02*
X152412840Y-63584200I119640J0D01*
G01*
X152971160Y-63584200D01*
G75*
G02*
X153090800Y-63703840I0J-119640D01*
G01*
G37*
G36*
G01*
X151277200Y-67614160D02*
X151277200Y-67005840D01*
G75*
G02*
X151396840Y-66886200I119640J0D01*
G01*
X151955160Y-66886200D01*
G75*
G02*
X152074800Y-67005840I0J-119640D01*
G01*
X152074800Y-67614160D01*
G75*
G02*
X151955160Y-67733800I-119640J0D01*
G01*
X151396840Y-67733800D01*
G75*
G02*
X151277200Y-67614160I0J119640D01*
G01*
G37*
G36*
G01*
X149677200Y-67614160D02*
X149677200Y-67005840D01*
G75*
G02*
X149796840Y-66886200I119640J0D01*
G01*
X150355160Y-66886200D01*
G75*
G02*
X150474800Y-67005840I0J-119640D01*
G01*
X150474800Y-67614160D01*
G75*
G02*
X150355160Y-67733800I-119640J0D01*
G01*
X149796840Y-67733800D01*
G75*
G02*
X149677200Y-67614160I0J119640D01*
G01*
G37*
D15*
X138595000Y-81534000D03*
X138595000Y-82804000D03*
X138595000Y-84074000D03*
X138595000Y-85344000D03*
X130645000Y-85344000D03*
X130645000Y-84074000D03*
X130645000Y-82804000D03*
X130645000Y-81534000D03*
D16*
X141732000Y-58576600D03*
X141732000Y-75027400D03*
D17*
X165892000Y-93849000D03*
X165242000Y-93849000D03*
X164592000Y-93849000D03*
X163942000Y-93849000D03*
X163292000Y-93849000D03*
D18*
X135548000Y-103208000D03*
X135548000Y-101008000D03*
X137248000Y-101008000D03*
X137248000Y-103208000D03*
G36*
G01*
X153556000Y-82850700D02*
X153556000Y-82249300D01*
G75*
G02*
X153565300Y-82240000I9300J0D01*
G01*
X154166700Y-82240000D01*
G75*
G02*
X154176000Y-82249300I0J-9300D01*
G01*
X154176000Y-82850700D01*
G75*
G02*
X154166700Y-82860000I-9300J0D01*
G01*
X153565300Y-82860000D01*
G75*
G02*
X153556000Y-82850700I0J9300D01*
G01*
G37*
G36*
G01*
X152656000Y-82850700D02*
X152656000Y-82249300D01*
G75*
G02*
X152665300Y-82240000I9300J0D01*
G01*
X153266700Y-82240000D01*
G75*
G02*
X153276000Y-82249300I0J-9300D01*
G01*
X153276000Y-82850700D01*
G75*
G02*
X153266700Y-82860000I-9300J0D01*
G01*
X152665300Y-82860000D01*
G75*
G02*
X152656000Y-82850700I0J9300D01*
G01*
G37*
G36*
G01*
X134480000Y-78693300D02*
X134480000Y-79294700D01*
G75*
G02*
X134470700Y-79304000I-9300J0D01*
G01*
X133869300Y-79304000D01*
G75*
G02*
X133860000Y-79294700I0J9300D01*
G01*
X133860000Y-78693300D01*
G75*
G02*
X133869300Y-78684000I9300J0D01*
G01*
X134470700Y-78684000D01*
G75*
G02*
X134480000Y-78693300I0J-9300D01*
G01*
G37*
G36*
G01*
X135380000Y-78693300D02*
X135380000Y-79294700D01*
G75*
G02*
X135370700Y-79304000I-9300J0D01*
G01*
X134769300Y-79304000D01*
G75*
G02*
X134760000Y-79294700I0J9300D01*
G01*
X134760000Y-78693300D01*
G75*
G02*
X134769300Y-78684000I9300J0D01*
G01*
X135370700Y-78684000D01*
G75*
G02*
X135380000Y-78693300I0J-9300D01*
G01*
G37*
G36*
G01*
X171336000Y-92502700D02*
X171336000Y-91901300D01*
G75*
G02*
X171345300Y-91892000I9300J0D01*
G01*
X171946700Y-91892000D01*
G75*
G02*
X171956000Y-91901300I0J-9300D01*
G01*
X171956000Y-92502700D01*
G75*
G02*
X171946700Y-92512000I-9300J0D01*
G01*
X171345300Y-92512000D01*
G75*
G02*
X171336000Y-92502700I0J9300D01*
G01*
G37*
G36*
G01*
X170436000Y-92502700D02*
X170436000Y-91901300D01*
G75*
G02*
X170445300Y-91892000I9300J0D01*
G01*
X171046700Y-91892000D01*
G75*
G02*
X171056000Y-91901300I0J-9300D01*
G01*
X171056000Y-92502700D01*
G75*
G02*
X171046700Y-92512000I-9300J0D01*
G01*
X170445300Y-92512000D01*
G75*
G02*
X170436000Y-92502700I0J9300D01*
G01*
G37*
G36*
G01*
X171336000Y-90724700D02*
X171336000Y-90123300D01*
G75*
G02*
X171345300Y-90114000I9300J0D01*
G01*
X171946700Y-90114000D01*
G75*
G02*
X171956000Y-90123300I0J-9300D01*
G01*
X171956000Y-90724700D01*
G75*
G02*
X171946700Y-90734000I-9300J0D01*
G01*
X171345300Y-90734000D01*
G75*
G02*
X171336000Y-90724700I0J9300D01*
G01*
G37*
G36*
G01*
X170436000Y-90724700D02*
X170436000Y-90123300D01*
G75*
G02*
X170445300Y-90114000I9300J0D01*
G01*
X171046700Y-90114000D01*
G75*
G02*
X171056000Y-90123300I0J-9300D01*
G01*
X171056000Y-90724700D01*
G75*
G02*
X171046700Y-90734000I-9300J0D01*
G01*
X170445300Y-90734000D01*
G75*
G02*
X170436000Y-90724700I0J9300D01*
G01*
G37*
G36*
G01*
X142701300Y-101359000D02*
X143302700Y-101359000D01*
G75*
G02*
X143312000Y-101368300I0J-9300D01*
G01*
X143312000Y-101969700D01*
G75*
G02*
X143302700Y-101979000I-9300J0D01*
G01*
X142701300Y-101979000D01*
G75*
G02*
X142692000Y-101969700I0J9300D01*
G01*
X142692000Y-101368300D01*
G75*
G02*
X142701300Y-101359000I9300J0D01*
G01*
G37*
G36*
G01*
X142701300Y-100459000D02*
X143302700Y-100459000D01*
G75*
G02*
X143312000Y-100468300I0J-9300D01*
G01*
X143312000Y-101069700D01*
G75*
G02*
X143302700Y-101079000I-9300J0D01*
G01*
X142701300Y-101079000D01*
G75*
G02*
X142692000Y-101069700I0J9300D01*
G01*
X142692000Y-100468300D01*
G75*
G02*
X142701300Y-100459000I9300J0D01*
G01*
G37*
G36*
G01*
X158957300Y-64656000D02*
X159558700Y-64656000D01*
G75*
G02*
X159568000Y-64665300I0J-9300D01*
G01*
X159568000Y-65266700D01*
G75*
G02*
X159558700Y-65276000I-9300J0D01*
G01*
X158957300Y-65276000D01*
G75*
G02*
X158948000Y-65266700I0J9300D01*
G01*
X158948000Y-64665300D01*
G75*
G02*
X158957300Y-64656000I9300J0D01*
G01*
G37*
G36*
G01*
X158957300Y-63756000D02*
X159558700Y-63756000D01*
G75*
G02*
X159568000Y-63765300I0J-9300D01*
G01*
X159568000Y-64366700D01*
G75*
G02*
X159558700Y-64376000I-9300J0D01*
G01*
X158957300Y-64376000D01*
G75*
G02*
X158948000Y-64366700I0J9300D01*
G01*
X158948000Y-63765300D01*
G75*
G02*
X158957300Y-63756000I9300J0D01*
G01*
G37*
G36*
G01*
X160989300Y-64656000D02*
X161590700Y-64656000D01*
G75*
G02*
X161600000Y-64665300I0J-9300D01*
G01*
X161600000Y-65266700D01*
G75*
G02*
X161590700Y-65276000I-9300J0D01*
G01*
X160989300Y-65276000D01*
G75*
G02*
X160980000Y-65266700I0J9300D01*
G01*
X160980000Y-64665300D01*
G75*
G02*
X160989300Y-64656000I9300J0D01*
G01*
G37*
G36*
G01*
X160989300Y-63756000D02*
X161590700Y-63756000D01*
G75*
G02*
X161600000Y-63765300I0J-9300D01*
G01*
X161600000Y-64366700D01*
G75*
G02*
X161590700Y-64376000I-9300J0D01*
G01*
X160989300Y-64376000D01*
G75*
G02*
X160980000Y-64366700I0J9300D01*
G01*
X160980000Y-63765300D01*
G75*
G02*
X160989300Y-63756000I9300J0D01*
G01*
G37*
G36*
G01*
X134060750Y-116696000D02*
X132639250Y-116696000D01*
G75*
G02*
X132625000Y-116681750I0J14250D01*
G01*
X132625000Y-115760250D01*
G75*
G02*
X132639250Y-115746000I14250J0D01*
G01*
X134060750Y-115746000D01*
G75*
G02*
X134075000Y-115760250I0J-14250D01*
G01*
X134075000Y-116681750D01*
G75*
G02*
X134060750Y-116696000I-14250J0D01*
G01*
G37*
G36*
G01*
X134060750Y-118696000D02*
X132639250Y-118696000D01*
G75*
G02*
X132625000Y-118681750I0J14250D01*
G01*
X132625000Y-117760250D01*
G75*
G02*
X132639250Y-117746000I14250J0D01*
G01*
X134060750Y-117746000D01*
G75*
G02*
X134075000Y-117760250I0J-14250D01*
G01*
X134075000Y-118681750D01*
G75*
G02*
X134060750Y-118696000I-14250J0D01*
G01*
G37*
G36*
G01*
X143239000Y-108890250D02*
X143239000Y-110311750D01*
G75*
G02*
X143224750Y-110326000I-14250J0D01*
G01*
X142303250Y-110326000D01*
G75*
G02*
X142289000Y-110311750I0J14250D01*
G01*
X142289000Y-108890250D01*
G75*
G02*
X142303250Y-108876000I14250J0D01*
G01*
X143224750Y-108876000D01*
G75*
G02*
X143239000Y-108890250I0J-14250D01*
G01*
G37*
G36*
G01*
X145239000Y-108890250D02*
X145239000Y-110311750D01*
G75*
G02*
X145224750Y-110326000I-14250J0D01*
G01*
X144303250Y-110326000D01*
G75*
G02*
X144289000Y-110311750I0J14250D01*
G01*
X144289000Y-108890250D01*
G75*
G02*
X144303250Y-108876000I14250J0D01*
G01*
X145224750Y-108876000D01*
G75*
G02*
X145239000Y-108890250I0J-14250D01*
G01*
G37*
G36*
G01*
X143239000Y-111938250D02*
X143239000Y-113359750D01*
G75*
G02*
X143224750Y-113374000I-14250J0D01*
G01*
X142303250Y-113374000D01*
G75*
G02*
X142289000Y-113359750I0J14250D01*
G01*
X142289000Y-111938250D01*
G75*
G02*
X142303250Y-111924000I14250J0D01*
G01*
X143224750Y-111924000D01*
G75*
G02*
X143239000Y-111938250I0J-14250D01*
G01*
G37*
G36*
G01*
X145239000Y-111938250D02*
X145239000Y-113359750D01*
G75*
G02*
X145224750Y-113374000I-14250J0D01*
G01*
X144303250Y-113374000D01*
G75*
G02*
X144289000Y-113359750I0J14250D01*
G01*
X144289000Y-111938250D01*
G75*
G02*
X144303250Y-111924000I14250J0D01*
G01*
X145224750Y-111924000D01*
G75*
G02*
X145239000Y-111938250I0J-14250D01*
G01*
G37*
G36*
G01*
X139937000Y-117780250D02*
X139937000Y-119201750D01*
G75*
G02*
X139922750Y-119216000I-14250J0D01*
G01*
X139001250Y-119216000D01*
G75*
G02*
X138987000Y-119201750I0J14250D01*
G01*
X138987000Y-117780250D01*
G75*
G02*
X139001250Y-117766000I14250J0D01*
G01*
X139922750Y-117766000D01*
G75*
G02*
X139937000Y-117780250I0J-14250D01*
G01*
G37*
G36*
G01*
X141937000Y-117780250D02*
X141937000Y-119201750D01*
G75*
G02*
X141922750Y-119216000I-14250J0D01*
G01*
X141001250Y-119216000D01*
G75*
G02*
X140987000Y-119201750I0J14250D01*
G01*
X140987000Y-117780250D01*
G75*
G02*
X141001250Y-117766000I14250J0D01*
G01*
X141922750Y-117766000D01*
G75*
G02*
X141937000Y-117780250I0J-14250D01*
G01*
G37*
G36*
G01*
X130284000Y-79455500D02*
X130284000Y-78532500D01*
G75*
G02*
X130297500Y-78519000I13500J0D01*
G01*
X131170500Y-78519000D01*
G75*
G02*
X131184000Y-78532500I0J-13500D01*
G01*
X131184000Y-79455500D01*
G75*
G02*
X131170500Y-79469000I-13500J0D01*
G01*
X130297500Y-79469000D01*
G75*
G02*
X130284000Y-79455500I0J13500D01*
G01*
G37*
G36*
G01*
X131884000Y-79455500D02*
X131884000Y-78532500D01*
G75*
G02*
X131897500Y-78519000I13500J0D01*
G01*
X132770500Y-78519000D01*
G75*
G02*
X132784000Y-78532500I0J-13500D01*
G01*
X132784000Y-79455500D01*
G75*
G02*
X132770500Y-79469000I-13500J0D01*
G01*
X131897500Y-79469000D01*
G75*
G02*
X131884000Y-79455500I0J13500D01*
G01*
G37*
G36*
G01*
X162132300Y-97411000D02*
X162733700Y-97411000D01*
G75*
G02*
X162743000Y-97420300I0J-9300D01*
G01*
X162743000Y-98021700D01*
G75*
G02*
X162733700Y-98031000I-9300J0D01*
G01*
X162132300Y-98031000D01*
G75*
G02*
X162123000Y-98021700I0J9300D01*
G01*
X162123000Y-97420300D01*
G75*
G02*
X162132300Y-97411000I9300J0D01*
G01*
G37*
G36*
G01*
X162132300Y-98311000D02*
X162733700Y-98311000D01*
G75*
G02*
X162743000Y-98320300I0J-9300D01*
G01*
X162743000Y-98921700D01*
G75*
G02*
X162733700Y-98931000I-9300J0D01*
G01*
X162132300Y-98931000D01*
G75*
G02*
X162123000Y-98921700I0J9300D01*
G01*
X162123000Y-98320300D01*
G75*
G02*
X162132300Y-98311000I9300J0D01*
G01*
G37*
D19*
X159130000Y-103886000D03*
X155830000Y-103886000D03*
G36*
G01*
X155138000Y-82850700D02*
X155138000Y-82249300D01*
G75*
G02*
X155147300Y-82240000I9300J0D01*
G01*
X155748700Y-82240000D01*
G75*
G02*
X155758000Y-82249300I0J-9300D01*
G01*
X155758000Y-82850700D01*
G75*
G02*
X155748700Y-82860000I-9300J0D01*
G01*
X155147300Y-82860000D01*
G75*
G02*
X155138000Y-82850700I0J9300D01*
G01*
G37*
G36*
G01*
X156038000Y-82850700D02*
X156038000Y-82249300D01*
G75*
G02*
X156047300Y-82240000I9300J0D01*
G01*
X156648700Y-82240000D01*
G75*
G02*
X156658000Y-82249300I0J-9300D01*
G01*
X156658000Y-82850700D01*
G75*
G02*
X156648700Y-82860000I-9300J0D01*
G01*
X156047300Y-82860000D01*
G75*
G02*
X156038000Y-82850700I0J9300D01*
G01*
G37*
X167766000Y-76200000D03*
X164466000Y-76200000D03*
G36*
G01*
X133146160Y-100817800D02*
X132537840Y-100817800D01*
G75*
G02*
X132418200Y-100698160I0J119640D01*
G01*
X132418200Y-100139840D01*
G75*
G02*
X132537840Y-100020200I119640J0D01*
G01*
X133146160Y-100020200D01*
G75*
G02*
X133265800Y-100139840I0J-119640D01*
G01*
X133265800Y-100698160D01*
G75*
G02*
X133146160Y-100817800I-119640J0D01*
G01*
G37*
G36*
G01*
X133146160Y-102417800D02*
X132537840Y-102417800D01*
G75*
G02*
X132418200Y-102298160I0J119640D01*
G01*
X132418200Y-101739840D01*
G75*
G02*
X132537840Y-101620200I119640J0D01*
G01*
X133146160Y-101620200D01*
G75*
G02*
X133265800Y-101739840I0J-119640D01*
G01*
X133265800Y-102298160D01*
G75*
G02*
X133146160Y-102417800I-119640J0D01*
G01*
G37*
G36*
G01*
X140766160Y-101452800D02*
X140157840Y-101452800D01*
G75*
G02*
X140038200Y-101333160I0J119640D01*
G01*
X140038200Y-100774840D01*
G75*
G02*
X140157840Y-100655200I119640J0D01*
G01*
X140766160Y-100655200D01*
G75*
G02*
X140885800Y-100774840I0J-119640D01*
G01*
X140885800Y-101333160D01*
G75*
G02*
X140766160Y-101452800I-119640J0D01*
G01*
G37*
G36*
G01*
X140766160Y-103052800D02*
X140157840Y-103052800D01*
G75*
G02*
X140038200Y-102933160I0J119640D01*
G01*
X140038200Y-102374840D01*
G75*
G02*
X140157840Y-102255200I119640J0D01*
G01*
X140766160Y-102255200D01*
G75*
G02*
X140885800Y-102374840I0J-119640D01*
G01*
X140885800Y-102933160D01*
G75*
G02*
X140766160Y-103052800I-119640J0D01*
G01*
G37*
G36*
G01*
X145902800Y-99898840D02*
X145902800Y-100507160D01*
G75*
G02*
X145783160Y-100626800I-119640J0D01*
G01*
X145224840Y-100626800D01*
G75*
G02*
X145105200Y-100507160I0J119640D01*
G01*
X145105200Y-99898840D01*
G75*
G02*
X145224840Y-99779200I119640J0D01*
G01*
X145783160Y-99779200D01*
G75*
G02*
X145902800Y-99898840I0J-119640D01*
G01*
G37*
G36*
G01*
X147502800Y-99898840D02*
X147502800Y-100507160D01*
G75*
G02*
X147383160Y-100626800I-119640J0D01*
G01*
X146824840Y-100626800D01*
G75*
G02*
X146705200Y-100507160I0J119640D01*
G01*
X146705200Y-99898840D01*
G75*
G02*
X146824840Y-99779200I119640J0D01*
G01*
X147383160Y-99779200D01*
G75*
G02*
X147502800Y-99898840I0J-119640D01*
G01*
G37*
G36*
G01*
X166730800Y-101295840D02*
X166730800Y-101904160D01*
G75*
G02*
X166611160Y-102023800I-119640J0D01*
G01*
X166052840Y-102023800D01*
G75*
G02*
X165933200Y-101904160I0J119640D01*
G01*
X165933200Y-101295840D01*
G75*
G02*
X166052840Y-101176200I119640J0D01*
G01*
X166611160Y-101176200D01*
G75*
G02*
X166730800Y-101295840I0J-119640D01*
G01*
G37*
G36*
G01*
X168330800Y-101295840D02*
X168330800Y-101904160D01*
G75*
G02*
X168211160Y-102023800I-119640J0D01*
G01*
X167652840Y-102023800D01*
G75*
G02*
X167533200Y-101904160I0J119640D01*
G01*
X167533200Y-101295840D01*
G75*
G02*
X167652840Y-101176200I119640J0D01*
G01*
X168211160Y-101176200D01*
G75*
G02*
X168330800Y-101295840I0J-119640D01*
G01*
G37*
G36*
G01*
X166730800Y-103835840D02*
X166730800Y-104444160D01*
G75*
G02*
X166611160Y-104563800I-119640J0D01*
G01*
X166052840Y-104563800D01*
G75*
G02*
X165933200Y-104444160I0J119640D01*
G01*
X165933200Y-103835840D01*
G75*
G02*
X166052840Y-103716200I119640J0D01*
G01*
X166611160Y-103716200D01*
G75*
G02*
X166730800Y-103835840I0J-119640D01*
G01*
G37*
G36*
G01*
X168330800Y-103835840D02*
X168330800Y-104444160D01*
G75*
G02*
X168211160Y-104563800I-119640J0D01*
G01*
X167652840Y-104563800D01*
G75*
G02*
X167533200Y-104444160I0J119640D01*
G01*
X167533200Y-103835840D01*
G75*
G02*
X167652840Y-103716200I119640J0D01*
G01*
X168211160Y-103716200D01*
G75*
G02*
X168330800Y-103835840I0J-119640D01*
G01*
G37*
G36*
G01*
X145140800Y-101803840D02*
X145140800Y-102412160D01*
G75*
G02*
X145021160Y-102531800I-119640J0D01*
G01*
X144462840Y-102531800D01*
G75*
G02*
X144343200Y-102412160I0J119640D01*
G01*
X144343200Y-101803840D01*
G75*
G02*
X144462840Y-101684200I119640J0D01*
G01*
X145021160Y-101684200D01*
G75*
G02*
X145140800Y-101803840I0J-119640D01*
G01*
G37*
G36*
G01*
X146740800Y-101803840D02*
X146740800Y-102412160D01*
G75*
G02*
X146621160Y-102531800I-119640J0D01*
G01*
X146062840Y-102531800D01*
G75*
G02*
X145943200Y-102412160I0J119640D01*
G01*
X145943200Y-101803840D01*
G75*
G02*
X146062840Y-101684200I119640J0D01*
G01*
X146621160Y-101684200D01*
G75*
G02*
X146740800Y-101803840I0J-119640D01*
G01*
G37*
G36*
G01*
X143362800Y-107137840D02*
X143362800Y-107746160D01*
G75*
G02*
X143243160Y-107865800I-119640J0D01*
G01*
X142684840Y-107865800D01*
G75*
G02*
X142565200Y-107746160I0J119640D01*
G01*
X142565200Y-107137840D01*
G75*
G02*
X142684840Y-107018200I119640J0D01*
G01*
X143243160Y-107018200D01*
G75*
G02*
X143362800Y-107137840I0J-119640D01*
G01*
G37*
G36*
G01*
X144962800Y-107137840D02*
X144962800Y-107746160D01*
G75*
G02*
X144843160Y-107865800I-119640J0D01*
G01*
X144284840Y-107865800D01*
G75*
G02*
X144165200Y-107746160I0J119640D01*
G01*
X144165200Y-107137840D01*
G75*
G02*
X144284840Y-107018200I119640J0D01*
G01*
X144843160Y-107018200D01*
G75*
G02*
X144962800Y-107137840I0J-119640D01*
G01*
G37*
G36*
G01*
X132537840Y-105430200D02*
X133146160Y-105430200D01*
G75*
G02*
X133265800Y-105549840I0J-119640D01*
G01*
X133265800Y-106108160D01*
G75*
G02*
X133146160Y-106227800I-119640J0D01*
G01*
X132537840Y-106227800D01*
G75*
G02*
X132418200Y-106108160I0J119640D01*
G01*
X132418200Y-105549840D01*
G75*
G02*
X132537840Y-105430200I119640J0D01*
G01*
G37*
G36*
G01*
X132537840Y-103830200D02*
X133146160Y-103830200D01*
G75*
G02*
X133265800Y-103949840I0J-119640D01*
G01*
X133265800Y-104508160D01*
G75*
G02*
X133146160Y-104627800I-119640J0D01*
G01*
X132537840Y-104627800D01*
G75*
G02*
X132418200Y-104508160I0J119640D01*
G01*
X132418200Y-103949840D01*
G75*
G02*
X132537840Y-103830200I119640J0D01*
G01*
G37*
G36*
G01*
X143362800Y-105105840D02*
X143362800Y-105714160D01*
G75*
G02*
X143243160Y-105833800I-119640J0D01*
G01*
X142684840Y-105833800D01*
G75*
G02*
X142565200Y-105714160I0J119640D01*
G01*
X142565200Y-105105840D01*
G75*
G02*
X142684840Y-104986200I119640J0D01*
G01*
X143243160Y-104986200D01*
G75*
G02*
X143362800Y-105105840I0J-119640D01*
G01*
G37*
G36*
G01*
X144962800Y-105105840D02*
X144962800Y-105714160D01*
G75*
G02*
X144843160Y-105833800I-119640J0D01*
G01*
X144284840Y-105833800D01*
G75*
G02*
X144165200Y-105714160I0J119640D01*
G01*
X144165200Y-105105840D01*
G75*
G02*
X144284840Y-104986200I119640J0D01*
G01*
X144843160Y-104986200D01*
G75*
G02*
X144962800Y-105105840I0J-119640D01*
G01*
G37*
G36*
G01*
X147874700Y-108572000D02*
X147273300Y-108572000D01*
G75*
G02*
X147264000Y-108562700I0J9300D01*
G01*
X147264000Y-107961300D01*
G75*
G02*
X147273300Y-107952000I9300J0D01*
G01*
X147874700Y-107952000D01*
G75*
G02*
X147884000Y-107961300I0J-9300D01*
G01*
X147884000Y-108562700D01*
G75*
G02*
X147874700Y-108572000I-9300J0D01*
G01*
G37*
G36*
G01*
X147874700Y-109472000D02*
X147273300Y-109472000D01*
G75*
G02*
X147264000Y-109462700I0J9300D01*
G01*
X147264000Y-108861300D01*
G75*
G02*
X147273300Y-108852000I9300J0D01*
G01*
X147874700Y-108852000D01*
G75*
G02*
X147884000Y-108861300I0J-9300D01*
G01*
X147884000Y-109462700D01*
G75*
G02*
X147874700Y-109472000I-9300J0D01*
G01*
G37*
G36*
G01*
X147874700Y-113340000D02*
X147273300Y-113340000D01*
G75*
G02*
X147264000Y-113330700I0J9300D01*
G01*
X147264000Y-112729300D01*
G75*
G02*
X147273300Y-112720000I9300J0D01*
G01*
X147874700Y-112720000D01*
G75*
G02*
X147884000Y-112729300I0J-9300D01*
G01*
X147884000Y-113330700D01*
G75*
G02*
X147874700Y-113340000I-9300J0D01*
G01*
G37*
G36*
G01*
X147874700Y-114240000D02*
X147273300Y-114240000D01*
G75*
G02*
X147264000Y-114230700I0J9300D01*
G01*
X147264000Y-113629300D01*
G75*
G02*
X147273300Y-113620000I9300J0D01*
G01*
X147874700Y-113620000D01*
G75*
G02*
X147884000Y-113629300I0J-9300D01*
G01*
X147884000Y-114230700D01*
G75*
G02*
X147874700Y-114240000I-9300J0D01*
G01*
G37*
G36*
G01*
X143814160Y-121391800D02*
X143205840Y-121391800D01*
G75*
G02*
X143086200Y-121272160I0J119640D01*
G01*
X143086200Y-120713840D01*
G75*
G02*
X143205840Y-120594200I119640J0D01*
G01*
X143814160Y-120594200D01*
G75*
G02*
X143933800Y-120713840I0J-119640D01*
G01*
X143933800Y-121272160D01*
G75*
G02*
X143814160Y-121391800I-119640J0D01*
G01*
G37*
G36*
G01*
X143814160Y-122991800D02*
X143205840Y-122991800D01*
G75*
G02*
X143086200Y-122872160I0J119640D01*
G01*
X143086200Y-122313840D01*
G75*
G02*
X143205840Y-122194200I119640J0D01*
G01*
X143814160Y-122194200D01*
G75*
G02*
X143933800Y-122313840I0J-119640D01*
G01*
X143933800Y-122872160D01*
G75*
G02*
X143814160Y-122991800I-119640J0D01*
G01*
G37*
G36*
G01*
X135077840Y-117495200D02*
X135686160Y-117495200D01*
G75*
G02*
X135805800Y-117614840I0J-119640D01*
G01*
X135805800Y-118173160D01*
G75*
G02*
X135686160Y-118292800I-119640J0D01*
G01*
X135077840Y-118292800D01*
G75*
G02*
X134958200Y-118173160I0J119640D01*
G01*
X134958200Y-117614840D01*
G75*
G02*
X135077840Y-117495200I119640J0D01*
G01*
G37*
G36*
G01*
X135077840Y-115895200D02*
X135686160Y-115895200D01*
G75*
G02*
X135805800Y-116014840I0J-119640D01*
G01*
X135805800Y-116573160D01*
G75*
G02*
X135686160Y-116692800I-119640J0D01*
G01*
X135077840Y-116692800D01*
G75*
G02*
X134958200Y-116573160I0J119640D01*
G01*
X134958200Y-116014840D01*
G75*
G02*
X135077840Y-115895200I119640J0D01*
G01*
G37*
G36*
G01*
X141909160Y-121391800D02*
X141300840Y-121391800D01*
G75*
G02*
X141181200Y-121272160I0J119640D01*
G01*
X141181200Y-120713840D01*
G75*
G02*
X141300840Y-120594200I119640J0D01*
G01*
X141909160Y-120594200D01*
G75*
G02*
X142028800Y-120713840I0J-119640D01*
G01*
X142028800Y-121272160D01*
G75*
G02*
X141909160Y-121391800I-119640J0D01*
G01*
G37*
G36*
G01*
X141909160Y-122991800D02*
X141300840Y-122991800D01*
G75*
G02*
X141181200Y-122872160I0J119640D01*
G01*
X141181200Y-122313840D01*
G75*
G02*
X141300840Y-122194200I119640J0D01*
G01*
X141909160Y-122194200D01*
G75*
G02*
X142028800Y-122313840I0J-119640D01*
G01*
X142028800Y-122872160D01*
G75*
G02*
X141909160Y-122991800I-119640J0D01*
G01*
G37*
G36*
G01*
X139750160Y-121391800D02*
X139141840Y-121391800D01*
G75*
G02*
X139022200Y-121272160I0J119640D01*
G01*
X139022200Y-120713840D01*
G75*
G02*
X139141840Y-120594200I119640J0D01*
G01*
X139750160Y-120594200D01*
G75*
G02*
X139869800Y-120713840I0J-119640D01*
G01*
X139869800Y-121272160D01*
G75*
G02*
X139750160Y-121391800I-119640J0D01*
G01*
G37*
G36*
G01*
X139750160Y-122991800D02*
X139141840Y-122991800D01*
G75*
G02*
X139022200Y-122872160I0J119640D01*
G01*
X139022200Y-122313840D01*
G75*
G02*
X139141840Y-122194200I119640J0D01*
G01*
X139750160Y-122194200D01*
G75*
G02*
X139869800Y-122313840I0J-119640D01*
G01*
X139869800Y-122872160D01*
G75*
G02*
X139750160Y-122991800I-119640J0D01*
G01*
G37*
G36*
G01*
X139933800Y-115773840D02*
X139933800Y-116382160D01*
G75*
G02*
X139814160Y-116501800I-119640J0D01*
G01*
X139255840Y-116501800D01*
G75*
G02*
X139136200Y-116382160I0J119640D01*
G01*
X139136200Y-115773840D01*
G75*
G02*
X139255840Y-115654200I119640J0D01*
G01*
X139814160Y-115654200D01*
G75*
G02*
X139933800Y-115773840I0J-119640D01*
G01*
G37*
G36*
G01*
X141533800Y-115773840D02*
X141533800Y-116382160D01*
G75*
G02*
X141414160Y-116501800I-119640J0D01*
G01*
X140855840Y-116501800D01*
G75*
G02*
X140736200Y-116382160I0J119640D01*
G01*
X140736200Y-115773840D01*
G75*
G02*
X140855840Y-115654200I119640J0D01*
G01*
X141414160Y-115654200D01*
G75*
G02*
X141533800Y-115773840I0J-119640D01*
G01*
G37*
G36*
G01*
X137109840Y-122194200D02*
X137718160Y-122194200D01*
G75*
G02*
X137837800Y-122313840I0J-119640D01*
G01*
X137837800Y-122872160D01*
G75*
G02*
X137718160Y-122991800I-119640J0D01*
G01*
X137109840Y-122991800D01*
G75*
G02*
X136990200Y-122872160I0J119640D01*
G01*
X136990200Y-122313840D01*
G75*
G02*
X137109840Y-122194200I119640J0D01*
G01*
G37*
G36*
G01*
X137109840Y-120594200D02*
X137718160Y-120594200D01*
G75*
G02*
X137837800Y-120713840I0J-119640D01*
G01*
X137837800Y-121272160D01*
G75*
G02*
X137718160Y-121391800I-119640J0D01*
G01*
X137109840Y-121391800D01*
G75*
G02*
X136990200Y-121272160I0J119640D01*
G01*
X136990200Y-120713840D01*
G75*
G02*
X137109840Y-120594200I119640J0D01*
G01*
G37*
G36*
G01*
X151244000Y-82249300D02*
X151244000Y-82850700D01*
G75*
G02*
X151234700Y-82860000I-9300J0D01*
G01*
X150633300Y-82860000D01*
G75*
G02*
X150624000Y-82850700I0J9300D01*
G01*
X150624000Y-82249300D01*
G75*
G02*
X150633300Y-82240000I9300J0D01*
G01*
X151234700Y-82240000D01*
G75*
G02*
X151244000Y-82249300I0J-9300D01*
G01*
G37*
G36*
G01*
X152144000Y-82249300D02*
X152144000Y-82850700D01*
G75*
G02*
X152134700Y-82860000I-9300J0D01*
G01*
X151533300Y-82860000D01*
G75*
G02*
X151524000Y-82850700I0J9300D01*
G01*
X151524000Y-82249300D01*
G75*
G02*
X151533300Y-82240000I9300J0D01*
G01*
X152134700Y-82240000D01*
G75*
G02*
X152144000Y-82249300I0J-9300D01*
G01*
G37*
G36*
G01*
X157910800Y-98592640D02*
X157910800Y-99527360D01*
G75*
G02*
X157819360Y-99618800I-91440J0D01*
G01*
X157392640Y-99618800D01*
G75*
G02*
X157301200Y-99527360I0J91440D01*
G01*
X157301200Y-98592640D01*
G75*
G02*
X157392640Y-98501200I91440J0D01*
G01*
X157819360Y-98501200D01*
G75*
G02*
X157910800Y-98592640I0J-91440D01*
G01*
G37*
G36*
G01*
X156155160Y-100253800D02*
X154356840Y-100253800D01*
G75*
G02*
X153998700Y-99895660I0J358140D01*
G01*
X153998700Y-98224340D01*
G75*
G02*
X154356840Y-97866200I358140J0D01*
G01*
X156155160Y-97866200D01*
G75*
G02*
X156513300Y-98224340I0J-358140D01*
G01*
X156513300Y-99895660D01*
G75*
G02*
X156155160Y-100253800I-358140J0D01*
G01*
G37*
G36*
G01*
X173331800Y-77822174D02*
X173331800Y-78213826D01*
G75*
G02*
X173278826Y-78266800I-52974J0D01*
G01*
X173037174Y-78266800D01*
G75*
G02*
X172984200Y-78213826I0J52974D01*
G01*
X172984200Y-77822174D01*
G75*
G02*
X173037174Y-77769200I52974J0D01*
G01*
X173278826Y-77769200D01*
G75*
G02*
X173331800Y-77822174I0J-52974D01*
G01*
G37*
G36*
G01*
X172531800Y-77822174D02*
X172531800Y-78213826D01*
G75*
G02*
X172478826Y-78266800I-52974J0D01*
G01*
X172237174Y-78266800D01*
G75*
G02*
X172184200Y-78213826I0J52974D01*
G01*
X172184200Y-77822174D01*
G75*
G02*
X172237174Y-77769200I52974J0D01*
G01*
X172478826Y-77769200D01*
G75*
G02*
X172531800Y-77822174I0J-52974D01*
G01*
G37*
G36*
G01*
X171731800Y-77822174D02*
X171731800Y-78213826D01*
G75*
G02*
X171678826Y-78266800I-52974J0D01*
G01*
X171437174Y-78266800D01*
G75*
G02*
X171384200Y-78213826I0J52974D01*
G01*
X171384200Y-77822174D01*
G75*
G02*
X171437174Y-77769200I52974J0D01*
G01*
X171678826Y-77769200D01*
G75*
G02*
X171731800Y-77822174I0J-52974D01*
G01*
G37*
G36*
G01*
X170931800Y-77822174D02*
X170931800Y-78213826D01*
G75*
G02*
X170878826Y-78266800I-52974J0D01*
G01*
X170637174Y-78266800D01*
G75*
G02*
X170584200Y-78213826I0J52974D01*
G01*
X170584200Y-77822174D01*
G75*
G02*
X170637174Y-77769200I52974J0D01*
G01*
X170878826Y-77769200D01*
G75*
G02*
X170931800Y-77822174I0J-52974D01*
G01*
G37*
G36*
G01*
X170931800Y-76472174D02*
X170931800Y-76863826D01*
G75*
G02*
X170878826Y-76916800I-52974J0D01*
G01*
X170637174Y-76916800D01*
G75*
G02*
X170584200Y-76863826I0J52974D01*
G01*
X170584200Y-76472174D01*
G75*
G02*
X170637174Y-76419200I52974J0D01*
G01*
X170878826Y-76419200D01*
G75*
G02*
X170931800Y-76472174I0J-52974D01*
G01*
G37*
G36*
G01*
X171731800Y-76472174D02*
X171731800Y-76863826D01*
G75*
G02*
X171678826Y-76916800I-52974J0D01*
G01*
X171437174Y-76916800D01*
G75*
G02*
X171384200Y-76863826I0J52974D01*
G01*
X171384200Y-76472174D01*
G75*
G02*
X171437174Y-76419200I52974J0D01*
G01*
X171678826Y-76419200D01*
G75*
G02*
X171731800Y-76472174I0J-52974D01*
G01*
G37*
G36*
G01*
X172531800Y-76472174D02*
X172531800Y-76863826D01*
G75*
G02*
X172478826Y-76916800I-52974J0D01*
G01*
X172237174Y-76916800D01*
G75*
G02*
X172184200Y-76863826I0J52974D01*
G01*
X172184200Y-76472174D01*
G75*
G02*
X172237174Y-76419200I52974J0D01*
G01*
X172478826Y-76419200D01*
G75*
G02*
X172531800Y-76472174I0J-52974D01*
G01*
G37*
G36*
G01*
X173331800Y-76472174D02*
X173331800Y-76863826D01*
G75*
G02*
X173278826Y-76916800I-52974J0D01*
G01*
X173037174Y-76916800D01*
G75*
G02*
X172984200Y-76863826I0J52974D01*
G01*
X172984200Y-76472174D01*
G75*
G02*
X173037174Y-76419200I52974J0D01*
G01*
X173278826Y-76419200D01*
G75*
G02*
X173331800Y-76472174I0J-52974D01*
G01*
G37*
D20*
X169322000Y-109235000D03*
X169322000Y-114285000D03*
D21*
X167027000Y-111135000D03*
X167027000Y-112385000D03*
D22*
X172373000Y-88055000D03*
X171723000Y-88055000D03*
X171073000Y-88055000D03*
X170423000Y-88055000D03*
X169773000Y-88055000D03*
X169123000Y-88055000D03*
X168473000Y-88055000D03*
X167823000Y-88055000D03*
X167173000Y-88055000D03*
X166523000Y-88055000D03*
X165873000Y-88055000D03*
X165223000Y-88055000D03*
X164573000Y-88055000D03*
X163923000Y-88055000D03*
X163923000Y-80855000D03*
X164573000Y-80855000D03*
X165223000Y-80855000D03*
X165873000Y-80855000D03*
X166523000Y-80855000D03*
X167173000Y-80855000D03*
X167823000Y-80855000D03*
X168473000Y-80855000D03*
X169123000Y-80855000D03*
X169773000Y-80855000D03*
X170423000Y-80855000D03*
X171073000Y-80855000D03*
X171723000Y-80855000D03*
X172373000Y-80855000D03*
G36*
G01*
X138265000Y-113486000D02*
X138265000Y-114236000D01*
G75*
G02*
X138140000Y-114361000I-125000J0D01*
G01*
X138140000Y-114361000D01*
G75*
G02*
X138015000Y-114236000I0J125000D01*
G01*
X138015000Y-113486000D01*
G75*
G02*
X138140000Y-113361000I125000J0D01*
G01*
X138140000Y-113361000D01*
G75*
G02*
X138265000Y-113486000I0J-125000D01*
G01*
G37*
G36*
G01*
X137765000Y-113486000D02*
X137765000Y-114236000D01*
G75*
G02*
X137640000Y-114361000I-125000J0D01*
G01*
X137640000Y-114361000D01*
G75*
G02*
X137515000Y-114236000I0J125000D01*
G01*
X137515000Y-113486000D01*
G75*
G02*
X137640000Y-113361000I125000J0D01*
G01*
X137640000Y-113361000D01*
G75*
G02*
X137765000Y-113486000I0J-125000D01*
G01*
G37*
G36*
G01*
X137265000Y-113486000D02*
X137265000Y-114236000D01*
G75*
G02*
X137140000Y-114361000I-125000J0D01*
G01*
X137140000Y-114361000D01*
G75*
G02*
X137015000Y-114236000I0J125000D01*
G01*
X137015000Y-113486000D01*
G75*
G02*
X137140000Y-113361000I125000J0D01*
G01*
X137140000Y-113361000D01*
G75*
G02*
X137265000Y-113486000I0J-125000D01*
G01*
G37*
G36*
G01*
X136765000Y-113486000D02*
X136765000Y-114236000D01*
G75*
G02*
X136640000Y-114361000I-125000J0D01*
G01*
X136640000Y-114361000D01*
G75*
G02*
X136515000Y-114236000I0J125000D01*
G01*
X136515000Y-113486000D01*
G75*
G02*
X136640000Y-113361000I125000J0D01*
G01*
X136640000Y-113361000D01*
G75*
G02*
X136765000Y-113486000I0J-125000D01*
G01*
G37*
G36*
G01*
X136265000Y-113486000D02*
X136265000Y-114236000D01*
G75*
G02*
X136140000Y-114361000I-125000J0D01*
G01*
X136140000Y-114361000D01*
G75*
G02*
X136015000Y-114236000I0J125000D01*
G01*
X136015000Y-113486000D01*
G75*
G02*
X136140000Y-113361000I125000J0D01*
G01*
X136140000Y-113361000D01*
G75*
G02*
X136265000Y-113486000I0J-125000D01*
G01*
G37*
G36*
G01*
X135765000Y-113486000D02*
X135765000Y-114236000D01*
G75*
G02*
X135640000Y-114361000I-125000J0D01*
G01*
X135640000Y-114361000D01*
G75*
G02*
X135515000Y-114236000I0J125000D01*
G01*
X135515000Y-113486000D01*
G75*
G02*
X135640000Y-113361000I125000J0D01*
G01*
X135640000Y-113361000D01*
G75*
G02*
X135765000Y-113486000I0J-125000D01*
G01*
G37*
G36*
G01*
X135265000Y-113486000D02*
X135265000Y-114236000D01*
G75*
G02*
X135140000Y-114361000I-125000J0D01*
G01*
X135140000Y-114361000D01*
G75*
G02*
X135015000Y-114236000I0J125000D01*
G01*
X135015000Y-113486000D01*
G75*
G02*
X135140000Y-113361000I125000J0D01*
G01*
X135140000Y-113361000D01*
G75*
G02*
X135265000Y-113486000I0J-125000D01*
G01*
G37*
G36*
G01*
X134765000Y-113486000D02*
X134765000Y-114236000D01*
G75*
G02*
X134640000Y-114361000I-125000J0D01*
G01*
X134640000Y-114361000D01*
G75*
G02*
X134515000Y-114236000I0J125000D01*
G01*
X134515000Y-113486000D01*
G75*
G02*
X134640000Y-113361000I125000J0D01*
G01*
X134640000Y-113361000D01*
G75*
G02*
X134765000Y-113486000I0J-125000D01*
G01*
G37*
G36*
G01*
X138505000Y-112996000D02*
X139255000Y-112996000D01*
G75*
G02*
X139380000Y-113121000I0J-125000D01*
G01*
X139380000Y-113121000D01*
G75*
G02*
X139255000Y-113246000I-125000J0D01*
G01*
X138505000Y-113246000D01*
G75*
G02*
X138380000Y-113121000I0J125000D01*
G01*
X138380000Y-113121000D01*
G75*
G02*
X138505000Y-112996000I125000J0D01*
G01*
G37*
G36*
G01*
X138505000Y-112496000D02*
X139255000Y-112496000D01*
G75*
G02*
X139380000Y-112621000I0J-125000D01*
G01*
X139380000Y-112621000D01*
G75*
G02*
X139255000Y-112746000I-125000J0D01*
G01*
X138505000Y-112746000D01*
G75*
G02*
X138380000Y-112621000I0J125000D01*
G01*
X138380000Y-112621000D01*
G75*
G02*
X138505000Y-112496000I125000J0D01*
G01*
G37*
G36*
G01*
X138505000Y-111996000D02*
X139255000Y-111996000D01*
G75*
G02*
X139380000Y-112121000I0J-125000D01*
G01*
X139380000Y-112121000D01*
G75*
G02*
X139255000Y-112246000I-125000J0D01*
G01*
X138505000Y-112246000D01*
G75*
G02*
X138380000Y-112121000I0J125000D01*
G01*
X138380000Y-112121000D01*
G75*
G02*
X138505000Y-111996000I125000J0D01*
G01*
G37*
G36*
G01*
X138505000Y-111496000D02*
X139255000Y-111496000D01*
G75*
G02*
X139380000Y-111621000I0J-125000D01*
G01*
X139380000Y-111621000D01*
G75*
G02*
X139255000Y-111746000I-125000J0D01*
G01*
X138505000Y-111746000D01*
G75*
G02*
X138380000Y-111621000I0J125000D01*
G01*
X138380000Y-111621000D01*
G75*
G02*
X138505000Y-111496000I125000J0D01*
G01*
G37*
G36*
G01*
X138505000Y-110996000D02*
X139255000Y-110996000D01*
G75*
G02*
X139380000Y-111121000I0J-125000D01*
G01*
X139380000Y-111121000D01*
G75*
G02*
X139255000Y-111246000I-125000J0D01*
G01*
X138505000Y-111246000D01*
G75*
G02*
X138380000Y-111121000I0J125000D01*
G01*
X138380000Y-111121000D01*
G75*
G02*
X138505000Y-110996000I125000J0D01*
G01*
G37*
G36*
G01*
X138505000Y-110496000D02*
X139255000Y-110496000D01*
G75*
G02*
X139380000Y-110621000I0J-125000D01*
G01*
X139380000Y-110621000D01*
G75*
G02*
X139255000Y-110746000I-125000J0D01*
G01*
X138505000Y-110746000D01*
G75*
G02*
X138380000Y-110621000I0J125000D01*
G01*
X138380000Y-110621000D01*
G75*
G02*
X138505000Y-110496000I125000J0D01*
G01*
G37*
G36*
G01*
X138505000Y-109996000D02*
X139255000Y-109996000D01*
G75*
G02*
X139380000Y-110121000I0J-125000D01*
G01*
X139380000Y-110121000D01*
G75*
G02*
X139255000Y-110246000I-125000J0D01*
G01*
X138505000Y-110246000D01*
G75*
G02*
X138380000Y-110121000I0J125000D01*
G01*
X138380000Y-110121000D01*
G75*
G02*
X138505000Y-109996000I125000J0D01*
G01*
G37*
G36*
G01*
X138505000Y-109496000D02*
X139255000Y-109496000D01*
G75*
G02*
X139380000Y-109621000I0J-125000D01*
G01*
X139380000Y-109621000D01*
G75*
G02*
X139255000Y-109746000I-125000J0D01*
G01*
X138505000Y-109746000D01*
G75*
G02*
X138380000Y-109621000I0J125000D01*
G01*
X138380000Y-109621000D01*
G75*
G02*
X138505000Y-109496000I125000J0D01*
G01*
G37*
G36*
G01*
X138505000Y-108996000D02*
X139255000Y-108996000D01*
G75*
G02*
X139380000Y-109121000I0J-125000D01*
G01*
X139380000Y-109121000D01*
G75*
G02*
X139255000Y-109246000I-125000J0D01*
G01*
X138505000Y-109246000D01*
G75*
G02*
X138380000Y-109121000I0J125000D01*
G01*
X138380000Y-109121000D01*
G75*
G02*
X138505000Y-108996000I125000J0D01*
G01*
G37*
G36*
G01*
X138505000Y-108496000D02*
X139255000Y-108496000D01*
G75*
G02*
X139380000Y-108621000I0J-125000D01*
G01*
X139380000Y-108621000D01*
G75*
G02*
X139255000Y-108746000I-125000J0D01*
G01*
X138505000Y-108746000D01*
G75*
G02*
X138380000Y-108621000I0J125000D01*
G01*
X138380000Y-108621000D01*
G75*
G02*
X138505000Y-108496000I125000J0D01*
G01*
G37*
G36*
G01*
X138015000Y-108256000D02*
X138015000Y-107506000D01*
G75*
G02*
X138140000Y-107381000I125000J0D01*
G01*
X138140000Y-107381000D01*
G75*
G02*
X138265000Y-107506000I0J-125000D01*
G01*
X138265000Y-108256000D01*
G75*
G02*
X138140000Y-108381000I-125000J0D01*
G01*
X138140000Y-108381000D01*
G75*
G02*
X138015000Y-108256000I0J125000D01*
G01*
G37*
G36*
G01*
X137515000Y-108256000D02*
X137515000Y-107506000D01*
G75*
G02*
X137640000Y-107381000I125000J0D01*
G01*
X137640000Y-107381000D01*
G75*
G02*
X137765000Y-107506000I0J-125000D01*
G01*
X137765000Y-108256000D01*
G75*
G02*
X137640000Y-108381000I-125000J0D01*
G01*
X137640000Y-108381000D01*
G75*
G02*
X137515000Y-108256000I0J125000D01*
G01*
G37*
G36*
G01*
X137015000Y-108256000D02*
X137015000Y-107506000D01*
G75*
G02*
X137140000Y-107381000I125000J0D01*
G01*
X137140000Y-107381000D01*
G75*
G02*
X137265000Y-107506000I0J-125000D01*
G01*
X137265000Y-108256000D01*
G75*
G02*
X137140000Y-108381000I-125000J0D01*
G01*
X137140000Y-108381000D01*
G75*
G02*
X137015000Y-108256000I0J125000D01*
G01*
G37*
G36*
G01*
X136515000Y-108256000D02*
X136515000Y-107506000D01*
G75*
G02*
X136640000Y-107381000I125000J0D01*
G01*
X136640000Y-107381000D01*
G75*
G02*
X136765000Y-107506000I0J-125000D01*
G01*
X136765000Y-108256000D01*
G75*
G02*
X136640000Y-108381000I-125000J0D01*
G01*
X136640000Y-108381000D01*
G75*
G02*
X136515000Y-108256000I0J125000D01*
G01*
G37*
G36*
G01*
X136015000Y-108256000D02*
X136015000Y-107506000D01*
G75*
G02*
X136140000Y-107381000I125000J0D01*
G01*
X136140000Y-107381000D01*
G75*
G02*
X136265000Y-107506000I0J-125000D01*
G01*
X136265000Y-108256000D01*
G75*
G02*
X136140000Y-108381000I-125000J0D01*
G01*
X136140000Y-108381000D01*
G75*
G02*
X136015000Y-108256000I0J125000D01*
G01*
G37*
G36*
G01*
X135515000Y-108256000D02*
X135515000Y-107506000D01*
G75*
G02*
X135640000Y-107381000I125000J0D01*
G01*
X135640000Y-107381000D01*
G75*
G02*
X135765000Y-107506000I0J-125000D01*
G01*
X135765000Y-108256000D01*
G75*
G02*
X135640000Y-108381000I-125000J0D01*
G01*
X135640000Y-108381000D01*
G75*
G02*
X135515000Y-108256000I0J125000D01*
G01*
G37*
G36*
G01*
X135015000Y-108256000D02*
X135015000Y-107506000D01*
G75*
G02*
X135140000Y-107381000I125000J0D01*
G01*
X135140000Y-107381000D01*
G75*
G02*
X135265000Y-107506000I0J-125000D01*
G01*
X135265000Y-108256000D01*
G75*
G02*
X135140000Y-108381000I-125000J0D01*
G01*
X135140000Y-108381000D01*
G75*
G02*
X135015000Y-108256000I0J125000D01*
G01*
G37*
G36*
G01*
X134515000Y-108256000D02*
X134515000Y-107506000D01*
G75*
G02*
X134640000Y-107381000I125000J0D01*
G01*
X134640000Y-107381000D01*
G75*
G02*
X134765000Y-107506000I0J-125000D01*
G01*
X134765000Y-108256000D01*
G75*
G02*
X134640000Y-108381000I-125000J0D01*
G01*
X134640000Y-108381000D01*
G75*
G02*
X134515000Y-108256000I0J125000D01*
G01*
G37*
G36*
G01*
X134015000Y-108256000D02*
X134015000Y-107506000D01*
G75*
G02*
X134140000Y-107381000I125000J0D01*
G01*
X134140000Y-107381000D01*
G75*
G02*
X134265000Y-107506000I0J-125000D01*
G01*
X134265000Y-108256000D01*
G75*
G02*
X134140000Y-108381000I-125000J0D01*
G01*
X134140000Y-108381000D01*
G75*
G02*
X134015000Y-108256000I0J125000D01*
G01*
G37*
G36*
G01*
X133515000Y-108256000D02*
X133515000Y-107506000D01*
G75*
G02*
X133640000Y-107381000I125000J0D01*
G01*
X133640000Y-107381000D01*
G75*
G02*
X133765000Y-107506000I0J-125000D01*
G01*
X133765000Y-108256000D01*
G75*
G02*
X133640000Y-108381000I-125000J0D01*
G01*
X133640000Y-108381000D01*
G75*
G02*
X133515000Y-108256000I0J125000D01*
G01*
G37*
G36*
G01*
X133275000Y-108746000D02*
X132525000Y-108746000D01*
G75*
G02*
X132400000Y-108621000I0J125000D01*
G01*
X132400000Y-108621000D01*
G75*
G02*
X132525000Y-108496000I125000J0D01*
G01*
X133275000Y-108496000D01*
G75*
G02*
X133400000Y-108621000I0J-125000D01*
G01*
X133400000Y-108621000D01*
G75*
G02*
X133275000Y-108746000I-125000J0D01*
G01*
G37*
G36*
G01*
X133275000Y-109246000D02*
X132525000Y-109246000D01*
G75*
G02*
X132400000Y-109121000I0J125000D01*
G01*
X132400000Y-109121000D01*
G75*
G02*
X132525000Y-108996000I125000J0D01*
G01*
X133275000Y-108996000D01*
G75*
G02*
X133400000Y-109121000I0J-125000D01*
G01*
X133400000Y-109121000D01*
G75*
G02*
X133275000Y-109246000I-125000J0D01*
G01*
G37*
G36*
G01*
X133275000Y-109746000D02*
X132525000Y-109746000D01*
G75*
G02*
X132400000Y-109621000I0J125000D01*
G01*
X132400000Y-109621000D01*
G75*
G02*
X132525000Y-109496000I125000J0D01*
G01*
X133275000Y-109496000D01*
G75*
G02*
X133400000Y-109621000I0J-125000D01*
G01*
X133400000Y-109621000D01*
G75*
G02*
X133275000Y-109746000I-125000J0D01*
G01*
G37*
G36*
G01*
X133275000Y-110246000D02*
X132525000Y-110246000D01*
G75*
G02*
X132400000Y-110121000I0J125000D01*
G01*
X132400000Y-110121000D01*
G75*
G02*
X132525000Y-109996000I125000J0D01*
G01*
X133275000Y-109996000D01*
G75*
G02*
X133400000Y-110121000I0J-125000D01*
G01*
X133400000Y-110121000D01*
G75*
G02*
X133275000Y-110246000I-125000J0D01*
G01*
G37*
G36*
G01*
X133275000Y-110746000D02*
X132525000Y-110746000D01*
G75*
G02*
X132400000Y-110621000I0J125000D01*
G01*
X132400000Y-110621000D01*
G75*
G02*
X132525000Y-110496000I125000J0D01*
G01*
X133275000Y-110496000D01*
G75*
G02*
X133400000Y-110621000I0J-125000D01*
G01*
X133400000Y-110621000D01*
G75*
G02*
X133275000Y-110746000I-125000J0D01*
G01*
G37*
G36*
G01*
X133275000Y-111246000D02*
X132525000Y-111246000D01*
G75*
G02*
X132400000Y-111121000I0J125000D01*
G01*
X132400000Y-111121000D01*
G75*
G02*
X132525000Y-110996000I125000J0D01*
G01*
X133275000Y-110996000D01*
G75*
G02*
X133400000Y-111121000I0J-125000D01*
G01*
X133400000Y-111121000D01*
G75*
G02*
X133275000Y-111246000I-125000J0D01*
G01*
G37*
G36*
G01*
X133275000Y-111746000D02*
X132525000Y-111746000D01*
G75*
G02*
X132400000Y-111621000I0J125000D01*
G01*
X132400000Y-111621000D01*
G75*
G02*
X132525000Y-111496000I125000J0D01*
G01*
X133275000Y-111496000D01*
G75*
G02*
X133400000Y-111621000I0J-125000D01*
G01*
X133400000Y-111621000D01*
G75*
G02*
X133275000Y-111746000I-125000J0D01*
G01*
G37*
G36*
G01*
X133275000Y-112246000D02*
X132525000Y-112246000D01*
G75*
G02*
X132400000Y-112121000I0J125000D01*
G01*
X132400000Y-112121000D01*
G75*
G02*
X132525000Y-111996000I125000J0D01*
G01*
X133275000Y-111996000D01*
G75*
G02*
X133400000Y-112121000I0J-125000D01*
G01*
X133400000Y-112121000D01*
G75*
G02*
X133275000Y-112246000I-125000J0D01*
G01*
G37*
G36*
G01*
X133275000Y-112746000D02*
X132525000Y-112746000D01*
G75*
G02*
X132400000Y-112621000I0J125000D01*
G01*
X132400000Y-112621000D01*
G75*
G02*
X132525000Y-112496000I125000J0D01*
G01*
X133275000Y-112496000D01*
G75*
G02*
X133400000Y-112621000I0J-125000D01*
G01*
X133400000Y-112621000D01*
G75*
G02*
X133275000Y-112746000I-125000J0D01*
G01*
G37*
G36*
G01*
X133275000Y-113246000D02*
X132525000Y-113246000D01*
G75*
G02*
X132400000Y-113121000I0J125000D01*
G01*
X132400000Y-113121000D01*
G75*
G02*
X132525000Y-112996000I125000J0D01*
G01*
X133275000Y-112996000D01*
G75*
G02*
X133400000Y-113121000I0J-125000D01*
G01*
X133400000Y-113121000D01*
G75*
G02*
X133275000Y-113246000I-125000J0D01*
G01*
G37*
G36*
G01*
X133765000Y-113486000D02*
X133765000Y-114236000D01*
G75*
G02*
X133640000Y-114361000I-125000J0D01*
G01*
X133640000Y-114361000D01*
G75*
G02*
X133515000Y-114236000I0J125000D01*
G01*
X133515000Y-113486000D01*
G75*
G02*
X133640000Y-113361000I125000J0D01*
G01*
X133640000Y-113361000D01*
G75*
G02*
X133765000Y-113486000I0J-125000D01*
G01*
G37*
G36*
G01*
X134265000Y-113486000D02*
X134265000Y-114236000D01*
G75*
G02*
X134140000Y-114361000I-125000J0D01*
G01*
X134140000Y-114361000D01*
G75*
G02*
X134015000Y-114236000I0J125000D01*
G01*
X134015000Y-113486000D01*
G75*
G02*
X134140000Y-113361000I125000J0D01*
G01*
X134140000Y-113361000D01*
G75*
G02*
X134265000Y-113486000I0J-125000D01*
G01*
G37*
G36*
G01*
X164869000Y-63177000D02*
X164569000Y-63177000D01*
G75*
G02*
X164419000Y-63027000I0J150000D01*
G01*
X164419000Y-61277000D01*
G75*
G02*
X164569000Y-61127000I150000J0D01*
G01*
X164869000Y-61127000D01*
G75*
G02*
X165019000Y-61277000I0J-150000D01*
G01*
X165019000Y-63027000D01*
G75*
G02*
X164869000Y-63177000I-150000J0D01*
G01*
G37*
G36*
G01*
X166139000Y-63177000D02*
X165839000Y-63177000D01*
G75*
G02*
X165689000Y-63027000I0J150000D01*
G01*
X165689000Y-61277000D01*
G75*
G02*
X165839000Y-61127000I150000J0D01*
G01*
X166139000Y-61127000D01*
G75*
G02*
X166289000Y-61277000I0J-150000D01*
G01*
X166289000Y-63027000D01*
G75*
G02*
X166139000Y-63177000I-150000J0D01*
G01*
G37*
G36*
G01*
X167409000Y-63177000D02*
X167109000Y-63177000D01*
G75*
G02*
X166959000Y-63027000I0J150000D01*
G01*
X166959000Y-61277000D01*
G75*
G02*
X167109000Y-61127000I150000J0D01*
G01*
X167409000Y-61127000D01*
G75*
G02*
X167559000Y-61277000I0J-150000D01*
G01*
X167559000Y-63027000D01*
G75*
G02*
X167409000Y-63177000I-150000J0D01*
G01*
G37*
G36*
G01*
X168679000Y-63177000D02*
X168379000Y-63177000D01*
G75*
G02*
X168229000Y-63027000I0J150000D01*
G01*
X168229000Y-61277000D01*
G75*
G02*
X168379000Y-61127000I150000J0D01*
G01*
X168679000Y-61127000D01*
G75*
G02*
X168829000Y-61277000I0J-150000D01*
G01*
X168829000Y-63027000D01*
G75*
G02*
X168679000Y-63177000I-150000J0D01*
G01*
G37*
G36*
G01*
X169949000Y-63177000D02*
X169649000Y-63177000D01*
G75*
G02*
X169499000Y-63027000I0J150000D01*
G01*
X169499000Y-61277000D01*
G75*
G02*
X169649000Y-61127000I150000J0D01*
G01*
X169949000Y-61127000D01*
G75*
G02*
X170099000Y-61277000I0J-150000D01*
G01*
X170099000Y-63027000D01*
G75*
G02*
X169949000Y-63177000I-150000J0D01*
G01*
G37*
G36*
G01*
X171219000Y-63177000D02*
X170919000Y-63177000D01*
G75*
G02*
X170769000Y-63027000I0J150000D01*
G01*
X170769000Y-61277000D01*
G75*
G02*
X170919000Y-61127000I150000J0D01*
G01*
X171219000Y-61127000D01*
G75*
G02*
X171369000Y-61277000I0J-150000D01*
G01*
X171369000Y-63027000D01*
G75*
G02*
X171219000Y-63177000I-150000J0D01*
G01*
G37*
G36*
G01*
X172489000Y-63177000D02*
X172189000Y-63177000D01*
G75*
G02*
X172039000Y-63027000I0J150000D01*
G01*
X172039000Y-61277000D01*
G75*
G02*
X172189000Y-61127000I150000J0D01*
G01*
X172489000Y-61127000D01*
G75*
G02*
X172639000Y-61277000I0J-150000D01*
G01*
X172639000Y-63027000D01*
G75*
G02*
X172489000Y-63177000I-150000J0D01*
G01*
G37*
G36*
G01*
X173759000Y-63177000D02*
X173459000Y-63177000D01*
G75*
G02*
X173309000Y-63027000I0J150000D01*
G01*
X173309000Y-61277000D01*
G75*
G02*
X173459000Y-61127000I150000J0D01*
G01*
X173759000Y-61127000D01*
G75*
G02*
X173909000Y-61277000I0J-150000D01*
G01*
X173909000Y-63027000D01*
G75*
G02*
X173759000Y-63177000I-150000J0D01*
G01*
G37*
G36*
G01*
X173759000Y-72477000D02*
X173459000Y-72477000D01*
G75*
G02*
X173309000Y-72327000I0J150000D01*
G01*
X173309000Y-70577000D01*
G75*
G02*
X173459000Y-70427000I150000J0D01*
G01*
X173759000Y-70427000D01*
G75*
G02*
X173909000Y-70577000I0J-150000D01*
G01*
X173909000Y-72327000D01*
G75*
G02*
X173759000Y-72477000I-150000J0D01*
G01*
G37*
G36*
G01*
X172489000Y-72477000D02*
X172189000Y-72477000D01*
G75*
G02*
X172039000Y-72327000I0J150000D01*
G01*
X172039000Y-70577000D01*
G75*
G02*
X172189000Y-70427000I150000J0D01*
G01*
X172489000Y-70427000D01*
G75*
G02*
X172639000Y-70577000I0J-150000D01*
G01*
X172639000Y-72327000D01*
G75*
G02*
X172489000Y-72477000I-150000J0D01*
G01*
G37*
G36*
G01*
X171219000Y-72477000D02*
X170919000Y-72477000D01*
G75*
G02*
X170769000Y-72327000I0J150000D01*
G01*
X170769000Y-70577000D01*
G75*
G02*
X170919000Y-70427000I150000J0D01*
G01*
X171219000Y-70427000D01*
G75*
G02*
X171369000Y-70577000I0J-150000D01*
G01*
X171369000Y-72327000D01*
G75*
G02*
X171219000Y-72477000I-150000J0D01*
G01*
G37*
G36*
G01*
X169949000Y-72477000D02*
X169649000Y-72477000D01*
G75*
G02*
X169499000Y-72327000I0J150000D01*
G01*
X169499000Y-70577000D01*
G75*
G02*
X169649000Y-70427000I150000J0D01*
G01*
X169949000Y-70427000D01*
G75*
G02*
X170099000Y-70577000I0J-150000D01*
G01*
X170099000Y-72327000D01*
G75*
G02*
X169949000Y-72477000I-150000J0D01*
G01*
G37*
G36*
G01*
X168679000Y-72477000D02*
X168379000Y-72477000D01*
G75*
G02*
X168229000Y-72327000I0J150000D01*
G01*
X168229000Y-70577000D01*
G75*
G02*
X168379000Y-70427000I150000J0D01*
G01*
X168679000Y-70427000D01*
G75*
G02*
X168829000Y-70577000I0J-150000D01*
G01*
X168829000Y-72327000D01*
G75*
G02*
X168679000Y-72477000I-150000J0D01*
G01*
G37*
G36*
G01*
X167409000Y-72477000D02*
X167109000Y-72477000D01*
G75*
G02*
X166959000Y-72327000I0J150000D01*
G01*
X166959000Y-70577000D01*
G75*
G02*
X167109000Y-70427000I150000J0D01*
G01*
X167409000Y-70427000D01*
G75*
G02*
X167559000Y-70577000I0J-150000D01*
G01*
X167559000Y-72327000D01*
G75*
G02*
X167409000Y-72477000I-150000J0D01*
G01*
G37*
G36*
G01*
X166139000Y-72477000D02*
X165839000Y-72477000D01*
G75*
G02*
X165689000Y-72327000I0J150000D01*
G01*
X165689000Y-70577000D01*
G75*
G02*
X165839000Y-70427000I150000J0D01*
G01*
X166139000Y-70427000D01*
G75*
G02*
X166289000Y-70577000I0J-150000D01*
G01*
X166289000Y-72327000D01*
G75*
G02*
X166139000Y-72477000I-150000J0D01*
G01*
G37*
G36*
G01*
X164869000Y-72477000D02*
X164569000Y-72477000D01*
G75*
G02*
X164419000Y-72327000I0J150000D01*
G01*
X164419000Y-70577000D01*
G75*
G02*
X164569000Y-70427000I150000J0D01*
G01*
X164869000Y-70427000D01*
G75*
G02*
X165019000Y-70577000I0J-150000D01*
G01*
X165019000Y-72327000D01*
G75*
G02*
X164869000Y-72477000I-150000J0D01*
G01*
G37*
G36*
G01*
X159715840Y-98953200D02*
X160324160Y-98953200D01*
G75*
G02*
X160443800Y-99072840I0J-119640D01*
G01*
X160443800Y-99631160D01*
G75*
G02*
X160324160Y-99750800I-119640J0D01*
G01*
X159715840Y-99750800D01*
G75*
G02*
X159596200Y-99631160I0J119640D01*
G01*
X159596200Y-99072840D01*
G75*
G02*
X159715840Y-98953200I119640J0D01*
G01*
G37*
G36*
G01*
X159715840Y-97353200D02*
X160324160Y-97353200D01*
G75*
G02*
X160443800Y-97472840I0J-119640D01*
G01*
X160443800Y-98031160D01*
G75*
G02*
X160324160Y-98150800I-119640J0D01*
G01*
X159715840Y-98150800D01*
G75*
G02*
X159596200Y-98031160I0J119640D01*
G01*
X159596200Y-97472840D01*
G75*
G02*
X159715840Y-97353200I119640J0D01*
G01*
G37*
M02*
