G04 #@! TF.GenerationSoftware,KiCad,Pcbnew,(5.1.10)-1*
G04 #@! TF.CreationDate,2021-06-08T22:52:37-07:00*
G04 #@! TF.ProjectId,Plug_Pass,506c7567-5f50-4617-9373-2e6b69636164,v3.1*
G04 #@! TF.SameCoordinates,Original*
G04 #@! TF.FileFunction,Soldermask,Top*
G04 #@! TF.FilePolarity,Negative*
%FSLAX46Y46*%
G04 Gerber Fmt 4.6, Leading zero omitted, Abs format (unit mm)*
G04 Created by KiCad (PCBNEW (5.1.10)-1) date 2021-06-08 22:52:37*
%MOMM*%
%LPD*%
G01*
G04 APERTURE LIST*
%ADD10C,6.282115*%
%ADD11C,1.131600*%
%ADD12O,2.181600X1.141600*%
%ADD13C,1.752600*%
%ADD14O,1.801600X1.801600*%
%ADD15O,2.301600X1.201600*%
%ADD16C,2.601600*%
%ADD17C,4.101600*%
%ADD18C,2.101600*%
%ADD19C,0.100000*%
G04 APERTURE END LIST*
D10*
X144873057Y-66802000D02*
G75*
G03*
X144873057Y-66802000I-3141057J0D01*
G01*
X144873057Y-66802000D02*
G75*
G03*
X144873057Y-66802000I-3141057J0D01*
G01*
D11*
X154078000Y-57150000D03*
X149198000Y-57150000D03*
D12*
X132080000Y-73914000D03*
X132080000Y-75184000D03*
X132080000Y-76454000D03*
G36*
G01*
X164021800Y-119080000D02*
X164021800Y-119680000D01*
G75*
G02*
X163971000Y-119730800I-50800J0D01*
G01*
X162921000Y-119730800D01*
G75*
G02*
X162870200Y-119680000I0J50800D01*
G01*
X162870200Y-119080000D01*
G75*
G02*
X162921000Y-119029200I50800J0D01*
G01*
X163971000Y-119029200D01*
G75*
G02*
X164021800Y-119080000I0J-50800D01*
G01*
G37*
G36*
G01*
X166821800Y-119080000D02*
X166821800Y-119680000D01*
G75*
G02*
X166771000Y-119730800I-50800J0D01*
G01*
X165721000Y-119730800D01*
G75*
G02*
X165670200Y-119680000I0J50800D01*
G01*
X165670200Y-119080000D01*
G75*
G02*
X165721000Y-119029200I50800J0D01*
G01*
X166771000Y-119029200D01*
G75*
G02*
X166821800Y-119080000I0J-50800D01*
G01*
G37*
D13*
X172212000Y-104140000D03*
X172212000Y-101600000D03*
G36*
G01*
X171386500Y-98183700D02*
X173037500Y-98183700D01*
G75*
G02*
X173088300Y-98234500I0J-50800D01*
G01*
X173088300Y-99885500D01*
G75*
G02*
X173037500Y-99936300I-50800J0D01*
G01*
X171386500Y-99936300D01*
G75*
G02*
X171335700Y-99885500I0J50800D01*
G01*
X171335700Y-98234500D01*
G75*
G02*
X171386500Y-98183700I50800J0D01*
G01*
G37*
G36*
G01*
X148835700Y-106648022D02*
X148835700Y-105695978D01*
G75*
G02*
X149110478Y-105421200I274778J0D01*
G01*
X149687522Y-105421200D01*
G75*
G02*
X149962300Y-105695978I0J-274778D01*
G01*
X149962300Y-106648022D01*
G75*
G02*
X149687522Y-106922800I-274778J0D01*
G01*
X149110478Y-106922800D01*
G75*
G02*
X148835700Y-106648022I0J274778D01*
G01*
G37*
G36*
G01*
X147010700Y-106648022D02*
X147010700Y-105695978D01*
G75*
G02*
X147285478Y-105421200I274778J0D01*
G01*
X147862522Y-105421200D01*
G75*
G02*
X148137300Y-105695978I0J-274778D01*
G01*
X148137300Y-106648022D01*
G75*
G02*
X147862522Y-106922800I-274778J0D01*
G01*
X147285478Y-106922800D01*
G75*
G02*
X147010700Y-106648022I0J274778D01*
G01*
G37*
G36*
G01*
X159734022Y-108513300D02*
X158781978Y-108513300D01*
G75*
G02*
X158507200Y-108238522I0J274778D01*
G01*
X158507200Y-107661478D01*
G75*
G02*
X158781978Y-107386700I274778J0D01*
G01*
X159734022Y-107386700D01*
G75*
G02*
X160008800Y-107661478I0J-274778D01*
G01*
X160008800Y-108238522D01*
G75*
G02*
X159734022Y-108513300I-274778J0D01*
G01*
G37*
G36*
G01*
X159734022Y-110338300D02*
X158781978Y-110338300D01*
G75*
G02*
X158507200Y-110063522I0J274778D01*
G01*
X158507200Y-109486478D01*
G75*
G02*
X158781978Y-109211700I274778J0D01*
G01*
X159734022Y-109211700D01*
G75*
G02*
X160008800Y-109486478I0J-274778D01*
G01*
X160008800Y-110063522D01*
G75*
G02*
X159734022Y-110338300I-274778J0D01*
G01*
G37*
G36*
G01*
X159734022Y-113085300D02*
X158781978Y-113085300D01*
G75*
G02*
X158507200Y-112810522I0J274778D01*
G01*
X158507200Y-112233478D01*
G75*
G02*
X158781978Y-111958700I274778J0D01*
G01*
X159734022Y-111958700D01*
G75*
G02*
X160008800Y-112233478I0J-274778D01*
G01*
X160008800Y-112810522D01*
G75*
G02*
X159734022Y-113085300I-274778J0D01*
G01*
G37*
G36*
G01*
X159734022Y-114910300D02*
X158781978Y-114910300D01*
G75*
G02*
X158507200Y-114635522I0J274778D01*
G01*
X158507200Y-114058478D01*
G75*
G02*
X158781978Y-113783700I274778J0D01*
G01*
X159734022Y-113783700D01*
G75*
G02*
X160008800Y-114058478I0J-274778D01*
G01*
X160008800Y-114635522D01*
G75*
G02*
X159734022Y-114910300I-274778J0D01*
G01*
G37*
G36*
G01*
X151137600Y-109299200D02*
X152138400Y-109299200D01*
G75*
G02*
X152413800Y-109574600I0J-275400D01*
G01*
X152413800Y-110125400D01*
G75*
G02*
X152138400Y-110400800I-275400J0D01*
G01*
X151137600Y-110400800D01*
G75*
G02*
X150862200Y-110125400I0J275400D01*
G01*
X150862200Y-109574600D01*
G75*
G02*
X151137600Y-109299200I275400J0D01*
G01*
G37*
G36*
G01*
X151137600Y-107399200D02*
X152138400Y-107399200D01*
G75*
G02*
X152413800Y-107674600I0J-275400D01*
G01*
X152413800Y-108225400D01*
G75*
G02*
X152138400Y-108500800I-275400J0D01*
G01*
X151137600Y-108500800D01*
G75*
G02*
X150862200Y-108225400I0J275400D01*
G01*
X150862200Y-107674600D01*
G75*
G02*
X151137600Y-107399200I275400J0D01*
G01*
G37*
G36*
G01*
X154947600Y-109299200D02*
X155948400Y-109299200D01*
G75*
G02*
X156223800Y-109574600I0J-275400D01*
G01*
X156223800Y-110125400D01*
G75*
G02*
X155948400Y-110400800I-275400J0D01*
G01*
X154947600Y-110400800D01*
G75*
G02*
X154672200Y-110125400I0J275400D01*
G01*
X154672200Y-109574600D01*
G75*
G02*
X154947600Y-109299200I275400J0D01*
G01*
G37*
G36*
G01*
X154947600Y-107399200D02*
X155948400Y-107399200D01*
G75*
G02*
X156223800Y-107674600I0J-275400D01*
G01*
X156223800Y-108225400D01*
G75*
G02*
X155948400Y-108500800I-275400J0D01*
G01*
X154947600Y-108500800D01*
G75*
G02*
X154672200Y-108225400I0J275400D01*
G01*
X154672200Y-107674600D01*
G75*
G02*
X154947600Y-107399200I275400J0D01*
G01*
G37*
G36*
G01*
X154947600Y-113871200D02*
X155948400Y-113871200D01*
G75*
G02*
X156223800Y-114146600I0J-275400D01*
G01*
X156223800Y-114697400D01*
G75*
G02*
X155948400Y-114972800I-275400J0D01*
G01*
X154947600Y-114972800D01*
G75*
G02*
X154672200Y-114697400I0J275400D01*
G01*
X154672200Y-114146600D01*
G75*
G02*
X154947600Y-113871200I275400J0D01*
G01*
G37*
G36*
G01*
X154947600Y-111971200D02*
X155948400Y-111971200D01*
G75*
G02*
X156223800Y-112246600I0J-275400D01*
G01*
X156223800Y-112797400D01*
G75*
G02*
X155948400Y-113072800I-275400J0D01*
G01*
X154947600Y-113072800D01*
G75*
G02*
X154672200Y-112797400I0J275400D01*
G01*
X154672200Y-112246600D01*
G75*
G02*
X154947600Y-111971200I275400J0D01*
G01*
G37*
G36*
G01*
X151137600Y-113871200D02*
X152138400Y-113871200D01*
G75*
G02*
X152413800Y-114146600I0J-275400D01*
G01*
X152413800Y-114697400D01*
G75*
G02*
X152138400Y-114972800I-275400J0D01*
G01*
X151137600Y-114972800D01*
G75*
G02*
X150862200Y-114697400I0J275400D01*
G01*
X150862200Y-114146600D01*
G75*
G02*
X151137600Y-113871200I275400J0D01*
G01*
G37*
G36*
G01*
X151137600Y-111971200D02*
X152138400Y-111971200D01*
G75*
G02*
X152413800Y-112246600I0J-275400D01*
G01*
X152413800Y-112797400D01*
G75*
G02*
X152138400Y-113072800I-275400J0D01*
G01*
X151137600Y-113072800D01*
G75*
G02*
X150862200Y-112797400I0J275400D01*
G01*
X150862200Y-112246600D01*
G75*
G02*
X151137600Y-111971200I275400J0D01*
G01*
G37*
D14*
X131572000Y-62230000D03*
G36*
G01*
X132472800Y-63920000D02*
X132472800Y-65620000D01*
G75*
G02*
X132422000Y-65670800I-50800J0D01*
G01*
X130722000Y-65670800D01*
G75*
G02*
X130671200Y-65620000I0J50800D01*
G01*
X130671200Y-63920000D01*
G75*
G02*
X130722000Y-63869200I50800J0D01*
G01*
X132422000Y-63869200D01*
G75*
G02*
X132472800Y-63920000I0J-50800D01*
G01*
G37*
G36*
G01*
X158390000Y-72312200D02*
X159890000Y-72312200D01*
G75*
G02*
X159940800Y-72363000I0J-50800D01*
G01*
X159940800Y-72913000D01*
G75*
G02*
X159890000Y-72963800I-50800J0D01*
G01*
X158390000Y-72963800D01*
G75*
G02*
X158339200Y-72913000I0J50800D01*
G01*
X158339200Y-72363000D01*
G75*
G02*
X158390000Y-72312200I50800J0D01*
G01*
G37*
G36*
G01*
X158390000Y-73112200D02*
X159890000Y-73112200D01*
G75*
G02*
X159940800Y-73163000I0J-50800D01*
G01*
X159940800Y-73713000D01*
G75*
G02*
X159890000Y-73763800I-50800J0D01*
G01*
X158390000Y-73763800D01*
G75*
G02*
X158339200Y-73713000I0J50800D01*
G01*
X158339200Y-73163000D01*
G75*
G02*
X158390000Y-73112200I50800J0D01*
G01*
G37*
G36*
G01*
X158390000Y-73912200D02*
X159890000Y-73912200D01*
G75*
G02*
X159940800Y-73963000I0J-50800D01*
G01*
X159940800Y-74513000D01*
G75*
G02*
X159890000Y-74563800I-50800J0D01*
G01*
X158390000Y-74563800D01*
G75*
G02*
X158339200Y-74513000I0J50800D01*
G01*
X158339200Y-73963000D01*
G75*
G02*
X158390000Y-73912200I50800J0D01*
G01*
G37*
G36*
G01*
X158390000Y-74712200D02*
X159890000Y-74712200D01*
G75*
G02*
X159940800Y-74763000I0J-50800D01*
G01*
X159940800Y-75313000D01*
G75*
G02*
X159890000Y-75363800I-50800J0D01*
G01*
X158390000Y-75363800D01*
G75*
G02*
X158339200Y-75313000I0J50800D01*
G01*
X158339200Y-74763000D01*
G75*
G02*
X158390000Y-74712200I50800J0D01*
G01*
G37*
G36*
G01*
X158390000Y-75512200D02*
X159890000Y-75512200D01*
G75*
G02*
X159940800Y-75563000I0J-50800D01*
G01*
X159940800Y-76113000D01*
G75*
G02*
X159890000Y-76163800I-50800J0D01*
G01*
X158390000Y-76163800D01*
G75*
G02*
X158339200Y-76113000I0J50800D01*
G01*
X158339200Y-75563000D01*
G75*
G02*
X158390000Y-75512200I50800J0D01*
G01*
G37*
G36*
G01*
X158390000Y-76312200D02*
X159890000Y-76312200D01*
G75*
G02*
X159940800Y-76363000I0J-50800D01*
G01*
X159940800Y-76913000D01*
G75*
G02*
X159890000Y-76963800I-50800J0D01*
G01*
X158390000Y-76963800D01*
G75*
G02*
X158339200Y-76913000I0J50800D01*
G01*
X158339200Y-76363000D01*
G75*
G02*
X158390000Y-76312200I50800J0D01*
G01*
G37*
G36*
G01*
X158390000Y-77112200D02*
X159890000Y-77112200D01*
G75*
G02*
X159940800Y-77163000I0J-50800D01*
G01*
X159940800Y-77713000D01*
G75*
G02*
X159890000Y-77763800I-50800J0D01*
G01*
X158390000Y-77763800D01*
G75*
G02*
X158339200Y-77713000I0J50800D01*
G01*
X158339200Y-77163000D01*
G75*
G02*
X158390000Y-77112200I50800J0D01*
G01*
G37*
G36*
G01*
X158390000Y-77912200D02*
X159890000Y-77912200D01*
G75*
G02*
X159940800Y-77963000I0J-50800D01*
G01*
X159940800Y-78513000D01*
G75*
G02*
X159890000Y-78563800I-50800J0D01*
G01*
X158390000Y-78563800D01*
G75*
G02*
X158339200Y-78513000I0J50800D01*
G01*
X158339200Y-77963000D01*
G75*
G02*
X158390000Y-77912200I50800J0D01*
G01*
G37*
G36*
G01*
X157465000Y-78837200D02*
X158015000Y-78837200D01*
G75*
G02*
X158065800Y-78888000I0J-50800D01*
G01*
X158065800Y-80388000D01*
G75*
G02*
X158015000Y-80438800I-50800J0D01*
G01*
X157465000Y-80438800D01*
G75*
G02*
X157414200Y-80388000I0J50800D01*
G01*
X157414200Y-78888000D01*
G75*
G02*
X157465000Y-78837200I50800J0D01*
G01*
G37*
G36*
G01*
X156665000Y-78837200D02*
X157215000Y-78837200D01*
G75*
G02*
X157265800Y-78888000I0J-50800D01*
G01*
X157265800Y-80388000D01*
G75*
G02*
X157215000Y-80438800I-50800J0D01*
G01*
X156665000Y-80438800D01*
G75*
G02*
X156614200Y-80388000I0J50800D01*
G01*
X156614200Y-78888000D01*
G75*
G02*
X156665000Y-78837200I50800J0D01*
G01*
G37*
G36*
G01*
X155865000Y-78837200D02*
X156415000Y-78837200D01*
G75*
G02*
X156465800Y-78888000I0J-50800D01*
G01*
X156465800Y-80388000D01*
G75*
G02*
X156415000Y-80438800I-50800J0D01*
G01*
X155865000Y-80438800D01*
G75*
G02*
X155814200Y-80388000I0J50800D01*
G01*
X155814200Y-78888000D01*
G75*
G02*
X155865000Y-78837200I50800J0D01*
G01*
G37*
G36*
G01*
X155065000Y-78837200D02*
X155615000Y-78837200D01*
G75*
G02*
X155665800Y-78888000I0J-50800D01*
G01*
X155665800Y-80388000D01*
G75*
G02*
X155615000Y-80438800I-50800J0D01*
G01*
X155065000Y-80438800D01*
G75*
G02*
X155014200Y-80388000I0J50800D01*
G01*
X155014200Y-78888000D01*
G75*
G02*
X155065000Y-78837200I50800J0D01*
G01*
G37*
G36*
G01*
X154265000Y-78837200D02*
X154815000Y-78837200D01*
G75*
G02*
X154865800Y-78888000I0J-50800D01*
G01*
X154865800Y-80388000D01*
G75*
G02*
X154815000Y-80438800I-50800J0D01*
G01*
X154265000Y-80438800D01*
G75*
G02*
X154214200Y-80388000I0J50800D01*
G01*
X154214200Y-78888000D01*
G75*
G02*
X154265000Y-78837200I50800J0D01*
G01*
G37*
G36*
G01*
X153465000Y-78837200D02*
X154015000Y-78837200D01*
G75*
G02*
X154065800Y-78888000I0J-50800D01*
G01*
X154065800Y-80388000D01*
G75*
G02*
X154015000Y-80438800I-50800J0D01*
G01*
X153465000Y-80438800D01*
G75*
G02*
X153414200Y-80388000I0J50800D01*
G01*
X153414200Y-78888000D01*
G75*
G02*
X153465000Y-78837200I50800J0D01*
G01*
G37*
G36*
G01*
X152665000Y-78837200D02*
X153215000Y-78837200D01*
G75*
G02*
X153265800Y-78888000I0J-50800D01*
G01*
X153265800Y-80388000D01*
G75*
G02*
X153215000Y-80438800I-50800J0D01*
G01*
X152665000Y-80438800D01*
G75*
G02*
X152614200Y-80388000I0J50800D01*
G01*
X152614200Y-78888000D01*
G75*
G02*
X152665000Y-78837200I50800J0D01*
G01*
G37*
G36*
G01*
X151865000Y-78837200D02*
X152415000Y-78837200D01*
G75*
G02*
X152465800Y-78888000I0J-50800D01*
G01*
X152465800Y-80388000D01*
G75*
G02*
X152415000Y-80438800I-50800J0D01*
G01*
X151865000Y-80438800D01*
G75*
G02*
X151814200Y-80388000I0J50800D01*
G01*
X151814200Y-78888000D01*
G75*
G02*
X151865000Y-78837200I50800J0D01*
G01*
G37*
G36*
G01*
X149990000Y-77912200D02*
X151490000Y-77912200D01*
G75*
G02*
X151540800Y-77963000I0J-50800D01*
G01*
X151540800Y-78513000D01*
G75*
G02*
X151490000Y-78563800I-50800J0D01*
G01*
X149990000Y-78563800D01*
G75*
G02*
X149939200Y-78513000I0J50800D01*
G01*
X149939200Y-77963000D01*
G75*
G02*
X149990000Y-77912200I50800J0D01*
G01*
G37*
G36*
G01*
X149990000Y-77112200D02*
X151490000Y-77112200D01*
G75*
G02*
X151540800Y-77163000I0J-50800D01*
G01*
X151540800Y-77713000D01*
G75*
G02*
X151490000Y-77763800I-50800J0D01*
G01*
X149990000Y-77763800D01*
G75*
G02*
X149939200Y-77713000I0J50800D01*
G01*
X149939200Y-77163000D01*
G75*
G02*
X149990000Y-77112200I50800J0D01*
G01*
G37*
G36*
G01*
X149990000Y-76312200D02*
X151490000Y-76312200D01*
G75*
G02*
X151540800Y-76363000I0J-50800D01*
G01*
X151540800Y-76913000D01*
G75*
G02*
X151490000Y-76963800I-50800J0D01*
G01*
X149990000Y-76963800D01*
G75*
G02*
X149939200Y-76913000I0J50800D01*
G01*
X149939200Y-76363000D01*
G75*
G02*
X149990000Y-76312200I50800J0D01*
G01*
G37*
G36*
G01*
X149990000Y-75512200D02*
X151490000Y-75512200D01*
G75*
G02*
X151540800Y-75563000I0J-50800D01*
G01*
X151540800Y-76113000D01*
G75*
G02*
X151490000Y-76163800I-50800J0D01*
G01*
X149990000Y-76163800D01*
G75*
G02*
X149939200Y-76113000I0J50800D01*
G01*
X149939200Y-75563000D01*
G75*
G02*
X149990000Y-75512200I50800J0D01*
G01*
G37*
G36*
G01*
X149990000Y-74712200D02*
X151490000Y-74712200D01*
G75*
G02*
X151540800Y-74763000I0J-50800D01*
G01*
X151540800Y-75313000D01*
G75*
G02*
X151490000Y-75363800I-50800J0D01*
G01*
X149990000Y-75363800D01*
G75*
G02*
X149939200Y-75313000I0J50800D01*
G01*
X149939200Y-74763000D01*
G75*
G02*
X149990000Y-74712200I50800J0D01*
G01*
G37*
G36*
G01*
X149990000Y-73912200D02*
X151490000Y-73912200D01*
G75*
G02*
X151540800Y-73963000I0J-50800D01*
G01*
X151540800Y-74513000D01*
G75*
G02*
X151490000Y-74563800I-50800J0D01*
G01*
X149990000Y-74563800D01*
G75*
G02*
X149939200Y-74513000I0J50800D01*
G01*
X149939200Y-73963000D01*
G75*
G02*
X149990000Y-73912200I50800J0D01*
G01*
G37*
G36*
G01*
X149990000Y-73112200D02*
X151490000Y-73112200D01*
G75*
G02*
X151540800Y-73163000I0J-50800D01*
G01*
X151540800Y-73713000D01*
G75*
G02*
X151490000Y-73763800I-50800J0D01*
G01*
X149990000Y-73763800D01*
G75*
G02*
X149939200Y-73713000I0J50800D01*
G01*
X149939200Y-73163000D01*
G75*
G02*
X149990000Y-73112200I50800J0D01*
G01*
G37*
G36*
G01*
X151865000Y-70437200D02*
X152415000Y-70437200D01*
G75*
G02*
X152465800Y-70488000I0J-50800D01*
G01*
X152465800Y-71988000D01*
G75*
G02*
X152415000Y-72038800I-50800J0D01*
G01*
X151865000Y-72038800D01*
G75*
G02*
X151814200Y-71988000I0J50800D01*
G01*
X151814200Y-70488000D01*
G75*
G02*
X151865000Y-70437200I50800J0D01*
G01*
G37*
G36*
G01*
X152665000Y-70437200D02*
X153215000Y-70437200D01*
G75*
G02*
X153265800Y-70488000I0J-50800D01*
G01*
X153265800Y-71988000D01*
G75*
G02*
X153215000Y-72038800I-50800J0D01*
G01*
X152665000Y-72038800D01*
G75*
G02*
X152614200Y-71988000I0J50800D01*
G01*
X152614200Y-70488000D01*
G75*
G02*
X152665000Y-70437200I50800J0D01*
G01*
G37*
G36*
G01*
X153465000Y-70437200D02*
X154015000Y-70437200D01*
G75*
G02*
X154065800Y-70488000I0J-50800D01*
G01*
X154065800Y-71988000D01*
G75*
G02*
X154015000Y-72038800I-50800J0D01*
G01*
X153465000Y-72038800D01*
G75*
G02*
X153414200Y-71988000I0J50800D01*
G01*
X153414200Y-70488000D01*
G75*
G02*
X153465000Y-70437200I50800J0D01*
G01*
G37*
G36*
G01*
X154265000Y-70437200D02*
X154815000Y-70437200D01*
G75*
G02*
X154865800Y-70488000I0J-50800D01*
G01*
X154865800Y-71988000D01*
G75*
G02*
X154815000Y-72038800I-50800J0D01*
G01*
X154265000Y-72038800D01*
G75*
G02*
X154214200Y-71988000I0J50800D01*
G01*
X154214200Y-70488000D01*
G75*
G02*
X154265000Y-70437200I50800J0D01*
G01*
G37*
G36*
G01*
X155065000Y-70437200D02*
X155615000Y-70437200D01*
G75*
G02*
X155665800Y-70488000I0J-50800D01*
G01*
X155665800Y-71988000D01*
G75*
G02*
X155615000Y-72038800I-50800J0D01*
G01*
X155065000Y-72038800D01*
G75*
G02*
X155014200Y-71988000I0J50800D01*
G01*
X155014200Y-70488000D01*
G75*
G02*
X155065000Y-70437200I50800J0D01*
G01*
G37*
G36*
G01*
X155865000Y-70437200D02*
X156415000Y-70437200D01*
G75*
G02*
X156465800Y-70488000I0J-50800D01*
G01*
X156465800Y-71988000D01*
G75*
G02*
X156415000Y-72038800I-50800J0D01*
G01*
X155865000Y-72038800D01*
G75*
G02*
X155814200Y-71988000I0J50800D01*
G01*
X155814200Y-70488000D01*
G75*
G02*
X155865000Y-70437200I50800J0D01*
G01*
G37*
G36*
G01*
X156665000Y-70437200D02*
X157215000Y-70437200D01*
G75*
G02*
X157265800Y-70488000I0J-50800D01*
G01*
X157265800Y-71988000D01*
G75*
G02*
X157215000Y-72038800I-50800J0D01*
G01*
X156665000Y-72038800D01*
G75*
G02*
X156614200Y-71988000I0J50800D01*
G01*
X156614200Y-70488000D01*
G75*
G02*
X156665000Y-70437200I50800J0D01*
G01*
G37*
G36*
G01*
X157465000Y-70437200D02*
X158015000Y-70437200D01*
G75*
G02*
X158065800Y-70488000I0J-50800D01*
G01*
X158065800Y-71988000D01*
G75*
G02*
X158015000Y-72038800I-50800J0D01*
G01*
X157465000Y-72038800D01*
G75*
G02*
X157414200Y-71988000I0J50800D01*
G01*
X157414200Y-70488000D01*
G75*
G02*
X157465000Y-70437200I50800J0D01*
G01*
G37*
G36*
G01*
X149990000Y-72312200D02*
X151490000Y-72312200D01*
G75*
G02*
X151540800Y-72363000I0J-50800D01*
G01*
X151540800Y-72913000D01*
G75*
G02*
X151490000Y-72963800I-50800J0D01*
G01*
X149990000Y-72963800D01*
G75*
G02*
X149939200Y-72913000I0J50800D01*
G01*
X149939200Y-72363000D01*
G75*
G02*
X149990000Y-72312200I50800J0D01*
G01*
G37*
G36*
G01*
X136886400Y-75583252D02*
X136886400Y-74784748D01*
G75*
G02*
X136898748Y-74772400I12348J0D01*
G01*
X137697252Y-74772400D01*
G75*
G02*
X137709600Y-74784748I0J-12348D01*
G01*
X137709600Y-75583252D01*
G75*
G02*
X137697252Y-75595600I-12348J0D01*
G01*
X136898748Y-75595600D01*
G75*
G02*
X136886400Y-75583252I0J12348D01*
G01*
G37*
G36*
G01*
X135986400Y-75583252D02*
X135986400Y-74784748D01*
G75*
G02*
X135998748Y-74772400I12348J0D01*
G01*
X136797252Y-74772400D01*
G75*
G02*
X136809600Y-74784748I0J-12348D01*
G01*
X136809600Y-75583252D01*
G75*
G02*
X136797252Y-75595600I-12348J0D01*
G01*
X135998748Y-75595600D01*
G75*
G02*
X135986400Y-75583252I0J12348D01*
G01*
G37*
G36*
G01*
X144280000Y-87263200D02*
X145280000Y-87263200D01*
G75*
G02*
X145330800Y-87314000I0J-50800D01*
G01*
X145330800Y-89214000D01*
G75*
G02*
X145280000Y-89264800I-50800J0D01*
G01*
X144280000Y-89264800D01*
G75*
G02*
X144229200Y-89214000I0J50800D01*
G01*
X144229200Y-87314000D01*
G75*
G02*
X144280000Y-87263200I50800J0D01*
G01*
G37*
G36*
G01*
X149360000Y-87263200D02*
X150360000Y-87263200D01*
G75*
G02*
X150410800Y-87314000I0J-50800D01*
G01*
X150410800Y-89214000D01*
G75*
G02*
X150360000Y-89264800I-50800J0D01*
G01*
X149360000Y-89264800D01*
G75*
G02*
X149309200Y-89214000I0J50800D01*
G01*
X149309200Y-87314000D01*
G75*
G02*
X149360000Y-87263200I50800J0D01*
G01*
G37*
G36*
G01*
X154440000Y-87263200D02*
X155440000Y-87263200D01*
G75*
G02*
X155490800Y-87314000I0J-50800D01*
G01*
X155490800Y-89214000D01*
G75*
G02*
X155440000Y-89264800I-50800J0D01*
G01*
X154440000Y-89264800D01*
G75*
G02*
X154389200Y-89214000I0J50800D01*
G01*
X154389200Y-87314000D01*
G75*
G02*
X154440000Y-87263200I50800J0D01*
G01*
G37*
G36*
G01*
X159520000Y-87263200D02*
X160520000Y-87263200D01*
G75*
G02*
X160570800Y-87314000I0J-50800D01*
G01*
X160570800Y-89214000D01*
G75*
G02*
X160520000Y-89264800I-50800J0D01*
G01*
X159520000Y-89264800D01*
G75*
G02*
X159469200Y-89214000I0J50800D01*
G01*
X159469200Y-87314000D01*
G75*
G02*
X159520000Y-87263200I50800J0D01*
G01*
G37*
G36*
G01*
X141740000Y-83963200D02*
X142740000Y-83963200D01*
G75*
G02*
X142790800Y-84014000I0J-50800D01*
G01*
X142790800Y-85914000D01*
G75*
G02*
X142740000Y-85964800I-50800J0D01*
G01*
X141740000Y-85964800D01*
G75*
G02*
X141689200Y-85914000I0J50800D01*
G01*
X141689200Y-84014000D01*
G75*
G02*
X141740000Y-83963200I50800J0D01*
G01*
G37*
G36*
G01*
X146820000Y-83963200D02*
X147820000Y-83963200D01*
G75*
G02*
X147870800Y-84014000I0J-50800D01*
G01*
X147870800Y-85914000D01*
G75*
G02*
X147820000Y-85964800I-50800J0D01*
G01*
X146820000Y-85964800D01*
G75*
G02*
X146769200Y-85914000I0J50800D01*
G01*
X146769200Y-84014000D01*
G75*
G02*
X146820000Y-83963200I50800J0D01*
G01*
G37*
G36*
G01*
X151900000Y-83963200D02*
X152900000Y-83963200D01*
G75*
G02*
X152950800Y-84014000I0J-50800D01*
G01*
X152950800Y-85914000D01*
G75*
G02*
X152900000Y-85964800I-50800J0D01*
G01*
X151900000Y-85964800D01*
G75*
G02*
X151849200Y-85914000I0J50800D01*
G01*
X151849200Y-84014000D01*
G75*
G02*
X151900000Y-83963200I50800J0D01*
G01*
G37*
G36*
G01*
X156980000Y-83963200D02*
X157980000Y-83963200D01*
G75*
G02*
X158030800Y-84014000I0J-50800D01*
G01*
X158030800Y-85914000D01*
G75*
G02*
X157980000Y-85964800I-50800J0D01*
G01*
X156980000Y-85964800D01*
G75*
G02*
X156929200Y-85914000I0J50800D01*
G01*
X156929200Y-84014000D01*
G75*
G02*
X156980000Y-83963200I50800J0D01*
G01*
G37*
G36*
G01*
X151617800Y-63614940D02*
X151617800Y-64401060D01*
G75*
G02*
X151460060Y-64558800I-157740J0D01*
G01*
X150723940Y-64558800D01*
G75*
G02*
X150566200Y-64401060I0J157740D01*
G01*
X150566200Y-63614940D01*
G75*
G02*
X150723940Y-63457200I157740J0D01*
G01*
X151460060Y-63457200D01*
G75*
G02*
X151617800Y-63614940I0J-157740D01*
G01*
G37*
G36*
G01*
X153217800Y-63614940D02*
X153217800Y-64401060D01*
G75*
G02*
X153060060Y-64558800I-157740J0D01*
G01*
X152323940Y-64558800D01*
G75*
G02*
X152166200Y-64401060I0J157740D01*
G01*
X152166200Y-63614940D01*
G75*
G02*
X152323940Y-63457200I157740J0D01*
G01*
X153060060Y-63457200D01*
G75*
G02*
X153217800Y-63614940I0J-157740D01*
G01*
G37*
G36*
G01*
X151150200Y-67703060D02*
X151150200Y-66916940D01*
G75*
G02*
X151307940Y-66759200I157740J0D01*
G01*
X152044060Y-66759200D01*
G75*
G02*
X152201800Y-66916940I0J-157740D01*
G01*
X152201800Y-67703060D01*
G75*
G02*
X152044060Y-67860800I-157740J0D01*
G01*
X151307940Y-67860800D01*
G75*
G02*
X151150200Y-67703060I0J157740D01*
G01*
G37*
G36*
G01*
X149550200Y-67703060D02*
X149550200Y-66916940D01*
G75*
G02*
X149707940Y-66759200I157740J0D01*
G01*
X150444060Y-66759200D01*
G75*
G02*
X150601800Y-66916940I0J-157740D01*
G01*
X150601800Y-67703060D01*
G75*
G02*
X150444060Y-67860800I-157740J0D01*
G01*
X149707940Y-67860800D01*
G75*
G02*
X149550200Y-67703060I0J157740D01*
G01*
G37*
G36*
G01*
X139320000Y-81959800D02*
X137870000Y-81959800D01*
G75*
G02*
X137819200Y-81909000I0J50800D01*
G01*
X137819200Y-81159000D01*
G75*
G02*
X137870000Y-81108200I50800J0D01*
G01*
X139320000Y-81108200D01*
G75*
G02*
X139370800Y-81159000I0J-50800D01*
G01*
X139370800Y-81909000D01*
G75*
G02*
X139320000Y-81959800I-50800J0D01*
G01*
G37*
G36*
G01*
X139320000Y-83229800D02*
X137870000Y-83229800D01*
G75*
G02*
X137819200Y-83179000I0J50800D01*
G01*
X137819200Y-82429000D01*
G75*
G02*
X137870000Y-82378200I50800J0D01*
G01*
X139320000Y-82378200D01*
G75*
G02*
X139370800Y-82429000I0J-50800D01*
G01*
X139370800Y-83179000D01*
G75*
G02*
X139320000Y-83229800I-50800J0D01*
G01*
G37*
G36*
G01*
X139320000Y-84499800D02*
X137870000Y-84499800D01*
G75*
G02*
X137819200Y-84449000I0J50800D01*
G01*
X137819200Y-83699000D01*
G75*
G02*
X137870000Y-83648200I50800J0D01*
G01*
X139320000Y-83648200D01*
G75*
G02*
X139370800Y-83699000I0J-50800D01*
G01*
X139370800Y-84449000D01*
G75*
G02*
X139320000Y-84499800I-50800J0D01*
G01*
G37*
G36*
G01*
X139320000Y-85769800D02*
X137870000Y-85769800D01*
G75*
G02*
X137819200Y-85719000I0J50800D01*
G01*
X137819200Y-84969000D01*
G75*
G02*
X137870000Y-84918200I50800J0D01*
G01*
X139320000Y-84918200D01*
G75*
G02*
X139370800Y-84969000I0J-50800D01*
G01*
X139370800Y-85719000D01*
G75*
G02*
X139320000Y-85769800I-50800J0D01*
G01*
G37*
G36*
G01*
X131370000Y-85769800D02*
X129920000Y-85769800D01*
G75*
G02*
X129869200Y-85719000I0J50800D01*
G01*
X129869200Y-84969000D01*
G75*
G02*
X129920000Y-84918200I50800J0D01*
G01*
X131370000Y-84918200D01*
G75*
G02*
X131420800Y-84969000I0J-50800D01*
G01*
X131420800Y-85719000D01*
G75*
G02*
X131370000Y-85769800I-50800J0D01*
G01*
G37*
G36*
G01*
X131370000Y-84499800D02*
X129920000Y-84499800D01*
G75*
G02*
X129869200Y-84449000I0J50800D01*
G01*
X129869200Y-83699000D01*
G75*
G02*
X129920000Y-83648200I50800J0D01*
G01*
X131370000Y-83648200D01*
G75*
G02*
X131420800Y-83699000I0J-50800D01*
G01*
X131420800Y-84449000D01*
G75*
G02*
X131370000Y-84499800I-50800J0D01*
G01*
G37*
G36*
G01*
X131370000Y-83229800D02*
X129920000Y-83229800D01*
G75*
G02*
X129869200Y-83179000I0J50800D01*
G01*
X129869200Y-82429000D01*
G75*
G02*
X129920000Y-82378200I50800J0D01*
G01*
X131370000Y-82378200D01*
G75*
G02*
X131420800Y-82429000I0J-50800D01*
G01*
X131420800Y-83179000D01*
G75*
G02*
X131370000Y-83229800I-50800J0D01*
G01*
G37*
G36*
G01*
X131370000Y-81959800D02*
X129920000Y-81959800D01*
G75*
G02*
X129869200Y-81909000I0J50800D01*
G01*
X129869200Y-81159000D01*
G75*
G02*
X129920000Y-81108200I50800J0D01*
G01*
X131370000Y-81108200D01*
G75*
G02*
X131420800Y-81159000I0J-50800D01*
G01*
X131420800Y-81909000D01*
G75*
G02*
X131370000Y-81959800I-50800J0D01*
G01*
G37*
G36*
G01*
X170685200Y-126444000D02*
X170685200Y-120444000D01*
G75*
G02*
X170736000Y-120393200I50800J0D01*
G01*
X176736000Y-120393200D01*
G75*
G02*
X176786800Y-120444000I0J-50800D01*
G01*
X176786800Y-126444000D01*
G75*
G02*
X176736000Y-126494800I-50800J0D01*
G01*
X170736000Y-126494800D01*
G75*
G02*
X170685200Y-126444000I0J50800D01*
G01*
G37*
G36*
G01*
X170685200Y-59388000D02*
X170685200Y-53388000D01*
G75*
G02*
X170736000Y-53337200I50800J0D01*
G01*
X176736000Y-53337200D01*
G75*
G02*
X176786800Y-53388000I0J-50800D01*
G01*
X176786800Y-59388000D01*
G75*
G02*
X176736000Y-59438800I-50800J0D01*
G01*
X170736000Y-59438800D01*
G75*
G02*
X170685200Y-59388000I0J50800D01*
G01*
G37*
G36*
G01*
X129029200Y-126444000D02*
X129029200Y-120444000D01*
G75*
G02*
X129080000Y-120393200I50800J0D01*
G01*
X135080000Y-120393200D01*
G75*
G02*
X135130800Y-120444000I0J-50800D01*
G01*
X135130800Y-126444000D01*
G75*
G02*
X135080000Y-126494800I-50800J0D01*
G01*
X129080000Y-126494800D01*
G75*
G02*
X129029200Y-126444000I0J50800D01*
G01*
G37*
G36*
G01*
X129029200Y-59388000D02*
X129029200Y-53388000D01*
G75*
G02*
X129080000Y-53337200I50800J0D01*
G01*
X135080000Y-53337200D01*
G75*
G02*
X135130800Y-53388000I0J-50800D01*
G01*
X135130800Y-59388000D01*
G75*
G02*
X135080000Y-59438800I-50800J0D01*
G01*
X129080000Y-59438800D01*
G75*
G02*
X129029200Y-59388000I0J50800D01*
G01*
G37*
G36*
G01*
X143332000Y-60227400D02*
X140132000Y-60227400D01*
G75*
G02*
X140081200Y-60176600I0J50800D01*
G01*
X140081200Y-56976600D01*
G75*
G02*
X140132000Y-56925800I50800J0D01*
G01*
X143332000Y-56925800D01*
G75*
G02*
X143382800Y-56976600I0J-50800D01*
G01*
X143382800Y-60176600D01*
G75*
G02*
X143332000Y-60227400I-50800J0D01*
G01*
G37*
G36*
G01*
X143332000Y-76678200D02*
X140132000Y-76678200D01*
G75*
G02*
X140081200Y-76627400I0J50800D01*
G01*
X140081200Y-73427400D01*
G75*
G02*
X140132000Y-73376600I50800J0D01*
G01*
X143332000Y-73376600D01*
G75*
G02*
X143382800Y-73427400I0J-50800D01*
G01*
X143382800Y-76627400D01*
G75*
G02*
X143332000Y-76678200I-50800J0D01*
G01*
G37*
G36*
G01*
X141732000Y-70027800D02*
X141732000Y-70027800D01*
G75*
G02*
X138506200Y-66802000I0J3225800D01*
G01*
X138506200Y-66802000D01*
G75*
G02*
X141732000Y-63576200I3225800J0D01*
G01*
X141732000Y-63576200D01*
G75*
G02*
X144957800Y-66802000I0J-3225800D01*
G01*
X144957800Y-66802000D01*
G75*
G02*
X141732000Y-70027800I-3225800J0D01*
G01*
G37*
D15*
X167392000Y-93599000D03*
X161792000Y-93599000D03*
X164592000Y-95749000D03*
G36*
G01*
X165616200Y-94599000D02*
X165616200Y-93099000D01*
G75*
G02*
X165667000Y-93048200I50800J0D01*
G01*
X166117000Y-93048200D01*
G75*
G02*
X166167800Y-93099000I0J-50800D01*
G01*
X166167800Y-94599000D01*
G75*
G02*
X166117000Y-94649800I-50800J0D01*
G01*
X165667000Y-94649800D01*
G75*
G02*
X165616200Y-94599000I0J50800D01*
G01*
G37*
G36*
G01*
X164966200Y-94599000D02*
X164966200Y-93099000D01*
G75*
G02*
X165017000Y-93048200I50800J0D01*
G01*
X165467000Y-93048200D01*
G75*
G02*
X165517800Y-93099000I0J-50800D01*
G01*
X165517800Y-94599000D01*
G75*
G02*
X165467000Y-94649800I-50800J0D01*
G01*
X165017000Y-94649800D01*
G75*
G02*
X164966200Y-94599000I0J50800D01*
G01*
G37*
G36*
G01*
X164316200Y-94599000D02*
X164316200Y-93099000D01*
G75*
G02*
X164367000Y-93048200I50800J0D01*
G01*
X164817000Y-93048200D01*
G75*
G02*
X164867800Y-93099000I0J-50800D01*
G01*
X164867800Y-94599000D01*
G75*
G02*
X164817000Y-94649800I-50800J0D01*
G01*
X164367000Y-94649800D01*
G75*
G02*
X164316200Y-94599000I0J50800D01*
G01*
G37*
G36*
G01*
X163666200Y-94599000D02*
X163666200Y-93099000D01*
G75*
G02*
X163717000Y-93048200I50800J0D01*
G01*
X164167000Y-93048200D01*
G75*
G02*
X164217800Y-93099000I0J-50800D01*
G01*
X164217800Y-94599000D01*
G75*
G02*
X164167000Y-94649800I-50800J0D01*
G01*
X163717000Y-94649800D01*
G75*
G02*
X163666200Y-94599000I0J50800D01*
G01*
G37*
G36*
G01*
X163016200Y-94599000D02*
X163016200Y-93099000D01*
G75*
G02*
X163067000Y-93048200I50800J0D01*
G01*
X163517000Y-93048200D01*
G75*
G02*
X163567800Y-93099000I0J-50800D01*
G01*
X163567800Y-94599000D01*
G75*
G02*
X163517000Y-94649800I-50800J0D01*
G01*
X163067000Y-94649800D01*
G75*
G02*
X163016200Y-94599000I0J50800D01*
G01*
G37*
G36*
G01*
X136198800Y-102508000D02*
X136198800Y-103908000D01*
G75*
G02*
X136148000Y-103958800I-50800J0D01*
G01*
X134948000Y-103958800D01*
G75*
G02*
X134897200Y-103908000I0J50800D01*
G01*
X134897200Y-102508000D01*
G75*
G02*
X134948000Y-102457200I50800J0D01*
G01*
X136148000Y-102457200D01*
G75*
G02*
X136198800Y-102508000I0J-50800D01*
G01*
G37*
G36*
G01*
X136198800Y-100308000D02*
X136198800Y-101708000D01*
G75*
G02*
X136148000Y-101758800I-50800J0D01*
G01*
X134948000Y-101758800D01*
G75*
G02*
X134897200Y-101708000I0J50800D01*
G01*
X134897200Y-100308000D01*
G75*
G02*
X134948000Y-100257200I50800J0D01*
G01*
X136148000Y-100257200D01*
G75*
G02*
X136198800Y-100308000I0J-50800D01*
G01*
G37*
G36*
G01*
X137898800Y-100308000D02*
X137898800Y-101708000D01*
G75*
G02*
X137848000Y-101758800I-50800J0D01*
G01*
X136648000Y-101758800D01*
G75*
G02*
X136597200Y-101708000I0J50800D01*
G01*
X136597200Y-100308000D01*
G75*
G02*
X136648000Y-100257200I50800J0D01*
G01*
X137848000Y-100257200D01*
G75*
G02*
X137898800Y-100308000I0J-50800D01*
G01*
G37*
G36*
G01*
X137898800Y-102508000D02*
X137898800Y-103908000D01*
G75*
G02*
X137848000Y-103958800I-50800J0D01*
G01*
X136648000Y-103958800D01*
G75*
G02*
X136597200Y-103908000I0J50800D01*
G01*
X136597200Y-102508000D01*
G75*
G02*
X136648000Y-102457200I50800J0D01*
G01*
X137848000Y-102457200D01*
G75*
G02*
X137898800Y-102508000I0J-50800D01*
G01*
G37*
G36*
G01*
X153454400Y-82949252D02*
X153454400Y-82150748D01*
G75*
G02*
X153466748Y-82138400I12348J0D01*
G01*
X154265252Y-82138400D01*
G75*
G02*
X154277600Y-82150748I0J-12348D01*
G01*
X154277600Y-82949252D01*
G75*
G02*
X154265252Y-82961600I-12348J0D01*
G01*
X153466748Y-82961600D01*
G75*
G02*
X153454400Y-82949252I0J12348D01*
G01*
G37*
G36*
G01*
X152554400Y-82949252D02*
X152554400Y-82150748D01*
G75*
G02*
X152566748Y-82138400I12348J0D01*
G01*
X153365252Y-82138400D01*
G75*
G02*
X153377600Y-82150748I0J-12348D01*
G01*
X153377600Y-82949252D01*
G75*
G02*
X153365252Y-82961600I-12348J0D01*
G01*
X152566748Y-82961600D01*
G75*
G02*
X152554400Y-82949252I0J12348D01*
G01*
G37*
G36*
G01*
X134581600Y-78594748D02*
X134581600Y-79393252D01*
G75*
G02*
X134569252Y-79405600I-12348J0D01*
G01*
X133770748Y-79405600D01*
G75*
G02*
X133758400Y-79393252I0J12348D01*
G01*
X133758400Y-78594748D01*
G75*
G02*
X133770748Y-78582400I12348J0D01*
G01*
X134569252Y-78582400D01*
G75*
G02*
X134581600Y-78594748I0J-12348D01*
G01*
G37*
G36*
G01*
X135481600Y-78594748D02*
X135481600Y-79393252D01*
G75*
G02*
X135469252Y-79405600I-12348J0D01*
G01*
X134670748Y-79405600D01*
G75*
G02*
X134658400Y-79393252I0J12348D01*
G01*
X134658400Y-78594748D01*
G75*
G02*
X134670748Y-78582400I12348J0D01*
G01*
X135469252Y-78582400D01*
G75*
G02*
X135481600Y-78594748I0J-12348D01*
G01*
G37*
G36*
G01*
X171234400Y-92601252D02*
X171234400Y-91802748D01*
G75*
G02*
X171246748Y-91790400I12348J0D01*
G01*
X172045252Y-91790400D01*
G75*
G02*
X172057600Y-91802748I0J-12348D01*
G01*
X172057600Y-92601252D01*
G75*
G02*
X172045252Y-92613600I-12348J0D01*
G01*
X171246748Y-92613600D01*
G75*
G02*
X171234400Y-92601252I0J12348D01*
G01*
G37*
G36*
G01*
X170334400Y-92601252D02*
X170334400Y-91802748D01*
G75*
G02*
X170346748Y-91790400I12348J0D01*
G01*
X171145252Y-91790400D01*
G75*
G02*
X171157600Y-91802748I0J-12348D01*
G01*
X171157600Y-92601252D01*
G75*
G02*
X171145252Y-92613600I-12348J0D01*
G01*
X170346748Y-92613600D01*
G75*
G02*
X170334400Y-92601252I0J12348D01*
G01*
G37*
G36*
G01*
X171234400Y-90823252D02*
X171234400Y-90024748D01*
G75*
G02*
X171246748Y-90012400I12348J0D01*
G01*
X172045252Y-90012400D01*
G75*
G02*
X172057600Y-90024748I0J-12348D01*
G01*
X172057600Y-90823252D01*
G75*
G02*
X172045252Y-90835600I-12348J0D01*
G01*
X171246748Y-90835600D01*
G75*
G02*
X171234400Y-90823252I0J12348D01*
G01*
G37*
G36*
G01*
X170334400Y-90823252D02*
X170334400Y-90024748D01*
G75*
G02*
X170346748Y-90012400I12348J0D01*
G01*
X171145252Y-90012400D01*
G75*
G02*
X171157600Y-90024748I0J-12348D01*
G01*
X171157600Y-90823252D01*
G75*
G02*
X171145252Y-90835600I-12348J0D01*
G01*
X170346748Y-90835600D01*
G75*
G02*
X170334400Y-90823252I0J12348D01*
G01*
G37*
G36*
G01*
X142602748Y-101257400D02*
X143401252Y-101257400D01*
G75*
G02*
X143413600Y-101269748I0J-12348D01*
G01*
X143413600Y-102068252D01*
G75*
G02*
X143401252Y-102080600I-12348J0D01*
G01*
X142602748Y-102080600D01*
G75*
G02*
X142590400Y-102068252I0J12348D01*
G01*
X142590400Y-101269748D01*
G75*
G02*
X142602748Y-101257400I12348J0D01*
G01*
G37*
G36*
G01*
X142602748Y-100357400D02*
X143401252Y-100357400D01*
G75*
G02*
X143413600Y-100369748I0J-12348D01*
G01*
X143413600Y-101168252D01*
G75*
G02*
X143401252Y-101180600I-12348J0D01*
G01*
X142602748Y-101180600D01*
G75*
G02*
X142590400Y-101168252I0J12348D01*
G01*
X142590400Y-100369748D01*
G75*
G02*
X142602748Y-100357400I12348J0D01*
G01*
G37*
G36*
G01*
X158858748Y-64554400D02*
X159657252Y-64554400D01*
G75*
G02*
X159669600Y-64566748I0J-12348D01*
G01*
X159669600Y-65365252D01*
G75*
G02*
X159657252Y-65377600I-12348J0D01*
G01*
X158858748Y-65377600D01*
G75*
G02*
X158846400Y-65365252I0J12348D01*
G01*
X158846400Y-64566748D01*
G75*
G02*
X158858748Y-64554400I12348J0D01*
G01*
G37*
G36*
G01*
X158858748Y-63654400D02*
X159657252Y-63654400D01*
G75*
G02*
X159669600Y-63666748I0J-12348D01*
G01*
X159669600Y-64465252D01*
G75*
G02*
X159657252Y-64477600I-12348J0D01*
G01*
X158858748Y-64477600D01*
G75*
G02*
X158846400Y-64465252I0J12348D01*
G01*
X158846400Y-63666748D01*
G75*
G02*
X158858748Y-63654400I12348J0D01*
G01*
G37*
G36*
G01*
X160890748Y-64554400D02*
X161689252Y-64554400D01*
G75*
G02*
X161701600Y-64566748I0J-12348D01*
G01*
X161701600Y-65365252D01*
G75*
G02*
X161689252Y-65377600I-12348J0D01*
G01*
X160890748Y-65377600D01*
G75*
G02*
X160878400Y-65365252I0J12348D01*
G01*
X160878400Y-64566748D01*
G75*
G02*
X160890748Y-64554400I12348J0D01*
G01*
G37*
G36*
G01*
X160890748Y-63654400D02*
X161689252Y-63654400D01*
G75*
G02*
X161701600Y-63666748I0J-12348D01*
G01*
X161701600Y-64465252D01*
G75*
G02*
X161689252Y-64477600I-12348J0D01*
G01*
X160890748Y-64477600D01*
G75*
G02*
X160878400Y-64465252I0J12348D01*
G01*
X160878400Y-63666748D01*
G75*
G02*
X160890748Y-63654400I12348J0D01*
G01*
G37*
G36*
G01*
X134159302Y-116797600D02*
X132540698Y-116797600D01*
G75*
G02*
X132523400Y-116780302I0J17298D01*
G01*
X132523400Y-115661698D01*
G75*
G02*
X132540698Y-115644400I17298J0D01*
G01*
X134159302Y-115644400D01*
G75*
G02*
X134176600Y-115661698I0J-17298D01*
G01*
X134176600Y-116780302D01*
G75*
G02*
X134159302Y-116797600I-17298J0D01*
G01*
G37*
G36*
G01*
X134159302Y-118797600D02*
X132540698Y-118797600D01*
G75*
G02*
X132523400Y-118780302I0J17298D01*
G01*
X132523400Y-117661698D01*
G75*
G02*
X132540698Y-117644400I17298J0D01*
G01*
X134159302Y-117644400D01*
G75*
G02*
X134176600Y-117661698I0J-17298D01*
G01*
X134176600Y-118780302D01*
G75*
G02*
X134159302Y-118797600I-17298J0D01*
G01*
G37*
G36*
G01*
X143340600Y-108791698D02*
X143340600Y-110410302D01*
G75*
G02*
X143323302Y-110427600I-17298J0D01*
G01*
X142204698Y-110427600D01*
G75*
G02*
X142187400Y-110410302I0J17298D01*
G01*
X142187400Y-108791698D01*
G75*
G02*
X142204698Y-108774400I17298J0D01*
G01*
X143323302Y-108774400D01*
G75*
G02*
X143340600Y-108791698I0J-17298D01*
G01*
G37*
G36*
G01*
X145340600Y-108791698D02*
X145340600Y-110410302D01*
G75*
G02*
X145323302Y-110427600I-17298J0D01*
G01*
X144204698Y-110427600D01*
G75*
G02*
X144187400Y-110410302I0J17298D01*
G01*
X144187400Y-108791698D01*
G75*
G02*
X144204698Y-108774400I17298J0D01*
G01*
X145323302Y-108774400D01*
G75*
G02*
X145340600Y-108791698I0J-17298D01*
G01*
G37*
G36*
G01*
X143340600Y-111839698D02*
X143340600Y-113458302D01*
G75*
G02*
X143323302Y-113475600I-17298J0D01*
G01*
X142204698Y-113475600D01*
G75*
G02*
X142187400Y-113458302I0J17298D01*
G01*
X142187400Y-111839698D01*
G75*
G02*
X142204698Y-111822400I17298J0D01*
G01*
X143323302Y-111822400D01*
G75*
G02*
X143340600Y-111839698I0J-17298D01*
G01*
G37*
G36*
G01*
X145340600Y-111839698D02*
X145340600Y-113458302D01*
G75*
G02*
X145323302Y-113475600I-17298J0D01*
G01*
X144204698Y-113475600D01*
G75*
G02*
X144187400Y-113458302I0J17298D01*
G01*
X144187400Y-111839698D01*
G75*
G02*
X144204698Y-111822400I17298J0D01*
G01*
X145323302Y-111822400D01*
G75*
G02*
X145340600Y-111839698I0J-17298D01*
G01*
G37*
G36*
G01*
X140038600Y-117681698D02*
X140038600Y-119300302D01*
G75*
G02*
X140021302Y-119317600I-17298J0D01*
G01*
X138902698Y-119317600D01*
G75*
G02*
X138885400Y-119300302I0J17298D01*
G01*
X138885400Y-117681698D01*
G75*
G02*
X138902698Y-117664400I17298J0D01*
G01*
X140021302Y-117664400D01*
G75*
G02*
X140038600Y-117681698I0J-17298D01*
G01*
G37*
G36*
G01*
X142038600Y-117681698D02*
X142038600Y-119300302D01*
G75*
G02*
X142021302Y-119317600I-17298J0D01*
G01*
X140902698Y-119317600D01*
G75*
G02*
X140885400Y-119300302I0J17298D01*
G01*
X140885400Y-117681698D01*
G75*
G02*
X140902698Y-117664400I17298J0D01*
G01*
X142021302Y-117664400D01*
G75*
G02*
X142038600Y-117681698I0J-17298D01*
G01*
G37*
G36*
G01*
X130182400Y-79554052D02*
X130182400Y-78433948D01*
G75*
G02*
X130198948Y-78417400I16548J0D01*
G01*
X131269052Y-78417400D01*
G75*
G02*
X131285600Y-78433948I0J-16548D01*
G01*
X131285600Y-79554052D01*
G75*
G02*
X131269052Y-79570600I-16548J0D01*
G01*
X130198948Y-79570600D01*
G75*
G02*
X130182400Y-79554052I0J16548D01*
G01*
G37*
G36*
G01*
X131782400Y-79554052D02*
X131782400Y-78433948D01*
G75*
G02*
X131798948Y-78417400I16548J0D01*
G01*
X132869052Y-78417400D01*
G75*
G02*
X132885600Y-78433948I0J-16548D01*
G01*
X132885600Y-79554052D01*
G75*
G02*
X132869052Y-79570600I-16548J0D01*
G01*
X131798948Y-79570600D01*
G75*
G02*
X131782400Y-79554052I0J16548D01*
G01*
G37*
G36*
G01*
X162033748Y-97309400D02*
X162832252Y-97309400D01*
G75*
G02*
X162844600Y-97321748I0J-12348D01*
G01*
X162844600Y-98120252D01*
G75*
G02*
X162832252Y-98132600I-12348J0D01*
G01*
X162033748Y-98132600D01*
G75*
G02*
X162021400Y-98120252I0J12348D01*
G01*
X162021400Y-97321748D01*
G75*
G02*
X162033748Y-97309400I12348J0D01*
G01*
G37*
G36*
G01*
X162033748Y-98209400D02*
X162832252Y-98209400D01*
G75*
G02*
X162844600Y-98221748I0J-12348D01*
G01*
X162844600Y-99020252D01*
G75*
G02*
X162832252Y-99032600I-12348J0D01*
G01*
X162033748Y-99032600D01*
G75*
G02*
X162021400Y-99020252I0J12348D01*
G01*
X162021400Y-98221748D01*
G75*
G02*
X162033748Y-98209400I12348J0D01*
G01*
G37*
G36*
G01*
X160430000Y-104836800D02*
X157830000Y-104836800D01*
G75*
G02*
X157779200Y-104786000I0J50800D01*
G01*
X157779200Y-102986000D01*
G75*
G02*
X157830000Y-102935200I50800J0D01*
G01*
X160430000Y-102935200D01*
G75*
G02*
X160480800Y-102986000I0J-50800D01*
G01*
X160480800Y-104786000D01*
G75*
G02*
X160430000Y-104836800I-50800J0D01*
G01*
G37*
G36*
G01*
X157130000Y-104836800D02*
X154530000Y-104836800D01*
G75*
G02*
X154479200Y-104786000I0J50800D01*
G01*
X154479200Y-102986000D01*
G75*
G02*
X154530000Y-102935200I50800J0D01*
G01*
X157130000Y-102935200D01*
G75*
G02*
X157180800Y-102986000I0J-50800D01*
G01*
X157180800Y-104786000D01*
G75*
G02*
X157130000Y-104836800I-50800J0D01*
G01*
G37*
G36*
G01*
X155036400Y-82949252D02*
X155036400Y-82150748D01*
G75*
G02*
X155048748Y-82138400I12348J0D01*
G01*
X155847252Y-82138400D01*
G75*
G02*
X155859600Y-82150748I0J-12348D01*
G01*
X155859600Y-82949252D01*
G75*
G02*
X155847252Y-82961600I-12348J0D01*
G01*
X155048748Y-82961600D01*
G75*
G02*
X155036400Y-82949252I0J12348D01*
G01*
G37*
G36*
G01*
X155936400Y-82949252D02*
X155936400Y-82150748D01*
G75*
G02*
X155948748Y-82138400I12348J0D01*
G01*
X156747252Y-82138400D01*
G75*
G02*
X156759600Y-82150748I0J-12348D01*
G01*
X156759600Y-82949252D01*
G75*
G02*
X156747252Y-82961600I-12348J0D01*
G01*
X155948748Y-82961600D01*
G75*
G02*
X155936400Y-82949252I0J12348D01*
G01*
G37*
G36*
G01*
X169066000Y-77150800D02*
X166466000Y-77150800D01*
G75*
G02*
X166415200Y-77100000I0J50800D01*
G01*
X166415200Y-75300000D01*
G75*
G02*
X166466000Y-75249200I50800J0D01*
G01*
X169066000Y-75249200D01*
G75*
G02*
X169116800Y-75300000I0J-50800D01*
G01*
X169116800Y-77100000D01*
G75*
G02*
X169066000Y-77150800I-50800J0D01*
G01*
G37*
G36*
G01*
X165766000Y-77150800D02*
X163166000Y-77150800D01*
G75*
G02*
X163115200Y-77100000I0J50800D01*
G01*
X163115200Y-75300000D01*
G75*
G02*
X163166000Y-75249200I50800J0D01*
G01*
X165766000Y-75249200D01*
G75*
G02*
X165816800Y-75300000I0J-50800D01*
G01*
X165816800Y-77100000D01*
G75*
G02*
X165766000Y-77150800I-50800J0D01*
G01*
G37*
G36*
G01*
X133235060Y-100944800D02*
X132448940Y-100944800D01*
G75*
G02*
X132291200Y-100787060I0J157740D01*
G01*
X132291200Y-100050940D01*
G75*
G02*
X132448940Y-99893200I157740J0D01*
G01*
X133235060Y-99893200D01*
G75*
G02*
X133392800Y-100050940I0J-157740D01*
G01*
X133392800Y-100787060D01*
G75*
G02*
X133235060Y-100944800I-157740J0D01*
G01*
G37*
G36*
G01*
X133235060Y-102544800D02*
X132448940Y-102544800D01*
G75*
G02*
X132291200Y-102387060I0J157740D01*
G01*
X132291200Y-101650940D01*
G75*
G02*
X132448940Y-101493200I157740J0D01*
G01*
X133235060Y-101493200D01*
G75*
G02*
X133392800Y-101650940I0J-157740D01*
G01*
X133392800Y-102387060D01*
G75*
G02*
X133235060Y-102544800I-157740J0D01*
G01*
G37*
G36*
G01*
X140855060Y-101579800D02*
X140068940Y-101579800D01*
G75*
G02*
X139911200Y-101422060I0J157740D01*
G01*
X139911200Y-100685940D01*
G75*
G02*
X140068940Y-100528200I157740J0D01*
G01*
X140855060Y-100528200D01*
G75*
G02*
X141012800Y-100685940I0J-157740D01*
G01*
X141012800Y-101422060D01*
G75*
G02*
X140855060Y-101579800I-157740J0D01*
G01*
G37*
G36*
G01*
X140855060Y-103179800D02*
X140068940Y-103179800D01*
G75*
G02*
X139911200Y-103022060I0J157740D01*
G01*
X139911200Y-102285940D01*
G75*
G02*
X140068940Y-102128200I157740J0D01*
G01*
X140855060Y-102128200D01*
G75*
G02*
X141012800Y-102285940I0J-157740D01*
G01*
X141012800Y-103022060D01*
G75*
G02*
X140855060Y-103179800I-157740J0D01*
G01*
G37*
G36*
G01*
X146029800Y-99809940D02*
X146029800Y-100596060D01*
G75*
G02*
X145872060Y-100753800I-157740J0D01*
G01*
X145135940Y-100753800D01*
G75*
G02*
X144978200Y-100596060I0J157740D01*
G01*
X144978200Y-99809940D01*
G75*
G02*
X145135940Y-99652200I157740J0D01*
G01*
X145872060Y-99652200D01*
G75*
G02*
X146029800Y-99809940I0J-157740D01*
G01*
G37*
G36*
G01*
X147629800Y-99809940D02*
X147629800Y-100596060D01*
G75*
G02*
X147472060Y-100753800I-157740J0D01*
G01*
X146735940Y-100753800D01*
G75*
G02*
X146578200Y-100596060I0J157740D01*
G01*
X146578200Y-99809940D01*
G75*
G02*
X146735940Y-99652200I157740J0D01*
G01*
X147472060Y-99652200D01*
G75*
G02*
X147629800Y-99809940I0J-157740D01*
G01*
G37*
G36*
G01*
X166857800Y-101206940D02*
X166857800Y-101993060D01*
G75*
G02*
X166700060Y-102150800I-157740J0D01*
G01*
X165963940Y-102150800D01*
G75*
G02*
X165806200Y-101993060I0J157740D01*
G01*
X165806200Y-101206940D01*
G75*
G02*
X165963940Y-101049200I157740J0D01*
G01*
X166700060Y-101049200D01*
G75*
G02*
X166857800Y-101206940I0J-157740D01*
G01*
G37*
G36*
G01*
X168457800Y-101206940D02*
X168457800Y-101993060D01*
G75*
G02*
X168300060Y-102150800I-157740J0D01*
G01*
X167563940Y-102150800D01*
G75*
G02*
X167406200Y-101993060I0J157740D01*
G01*
X167406200Y-101206940D01*
G75*
G02*
X167563940Y-101049200I157740J0D01*
G01*
X168300060Y-101049200D01*
G75*
G02*
X168457800Y-101206940I0J-157740D01*
G01*
G37*
G36*
G01*
X166857800Y-103746940D02*
X166857800Y-104533060D01*
G75*
G02*
X166700060Y-104690800I-157740J0D01*
G01*
X165963940Y-104690800D01*
G75*
G02*
X165806200Y-104533060I0J157740D01*
G01*
X165806200Y-103746940D01*
G75*
G02*
X165963940Y-103589200I157740J0D01*
G01*
X166700060Y-103589200D01*
G75*
G02*
X166857800Y-103746940I0J-157740D01*
G01*
G37*
G36*
G01*
X168457800Y-103746940D02*
X168457800Y-104533060D01*
G75*
G02*
X168300060Y-104690800I-157740J0D01*
G01*
X167563940Y-104690800D01*
G75*
G02*
X167406200Y-104533060I0J157740D01*
G01*
X167406200Y-103746940D01*
G75*
G02*
X167563940Y-103589200I157740J0D01*
G01*
X168300060Y-103589200D01*
G75*
G02*
X168457800Y-103746940I0J-157740D01*
G01*
G37*
G36*
G01*
X145267800Y-101714940D02*
X145267800Y-102501060D01*
G75*
G02*
X145110060Y-102658800I-157740J0D01*
G01*
X144373940Y-102658800D01*
G75*
G02*
X144216200Y-102501060I0J157740D01*
G01*
X144216200Y-101714940D01*
G75*
G02*
X144373940Y-101557200I157740J0D01*
G01*
X145110060Y-101557200D01*
G75*
G02*
X145267800Y-101714940I0J-157740D01*
G01*
G37*
G36*
G01*
X146867800Y-101714940D02*
X146867800Y-102501060D01*
G75*
G02*
X146710060Y-102658800I-157740J0D01*
G01*
X145973940Y-102658800D01*
G75*
G02*
X145816200Y-102501060I0J157740D01*
G01*
X145816200Y-101714940D01*
G75*
G02*
X145973940Y-101557200I157740J0D01*
G01*
X146710060Y-101557200D01*
G75*
G02*
X146867800Y-101714940I0J-157740D01*
G01*
G37*
G36*
G01*
X143489800Y-107048940D02*
X143489800Y-107835060D01*
G75*
G02*
X143332060Y-107992800I-157740J0D01*
G01*
X142595940Y-107992800D01*
G75*
G02*
X142438200Y-107835060I0J157740D01*
G01*
X142438200Y-107048940D01*
G75*
G02*
X142595940Y-106891200I157740J0D01*
G01*
X143332060Y-106891200D01*
G75*
G02*
X143489800Y-107048940I0J-157740D01*
G01*
G37*
G36*
G01*
X145089800Y-107048940D02*
X145089800Y-107835060D01*
G75*
G02*
X144932060Y-107992800I-157740J0D01*
G01*
X144195940Y-107992800D01*
G75*
G02*
X144038200Y-107835060I0J157740D01*
G01*
X144038200Y-107048940D01*
G75*
G02*
X144195940Y-106891200I157740J0D01*
G01*
X144932060Y-106891200D01*
G75*
G02*
X145089800Y-107048940I0J-157740D01*
G01*
G37*
G36*
G01*
X132448940Y-105303200D02*
X133235060Y-105303200D01*
G75*
G02*
X133392800Y-105460940I0J-157740D01*
G01*
X133392800Y-106197060D01*
G75*
G02*
X133235060Y-106354800I-157740J0D01*
G01*
X132448940Y-106354800D01*
G75*
G02*
X132291200Y-106197060I0J157740D01*
G01*
X132291200Y-105460940D01*
G75*
G02*
X132448940Y-105303200I157740J0D01*
G01*
G37*
G36*
G01*
X132448940Y-103703200D02*
X133235060Y-103703200D01*
G75*
G02*
X133392800Y-103860940I0J-157740D01*
G01*
X133392800Y-104597060D01*
G75*
G02*
X133235060Y-104754800I-157740J0D01*
G01*
X132448940Y-104754800D01*
G75*
G02*
X132291200Y-104597060I0J157740D01*
G01*
X132291200Y-103860940D01*
G75*
G02*
X132448940Y-103703200I157740J0D01*
G01*
G37*
G36*
G01*
X143489800Y-105016940D02*
X143489800Y-105803060D01*
G75*
G02*
X143332060Y-105960800I-157740J0D01*
G01*
X142595940Y-105960800D01*
G75*
G02*
X142438200Y-105803060I0J157740D01*
G01*
X142438200Y-105016940D01*
G75*
G02*
X142595940Y-104859200I157740J0D01*
G01*
X143332060Y-104859200D01*
G75*
G02*
X143489800Y-105016940I0J-157740D01*
G01*
G37*
G36*
G01*
X145089800Y-105016940D02*
X145089800Y-105803060D01*
G75*
G02*
X144932060Y-105960800I-157740J0D01*
G01*
X144195940Y-105960800D01*
G75*
G02*
X144038200Y-105803060I0J157740D01*
G01*
X144038200Y-105016940D01*
G75*
G02*
X144195940Y-104859200I157740J0D01*
G01*
X144932060Y-104859200D01*
G75*
G02*
X145089800Y-105016940I0J-157740D01*
G01*
G37*
G36*
G01*
X147973252Y-108673600D02*
X147174748Y-108673600D01*
G75*
G02*
X147162400Y-108661252I0J12348D01*
G01*
X147162400Y-107862748D01*
G75*
G02*
X147174748Y-107850400I12348J0D01*
G01*
X147973252Y-107850400D01*
G75*
G02*
X147985600Y-107862748I0J-12348D01*
G01*
X147985600Y-108661252D01*
G75*
G02*
X147973252Y-108673600I-12348J0D01*
G01*
G37*
G36*
G01*
X147973252Y-109573600D02*
X147174748Y-109573600D01*
G75*
G02*
X147162400Y-109561252I0J12348D01*
G01*
X147162400Y-108762748D01*
G75*
G02*
X147174748Y-108750400I12348J0D01*
G01*
X147973252Y-108750400D01*
G75*
G02*
X147985600Y-108762748I0J-12348D01*
G01*
X147985600Y-109561252D01*
G75*
G02*
X147973252Y-109573600I-12348J0D01*
G01*
G37*
G36*
G01*
X147973252Y-113441600D02*
X147174748Y-113441600D01*
G75*
G02*
X147162400Y-113429252I0J12348D01*
G01*
X147162400Y-112630748D01*
G75*
G02*
X147174748Y-112618400I12348J0D01*
G01*
X147973252Y-112618400D01*
G75*
G02*
X147985600Y-112630748I0J-12348D01*
G01*
X147985600Y-113429252D01*
G75*
G02*
X147973252Y-113441600I-12348J0D01*
G01*
G37*
G36*
G01*
X147973252Y-114341600D02*
X147174748Y-114341600D01*
G75*
G02*
X147162400Y-114329252I0J12348D01*
G01*
X147162400Y-113530748D01*
G75*
G02*
X147174748Y-113518400I12348J0D01*
G01*
X147973252Y-113518400D01*
G75*
G02*
X147985600Y-113530748I0J-12348D01*
G01*
X147985600Y-114329252D01*
G75*
G02*
X147973252Y-114341600I-12348J0D01*
G01*
G37*
G36*
G01*
X143903060Y-121518800D02*
X143116940Y-121518800D01*
G75*
G02*
X142959200Y-121361060I0J157740D01*
G01*
X142959200Y-120624940D01*
G75*
G02*
X143116940Y-120467200I157740J0D01*
G01*
X143903060Y-120467200D01*
G75*
G02*
X144060800Y-120624940I0J-157740D01*
G01*
X144060800Y-121361060D01*
G75*
G02*
X143903060Y-121518800I-157740J0D01*
G01*
G37*
G36*
G01*
X143903060Y-123118800D02*
X143116940Y-123118800D01*
G75*
G02*
X142959200Y-122961060I0J157740D01*
G01*
X142959200Y-122224940D01*
G75*
G02*
X143116940Y-122067200I157740J0D01*
G01*
X143903060Y-122067200D01*
G75*
G02*
X144060800Y-122224940I0J-157740D01*
G01*
X144060800Y-122961060D01*
G75*
G02*
X143903060Y-123118800I-157740J0D01*
G01*
G37*
G36*
G01*
X134988940Y-117368200D02*
X135775060Y-117368200D01*
G75*
G02*
X135932800Y-117525940I0J-157740D01*
G01*
X135932800Y-118262060D01*
G75*
G02*
X135775060Y-118419800I-157740J0D01*
G01*
X134988940Y-118419800D01*
G75*
G02*
X134831200Y-118262060I0J157740D01*
G01*
X134831200Y-117525940D01*
G75*
G02*
X134988940Y-117368200I157740J0D01*
G01*
G37*
G36*
G01*
X134988940Y-115768200D02*
X135775060Y-115768200D01*
G75*
G02*
X135932800Y-115925940I0J-157740D01*
G01*
X135932800Y-116662060D01*
G75*
G02*
X135775060Y-116819800I-157740J0D01*
G01*
X134988940Y-116819800D01*
G75*
G02*
X134831200Y-116662060I0J157740D01*
G01*
X134831200Y-115925940D01*
G75*
G02*
X134988940Y-115768200I157740J0D01*
G01*
G37*
G36*
G01*
X141998060Y-121518800D02*
X141211940Y-121518800D01*
G75*
G02*
X141054200Y-121361060I0J157740D01*
G01*
X141054200Y-120624940D01*
G75*
G02*
X141211940Y-120467200I157740J0D01*
G01*
X141998060Y-120467200D01*
G75*
G02*
X142155800Y-120624940I0J-157740D01*
G01*
X142155800Y-121361060D01*
G75*
G02*
X141998060Y-121518800I-157740J0D01*
G01*
G37*
G36*
G01*
X141998060Y-123118800D02*
X141211940Y-123118800D01*
G75*
G02*
X141054200Y-122961060I0J157740D01*
G01*
X141054200Y-122224940D01*
G75*
G02*
X141211940Y-122067200I157740J0D01*
G01*
X141998060Y-122067200D01*
G75*
G02*
X142155800Y-122224940I0J-157740D01*
G01*
X142155800Y-122961060D01*
G75*
G02*
X141998060Y-123118800I-157740J0D01*
G01*
G37*
G36*
G01*
X139839060Y-121518800D02*
X139052940Y-121518800D01*
G75*
G02*
X138895200Y-121361060I0J157740D01*
G01*
X138895200Y-120624940D01*
G75*
G02*
X139052940Y-120467200I157740J0D01*
G01*
X139839060Y-120467200D01*
G75*
G02*
X139996800Y-120624940I0J-157740D01*
G01*
X139996800Y-121361060D01*
G75*
G02*
X139839060Y-121518800I-157740J0D01*
G01*
G37*
G36*
G01*
X139839060Y-123118800D02*
X139052940Y-123118800D01*
G75*
G02*
X138895200Y-122961060I0J157740D01*
G01*
X138895200Y-122224940D01*
G75*
G02*
X139052940Y-122067200I157740J0D01*
G01*
X139839060Y-122067200D01*
G75*
G02*
X139996800Y-122224940I0J-157740D01*
G01*
X139996800Y-122961060D01*
G75*
G02*
X139839060Y-123118800I-157740J0D01*
G01*
G37*
G36*
G01*
X140060800Y-115684940D02*
X140060800Y-116471060D01*
G75*
G02*
X139903060Y-116628800I-157740J0D01*
G01*
X139166940Y-116628800D01*
G75*
G02*
X139009200Y-116471060I0J157740D01*
G01*
X139009200Y-115684940D01*
G75*
G02*
X139166940Y-115527200I157740J0D01*
G01*
X139903060Y-115527200D01*
G75*
G02*
X140060800Y-115684940I0J-157740D01*
G01*
G37*
G36*
G01*
X141660800Y-115684940D02*
X141660800Y-116471060D01*
G75*
G02*
X141503060Y-116628800I-157740J0D01*
G01*
X140766940Y-116628800D01*
G75*
G02*
X140609200Y-116471060I0J157740D01*
G01*
X140609200Y-115684940D01*
G75*
G02*
X140766940Y-115527200I157740J0D01*
G01*
X141503060Y-115527200D01*
G75*
G02*
X141660800Y-115684940I0J-157740D01*
G01*
G37*
G36*
G01*
X137020940Y-122067200D02*
X137807060Y-122067200D01*
G75*
G02*
X137964800Y-122224940I0J-157740D01*
G01*
X137964800Y-122961060D01*
G75*
G02*
X137807060Y-123118800I-157740J0D01*
G01*
X137020940Y-123118800D01*
G75*
G02*
X136863200Y-122961060I0J157740D01*
G01*
X136863200Y-122224940D01*
G75*
G02*
X137020940Y-122067200I157740J0D01*
G01*
G37*
G36*
G01*
X137020940Y-120467200D02*
X137807060Y-120467200D01*
G75*
G02*
X137964800Y-120624940I0J-157740D01*
G01*
X137964800Y-121361060D01*
G75*
G02*
X137807060Y-121518800I-157740J0D01*
G01*
X137020940Y-121518800D01*
G75*
G02*
X136863200Y-121361060I0J157740D01*
G01*
X136863200Y-120624940D01*
G75*
G02*
X137020940Y-120467200I157740J0D01*
G01*
G37*
G36*
G01*
X151345600Y-82150748D02*
X151345600Y-82949252D01*
G75*
G02*
X151333252Y-82961600I-12348J0D01*
G01*
X150534748Y-82961600D01*
G75*
G02*
X150522400Y-82949252I0J12348D01*
G01*
X150522400Y-82150748D01*
G75*
G02*
X150534748Y-82138400I12348J0D01*
G01*
X151333252Y-82138400D01*
G75*
G02*
X151345600Y-82150748I0J-12348D01*
G01*
G37*
G36*
G01*
X152245600Y-82150748D02*
X152245600Y-82949252D01*
G75*
G02*
X152233252Y-82961600I-12348J0D01*
G01*
X151434748Y-82961600D01*
G75*
G02*
X151422400Y-82949252I0J12348D01*
G01*
X151422400Y-82150748D01*
G75*
G02*
X151434748Y-82138400I12348J0D01*
G01*
X152233252Y-82138400D01*
G75*
G02*
X152245600Y-82150748I0J-12348D01*
G01*
G37*
D16*
X163275200Y-105841800D03*
X163275200Y-116001800D03*
G36*
G01*
X148575200Y-99981000D02*
X152575200Y-99981000D01*
G75*
G02*
X152626000Y-100031800I0J-50800D01*
G01*
X152626000Y-104031800D01*
G75*
G02*
X152575200Y-104082600I-50800J0D01*
G01*
X148575200Y-104082600D01*
G75*
G02*
X148524400Y-104031800I0J50800D01*
G01*
X148524400Y-100031800D01*
G75*
G02*
X148575200Y-99981000I50800J0D01*
G01*
G37*
D17*
X148035200Y-119811800D03*
G36*
G01*
X158037800Y-98503740D02*
X158037800Y-99616260D01*
G75*
G02*
X157908260Y-99745800I-129540J0D01*
G01*
X157303740Y-99745800D01*
G75*
G02*
X157174200Y-99616260I0J129540D01*
G01*
X157174200Y-98503740D01*
G75*
G02*
X157303740Y-98374200I129540J0D01*
G01*
X157908260Y-98374200D01*
G75*
G02*
X158037800Y-98503740I0J-129540D01*
G01*
G37*
G36*
G01*
X156244060Y-100380800D02*
X154267940Y-100380800D01*
G75*
G02*
X153871700Y-99984560I0J396240D01*
G01*
X153871700Y-98135440D01*
G75*
G02*
X154267940Y-97739200I396240J0D01*
G01*
X156244060Y-97739200D01*
G75*
G02*
X156640300Y-98135440I0J-396240D01*
G01*
X156640300Y-99984560D01*
G75*
G02*
X156244060Y-100380800I-396240J0D01*
G01*
G37*
G36*
G01*
X146225000Y-90294200D02*
X152225000Y-90294200D01*
G75*
G02*
X152275800Y-90345000I0J-50800D01*
G01*
X152275800Y-96345000D01*
G75*
G02*
X152225000Y-96395800I-50800J0D01*
G01*
X146225000Y-96395800D01*
G75*
G02*
X146174200Y-96345000I0J50800D01*
G01*
X146174200Y-90345000D01*
G75*
G02*
X146225000Y-90294200I50800J0D01*
G01*
G37*
G36*
G01*
X152956000Y-90294200D02*
X158956000Y-90294200D01*
G75*
G02*
X159006800Y-90345000I0J-50800D01*
G01*
X159006800Y-96345000D01*
G75*
G02*
X158956000Y-96395800I-50800J0D01*
G01*
X152956000Y-96395800D01*
G75*
G02*
X152905200Y-96345000I0J50800D01*
G01*
X152905200Y-90345000D01*
G75*
G02*
X152956000Y-90294200I50800J0D01*
G01*
G37*
G36*
G01*
X162475800Y-90551000D02*
X162475800Y-90551000D01*
G75*
G02*
X161925000Y-91101800I-550800J0D01*
G01*
X161925000Y-91101800D01*
G75*
G02*
X161374200Y-90551000I0J550800D01*
G01*
X161374200Y-90551000D01*
G75*
G02*
X161925000Y-90000200I550800J0D01*
G01*
X161925000Y-90000200D01*
G75*
G02*
X162475800Y-90551000I0J-550800D01*
G01*
G37*
G36*
G01*
X164507800Y-90551000D02*
X164507800Y-90551000D01*
G75*
G02*
X163957000Y-91101800I-550800J0D01*
G01*
X163957000Y-91101800D01*
G75*
G02*
X163406200Y-90551000I0J550800D01*
G01*
X163406200Y-90551000D01*
G75*
G02*
X163957000Y-90000200I550800J0D01*
G01*
X163957000Y-90000200D01*
G75*
G02*
X164507800Y-90551000I0J-550800D01*
G01*
G37*
G36*
G01*
X173458800Y-77733883D02*
X173458800Y-78302117D01*
G75*
G02*
X173367117Y-78393800I-91683J0D01*
G01*
X172948883Y-78393800D01*
G75*
G02*
X172857200Y-78302117I0J91683D01*
G01*
X172857200Y-77733883D01*
G75*
G02*
X172948883Y-77642200I91683J0D01*
G01*
X173367117Y-77642200D01*
G75*
G02*
X173458800Y-77733883I0J-91683D01*
G01*
G37*
G36*
G01*
X172658800Y-77733883D02*
X172658800Y-78302117D01*
G75*
G02*
X172567117Y-78393800I-91683J0D01*
G01*
X172148883Y-78393800D01*
G75*
G02*
X172057200Y-78302117I0J91683D01*
G01*
X172057200Y-77733883D01*
G75*
G02*
X172148883Y-77642200I91683J0D01*
G01*
X172567117Y-77642200D01*
G75*
G02*
X172658800Y-77733883I0J-91683D01*
G01*
G37*
G36*
G01*
X171858800Y-77733883D02*
X171858800Y-78302117D01*
G75*
G02*
X171767117Y-78393800I-91683J0D01*
G01*
X171348883Y-78393800D01*
G75*
G02*
X171257200Y-78302117I0J91683D01*
G01*
X171257200Y-77733883D01*
G75*
G02*
X171348883Y-77642200I91683J0D01*
G01*
X171767117Y-77642200D01*
G75*
G02*
X171858800Y-77733883I0J-91683D01*
G01*
G37*
G36*
G01*
X171058800Y-77733883D02*
X171058800Y-78302117D01*
G75*
G02*
X170967117Y-78393800I-91683J0D01*
G01*
X170548883Y-78393800D01*
G75*
G02*
X170457200Y-78302117I0J91683D01*
G01*
X170457200Y-77733883D01*
G75*
G02*
X170548883Y-77642200I91683J0D01*
G01*
X170967117Y-77642200D01*
G75*
G02*
X171058800Y-77733883I0J-91683D01*
G01*
G37*
G36*
G01*
X171058800Y-76383883D02*
X171058800Y-76952117D01*
G75*
G02*
X170967117Y-77043800I-91683J0D01*
G01*
X170548883Y-77043800D01*
G75*
G02*
X170457200Y-76952117I0J91683D01*
G01*
X170457200Y-76383883D01*
G75*
G02*
X170548883Y-76292200I91683J0D01*
G01*
X170967117Y-76292200D01*
G75*
G02*
X171058800Y-76383883I0J-91683D01*
G01*
G37*
G36*
G01*
X171858800Y-76383883D02*
X171858800Y-76952117D01*
G75*
G02*
X171767117Y-77043800I-91683J0D01*
G01*
X171348883Y-77043800D01*
G75*
G02*
X171257200Y-76952117I0J91683D01*
G01*
X171257200Y-76383883D01*
G75*
G02*
X171348883Y-76292200I91683J0D01*
G01*
X171767117Y-76292200D01*
G75*
G02*
X171858800Y-76383883I0J-91683D01*
G01*
G37*
G36*
G01*
X172658800Y-76383883D02*
X172658800Y-76952117D01*
G75*
G02*
X172567117Y-77043800I-91683J0D01*
G01*
X172148883Y-77043800D01*
G75*
G02*
X172057200Y-76952117I0J91683D01*
G01*
X172057200Y-76383883D01*
G75*
G02*
X172148883Y-76292200I91683J0D01*
G01*
X172567117Y-76292200D01*
G75*
G02*
X172658800Y-76383883I0J-91683D01*
G01*
G37*
G36*
G01*
X173458800Y-76383883D02*
X173458800Y-76952117D01*
G75*
G02*
X173367117Y-77043800I-91683J0D01*
G01*
X172948883Y-77043800D01*
G75*
G02*
X172857200Y-76952117I0J91683D01*
G01*
X172857200Y-76383883D01*
G75*
G02*
X172948883Y-76292200I91683J0D01*
G01*
X173367117Y-76292200D01*
G75*
G02*
X173458800Y-76383883I0J-91683D01*
G01*
G37*
G36*
G01*
X168247000Y-108534200D02*
X170397000Y-108534200D01*
G75*
G02*
X170447800Y-108585000I0J-50800D01*
G01*
X170447800Y-109885000D01*
G75*
G02*
X170397000Y-109935800I-50800J0D01*
G01*
X168247000Y-109935800D01*
G75*
G02*
X168196200Y-109885000I0J50800D01*
G01*
X168196200Y-108585000D01*
G75*
G02*
X168247000Y-108534200I50800J0D01*
G01*
G37*
G36*
G01*
X168247000Y-113584200D02*
X170397000Y-113584200D01*
G75*
G02*
X170447800Y-113635000I0J-50800D01*
G01*
X170447800Y-114935000D01*
G75*
G02*
X170397000Y-114985800I-50800J0D01*
G01*
X168247000Y-114985800D01*
G75*
G02*
X168196200Y-114935000I0J50800D01*
G01*
X168196200Y-113635000D01*
G75*
G02*
X168247000Y-113584200I50800J0D01*
G01*
G37*
G36*
G01*
X166427000Y-110684200D02*
X167627000Y-110684200D01*
G75*
G02*
X167677800Y-110735000I0J-50800D01*
G01*
X167677800Y-111535000D01*
G75*
G02*
X167627000Y-111585800I-50800J0D01*
G01*
X166427000Y-111585800D01*
G75*
G02*
X166376200Y-111535000I0J50800D01*
G01*
X166376200Y-110735000D01*
G75*
G02*
X166427000Y-110684200I50800J0D01*
G01*
G37*
G36*
G01*
X166427000Y-111934200D02*
X167627000Y-111934200D01*
G75*
G02*
X167677800Y-111985000I0J-50800D01*
G01*
X167677800Y-112785000D01*
G75*
G02*
X167627000Y-112835800I-50800J0D01*
G01*
X166427000Y-112835800D01*
G75*
G02*
X166376200Y-112785000I0J50800D01*
G01*
X166376200Y-111985000D01*
G75*
G02*
X166427000Y-111934200I50800J0D01*
G01*
G37*
G36*
G01*
X172648800Y-87180000D02*
X172648800Y-88930000D01*
G75*
G02*
X172598000Y-88980800I-50800J0D01*
G01*
X172148000Y-88980800D01*
G75*
G02*
X172097200Y-88930000I0J50800D01*
G01*
X172097200Y-87180000D01*
G75*
G02*
X172148000Y-87129200I50800J0D01*
G01*
X172598000Y-87129200D01*
G75*
G02*
X172648800Y-87180000I0J-50800D01*
G01*
G37*
G36*
G01*
X171998800Y-87180000D02*
X171998800Y-88930000D01*
G75*
G02*
X171948000Y-88980800I-50800J0D01*
G01*
X171498000Y-88980800D01*
G75*
G02*
X171447200Y-88930000I0J50800D01*
G01*
X171447200Y-87180000D01*
G75*
G02*
X171498000Y-87129200I50800J0D01*
G01*
X171948000Y-87129200D01*
G75*
G02*
X171998800Y-87180000I0J-50800D01*
G01*
G37*
G36*
G01*
X171348800Y-87180000D02*
X171348800Y-88930000D01*
G75*
G02*
X171298000Y-88980800I-50800J0D01*
G01*
X170848000Y-88980800D01*
G75*
G02*
X170797200Y-88930000I0J50800D01*
G01*
X170797200Y-87180000D01*
G75*
G02*
X170848000Y-87129200I50800J0D01*
G01*
X171298000Y-87129200D01*
G75*
G02*
X171348800Y-87180000I0J-50800D01*
G01*
G37*
G36*
G01*
X170698800Y-87180000D02*
X170698800Y-88930000D01*
G75*
G02*
X170648000Y-88980800I-50800J0D01*
G01*
X170198000Y-88980800D01*
G75*
G02*
X170147200Y-88930000I0J50800D01*
G01*
X170147200Y-87180000D01*
G75*
G02*
X170198000Y-87129200I50800J0D01*
G01*
X170648000Y-87129200D01*
G75*
G02*
X170698800Y-87180000I0J-50800D01*
G01*
G37*
G36*
G01*
X170048800Y-87180000D02*
X170048800Y-88930000D01*
G75*
G02*
X169998000Y-88980800I-50800J0D01*
G01*
X169548000Y-88980800D01*
G75*
G02*
X169497200Y-88930000I0J50800D01*
G01*
X169497200Y-87180000D01*
G75*
G02*
X169548000Y-87129200I50800J0D01*
G01*
X169998000Y-87129200D01*
G75*
G02*
X170048800Y-87180000I0J-50800D01*
G01*
G37*
G36*
G01*
X169398800Y-87180000D02*
X169398800Y-88930000D01*
G75*
G02*
X169348000Y-88980800I-50800J0D01*
G01*
X168898000Y-88980800D01*
G75*
G02*
X168847200Y-88930000I0J50800D01*
G01*
X168847200Y-87180000D01*
G75*
G02*
X168898000Y-87129200I50800J0D01*
G01*
X169348000Y-87129200D01*
G75*
G02*
X169398800Y-87180000I0J-50800D01*
G01*
G37*
G36*
G01*
X168748800Y-87180000D02*
X168748800Y-88930000D01*
G75*
G02*
X168698000Y-88980800I-50800J0D01*
G01*
X168248000Y-88980800D01*
G75*
G02*
X168197200Y-88930000I0J50800D01*
G01*
X168197200Y-87180000D01*
G75*
G02*
X168248000Y-87129200I50800J0D01*
G01*
X168698000Y-87129200D01*
G75*
G02*
X168748800Y-87180000I0J-50800D01*
G01*
G37*
G36*
G01*
X168098800Y-87180000D02*
X168098800Y-88930000D01*
G75*
G02*
X168048000Y-88980800I-50800J0D01*
G01*
X167598000Y-88980800D01*
G75*
G02*
X167547200Y-88930000I0J50800D01*
G01*
X167547200Y-87180000D01*
G75*
G02*
X167598000Y-87129200I50800J0D01*
G01*
X168048000Y-87129200D01*
G75*
G02*
X168098800Y-87180000I0J-50800D01*
G01*
G37*
G36*
G01*
X167448800Y-87180000D02*
X167448800Y-88930000D01*
G75*
G02*
X167398000Y-88980800I-50800J0D01*
G01*
X166948000Y-88980800D01*
G75*
G02*
X166897200Y-88930000I0J50800D01*
G01*
X166897200Y-87180000D01*
G75*
G02*
X166948000Y-87129200I50800J0D01*
G01*
X167398000Y-87129200D01*
G75*
G02*
X167448800Y-87180000I0J-50800D01*
G01*
G37*
G36*
G01*
X166798800Y-87180000D02*
X166798800Y-88930000D01*
G75*
G02*
X166748000Y-88980800I-50800J0D01*
G01*
X166298000Y-88980800D01*
G75*
G02*
X166247200Y-88930000I0J50800D01*
G01*
X166247200Y-87180000D01*
G75*
G02*
X166298000Y-87129200I50800J0D01*
G01*
X166748000Y-87129200D01*
G75*
G02*
X166798800Y-87180000I0J-50800D01*
G01*
G37*
G36*
G01*
X166148800Y-87180000D02*
X166148800Y-88930000D01*
G75*
G02*
X166098000Y-88980800I-50800J0D01*
G01*
X165648000Y-88980800D01*
G75*
G02*
X165597200Y-88930000I0J50800D01*
G01*
X165597200Y-87180000D01*
G75*
G02*
X165648000Y-87129200I50800J0D01*
G01*
X166098000Y-87129200D01*
G75*
G02*
X166148800Y-87180000I0J-50800D01*
G01*
G37*
G36*
G01*
X165498800Y-87180000D02*
X165498800Y-88930000D01*
G75*
G02*
X165448000Y-88980800I-50800J0D01*
G01*
X164998000Y-88980800D01*
G75*
G02*
X164947200Y-88930000I0J50800D01*
G01*
X164947200Y-87180000D01*
G75*
G02*
X164998000Y-87129200I50800J0D01*
G01*
X165448000Y-87129200D01*
G75*
G02*
X165498800Y-87180000I0J-50800D01*
G01*
G37*
G36*
G01*
X164848800Y-87180000D02*
X164848800Y-88930000D01*
G75*
G02*
X164798000Y-88980800I-50800J0D01*
G01*
X164348000Y-88980800D01*
G75*
G02*
X164297200Y-88930000I0J50800D01*
G01*
X164297200Y-87180000D01*
G75*
G02*
X164348000Y-87129200I50800J0D01*
G01*
X164798000Y-87129200D01*
G75*
G02*
X164848800Y-87180000I0J-50800D01*
G01*
G37*
G36*
G01*
X164198800Y-87180000D02*
X164198800Y-88930000D01*
G75*
G02*
X164148000Y-88980800I-50800J0D01*
G01*
X163698000Y-88980800D01*
G75*
G02*
X163647200Y-88930000I0J50800D01*
G01*
X163647200Y-87180000D01*
G75*
G02*
X163698000Y-87129200I50800J0D01*
G01*
X164148000Y-87129200D01*
G75*
G02*
X164198800Y-87180000I0J-50800D01*
G01*
G37*
G36*
G01*
X164198800Y-79980000D02*
X164198800Y-81730000D01*
G75*
G02*
X164148000Y-81780800I-50800J0D01*
G01*
X163698000Y-81780800D01*
G75*
G02*
X163647200Y-81730000I0J50800D01*
G01*
X163647200Y-79980000D01*
G75*
G02*
X163698000Y-79929200I50800J0D01*
G01*
X164148000Y-79929200D01*
G75*
G02*
X164198800Y-79980000I0J-50800D01*
G01*
G37*
G36*
G01*
X164848800Y-79980000D02*
X164848800Y-81730000D01*
G75*
G02*
X164798000Y-81780800I-50800J0D01*
G01*
X164348000Y-81780800D01*
G75*
G02*
X164297200Y-81730000I0J50800D01*
G01*
X164297200Y-79980000D01*
G75*
G02*
X164348000Y-79929200I50800J0D01*
G01*
X164798000Y-79929200D01*
G75*
G02*
X164848800Y-79980000I0J-50800D01*
G01*
G37*
G36*
G01*
X165498800Y-79980000D02*
X165498800Y-81730000D01*
G75*
G02*
X165448000Y-81780800I-50800J0D01*
G01*
X164998000Y-81780800D01*
G75*
G02*
X164947200Y-81730000I0J50800D01*
G01*
X164947200Y-79980000D01*
G75*
G02*
X164998000Y-79929200I50800J0D01*
G01*
X165448000Y-79929200D01*
G75*
G02*
X165498800Y-79980000I0J-50800D01*
G01*
G37*
G36*
G01*
X166148800Y-79980000D02*
X166148800Y-81730000D01*
G75*
G02*
X166098000Y-81780800I-50800J0D01*
G01*
X165648000Y-81780800D01*
G75*
G02*
X165597200Y-81730000I0J50800D01*
G01*
X165597200Y-79980000D01*
G75*
G02*
X165648000Y-79929200I50800J0D01*
G01*
X166098000Y-79929200D01*
G75*
G02*
X166148800Y-79980000I0J-50800D01*
G01*
G37*
G36*
G01*
X166798800Y-79980000D02*
X166798800Y-81730000D01*
G75*
G02*
X166748000Y-81780800I-50800J0D01*
G01*
X166298000Y-81780800D01*
G75*
G02*
X166247200Y-81730000I0J50800D01*
G01*
X166247200Y-79980000D01*
G75*
G02*
X166298000Y-79929200I50800J0D01*
G01*
X166748000Y-79929200D01*
G75*
G02*
X166798800Y-79980000I0J-50800D01*
G01*
G37*
G36*
G01*
X167448800Y-79980000D02*
X167448800Y-81730000D01*
G75*
G02*
X167398000Y-81780800I-50800J0D01*
G01*
X166948000Y-81780800D01*
G75*
G02*
X166897200Y-81730000I0J50800D01*
G01*
X166897200Y-79980000D01*
G75*
G02*
X166948000Y-79929200I50800J0D01*
G01*
X167398000Y-79929200D01*
G75*
G02*
X167448800Y-79980000I0J-50800D01*
G01*
G37*
G36*
G01*
X168098800Y-79980000D02*
X168098800Y-81730000D01*
G75*
G02*
X168048000Y-81780800I-50800J0D01*
G01*
X167598000Y-81780800D01*
G75*
G02*
X167547200Y-81730000I0J50800D01*
G01*
X167547200Y-79980000D01*
G75*
G02*
X167598000Y-79929200I50800J0D01*
G01*
X168048000Y-79929200D01*
G75*
G02*
X168098800Y-79980000I0J-50800D01*
G01*
G37*
G36*
G01*
X168748800Y-79980000D02*
X168748800Y-81730000D01*
G75*
G02*
X168698000Y-81780800I-50800J0D01*
G01*
X168248000Y-81780800D01*
G75*
G02*
X168197200Y-81730000I0J50800D01*
G01*
X168197200Y-79980000D01*
G75*
G02*
X168248000Y-79929200I50800J0D01*
G01*
X168698000Y-79929200D01*
G75*
G02*
X168748800Y-79980000I0J-50800D01*
G01*
G37*
G36*
G01*
X169398800Y-79980000D02*
X169398800Y-81730000D01*
G75*
G02*
X169348000Y-81780800I-50800J0D01*
G01*
X168898000Y-81780800D01*
G75*
G02*
X168847200Y-81730000I0J50800D01*
G01*
X168847200Y-79980000D01*
G75*
G02*
X168898000Y-79929200I50800J0D01*
G01*
X169348000Y-79929200D01*
G75*
G02*
X169398800Y-79980000I0J-50800D01*
G01*
G37*
G36*
G01*
X170048800Y-79980000D02*
X170048800Y-81730000D01*
G75*
G02*
X169998000Y-81780800I-50800J0D01*
G01*
X169548000Y-81780800D01*
G75*
G02*
X169497200Y-81730000I0J50800D01*
G01*
X169497200Y-79980000D01*
G75*
G02*
X169548000Y-79929200I50800J0D01*
G01*
X169998000Y-79929200D01*
G75*
G02*
X170048800Y-79980000I0J-50800D01*
G01*
G37*
G36*
G01*
X170698800Y-79980000D02*
X170698800Y-81730000D01*
G75*
G02*
X170648000Y-81780800I-50800J0D01*
G01*
X170198000Y-81780800D01*
G75*
G02*
X170147200Y-81730000I0J50800D01*
G01*
X170147200Y-79980000D01*
G75*
G02*
X170198000Y-79929200I50800J0D01*
G01*
X170648000Y-79929200D01*
G75*
G02*
X170698800Y-79980000I0J-50800D01*
G01*
G37*
G36*
G01*
X171348800Y-79980000D02*
X171348800Y-81730000D01*
G75*
G02*
X171298000Y-81780800I-50800J0D01*
G01*
X170848000Y-81780800D01*
G75*
G02*
X170797200Y-81730000I0J50800D01*
G01*
X170797200Y-79980000D01*
G75*
G02*
X170848000Y-79929200I50800J0D01*
G01*
X171298000Y-79929200D01*
G75*
G02*
X171348800Y-79980000I0J-50800D01*
G01*
G37*
G36*
G01*
X171998800Y-79980000D02*
X171998800Y-81730000D01*
G75*
G02*
X171948000Y-81780800I-50800J0D01*
G01*
X171498000Y-81780800D01*
G75*
G02*
X171447200Y-81730000I0J50800D01*
G01*
X171447200Y-79980000D01*
G75*
G02*
X171498000Y-79929200I50800J0D01*
G01*
X171948000Y-79929200D01*
G75*
G02*
X171998800Y-79980000I0J-50800D01*
G01*
G37*
G36*
G01*
X172648800Y-79980000D02*
X172648800Y-81730000D01*
G75*
G02*
X172598000Y-81780800I-50800J0D01*
G01*
X172148000Y-81780800D01*
G75*
G02*
X172097200Y-81730000I0J50800D01*
G01*
X172097200Y-79980000D01*
G75*
G02*
X172148000Y-79929200I50800J0D01*
G01*
X172598000Y-79929200D01*
G75*
G02*
X172648800Y-79980000I0J-50800D01*
G01*
G37*
G36*
G01*
X138315800Y-113486000D02*
X138315800Y-114236000D01*
G75*
G02*
X138140000Y-114411800I-175800J0D01*
G01*
X138140000Y-114411800D01*
G75*
G02*
X137964200Y-114236000I0J175800D01*
G01*
X137964200Y-113486000D01*
G75*
G02*
X138140000Y-113310200I175800J0D01*
G01*
X138140000Y-113310200D01*
G75*
G02*
X138315800Y-113486000I0J-175800D01*
G01*
G37*
G36*
G01*
X137815800Y-113486000D02*
X137815800Y-114236000D01*
G75*
G02*
X137640000Y-114411800I-175800J0D01*
G01*
X137640000Y-114411800D01*
G75*
G02*
X137464200Y-114236000I0J175800D01*
G01*
X137464200Y-113486000D01*
G75*
G02*
X137640000Y-113310200I175800J0D01*
G01*
X137640000Y-113310200D01*
G75*
G02*
X137815800Y-113486000I0J-175800D01*
G01*
G37*
G36*
G01*
X137315800Y-113486000D02*
X137315800Y-114236000D01*
G75*
G02*
X137140000Y-114411800I-175800J0D01*
G01*
X137140000Y-114411800D01*
G75*
G02*
X136964200Y-114236000I0J175800D01*
G01*
X136964200Y-113486000D01*
G75*
G02*
X137140000Y-113310200I175800J0D01*
G01*
X137140000Y-113310200D01*
G75*
G02*
X137315800Y-113486000I0J-175800D01*
G01*
G37*
G36*
G01*
X136815800Y-113486000D02*
X136815800Y-114236000D01*
G75*
G02*
X136640000Y-114411800I-175800J0D01*
G01*
X136640000Y-114411800D01*
G75*
G02*
X136464200Y-114236000I0J175800D01*
G01*
X136464200Y-113486000D01*
G75*
G02*
X136640000Y-113310200I175800J0D01*
G01*
X136640000Y-113310200D01*
G75*
G02*
X136815800Y-113486000I0J-175800D01*
G01*
G37*
G36*
G01*
X136315800Y-113486000D02*
X136315800Y-114236000D01*
G75*
G02*
X136140000Y-114411800I-175800J0D01*
G01*
X136140000Y-114411800D01*
G75*
G02*
X135964200Y-114236000I0J175800D01*
G01*
X135964200Y-113486000D01*
G75*
G02*
X136140000Y-113310200I175800J0D01*
G01*
X136140000Y-113310200D01*
G75*
G02*
X136315800Y-113486000I0J-175800D01*
G01*
G37*
G36*
G01*
X135815800Y-113486000D02*
X135815800Y-114236000D01*
G75*
G02*
X135640000Y-114411800I-175800J0D01*
G01*
X135640000Y-114411800D01*
G75*
G02*
X135464200Y-114236000I0J175800D01*
G01*
X135464200Y-113486000D01*
G75*
G02*
X135640000Y-113310200I175800J0D01*
G01*
X135640000Y-113310200D01*
G75*
G02*
X135815800Y-113486000I0J-175800D01*
G01*
G37*
G36*
G01*
X135315800Y-113486000D02*
X135315800Y-114236000D01*
G75*
G02*
X135140000Y-114411800I-175800J0D01*
G01*
X135140000Y-114411800D01*
G75*
G02*
X134964200Y-114236000I0J175800D01*
G01*
X134964200Y-113486000D01*
G75*
G02*
X135140000Y-113310200I175800J0D01*
G01*
X135140000Y-113310200D01*
G75*
G02*
X135315800Y-113486000I0J-175800D01*
G01*
G37*
G36*
G01*
X134815800Y-113486000D02*
X134815800Y-114236000D01*
G75*
G02*
X134640000Y-114411800I-175800J0D01*
G01*
X134640000Y-114411800D01*
G75*
G02*
X134464200Y-114236000I0J175800D01*
G01*
X134464200Y-113486000D01*
G75*
G02*
X134640000Y-113310200I175800J0D01*
G01*
X134640000Y-113310200D01*
G75*
G02*
X134815800Y-113486000I0J-175800D01*
G01*
G37*
G36*
G01*
X138505000Y-112945200D02*
X139255000Y-112945200D01*
G75*
G02*
X139430800Y-113121000I0J-175800D01*
G01*
X139430800Y-113121000D01*
G75*
G02*
X139255000Y-113296800I-175800J0D01*
G01*
X138505000Y-113296800D01*
G75*
G02*
X138329200Y-113121000I0J175800D01*
G01*
X138329200Y-113121000D01*
G75*
G02*
X138505000Y-112945200I175800J0D01*
G01*
G37*
G36*
G01*
X138505000Y-112445200D02*
X139255000Y-112445200D01*
G75*
G02*
X139430800Y-112621000I0J-175800D01*
G01*
X139430800Y-112621000D01*
G75*
G02*
X139255000Y-112796800I-175800J0D01*
G01*
X138505000Y-112796800D01*
G75*
G02*
X138329200Y-112621000I0J175800D01*
G01*
X138329200Y-112621000D01*
G75*
G02*
X138505000Y-112445200I175800J0D01*
G01*
G37*
G36*
G01*
X138505000Y-111945200D02*
X139255000Y-111945200D01*
G75*
G02*
X139430800Y-112121000I0J-175800D01*
G01*
X139430800Y-112121000D01*
G75*
G02*
X139255000Y-112296800I-175800J0D01*
G01*
X138505000Y-112296800D01*
G75*
G02*
X138329200Y-112121000I0J175800D01*
G01*
X138329200Y-112121000D01*
G75*
G02*
X138505000Y-111945200I175800J0D01*
G01*
G37*
G36*
G01*
X138505000Y-111445200D02*
X139255000Y-111445200D01*
G75*
G02*
X139430800Y-111621000I0J-175800D01*
G01*
X139430800Y-111621000D01*
G75*
G02*
X139255000Y-111796800I-175800J0D01*
G01*
X138505000Y-111796800D01*
G75*
G02*
X138329200Y-111621000I0J175800D01*
G01*
X138329200Y-111621000D01*
G75*
G02*
X138505000Y-111445200I175800J0D01*
G01*
G37*
G36*
G01*
X138505000Y-110945200D02*
X139255000Y-110945200D01*
G75*
G02*
X139430800Y-111121000I0J-175800D01*
G01*
X139430800Y-111121000D01*
G75*
G02*
X139255000Y-111296800I-175800J0D01*
G01*
X138505000Y-111296800D01*
G75*
G02*
X138329200Y-111121000I0J175800D01*
G01*
X138329200Y-111121000D01*
G75*
G02*
X138505000Y-110945200I175800J0D01*
G01*
G37*
G36*
G01*
X138505000Y-110445200D02*
X139255000Y-110445200D01*
G75*
G02*
X139430800Y-110621000I0J-175800D01*
G01*
X139430800Y-110621000D01*
G75*
G02*
X139255000Y-110796800I-175800J0D01*
G01*
X138505000Y-110796800D01*
G75*
G02*
X138329200Y-110621000I0J175800D01*
G01*
X138329200Y-110621000D01*
G75*
G02*
X138505000Y-110445200I175800J0D01*
G01*
G37*
G36*
G01*
X138505000Y-109945200D02*
X139255000Y-109945200D01*
G75*
G02*
X139430800Y-110121000I0J-175800D01*
G01*
X139430800Y-110121000D01*
G75*
G02*
X139255000Y-110296800I-175800J0D01*
G01*
X138505000Y-110296800D01*
G75*
G02*
X138329200Y-110121000I0J175800D01*
G01*
X138329200Y-110121000D01*
G75*
G02*
X138505000Y-109945200I175800J0D01*
G01*
G37*
G36*
G01*
X138505000Y-109445200D02*
X139255000Y-109445200D01*
G75*
G02*
X139430800Y-109621000I0J-175800D01*
G01*
X139430800Y-109621000D01*
G75*
G02*
X139255000Y-109796800I-175800J0D01*
G01*
X138505000Y-109796800D01*
G75*
G02*
X138329200Y-109621000I0J175800D01*
G01*
X138329200Y-109621000D01*
G75*
G02*
X138505000Y-109445200I175800J0D01*
G01*
G37*
G36*
G01*
X138505000Y-108945200D02*
X139255000Y-108945200D01*
G75*
G02*
X139430800Y-109121000I0J-175800D01*
G01*
X139430800Y-109121000D01*
G75*
G02*
X139255000Y-109296800I-175800J0D01*
G01*
X138505000Y-109296800D01*
G75*
G02*
X138329200Y-109121000I0J175800D01*
G01*
X138329200Y-109121000D01*
G75*
G02*
X138505000Y-108945200I175800J0D01*
G01*
G37*
G36*
G01*
X138505000Y-108445200D02*
X139255000Y-108445200D01*
G75*
G02*
X139430800Y-108621000I0J-175800D01*
G01*
X139430800Y-108621000D01*
G75*
G02*
X139255000Y-108796800I-175800J0D01*
G01*
X138505000Y-108796800D01*
G75*
G02*
X138329200Y-108621000I0J175800D01*
G01*
X138329200Y-108621000D01*
G75*
G02*
X138505000Y-108445200I175800J0D01*
G01*
G37*
G36*
G01*
X137964200Y-108256000D02*
X137964200Y-107506000D01*
G75*
G02*
X138140000Y-107330200I175800J0D01*
G01*
X138140000Y-107330200D01*
G75*
G02*
X138315800Y-107506000I0J-175800D01*
G01*
X138315800Y-108256000D01*
G75*
G02*
X138140000Y-108431800I-175800J0D01*
G01*
X138140000Y-108431800D01*
G75*
G02*
X137964200Y-108256000I0J175800D01*
G01*
G37*
G36*
G01*
X137464200Y-108256000D02*
X137464200Y-107506000D01*
G75*
G02*
X137640000Y-107330200I175800J0D01*
G01*
X137640000Y-107330200D01*
G75*
G02*
X137815800Y-107506000I0J-175800D01*
G01*
X137815800Y-108256000D01*
G75*
G02*
X137640000Y-108431800I-175800J0D01*
G01*
X137640000Y-108431800D01*
G75*
G02*
X137464200Y-108256000I0J175800D01*
G01*
G37*
G36*
G01*
X136964200Y-108256000D02*
X136964200Y-107506000D01*
G75*
G02*
X137140000Y-107330200I175800J0D01*
G01*
X137140000Y-107330200D01*
G75*
G02*
X137315800Y-107506000I0J-175800D01*
G01*
X137315800Y-108256000D01*
G75*
G02*
X137140000Y-108431800I-175800J0D01*
G01*
X137140000Y-108431800D01*
G75*
G02*
X136964200Y-108256000I0J175800D01*
G01*
G37*
G36*
G01*
X136464200Y-108256000D02*
X136464200Y-107506000D01*
G75*
G02*
X136640000Y-107330200I175800J0D01*
G01*
X136640000Y-107330200D01*
G75*
G02*
X136815800Y-107506000I0J-175800D01*
G01*
X136815800Y-108256000D01*
G75*
G02*
X136640000Y-108431800I-175800J0D01*
G01*
X136640000Y-108431800D01*
G75*
G02*
X136464200Y-108256000I0J175800D01*
G01*
G37*
G36*
G01*
X135964200Y-108256000D02*
X135964200Y-107506000D01*
G75*
G02*
X136140000Y-107330200I175800J0D01*
G01*
X136140000Y-107330200D01*
G75*
G02*
X136315800Y-107506000I0J-175800D01*
G01*
X136315800Y-108256000D01*
G75*
G02*
X136140000Y-108431800I-175800J0D01*
G01*
X136140000Y-108431800D01*
G75*
G02*
X135964200Y-108256000I0J175800D01*
G01*
G37*
G36*
G01*
X135464200Y-108256000D02*
X135464200Y-107506000D01*
G75*
G02*
X135640000Y-107330200I175800J0D01*
G01*
X135640000Y-107330200D01*
G75*
G02*
X135815800Y-107506000I0J-175800D01*
G01*
X135815800Y-108256000D01*
G75*
G02*
X135640000Y-108431800I-175800J0D01*
G01*
X135640000Y-108431800D01*
G75*
G02*
X135464200Y-108256000I0J175800D01*
G01*
G37*
G36*
G01*
X134964200Y-108256000D02*
X134964200Y-107506000D01*
G75*
G02*
X135140000Y-107330200I175800J0D01*
G01*
X135140000Y-107330200D01*
G75*
G02*
X135315800Y-107506000I0J-175800D01*
G01*
X135315800Y-108256000D01*
G75*
G02*
X135140000Y-108431800I-175800J0D01*
G01*
X135140000Y-108431800D01*
G75*
G02*
X134964200Y-108256000I0J175800D01*
G01*
G37*
G36*
G01*
X134464200Y-108256000D02*
X134464200Y-107506000D01*
G75*
G02*
X134640000Y-107330200I175800J0D01*
G01*
X134640000Y-107330200D01*
G75*
G02*
X134815800Y-107506000I0J-175800D01*
G01*
X134815800Y-108256000D01*
G75*
G02*
X134640000Y-108431800I-175800J0D01*
G01*
X134640000Y-108431800D01*
G75*
G02*
X134464200Y-108256000I0J175800D01*
G01*
G37*
G36*
G01*
X133964200Y-108256000D02*
X133964200Y-107506000D01*
G75*
G02*
X134140000Y-107330200I175800J0D01*
G01*
X134140000Y-107330200D01*
G75*
G02*
X134315800Y-107506000I0J-175800D01*
G01*
X134315800Y-108256000D01*
G75*
G02*
X134140000Y-108431800I-175800J0D01*
G01*
X134140000Y-108431800D01*
G75*
G02*
X133964200Y-108256000I0J175800D01*
G01*
G37*
G36*
G01*
X133464200Y-108256000D02*
X133464200Y-107506000D01*
G75*
G02*
X133640000Y-107330200I175800J0D01*
G01*
X133640000Y-107330200D01*
G75*
G02*
X133815800Y-107506000I0J-175800D01*
G01*
X133815800Y-108256000D01*
G75*
G02*
X133640000Y-108431800I-175800J0D01*
G01*
X133640000Y-108431800D01*
G75*
G02*
X133464200Y-108256000I0J175800D01*
G01*
G37*
G36*
G01*
X133275000Y-108796800D02*
X132525000Y-108796800D01*
G75*
G02*
X132349200Y-108621000I0J175800D01*
G01*
X132349200Y-108621000D01*
G75*
G02*
X132525000Y-108445200I175800J0D01*
G01*
X133275000Y-108445200D01*
G75*
G02*
X133450800Y-108621000I0J-175800D01*
G01*
X133450800Y-108621000D01*
G75*
G02*
X133275000Y-108796800I-175800J0D01*
G01*
G37*
G36*
G01*
X133275000Y-109296800D02*
X132525000Y-109296800D01*
G75*
G02*
X132349200Y-109121000I0J175800D01*
G01*
X132349200Y-109121000D01*
G75*
G02*
X132525000Y-108945200I175800J0D01*
G01*
X133275000Y-108945200D01*
G75*
G02*
X133450800Y-109121000I0J-175800D01*
G01*
X133450800Y-109121000D01*
G75*
G02*
X133275000Y-109296800I-175800J0D01*
G01*
G37*
G36*
G01*
X133275000Y-109796800D02*
X132525000Y-109796800D01*
G75*
G02*
X132349200Y-109621000I0J175800D01*
G01*
X132349200Y-109621000D01*
G75*
G02*
X132525000Y-109445200I175800J0D01*
G01*
X133275000Y-109445200D01*
G75*
G02*
X133450800Y-109621000I0J-175800D01*
G01*
X133450800Y-109621000D01*
G75*
G02*
X133275000Y-109796800I-175800J0D01*
G01*
G37*
G36*
G01*
X133275000Y-110296800D02*
X132525000Y-110296800D01*
G75*
G02*
X132349200Y-110121000I0J175800D01*
G01*
X132349200Y-110121000D01*
G75*
G02*
X132525000Y-109945200I175800J0D01*
G01*
X133275000Y-109945200D01*
G75*
G02*
X133450800Y-110121000I0J-175800D01*
G01*
X133450800Y-110121000D01*
G75*
G02*
X133275000Y-110296800I-175800J0D01*
G01*
G37*
G36*
G01*
X133275000Y-110796800D02*
X132525000Y-110796800D01*
G75*
G02*
X132349200Y-110621000I0J175800D01*
G01*
X132349200Y-110621000D01*
G75*
G02*
X132525000Y-110445200I175800J0D01*
G01*
X133275000Y-110445200D01*
G75*
G02*
X133450800Y-110621000I0J-175800D01*
G01*
X133450800Y-110621000D01*
G75*
G02*
X133275000Y-110796800I-175800J0D01*
G01*
G37*
G36*
G01*
X133275000Y-111296800D02*
X132525000Y-111296800D01*
G75*
G02*
X132349200Y-111121000I0J175800D01*
G01*
X132349200Y-111121000D01*
G75*
G02*
X132525000Y-110945200I175800J0D01*
G01*
X133275000Y-110945200D01*
G75*
G02*
X133450800Y-111121000I0J-175800D01*
G01*
X133450800Y-111121000D01*
G75*
G02*
X133275000Y-111296800I-175800J0D01*
G01*
G37*
G36*
G01*
X133275000Y-111796800D02*
X132525000Y-111796800D01*
G75*
G02*
X132349200Y-111621000I0J175800D01*
G01*
X132349200Y-111621000D01*
G75*
G02*
X132525000Y-111445200I175800J0D01*
G01*
X133275000Y-111445200D01*
G75*
G02*
X133450800Y-111621000I0J-175800D01*
G01*
X133450800Y-111621000D01*
G75*
G02*
X133275000Y-111796800I-175800J0D01*
G01*
G37*
G36*
G01*
X133275000Y-112296800D02*
X132525000Y-112296800D01*
G75*
G02*
X132349200Y-112121000I0J175800D01*
G01*
X132349200Y-112121000D01*
G75*
G02*
X132525000Y-111945200I175800J0D01*
G01*
X133275000Y-111945200D01*
G75*
G02*
X133450800Y-112121000I0J-175800D01*
G01*
X133450800Y-112121000D01*
G75*
G02*
X133275000Y-112296800I-175800J0D01*
G01*
G37*
G36*
G01*
X133275000Y-112796800D02*
X132525000Y-112796800D01*
G75*
G02*
X132349200Y-112621000I0J175800D01*
G01*
X132349200Y-112621000D01*
G75*
G02*
X132525000Y-112445200I175800J0D01*
G01*
X133275000Y-112445200D01*
G75*
G02*
X133450800Y-112621000I0J-175800D01*
G01*
X133450800Y-112621000D01*
G75*
G02*
X133275000Y-112796800I-175800J0D01*
G01*
G37*
G36*
G01*
X133275000Y-113296800D02*
X132525000Y-113296800D01*
G75*
G02*
X132349200Y-113121000I0J175800D01*
G01*
X132349200Y-113121000D01*
G75*
G02*
X132525000Y-112945200I175800J0D01*
G01*
X133275000Y-112945200D01*
G75*
G02*
X133450800Y-113121000I0J-175800D01*
G01*
X133450800Y-113121000D01*
G75*
G02*
X133275000Y-113296800I-175800J0D01*
G01*
G37*
G36*
G01*
X133815800Y-113486000D02*
X133815800Y-114236000D01*
G75*
G02*
X133640000Y-114411800I-175800J0D01*
G01*
X133640000Y-114411800D01*
G75*
G02*
X133464200Y-114236000I0J175800D01*
G01*
X133464200Y-113486000D01*
G75*
G02*
X133640000Y-113310200I175800J0D01*
G01*
X133640000Y-113310200D01*
G75*
G02*
X133815800Y-113486000I0J-175800D01*
G01*
G37*
G36*
G01*
X134315800Y-113486000D02*
X134315800Y-114236000D01*
G75*
G02*
X134140000Y-114411800I-175800J0D01*
G01*
X134140000Y-114411800D01*
G75*
G02*
X133964200Y-114236000I0J175800D01*
G01*
X133964200Y-113486000D01*
G75*
G02*
X134140000Y-113310200I175800J0D01*
G01*
X134140000Y-113310200D01*
G75*
G02*
X134315800Y-113486000I0J-175800D01*
G01*
G37*
G36*
G01*
X137940800Y-108871000D02*
X137940800Y-112871000D01*
G75*
G02*
X137890000Y-112921800I-50800J0D01*
G01*
X133890000Y-112921800D01*
G75*
G02*
X133839200Y-112871000I0J50800D01*
G01*
X133839200Y-108871000D01*
G75*
G02*
X133890000Y-108820200I50800J0D01*
G01*
X137890000Y-108820200D01*
G75*
G02*
X137940800Y-108871000I0J-50800D01*
G01*
G37*
G36*
G01*
X164894400Y-63227800D02*
X164543600Y-63227800D01*
G75*
G02*
X164368200Y-63052400I0J175400D01*
G01*
X164368200Y-61251600D01*
G75*
G02*
X164543600Y-61076200I175400J0D01*
G01*
X164894400Y-61076200D01*
G75*
G02*
X165069800Y-61251600I0J-175400D01*
G01*
X165069800Y-63052400D01*
G75*
G02*
X164894400Y-63227800I-175400J0D01*
G01*
G37*
G36*
G01*
X166164400Y-63227800D02*
X165813600Y-63227800D01*
G75*
G02*
X165638200Y-63052400I0J175400D01*
G01*
X165638200Y-61251600D01*
G75*
G02*
X165813600Y-61076200I175400J0D01*
G01*
X166164400Y-61076200D01*
G75*
G02*
X166339800Y-61251600I0J-175400D01*
G01*
X166339800Y-63052400D01*
G75*
G02*
X166164400Y-63227800I-175400J0D01*
G01*
G37*
G36*
G01*
X167434400Y-63227800D02*
X167083600Y-63227800D01*
G75*
G02*
X166908200Y-63052400I0J175400D01*
G01*
X166908200Y-61251600D01*
G75*
G02*
X167083600Y-61076200I175400J0D01*
G01*
X167434400Y-61076200D01*
G75*
G02*
X167609800Y-61251600I0J-175400D01*
G01*
X167609800Y-63052400D01*
G75*
G02*
X167434400Y-63227800I-175400J0D01*
G01*
G37*
G36*
G01*
X168704400Y-63227800D02*
X168353600Y-63227800D01*
G75*
G02*
X168178200Y-63052400I0J175400D01*
G01*
X168178200Y-61251600D01*
G75*
G02*
X168353600Y-61076200I175400J0D01*
G01*
X168704400Y-61076200D01*
G75*
G02*
X168879800Y-61251600I0J-175400D01*
G01*
X168879800Y-63052400D01*
G75*
G02*
X168704400Y-63227800I-175400J0D01*
G01*
G37*
G36*
G01*
X169974400Y-63227800D02*
X169623600Y-63227800D01*
G75*
G02*
X169448200Y-63052400I0J175400D01*
G01*
X169448200Y-61251600D01*
G75*
G02*
X169623600Y-61076200I175400J0D01*
G01*
X169974400Y-61076200D01*
G75*
G02*
X170149800Y-61251600I0J-175400D01*
G01*
X170149800Y-63052400D01*
G75*
G02*
X169974400Y-63227800I-175400J0D01*
G01*
G37*
G36*
G01*
X171244400Y-63227800D02*
X170893600Y-63227800D01*
G75*
G02*
X170718200Y-63052400I0J175400D01*
G01*
X170718200Y-61251600D01*
G75*
G02*
X170893600Y-61076200I175400J0D01*
G01*
X171244400Y-61076200D01*
G75*
G02*
X171419800Y-61251600I0J-175400D01*
G01*
X171419800Y-63052400D01*
G75*
G02*
X171244400Y-63227800I-175400J0D01*
G01*
G37*
G36*
G01*
X172514400Y-63227800D02*
X172163600Y-63227800D01*
G75*
G02*
X171988200Y-63052400I0J175400D01*
G01*
X171988200Y-61251600D01*
G75*
G02*
X172163600Y-61076200I175400J0D01*
G01*
X172514400Y-61076200D01*
G75*
G02*
X172689800Y-61251600I0J-175400D01*
G01*
X172689800Y-63052400D01*
G75*
G02*
X172514400Y-63227800I-175400J0D01*
G01*
G37*
G36*
G01*
X173784400Y-63227800D02*
X173433600Y-63227800D01*
G75*
G02*
X173258200Y-63052400I0J175400D01*
G01*
X173258200Y-61251600D01*
G75*
G02*
X173433600Y-61076200I175400J0D01*
G01*
X173784400Y-61076200D01*
G75*
G02*
X173959800Y-61251600I0J-175400D01*
G01*
X173959800Y-63052400D01*
G75*
G02*
X173784400Y-63227800I-175400J0D01*
G01*
G37*
G36*
G01*
X173784400Y-72527800D02*
X173433600Y-72527800D01*
G75*
G02*
X173258200Y-72352400I0J175400D01*
G01*
X173258200Y-70551600D01*
G75*
G02*
X173433600Y-70376200I175400J0D01*
G01*
X173784400Y-70376200D01*
G75*
G02*
X173959800Y-70551600I0J-175400D01*
G01*
X173959800Y-72352400D01*
G75*
G02*
X173784400Y-72527800I-175400J0D01*
G01*
G37*
G36*
G01*
X172514400Y-72527800D02*
X172163600Y-72527800D01*
G75*
G02*
X171988200Y-72352400I0J175400D01*
G01*
X171988200Y-70551600D01*
G75*
G02*
X172163600Y-70376200I175400J0D01*
G01*
X172514400Y-70376200D01*
G75*
G02*
X172689800Y-70551600I0J-175400D01*
G01*
X172689800Y-72352400D01*
G75*
G02*
X172514400Y-72527800I-175400J0D01*
G01*
G37*
G36*
G01*
X171244400Y-72527800D02*
X170893600Y-72527800D01*
G75*
G02*
X170718200Y-72352400I0J175400D01*
G01*
X170718200Y-70551600D01*
G75*
G02*
X170893600Y-70376200I175400J0D01*
G01*
X171244400Y-70376200D01*
G75*
G02*
X171419800Y-70551600I0J-175400D01*
G01*
X171419800Y-72352400D01*
G75*
G02*
X171244400Y-72527800I-175400J0D01*
G01*
G37*
G36*
G01*
X169974400Y-72527800D02*
X169623600Y-72527800D01*
G75*
G02*
X169448200Y-72352400I0J175400D01*
G01*
X169448200Y-70551600D01*
G75*
G02*
X169623600Y-70376200I175400J0D01*
G01*
X169974400Y-70376200D01*
G75*
G02*
X170149800Y-70551600I0J-175400D01*
G01*
X170149800Y-72352400D01*
G75*
G02*
X169974400Y-72527800I-175400J0D01*
G01*
G37*
G36*
G01*
X168704400Y-72527800D02*
X168353600Y-72527800D01*
G75*
G02*
X168178200Y-72352400I0J175400D01*
G01*
X168178200Y-70551600D01*
G75*
G02*
X168353600Y-70376200I175400J0D01*
G01*
X168704400Y-70376200D01*
G75*
G02*
X168879800Y-70551600I0J-175400D01*
G01*
X168879800Y-72352400D01*
G75*
G02*
X168704400Y-72527800I-175400J0D01*
G01*
G37*
G36*
G01*
X167434400Y-72527800D02*
X167083600Y-72527800D01*
G75*
G02*
X166908200Y-72352400I0J175400D01*
G01*
X166908200Y-70551600D01*
G75*
G02*
X167083600Y-70376200I175400J0D01*
G01*
X167434400Y-70376200D01*
G75*
G02*
X167609800Y-70551600I0J-175400D01*
G01*
X167609800Y-72352400D01*
G75*
G02*
X167434400Y-72527800I-175400J0D01*
G01*
G37*
G36*
G01*
X166164400Y-72527800D02*
X165813600Y-72527800D01*
G75*
G02*
X165638200Y-72352400I0J175400D01*
G01*
X165638200Y-70551600D01*
G75*
G02*
X165813600Y-70376200I175400J0D01*
G01*
X166164400Y-70376200D01*
G75*
G02*
X166339800Y-70551600I0J-175400D01*
G01*
X166339800Y-72352400D01*
G75*
G02*
X166164400Y-72527800I-175400J0D01*
G01*
G37*
G36*
G01*
X164894400Y-72527800D02*
X164543600Y-72527800D01*
G75*
G02*
X164368200Y-72352400I0J175400D01*
G01*
X164368200Y-70551600D01*
G75*
G02*
X164543600Y-70376200I175400J0D01*
G01*
X164894400Y-70376200D01*
G75*
G02*
X165069800Y-70551600I0J-175400D01*
G01*
X165069800Y-72352400D01*
G75*
G02*
X164894400Y-72527800I-175400J0D01*
G01*
G37*
G36*
G01*
X159626940Y-98826200D02*
X160413060Y-98826200D01*
G75*
G02*
X160570800Y-98983940I0J-157740D01*
G01*
X160570800Y-99720060D01*
G75*
G02*
X160413060Y-99877800I-157740J0D01*
G01*
X159626940Y-99877800D01*
G75*
G02*
X159469200Y-99720060I0J157740D01*
G01*
X159469200Y-98983940D01*
G75*
G02*
X159626940Y-98826200I157740J0D01*
G01*
G37*
G36*
G01*
X159626940Y-97226200D02*
X160413060Y-97226200D01*
G75*
G02*
X160570800Y-97383940I0J-157740D01*
G01*
X160570800Y-98120060D01*
G75*
G02*
X160413060Y-98277800I-157740J0D01*
G01*
X159626940Y-98277800D01*
G75*
G02*
X159469200Y-98120060I0J157740D01*
G01*
X159469200Y-97383940D01*
G75*
G02*
X159626940Y-97226200I157740J0D01*
G01*
G37*
D18*
X133604000Y-91567000D03*
X141224000Y-91567000D03*
X133604000Y-96647000D03*
X141224000Y-96647000D03*
X143764000Y-91567000D03*
G36*
G01*
X144814800Y-95647000D02*
X144814800Y-97647000D01*
G75*
G02*
X144764000Y-97697800I-50800J0D01*
G01*
X142764000Y-97697800D01*
G75*
G02*
X142713200Y-97647000I0J50800D01*
G01*
X142713200Y-95647000D01*
G75*
G02*
X142764000Y-95596200I50800J0D01*
G01*
X144764000Y-95596200D01*
G75*
G02*
X144814800Y-95647000I0J-50800D01*
G01*
G37*
D19*
G36*
X147986765Y-113427626D02*
G01*
X147987600Y-113429252D01*
X147987600Y-113477983D01*
X147987668Y-113478237D01*
X147987668Y-113481763D01*
X147987600Y-113481881D01*
X147987600Y-113530748D01*
X147986600Y-113532480D01*
X147984600Y-113532480D01*
X147983610Y-113530944D01*
X147983393Y-113528734D01*
X147982803Y-113526792D01*
X147981848Y-113525004D01*
X147980562Y-113523438D01*
X147978996Y-113522152D01*
X147977208Y-113521197D01*
X147975266Y-113520607D01*
X147973158Y-113520400D01*
X147174842Y-113520400D01*
X147172734Y-113520607D01*
X147170792Y-113521197D01*
X147169004Y-113522152D01*
X147167438Y-113523438D01*
X147166152Y-113525004D01*
X147165197Y-113526792D01*
X147164607Y-113528734D01*
X147164390Y-113530944D01*
X147163226Y-113532570D01*
X147161235Y-113532374D01*
X147160400Y-113530748D01*
X147160400Y-113482017D01*
X147160332Y-113481763D01*
X147160332Y-113478237D01*
X147160400Y-113478119D01*
X147160400Y-113429252D01*
X147161400Y-113427520D01*
X147163400Y-113427520D01*
X147164390Y-113429056D01*
X147164607Y-113431266D01*
X147165197Y-113433208D01*
X147166152Y-113434996D01*
X147167438Y-113436562D01*
X147169004Y-113437848D01*
X147170792Y-113438803D01*
X147172734Y-113439393D01*
X147174842Y-113439600D01*
X147973158Y-113439600D01*
X147975266Y-113439393D01*
X147977208Y-113438803D01*
X147978996Y-113437848D01*
X147980562Y-113436562D01*
X147981848Y-113434996D01*
X147982803Y-113433208D01*
X147983393Y-113431266D01*
X147983610Y-113429056D01*
X147984774Y-113427430D01*
X147986765Y-113427626D01*
G37*
G36*
X147986765Y-108659626D02*
G01*
X147987600Y-108661252D01*
X147987600Y-108709983D01*
X147987668Y-108710237D01*
X147987668Y-108713763D01*
X147987600Y-108713881D01*
X147987600Y-108762748D01*
X147986600Y-108764480D01*
X147984600Y-108764480D01*
X147983610Y-108762944D01*
X147983393Y-108760734D01*
X147982803Y-108758792D01*
X147981848Y-108757004D01*
X147980562Y-108755438D01*
X147978996Y-108754152D01*
X147977208Y-108753197D01*
X147975266Y-108752607D01*
X147973158Y-108752400D01*
X147174842Y-108752400D01*
X147172734Y-108752607D01*
X147170792Y-108753197D01*
X147169004Y-108754152D01*
X147167438Y-108755438D01*
X147166152Y-108757004D01*
X147165197Y-108758792D01*
X147164607Y-108760734D01*
X147164390Y-108762944D01*
X147163226Y-108764570D01*
X147161235Y-108764374D01*
X147160400Y-108762748D01*
X147160400Y-108714017D01*
X147160332Y-108713763D01*
X147160332Y-108710237D01*
X147160400Y-108710119D01*
X147160400Y-108661252D01*
X147161400Y-108659520D01*
X147163400Y-108659520D01*
X147164390Y-108661056D01*
X147164607Y-108663266D01*
X147165197Y-108665208D01*
X147166152Y-108666996D01*
X147167438Y-108668562D01*
X147169004Y-108669848D01*
X147170792Y-108670803D01*
X147172734Y-108671393D01*
X147174842Y-108671600D01*
X147973158Y-108671600D01*
X147975266Y-108671393D01*
X147977208Y-108670803D01*
X147978996Y-108669848D01*
X147980562Y-108668562D01*
X147981848Y-108666996D01*
X147982803Y-108665208D01*
X147983393Y-108663266D01*
X147983610Y-108661056D01*
X147984774Y-108659430D01*
X147986765Y-108659626D01*
G37*
G36*
X143414765Y-101166626D02*
G01*
X143415600Y-101168252D01*
X143415600Y-101216983D01*
X143415668Y-101217237D01*
X143415668Y-101220763D01*
X143415600Y-101220881D01*
X143415600Y-101269748D01*
X143414600Y-101271480D01*
X143412600Y-101271480D01*
X143411610Y-101269944D01*
X143411393Y-101267734D01*
X143410803Y-101265792D01*
X143409848Y-101264004D01*
X143408562Y-101262438D01*
X143406996Y-101261152D01*
X143405208Y-101260197D01*
X143403266Y-101259607D01*
X143401158Y-101259400D01*
X142602842Y-101259400D01*
X142600734Y-101259607D01*
X142598792Y-101260197D01*
X142597004Y-101261152D01*
X142595438Y-101262438D01*
X142594152Y-101264004D01*
X142593197Y-101265792D01*
X142592607Y-101267734D01*
X142592390Y-101269944D01*
X142591226Y-101271570D01*
X142589235Y-101271374D01*
X142588400Y-101269748D01*
X142588400Y-101221017D01*
X142588332Y-101220763D01*
X142588332Y-101217237D01*
X142588400Y-101217119D01*
X142588400Y-101168252D01*
X142589400Y-101166520D01*
X142591400Y-101166520D01*
X142592390Y-101168056D01*
X142592607Y-101170266D01*
X142593197Y-101172208D01*
X142594152Y-101173996D01*
X142595438Y-101175562D01*
X142597004Y-101176848D01*
X142598792Y-101177803D01*
X142600734Y-101178393D01*
X142602842Y-101178600D01*
X143401158Y-101178600D01*
X143403266Y-101178393D01*
X143405208Y-101177803D01*
X143406996Y-101176848D01*
X143408562Y-101175562D01*
X143409848Y-101173996D01*
X143410803Y-101172208D01*
X143411393Y-101170266D01*
X143411610Y-101168056D01*
X143412774Y-101166430D01*
X143414765Y-101166626D01*
G37*
G36*
X162845765Y-98118626D02*
G01*
X162846600Y-98120252D01*
X162846600Y-98168983D01*
X162846668Y-98169237D01*
X162846668Y-98172763D01*
X162846600Y-98172881D01*
X162846600Y-98221748D01*
X162845600Y-98223480D01*
X162843600Y-98223480D01*
X162842610Y-98221944D01*
X162842393Y-98219734D01*
X162841803Y-98217792D01*
X162840848Y-98216004D01*
X162839562Y-98214438D01*
X162837996Y-98213152D01*
X162836208Y-98212197D01*
X162834266Y-98211607D01*
X162832158Y-98211400D01*
X162033842Y-98211400D01*
X162031734Y-98211607D01*
X162029792Y-98212197D01*
X162028004Y-98213152D01*
X162026438Y-98214438D01*
X162025152Y-98216004D01*
X162024197Y-98217792D01*
X162023607Y-98219734D01*
X162023390Y-98221944D01*
X162022226Y-98223570D01*
X162020235Y-98223374D01*
X162019400Y-98221748D01*
X162019400Y-98173017D01*
X162019332Y-98172763D01*
X162019332Y-98169237D01*
X162019400Y-98169119D01*
X162019400Y-98120252D01*
X162020400Y-98118520D01*
X162022400Y-98118520D01*
X162023390Y-98120056D01*
X162023607Y-98122266D01*
X162024197Y-98124208D01*
X162025152Y-98125996D01*
X162026438Y-98127562D01*
X162028004Y-98128848D01*
X162029792Y-98129803D01*
X162031734Y-98130393D01*
X162033842Y-98130600D01*
X162832158Y-98130600D01*
X162834266Y-98130393D01*
X162836208Y-98129803D01*
X162837996Y-98128848D01*
X162839562Y-98127562D01*
X162840848Y-98125996D01*
X162841803Y-98124208D01*
X162842393Y-98122266D01*
X162842610Y-98120056D01*
X162843774Y-98118430D01*
X162845765Y-98118626D01*
G37*
G36*
X163667932Y-93047200D02*
G01*
X163668200Y-93048200D01*
X163668200Y-94649800D01*
X163667200Y-94651532D01*
X163666200Y-94651800D01*
X163567800Y-94651800D01*
X163566068Y-94650800D01*
X163565800Y-94649800D01*
X163565800Y-93048200D01*
X163566800Y-93046468D01*
X163567800Y-93046200D01*
X163666200Y-93046200D01*
X163667932Y-93047200D01*
G37*
G36*
X164317932Y-93047200D02*
G01*
X164318200Y-93048200D01*
X164318200Y-94649800D01*
X164317200Y-94651532D01*
X164316200Y-94651800D01*
X164217800Y-94651800D01*
X164216068Y-94650800D01*
X164215800Y-94649800D01*
X164215800Y-93048200D01*
X164216800Y-93046468D01*
X164217800Y-93046200D01*
X164316200Y-93046200D01*
X164317932Y-93047200D01*
G37*
G36*
X164967932Y-93047200D02*
G01*
X164968200Y-93048200D01*
X164968200Y-94649800D01*
X164967200Y-94651532D01*
X164966200Y-94651800D01*
X164867800Y-94651800D01*
X164866068Y-94650800D01*
X164865800Y-94649800D01*
X164865800Y-93048200D01*
X164866800Y-93046468D01*
X164867800Y-93046200D01*
X164966200Y-93046200D01*
X164967932Y-93047200D01*
G37*
G36*
X165617932Y-93047200D02*
G01*
X165618200Y-93048200D01*
X165618200Y-94649800D01*
X165617200Y-94651532D01*
X165616200Y-94651800D01*
X165517800Y-94651800D01*
X165516068Y-94650800D01*
X165515800Y-94649800D01*
X165515800Y-93048200D01*
X165516800Y-93046468D01*
X165517800Y-93046200D01*
X165616200Y-93046200D01*
X165617932Y-93047200D01*
G37*
G36*
X166169790Y-93422019D02*
G01*
X166170740Y-93431672D01*
X166173501Y-93440771D01*
X166177982Y-93449155D01*
X166184012Y-93456502D01*
X166191359Y-93462532D01*
X166199743Y-93467013D01*
X166208842Y-93469774D01*
X166218299Y-93470705D01*
X166227756Y-93469774D01*
X166236855Y-93467013D01*
X166245239Y-93462532D01*
X166252586Y-93456502D01*
X166258616Y-93449155D01*
X166263190Y-93440597D01*
X166264889Y-93439541D01*
X166266652Y-93440484D01*
X166266868Y-93442121D01*
X166254714Y-93482185D01*
X166243209Y-93599000D01*
X166254714Y-93715815D01*
X166267586Y-93758247D01*
X166267132Y-93760195D01*
X166265218Y-93760776D01*
X166263824Y-93759593D01*
X166261062Y-93752927D01*
X166255781Y-93745023D01*
X166249061Y-93738303D01*
X166241157Y-93733022D01*
X166232376Y-93729385D01*
X166223050Y-93727529D01*
X166213548Y-93727529D01*
X166204222Y-93729384D01*
X166195441Y-93733022D01*
X166187537Y-93738303D01*
X166180817Y-93745023D01*
X166175536Y-93752927D01*
X166171899Y-93761708D01*
X166170034Y-93771080D01*
X166169798Y-93775883D01*
X166168714Y-93777564D01*
X166166716Y-93777466D01*
X166165800Y-93775785D01*
X166165800Y-93422215D01*
X166166800Y-93420483D01*
X166168800Y-93420483D01*
X166169790Y-93422019D01*
G37*
G36*
X163017284Y-93420534D02*
G01*
X163018200Y-93422215D01*
X163018200Y-93775785D01*
X163017200Y-93777517D01*
X163015200Y-93777517D01*
X163014210Y-93775981D01*
X163013260Y-93766328D01*
X163010499Y-93757229D01*
X163006018Y-93748845D01*
X162999988Y-93741498D01*
X162992641Y-93735468D01*
X162984257Y-93730987D01*
X162975158Y-93728226D01*
X162965701Y-93727295D01*
X162956244Y-93728226D01*
X162947145Y-93730987D01*
X162938761Y-93735468D01*
X162931414Y-93741498D01*
X162925384Y-93748845D01*
X162920811Y-93757402D01*
X162919112Y-93758458D01*
X162917349Y-93757515D01*
X162917133Y-93755878D01*
X162929286Y-93715815D01*
X162940791Y-93599000D01*
X162929286Y-93482185D01*
X162916414Y-93439753D01*
X162916868Y-93437805D01*
X162918782Y-93437224D01*
X162920176Y-93438407D01*
X162922938Y-93445073D01*
X162928219Y-93452977D01*
X162934939Y-93459697D01*
X162942843Y-93464978D01*
X162951624Y-93468615D01*
X162960950Y-93470471D01*
X162970452Y-93470471D01*
X162979778Y-93468616D01*
X162988559Y-93464978D01*
X162996463Y-93459697D01*
X163003183Y-93452977D01*
X163008464Y-93445073D01*
X163012101Y-93436292D01*
X163013966Y-93426920D01*
X163014202Y-93422117D01*
X163015286Y-93420436D01*
X163017284Y-93420534D01*
G37*
G36*
X171197881Y-91788400D02*
G01*
X171246748Y-91788400D01*
X171248480Y-91789400D01*
X171248480Y-91791400D01*
X171246944Y-91792390D01*
X171244734Y-91792607D01*
X171242792Y-91793197D01*
X171241004Y-91794152D01*
X171239438Y-91795438D01*
X171238152Y-91797004D01*
X171237197Y-91798792D01*
X171236607Y-91800734D01*
X171236400Y-91802842D01*
X171236400Y-92601158D01*
X171236607Y-92603266D01*
X171237197Y-92605208D01*
X171238152Y-92606996D01*
X171239438Y-92608562D01*
X171241004Y-92609848D01*
X171242792Y-92610803D01*
X171244734Y-92611393D01*
X171246944Y-92611610D01*
X171248570Y-92612774D01*
X171248374Y-92614765D01*
X171246748Y-92615600D01*
X171198017Y-92615600D01*
X171197763Y-92615668D01*
X171194237Y-92615668D01*
X171194119Y-92615600D01*
X171145252Y-92615600D01*
X171143520Y-92614600D01*
X171143520Y-92612600D01*
X171145056Y-92611610D01*
X171147266Y-92611393D01*
X171149208Y-92610803D01*
X171150996Y-92609848D01*
X171152562Y-92608562D01*
X171153848Y-92606996D01*
X171154803Y-92605208D01*
X171155393Y-92603266D01*
X171155600Y-92601158D01*
X171155600Y-91802842D01*
X171155393Y-91800734D01*
X171154803Y-91798792D01*
X171153848Y-91797004D01*
X171152562Y-91795438D01*
X171150996Y-91794152D01*
X171149208Y-91793197D01*
X171147266Y-91792607D01*
X171145056Y-91792390D01*
X171143430Y-91791226D01*
X171143626Y-91789235D01*
X171145252Y-91788400D01*
X171193983Y-91788400D01*
X171194237Y-91788332D01*
X171197763Y-91788332D01*
X171197881Y-91788400D01*
G37*
G36*
X171197881Y-90010400D02*
G01*
X171246748Y-90010400D01*
X171248480Y-90011400D01*
X171248480Y-90013400D01*
X171246944Y-90014390D01*
X171244734Y-90014607D01*
X171242792Y-90015197D01*
X171241004Y-90016152D01*
X171239438Y-90017438D01*
X171238152Y-90019004D01*
X171237197Y-90020792D01*
X171236607Y-90022734D01*
X171236400Y-90024842D01*
X171236400Y-90823158D01*
X171236607Y-90825266D01*
X171237197Y-90827208D01*
X171238152Y-90828996D01*
X171239438Y-90830562D01*
X171241004Y-90831848D01*
X171242792Y-90832803D01*
X171244734Y-90833393D01*
X171246944Y-90833610D01*
X171248570Y-90834774D01*
X171248374Y-90836765D01*
X171246748Y-90837600D01*
X171198017Y-90837600D01*
X171197763Y-90837668D01*
X171194237Y-90837668D01*
X171194119Y-90837600D01*
X171145252Y-90837600D01*
X171143520Y-90836600D01*
X171143520Y-90834600D01*
X171145056Y-90833610D01*
X171147266Y-90833393D01*
X171149208Y-90832803D01*
X171150996Y-90831848D01*
X171152562Y-90830562D01*
X171153848Y-90828996D01*
X171154803Y-90827208D01*
X171155393Y-90825266D01*
X171155600Y-90823158D01*
X171155600Y-90024842D01*
X171155393Y-90022734D01*
X171154803Y-90020792D01*
X171153848Y-90019004D01*
X171152562Y-90017438D01*
X171150996Y-90016152D01*
X171149208Y-90015197D01*
X171147266Y-90014607D01*
X171145056Y-90014390D01*
X171143430Y-90013226D01*
X171143626Y-90011235D01*
X171145252Y-90010400D01*
X171193983Y-90010400D01*
X171194237Y-90010332D01*
X171197763Y-90010332D01*
X171197881Y-90010400D01*
G37*
G36*
X170798932Y-87128200D02*
G01*
X170799200Y-87129200D01*
X170799200Y-88980800D01*
X170798200Y-88982532D01*
X170797200Y-88982800D01*
X170698800Y-88982800D01*
X170697068Y-88981800D01*
X170696800Y-88980800D01*
X170696800Y-87129200D01*
X170697800Y-87127468D01*
X170698800Y-87127200D01*
X170797200Y-87127200D01*
X170798932Y-87128200D01*
G37*
G36*
X170148932Y-87128200D02*
G01*
X170149200Y-87129200D01*
X170149200Y-88980800D01*
X170148200Y-88982532D01*
X170147200Y-88982800D01*
X170048800Y-88982800D01*
X170047068Y-88981800D01*
X170046800Y-88980800D01*
X170046800Y-87129200D01*
X170047800Y-87127468D01*
X170048800Y-87127200D01*
X170147200Y-87127200D01*
X170148932Y-87128200D01*
G37*
G36*
X169498932Y-87128200D02*
G01*
X169499200Y-87129200D01*
X169499200Y-88980800D01*
X169498200Y-88982532D01*
X169497200Y-88982800D01*
X169398800Y-88982800D01*
X169397068Y-88981800D01*
X169396800Y-88980800D01*
X169396800Y-87129200D01*
X169397800Y-87127468D01*
X169398800Y-87127200D01*
X169497200Y-87127200D01*
X169498932Y-87128200D01*
G37*
G36*
X168848932Y-87128200D02*
G01*
X168849200Y-87129200D01*
X168849200Y-88980800D01*
X168848200Y-88982532D01*
X168847200Y-88982800D01*
X168748800Y-88982800D01*
X168747068Y-88981800D01*
X168746800Y-88980800D01*
X168746800Y-87129200D01*
X168747800Y-87127468D01*
X168748800Y-87127200D01*
X168847200Y-87127200D01*
X168848932Y-87128200D01*
G37*
G36*
X168198932Y-87128200D02*
G01*
X168199200Y-87129200D01*
X168199200Y-88980800D01*
X168198200Y-88982532D01*
X168197200Y-88982800D01*
X168098800Y-88982800D01*
X168097068Y-88981800D01*
X168096800Y-88980800D01*
X168096800Y-87129200D01*
X168097800Y-87127468D01*
X168098800Y-87127200D01*
X168197200Y-87127200D01*
X168198932Y-87128200D01*
G37*
G36*
X167548932Y-87128200D02*
G01*
X167549200Y-87129200D01*
X167549200Y-88980800D01*
X167548200Y-88982532D01*
X167547200Y-88982800D01*
X167448800Y-88982800D01*
X167447068Y-88981800D01*
X167446800Y-88980800D01*
X167446800Y-87129200D01*
X167447800Y-87127468D01*
X167448800Y-87127200D01*
X167547200Y-87127200D01*
X167548932Y-87128200D01*
G37*
G36*
X166898932Y-87128200D02*
G01*
X166899200Y-87129200D01*
X166899200Y-88980800D01*
X166898200Y-88982532D01*
X166897200Y-88982800D01*
X166798800Y-88982800D01*
X166797068Y-88981800D01*
X166796800Y-88980800D01*
X166796800Y-87129200D01*
X166797800Y-87127468D01*
X166798800Y-87127200D01*
X166897200Y-87127200D01*
X166898932Y-87128200D01*
G37*
G36*
X166248932Y-87128200D02*
G01*
X166249200Y-87129200D01*
X166249200Y-88980800D01*
X166248200Y-88982532D01*
X166247200Y-88982800D01*
X166148800Y-88982800D01*
X166147068Y-88981800D01*
X166146800Y-88980800D01*
X166146800Y-87129200D01*
X166147800Y-87127468D01*
X166148800Y-87127200D01*
X166247200Y-87127200D01*
X166248932Y-87128200D01*
G37*
G36*
X165598932Y-87128200D02*
G01*
X165599200Y-87129200D01*
X165599200Y-88980800D01*
X165598200Y-88982532D01*
X165597200Y-88982800D01*
X165498800Y-88982800D01*
X165497068Y-88981800D01*
X165496800Y-88980800D01*
X165496800Y-87129200D01*
X165497800Y-87127468D01*
X165498800Y-87127200D01*
X165597200Y-87127200D01*
X165598932Y-87128200D01*
G37*
G36*
X164948932Y-87128200D02*
G01*
X164949200Y-87129200D01*
X164949200Y-88980800D01*
X164948200Y-88982532D01*
X164947200Y-88982800D01*
X164848800Y-88982800D01*
X164847068Y-88981800D01*
X164846800Y-88980800D01*
X164846800Y-87129200D01*
X164847800Y-87127468D01*
X164848800Y-87127200D01*
X164947200Y-87127200D01*
X164948932Y-87128200D01*
G37*
G36*
X164298932Y-87128200D02*
G01*
X164299200Y-87129200D01*
X164299200Y-88980800D01*
X164298200Y-88982532D01*
X164297200Y-88982800D01*
X164198800Y-88982800D01*
X164197068Y-88981800D01*
X164196800Y-88980800D01*
X164196800Y-87129200D01*
X164197800Y-87127468D01*
X164198800Y-87127200D01*
X164297200Y-87127200D01*
X164298932Y-87128200D01*
G37*
G36*
X171448932Y-87128200D02*
G01*
X171449200Y-87129200D01*
X171449200Y-88980800D01*
X171448200Y-88982532D01*
X171447200Y-88982800D01*
X171348800Y-88982800D01*
X171347068Y-88981800D01*
X171346800Y-88980800D01*
X171346800Y-87129200D01*
X171347800Y-87127468D01*
X171348800Y-87127200D01*
X171447200Y-87127200D01*
X171448932Y-87128200D01*
G37*
G36*
X172098932Y-87128200D02*
G01*
X172099200Y-87129200D01*
X172099200Y-88980800D01*
X172098200Y-88982532D01*
X172097200Y-88982800D01*
X171998800Y-88982800D01*
X171997068Y-88981800D01*
X171996800Y-88980800D01*
X171996800Y-87129200D01*
X171997800Y-87127468D01*
X171998800Y-87127200D01*
X172097200Y-87127200D01*
X172098932Y-87128200D01*
G37*
G36*
X153417881Y-82136400D02*
G01*
X153466748Y-82136400D01*
X153468480Y-82137400D01*
X153468480Y-82139400D01*
X153466944Y-82140390D01*
X153464734Y-82140607D01*
X153462792Y-82141197D01*
X153461004Y-82142152D01*
X153459438Y-82143438D01*
X153458152Y-82145004D01*
X153457197Y-82146792D01*
X153456607Y-82148734D01*
X153456400Y-82150842D01*
X153456400Y-82949158D01*
X153456607Y-82951266D01*
X153457197Y-82953208D01*
X153458152Y-82954996D01*
X153459438Y-82956562D01*
X153461004Y-82957848D01*
X153462792Y-82958803D01*
X153464734Y-82959393D01*
X153466944Y-82959610D01*
X153468570Y-82960774D01*
X153468374Y-82962765D01*
X153466748Y-82963600D01*
X153418017Y-82963600D01*
X153417763Y-82963668D01*
X153414237Y-82963668D01*
X153414119Y-82963600D01*
X153365252Y-82963600D01*
X153363520Y-82962600D01*
X153363520Y-82960600D01*
X153365056Y-82959610D01*
X153367266Y-82959393D01*
X153369208Y-82958803D01*
X153370996Y-82957848D01*
X153372562Y-82956562D01*
X153373848Y-82954996D01*
X153374803Y-82953208D01*
X153375393Y-82951266D01*
X153375600Y-82949158D01*
X153375600Y-82150842D01*
X153375393Y-82148734D01*
X153374803Y-82146792D01*
X153373848Y-82145004D01*
X153372562Y-82143438D01*
X153370996Y-82142152D01*
X153369208Y-82141197D01*
X153367266Y-82140607D01*
X153365056Y-82140390D01*
X153363430Y-82139226D01*
X153363626Y-82137235D01*
X153365252Y-82136400D01*
X153413983Y-82136400D01*
X153414237Y-82136332D01*
X153417763Y-82136332D01*
X153417881Y-82136400D01*
G37*
G36*
X155899881Y-82136400D02*
G01*
X155948748Y-82136400D01*
X155950480Y-82137400D01*
X155950480Y-82139400D01*
X155948944Y-82140390D01*
X155946734Y-82140607D01*
X155944792Y-82141197D01*
X155943004Y-82142152D01*
X155941438Y-82143438D01*
X155940152Y-82145004D01*
X155939197Y-82146792D01*
X155938607Y-82148734D01*
X155938400Y-82150842D01*
X155938400Y-82949158D01*
X155938607Y-82951266D01*
X155939197Y-82953208D01*
X155940152Y-82954996D01*
X155941438Y-82956562D01*
X155943004Y-82957848D01*
X155944792Y-82958803D01*
X155946734Y-82959393D01*
X155948944Y-82959610D01*
X155950570Y-82960774D01*
X155950374Y-82962765D01*
X155948748Y-82963600D01*
X155900017Y-82963600D01*
X155899763Y-82963668D01*
X155896237Y-82963668D01*
X155896119Y-82963600D01*
X155847252Y-82963600D01*
X155845520Y-82962600D01*
X155845520Y-82960600D01*
X155847056Y-82959610D01*
X155849266Y-82959393D01*
X155851208Y-82958803D01*
X155852996Y-82957848D01*
X155854562Y-82956562D01*
X155855848Y-82954996D01*
X155856803Y-82953208D01*
X155857393Y-82951266D01*
X155857600Y-82949158D01*
X155857600Y-82150842D01*
X155857393Y-82148734D01*
X155856803Y-82146792D01*
X155855848Y-82145004D01*
X155854562Y-82143438D01*
X155852996Y-82142152D01*
X155851208Y-82141197D01*
X155849266Y-82140607D01*
X155847056Y-82140390D01*
X155845430Y-82139226D01*
X155845626Y-82137235D01*
X155847252Y-82136400D01*
X155895983Y-82136400D01*
X155896237Y-82136332D01*
X155899763Y-82136332D01*
X155899881Y-82136400D01*
G37*
G36*
X151385881Y-82136400D02*
G01*
X151434748Y-82136400D01*
X151436480Y-82137400D01*
X151436480Y-82139400D01*
X151434944Y-82140390D01*
X151432734Y-82140607D01*
X151430792Y-82141197D01*
X151429004Y-82142152D01*
X151427438Y-82143438D01*
X151426152Y-82145004D01*
X151425197Y-82146792D01*
X151424607Y-82148734D01*
X151424400Y-82150842D01*
X151424400Y-82949158D01*
X151424607Y-82951266D01*
X151425197Y-82953208D01*
X151426152Y-82954996D01*
X151427438Y-82956562D01*
X151429004Y-82957848D01*
X151430792Y-82958803D01*
X151432734Y-82959393D01*
X151434944Y-82959610D01*
X151436570Y-82960774D01*
X151436374Y-82962765D01*
X151434748Y-82963600D01*
X151386017Y-82963600D01*
X151385763Y-82963668D01*
X151382237Y-82963668D01*
X151382119Y-82963600D01*
X151333252Y-82963600D01*
X151331520Y-82962600D01*
X151331520Y-82960600D01*
X151333056Y-82959610D01*
X151335266Y-82959393D01*
X151337208Y-82958803D01*
X151338996Y-82957848D01*
X151340562Y-82956562D01*
X151341848Y-82954996D01*
X151342803Y-82953208D01*
X151343393Y-82951266D01*
X151343600Y-82949158D01*
X151343600Y-82150842D01*
X151343393Y-82148734D01*
X151342803Y-82146792D01*
X151341848Y-82145004D01*
X151340562Y-82143438D01*
X151338996Y-82142152D01*
X151337208Y-82141197D01*
X151335266Y-82140607D01*
X151333056Y-82140390D01*
X151331430Y-82139226D01*
X151331626Y-82137235D01*
X151333252Y-82136400D01*
X151381983Y-82136400D01*
X151382237Y-82136332D01*
X151385763Y-82136332D01*
X151385881Y-82136400D01*
G37*
G36*
X164298932Y-79928200D02*
G01*
X164299200Y-79929200D01*
X164299200Y-81780800D01*
X164298200Y-81782532D01*
X164297200Y-81782800D01*
X164198800Y-81782800D01*
X164197068Y-81781800D01*
X164196800Y-81780800D01*
X164196800Y-79929200D01*
X164197800Y-79927468D01*
X164198800Y-79927200D01*
X164297200Y-79927200D01*
X164298932Y-79928200D01*
G37*
G36*
X172098932Y-79928200D02*
G01*
X172099200Y-79929200D01*
X172099200Y-81780800D01*
X172098200Y-81782532D01*
X172097200Y-81782800D01*
X171998800Y-81782800D01*
X171997068Y-81781800D01*
X171996800Y-81780800D01*
X171996800Y-79929200D01*
X171997800Y-79927468D01*
X171998800Y-79927200D01*
X172097200Y-79927200D01*
X172098932Y-79928200D01*
G37*
G36*
X164948932Y-79928200D02*
G01*
X164949200Y-79929200D01*
X164949200Y-81780800D01*
X164948200Y-81782532D01*
X164947200Y-81782800D01*
X164848800Y-81782800D01*
X164847068Y-81781800D01*
X164846800Y-81780800D01*
X164846800Y-79929200D01*
X164847800Y-79927468D01*
X164848800Y-79927200D01*
X164947200Y-79927200D01*
X164948932Y-79928200D01*
G37*
G36*
X165598932Y-79928200D02*
G01*
X165599200Y-79929200D01*
X165599200Y-81780800D01*
X165598200Y-81782532D01*
X165597200Y-81782800D01*
X165498800Y-81782800D01*
X165497068Y-81781800D01*
X165496800Y-81780800D01*
X165496800Y-79929200D01*
X165497800Y-79927468D01*
X165498800Y-79927200D01*
X165597200Y-79927200D01*
X165598932Y-79928200D01*
G37*
G36*
X166248932Y-79928200D02*
G01*
X166249200Y-79929200D01*
X166249200Y-81780800D01*
X166248200Y-81782532D01*
X166247200Y-81782800D01*
X166148800Y-81782800D01*
X166147068Y-81781800D01*
X166146800Y-81780800D01*
X166146800Y-79929200D01*
X166147800Y-79927468D01*
X166148800Y-79927200D01*
X166247200Y-79927200D01*
X166248932Y-79928200D01*
G37*
G36*
X166898932Y-79928200D02*
G01*
X166899200Y-79929200D01*
X166899200Y-81780800D01*
X166898200Y-81782532D01*
X166897200Y-81782800D01*
X166798800Y-81782800D01*
X166797068Y-81781800D01*
X166796800Y-81780800D01*
X166796800Y-79929200D01*
X166797800Y-79927468D01*
X166798800Y-79927200D01*
X166897200Y-79927200D01*
X166898932Y-79928200D01*
G37*
G36*
X167548932Y-79928200D02*
G01*
X167549200Y-79929200D01*
X167549200Y-81780800D01*
X167548200Y-81782532D01*
X167547200Y-81782800D01*
X167448800Y-81782800D01*
X167447068Y-81781800D01*
X167446800Y-81780800D01*
X167446800Y-79929200D01*
X167447800Y-79927468D01*
X167448800Y-79927200D01*
X167547200Y-79927200D01*
X167548932Y-79928200D01*
G37*
G36*
X168198932Y-79928200D02*
G01*
X168199200Y-79929200D01*
X168199200Y-81780800D01*
X168198200Y-81782532D01*
X168197200Y-81782800D01*
X168098800Y-81782800D01*
X168097068Y-81781800D01*
X168096800Y-81780800D01*
X168096800Y-79929200D01*
X168097800Y-79927468D01*
X168098800Y-79927200D01*
X168197200Y-79927200D01*
X168198932Y-79928200D01*
G37*
G36*
X168848932Y-79928200D02*
G01*
X168849200Y-79929200D01*
X168849200Y-81780800D01*
X168848200Y-81782532D01*
X168847200Y-81782800D01*
X168748800Y-81782800D01*
X168747068Y-81781800D01*
X168746800Y-81780800D01*
X168746800Y-79929200D01*
X168747800Y-79927468D01*
X168748800Y-79927200D01*
X168847200Y-79927200D01*
X168848932Y-79928200D01*
G37*
G36*
X169498932Y-79928200D02*
G01*
X169499200Y-79929200D01*
X169499200Y-81780800D01*
X169498200Y-81782532D01*
X169497200Y-81782800D01*
X169398800Y-81782800D01*
X169397068Y-81781800D01*
X169396800Y-81780800D01*
X169396800Y-79929200D01*
X169397800Y-79927468D01*
X169398800Y-79927200D01*
X169497200Y-79927200D01*
X169498932Y-79928200D01*
G37*
G36*
X170148932Y-79928200D02*
G01*
X170149200Y-79929200D01*
X170149200Y-81780800D01*
X170148200Y-81782532D01*
X170147200Y-81782800D01*
X170048800Y-81782800D01*
X170047068Y-81781800D01*
X170046800Y-81780800D01*
X170046800Y-79929200D01*
X170047800Y-79927468D01*
X170048800Y-79927200D01*
X170147200Y-79927200D01*
X170148932Y-79928200D01*
G37*
G36*
X170798932Y-79928200D02*
G01*
X170799200Y-79929200D01*
X170799200Y-81780800D01*
X170798200Y-81782532D01*
X170797200Y-81782800D01*
X170698800Y-81782800D01*
X170697068Y-81781800D01*
X170696800Y-81780800D01*
X170696800Y-79929200D01*
X170697800Y-79927468D01*
X170698800Y-79927200D01*
X170797200Y-79927200D01*
X170798932Y-79928200D01*
G37*
G36*
X171448932Y-79928200D02*
G01*
X171449200Y-79929200D01*
X171449200Y-81780800D01*
X171448200Y-81782532D01*
X171447200Y-81782800D01*
X171348800Y-81782800D01*
X171347068Y-81781800D01*
X171346800Y-81780800D01*
X171346800Y-79929200D01*
X171347800Y-79927468D01*
X171348800Y-79927200D01*
X171447200Y-79927200D01*
X171448932Y-79928200D01*
G37*
G36*
X134621881Y-78580400D02*
G01*
X134670748Y-78580400D01*
X134672480Y-78581400D01*
X134672480Y-78583400D01*
X134670944Y-78584390D01*
X134668734Y-78584607D01*
X134666792Y-78585197D01*
X134665004Y-78586152D01*
X134663438Y-78587438D01*
X134662152Y-78589004D01*
X134661197Y-78590792D01*
X134660607Y-78592734D01*
X134660400Y-78594842D01*
X134660400Y-79393158D01*
X134660607Y-79395266D01*
X134661197Y-79397208D01*
X134662152Y-79398996D01*
X134663438Y-79400562D01*
X134665004Y-79401848D01*
X134666792Y-79402803D01*
X134668734Y-79403393D01*
X134670944Y-79403610D01*
X134672570Y-79404774D01*
X134672374Y-79406765D01*
X134670748Y-79407600D01*
X134622017Y-79407600D01*
X134621763Y-79407668D01*
X134618237Y-79407668D01*
X134618119Y-79407600D01*
X134569252Y-79407600D01*
X134567520Y-79406600D01*
X134567520Y-79404600D01*
X134569056Y-79403610D01*
X134571266Y-79403393D01*
X134573208Y-79402803D01*
X134574996Y-79401848D01*
X134576562Y-79400562D01*
X134577848Y-79398996D01*
X134578803Y-79397208D01*
X134579393Y-79395266D01*
X134579600Y-79393158D01*
X134579600Y-78594842D01*
X134579393Y-78592734D01*
X134578803Y-78590792D01*
X134577848Y-78589004D01*
X134576562Y-78587438D01*
X134574996Y-78586152D01*
X134573208Y-78585197D01*
X134571266Y-78584607D01*
X134569056Y-78584390D01*
X134567430Y-78583226D01*
X134567626Y-78581235D01*
X134569252Y-78580400D01*
X134617983Y-78580400D01*
X134618237Y-78580332D01*
X134621763Y-78580332D01*
X134621881Y-78580400D01*
G37*
G36*
X136849881Y-74770400D02*
G01*
X136898748Y-74770400D01*
X136900480Y-74771400D01*
X136900480Y-74773400D01*
X136898944Y-74774390D01*
X136896734Y-74774607D01*
X136894792Y-74775197D01*
X136893004Y-74776152D01*
X136891438Y-74777438D01*
X136890152Y-74779004D01*
X136889197Y-74780792D01*
X136888607Y-74782734D01*
X136888400Y-74784842D01*
X136888400Y-75583158D01*
X136888607Y-75585266D01*
X136889197Y-75587208D01*
X136890152Y-75588996D01*
X136891438Y-75590562D01*
X136893004Y-75591848D01*
X136894792Y-75592803D01*
X136896734Y-75593393D01*
X136898944Y-75593610D01*
X136900570Y-75594774D01*
X136900374Y-75596765D01*
X136898748Y-75597600D01*
X136850017Y-75597600D01*
X136849763Y-75597668D01*
X136846237Y-75597668D01*
X136846119Y-75597600D01*
X136797252Y-75597600D01*
X136795520Y-75596600D01*
X136795520Y-75594600D01*
X136797056Y-75593610D01*
X136799266Y-75593393D01*
X136801208Y-75592803D01*
X136802996Y-75591848D01*
X136804562Y-75590562D01*
X136805848Y-75588996D01*
X136806803Y-75587208D01*
X136807393Y-75585266D01*
X136807600Y-75583158D01*
X136807600Y-74784842D01*
X136807393Y-74782734D01*
X136806803Y-74780792D01*
X136805848Y-74779004D01*
X136804562Y-74777438D01*
X136802996Y-74776152D01*
X136801208Y-74775197D01*
X136799266Y-74774607D01*
X136797056Y-74774390D01*
X136795430Y-74773226D01*
X136795626Y-74771235D01*
X136797252Y-74770400D01*
X136845983Y-74770400D01*
X136846237Y-74770332D01*
X136849763Y-74770332D01*
X136849881Y-74770400D01*
G37*
G36*
X159670765Y-64463626D02*
G01*
X159671600Y-64465252D01*
X159671600Y-64513983D01*
X159671668Y-64514237D01*
X159671668Y-64517763D01*
X159671600Y-64517881D01*
X159671600Y-64566748D01*
X159670600Y-64568480D01*
X159668600Y-64568480D01*
X159667610Y-64566944D01*
X159667393Y-64564734D01*
X159666803Y-64562792D01*
X159665848Y-64561004D01*
X159664562Y-64559438D01*
X159662996Y-64558152D01*
X159661208Y-64557197D01*
X159659266Y-64556607D01*
X159657158Y-64556400D01*
X158858842Y-64556400D01*
X158856734Y-64556607D01*
X158854792Y-64557197D01*
X158853004Y-64558152D01*
X158851438Y-64559438D01*
X158850152Y-64561004D01*
X158849197Y-64562792D01*
X158848607Y-64564734D01*
X158848390Y-64566944D01*
X158847226Y-64568570D01*
X158845235Y-64568374D01*
X158844400Y-64566748D01*
X158844400Y-64518017D01*
X158844332Y-64517763D01*
X158844332Y-64514237D01*
X158844400Y-64514119D01*
X158844400Y-64465252D01*
X158845400Y-64463520D01*
X158847400Y-64463520D01*
X158848390Y-64465056D01*
X158848607Y-64467266D01*
X158849197Y-64469208D01*
X158850152Y-64470996D01*
X158851438Y-64472562D01*
X158853004Y-64473848D01*
X158854792Y-64474803D01*
X158856734Y-64475393D01*
X158858842Y-64475600D01*
X159657158Y-64475600D01*
X159659266Y-64475393D01*
X159661208Y-64474803D01*
X159662996Y-64473848D01*
X159664562Y-64472562D01*
X159665848Y-64470996D01*
X159666803Y-64469208D01*
X159667393Y-64467266D01*
X159667610Y-64465056D01*
X159668774Y-64463430D01*
X159670765Y-64463626D01*
G37*
G36*
X161702765Y-64463626D02*
G01*
X161703600Y-64465252D01*
X161703600Y-64513983D01*
X161703668Y-64514237D01*
X161703668Y-64517763D01*
X161703600Y-64517881D01*
X161703600Y-64566748D01*
X161702600Y-64568480D01*
X161700600Y-64568480D01*
X161699610Y-64566944D01*
X161699393Y-64564734D01*
X161698803Y-64562792D01*
X161697848Y-64561004D01*
X161696562Y-64559438D01*
X161694996Y-64558152D01*
X161693208Y-64557197D01*
X161691266Y-64556607D01*
X161689158Y-64556400D01*
X160890842Y-64556400D01*
X160888734Y-64556607D01*
X160886792Y-64557197D01*
X160885004Y-64558152D01*
X160883438Y-64559438D01*
X160882152Y-64561004D01*
X160881197Y-64562792D01*
X160880607Y-64564734D01*
X160880390Y-64566944D01*
X160879226Y-64568570D01*
X160877235Y-64568374D01*
X160876400Y-64566748D01*
X160876400Y-64518017D01*
X160876332Y-64517763D01*
X160876332Y-64514237D01*
X160876400Y-64514119D01*
X160876400Y-64465252D01*
X160877400Y-64463520D01*
X160879400Y-64463520D01*
X160880390Y-64465056D01*
X160880607Y-64467266D01*
X160881197Y-64469208D01*
X160882152Y-64470996D01*
X160883438Y-64472562D01*
X160885004Y-64473848D01*
X160886792Y-64474803D01*
X160888734Y-64475393D01*
X160890842Y-64475600D01*
X161689158Y-64475600D01*
X161691266Y-64475393D01*
X161693208Y-64474803D01*
X161694996Y-64473848D01*
X161696562Y-64472562D01*
X161697848Y-64470996D01*
X161698803Y-64469208D01*
X161699393Y-64467266D01*
X161699610Y-64465056D01*
X161700774Y-64463430D01*
X161702765Y-64463626D01*
G37*
M02*
