M48
INCH,TZ
T1C0.0100
T2C0.0150
T3C0.0197
T4C0.0200
T5C0.0248
T6C0.0331
T7C0.0394
T8C0.0450
T9C0.0472
T10C0.0819
T11C0.0866
T12C0.1260
%
G90
G05
T1
X51650Y-43800
X51650Y-44500
X51900Y-42100
X52300Y-40600
X52900Y-43300
X53428Y-41400
X53800Y-46000
X54499Y-45451
X54600Y-41600
X55448Y-43748
X55750Y-47200
X60900Y-33300
X61400Y-29800
X61700Y-29200
X62000Y-28900
X63000Y-33000
X63200Y-32200
X64000Y-24100
X66866Y-30184
X67550Y-29550
X67600Y-32750
X67850Y-29800
T2
X52200Y-32100
X52200Y-32600
X52500Y-45300
X52500Y-47050
X53700Y-31100
X53700Y-32100
X54189Y-46289
X54400Y-21800
X54700Y-29500
X55000Y-45000
X55450Y-42300
X56300Y-40750
X56900Y-45800
X57500Y-32400
X57700Y-44000
X57900Y-31700
X58500Y-29200
X58700Y-43200
X59000Y-32000
X59000Y-32600
X60072Y-30172
X60600Y-27300
X60612Y-26112
X61400Y-28900
X61800Y-26600
X61800Y-30550
X63500Y-26200
X63800Y-43400
X64200Y-25800
X64200Y-28300
X64550Y-36300
X64800Y-35250
X65300Y-27300
X65451Y-45849
X66413Y-36387
X67800Y-33500
X68300Y-35600
X68300Y-36300
T4
X63600Y-39800
T5
X58739Y-22500
X60661Y-22500
T6
X52000Y-29100
X52000Y-29600
X52000Y-30100
T7
X51800Y-24500
X51800Y-25500
X52600Y-36050
X52600Y-38050
X55600Y-36050
X55600Y-38050
X56600Y-36050
X56600Y-38050
T8
X67800Y-39000
X67800Y-40000
X67800Y-41000
T9
X64282Y-41670
X64282Y-45670
T10
X59282Y-40170
T11
X58282Y-47170
T12
X52000Y-22200
X52000Y-48600
X58750Y-36750
X61400Y-36750
X68400Y-22200
X68400Y-48600
T3
G00X63560Y-36850
M15
G01X63835Y-36850
M16
G05
G00X64583Y-37696
M15
G01X65017Y-37696
M16
G05
G00X65765Y-36850
M15
G01X66040Y-36850
M16
G05
T0
M30
