G04 #@! TF.GenerationSoftware,KiCad,Pcbnew,(5.1.5)-3*
G04 #@! TF.CreationDate,2020-04-22T08:06:24-07:00*
G04 #@! TF.ProjectId,Plug_Pass_120V_AC_shield,506c7567-5f50-4617-9373-5f313230565f,rev?*
G04 #@! TF.SameCoordinates,Original*
G04 #@! TF.FileFunction,Legend,Bot*
G04 #@! TF.FilePolarity,Positive*
%FSLAX46Y46*%
G04 Gerber Fmt 4.6, Leading zero omitted, Abs format (unit mm)*
G04 Created by KiCad (PCBNEW (5.1.5)-3) date 2020-04-22 08:06:24*
%MOMM*%
%LPD*%
G04 APERTURE LIST*
%ADD10C,0.150000*%
%ADD11C,0.120000*%
%ADD12C,0.200000*%
%ADD13C,0.250000*%
G04 APERTURE END LIST*
D10*
X200789728Y-137237460D02*
X200789728Y-136237460D01*
X200408776Y-136237460D01*
X200313538Y-136285080D01*
X200265919Y-136332699D01*
X200218300Y-136427937D01*
X200218300Y-136570794D01*
X200265919Y-136666032D01*
X200313538Y-136713651D01*
X200408776Y-136761270D01*
X200789728Y-136761270D01*
X199646871Y-137237460D02*
X199742109Y-137189841D01*
X199789728Y-137094603D01*
X199789728Y-136237460D01*
X198837347Y-136570794D02*
X198837347Y-137237460D01*
X199265919Y-136570794D02*
X199265919Y-137094603D01*
X199218300Y-137189841D01*
X199123061Y-137237460D01*
X198980204Y-137237460D01*
X198884966Y-137189841D01*
X198837347Y-137142222D01*
X197932585Y-136570794D02*
X197932585Y-137380318D01*
X197980204Y-137475556D01*
X198027823Y-137523175D01*
X198123061Y-137570794D01*
X198265919Y-137570794D01*
X198361157Y-137523175D01*
X197932585Y-137189841D02*
X198027823Y-137237460D01*
X198218300Y-137237460D01*
X198313538Y-137189841D01*
X198361157Y-137142222D01*
X198408776Y-137046984D01*
X198408776Y-136761270D01*
X198361157Y-136666032D01*
X198313538Y-136618413D01*
X198218300Y-136570794D01*
X198027823Y-136570794D01*
X197932585Y-136618413D01*
X196694490Y-137237460D02*
X196694490Y-136237460D01*
X196313538Y-136237460D01*
X196218300Y-136285080D01*
X196170680Y-136332699D01*
X196123061Y-136427937D01*
X196123061Y-136570794D01*
X196170680Y-136666032D01*
X196218300Y-136713651D01*
X196313538Y-136761270D01*
X196694490Y-136761270D01*
X195265919Y-137237460D02*
X195265919Y-136713651D01*
X195313538Y-136618413D01*
X195408776Y-136570794D01*
X195599252Y-136570794D01*
X195694490Y-136618413D01*
X195265919Y-137189841D02*
X195361157Y-137237460D01*
X195599252Y-137237460D01*
X195694490Y-137189841D01*
X195742109Y-137094603D01*
X195742109Y-136999365D01*
X195694490Y-136904127D01*
X195599252Y-136856508D01*
X195361157Y-136856508D01*
X195265919Y-136808889D01*
X194837347Y-137189841D02*
X194742109Y-137237460D01*
X194551633Y-137237460D01*
X194456395Y-137189841D01*
X194408776Y-137094603D01*
X194408776Y-137046984D01*
X194456395Y-136951746D01*
X194551633Y-136904127D01*
X194694490Y-136904127D01*
X194789728Y-136856508D01*
X194837347Y-136761270D01*
X194837347Y-136713651D01*
X194789728Y-136618413D01*
X194694490Y-136570794D01*
X194551633Y-136570794D01*
X194456395Y-136618413D01*
X194027823Y-137189841D02*
X193932585Y-137237460D01*
X193742109Y-137237460D01*
X193646871Y-137189841D01*
X193599252Y-137094603D01*
X193599252Y-137046984D01*
X193646871Y-136951746D01*
X193742109Y-136904127D01*
X193884966Y-136904127D01*
X193980204Y-136856508D01*
X194027823Y-136761270D01*
X194027823Y-136713651D01*
X193980204Y-136618413D01*
X193884966Y-136570794D01*
X193742109Y-136570794D01*
X193646871Y-136618413D01*
X200599252Y-138220794D02*
X200361157Y-138887460D01*
X200123061Y-138220794D01*
X199361157Y-138839841D02*
X199456395Y-138887460D01*
X199646871Y-138887460D01*
X199742109Y-138839841D01*
X199789728Y-138744603D01*
X199789728Y-138363651D01*
X199742109Y-138268413D01*
X199646871Y-138220794D01*
X199456395Y-138220794D01*
X199361157Y-138268413D01*
X199313538Y-138363651D01*
X199313538Y-138458889D01*
X199789728Y-138554127D01*
X198884966Y-138887460D02*
X198884966Y-138220794D01*
X198884966Y-138411270D02*
X198837347Y-138316032D01*
X198789728Y-138268413D01*
X198694490Y-138220794D01*
X198599252Y-138220794D01*
X198313538Y-138839841D02*
X198218300Y-138887460D01*
X198027823Y-138887460D01*
X197932585Y-138839841D01*
X197884966Y-138744603D01*
X197884966Y-138696984D01*
X197932585Y-138601746D01*
X198027823Y-138554127D01*
X198170680Y-138554127D01*
X198265919Y-138506508D01*
X198313538Y-138411270D01*
X198313538Y-138363651D01*
X198265919Y-138268413D01*
X198170680Y-138220794D01*
X198027823Y-138220794D01*
X197932585Y-138268413D01*
X197456395Y-138887460D02*
X197456395Y-138220794D01*
X197456395Y-137887460D02*
X197504014Y-137935080D01*
X197456395Y-137982699D01*
X197408776Y-137935080D01*
X197456395Y-137887460D01*
X197456395Y-137982699D01*
X196837347Y-138887460D02*
X196932585Y-138839841D01*
X196980204Y-138792222D01*
X197027823Y-138696984D01*
X197027823Y-138411270D01*
X196980204Y-138316032D01*
X196932585Y-138268413D01*
X196837347Y-138220794D01*
X196694490Y-138220794D01*
X196599252Y-138268413D01*
X196551633Y-138316032D01*
X196504014Y-138411270D01*
X196504014Y-138696984D01*
X196551633Y-138792222D01*
X196599252Y-138839841D01*
X196694490Y-138887460D01*
X196837347Y-138887460D01*
X196075442Y-138220794D02*
X196075442Y-138887460D01*
X196075442Y-138316032D02*
X196027823Y-138268413D01*
X195932585Y-138220794D01*
X195789728Y-138220794D01*
X195694490Y-138268413D01*
X195646871Y-138363651D01*
X195646871Y-138887460D01*
X193884966Y-138887460D02*
X194456395Y-138887460D01*
X194170680Y-138887460D02*
X194170680Y-137887460D01*
X194265919Y-138030318D01*
X194361157Y-138125556D01*
X194456395Y-138173175D01*
X200575442Y-140251746D02*
X200099252Y-140251746D01*
X200670680Y-140537460D02*
X200337347Y-139537460D01*
X200004014Y-140537460D01*
X199099252Y-140442222D02*
X199146871Y-140489841D01*
X199289728Y-140537460D01*
X199384966Y-140537460D01*
X199527823Y-140489841D01*
X199623061Y-140394603D01*
X199670680Y-140299365D01*
X199718300Y-140108889D01*
X199718300Y-139966032D01*
X199670680Y-139775556D01*
X199623061Y-139680318D01*
X199527823Y-139585080D01*
X199384966Y-139537460D01*
X199289728Y-139537460D01*
X199146871Y-139585080D01*
X199099252Y-139632699D01*
X197956395Y-140489841D02*
X197861157Y-140537460D01*
X197670680Y-140537460D01*
X197575442Y-140489841D01*
X197527823Y-140394603D01*
X197527823Y-140346984D01*
X197575442Y-140251746D01*
X197670680Y-140204127D01*
X197813538Y-140204127D01*
X197908776Y-140156508D01*
X197956395Y-140061270D01*
X197956395Y-140013651D01*
X197908776Y-139918413D01*
X197813538Y-139870794D01*
X197670680Y-139870794D01*
X197575442Y-139918413D01*
X197099252Y-140537460D02*
X197099252Y-139537460D01*
X196670680Y-140537460D02*
X196670680Y-140013651D01*
X196718300Y-139918413D01*
X196813538Y-139870794D01*
X196956395Y-139870794D01*
X197051633Y-139918413D01*
X197099252Y-139966032D01*
X196194490Y-140537460D02*
X196194490Y-139870794D01*
X196194490Y-139537460D02*
X196242109Y-139585080D01*
X196194490Y-139632699D01*
X196146871Y-139585080D01*
X196194490Y-139537460D01*
X196194490Y-139632699D01*
X195337347Y-140489841D02*
X195432585Y-140537460D01*
X195623061Y-140537460D01*
X195718300Y-140489841D01*
X195765919Y-140394603D01*
X195765919Y-140013651D01*
X195718300Y-139918413D01*
X195623061Y-139870794D01*
X195432585Y-139870794D01*
X195337347Y-139918413D01*
X195289728Y-140013651D01*
X195289728Y-140108889D01*
X195765919Y-140204127D01*
X194718300Y-140537460D02*
X194813538Y-140489841D01*
X194861157Y-140394603D01*
X194861157Y-139537460D01*
X193908776Y-140537460D02*
X193908776Y-139537460D01*
X193908776Y-140489841D02*
X194004014Y-140537460D01*
X194194490Y-140537460D01*
X194289728Y-140489841D01*
X194337347Y-140442222D01*
X194384966Y-140346984D01*
X194384966Y-140061270D01*
X194337347Y-139966032D01*
X194289728Y-139918413D01*
X194194490Y-139870794D01*
X194004014Y-139870794D01*
X193908776Y-139918413D01*
X210461594Y-54677582D02*
X210509213Y-54725201D01*
X210652070Y-54772820D01*
X210747308Y-54772820D01*
X210890165Y-54725201D01*
X210985403Y-54629963D01*
X211033022Y-54534725D01*
X211080641Y-54344249D01*
X211080641Y-54201392D01*
X211033022Y-54010916D01*
X210985403Y-53915678D01*
X210890165Y-53820440D01*
X210747308Y-53772820D01*
X210652070Y-53772820D01*
X210509213Y-53820440D01*
X210461594Y-53868059D01*
X209890165Y-54772820D02*
X209985403Y-54725201D01*
X210033022Y-54629963D01*
X210033022Y-53772820D01*
X209080641Y-54772820D02*
X209080641Y-54249011D01*
X209128260Y-54153773D01*
X209223499Y-54106154D01*
X209413975Y-54106154D01*
X209509213Y-54153773D01*
X209080641Y-54725201D02*
X209175880Y-54772820D01*
X209413975Y-54772820D01*
X209509213Y-54725201D01*
X209556832Y-54629963D01*
X209556832Y-54534725D01*
X209509213Y-54439487D01*
X209413975Y-54391868D01*
X209175880Y-54391868D01*
X209080641Y-54344249D01*
X208747308Y-54106154D02*
X208366356Y-54106154D01*
X208604451Y-53772820D02*
X208604451Y-54629963D01*
X208556832Y-54725201D01*
X208461594Y-54772820D01*
X208366356Y-54772820D01*
X208080641Y-54725201D02*
X207985403Y-54772820D01*
X207794927Y-54772820D01*
X207699689Y-54725201D01*
X207652070Y-54629963D01*
X207652070Y-54582344D01*
X207699689Y-54487106D01*
X207794927Y-54439487D01*
X207937784Y-54439487D01*
X208033022Y-54391868D01*
X208080641Y-54296630D01*
X208080641Y-54249011D01*
X208033022Y-54153773D01*
X207937784Y-54106154D01*
X207794927Y-54106154D01*
X207699689Y-54153773D01*
X207223499Y-54772820D02*
X207223499Y-53772820D01*
X207128260Y-54391868D02*
X206842546Y-54772820D01*
X206842546Y-54106154D02*
X207223499Y-54487106D01*
X205985403Y-54772820D02*
X205985403Y-54249011D01*
X206033022Y-54153773D01*
X206128260Y-54106154D01*
X206318737Y-54106154D01*
X206413975Y-54153773D01*
X205985403Y-54725201D02*
X206080641Y-54772820D01*
X206318737Y-54772820D01*
X206413975Y-54725201D01*
X206461594Y-54629963D01*
X206461594Y-54534725D01*
X206413975Y-54439487D01*
X206318737Y-54391868D01*
X206080641Y-54391868D01*
X205985403Y-54344249D01*
X205509213Y-54106154D02*
X205509213Y-54772820D01*
X205509213Y-54201392D02*
X205461594Y-54153773D01*
X205366356Y-54106154D01*
X205223499Y-54106154D01*
X205128260Y-54153773D01*
X205080641Y-54249011D01*
X205080641Y-54772820D01*
X204604451Y-54772820D02*
X204604451Y-54106154D01*
X204604451Y-53772820D02*
X204652070Y-53820440D01*
X204604451Y-53868059D01*
X204556832Y-53820440D01*
X204604451Y-53772820D01*
X204604451Y-53868059D01*
X203747308Y-54725201D02*
X203842546Y-54772820D01*
X204033022Y-54772820D01*
X204128260Y-54725201D01*
X204175880Y-54629963D01*
X204175880Y-54249011D01*
X204128260Y-54153773D01*
X204033022Y-54106154D01*
X203842546Y-54106154D01*
X203747308Y-54153773D01*
X203699689Y-54249011D01*
X203699689Y-54344249D01*
X204175880Y-54439487D01*
X202509213Y-54772820D02*
X202509213Y-53772820D01*
X202128260Y-53772820D01*
X202033022Y-53820440D01*
X201985403Y-53868059D01*
X201937784Y-53963297D01*
X201937784Y-54106154D01*
X201985403Y-54201392D01*
X202033022Y-54249011D01*
X202128260Y-54296630D01*
X202509213Y-54296630D01*
X201128260Y-54725201D02*
X201223499Y-54772820D01*
X201413975Y-54772820D01*
X201509213Y-54725201D01*
X201556832Y-54629963D01*
X201556832Y-54249011D01*
X201509213Y-54153773D01*
X201413975Y-54106154D01*
X201223499Y-54106154D01*
X201128260Y-54153773D01*
X201080641Y-54249011D01*
X201080641Y-54344249D01*
X201556832Y-54439487D01*
X200509213Y-54772820D02*
X200604451Y-54725201D01*
X200652070Y-54677582D01*
X200699689Y-54582344D01*
X200699689Y-54296630D01*
X200652070Y-54201392D01*
X200604451Y-54153773D01*
X200509213Y-54106154D01*
X200366356Y-54106154D01*
X200271118Y-54153773D01*
X200223499Y-54201392D01*
X200175880Y-54296630D01*
X200175880Y-54582344D01*
X200223499Y-54677582D01*
X200271118Y-54725201D01*
X200366356Y-54772820D01*
X200509213Y-54772820D01*
X199747308Y-54106154D02*
X199747308Y-55106154D01*
X199747308Y-54153773D02*
X199652070Y-54106154D01*
X199461594Y-54106154D01*
X199366356Y-54153773D01*
X199318737Y-54201392D01*
X199271118Y-54296630D01*
X199271118Y-54582344D01*
X199318737Y-54677582D01*
X199366356Y-54725201D01*
X199461594Y-54772820D01*
X199652070Y-54772820D01*
X199747308Y-54725201D01*
X198699689Y-54772820D02*
X198794927Y-54725201D01*
X198842546Y-54629963D01*
X198842546Y-53772820D01*
X197937784Y-54725201D02*
X198033022Y-54772820D01*
X198223499Y-54772820D01*
X198318737Y-54725201D01*
X198366356Y-54629963D01*
X198366356Y-54249011D01*
X198318737Y-54153773D01*
X198223499Y-54106154D01*
X198033022Y-54106154D01*
X197937784Y-54153773D01*
X197890165Y-54249011D01*
X197890165Y-54344249D01*
X198366356Y-54439487D01*
X197413975Y-53772820D02*
X197509213Y-53963297D01*
X197033022Y-54725201D02*
X196937784Y-54772820D01*
X196747308Y-54772820D01*
X196652070Y-54725201D01*
X196604451Y-54629963D01*
X196604451Y-54582344D01*
X196652070Y-54487106D01*
X196747308Y-54439487D01*
X196890165Y-54439487D01*
X196985403Y-54391868D01*
X197033022Y-54296630D01*
X197033022Y-54249011D01*
X196985403Y-54153773D01*
X196890165Y-54106154D01*
X196747308Y-54106154D01*
X196652070Y-54153773D01*
X195413975Y-53772820D02*
X195413975Y-54582344D01*
X195366356Y-54677582D01*
X195318737Y-54725201D01*
X195223499Y-54772820D01*
X195033022Y-54772820D01*
X194937784Y-54725201D01*
X194890165Y-54677582D01*
X194842546Y-54582344D01*
X194842546Y-53772820D01*
X194509213Y-54106154D02*
X194128260Y-54106154D01*
X194366356Y-53772820D02*
X194366356Y-54629963D01*
X194318737Y-54725201D01*
X194223499Y-54772820D01*
X194128260Y-54772820D01*
X193794927Y-54772820D02*
X193794927Y-54106154D01*
X193794927Y-53772820D02*
X193842546Y-53820440D01*
X193794927Y-53868059D01*
X193747308Y-53820440D01*
X193794927Y-53772820D01*
X193794927Y-53868059D01*
X193175880Y-54772820D02*
X193271118Y-54725201D01*
X193318737Y-54629963D01*
X193318737Y-53772820D01*
X192794927Y-54772820D02*
X192794927Y-54106154D01*
X192794927Y-53772820D02*
X192842546Y-53820440D01*
X192794927Y-53868059D01*
X192747308Y-53820440D01*
X192794927Y-53772820D01*
X192794927Y-53868059D01*
X192461594Y-54106154D02*
X192080641Y-54106154D01*
X192318737Y-53772820D02*
X192318737Y-54629963D01*
X192271118Y-54725201D01*
X192175880Y-54772820D01*
X192080641Y-54772820D01*
X191842546Y-54106154D02*
X191604451Y-54772820D01*
X191366356Y-54106154D02*
X191604451Y-54772820D01*
X191699689Y-55010916D01*
X191747308Y-55058535D01*
X191842546Y-55106154D01*
X190223499Y-54772820D02*
X190223499Y-53772820D01*
X189985403Y-53772820D01*
X189842546Y-53820440D01*
X189747308Y-53915678D01*
X189699689Y-54010916D01*
X189652070Y-54201392D01*
X189652070Y-54344249D01*
X189699689Y-54534725D01*
X189747308Y-54629963D01*
X189842546Y-54725201D01*
X189985403Y-54772820D01*
X190223499Y-54772820D01*
X189223499Y-54772820D02*
X189223499Y-54106154D01*
X189223499Y-53772820D02*
X189271118Y-53820440D01*
X189223499Y-53868059D01*
X189175880Y-53820440D01*
X189223499Y-53772820D01*
X189223499Y-53868059D01*
X188794927Y-54725201D02*
X188699689Y-54772820D01*
X188509213Y-54772820D01*
X188413975Y-54725201D01*
X188366356Y-54629963D01*
X188366356Y-54582344D01*
X188413975Y-54487106D01*
X188509213Y-54439487D01*
X188652070Y-54439487D01*
X188747308Y-54391868D01*
X188794927Y-54296630D01*
X188794927Y-54249011D01*
X188747308Y-54153773D01*
X188652070Y-54106154D01*
X188509213Y-54106154D01*
X188413975Y-54153773D01*
X188080641Y-54106154D02*
X187699689Y-54106154D01*
X187937784Y-53772820D02*
X187937784Y-54629963D01*
X187890165Y-54725201D01*
X187794927Y-54772820D01*
X187699689Y-54772820D01*
X187366356Y-54772820D02*
X187366356Y-54106154D01*
X187366356Y-54296630D02*
X187318737Y-54201392D01*
X187271118Y-54153773D01*
X187175880Y-54106154D01*
X187080641Y-54106154D01*
X186747308Y-54772820D02*
X186747308Y-54106154D01*
X186747308Y-53772820D02*
X186794927Y-53820440D01*
X186747308Y-53868059D01*
X186699689Y-53820440D01*
X186747308Y-53772820D01*
X186747308Y-53868059D01*
X185842546Y-54725201D02*
X185937784Y-54772820D01*
X186128260Y-54772820D01*
X186223499Y-54725201D01*
X186271118Y-54677582D01*
X186318737Y-54582344D01*
X186318737Y-54296630D01*
X186271118Y-54201392D01*
X186223499Y-54153773D01*
X186128260Y-54106154D01*
X185937784Y-54106154D01*
X185842546Y-54153773D01*
X185556832Y-54106154D02*
X185175880Y-54106154D01*
X185413975Y-53772820D02*
X185413975Y-54629963D01*
X185366356Y-54725201D01*
X185271118Y-54772820D01*
X185175880Y-54772820D01*
D11*
X204809900Y-104624360D02*
X179209900Y-104624360D01*
X179209900Y-104624360D02*
X179209900Y-58724360D01*
X204809900Y-104624360D02*
X204809900Y-58724360D01*
X204809900Y-58724360D02*
X179209900Y-58724360D01*
X194509900Y-104924360D02*
X192509900Y-104924360D01*
D12*
X207167288Y-77688440D02*
G75*
G03X207167288Y-77688440I-418908J0D01*
G01*
D13*
X206424580Y-58890440D02*
X217384580Y-58890440D01*
X206424580Y-76890440D02*
X217384580Y-76890440D01*
X181803040Y-134714520D02*
X214313040Y-134714520D01*
X181803040Y-107284520D02*
X214313040Y-107284520D01*
D11*
X207749200Y-102120000D02*
X210289200Y-102120000D01*
X207749200Y-102120000D02*
X207749200Y-99580000D01*
X207999200Y-101870000D02*
X217349200Y-101870000D01*
X207999200Y-83550000D02*
X207999200Y-101870000D01*
X217349200Y-83550000D02*
X207999200Y-83550000D01*
X217349200Y-101870000D02*
X217349200Y-83550000D01*
D10*
X193581185Y-57561740D02*
X193581185Y-56561740D01*
X193200233Y-56561740D01*
X193104995Y-56609360D01*
X193057376Y-56656979D01*
X193009757Y-56752217D01*
X193009757Y-56895074D01*
X193057376Y-56990312D01*
X193104995Y-57037931D01*
X193200233Y-57085550D01*
X193581185Y-57085550D01*
X192628804Y-57514121D02*
X192485947Y-57561740D01*
X192247852Y-57561740D01*
X192152614Y-57514121D01*
X192104995Y-57466502D01*
X192057376Y-57371264D01*
X192057376Y-57276026D01*
X192104995Y-57180788D01*
X192152614Y-57133169D01*
X192247852Y-57085550D01*
X192438328Y-57037931D01*
X192533566Y-56990312D01*
X192581185Y-56942693D01*
X192628804Y-56847455D01*
X192628804Y-56752217D01*
X192581185Y-56656979D01*
X192533566Y-56609360D01*
X192438328Y-56561740D01*
X192200233Y-56561740D01*
X192057376Y-56609360D01*
X191104995Y-57561740D02*
X191676423Y-57561740D01*
X191390709Y-57561740D02*
X191390709Y-56561740D01*
X191485947Y-56704598D01*
X191581185Y-56799836D01*
X191676423Y-56847455D01*
X213577703Y-77140820D02*
X213577703Y-77855106D01*
X213625322Y-77997963D01*
X213720560Y-78093201D01*
X213863418Y-78140820D01*
X213958656Y-78140820D01*
X212577703Y-78140820D02*
X213149132Y-78140820D01*
X212863418Y-78140820D02*
X212863418Y-77140820D01*
X212958656Y-77283678D01*
X213053894Y-77378916D01*
X213149132Y-77426535D01*
X211958656Y-77140820D02*
X211863418Y-77140820D01*
X211768180Y-77188440D01*
X211720560Y-77236059D01*
X211672941Y-77331297D01*
X211625322Y-77521773D01*
X211625322Y-77759868D01*
X211672941Y-77950344D01*
X211720560Y-78045582D01*
X211768180Y-78093201D01*
X211863418Y-78140820D01*
X211958656Y-78140820D01*
X212053894Y-78093201D01*
X212101513Y-78045582D01*
X212149132Y-77950344D01*
X212196751Y-77759868D01*
X212196751Y-77521773D01*
X212149132Y-77331297D01*
X212101513Y-77236059D01*
X212053894Y-77188440D01*
X211958656Y-77140820D01*
X211058237Y-58303420D02*
X211058237Y-57303420D01*
X210486808Y-58303420D01*
X210486808Y-57303420D01*
X210010618Y-57779611D02*
X209677284Y-57779611D01*
X209534427Y-58303420D02*
X210010618Y-58303420D01*
X210010618Y-57303420D01*
X209534427Y-57303420D01*
X209105856Y-57303420D02*
X209105856Y-58112944D01*
X209058237Y-58208182D01*
X209010618Y-58255801D01*
X208915380Y-58303420D01*
X208724903Y-58303420D01*
X208629665Y-58255801D01*
X208582046Y-58208182D01*
X208534427Y-58112944D01*
X208534427Y-57303420D01*
X208201094Y-57303420D02*
X207629665Y-57303420D01*
X207915380Y-58303420D02*
X207915380Y-57303420D01*
X180985420Y-125334520D02*
X180509230Y-125001186D01*
X180985420Y-124763091D02*
X179985420Y-124763091D01*
X179985420Y-125144043D01*
X180033040Y-125239281D01*
X180080659Y-125286900D01*
X180175897Y-125334520D01*
X180318754Y-125334520D01*
X180413992Y-125286900D01*
X180461611Y-125239281D01*
X180509230Y-125144043D01*
X180509230Y-124763091D01*
X180985420Y-126239281D02*
X180985420Y-125763091D01*
X179985420Y-125763091D01*
X180509230Y-126763091D02*
X180985420Y-126763091D01*
X179985420Y-126429758D02*
X180509230Y-126763091D01*
X179985420Y-127096424D01*
X180985420Y-127953567D02*
X180985420Y-127382139D01*
X180985420Y-127667853D02*
X179985420Y-127667853D01*
X180128278Y-127572615D01*
X180223516Y-127477377D01*
X180271135Y-127382139D01*
X213007533Y-102576380D02*
X213007533Y-103290666D01*
X213055152Y-103433523D01*
X213150390Y-103528761D01*
X213293247Y-103576380D01*
X213388485Y-103576380D01*
X212102771Y-102909714D02*
X212102771Y-103576380D01*
X212340866Y-102528761D02*
X212578961Y-103243047D01*
X211959914Y-103243047D01*
M02*
