G04 #@! TF.GenerationSoftware,KiCad,Pcbnew,(5.1.5)-3*
G04 #@! TF.CreationDate,2020-04-22T08:10:39-07:00*
G04 #@! TF.ProjectId,Plug_Pass_120V_arduino_shield,506c7567-5f50-4617-9373-5f313230565f,rev?*
G04 #@! TF.SameCoordinates,Original*
G04 #@! TF.FileFunction,Legend,Top*
G04 #@! TF.FilePolarity,Positive*
%FSLAX46Y46*%
G04 Gerber Fmt 4.6, Leading zero omitted, Abs format (unit mm)*
G04 Created by KiCad (PCBNEW (5.1.5)-3) date 2020-04-22 08:10:39*
%MOMM*%
%LPD*%
G04 APERTURE LIST*
%ADD10C,0.150000*%
%ADD11C,0.120000*%
G04 APERTURE END LIST*
D10*
X93487505Y-64944262D02*
X93439886Y-64991881D01*
X93297029Y-65039500D01*
X93201791Y-65039500D01*
X93058934Y-64991881D01*
X92963696Y-64896643D01*
X92916077Y-64801405D01*
X92868458Y-64610929D01*
X92868458Y-64468072D01*
X92916077Y-64277596D01*
X92963696Y-64182358D01*
X93058934Y-64087120D01*
X93201791Y-64039500D01*
X93297029Y-64039500D01*
X93439886Y-64087120D01*
X93487505Y-64134739D01*
X94058934Y-65039500D02*
X93963696Y-64991881D01*
X93916077Y-64896643D01*
X93916077Y-64039500D01*
X94868458Y-65039500D02*
X94868458Y-64515691D01*
X94820839Y-64420453D01*
X94725600Y-64372834D01*
X94535124Y-64372834D01*
X94439886Y-64420453D01*
X94868458Y-64991881D02*
X94773219Y-65039500D01*
X94535124Y-65039500D01*
X94439886Y-64991881D01*
X94392267Y-64896643D01*
X94392267Y-64801405D01*
X94439886Y-64706167D01*
X94535124Y-64658548D01*
X94773219Y-64658548D01*
X94868458Y-64610929D01*
X95201791Y-64372834D02*
X95582743Y-64372834D01*
X95344648Y-64039500D02*
X95344648Y-64896643D01*
X95392267Y-64991881D01*
X95487505Y-65039500D01*
X95582743Y-65039500D01*
X95868458Y-64991881D02*
X95963696Y-65039500D01*
X96154172Y-65039500D01*
X96249410Y-64991881D01*
X96297029Y-64896643D01*
X96297029Y-64849024D01*
X96249410Y-64753786D01*
X96154172Y-64706167D01*
X96011315Y-64706167D01*
X95916077Y-64658548D01*
X95868458Y-64563310D01*
X95868458Y-64515691D01*
X95916077Y-64420453D01*
X96011315Y-64372834D01*
X96154172Y-64372834D01*
X96249410Y-64420453D01*
X96725600Y-65039500D02*
X96725600Y-64039500D01*
X96820839Y-64658548D02*
X97106553Y-65039500D01*
X97106553Y-64372834D02*
X96725600Y-64753786D01*
X97963696Y-65039500D02*
X97963696Y-64515691D01*
X97916077Y-64420453D01*
X97820839Y-64372834D01*
X97630362Y-64372834D01*
X97535124Y-64420453D01*
X97963696Y-64991881D02*
X97868458Y-65039500D01*
X97630362Y-65039500D01*
X97535124Y-64991881D01*
X97487505Y-64896643D01*
X97487505Y-64801405D01*
X97535124Y-64706167D01*
X97630362Y-64658548D01*
X97868458Y-64658548D01*
X97963696Y-64610929D01*
X98439886Y-64372834D02*
X98439886Y-65039500D01*
X98439886Y-64468072D02*
X98487505Y-64420453D01*
X98582743Y-64372834D01*
X98725600Y-64372834D01*
X98820839Y-64420453D01*
X98868458Y-64515691D01*
X98868458Y-65039500D01*
X99344648Y-65039500D02*
X99344648Y-64372834D01*
X99344648Y-64039500D02*
X99297029Y-64087120D01*
X99344648Y-64134739D01*
X99392267Y-64087120D01*
X99344648Y-64039500D01*
X99344648Y-64134739D01*
X100201791Y-64991881D02*
X100106553Y-65039500D01*
X99916077Y-65039500D01*
X99820839Y-64991881D01*
X99773219Y-64896643D01*
X99773219Y-64515691D01*
X99820839Y-64420453D01*
X99916077Y-64372834D01*
X100106553Y-64372834D01*
X100201791Y-64420453D01*
X100249410Y-64515691D01*
X100249410Y-64610929D01*
X99773219Y-64706167D01*
X101439886Y-65039500D02*
X101439886Y-64039500D01*
X101820839Y-64039500D01*
X101916077Y-64087120D01*
X101963696Y-64134739D01*
X102011315Y-64229977D01*
X102011315Y-64372834D01*
X101963696Y-64468072D01*
X101916077Y-64515691D01*
X101820839Y-64563310D01*
X101439886Y-64563310D01*
X102820839Y-64991881D02*
X102725600Y-65039500D01*
X102535124Y-65039500D01*
X102439886Y-64991881D01*
X102392267Y-64896643D01*
X102392267Y-64515691D01*
X102439886Y-64420453D01*
X102535124Y-64372834D01*
X102725600Y-64372834D01*
X102820839Y-64420453D01*
X102868458Y-64515691D01*
X102868458Y-64610929D01*
X102392267Y-64706167D01*
X103439886Y-65039500D02*
X103344648Y-64991881D01*
X103297029Y-64944262D01*
X103249410Y-64849024D01*
X103249410Y-64563310D01*
X103297029Y-64468072D01*
X103344648Y-64420453D01*
X103439886Y-64372834D01*
X103582743Y-64372834D01*
X103677981Y-64420453D01*
X103725600Y-64468072D01*
X103773219Y-64563310D01*
X103773219Y-64849024D01*
X103725600Y-64944262D01*
X103677981Y-64991881D01*
X103582743Y-65039500D01*
X103439886Y-65039500D01*
X104201791Y-64372834D02*
X104201791Y-65372834D01*
X104201791Y-64420453D02*
X104297029Y-64372834D01*
X104487505Y-64372834D01*
X104582743Y-64420453D01*
X104630362Y-64468072D01*
X104677981Y-64563310D01*
X104677981Y-64849024D01*
X104630362Y-64944262D01*
X104582743Y-64991881D01*
X104487505Y-65039500D01*
X104297029Y-65039500D01*
X104201791Y-64991881D01*
X105249410Y-65039500D02*
X105154172Y-64991881D01*
X105106553Y-64896643D01*
X105106553Y-64039500D01*
X106011315Y-64991881D02*
X105916077Y-65039500D01*
X105725600Y-65039500D01*
X105630362Y-64991881D01*
X105582743Y-64896643D01*
X105582743Y-64515691D01*
X105630362Y-64420453D01*
X105725600Y-64372834D01*
X105916077Y-64372834D01*
X106011315Y-64420453D01*
X106058934Y-64515691D01*
X106058934Y-64610929D01*
X105582743Y-64706167D01*
X106535124Y-64039500D02*
X106439886Y-64229977D01*
X106916077Y-64991881D02*
X107011315Y-65039500D01*
X107201791Y-65039500D01*
X107297029Y-64991881D01*
X107344648Y-64896643D01*
X107344648Y-64849024D01*
X107297029Y-64753786D01*
X107201791Y-64706167D01*
X107058934Y-64706167D01*
X106963696Y-64658548D01*
X106916077Y-64563310D01*
X106916077Y-64515691D01*
X106963696Y-64420453D01*
X107058934Y-64372834D01*
X107201791Y-64372834D01*
X107297029Y-64420453D01*
X108535124Y-64039500D02*
X108535124Y-64849024D01*
X108582743Y-64944262D01*
X108630362Y-64991881D01*
X108725600Y-65039500D01*
X108916077Y-65039500D01*
X109011315Y-64991881D01*
X109058934Y-64944262D01*
X109106553Y-64849024D01*
X109106553Y-64039500D01*
X109439886Y-64372834D02*
X109820839Y-64372834D01*
X109582743Y-64039500D02*
X109582743Y-64896643D01*
X109630362Y-64991881D01*
X109725600Y-65039500D01*
X109820839Y-65039500D01*
X110154172Y-65039500D02*
X110154172Y-64372834D01*
X110154172Y-64039500D02*
X110106553Y-64087120D01*
X110154172Y-64134739D01*
X110201791Y-64087120D01*
X110154172Y-64039500D01*
X110154172Y-64134739D01*
X110773219Y-65039500D02*
X110677981Y-64991881D01*
X110630362Y-64896643D01*
X110630362Y-64039500D01*
X111154172Y-65039500D02*
X111154172Y-64372834D01*
X111154172Y-64039500D02*
X111106553Y-64087120D01*
X111154172Y-64134739D01*
X111201791Y-64087120D01*
X111154172Y-64039500D01*
X111154172Y-64134739D01*
X111487505Y-64372834D02*
X111868458Y-64372834D01*
X111630362Y-64039500D02*
X111630362Y-64896643D01*
X111677981Y-64991881D01*
X111773219Y-65039500D01*
X111868458Y-65039500D01*
X112106553Y-64372834D02*
X112344648Y-65039500D01*
X112582743Y-64372834D02*
X112344648Y-65039500D01*
X112249410Y-65277596D01*
X112201791Y-65325215D01*
X112106553Y-65372834D01*
X113725600Y-65039500D02*
X113725600Y-64039500D01*
X113963696Y-64039500D01*
X114106553Y-64087120D01*
X114201791Y-64182358D01*
X114249410Y-64277596D01*
X114297029Y-64468072D01*
X114297029Y-64610929D01*
X114249410Y-64801405D01*
X114201791Y-64896643D01*
X114106553Y-64991881D01*
X113963696Y-65039500D01*
X113725600Y-65039500D01*
X114725600Y-65039500D02*
X114725600Y-64372834D01*
X114725600Y-64039500D02*
X114677981Y-64087120D01*
X114725600Y-64134739D01*
X114773219Y-64087120D01*
X114725600Y-64039500D01*
X114725600Y-64134739D01*
X115154172Y-64991881D02*
X115249410Y-65039500D01*
X115439886Y-65039500D01*
X115535124Y-64991881D01*
X115582743Y-64896643D01*
X115582743Y-64849024D01*
X115535124Y-64753786D01*
X115439886Y-64706167D01*
X115297029Y-64706167D01*
X115201791Y-64658548D01*
X115154172Y-64563310D01*
X115154172Y-64515691D01*
X115201791Y-64420453D01*
X115297029Y-64372834D01*
X115439886Y-64372834D01*
X115535124Y-64420453D01*
X115868458Y-64372834D02*
X116249410Y-64372834D01*
X116011315Y-64039500D02*
X116011315Y-64896643D01*
X116058934Y-64991881D01*
X116154172Y-65039500D01*
X116249410Y-65039500D01*
X116582743Y-65039500D02*
X116582743Y-64372834D01*
X116582743Y-64563310D02*
X116630362Y-64468072D01*
X116677981Y-64420453D01*
X116773219Y-64372834D01*
X116868458Y-64372834D01*
X117201791Y-65039500D02*
X117201791Y-64372834D01*
X117201791Y-64039500D02*
X117154172Y-64087120D01*
X117201791Y-64134739D01*
X117249410Y-64087120D01*
X117201791Y-64039500D01*
X117201791Y-64134739D01*
X118106553Y-64991881D02*
X118011315Y-65039500D01*
X117820839Y-65039500D01*
X117725600Y-64991881D01*
X117677981Y-64944262D01*
X117630362Y-64849024D01*
X117630362Y-64563310D01*
X117677981Y-64468072D01*
X117725600Y-64420453D01*
X117820839Y-64372834D01*
X118011315Y-64372834D01*
X118106553Y-64420453D01*
X118392267Y-64372834D02*
X118773220Y-64372834D01*
X118535124Y-64039500D02*
X118535124Y-64896643D01*
X118582743Y-64991881D01*
X118677981Y-65039500D01*
X118773220Y-65039500D01*
X101018151Y-122815340D02*
X101018151Y-121815340D01*
X101399103Y-121815340D01*
X101494341Y-121862960D01*
X101541960Y-121910579D01*
X101589580Y-122005817D01*
X101589580Y-122148674D01*
X101541960Y-122243912D01*
X101494341Y-122291531D01*
X101399103Y-122339150D01*
X101018151Y-122339150D01*
X102161008Y-122815340D02*
X102065770Y-122767721D01*
X102018151Y-122672483D01*
X102018151Y-121815340D01*
X102970532Y-122148674D02*
X102970532Y-122815340D01*
X102541960Y-122148674D02*
X102541960Y-122672483D01*
X102589580Y-122767721D01*
X102684818Y-122815340D01*
X102827675Y-122815340D01*
X102922913Y-122767721D01*
X102970532Y-122720102D01*
X103875294Y-122148674D02*
X103875294Y-122958198D01*
X103827675Y-123053436D01*
X103780056Y-123101055D01*
X103684818Y-123148674D01*
X103541960Y-123148674D01*
X103446722Y-123101055D01*
X103875294Y-122767721D02*
X103780056Y-122815340D01*
X103589580Y-122815340D01*
X103494341Y-122767721D01*
X103446722Y-122720102D01*
X103399103Y-122624864D01*
X103399103Y-122339150D01*
X103446722Y-122243912D01*
X103494341Y-122196293D01*
X103589580Y-122148674D01*
X103780056Y-122148674D01*
X103875294Y-122196293D01*
X105113389Y-122815340D02*
X105113389Y-121815340D01*
X105494341Y-121815340D01*
X105589580Y-121862960D01*
X105637199Y-121910579D01*
X105684818Y-122005817D01*
X105684818Y-122148674D01*
X105637199Y-122243912D01*
X105589580Y-122291531D01*
X105494341Y-122339150D01*
X105113389Y-122339150D01*
X106541960Y-122815340D02*
X106541960Y-122291531D01*
X106494341Y-122196293D01*
X106399103Y-122148674D01*
X106208627Y-122148674D01*
X106113389Y-122196293D01*
X106541960Y-122767721D02*
X106446722Y-122815340D01*
X106208627Y-122815340D01*
X106113389Y-122767721D01*
X106065770Y-122672483D01*
X106065770Y-122577245D01*
X106113389Y-122482007D01*
X106208627Y-122434388D01*
X106446722Y-122434388D01*
X106541960Y-122386769D01*
X106970532Y-122767721D02*
X107065770Y-122815340D01*
X107256246Y-122815340D01*
X107351484Y-122767721D01*
X107399103Y-122672483D01*
X107399103Y-122624864D01*
X107351484Y-122529626D01*
X107256246Y-122482007D01*
X107113389Y-122482007D01*
X107018151Y-122434388D01*
X106970532Y-122339150D01*
X106970532Y-122291531D01*
X107018151Y-122196293D01*
X107113389Y-122148674D01*
X107256246Y-122148674D01*
X107351484Y-122196293D01*
X107780056Y-122767721D02*
X107875294Y-122815340D01*
X108065770Y-122815340D01*
X108161008Y-122767721D01*
X108208627Y-122672483D01*
X108208627Y-122624864D01*
X108161008Y-122529626D01*
X108065770Y-122482007D01*
X107922913Y-122482007D01*
X107827675Y-122434388D01*
X107780056Y-122339150D01*
X107780056Y-122291531D01*
X107827675Y-122196293D01*
X107922913Y-122148674D01*
X108065770Y-122148674D01*
X108161008Y-122196293D01*
X100494341Y-123798674D02*
X100732437Y-124465340D01*
X100970532Y-123798674D01*
X101732437Y-124417721D02*
X101637199Y-124465340D01*
X101446722Y-124465340D01*
X101351484Y-124417721D01*
X101303865Y-124322483D01*
X101303865Y-123941531D01*
X101351484Y-123846293D01*
X101446722Y-123798674D01*
X101637199Y-123798674D01*
X101732437Y-123846293D01*
X101780056Y-123941531D01*
X101780056Y-124036769D01*
X101303865Y-124132007D01*
X102208627Y-124465340D02*
X102208627Y-123798674D01*
X102208627Y-123989150D02*
X102256246Y-123893912D01*
X102303865Y-123846293D01*
X102399103Y-123798674D01*
X102494341Y-123798674D01*
X102780056Y-124417721D02*
X102875294Y-124465340D01*
X103065770Y-124465340D01*
X103161008Y-124417721D01*
X103208627Y-124322483D01*
X103208627Y-124274864D01*
X103161008Y-124179626D01*
X103065770Y-124132007D01*
X102922913Y-124132007D01*
X102827675Y-124084388D01*
X102780056Y-123989150D01*
X102780056Y-123941531D01*
X102827675Y-123846293D01*
X102922913Y-123798674D01*
X103065770Y-123798674D01*
X103161008Y-123846293D01*
X103637199Y-124465340D02*
X103637199Y-123798674D01*
X103637199Y-123465340D02*
X103589580Y-123512960D01*
X103637199Y-123560579D01*
X103684818Y-123512960D01*
X103637199Y-123465340D01*
X103637199Y-123560579D01*
X104256246Y-124465340D02*
X104161008Y-124417721D01*
X104113389Y-124370102D01*
X104065770Y-124274864D01*
X104065770Y-123989150D01*
X104113389Y-123893912D01*
X104161008Y-123846293D01*
X104256246Y-123798674D01*
X104399103Y-123798674D01*
X104494341Y-123846293D01*
X104541960Y-123893912D01*
X104589580Y-123989150D01*
X104589580Y-124274864D01*
X104541960Y-124370102D01*
X104494341Y-124417721D01*
X104399103Y-124465340D01*
X104256246Y-124465340D01*
X105018151Y-123798674D02*
X105018151Y-124465340D01*
X105018151Y-123893912D02*
X105065770Y-123846293D01*
X105161008Y-123798674D01*
X105303865Y-123798674D01*
X105399103Y-123846293D01*
X105446722Y-123941531D01*
X105446722Y-124465340D01*
X107208627Y-124465340D02*
X106637199Y-124465340D01*
X106922913Y-124465340D02*
X106922913Y-123465340D01*
X106827675Y-123608198D01*
X106732437Y-123703436D01*
X106637199Y-123751055D01*
X107637199Y-124370102D02*
X107684818Y-124417721D01*
X107637199Y-124465340D01*
X107589580Y-124417721D01*
X107637199Y-124370102D01*
X107637199Y-124465340D01*
X108303865Y-123465340D02*
X108399103Y-123465340D01*
X108494341Y-123512960D01*
X108541960Y-123560579D01*
X108589580Y-123655817D01*
X108637199Y-123846293D01*
X108637199Y-124084388D01*
X108589580Y-124274864D01*
X108541960Y-124370102D01*
X108494341Y-124417721D01*
X108399103Y-124465340D01*
X108303865Y-124465340D01*
X108208627Y-124417721D01*
X108161008Y-124370102D01*
X108113389Y-124274864D01*
X108065770Y-124084388D01*
X108065770Y-123846293D01*
X108113389Y-123655817D01*
X108161008Y-123560579D01*
X108208627Y-123512960D01*
X108303865Y-123465340D01*
X92708627Y-126115340D02*
X92137199Y-126115340D01*
X92422913Y-126115340D02*
X92422913Y-125115340D01*
X92327675Y-125258198D01*
X92232437Y-125353436D01*
X92137199Y-125401055D01*
X93089580Y-125210579D02*
X93137199Y-125162960D01*
X93232437Y-125115340D01*
X93470532Y-125115340D01*
X93565770Y-125162960D01*
X93613389Y-125210579D01*
X93661008Y-125305817D01*
X93661008Y-125401055D01*
X93613389Y-125543912D01*
X93041960Y-126115340D01*
X93661008Y-126115340D01*
X94280056Y-125115340D02*
X94375294Y-125115340D01*
X94470532Y-125162960D01*
X94518151Y-125210579D01*
X94565770Y-125305817D01*
X94613389Y-125496293D01*
X94613389Y-125734388D01*
X94565770Y-125924864D01*
X94518151Y-126020102D01*
X94470532Y-126067721D01*
X94375294Y-126115340D01*
X94280056Y-126115340D01*
X94184818Y-126067721D01*
X94137199Y-126020102D01*
X94089580Y-125924864D01*
X94041960Y-125734388D01*
X94041960Y-125496293D01*
X94089580Y-125305817D01*
X94137199Y-125210579D01*
X94184818Y-125162960D01*
X94280056Y-125115340D01*
X94899103Y-125115340D02*
X95232437Y-126115340D01*
X95565770Y-125115340D01*
X96851484Y-125115340D02*
X97041960Y-125115340D01*
X97137199Y-125162960D01*
X97232437Y-125258198D01*
X97280056Y-125448674D01*
X97280056Y-125782007D01*
X97232437Y-125972483D01*
X97137199Y-126067721D01*
X97041960Y-126115340D01*
X96851484Y-126115340D01*
X96756246Y-126067721D01*
X96661008Y-125972483D01*
X96613389Y-125782007D01*
X96613389Y-125448674D01*
X96661008Y-125258198D01*
X96756246Y-125162960D01*
X96851484Y-125115340D01*
X98137199Y-125448674D02*
X98137199Y-126115340D01*
X97708627Y-125448674D02*
X97708627Y-125972483D01*
X97756246Y-126067721D01*
X97851484Y-126115340D01*
X97994341Y-126115340D01*
X98089580Y-126067721D01*
X98137199Y-126020102D01*
X98470532Y-125448674D02*
X98851484Y-125448674D01*
X98613389Y-125115340D02*
X98613389Y-125972483D01*
X98661008Y-126067721D01*
X98756246Y-126115340D01*
X98851484Y-126115340D01*
X99327675Y-126115340D02*
X99232437Y-126067721D01*
X99184818Y-125972483D01*
X99184818Y-125115340D01*
X100089580Y-126067721D02*
X99994341Y-126115340D01*
X99803865Y-126115340D01*
X99708627Y-126067721D01*
X99661008Y-125972483D01*
X99661008Y-125591531D01*
X99708627Y-125496293D01*
X99803865Y-125448674D01*
X99994341Y-125448674D01*
X100089580Y-125496293D01*
X100137199Y-125591531D01*
X100137199Y-125686769D01*
X99661008Y-125782007D01*
X100422913Y-125448674D02*
X100803865Y-125448674D01*
X100565770Y-125115340D02*
X100565770Y-125972483D01*
X100613389Y-126067721D01*
X100708627Y-126115340D01*
X100803865Y-126115340D01*
X102470532Y-126115340D02*
X102137199Y-125639150D01*
X101899103Y-126115340D02*
X101899103Y-125115340D01*
X102280056Y-125115340D01*
X102375294Y-125162960D01*
X102422913Y-125210579D01*
X102470532Y-125305817D01*
X102470532Y-125448674D01*
X102422913Y-125543912D01*
X102375294Y-125591531D01*
X102280056Y-125639150D01*
X101899103Y-125639150D01*
X103232437Y-125591531D02*
X102899103Y-125591531D01*
X102899103Y-126115340D02*
X102899103Y-125115340D01*
X103375294Y-125115340D01*
X103756246Y-126115340D02*
X103756246Y-125115340D01*
X104232437Y-126115340D02*
X104232437Y-125115340D01*
X104470532Y-125115340D01*
X104613389Y-125162960D01*
X104708627Y-125258198D01*
X104756246Y-125353436D01*
X104803865Y-125543912D01*
X104803865Y-125686769D01*
X104756246Y-125877245D01*
X104708627Y-125972483D01*
X104613389Y-126067721D01*
X104470532Y-126115340D01*
X104232437Y-126115340D01*
X106422913Y-126067721D02*
X106327675Y-126115340D01*
X106137199Y-126115340D01*
X106041960Y-126067721D01*
X105994341Y-126020102D01*
X105946722Y-125924864D01*
X105946722Y-125639150D01*
X105994341Y-125543912D01*
X106041960Y-125496293D01*
X106137199Y-125448674D01*
X106327675Y-125448674D01*
X106422913Y-125496293D01*
X106994341Y-126115340D02*
X106899103Y-126067721D01*
X106851484Y-126020102D01*
X106803865Y-125924864D01*
X106803865Y-125639150D01*
X106851484Y-125543912D01*
X106899103Y-125496293D01*
X106994341Y-125448674D01*
X107137199Y-125448674D01*
X107232437Y-125496293D01*
X107280056Y-125543912D01*
X107327675Y-125639150D01*
X107327675Y-125924864D01*
X107280056Y-126020102D01*
X107232437Y-126067721D01*
X107137199Y-126115340D01*
X106994341Y-126115340D01*
X107756246Y-125448674D02*
X107756246Y-126115340D01*
X107756246Y-125543912D02*
X107803865Y-125496293D01*
X107899103Y-125448674D01*
X108041960Y-125448674D01*
X108137199Y-125496293D01*
X108184818Y-125591531D01*
X108184818Y-126115340D01*
X108518151Y-125448674D02*
X108899103Y-125448674D01*
X108661008Y-125115340D02*
X108661008Y-125972483D01*
X108708627Y-126067721D01*
X108803865Y-126115340D01*
X108899103Y-126115340D01*
X109232437Y-126115340D02*
X109232437Y-125448674D01*
X109232437Y-125639150D02*
X109280056Y-125543912D01*
X109327675Y-125496293D01*
X109422913Y-125448674D01*
X109518151Y-125448674D01*
X109994341Y-126115340D02*
X109899103Y-126067721D01*
X109851484Y-126020102D01*
X109803865Y-125924864D01*
X109803865Y-125639150D01*
X109851484Y-125543912D01*
X109899103Y-125496293D01*
X109994341Y-125448674D01*
X110137199Y-125448674D01*
X110232437Y-125496293D01*
X110280056Y-125543912D01*
X110327675Y-125639150D01*
X110327675Y-125924864D01*
X110280056Y-126020102D01*
X110232437Y-126067721D01*
X110137199Y-126115340D01*
X109994341Y-126115340D01*
X110899103Y-126115340D02*
X110803865Y-126067721D01*
X110756246Y-125972483D01*
X110756246Y-125115340D01*
X112041960Y-126115340D02*
X112041960Y-125448674D01*
X112041960Y-125543912D02*
X112089579Y-125496293D01*
X112184818Y-125448674D01*
X112327675Y-125448674D01*
X112422913Y-125496293D01*
X112470532Y-125591531D01*
X112470532Y-126115340D01*
X112470532Y-125591531D02*
X112518151Y-125496293D01*
X112613389Y-125448674D01*
X112756246Y-125448674D01*
X112851484Y-125496293D01*
X112899103Y-125591531D01*
X112899103Y-126115340D01*
X113518151Y-126115340D02*
X113422913Y-126067721D01*
X113375294Y-126020102D01*
X113327675Y-125924864D01*
X113327675Y-125639150D01*
X113375294Y-125543912D01*
X113422913Y-125496293D01*
X113518151Y-125448674D01*
X113661008Y-125448674D01*
X113756246Y-125496293D01*
X113803865Y-125543912D01*
X113851484Y-125639150D01*
X113851484Y-125924864D01*
X113803865Y-126020102D01*
X113756246Y-126067721D01*
X113661008Y-126115340D01*
X113518151Y-126115340D01*
X114708627Y-126115340D02*
X114708627Y-125115340D01*
X114708627Y-126067721D02*
X114613389Y-126115340D01*
X114422913Y-126115340D01*
X114327675Y-126067721D01*
X114280056Y-126020102D01*
X114232437Y-125924864D01*
X114232437Y-125639150D01*
X114280056Y-125543912D01*
X114327675Y-125496293D01*
X114422913Y-125448674D01*
X114613389Y-125448674D01*
X114708627Y-125496293D01*
X115613389Y-125448674D02*
X115613389Y-126115340D01*
X115184818Y-125448674D02*
X115184818Y-125972483D01*
X115232437Y-126067721D01*
X115327675Y-126115340D01*
X115470532Y-126115340D01*
X115565770Y-126067721D01*
X115613389Y-126020102D01*
X116232437Y-126115340D02*
X116137199Y-126067721D01*
X116089579Y-125972483D01*
X116089579Y-125115340D01*
X116994341Y-126067721D02*
X116899103Y-126115340D01*
X116708627Y-126115340D01*
X116613389Y-126067721D01*
X116565770Y-125972483D01*
X116565770Y-125591531D01*
X116613389Y-125496293D01*
X116708627Y-125448674D01*
X116899103Y-125448674D01*
X116994341Y-125496293D01*
X117041960Y-125591531D01*
X117041960Y-125686769D01*
X116565770Y-125782007D01*
D11*
X113792460Y-72895000D02*
X95752460Y-72895000D01*
X113792460Y-116335000D02*
X113792460Y-72895000D01*
X95752460Y-116335000D02*
X113792460Y-116335000D01*
X98422460Y-113665000D02*
X95752460Y-113665000D01*
X98422460Y-78105000D02*
X98422460Y-113665000D01*
X98422460Y-78105000D02*
X95752460Y-78105000D01*
X111122460Y-113665000D02*
X113792460Y-113665000D01*
X111122460Y-75565000D02*
X111122460Y-113665000D01*
X111122460Y-75565000D02*
X113792460Y-75565000D01*
X95752460Y-72895000D02*
X95752460Y-75565000D01*
X95752460Y-78105000D02*
X95752460Y-116335000D01*
X98422460Y-75565000D02*
X95752460Y-75565000D01*
X98422460Y-78105000D02*
X98422460Y-75565000D01*
X118488460Y-70933000D02*
X119818460Y-70933000D01*
X119818460Y-70933000D02*
X119818460Y-72263000D01*
X119818460Y-73533000D02*
X119818460Y-86293000D01*
X117158460Y-86293000D02*
X119818460Y-86293000D01*
X117158460Y-73533000D02*
X117158460Y-86293000D01*
X117158460Y-73533000D02*
X119818460Y-73533000D01*
X91183460Y-101032000D02*
X92513460Y-101032000D01*
X92513460Y-101032000D02*
X92513460Y-102362000D01*
X92513460Y-103632000D02*
X92513460Y-121472000D01*
X89853460Y-121472000D02*
X92513460Y-121472000D01*
X89853460Y-103632000D02*
X89853460Y-121472000D01*
X89853460Y-103632000D02*
X92513460Y-103632000D01*
D10*
X104058174Y-71921666D02*
X104534364Y-71921666D01*
X103962936Y-72207380D02*
X104296269Y-71207380D01*
X104629602Y-72207380D01*
X105486745Y-72207380D02*
X104915317Y-72207380D01*
X105201031Y-72207380D02*
X105201031Y-71207380D01*
X105105793Y-71350238D01*
X105010555Y-71445476D01*
X104915317Y-71493095D01*
X118155126Y-68945380D02*
X118155126Y-69659666D01*
X118107507Y-69802523D01*
X118012269Y-69897761D01*
X117869412Y-69945380D01*
X117774174Y-69945380D01*
X119155126Y-69945380D02*
X118583698Y-69945380D01*
X118869412Y-69945380D02*
X118869412Y-68945380D01*
X118774174Y-69088238D01*
X118678936Y-69183476D01*
X118583698Y-69231095D01*
X88415880Y-121625953D02*
X89130166Y-121625953D01*
X89273023Y-121673572D01*
X89368261Y-121768810D01*
X89415880Y-121911667D01*
X89415880Y-122006905D01*
X88511119Y-121197381D02*
X88463500Y-121149762D01*
X88415880Y-121054524D01*
X88415880Y-120816429D01*
X88463500Y-120721191D01*
X88511119Y-120673572D01*
X88606357Y-120625953D01*
X88701595Y-120625953D01*
X88844452Y-120673572D01*
X89415880Y-121245000D01*
X89415880Y-120625953D01*
M02*
