G04 #@! TF.GenerationSoftware,KiCad,Pcbnew,(5.1.5)-3*
G04 #@! TF.CreationDate,2020-04-22T08:06:24-07:00*
G04 #@! TF.ProjectId,Plug_Pass_120V_AC_shield,506c7567-5f50-4617-9373-5f313230565f,rev?*
G04 #@! TF.SameCoordinates,Original*
G04 #@! TF.FileFunction,Soldermask,Top*
G04 #@! TF.FilePolarity,Negative*
%FSLAX46Y46*%
G04 Gerber Fmt 4.6, Leading zero omitted, Abs format (unit mm)*
G04 Created by KiCad (PCBNEW (5.1.5)-3) date 2020-04-22 08:06:24*
%MOMM*%
%LPD*%
G04 APERTURE LIST*
%ADD10C,0.100000*%
G04 APERTURE END LIST*
D10*
G36*
X197323840Y-133215320D02*
G01*
X193722240Y-133215320D01*
X193722240Y-129613720D01*
X197323840Y-129613720D01*
X197323840Y-133215320D01*
G37*
G36*
X208602469Y-126353709D02*
G01*
X208839200Y-126451766D01*
X209052252Y-126594123D01*
X209233437Y-126775308D01*
X209375794Y-126988360D01*
X209473851Y-127225091D01*
X209523840Y-127476402D01*
X209523840Y-127732638D01*
X209473851Y-127983949D01*
X209375794Y-128220680D01*
X209233437Y-128433732D01*
X209052252Y-128614917D01*
X208839200Y-128757274D01*
X208602469Y-128855331D01*
X208351158Y-128905320D01*
X208094922Y-128905320D01*
X207843611Y-128855331D01*
X207606880Y-128757274D01*
X207393828Y-128614917D01*
X207212643Y-128433732D01*
X207070286Y-128220680D01*
X206972229Y-127983949D01*
X206922240Y-127732638D01*
X206922240Y-127476402D01*
X206972229Y-127225091D01*
X207070286Y-126988360D01*
X207212643Y-126775308D01*
X207393828Y-126594123D01*
X207606880Y-126451766D01*
X207843611Y-126353709D01*
X208094922Y-126303720D01*
X208351158Y-126303720D01*
X208602469Y-126353709D01*
G37*
G36*
X208602469Y-116193709D02*
G01*
X208839200Y-116291766D01*
X209052252Y-116434123D01*
X209233437Y-116615308D01*
X209375794Y-116828360D01*
X209473851Y-117065091D01*
X209523840Y-117316402D01*
X209523840Y-117572638D01*
X209473851Y-117823949D01*
X209375794Y-118060680D01*
X209233437Y-118273732D01*
X209052252Y-118454917D01*
X208839200Y-118597274D01*
X208602469Y-118695331D01*
X208351158Y-118745320D01*
X208094922Y-118745320D01*
X207843611Y-118695331D01*
X207606880Y-118597274D01*
X207393828Y-118454917D01*
X207212643Y-118273732D01*
X207070286Y-118060680D01*
X206972229Y-117823949D01*
X206922240Y-117572638D01*
X206922240Y-117316402D01*
X206972229Y-117065091D01*
X207070286Y-116828360D01*
X207212643Y-116615308D01*
X207393828Y-116434123D01*
X207606880Y-116291766D01*
X207843611Y-116193709D01*
X208094922Y-116143720D01*
X208351158Y-116143720D01*
X208602469Y-116193709D01*
G37*
G36*
X193292662Y-111758069D02*
G01*
X193537485Y-111806767D01*
X193883407Y-111950053D01*
X194194730Y-112158072D01*
X194459488Y-112422830D01*
X194667507Y-112734153D01*
X194810793Y-113080075D01*
X194883840Y-113447309D01*
X194883840Y-113821731D01*
X194810793Y-114188965D01*
X194667507Y-114534887D01*
X194459488Y-114846210D01*
X194194730Y-115110968D01*
X193883407Y-115318987D01*
X193537485Y-115462273D01*
X193292662Y-115510971D01*
X193170252Y-115535320D01*
X192795828Y-115535320D01*
X192673418Y-115510971D01*
X192428595Y-115462273D01*
X192082673Y-115318987D01*
X191771350Y-115110968D01*
X191506592Y-114846210D01*
X191298573Y-114534887D01*
X191155287Y-114188965D01*
X191082240Y-113821731D01*
X191082240Y-113447309D01*
X191155287Y-113080075D01*
X191298573Y-112734153D01*
X191506592Y-112422830D01*
X191771350Y-112158072D01*
X192082673Y-111950053D01*
X192428595Y-111806767D01*
X192673418Y-111758069D01*
X192795828Y-111733720D01*
X193170252Y-111733720D01*
X193292662Y-111758069D01*
G37*
G36*
X185672662Y-111758069D02*
G01*
X185917485Y-111806767D01*
X186263407Y-111950053D01*
X186574730Y-112158072D01*
X186839488Y-112422830D01*
X187047507Y-112734153D01*
X187190793Y-113080075D01*
X187263840Y-113447309D01*
X187263840Y-113821731D01*
X187190793Y-114188965D01*
X187047507Y-114534887D01*
X186839488Y-114846210D01*
X186574730Y-115110968D01*
X186263407Y-115318987D01*
X185917485Y-115462273D01*
X185672662Y-115510971D01*
X185550252Y-115535320D01*
X185175828Y-115535320D01*
X185053418Y-115510971D01*
X184808595Y-115462273D01*
X184462673Y-115318987D01*
X184151350Y-115110968D01*
X183886592Y-114846210D01*
X183678573Y-114534887D01*
X183535287Y-114188965D01*
X183462240Y-113821731D01*
X183462240Y-113447309D01*
X183535287Y-113080075D01*
X183678573Y-112734153D01*
X183886592Y-112422830D01*
X184151350Y-112158072D01*
X184462673Y-111950053D01*
X184808595Y-111806767D01*
X185053418Y-111758069D01*
X185175828Y-111733720D01*
X185550252Y-111733720D01*
X185672662Y-111758069D01*
G37*
G36*
X195060700Y-102475160D02*
G01*
X191959100Y-102475160D01*
X191959100Y-99373560D01*
X195060700Y-99373560D01*
X195060700Y-102475160D01*
G37*
G36*
X183212252Y-99433156D02*
G01*
X183212255Y-99433157D01*
X183212254Y-99433157D01*
X183494480Y-99550059D01*
X183748478Y-99719775D01*
X183964485Y-99935782D01*
X184134201Y-100189780D01*
X184134201Y-100189781D01*
X184251104Y-100472008D01*
X184310700Y-100771619D01*
X184310700Y-101077101D01*
X184251104Y-101376712D01*
X184251103Y-101376714D01*
X184134201Y-101658940D01*
X183964485Y-101912938D01*
X183748478Y-102128945D01*
X183494480Y-102298661D01*
X183294914Y-102381324D01*
X183212252Y-102415564D01*
X182912641Y-102475160D01*
X182607159Y-102475160D01*
X182307548Y-102415564D01*
X182224886Y-102381324D01*
X182025320Y-102298661D01*
X181771322Y-102128945D01*
X181555315Y-101912938D01*
X181385599Y-101658940D01*
X181268697Y-101376714D01*
X181268696Y-101376712D01*
X181209100Y-101077101D01*
X181209100Y-100771619D01*
X181268696Y-100472008D01*
X181385599Y-100189781D01*
X181385599Y-100189780D01*
X181555315Y-99935782D01*
X181771322Y-99719775D01*
X182025320Y-99550059D01*
X182307546Y-99433157D01*
X182307545Y-99433157D01*
X182307548Y-99433156D01*
X182607159Y-99373560D01*
X182912641Y-99373560D01*
X183212252Y-99433156D01*
G37*
G36*
X212318600Y-97434400D02*
G01*
X210489800Y-97434400D01*
X210489800Y-95605600D01*
X212318600Y-95605600D01*
X212318600Y-97434400D01*
G37*
G36*
X214122591Y-95623170D02*
G01*
X214210923Y-95640740D01*
X214377331Y-95709669D01*
X214527096Y-95809739D01*
X214654461Y-95937104D01*
X214754531Y-96086869D01*
X214823460Y-96253277D01*
X214858600Y-96429941D01*
X214858600Y-96610059D01*
X214823460Y-96786723D01*
X214754531Y-96953131D01*
X214654461Y-97102896D01*
X214527096Y-97230261D01*
X214377331Y-97330331D01*
X214210923Y-97399260D01*
X214122591Y-97416830D01*
X214034261Y-97434400D01*
X213854139Y-97434400D01*
X213765809Y-97416830D01*
X213677477Y-97399260D01*
X213511069Y-97330331D01*
X213361304Y-97230261D01*
X213233939Y-97102896D01*
X213133869Y-96953131D01*
X213064940Y-96786723D01*
X213029800Y-96610059D01*
X213029800Y-96429941D01*
X213064940Y-96253277D01*
X213133869Y-96086869D01*
X213233939Y-95937104D01*
X213361304Y-95809739D01*
X213511069Y-95709669D01*
X213677477Y-95640740D01*
X213765809Y-95623170D01*
X213854139Y-95605600D01*
X214034261Y-95605600D01*
X214122591Y-95623170D01*
G37*
G36*
X211582591Y-93083170D02*
G01*
X211670923Y-93100740D01*
X211837331Y-93169669D01*
X211987096Y-93269739D01*
X212114461Y-93397104D01*
X212214531Y-93546869D01*
X212283460Y-93713277D01*
X212318600Y-93889941D01*
X212318600Y-94070059D01*
X212283460Y-94246723D01*
X212214531Y-94413131D01*
X212114461Y-94562896D01*
X211987096Y-94690261D01*
X211837331Y-94790331D01*
X211670923Y-94859260D01*
X211582591Y-94876830D01*
X211494261Y-94894400D01*
X211314139Y-94894400D01*
X211225809Y-94876830D01*
X211137477Y-94859260D01*
X210971069Y-94790331D01*
X210821304Y-94690261D01*
X210693939Y-94562896D01*
X210593869Y-94413131D01*
X210524940Y-94246723D01*
X210489800Y-94070059D01*
X210489800Y-93889941D01*
X210524940Y-93713277D01*
X210593869Y-93546869D01*
X210693939Y-93397104D01*
X210821304Y-93269739D01*
X210971069Y-93169669D01*
X211137477Y-93100740D01*
X211225809Y-93083170D01*
X211314139Y-93065600D01*
X211494261Y-93065600D01*
X211582591Y-93083170D01*
G37*
G36*
X214122591Y-93083170D02*
G01*
X214210923Y-93100740D01*
X214377331Y-93169669D01*
X214527096Y-93269739D01*
X214654461Y-93397104D01*
X214754531Y-93546869D01*
X214823460Y-93713277D01*
X214858600Y-93889941D01*
X214858600Y-94070059D01*
X214823460Y-94246723D01*
X214754531Y-94413131D01*
X214654461Y-94562896D01*
X214527096Y-94690261D01*
X214377331Y-94790331D01*
X214210923Y-94859260D01*
X214122591Y-94876830D01*
X214034261Y-94894400D01*
X213854139Y-94894400D01*
X213765809Y-94876830D01*
X213677477Y-94859260D01*
X213511069Y-94790331D01*
X213361304Y-94690261D01*
X213233939Y-94562896D01*
X213133869Y-94413131D01*
X213064940Y-94246723D01*
X213029800Y-94070059D01*
X213029800Y-93889941D01*
X213064940Y-93713277D01*
X213133869Y-93546869D01*
X213233939Y-93397104D01*
X213361304Y-93269739D01*
X213511069Y-93169669D01*
X213677477Y-93100740D01*
X213765809Y-93083170D01*
X213854139Y-93065600D01*
X214034261Y-93065600D01*
X214122591Y-93083170D01*
G37*
G36*
X211582591Y-90543170D02*
G01*
X211670923Y-90560740D01*
X211837331Y-90629669D01*
X211987096Y-90729739D01*
X212114461Y-90857104D01*
X212214531Y-91006869D01*
X212283460Y-91173277D01*
X212318600Y-91349941D01*
X212318600Y-91530059D01*
X212283460Y-91706723D01*
X212214531Y-91873131D01*
X212114461Y-92022896D01*
X211987096Y-92150261D01*
X211837331Y-92250331D01*
X211670923Y-92319260D01*
X211582591Y-92336830D01*
X211494261Y-92354400D01*
X211314139Y-92354400D01*
X211225809Y-92336830D01*
X211137477Y-92319260D01*
X210971069Y-92250331D01*
X210821304Y-92150261D01*
X210693939Y-92022896D01*
X210593869Y-91873131D01*
X210524940Y-91706723D01*
X210489800Y-91530059D01*
X210489800Y-91349941D01*
X210524940Y-91173277D01*
X210593869Y-91006869D01*
X210693939Y-90857104D01*
X210821304Y-90729739D01*
X210971069Y-90629669D01*
X211137477Y-90560740D01*
X211225809Y-90543170D01*
X211314139Y-90525600D01*
X211494261Y-90525600D01*
X211582591Y-90543170D01*
G37*
G36*
X214122591Y-90543170D02*
G01*
X214210923Y-90560740D01*
X214377331Y-90629669D01*
X214527096Y-90729739D01*
X214654461Y-90857104D01*
X214754531Y-91006869D01*
X214823460Y-91173277D01*
X214858600Y-91349941D01*
X214858600Y-91530059D01*
X214823460Y-91706723D01*
X214754531Y-91873131D01*
X214654461Y-92022896D01*
X214527096Y-92150261D01*
X214377331Y-92250331D01*
X214210923Y-92319260D01*
X214122591Y-92336830D01*
X214034261Y-92354400D01*
X213854139Y-92354400D01*
X213765809Y-92336830D01*
X213677477Y-92319260D01*
X213511069Y-92250331D01*
X213361304Y-92150261D01*
X213233939Y-92022896D01*
X213133869Y-91873131D01*
X213064940Y-91706723D01*
X213029800Y-91530059D01*
X213029800Y-91349941D01*
X213064940Y-91173277D01*
X213133869Y-91006869D01*
X213233939Y-90857104D01*
X213361304Y-90729739D01*
X213511069Y-90629669D01*
X213677477Y-90560740D01*
X213765809Y-90543170D01*
X213854139Y-90525600D01*
X214034261Y-90525600D01*
X214122591Y-90543170D01*
G37*
G36*
X214122591Y-88003170D02*
G01*
X214210923Y-88020740D01*
X214377331Y-88089669D01*
X214527096Y-88189739D01*
X214654461Y-88317104D01*
X214754531Y-88466869D01*
X214823460Y-88633277D01*
X214858600Y-88809941D01*
X214858600Y-88990059D01*
X214823460Y-89166723D01*
X214754531Y-89333131D01*
X214654461Y-89482896D01*
X214527096Y-89610261D01*
X214377331Y-89710331D01*
X214210923Y-89779260D01*
X214122591Y-89796830D01*
X214034261Y-89814400D01*
X213854139Y-89814400D01*
X213765809Y-89796830D01*
X213677477Y-89779260D01*
X213511069Y-89710331D01*
X213361304Y-89610261D01*
X213233939Y-89482896D01*
X213133869Y-89333131D01*
X213064940Y-89166723D01*
X213029800Y-88990059D01*
X213029800Y-88809941D01*
X213064940Y-88633277D01*
X213133869Y-88466869D01*
X213233939Y-88317104D01*
X213361304Y-88189739D01*
X213511069Y-88089669D01*
X213677477Y-88020740D01*
X213765809Y-88003170D01*
X213854139Y-87985600D01*
X214034261Y-87985600D01*
X214122591Y-88003170D01*
G37*
G36*
X211582591Y-88003170D02*
G01*
X211670923Y-88020740D01*
X211837331Y-88089669D01*
X211987096Y-88189739D01*
X212114461Y-88317104D01*
X212214531Y-88466869D01*
X212283460Y-88633277D01*
X212318600Y-88809941D01*
X212318600Y-88990059D01*
X212283460Y-89166723D01*
X212214531Y-89333131D01*
X212114461Y-89482896D01*
X211987096Y-89610261D01*
X211837331Y-89710331D01*
X211670923Y-89779260D01*
X211582591Y-89796830D01*
X211494261Y-89814400D01*
X211314139Y-89814400D01*
X211225809Y-89796830D01*
X211137477Y-89779260D01*
X210971069Y-89710331D01*
X210821304Y-89610261D01*
X210693939Y-89482896D01*
X210593869Y-89333131D01*
X210524940Y-89166723D01*
X210489800Y-88990059D01*
X210489800Y-88809941D01*
X210524940Y-88633277D01*
X210593869Y-88466869D01*
X210693939Y-88317104D01*
X210821304Y-88189739D01*
X210971069Y-88089669D01*
X211137477Y-88020740D01*
X211225809Y-88003170D01*
X211314139Y-87985600D01*
X211494261Y-87985600D01*
X211582591Y-88003170D01*
G37*
G36*
X210915380Y-76191240D02*
G01*
X207813780Y-76191240D01*
X207813780Y-73089640D01*
X210915380Y-73089640D01*
X210915380Y-76191240D01*
G37*
G36*
X214896932Y-73149236D02*
G01*
X214896935Y-73149237D01*
X214896934Y-73149237D01*
X215179160Y-73266139D01*
X215433158Y-73435855D01*
X215649165Y-73651862D01*
X215818881Y-73905860D01*
X215818881Y-73905861D01*
X215935784Y-74188088D01*
X215995380Y-74487699D01*
X215995380Y-74793181D01*
X215935784Y-75092792D01*
X215935783Y-75092794D01*
X215818881Y-75375020D01*
X215649165Y-75629018D01*
X215433158Y-75845025D01*
X215179160Y-76014741D01*
X214979594Y-76097404D01*
X214896932Y-76131644D01*
X214597321Y-76191240D01*
X214291839Y-76191240D01*
X213992228Y-76131644D01*
X213909566Y-76097404D01*
X213710000Y-76014741D01*
X213456002Y-75845025D01*
X213239995Y-75629018D01*
X213070279Y-75375020D01*
X212953377Y-75092794D01*
X212953376Y-75092792D01*
X212893780Y-74793181D01*
X212893780Y-74487699D01*
X212953376Y-74188088D01*
X213070279Y-73905861D01*
X213070279Y-73905860D01*
X213239995Y-73651862D01*
X213456002Y-73435855D01*
X213710000Y-73266139D01*
X213992226Y-73149237D01*
X213992225Y-73149237D01*
X213992228Y-73149236D01*
X214291839Y-73089640D01*
X214597321Y-73089640D01*
X214896932Y-73149236D01*
G37*
G36*
X209816932Y-64449236D02*
G01*
X209816935Y-64449237D01*
X209816934Y-64449237D01*
X210099160Y-64566139D01*
X210353158Y-64735855D01*
X210569165Y-64951862D01*
X210738881Y-65205860D01*
X210738881Y-65205861D01*
X210855784Y-65488088D01*
X210915380Y-65787699D01*
X210915380Y-66093181D01*
X210855784Y-66392792D01*
X210855783Y-66392794D01*
X210738881Y-66675020D01*
X210569165Y-66929018D01*
X210353158Y-67145025D01*
X210099160Y-67314741D01*
X209899594Y-67397404D01*
X209816932Y-67431644D01*
X209517321Y-67491240D01*
X209211839Y-67491240D01*
X208912228Y-67431644D01*
X208829566Y-67397404D01*
X208630000Y-67314741D01*
X208376002Y-67145025D01*
X208159995Y-66929018D01*
X207990279Y-66675020D01*
X207873377Y-66392794D01*
X207873376Y-66392792D01*
X207813780Y-66093181D01*
X207813780Y-65787699D01*
X207873376Y-65488088D01*
X207990279Y-65205861D01*
X207990279Y-65205860D01*
X208159995Y-64951862D01*
X208376002Y-64735855D01*
X208630000Y-64566139D01*
X208912226Y-64449237D01*
X208912225Y-64449237D01*
X208912228Y-64449236D01*
X209211839Y-64389640D01*
X209517321Y-64389640D01*
X209816932Y-64449236D01*
G37*
G36*
X214896932Y-64449236D02*
G01*
X214896935Y-64449237D01*
X214896934Y-64449237D01*
X215179160Y-64566139D01*
X215433158Y-64735855D01*
X215649165Y-64951862D01*
X215818881Y-65205860D01*
X215818881Y-65205861D01*
X215935784Y-65488088D01*
X215995380Y-65787699D01*
X215995380Y-66093181D01*
X215935784Y-66392792D01*
X215935783Y-66392794D01*
X215818881Y-66675020D01*
X215649165Y-66929018D01*
X215433158Y-67145025D01*
X215179160Y-67314741D01*
X214979594Y-67397404D01*
X214896932Y-67431644D01*
X214597321Y-67491240D01*
X214291839Y-67491240D01*
X213992228Y-67431644D01*
X213909566Y-67397404D01*
X213710000Y-67314741D01*
X213456002Y-67145025D01*
X213239995Y-66929018D01*
X213070279Y-66675020D01*
X212953377Y-66392794D01*
X212953376Y-66392792D01*
X212893780Y-66093181D01*
X212893780Y-65787699D01*
X212953376Y-65488088D01*
X213070279Y-65205861D01*
X213070279Y-65205860D01*
X213239995Y-64951862D01*
X213456002Y-64735855D01*
X213710000Y-64566139D01*
X213992226Y-64449237D01*
X213992225Y-64449237D01*
X213992228Y-64449236D01*
X214291839Y-64389640D01*
X214597321Y-64389640D01*
X214896932Y-64449236D01*
G37*
G36*
X183212252Y-60933156D02*
G01*
X183212255Y-60933157D01*
X183212254Y-60933157D01*
X183494480Y-61050059D01*
X183748478Y-61219775D01*
X183964485Y-61435782D01*
X184134201Y-61689780D01*
X184134201Y-61689781D01*
X184251104Y-61972008D01*
X184310700Y-62271619D01*
X184310700Y-62577101D01*
X184251104Y-62876712D01*
X184251103Y-62876714D01*
X184134201Y-63158940D01*
X183964485Y-63412938D01*
X183748478Y-63628945D01*
X183494480Y-63798661D01*
X183294914Y-63881324D01*
X183212252Y-63915564D01*
X182912641Y-63975160D01*
X182607159Y-63975160D01*
X182307548Y-63915564D01*
X182224886Y-63881324D01*
X182025320Y-63798661D01*
X181771322Y-63628945D01*
X181555315Y-63412938D01*
X181385599Y-63158940D01*
X181268697Y-62876714D01*
X181268696Y-62876712D01*
X181209100Y-62577101D01*
X181209100Y-62271619D01*
X181268696Y-61972008D01*
X181385599Y-61689781D01*
X181385599Y-61689780D01*
X181555315Y-61435782D01*
X181771322Y-61219775D01*
X182025320Y-61050059D01*
X182307546Y-60933157D01*
X182307545Y-60933157D01*
X182307548Y-60933156D01*
X182607159Y-60873560D01*
X182912641Y-60873560D01*
X183212252Y-60933156D01*
G37*
G36*
X191212252Y-60933156D02*
G01*
X191212255Y-60933157D01*
X191212254Y-60933157D01*
X191494480Y-61050059D01*
X191748478Y-61219775D01*
X191964485Y-61435782D01*
X192134201Y-61689780D01*
X192134201Y-61689781D01*
X192251104Y-61972008D01*
X192310700Y-62271619D01*
X192310700Y-62577101D01*
X192251104Y-62876712D01*
X192251103Y-62876714D01*
X192134201Y-63158940D01*
X191964485Y-63412938D01*
X191748478Y-63628945D01*
X191494480Y-63798661D01*
X191294914Y-63881324D01*
X191212252Y-63915564D01*
X190912641Y-63975160D01*
X190607159Y-63975160D01*
X190307548Y-63915564D01*
X190224886Y-63881324D01*
X190025320Y-63798661D01*
X189771322Y-63628945D01*
X189555315Y-63412938D01*
X189385599Y-63158940D01*
X189268697Y-62876714D01*
X189268696Y-62876712D01*
X189209100Y-62577101D01*
X189209100Y-62271619D01*
X189268696Y-61972008D01*
X189385599Y-61689781D01*
X189385599Y-61689780D01*
X189555315Y-61435782D01*
X189771322Y-61219775D01*
X190025320Y-61050059D01*
X190307546Y-60933157D01*
X190307545Y-60933157D01*
X190307548Y-60933156D01*
X190607159Y-60873560D01*
X190912641Y-60873560D01*
X191212252Y-60933156D01*
G37*
M02*
