M48
; DRILL file {KiCad (5.1.5)-3} date 2020-04-22 8:06:31 AM
; FORMAT={-:-/ absolute / inch / decimal}
; #@! TF.CreationDate,2020-04-22T08:06:31-07:00
; #@! TF.GenerationSoftware,Kicad,Pcbnew,(5.1.5)-3
FMAT,2
INCH
T1C0.0400
T2C0.0472
T3C0.0551
T4C0.0591
T5C0.0819
T6C0.0866
%
G90
G05
T1
X8.323Y-3.5
X8.323Y-3.6
X8.323Y-3.7
X8.323Y-3.8
X8.423Y-3.5
X8.423Y-3.6
X8.423Y-3.7
X8.423Y-3.8
T2
X8.1978Y-4.6238
X8.1978Y-5.0238
T3
X8.2427Y-2.5961
X8.2427Y-2.9386
X8.4427Y-2.5961
X8.4427Y-2.9386
T4
X7.1953Y-2.4577
X7.1953Y-3.9734
X7.5102Y-2.4577
X7.6185Y-3.9734
T5
X7.6978Y-5.1738
T6
X7.2978Y-4.4738
X7.5978Y-4.4738
T0
M30
