G04 #@! TF.GenerationSoftware,KiCad,Pcbnew,(5.1.5)-3*
G04 #@! TF.CreationDate,2020-04-22T08:10:39-07:00*
G04 #@! TF.ProjectId,Plug_Pass_120V_arduino_shield,506c7567-5f50-4617-9373-5f313230565f,rev?*
G04 #@! TF.SameCoordinates,Original*
G04 #@! TF.FileFunction,Legend,Bot*
G04 #@! TF.FilePolarity,Positive*
%FSLAX46Y46*%
G04 Gerber Fmt 4.6, Leading zero omitted, Abs format (unit mm)*
G04 Created by KiCad (PCBNEW (5.1.5)-3) date 2020-04-22 08:10:39*
%MOMM*%
%LPD*%
G04 APERTURE LIST*
%ADD10C,0.150000*%
%ADD11C,0.120000*%
G04 APERTURE END LIST*
D10*
X108331188Y-127326380D02*
X108331188Y-126326380D01*
X107950236Y-126326380D01*
X107854998Y-126374000D01*
X107807379Y-126421619D01*
X107759760Y-126516857D01*
X107759760Y-126659714D01*
X107807379Y-126754952D01*
X107854998Y-126802571D01*
X107950236Y-126850190D01*
X108331188Y-126850190D01*
X107188331Y-127326380D02*
X107283569Y-127278761D01*
X107331188Y-127183523D01*
X107331188Y-126326380D01*
X106378807Y-126659714D02*
X106378807Y-127326380D01*
X106807379Y-126659714D02*
X106807379Y-127183523D01*
X106759760Y-127278761D01*
X106664521Y-127326380D01*
X106521664Y-127326380D01*
X106426426Y-127278761D01*
X106378807Y-127231142D01*
X105474045Y-126659714D02*
X105474045Y-127469238D01*
X105521664Y-127564476D01*
X105569283Y-127612095D01*
X105664521Y-127659714D01*
X105807379Y-127659714D01*
X105902617Y-127612095D01*
X105474045Y-127278761D02*
X105569283Y-127326380D01*
X105759760Y-127326380D01*
X105854998Y-127278761D01*
X105902617Y-127231142D01*
X105950236Y-127135904D01*
X105950236Y-126850190D01*
X105902617Y-126754952D01*
X105854998Y-126707333D01*
X105759760Y-126659714D01*
X105569283Y-126659714D01*
X105474045Y-126707333D01*
X104235950Y-127326380D02*
X104235950Y-126326380D01*
X103854998Y-126326380D01*
X103759760Y-126374000D01*
X103712140Y-126421619D01*
X103664521Y-126516857D01*
X103664521Y-126659714D01*
X103712140Y-126754952D01*
X103759760Y-126802571D01*
X103854998Y-126850190D01*
X104235950Y-126850190D01*
X102807379Y-127326380D02*
X102807379Y-126802571D01*
X102854998Y-126707333D01*
X102950236Y-126659714D01*
X103140712Y-126659714D01*
X103235950Y-126707333D01*
X102807379Y-127278761D02*
X102902617Y-127326380D01*
X103140712Y-127326380D01*
X103235950Y-127278761D01*
X103283569Y-127183523D01*
X103283569Y-127088285D01*
X103235950Y-126993047D01*
X103140712Y-126945428D01*
X102902617Y-126945428D01*
X102807379Y-126897809D01*
X102378807Y-127278761D02*
X102283569Y-127326380D01*
X102093093Y-127326380D01*
X101997855Y-127278761D01*
X101950236Y-127183523D01*
X101950236Y-127135904D01*
X101997855Y-127040666D01*
X102093093Y-126993047D01*
X102235950Y-126993047D01*
X102331188Y-126945428D01*
X102378807Y-126850190D01*
X102378807Y-126802571D01*
X102331188Y-126707333D01*
X102235950Y-126659714D01*
X102093093Y-126659714D01*
X101997855Y-126707333D01*
X101569283Y-127278761D02*
X101474045Y-127326380D01*
X101283569Y-127326380D01*
X101188331Y-127278761D01*
X101140712Y-127183523D01*
X101140712Y-127135904D01*
X101188331Y-127040666D01*
X101283569Y-126993047D01*
X101426426Y-126993047D01*
X101521664Y-126945428D01*
X101569283Y-126850190D01*
X101569283Y-126802571D01*
X101521664Y-126707333D01*
X101426426Y-126659714D01*
X101283569Y-126659714D01*
X101188331Y-126707333D01*
X108854998Y-128309714D02*
X108616902Y-128976380D01*
X108378807Y-128309714D01*
X107616902Y-128928761D02*
X107712140Y-128976380D01*
X107902617Y-128976380D01*
X107997855Y-128928761D01*
X108045474Y-128833523D01*
X108045474Y-128452571D01*
X107997855Y-128357333D01*
X107902617Y-128309714D01*
X107712140Y-128309714D01*
X107616902Y-128357333D01*
X107569283Y-128452571D01*
X107569283Y-128547809D01*
X108045474Y-128643047D01*
X107140712Y-128976380D02*
X107140712Y-128309714D01*
X107140712Y-128500190D02*
X107093093Y-128404952D01*
X107045474Y-128357333D01*
X106950236Y-128309714D01*
X106854998Y-128309714D01*
X106569283Y-128928761D02*
X106474045Y-128976380D01*
X106283569Y-128976380D01*
X106188331Y-128928761D01*
X106140712Y-128833523D01*
X106140712Y-128785904D01*
X106188331Y-128690666D01*
X106283569Y-128643047D01*
X106426426Y-128643047D01*
X106521664Y-128595428D01*
X106569283Y-128500190D01*
X106569283Y-128452571D01*
X106521664Y-128357333D01*
X106426426Y-128309714D01*
X106283569Y-128309714D01*
X106188331Y-128357333D01*
X105712140Y-128976380D02*
X105712140Y-128309714D01*
X105712140Y-127976380D02*
X105759760Y-128024000D01*
X105712140Y-128071619D01*
X105664521Y-128024000D01*
X105712140Y-127976380D01*
X105712140Y-128071619D01*
X105093093Y-128976380D02*
X105188331Y-128928761D01*
X105235950Y-128881142D01*
X105283569Y-128785904D01*
X105283569Y-128500190D01*
X105235950Y-128404952D01*
X105188331Y-128357333D01*
X105093093Y-128309714D01*
X104950236Y-128309714D01*
X104854998Y-128357333D01*
X104807379Y-128404952D01*
X104759760Y-128500190D01*
X104759760Y-128785904D01*
X104807379Y-128881142D01*
X104854998Y-128928761D01*
X104950236Y-128976380D01*
X105093093Y-128976380D01*
X104331188Y-128309714D02*
X104331188Y-128976380D01*
X104331188Y-128404952D02*
X104283569Y-128357333D01*
X104188331Y-128309714D01*
X104045474Y-128309714D01*
X103950236Y-128357333D01*
X103902617Y-128452571D01*
X103902617Y-128976380D01*
X102140712Y-128976380D02*
X102712140Y-128976380D01*
X102426426Y-128976380D02*
X102426426Y-127976380D01*
X102521664Y-128119238D01*
X102616902Y-128214476D01*
X102712140Y-128262095D01*
X101712140Y-128881142D02*
X101664521Y-128928761D01*
X101712140Y-128976380D01*
X101759760Y-128928761D01*
X101712140Y-128881142D01*
X101712140Y-128976380D01*
X101045474Y-127976380D02*
X100950236Y-127976380D01*
X100854998Y-128024000D01*
X100807379Y-128071619D01*
X100759760Y-128166857D01*
X100712140Y-128357333D01*
X100712140Y-128595428D01*
X100759760Y-128785904D01*
X100807379Y-128881142D01*
X100854998Y-128928761D01*
X100950236Y-128976380D01*
X101045474Y-128976380D01*
X101140712Y-128928761D01*
X101188331Y-128881142D01*
X101235950Y-128785904D01*
X101283569Y-128595428D01*
X101283569Y-128357333D01*
X101235950Y-128166857D01*
X101188331Y-128071619D01*
X101140712Y-128024000D01*
X101045474Y-127976380D01*
X109521664Y-130626380D02*
X109521664Y-130102571D01*
X109569283Y-130007333D01*
X109664521Y-129959714D01*
X109854998Y-129959714D01*
X109950236Y-130007333D01*
X109521664Y-130578761D02*
X109616902Y-130626380D01*
X109854998Y-130626380D01*
X109950236Y-130578761D01*
X109997855Y-130483523D01*
X109997855Y-130388285D01*
X109950236Y-130293047D01*
X109854998Y-130245428D01*
X109616902Y-130245428D01*
X109521664Y-130197809D01*
X109045474Y-130626380D02*
X109045474Y-129959714D01*
X109045474Y-130150190D02*
X108997855Y-130054952D01*
X108950236Y-130007333D01*
X108854998Y-129959714D01*
X108759760Y-129959714D01*
X107997855Y-130626380D02*
X107997855Y-129626380D01*
X107997855Y-130578761D02*
X108093093Y-130626380D01*
X108283569Y-130626380D01*
X108378807Y-130578761D01*
X108426426Y-130531142D01*
X108474045Y-130435904D01*
X108474045Y-130150190D01*
X108426426Y-130054952D01*
X108378807Y-130007333D01*
X108283569Y-129959714D01*
X108093093Y-129959714D01*
X107997855Y-130007333D01*
X107093093Y-129959714D02*
X107093093Y-130626380D01*
X107521664Y-129959714D02*
X107521664Y-130483523D01*
X107474045Y-130578761D01*
X107378807Y-130626380D01*
X107235950Y-130626380D01*
X107140712Y-130578761D01*
X107093093Y-130531142D01*
X106616902Y-130626380D02*
X106616902Y-129959714D01*
X106616902Y-129626380D02*
X106664521Y-129674000D01*
X106616902Y-129721619D01*
X106569283Y-129674000D01*
X106616902Y-129626380D01*
X106616902Y-129721619D01*
X106140712Y-129959714D02*
X106140712Y-130626380D01*
X106140712Y-130054952D02*
X106093093Y-130007333D01*
X105997855Y-129959714D01*
X105854998Y-129959714D01*
X105759760Y-130007333D01*
X105712140Y-130102571D01*
X105712140Y-130626380D01*
X105093093Y-130626380D02*
X105188331Y-130578761D01*
X105235950Y-130531142D01*
X105283569Y-130435904D01*
X105283569Y-130150190D01*
X105235950Y-130054952D01*
X105188331Y-130007333D01*
X105093093Y-129959714D01*
X104950236Y-129959714D01*
X104854998Y-130007333D01*
X104807379Y-130054952D01*
X104759760Y-130150190D01*
X104759760Y-130435904D01*
X104807379Y-130531142D01*
X104854998Y-130578761D01*
X104950236Y-130626380D01*
X105093093Y-130626380D01*
X103616902Y-130578761D02*
X103521664Y-130626380D01*
X103331188Y-130626380D01*
X103235950Y-130578761D01*
X103188331Y-130483523D01*
X103188331Y-130435904D01*
X103235950Y-130340666D01*
X103331188Y-130293047D01*
X103474045Y-130293047D01*
X103569283Y-130245428D01*
X103616902Y-130150190D01*
X103616902Y-130102571D01*
X103569283Y-130007333D01*
X103474045Y-129959714D01*
X103331188Y-129959714D01*
X103235950Y-130007333D01*
X102759760Y-130626380D02*
X102759760Y-129626380D01*
X102331188Y-130626380D02*
X102331188Y-130102571D01*
X102378807Y-130007333D01*
X102474045Y-129959714D01*
X102616902Y-129959714D01*
X102712140Y-130007333D01*
X102759760Y-130054952D01*
X101854998Y-130626380D02*
X101854998Y-129959714D01*
X101854998Y-129626380D02*
X101902617Y-129674000D01*
X101854998Y-129721619D01*
X101807379Y-129674000D01*
X101854998Y-129626380D01*
X101854998Y-129721619D01*
X100997855Y-130578761D02*
X101093093Y-130626380D01*
X101283569Y-130626380D01*
X101378807Y-130578761D01*
X101426426Y-130483523D01*
X101426426Y-130102571D01*
X101378807Y-130007333D01*
X101283569Y-129959714D01*
X101093093Y-129959714D01*
X100997855Y-130007333D01*
X100950236Y-130102571D01*
X100950236Y-130197809D01*
X101426426Y-130293047D01*
X100378807Y-130626380D02*
X100474045Y-130578761D01*
X100521664Y-130483523D01*
X100521664Y-129626380D01*
X99569283Y-130626380D02*
X99569283Y-129626380D01*
X99569283Y-130578761D02*
X99664521Y-130626380D01*
X99854998Y-130626380D01*
X99950236Y-130578761D01*
X99997855Y-130531142D01*
X100045474Y-130435904D01*
X100045474Y-130150190D01*
X99997855Y-130054952D01*
X99950236Y-130007333D01*
X99854998Y-129959714D01*
X99664521Y-129959714D01*
X99569283Y-130007333D01*
X116697494Y-62444902D02*
X116745113Y-62492521D01*
X116887970Y-62540140D01*
X116983208Y-62540140D01*
X117126065Y-62492521D01*
X117221303Y-62397283D01*
X117268922Y-62302045D01*
X117316541Y-62111569D01*
X117316541Y-61968712D01*
X117268922Y-61778236D01*
X117221303Y-61682998D01*
X117126065Y-61587760D01*
X116983208Y-61540140D01*
X116887970Y-61540140D01*
X116745113Y-61587760D01*
X116697494Y-61635379D01*
X116126065Y-62540140D02*
X116221303Y-62492521D01*
X116268922Y-62397283D01*
X116268922Y-61540140D01*
X115316541Y-62540140D02*
X115316541Y-62016331D01*
X115364160Y-61921093D01*
X115459399Y-61873474D01*
X115649875Y-61873474D01*
X115745113Y-61921093D01*
X115316541Y-62492521D02*
X115411780Y-62540140D01*
X115649875Y-62540140D01*
X115745113Y-62492521D01*
X115792732Y-62397283D01*
X115792732Y-62302045D01*
X115745113Y-62206807D01*
X115649875Y-62159188D01*
X115411780Y-62159188D01*
X115316541Y-62111569D01*
X114983208Y-61873474D02*
X114602256Y-61873474D01*
X114840351Y-61540140D02*
X114840351Y-62397283D01*
X114792732Y-62492521D01*
X114697494Y-62540140D01*
X114602256Y-62540140D01*
X114316541Y-62492521D02*
X114221303Y-62540140D01*
X114030827Y-62540140D01*
X113935589Y-62492521D01*
X113887970Y-62397283D01*
X113887970Y-62349664D01*
X113935589Y-62254426D01*
X114030827Y-62206807D01*
X114173684Y-62206807D01*
X114268922Y-62159188D01*
X114316541Y-62063950D01*
X114316541Y-62016331D01*
X114268922Y-61921093D01*
X114173684Y-61873474D01*
X114030827Y-61873474D01*
X113935589Y-61921093D01*
X113459399Y-62540140D02*
X113459399Y-61540140D01*
X113364160Y-62159188D02*
X113078446Y-62540140D01*
X113078446Y-61873474D02*
X113459399Y-62254426D01*
X112221303Y-62540140D02*
X112221303Y-62016331D01*
X112268922Y-61921093D01*
X112364160Y-61873474D01*
X112554637Y-61873474D01*
X112649875Y-61921093D01*
X112221303Y-62492521D02*
X112316541Y-62540140D01*
X112554637Y-62540140D01*
X112649875Y-62492521D01*
X112697494Y-62397283D01*
X112697494Y-62302045D01*
X112649875Y-62206807D01*
X112554637Y-62159188D01*
X112316541Y-62159188D01*
X112221303Y-62111569D01*
X111745113Y-61873474D02*
X111745113Y-62540140D01*
X111745113Y-61968712D02*
X111697494Y-61921093D01*
X111602256Y-61873474D01*
X111459399Y-61873474D01*
X111364160Y-61921093D01*
X111316541Y-62016331D01*
X111316541Y-62540140D01*
X110840351Y-62540140D02*
X110840351Y-61873474D01*
X110840351Y-61540140D02*
X110887970Y-61587760D01*
X110840351Y-61635379D01*
X110792732Y-61587760D01*
X110840351Y-61540140D01*
X110840351Y-61635379D01*
X109983208Y-62492521D02*
X110078446Y-62540140D01*
X110268922Y-62540140D01*
X110364160Y-62492521D01*
X110411780Y-62397283D01*
X110411780Y-62016331D01*
X110364160Y-61921093D01*
X110268922Y-61873474D01*
X110078446Y-61873474D01*
X109983208Y-61921093D01*
X109935589Y-62016331D01*
X109935589Y-62111569D01*
X110411780Y-62206807D01*
X108745113Y-62540140D02*
X108745113Y-61540140D01*
X108364160Y-61540140D01*
X108268922Y-61587760D01*
X108221303Y-61635379D01*
X108173684Y-61730617D01*
X108173684Y-61873474D01*
X108221303Y-61968712D01*
X108268922Y-62016331D01*
X108364160Y-62063950D01*
X108745113Y-62063950D01*
X107364160Y-62492521D02*
X107459399Y-62540140D01*
X107649875Y-62540140D01*
X107745113Y-62492521D01*
X107792732Y-62397283D01*
X107792732Y-62016331D01*
X107745113Y-61921093D01*
X107649875Y-61873474D01*
X107459399Y-61873474D01*
X107364160Y-61921093D01*
X107316541Y-62016331D01*
X107316541Y-62111569D01*
X107792732Y-62206807D01*
X106745113Y-62540140D02*
X106840351Y-62492521D01*
X106887970Y-62444902D01*
X106935589Y-62349664D01*
X106935589Y-62063950D01*
X106887970Y-61968712D01*
X106840351Y-61921093D01*
X106745113Y-61873474D01*
X106602256Y-61873474D01*
X106507018Y-61921093D01*
X106459399Y-61968712D01*
X106411780Y-62063950D01*
X106411780Y-62349664D01*
X106459399Y-62444902D01*
X106507018Y-62492521D01*
X106602256Y-62540140D01*
X106745113Y-62540140D01*
X105983208Y-61873474D02*
X105983208Y-62873474D01*
X105983208Y-61921093D02*
X105887970Y-61873474D01*
X105697494Y-61873474D01*
X105602256Y-61921093D01*
X105554637Y-61968712D01*
X105507018Y-62063950D01*
X105507018Y-62349664D01*
X105554637Y-62444902D01*
X105602256Y-62492521D01*
X105697494Y-62540140D01*
X105887970Y-62540140D01*
X105983208Y-62492521D01*
X104935589Y-62540140D02*
X105030827Y-62492521D01*
X105078446Y-62397283D01*
X105078446Y-61540140D01*
X104173684Y-62492521D02*
X104268922Y-62540140D01*
X104459399Y-62540140D01*
X104554637Y-62492521D01*
X104602256Y-62397283D01*
X104602256Y-62016331D01*
X104554637Y-61921093D01*
X104459399Y-61873474D01*
X104268922Y-61873474D01*
X104173684Y-61921093D01*
X104126065Y-62016331D01*
X104126065Y-62111569D01*
X104602256Y-62206807D01*
X103649875Y-61540140D02*
X103745113Y-61730617D01*
X103268922Y-62492521D02*
X103173684Y-62540140D01*
X102983208Y-62540140D01*
X102887970Y-62492521D01*
X102840351Y-62397283D01*
X102840351Y-62349664D01*
X102887970Y-62254426D01*
X102983208Y-62206807D01*
X103126065Y-62206807D01*
X103221303Y-62159188D01*
X103268922Y-62063950D01*
X103268922Y-62016331D01*
X103221303Y-61921093D01*
X103126065Y-61873474D01*
X102983208Y-61873474D01*
X102887970Y-61921093D01*
X101649875Y-61540140D02*
X101649875Y-62349664D01*
X101602256Y-62444902D01*
X101554637Y-62492521D01*
X101459399Y-62540140D01*
X101268922Y-62540140D01*
X101173684Y-62492521D01*
X101126065Y-62444902D01*
X101078446Y-62349664D01*
X101078446Y-61540140D01*
X100745113Y-61873474D02*
X100364160Y-61873474D01*
X100602256Y-61540140D02*
X100602256Y-62397283D01*
X100554637Y-62492521D01*
X100459399Y-62540140D01*
X100364160Y-62540140D01*
X100030827Y-62540140D02*
X100030827Y-61873474D01*
X100030827Y-61540140D02*
X100078446Y-61587760D01*
X100030827Y-61635379D01*
X99983208Y-61587760D01*
X100030827Y-61540140D01*
X100030827Y-61635379D01*
X99411780Y-62540140D02*
X99507018Y-62492521D01*
X99554637Y-62397283D01*
X99554637Y-61540140D01*
X99030827Y-62540140D02*
X99030827Y-61873474D01*
X99030827Y-61540140D02*
X99078446Y-61587760D01*
X99030827Y-61635379D01*
X98983208Y-61587760D01*
X99030827Y-61540140D01*
X99030827Y-61635379D01*
X98697494Y-61873474D02*
X98316541Y-61873474D01*
X98554637Y-61540140D02*
X98554637Y-62397283D01*
X98507018Y-62492521D01*
X98411780Y-62540140D01*
X98316541Y-62540140D01*
X98078446Y-61873474D02*
X97840351Y-62540140D01*
X97602256Y-61873474D02*
X97840351Y-62540140D01*
X97935589Y-62778236D01*
X97983208Y-62825855D01*
X98078446Y-62873474D01*
X96459399Y-62540140D02*
X96459399Y-61540140D01*
X96221303Y-61540140D01*
X96078446Y-61587760D01*
X95983208Y-61682998D01*
X95935589Y-61778236D01*
X95887970Y-61968712D01*
X95887970Y-62111569D01*
X95935589Y-62302045D01*
X95983208Y-62397283D01*
X96078446Y-62492521D01*
X96221303Y-62540140D01*
X96459399Y-62540140D01*
X95459399Y-62540140D02*
X95459399Y-61873474D01*
X95459399Y-61540140D02*
X95507018Y-61587760D01*
X95459399Y-61635379D01*
X95411780Y-61587760D01*
X95459399Y-61540140D01*
X95459399Y-61635379D01*
X95030827Y-62492521D02*
X94935589Y-62540140D01*
X94745113Y-62540140D01*
X94649875Y-62492521D01*
X94602256Y-62397283D01*
X94602256Y-62349664D01*
X94649875Y-62254426D01*
X94745113Y-62206807D01*
X94887970Y-62206807D01*
X94983208Y-62159188D01*
X95030827Y-62063950D01*
X95030827Y-62016331D01*
X94983208Y-61921093D01*
X94887970Y-61873474D01*
X94745113Y-61873474D01*
X94649875Y-61921093D01*
X94316541Y-61873474D02*
X93935589Y-61873474D01*
X94173684Y-61540140D02*
X94173684Y-62397283D01*
X94126065Y-62492521D01*
X94030827Y-62540140D01*
X93935589Y-62540140D01*
X93602256Y-62540140D02*
X93602256Y-61873474D01*
X93602256Y-62063950D02*
X93554637Y-61968712D01*
X93507018Y-61921093D01*
X93411780Y-61873474D01*
X93316541Y-61873474D01*
X92983208Y-62540140D02*
X92983208Y-61873474D01*
X92983208Y-61540140D02*
X93030827Y-61587760D01*
X92983208Y-61635379D01*
X92935589Y-61587760D01*
X92983208Y-61540140D01*
X92983208Y-61635379D01*
X92078446Y-62492521D02*
X92173684Y-62540140D01*
X92364160Y-62540140D01*
X92459399Y-62492521D01*
X92507018Y-62444902D01*
X92554637Y-62349664D01*
X92554637Y-62063950D01*
X92507018Y-61968712D01*
X92459399Y-61921093D01*
X92364160Y-61873474D01*
X92173684Y-61873474D01*
X92078446Y-61921093D01*
X91792732Y-61873474D02*
X91411780Y-61873474D01*
X91649875Y-61540140D02*
X91649875Y-62397283D01*
X91602256Y-62492521D01*
X91507018Y-62540140D01*
X91411780Y-62540140D01*
D11*
X109363640Y-101870000D02*
X109363640Y-83550000D01*
X109363640Y-83550000D02*
X100013640Y-83550000D01*
X100013640Y-83550000D02*
X100013640Y-101870000D01*
X100013640Y-101870000D02*
X109363640Y-101870000D01*
X99763640Y-102120000D02*
X99763640Y-99580000D01*
X99763640Y-102120000D02*
X102303640Y-102120000D01*
D10*
X105021973Y-102576380D02*
X105021973Y-103290666D01*
X105069592Y-103433523D01*
X105164830Y-103528761D01*
X105307687Y-103576380D01*
X105402925Y-103576380D01*
X104641020Y-102576380D02*
X104021973Y-102576380D01*
X104355306Y-102957333D01*
X104212449Y-102957333D01*
X104117211Y-103004952D01*
X104069592Y-103052571D01*
X104021973Y-103147809D01*
X104021973Y-103385904D01*
X104069592Y-103481142D01*
X104117211Y-103528761D01*
X104212449Y-103576380D01*
X104498163Y-103576380D01*
X104593401Y-103528761D01*
X104641020Y-103481142D01*
M02*
