G04 #@! TF.GenerationSoftware,KiCad,Pcbnew,(5.1.5)-3*
G04 #@! TF.CreationDate,2020-04-22T08:10:39-07:00*
G04 #@! TF.ProjectId,Plug_Pass_120V_arduino_shield,506c7567-5f50-4617-9373-5f313230565f,rev?*
G04 #@! TF.SameCoordinates,Original*
G04 #@! TF.FileFunction,Soldermask,Top*
G04 #@! TF.FilePolarity,Negative*
%FSLAX46Y46*%
G04 Gerber Fmt 4.6, Leading zero omitted, Abs format (unit mm)*
G04 Created by KiCad (PCBNEW (5.1.5)-3) date 2020-04-22 08:10:39*
%MOMM*%
%LPD*%
G04 APERTURE LIST*
%ADD10C,0.100000*%
G04 APERTURE END LIST*
D10*
G36*
X91446214Y-119275817D02*
G01*
X91610149Y-119343721D01*
X91757687Y-119442303D01*
X91883157Y-119567773D01*
X91981739Y-119715311D01*
X92049643Y-119879246D01*
X92084260Y-120053279D01*
X92084260Y-120230721D01*
X92049643Y-120404754D01*
X91981739Y-120568689D01*
X91883157Y-120716227D01*
X91757687Y-120841697D01*
X91610149Y-120940279D01*
X91446214Y-121008183D01*
X91272181Y-121042800D01*
X91094739Y-121042800D01*
X90920706Y-121008183D01*
X90756771Y-120940279D01*
X90609233Y-120841697D01*
X90483763Y-120716227D01*
X90385181Y-120568689D01*
X90317277Y-120404754D01*
X90282660Y-120230721D01*
X90282660Y-120053279D01*
X90317277Y-119879246D01*
X90385181Y-119715311D01*
X90483763Y-119567773D01*
X90609233Y-119442303D01*
X90756771Y-119343721D01*
X90920706Y-119275817D01*
X91094739Y-119241200D01*
X91272181Y-119241200D01*
X91446214Y-119275817D01*
G37*
G36*
X91446214Y-116735817D02*
G01*
X91610149Y-116803721D01*
X91757687Y-116902303D01*
X91883157Y-117027773D01*
X91981739Y-117175311D01*
X92049643Y-117339246D01*
X92084260Y-117513279D01*
X92084260Y-117690721D01*
X92049643Y-117864754D01*
X91981739Y-118028689D01*
X91883157Y-118176227D01*
X91757687Y-118301697D01*
X91610149Y-118400279D01*
X91446214Y-118468183D01*
X91272181Y-118502800D01*
X91094739Y-118502800D01*
X90920706Y-118468183D01*
X90756771Y-118400279D01*
X90609233Y-118301697D01*
X90483763Y-118176227D01*
X90385181Y-118028689D01*
X90317277Y-117864754D01*
X90282660Y-117690721D01*
X90282660Y-117513279D01*
X90317277Y-117339246D01*
X90385181Y-117175311D01*
X90483763Y-117027773D01*
X90609233Y-116902303D01*
X90756771Y-116803721D01*
X90920706Y-116735817D01*
X91094739Y-116701200D01*
X91272181Y-116701200D01*
X91446214Y-116735817D01*
G37*
G36*
X91446214Y-114195817D02*
G01*
X91610149Y-114263721D01*
X91757687Y-114362303D01*
X91883157Y-114487773D01*
X91981739Y-114635311D01*
X92049643Y-114799246D01*
X92084260Y-114973279D01*
X92084260Y-115150721D01*
X92049643Y-115324754D01*
X91981739Y-115488689D01*
X91883157Y-115636227D01*
X91757687Y-115761697D01*
X91610149Y-115860279D01*
X91446214Y-115928183D01*
X91272181Y-115962800D01*
X91094739Y-115962800D01*
X90920706Y-115928183D01*
X90756771Y-115860279D01*
X90609233Y-115761697D01*
X90483763Y-115636227D01*
X90385181Y-115488689D01*
X90317277Y-115324754D01*
X90282660Y-115150721D01*
X90282660Y-114973279D01*
X90317277Y-114799246D01*
X90385181Y-114635311D01*
X90483763Y-114487773D01*
X90609233Y-114362303D01*
X90756771Y-114263721D01*
X90920706Y-114195817D01*
X91094739Y-114161200D01*
X91272181Y-114161200D01*
X91446214Y-114195817D01*
G37*
G36*
X97426881Y-114030355D02*
G01*
X97598096Y-114101274D01*
X97752185Y-114204233D01*
X97883227Y-114335275D01*
X97986186Y-114489364D01*
X98057105Y-114660579D01*
X98093260Y-114842339D01*
X98093260Y-115027661D01*
X98057105Y-115209421D01*
X97986186Y-115380636D01*
X97883227Y-115534725D01*
X97752185Y-115665767D01*
X97598096Y-115768726D01*
X97426881Y-115839645D01*
X97245121Y-115875800D01*
X97059799Y-115875800D01*
X96878039Y-115839645D01*
X96706824Y-115768726D01*
X96552735Y-115665767D01*
X96421693Y-115534725D01*
X96318734Y-115380636D01*
X96247815Y-115209421D01*
X96211660Y-115027661D01*
X96211660Y-114842339D01*
X96247815Y-114660579D01*
X96318734Y-114489364D01*
X96421693Y-114335275D01*
X96552735Y-114204233D01*
X96706824Y-114101274D01*
X96878039Y-114030355D01*
X97059799Y-113994200D01*
X97245121Y-113994200D01*
X97426881Y-114030355D01*
G37*
G36*
X112666881Y-114030355D02*
G01*
X112838096Y-114101274D01*
X112992185Y-114204233D01*
X113123227Y-114335275D01*
X113226186Y-114489364D01*
X113297105Y-114660579D01*
X113333260Y-114842339D01*
X113333260Y-115027661D01*
X113297105Y-115209421D01*
X113226186Y-115380636D01*
X113123227Y-115534725D01*
X112992185Y-115665767D01*
X112838096Y-115768726D01*
X112666881Y-115839645D01*
X112485121Y-115875800D01*
X112299799Y-115875800D01*
X112118039Y-115839645D01*
X111946824Y-115768726D01*
X111792735Y-115665767D01*
X111661693Y-115534725D01*
X111558734Y-115380636D01*
X111487815Y-115209421D01*
X111451660Y-115027661D01*
X111451660Y-114842339D01*
X111487815Y-114660579D01*
X111558734Y-114489364D01*
X111661693Y-114335275D01*
X111792735Y-114204233D01*
X111946824Y-114101274D01*
X112118039Y-114030355D01*
X112299799Y-113994200D01*
X112485121Y-113994200D01*
X112666881Y-114030355D01*
G37*
G36*
X91446214Y-111655817D02*
G01*
X91610149Y-111723721D01*
X91757687Y-111822303D01*
X91883157Y-111947773D01*
X91981739Y-112095311D01*
X92049643Y-112259246D01*
X92084260Y-112433279D01*
X92084260Y-112610721D01*
X92049643Y-112784754D01*
X91981739Y-112948689D01*
X91883157Y-113096227D01*
X91757687Y-113221697D01*
X91610149Y-113320279D01*
X91446214Y-113388183D01*
X91272181Y-113422800D01*
X91094739Y-113422800D01*
X90920706Y-113388183D01*
X90756771Y-113320279D01*
X90609233Y-113221697D01*
X90483763Y-113096227D01*
X90385181Y-112948689D01*
X90317277Y-112784754D01*
X90282660Y-112610721D01*
X90282660Y-112433279D01*
X90317277Y-112259246D01*
X90385181Y-112095311D01*
X90483763Y-111947773D01*
X90609233Y-111822303D01*
X90756771Y-111723721D01*
X90920706Y-111655817D01*
X91094739Y-111621200D01*
X91272181Y-111621200D01*
X91446214Y-111655817D01*
G37*
G36*
X97400629Y-111576895D02*
G01*
X97555465Y-111641031D01*
X97694814Y-111734140D01*
X97813320Y-111852646D01*
X97906429Y-111991995D01*
X97970565Y-112146831D01*
X98003260Y-112311203D01*
X98003260Y-112478797D01*
X97970565Y-112643169D01*
X97906429Y-112798005D01*
X97813320Y-112937354D01*
X97694814Y-113055860D01*
X97555465Y-113148969D01*
X97400629Y-113213105D01*
X97236257Y-113245800D01*
X97068663Y-113245800D01*
X96904291Y-113213105D01*
X96749455Y-113148969D01*
X96610106Y-113055860D01*
X96491600Y-112937354D01*
X96398491Y-112798005D01*
X96334355Y-112643169D01*
X96301660Y-112478797D01*
X96301660Y-112311203D01*
X96334355Y-112146831D01*
X96398491Y-111991995D01*
X96491600Y-111852646D01*
X96610106Y-111734140D01*
X96749455Y-111641031D01*
X96904291Y-111576895D01*
X97068663Y-111544200D01*
X97236257Y-111544200D01*
X97400629Y-111576895D01*
G37*
G36*
X112640629Y-111576895D02*
G01*
X112795465Y-111641031D01*
X112934814Y-111734140D01*
X113053320Y-111852646D01*
X113146429Y-111991995D01*
X113210565Y-112146831D01*
X113243260Y-112311203D01*
X113243260Y-112478797D01*
X113210565Y-112643169D01*
X113146429Y-112798005D01*
X113053320Y-112937354D01*
X112934814Y-113055860D01*
X112795465Y-113148969D01*
X112640629Y-113213105D01*
X112476257Y-113245800D01*
X112308663Y-113245800D01*
X112144291Y-113213105D01*
X111989455Y-113148969D01*
X111850106Y-113055860D01*
X111731600Y-112937354D01*
X111638491Y-112798005D01*
X111574355Y-112643169D01*
X111541660Y-112478797D01*
X111541660Y-112311203D01*
X111574355Y-112146831D01*
X111638491Y-111991995D01*
X111731600Y-111852646D01*
X111850106Y-111734140D01*
X111989455Y-111641031D01*
X112144291Y-111576895D01*
X112308663Y-111544200D01*
X112476257Y-111544200D01*
X112640629Y-111576895D01*
G37*
G36*
X91446214Y-109115817D02*
G01*
X91610149Y-109183721D01*
X91757687Y-109282303D01*
X91883157Y-109407773D01*
X91981739Y-109555311D01*
X92049643Y-109719246D01*
X92084260Y-109893279D01*
X92084260Y-110070721D01*
X92049643Y-110244754D01*
X91981739Y-110408689D01*
X91883157Y-110556227D01*
X91757687Y-110681697D01*
X91610149Y-110780279D01*
X91446214Y-110848183D01*
X91272181Y-110882800D01*
X91094739Y-110882800D01*
X90920706Y-110848183D01*
X90756771Y-110780279D01*
X90609233Y-110681697D01*
X90483763Y-110556227D01*
X90385181Y-110408689D01*
X90317277Y-110244754D01*
X90282660Y-110070721D01*
X90282660Y-109893279D01*
X90317277Y-109719246D01*
X90385181Y-109555311D01*
X90483763Y-109407773D01*
X90609233Y-109282303D01*
X90756771Y-109183721D01*
X90920706Y-109115817D01*
X91094739Y-109081200D01*
X91272181Y-109081200D01*
X91446214Y-109115817D01*
G37*
G36*
X112640629Y-109036895D02*
G01*
X112795465Y-109101031D01*
X112934814Y-109194140D01*
X113053320Y-109312646D01*
X113146429Y-109451995D01*
X113210565Y-109606831D01*
X113243260Y-109771203D01*
X113243260Y-109938797D01*
X113210565Y-110103169D01*
X113146429Y-110258005D01*
X113053320Y-110397354D01*
X112934814Y-110515860D01*
X112795465Y-110608969D01*
X112640629Y-110673105D01*
X112476257Y-110705800D01*
X112308663Y-110705800D01*
X112144291Y-110673105D01*
X111989455Y-110608969D01*
X111850106Y-110515860D01*
X111731600Y-110397354D01*
X111638491Y-110258005D01*
X111574355Y-110103169D01*
X111541660Y-109938797D01*
X111541660Y-109771203D01*
X111574355Y-109606831D01*
X111638491Y-109451995D01*
X111731600Y-109312646D01*
X111850106Y-109194140D01*
X111989455Y-109101031D01*
X112144291Y-109036895D01*
X112308663Y-109004200D01*
X112476257Y-109004200D01*
X112640629Y-109036895D01*
G37*
G36*
X97400629Y-109036895D02*
G01*
X97555465Y-109101031D01*
X97694814Y-109194140D01*
X97813320Y-109312646D01*
X97906429Y-109451995D01*
X97970565Y-109606831D01*
X98003260Y-109771203D01*
X98003260Y-109938797D01*
X97970565Y-110103169D01*
X97906429Y-110258005D01*
X97813320Y-110397354D01*
X97694814Y-110515860D01*
X97555465Y-110608969D01*
X97400629Y-110673105D01*
X97236257Y-110705800D01*
X97068663Y-110705800D01*
X96904291Y-110673105D01*
X96749455Y-110608969D01*
X96610106Y-110515860D01*
X96491600Y-110397354D01*
X96398491Y-110258005D01*
X96334355Y-110103169D01*
X96301660Y-109938797D01*
X96301660Y-109771203D01*
X96334355Y-109606831D01*
X96398491Y-109451995D01*
X96491600Y-109312646D01*
X96610106Y-109194140D01*
X96749455Y-109101031D01*
X96904291Y-109036895D01*
X97068663Y-109004200D01*
X97236257Y-109004200D01*
X97400629Y-109036895D01*
G37*
G36*
X91446214Y-106575817D02*
G01*
X91610149Y-106643721D01*
X91757687Y-106742303D01*
X91883157Y-106867773D01*
X91981739Y-107015311D01*
X92049643Y-107179246D01*
X92084260Y-107353279D01*
X92084260Y-107530721D01*
X92049643Y-107704754D01*
X91981739Y-107868689D01*
X91883157Y-108016227D01*
X91757687Y-108141697D01*
X91610149Y-108240279D01*
X91446214Y-108308183D01*
X91272181Y-108342800D01*
X91094739Y-108342800D01*
X90920706Y-108308183D01*
X90756771Y-108240279D01*
X90609233Y-108141697D01*
X90483763Y-108016227D01*
X90385181Y-107868689D01*
X90317277Y-107704754D01*
X90282660Y-107530721D01*
X90282660Y-107353279D01*
X90317277Y-107179246D01*
X90385181Y-107015311D01*
X90483763Y-106867773D01*
X90609233Y-106742303D01*
X90756771Y-106643721D01*
X90920706Y-106575817D01*
X91094739Y-106541200D01*
X91272181Y-106541200D01*
X91446214Y-106575817D01*
G37*
G36*
X97400629Y-106496895D02*
G01*
X97555465Y-106561031D01*
X97694814Y-106654140D01*
X97813320Y-106772646D01*
X97906429Y-106911995D01*
X97970565Y-107066831D01*
X98003260Y-107231203D01*
X98003260Y-107398797D01*
X97970565Y-107563169D01*
X97906429Y-107718005D01*
X97813320Y-107857354D01*
X97694814Y-107975860D01*
X97555465Y-108068969D01*
X97400629Y-108133105D01*
X97236257Y-108165800D01*
X97068663Y-108165800D01*
X96904291Y-108133105D01*
X96749455Y-108068969D01*
X96610106Y-107975860D01*
X96491600Y-107857354D01*
X96398491Y-107718005D01*
X96334355Y-107563169D01*
X96301660Y-107398797D01*
X96301660Y-107231203D01*
X96334355Y-107066831D01*
X96398491Y-106911995D01*
X96491600Y-106772646D01*
X96610106Y-106654140D01*
X96749455Y-106561031D01*
X96904291Y-106496895D01*
X97068663Y-106464200D01*
X97236257Y-106464200D01*
X97400629Y-106496895D01*
G37*
G36*
X112640629Y-106496895D02*
G01*
X112795465Y-106561031D01*
X112934814Y-106654140D01*
X113053320Y-106772646D01*
X113146429Y-106911995D01*
X113210565Y-107066831D01*
X113243260Y-107231203D01*
X113243260Y-107398797D01*
X113210565Y-107563169D01*
X113146429Y-107718005D01*
X113053320Y-107857354D01*
X112934814Y-107975860D01*
X112795465Y-108068969D01*
X112640629Y-108133105D01*
X112476257Y-108165800D01*
X112308663Y-108165800D01*
X112144291Y-108133105D01*
X111989455Y-108068969D01*
X111850106Y-107975860D01*
X111731600Y-107857354D01*
X111638491Y-107718005D01*
X111574355Y-107563169D01*
X111541660Y-107398797D01*
X111541660Y-107231203D01*
X111574355Y-107066831D01*
X111638491Y-106911995D01*
X111731600Y-106772646D01*
X111850106Y-106654140D01*
X111989455Y-106561031D01*
X112144291Y-106496895D01*
X112308663Y-106464200D01*
X112476257Y-106464200D01*
X112640629Y-106496895D01*
G37*
G36*
X91446214Y-104035817D02*
G01*
X91610149Y-104103721D01*
X91757687Y-104202303D01*
X91883157Y-104327773D01*
X91981739Y-104475311D01*
X92049643Y-104639246D01*
X92084260Y-104813279D01*
X92084260Y-104990721D01*
X92049643Y-105164754D01*
X91981739Y-105328689D01*
X91883157Y-105476227D01*
X91757687Y-105601697D01*
X91610149Y-105700279D01*
X91446214Y-105768183D01*
X91272181Y-105802800D01*
X91094739Y-105802800D01*
X90920706Y-105768183D01*
X90756771Y-105700279D01*
X90609233Y-105601697D01*
X90483763Y-105476227D01*
X90385181Y-105328689D01*
X90317277Y-105164754D01*
X90282660Y-104990721D01*
X90282660Y-104813279D01*
X90317277Y-104639246D01*
X90385181Y-104475311D01*
X90483763Y-104327773D01*
X90609233Y-104202303D01*
X90756771Y-104103721D01*
X90920706Y-104035817D01*
X91094739Y-104001200D01*
X91272181Y-104001200D01*
X91446214Y-104035817D01*
G37*
G36*
X97400629Y-103956895D02*
G01*
X97555465Y-104021031D01*
X97694814Y-104114140D01*
X97813320Y-104232646D01*
X97906429Y-104371995D01*
X97970565Y-104526831D01*
X98003260Y-104691203D01*
X98003260Y-104858797D01*
X97970565Y-105023169D01*
X97906429Y-105178005D01*
X97813320Y-105317354D01*
X97694814Y-105435860D01*
X97555465Y-105528969D01*
X97400629Y-105593105D01*
X97236257Y-105625800D01*
X97068663Y-105625800D01*
X96904291Y-105593105D01*
X96749455Y-105528969D01*
X96610106Y-105435860D01*
X96491600Y-105317354D01*
X96398491Y-105178005D01*
X96334355Y-105023169D01*
X96301660Y-104858797D01*
X96301660Y-104691203D01*
X96334355Y-104526831D01*
X96398491Y-104371995D01*
X96491600Y-104232646D01*
X96610106Y-104114140D01*
X96749455Y-104021031D01*
X96904291Y-103956895D01*
X97068663Y-103924200D01*
X97236257Y-103924200D01*
X97400629Y-103956895D01*
G37*
G36*
X112640629Y-103956895D02*
G01*
X112795465Y-104021031D01*
X112934814Y-104114140D01*
X113053320Y-104232646D01*
X113146429Y-104371995D01*
X113210565Y-104526831D01*
X113243260Y-104691203D01*
X113243260Y-104858797D01*
X113210565Y-105023169D01*
X113146429Y-105178005D01*
X113053320Y-105317354D01*
X112934814Y-105435860D01*
X112795465Y-105528969D01*
X112640629Y-105593105D01*
X112476257Y-105625800D01*
X112308663Y-105625800D01*
X112144291Y-105593105D01*
X111989455Y-105528969D01*
X111850106Y-105435860D01*
X111731600Y-105317354D01*
X111638491Y-105178005D01*
X111574355Y-105023169D01*
X111541660Y-104858797D01*
X111541660Y-104691203D01*
X111574355Y-104526831D01*
X111638491Y-104371995D01*
X111731600Y-104232646D01*
X111850106Y-104114140D01*
X111989455Y-104021031D01*
X112144291Y-103956895D01*
X112308663Y-103924200D01*
X112476257Y-103924200D01*
X112640629Y-103956895D01*
G37*
G36*
X92084260Y-103262800D02*
G01*
X90282660Y-103262800D01*
X90282660Y-101461200D01*
X92084260Y-101461200D01*
X92084260Y-103262800D01*
G37*
G36*
X112640629Y-101416895D02*
G01*
X112795465Y-101481031D01*
X112934814Y-101574140D01*
X113053320Y-101692646D01*
X113146429Y-101831995D01*
X113210565Y-101986831D01*
X113243260Y-102151203D01*
X113243260Y-102318797D01*
X113210565Y-102483169D01*
X113146429Y-102638005D01*
X113053320Y-102777354D01*
X112934814Y-102895860D01*
X112795465Y-102988969D01*
X112640629Y-103053105D01*
X112476257Y-103085800D01*
X112308663Y-103085800D01*
X112144291Y-103053105D01*
X111989455Y-102988969D01*
X111850106Y-102895860D01*
X111731600Y-102777354D01*
X111638491Y-102638005D01*
X111574355Y-102483169D01*
X111541660Y-102318797D01*
X111541660Y-102151203D01*
X111574355Y-101986831D01*
X111638491Y-101831995D01*
X111731600Y-101692646D01*
X111850106Y-101574140D01*
X111989455Y-101481031D01*
X112144291Y-101416895D01*
X112308663Y-101384200D01*
X112476257Y-101384200D01*
X112640629Y-101416895D01*
G37*
G36*
X97400629Y-101416895D02*
G01*
X97555465Y-101481031D01*
X97694814Y-101574140D01*
X97813320Y-101692646D01*
X97906429Y-101831995D01*
X97970565Y-101986831D01*
X98003260Y-102151203D01*
X98003260Y-102318797D01*
X97970565Y-102483169D01*
X97906429Y-102638005D01*
X97813320Y-102777354D01*
X97694814Y-102895860D01*
X97555465Y-102988969D01*
X97400629Y-103053105D01*
X97236257Y-103085800D01*
X97068663Y-103085800D01*
X96904291Y-103053105D01*
X96749455Y-102988969D01*
X96610106Y-102895860D01*
X96491600Y-102777354D01*
X96398491Y-102638005D01*
X96334355Y-102483169D01*
X96301660Y-102318797D01*
X96301660Y-102151203D01*
X96334355Y-101986831D01*
X96398491Y-101831995D01*
X96491600Y-101692646D01*
X96610106Y-101574140D01*
X96749455Y-101481031D01*
X96904291Y-101416895D01*
X97068663Y-101384200D01*
X97236257Y-101384200D01*
X97400629Y-101416895D01*
G37*
G36*
X97400629Y-98876895D02*
G01*
X97555465Y-98941031D01*
X97694814Y-99034140D01*
X97813320Y-99152646D01*
X97906429Y-99291995D01*
X97970565Y-99446831D01*
X98003260Y-99611203D01*
X98003260Y-99778797D01*
X97970565Y-99943169D01*
X97906429Y-100098005D01*
X97813320Y-100237354D01*
X97694814Y-100355860D01*
X97555465Y-100448969D01*
X97400629Y-100513105D01*
X97236257Y-100545800D01*
X97068663Y-100545800D01*
X96904291Y-100513105D01*
X96749455Y-100448969D01*
X96610106Y-100355860D01*
X96491600Y-100237354D01*
X96398491Y-100098005D01*
X96334355Y-99943169D01*
X96301660Y-99778797D01*
X96301660Y-99611203D01*
X96334355Y-99446831D01*
X96398491Y-99291995D01*
X96491600Y-99152646D01*
X96610106Y-99034140D01*
X96749455Y-98941031D01*
X96904291Y-98876895D01*
X97068663Y-98844200D01*
X97236257Y-98844200D01*
X97400629Y-98876895D01*
G37*
G36*
X112640629Y-98876895D02*
G01*
X112795465Y-98941031D01*
X112934814Y-99034140D01*
X113053320Y-99152646D01*
X113146429Y-99291995D01*
X113210565Y-99446831D01*
X113243260Y-99611203D01*
X113243260Y-99778797D01*
X113210565Y-99943169D01*
X113146429Y-100098005D01*
X113053320Y-100237354D01*
X112934814Y-100355860D01*
X112795465Y-100448969D01*
X112640629Y-100513105D01*
X112476257Y-100545800D01*
X112308663Y-100545800D01*
X112144291Y-100513105D01*
X111989455Y-100448969D01*
X111850106Y-100355860D01*
X111731600Y-100237354D01*
X111638491Y-100098005D01*
X111574355Y-99943169D01*
X111541660Y-99778797D01*
X111541660Y-99611203D01*
X111574355Y-99446831D01*
X111638491Y-99291995D01*
X111731600Y-99152646D01*
X111850106Y-99034140D01*
X111989455Y-98941031D01*
X112144291Y-98876895D01*
X112308663Y-98844200D01*
X112476257Y-98844200D01*
X112640629Y-98876895D01*
G37*
G36*
X97400629Y-96336895D02*
G01*
X97555465Y-96401031D01*
X97694814Y-96494140D01*
X97813320Y-96612646D01*
X97906429Y-96751995D01*
X97970565Y-96906831D01*
X98003260Y-97071203D01*
X98003260Y-97238797D01*
X97970565Y-97403169D01*
X97906429Y-97558005D01*
X97813320Y-97697354D01*
X97694814Y-97815860D01*
X97555465Y-97908969D01*
X97400629Y-97973105D01*
X97236257Y-98005800D01*
X97068663Y-98005800D01*
X96904291Y-97973105D01*
X96749455Y-97908969D01*
X96610106Y-97815860D01*
X96491600Y-97697354D01*
X96398491Y-97558005D01*
X96334355Y-97403169D01*
X96301660Y-97238797D01*
X96301660Y-97071203D01*
X96334355Y-96906831D01*
X96398491Y-96751995D01*
X96491600Y-96612646D01*
X96610106Y-96494140D01*
X96749455Y-96401031D01*
X96904291Y-96336895D01*
X97068663Y-96304200D01*
X97236257Y-96304200D01*
X97400629Y-96336895D01*
G37*
G36*
X112640629Y-96336895D02*
G01*
X112795465Y-96401031D01*
X112934814Y-96494140D01*
X113053320Y-96612646D01*
X113146429Y-96751995D01*
X113210565Y-96906831D01*
X113243260Y-97071203D01*
X113243260Y-97238797D01*
X113210565Y-97403169D01*
X113146429Y-97558005D01*
X113053320Y-97697354D01*
X112934814Y-97815860D01*
X112795465Y-97908969D01*
X112640629Y-97973105D01*
X112476257Y-98005800D01*
X112308663Y-98005800D01*
X112144291Y-97973105D01*
X111989455Y-97908969D01*
X111850106Y-97815860D01*
X111731600Y-97697354D01*
X111638491Y-97558005D01*
X111574355Y-97403169D01*
X111541660Y-97238797D01*
X111541660Y-97071203D01*
X111574355Y-96906831D01*
X111638491Y-96751995D01*
X111731600Y-96612646D01*
X111850106Y-96494140D01*
X111989455Y-96401031D01*
X112144291Y-96336895D01*
X112308663Y-96304200D01*
X112476257Y-96304200D01*
X112640629Y-96336895D01*
G37*
G36*
X106137031Y-95623170D02*
G01*
X106225363Y-95640740D01*
X106391771Y-95709669D01*
X106541536Y-95809739D01*
X106668901Y-95937104D01*
X106768971Y-96086869D01*
X106837900Y-96253277D01*
X106837900Y-96253279D01*
X106873040Y-96429939D01*
X106873040Y-96610061D01*
X106855470Y-96698391D01*
X106837900Y-96786723D01*
X106768971Y-96953131D01*
X106668901Y-97102896D01*
X106541536Y-97230261D01*
X106391771Y-97330331D01*
X106225363Y-97399260D01*
X106137031Y-97416830D01*
X106048701Y-97434400D01*
X105868579Y-97434400D01*
X105780249Y-97416830D01*
X105691917Y-97399260D01*
X105525509Y-97330331D01*
X105375744Y-97230261D01*
X105248379Y-97102896D01*
X105148309Y-96953131D01*
X105079380Y-96786723D01*
X105061810Y-96698391D01*
X105044240Y-96610061D01*
X105044240Y-96429939D01*
X105079380Y-96253279D01*
X105079380Y-96253277D01*
X105148309Y-96086869D01*
X105248379Y-95937104D01*
X105375744Y-95809739D01*
X105525509Y-95709669D01*
X105691917Y-95640740D01*
X105780249Y-95623170D01*
X105868579Y-95605600D01*
X106048701Y-95605600D01*
X106137031Y-95623170D01*
G37*
G36*
X104333040Y-97434400D02*
G01*
X102504240Y-97434400D01*
X102504240Y-95605600D01*
X104333040Y-95605600D01*
X104333040Y-97434400D01*
G37*
G36*
X97400629Y-93796895D02*
G01*
X97555465Y-93861031D01*
X97694814Y-93954140D01*
X97813320Y-94072646D01*
X97906429Y-94211995D01*
X97970565Y-94366831D01*
X98003260Y-94531203D01*
X98003260Y-94698797D01*
X97970565Y-94863169D01*
X97906429Y-95018005D01*
X97813320Y-95157354D01*
X97694814Y-95275860D01*
X97555465Y-95368969D01*
X97400629Y-95433105D01*
X97236257Y-95465800D01*
X97068663Y-95465800D01*
X96904291Y-95433105D01*
X96749455Y-95368969D01*
X96610106Y-95275860D01*
X96491600Y-95157354D01*
X96398491Y-95018005D01*
X96334355Y-94863169D01*
X96301660Y-94698797D01*
X96301660Y-94531203D01*
X96334355Y-94366831D01*
X96398491Y-94211995D01*
X96491600Y-94072646D01*
X96610106Y-93954140D01*
X96749455Y-93861031D01*
X96904291Y-93796895D01*
X97068663Y-93764200D01*
X97236257Y-93764200D01*
X97400629Y-93796895D01*
G37*
G36*
X112640629Y-93796895D02*
G01*
X112795465Y-93861031D01*
X112934814Y-93954140D01*
X113053320Y-94072646D01*
X113146429Y-94211995D01*
X113210565Y-94366831D01*
X113243260Y-94531203D01*
X113243260Y-94698797D01*
X113210565Y-94863169D01*
X113146429Y-95018005D01*
X113053320Y-95157354D01*
X112934814Y-95275860D01*
X112795465Y-95368969D01*
X112640629Y-95433105D01*
X112476257Y-95465800D01*
X112308663Y-95465800D01*
X112144291Y-95433105D01*
X111989455Y-95368969D01*
X111850106Y-95275860D01*
X111731600Y-95157354D01*
X111638491Y-95018005D01*
X111574355Y-94863169D01*
X111541660Y-94698797D01*
X111541660Y-94531203D01*
X111574355Y-94366831D01*
X111638491Y-94211995D01*
X111731600Y-94072646D01*
X111850106Y-93954140D01*
X111989455Y-93861031D01*
X112144291Y-93796895D01*
X112308663Y-93764200D01*
X112476257Y-93764200D01*
X112640629Y-93796895D01*
G37*
G36*
X103597031Y-93083170D02*
G01*
X103685363Y-93100740D01*
X103851771Y-93169669D01*
X104001536Y-93269739D01*
X104128901Y-93397104D01*
X104228971Y-93546869D01*
X104297900Y-93713277D01*
X104297900Y-93713279D01*
X104333040Y-93889939D01*
X104333040Y-94070061D01*
X104315470Y-94158391D01*
X104297900Y-94246723D01*
X104228971Y-94413131D01*
X104128901Y-94562896D01*
X104001536Y-94690261D01*
X103851771Y-94790331D01*
X103685363Y-94859260D01*
X103597031Y-94876830D01*
X103508701Y-94894400D01*
X103328579Y-94894400D01*
X103240249Y-94876830D01*
X103151917Y-94859260D01*
X102985509Y-94790331D01*
X102835744Y-94690261D01*
X102708379Y-94562896D01*
X102608309Y-94413131D01*
X102539380Y-94246723D01*
X102521810Y-94158391D01*
X102504240Y-94070061D01*
X102504240Y-93889939D01*
X102539380Y-93713279D01*
X102539380Y-93713277D01*
X102608309Y-93546869D01*
X102708379Y-93397104D01*
X102835744Y-93269739D01*
X102985509Y-93169669D01*
X103151917Y-93100740D01*
X103240249Y-93083170D01*
X103328579Y-93065600D01*
X103508701Y-93065600D01*
X103597031Y-93083170D01*
G37*
G36*
X106137031Y-93083170D02*
G01*
X106225363Y-93100740D01*
X106391771Y-93169669D01*
X106541536Y-93269739D01*
X106668901Y-93397104D01*
X106768971Y-93546869D01*
X106837900Y-93713277D01*
X106837900Y-93713279D01*
X106873040Y-93889939D01*
X106873040Y-94070061D01*
X106855470Y-94158391D01*
X106837900Y-94246723D01*
X106768971Y-94413131D01*
X106668901Y-94562896D01*
X106541536Y-94690261D01*
X106391771Y-94790331D01*
X106225363Y-94859260D01*
X106137031Y-94876830D01*
X106048701Y-94894400D01*
X105868579Y-94894400D01*
X105780249Y-94876830D01*
X105691917Y-94859260D01*
X105525509Y-94790331D01*
X105375744Y-94690261D01*
X105248379Y-94562896D01*
X105148309Y-94413131D01*
X105079380Y-94246723D01*
X105061810Y-94158391D01*
X105044240Y-94070061D01*
X105044240Y-93889939D01*
X105079380Y-93713279D01*
X105079380Y-93713277D01*
X105148309Y-93546869D01*
X105248379Y-93397104D01*
X105375744Y-93269739D01*
X105525509Y-93169669D01*
X105691917Y-93100740D01*
X105780249Y-93083170D01*
X105868579Y-93065600D01*
X106048701Y-93065600D01*
X106137031Y-93083170D01*
G37*
G36*
X112640629Y-91256895D02*
G01*
X112795465Y-91321031D01*
X112934814Y-91414140D01*
X113053320Y-91532646D01*
X113146429Y-91671995D01*
X113210565Y-91826831D01*
X113243260Y-91991203D01*
X113243260Y-92158797D01*
X113210565Y-92323169D01*
X113146429Y-92478005D01*
X113053320Y-92617354D01*
X112934814Y-92735860D01*
X112795465Y-92828969D01*
X112640629Y-92893105D01*
X112476257Y-92925800D01*
X112308663Y-92925800D01*
X112144291Y-92893105D01*
X111989455Y-92828969D01*
X111850106Y-92735860D01*
X111731600Y-92617354D01*
X111638491Y-92478005D01*
X111574355Y-92323169D01*
X111541660Y-92158797D01*
X111541660Y-91991203D01*
X111574355Y-91826831D01*
X111638491Y-91671995D01*
X111731600Y-91532646D01*
X111850106Y-91414140D01*
X111989455Y-91321031D01*
X112144291Y-91256895D01*
X112308663Y-91224200D01*
X112476257Y-91224200D01*
X112640629Y-91256895D01*
G37*
G36*
X97400629Y-91256895D02*
G01*
X97555465Y-91321031D01*
X97694814Y-91414140D01*
X97813320Y-91532646D01*
X97906429Y-91671995D01*
X97970565Y-91826831D01*
X98003260Y-91991203D01*
X98003260Y-92158797D01*
X97970565Y-92323169D01*
X97906429Y-92478005D01*
X97813320Y-92617354D01*
X97694814Y-92735860D01*
X97555465Y-92828969D01*
X97400629Y-92893105D01*
X97236257Y-92925800D01*
X97068663Y-92925800D01*
X96904291Y-92893105D01*
X96749455Y-92828969D01*
X96610106Y-92735860D01*
X96491600Y-92617354D01*
X96398491Y-92478005D01*
X96334355Y-92323169D01*
X96301660Y-92158797D01*
X96301660Y-91991203D01*
X96334355Y-91826831D01*
X96398491Y-91671995D01*
X96491600Y-91532646D01*
X96610106Y-91414140D01*
X96749455Y-91321031D01*
X96904291Y-91256895D01*
X97068663Y-91224200D01*
X97236257Y-91224200D01*
X97400629Y-91256895D01*
G37*
G36*
X106137031Y-90543170D02*
G01*
X106225363Y-90560740D01*
X106391771Y-90629669D01*
X106541536Y-90729739D01*
X106668901Y-90857104D01*
X106768971Y-91006869D01*
X106837900Y-91173277D01*
X106837900Y-91173279D01*
X106873040Y-91349939D01*
X106873040Y-91530061D01*
X106855470Y-91618391D01*
X106837900Y-91706723D01*
X106768971Y-91873131D01*
X106668901Y-92022896D01*
X106541536Y-92150261D01*
X106391771Y-92250331D01*
X106225363Y-92319260D01*
X106137031Y-92336830D01*
X106048701Y-92354400D01*
X105868579Y-92354400D01*
X105780249Y-92336830D01*
X105691917Y-92319260D01*
X105525509Y-92250331D01*
X105375744Y-92150261D01*
X105248379Y-92022896D01*
X105148309Y-91873131D01*
X105079380Y-91706723D01*
X105061810Y-91618391D01*
X105044240Y-91530061D01*
X105044240Y-91349939D01*
X105079380Y-91173279D01*
X105079380Y-91173277D01*
X105148309Y-91006869D01*
X105248379Y-90857104D01*
X105375744Y-90729739D01*
X105525509Y-90629669D01*
X105691917Y-90560740D01*
X105780249Y-90543170D01*
X105868579Y-90525600D01*
X106048701Y-90525600D01*
X106137031Y-90543170D01*
G37*
G36*
X103597031Y-90543170D02*
G01*
X103685363Y-90560740D01*
X103851771Y-90629669D01*
X104001536Y-90729739D01*
X104128901Y-90857104D01*
X104228971Y-91006869D01*
X104297900Y-91173277D01*
X104297900Y-91173279D01*
X104333040Y-91349939D01*
X104333040Y-91530061D01*
X104315470Y-91618391D01*
X104297900Y-91706723D01*
X104228971Y-91873131D01*
X104128901Y-92022896D01*
X104001536Y-92150261D01*
X103851771Y-92250331D01*
X103685363Y-92319260D01*
X103597031Y-92336830D01*
X103508701Y-92354400D01*
X103328579Y-92354400D01*
X103240249Y-92336830D01*
X103151917Y-92319260D01*
X102985509Y-92250331D01*
X102835744Y-92150261D01*
X102708379Y-92022896D01*
X102608309Y-91873131D01*
X102539380Y-91706723D01*
X102521810Y-91618391D01*
X102504240Y-91530061D01*
X102504240Y-91349939D01*
X102539380Y-91173279D01*
X102539380Y-91173277D01*
X102608309Y-91006869D01*
X102708379Y-90857104D01*
X102835744Y-90729739D01*
X102985509Y-90629669D01*
X103151917Y-90560740D01*
X103240249Y-90543170D01*
X103328579Y-90525600D01*
X103508701Y-90525600D01*
X103597031Y-90543170D01*
G37*
G36*
X97400629Y-88716895D02*
G01*
X97555465Y-88781031D01*
X97694814Y-88874140D01*
X97813320Y-88992646D01*
X97906429Y-89131995D01*
X97970565Y-89286831D01*
X98003260Y-89451203D01*
X98003260Y-89618797D01*
X97970565Y-89783169D01*
X97906429Y-89938005D01*
X97813320Y-90077354D01*
X97694814Y-90195860D01*
X97555465Y-90288969D01*
X97400629Y-90353105D01*
X97236257Y-90385800D01*
X97068663Y-90385800D01*
X96904291Y-90353105D01*
X96749455Y-90288969D01*
X96610106Y-90195860D01*
X96491600Y-90077354D01*
X96398491Y-89938005D01*
X96334355Y-89783169D01*
X96301660Y-89618797D01*
X96301660Y-89451203D01*
X96334355Y-89286831D01*
X96398491Y-89131995D01*
X96491600Y-88992646D01*
X96610106Y-88874140D01*
X96749455Y-88781031D01*
X96904291Y-88716895D01*
X97068663Y-88684200D01*
X97236257Y-88684200D01*
X97400629Y-88716895D01*
G37*
G36*
X112640629Y-88716895D02*
G01*
X112795465Y-88781031D01*
X112934814Y-88874140D01*
X113053320Y-88992646D01*
X113146429Y-89131995D01*
X113210565Y-89286831D01*
X113243260Y-89451203D01*
X113243260Y-89618797D01*
X113210565Y-89783169D01*
X113146429Y-89938005D01*
X113053320Y-90077354D01*
X112934814Y-90195860D01*
X112795465Y-90288969D01*
X112640629Y-90353105D01*
X112476257Y-90385800D01*
X112308663Y-90385800D01*
X112144291Y-90353105D01*
X111989455Y-90288969D01*
X111850106Y-90195860D01*
X111731600Y-90077354D01*
X111638491Y-89938005D01*
X111574355Y-89783169D01*
X111541660Y-89618797D01*
X111541660Y-89451203D01*
X111574355Y-89286831D01*
X111638491Y-89131995D01*
X111731600Y-88992646D01*
X111850106Y-88874140D01*
X111989455Y-88781031D01*
X112144291Y-88716895D01*
X112308663Y-88684200D01*
X112476257Y-88684200D01*
X112640629Y-88716895D01*
G37*
G36*
X103597031Y-88003170D02*
G01*
X103685363Y-88020740D01*
X103851771Y-88089669D01*
X104001536Y-88189739D01*
X104128901Y-88317104D01*
X104228971Y-88466869D01*
X104297900Y-88633277D01*
X104297900Y-88633279D01*
X104333040Y-88809939D01*
X104333040Y-88990061D01*
X104315470Y-89078391D01*
X104297900Y-89166723D01*
X104228971Y-89333131D01*
X104128901Y-89482896D01*
X104001536Y-89610261D01*
X103851771Y-89710331D01*
X103685363Y-89779260D01*
X103597031Y-89796830D01*
X103508701Y-89814400D01*
X103328579Y-89814400D01*
X103240249Y-89796830D01*
X103151917Y-89779260D01*
X102985509Y-89710331D01*
X102835744Y-89610261D01*
X102708379Y-89482896D01*
X102608309Y-89333131D01*
X102539380Y-89166723D01*
X102521810Y-89078391D01*
X102504240Y-88990061D01*
X102504240Y-88809939D01*
X102539380Y-88633279D01*
X102539380Y-88633277D01*
X102608309Y-88466869D01*
X102708379Y-88317104D01*
X102835744Y-88189739D01*
X102985509Y-88089669D01*
X103151917Y-88020740D01*
X103240249Y-88003170D01*
X103328579Y-87985600D01*
X103508701Y-87985600D01*
X103597031Y-88003170D01*
G37*
G36*
X106137031Y-88003170D02*
G01*
X106225363Y-88020740D01*
X106391771Y-88089669D01*
X106541536Y-88189739D01*
X106668901Y-88317104D01*
X106768971Y-88466869D01*
X106837900Y-88633277D01*
X106837900Y-88633279D01*
X106873040Y-88809939D01*
X106873040Y-88990061D01*
X106855470Y-89078391D01*
X106837900Y-89166723D01*
X106768971Y-89333131D01*
X106668901Y-89482896D01*
X106541536Y-89610261D01*
X106391771Y-89710331D01*
X106225363Y-89779260D01*
X106137031Y-89796830D01*
X106048701Y-89814400D01*
X105868579Y-89814400D01*
X105780249Y-89796830D01*
X105691917Y-89779260D01*
X105525509Y-89710331D01*
X105375744Y-89610261D01*
X105248379Y-89482896D01*
X105148309Y-89333131D01*
X105079380Y-89166723D01*
X105061810Y-89078391D01*
X105044240Y-88990061D01*
X105044240Y-88809939D01*
X105079380Y-88633279D01*
X105079380Y-88633277D01*
X105148309Y-88466869D01*
X105248379Y-88317104D01*
X105375744Y-88189739D01*
X105525509Y-88089669D01*
X105691917Y-88020740D01*
X105780249Y-88003170D01*
X105868579Y-87985600D01*
X106048701Y-87985600D01*
X106137031Y-88003170D01*
G37*
G36*
X112640629Y-86176895D02*
G01*
X112795465Y-86241031D01*
X112934814Y-86334140D01*
X113053320Y-86452646D01*
X113146429Y-86591995D01*
X113210565Y-86746831D01*
X113243260Y-86911203D01*
X113243260Y-87078797D01*
X113210565Y-87243169D01*
X113146429Y-87398005D01*
X113053320Y-87537354D01*
X112934814Y-87655860D01*
X112795465Y-87748969D01*
X112640629Y-87813105D01*
X112476257Y-87845800D01*
X112308663Y-87845800D01*
X112144291Y-87813105D01*
X111989455Y-87748969D01*
X111850106Y-87655860D01*
X111731600Y-87537354D01*
X111638491Y-87398005D01*
X111574355Y-87243169D01*
X111541660Y-87078797D01*
X111541660Y-86911203D01*
X111574355Y-86746831D01*
X111638491Y-86591995D01*
X111731600Y-86452646D01*
X111850106Y-86334140D01*
X111989455Y-86241031D01*
X112144291Y-86176895D01*
X112308663Y-86144200D01*
X112476257Y-86144200D01*
X112640629Y-86176895D01*
G37*
G36*
X97400629Y-86176895D02*
G01*
X97555465Y-86241031D01*
X97694814Y-86334140D01*
X97813320Y-86452646D01*
X97906429Y-86591995D01*
X97970565Y-86746831D01*
X98003260Y-86911203D01*
X98003260Y-87078797D01*
X97970565Y-87243169D01*
X97906429Y-87398005D01*
X97813320Y-87537354D01*
X97694814Y-87655860D01*
X97555465Y-87748969D01*
X97400629Y-87813105D01*
X97236257Y-87845800D01*
X97068663Y-87845800D01*
X96904291Y-87813105D01*
X96749455Y-87748969D01*
X96610106Y-87655860D01*
X96491600Y-87537354D01*
X96398491Y-87398005D01*
X96334355Y-87243169D01*
X96301660Y-87078797D01*
X96301660Y-86911203D01*
X96334355Y-86746831D01*
X96398491Y-86591995D01*
X96491600Y-86452646D01*
X96610106Y-86334140D01*
X96749455Y-86241031D01*
X96904291Y-86176895D01*
X97068663Y-86144200D01*
X97236257Y-86144200D01*
X97400629Y-86176895D01*
G37*
G36*
X118751214Y-84096817D02*
G01*
X118915149Y-84164721D01*
X119062687Y-84263303D01*
X119188157Y-84388773D01*
X119286739Y-84536311D01*
X119354643Y-84700246D01*
X119389260Y-84874279D01*
X119389260Y-85051721D01*
X119354643Y-85225754D01*
X119286739Y-85389689D01*
X119188157Y-85537227D01*
X119062687Y-85662697D01*
X118915149Y-85761279D01*
X118751214Y-85829183D01*
X118577181Y-85863800D01*
X118399739Y-85863800D01*
X118225706Y-85829183D01*
X118061771Y-85761279D01*
X117914233Y-85662697D01*
X117788763Y-85537227D01*
X117690181Y-85389689D01*
X117622277Y-85225754D01*
X117587660Y-85051721D01*
X117587660Y-84874279D01*
X117622277Y-84700246D01*
X117690181Y-84536311D01*
X117788763Y-84388773D01*
X117914233Y-84263303D01*
X118061771Y-84164721D01*
X118225706Y-84096817D01*
X118399739Y-84062200D01*
X118577181Y-84062200D01*
X118751214Y-84096817D01*
G37*
G36*
X97400629Y-83636895D02*
G01*
X97555465Y-83701031D01*
X97694814Y-83794140D01*
X97813320Y-83912646D01*
X97906429Y-84051995D01*
X97970565Y-84206831D01*
X98003260Y-84371203D01*
X98003260Y-84538797D01*
X97970565Y-84703169D01*
X97906429Y-84858005D01*
X97813320Y-84997354D01*
X97694814Y-85115860D01*
X97555465Y-85208969D01*
X97400629Y-85273105D01*
X97236257Y-85305800D01*
X97068663Y-85305800D01*
X96904291Y-85273105D01*
X96749455Y-85208969D01*
X96610106Y-85115860D01*
X96491600Y-84997354D01*
X96398491Y-84858005D01*
X96334355Y-84703169D01*
X96301660Y-84538797D01*
X96301660Y-84371203D01*
X96334355Y-84206831D01*
X96398491Y-84051995D01*
X96491600Y-83912646D01*
X96610106Y-83794140D01*
X96749455Y-83701031D01*
X96904291Y-83636895D01*
X97068663Y-83604200D01*
X97236257Y-83604200D01*
X97400629Y-83636895D01*
G37*
G36*
X112640629Y-83636895D02*
G01*
X112795465Y-83701031D01*
X112934814Y-83794140D01*
X113053320Y-83912646D01*
X113146429Y-84051995D01*
X113210565Y-84206831D01*
X113243260Y-84371203D01*
X113243260Y-84538797D01*
X113210565Y-84703169D01*
X113146429Y-84858005D01*
X113053320Y-84997354D01*
X112934814Y-85115860D01*
X112795465Y-85208969D01*
X112640629Y-85273105D01*
X112476257Y-85305800D01*
X112308663Y-85305800D01*
X112144291Y-85273105D01*
X111989455Y-85208969D01*
X111850106Y-85115860D01*
X111731600Y-84997354D01*
X111638491Y-84858005D01*
X111574355Y-84703169D01*
X111541660Y-84538797D01*
X111541660Y-84371203D01*
X111574355Y-84206831D01*
X111638491Y-84051995D01*
X111731600Y-83912646D01*
X111850106Y-83794140D01*
X111989455Y-83701031D01*
X112144291Y-83636895D01*
X112308663Y-83604200D01*
X112476257Y-83604200D01*
X112640629Y-83636895D01*
G37*
G36*
X118751214Y-81556817D02*
G01*
X118915149Y-81624721D01*
X119062687Y-81723303D01*
X119188157Y-81848773D01*
X119286739Y-81996311D01*
X119354643Y-82160246D01*
X119389260Y-82334279D01*
X119389260Y-82511721D01*
X119354643Y-82685754D01*
X119286739Y-82849689D01*
X119188157Y-82997227D01*
X119062687Y-83122697D01*
X118915149Y-83221279D01*
X118751214Y-83289183D01*
X118577181Y-83323800D01*
X118399739Y-83323800D01*
X118225706Y-83289183D01*
X118061771Y-83221279D01*
X117914233Y-83122697D01*
X117788763Y-82997227D01*
X117690181Y-82849689D01*
X117622277Y-82685754D01*
X117587660Y-82511721D01*
X117587660Y-82334279D01*
X117622277Y-82160246D01*
X117690181Y-81996311D01*
X117788763Y-81848773D01*
X117914233Y-81723303D01*
X118061771Y-81624721D01*
X118225706Y-81556817D01*
X118399739Y-81522200D01*
X118577181Y-81522200D01*
X118751214Y-81556817D01*
G37*
G36*
X112640629Y-81096895D02*
G01*
X112795465Y-81161031D01*
X112934814Y-81254140D01*
X113053320Y-81372646D01*
X113146429Y-81511995D01*
X113210565Y-81666831D01*
X113243260Y-81831203D01*
X113243260Y-81998797D01*
X113210565Y-82163169D01*
X113146429Y-82318005D01*
X113053320Y-82457354D01*
X112934814Y-82575860D01*
X112795465Y-82668969D01*
X112640629Y-82733105D01*
X112476257Y-82765800D01*
X112308663Y-82765800D01*
X112144291Y-82733105D01*
X111989455Y-82668969D01*
X111850106Y-82575860D01*
X111731600Y-82457354D01*
X111638491Y-82318005D01*
X111574355Y-82163169D01*
X111541660Y-81998797D01*
X111541660Y-81831203D01*
X111574355Y-81666831D01*
X111638491Y-81511995D01*
X111731600Y-81372646D01*
X111850106Y-81254140D01*
X111989455Y-81161031D01*
X112144291Y-81096895D01*
X112308663Y-81064200D01*
X112476257Y-81064200D01*
X112640629Y-81096895D01*
G37*
G36*
X97400629Y-81096895D02*
G01*
X97555465Y-81161031D01*
X97694814Y-81254140D01*
X97813320Y-81372646D01*
X97906429Y-81511995D01*
X97970565Y-81666831D01*
X98003260Y-81831203D01*
X98003260Y-81998797D01*
X97970565Y-82163169D01*
X97906429Y-82318005D01*
X97813320Y-82457354D01*
X97694814Y-82575860D01*
X97555465Y-82668969D01*
X97400629Y-82733105D01*
X97236257Y-82765800D01*
X97068663Y-82765800D01*
X96904291Y-82733105D01*
X96749455Y-82668969D01*
X96610106Y-82575860D01*
X96491600Y-82457354D01*
X96398491Y-82318005D01*
X96334355Y-82163169D01*
X96301660Y-81998797D01*
X96301660Y-81831203D01*
X96334355Y-81666831D01*
X96398491Y-81511995D01*
X96491600Y-81372646D01*
X96610106Y-81254140D01*
X96749455Y-81161031D01*
X96904291Y-81096895D01*
X97068663Y-81064200D01*
X97236257Y-81064200D01*
X97400629Y-81096895D01*
G37*
G36*
X118751214Y-79016817D02*
G01*
X118915149Y-79084721D01*
X119062687Y-79183303D01*
X119188157Y-79308773D01*
X119286739Y-79456311D01*
X119354643Y-79620246D01*
X119389260Y-79794279D01*
X119389260Y-79971721D01*
X119354643Y-80145754D01*
X119286739Y-80309689D01*
X119188157Y-80457227D01*
X119062687Y-80582697D01*
X118915149Y-80681279D01*
X118751214Y-80749183D01*
X118577181Y-80783800D01*
X118399739Y-80783800D01*
X118225706Y-80749183D01*
X118061771Y-80681279D01*
X117914233Y-80582697D01*
X117788763Y-80457227D01*
X117690181Y-80309689D01*
X117622277Y-80145754D01*
X117587660Y-79971721D01*
X117587660Y-79794279D01*
X117622277Y-79620246D01*
X117690181Y-79456311D01*
X117788763Y-79308773D01*
X117914233Y-79183303D01*
X118061771Y-79084721D01*
X118225706Y-79016817D01*
X118399739Y-78982200D01*
X118577181Y-78982200D01*
X118751214Y-79016817D01*
G37*
G36*
X97400629Y-78556895D02*
G01*
X97555465Y-78621031D01*
X97694814Y-78714140D01*
X97813320Y-78832646D01*
X97906429Y-78971995D01*
X97970565Y-79126831D01*
X98003260Y-79291203D01*
X98003260Y-79458797D01*
X97970565Y-79623169D01*
X97906429Y-79778005D01*
X97813320Y-79917354D01*
X97694814Y-80035860D01*
X97555465Y-80128969D01*
X97400629Y-80193105D01*
X97236257Y-80225800D01*
X97068663Y-80225800D01*
X96904291Y-80193105D01*
X96749455Y-80128969D01*
X96610106Y-80035860D01*
X96491600Y-79917354D01*
X96398491Y-79778005D01*
X96334355Y-79623169D01*
X96301660Y-79458797D01*
X96301660Y-79291203D01*
X96334355Y-79126831D01*
X96398491Y-78971995D01*
X96491600Y-78832646D01*
X96610106Y-78714140D01*
X96749455Y-78621031D01*
X96904291Y-78556895D01*
X97068663Y-78524200D01*
X97236257Y-78524200D01*
X97400629Y-78556895D01*
G37*
G36*
X112640629Y-78556895D02*
G01*
X112795465Y-78621031D01*
X112934814Y-78714140D01*
X113053320Y-78832646D01*
X113146429Y-78971995D01*
X113210565Y-79126831D01*
X113243260Y-79291203D01*
X113243260Y-79458797D01*
X113210565Y-79623169D01*
X113146429Y-79778005D01*
X113053320Y-79917354D01*
X112934814Y-80035860D01*
X112795465Y-80128969D01*
X112640629Y-80193105D01*
X112476257Y-80225800D01*
X112308663Y-80225800D01*
X112144291Y-80193105D01*
X111989455Y-80128969D01*
X111850106Y-80035860D01*
X111731600Y-79917354D01*
X111638491Y-79778005D01*
X111574355Y-79623169D01*
X111541660Y-79458797D01*
X111541660Y-79291203D01*
X111574355Y-79126831D01*
X111638491Y-78971995D01*
X111731600Y-78832646D01*
X111850106Y-78714140D01*
X111989455Y-78621031D01*
X112144291Y-78556895D01*
X112308663Y-78524200D01*
X112476257Y-78524200D01*
X112640629Y-78556895D01*
G37*
G36*
X118751214Y-76476817D02*
G01*
X118915149Y-76544721D01*
X119062687Y-76643303D01*
X119188157Y-76768773D01*
X119286739Y-76916311D01*
X119354643Y-77080246D01*
X119389260Y-77254279D01*
X119389260Y-77431721D01*
X119354643Y-77605754D01*
X119286739Y-77769689D01*
X119188157Y-77917227D01*
X119062687Y-78042697D01*
X118915149Y-78141279D01*
X118751214Y-78209183D01*
X118577181Y-78243800D01*
X118399739Y-78243800D01*
X118225706Y-78209183D01*
X118061771Y-78141279D01*
X117914233Y-78042697D01*
X117788763Y-77917227D01*
X117690181Y-77769689D01*
X117622277Y-77605754D01*
X117587660Y-77431721D01*
X117587660Y-77254279D01*
X117622277Y-77080246D01*
X117690181Y-76916311D01*
X117788763Y-76768773D01*
X117914233Y-76643303D01*
X118061771Y-76544721D01*
X118225706Y-76476817D01*
X118399739Y-76442200D01*
X118577181Y-76442200D01*
X118751214Y-76476817D01*
G37*
G36*
X112640629Y-76016895D02*
G01*
X112795465Y-76081031D01*
X112934814Y-76174140D01*
X113053320Y-76292646D01*
X113146429Y-76431995D01*
X113210565Y-76586831D01*
X113243260Y-76751203D01*
X113243260Y-76918797D01*
X113210565Y-77083169D01*
X113146429Y-77238005D01*
X113053320Y-77377354D01*
X112934814Y-77495860D01*
X112795465Y-77588969D01*
X112640629Y-77653105D01*
X112476257Y-77685800D01*
X112308663Y-77685800D01*
X112144291Y-77653105D01*
X111989455Y-77588969D01*
X111850106Y-77495860D01*
X111731600Y-77377354D01*
X111638491Y-77238005D01*
X111574355Y-77083169D01*
X111541660Y-76918797D01*
X111541660Y-76751203D01*
X111574355Y-76586831D01*
X111638491Y-76431995D01*
X111731600Y-76292646D01*
X111850106Y-76174140D01*
X111989455Y-76081031D01*
X112144291Y-76016895D01*
X112308663Y-75984200D01*
X112476257Y-75984200D01*
X112640629Y-76016895D01*
G37*
G36*
X98003260Y-77685800D02*
G01*
X96301660Y-77685800D01*
X96301660Y-75984200D01*
X98003260Y-75984200D01*
X98003260Y-77685800D01*
G37*
G36*
X118751214Y-73936817D02*
G01*
X118915149Y-74004721D01*
X119062687Y-74103303D01*
X119188157Y-74228773D01*
X119286739Y-74376311D01*
X119354643Y-74540246D01*
X119389260Y-74714279D01*
X119389260Y-74891721D01*
X119354643Y-75065754D01*
X119286739Y-75229689D01*
X119188157Y-75377227D01*
X119062687Y-75502697D01*
X118915149Y-75601279D01*
X118751214Y-75669183D01*
X118577181Y-75703800D01*
X118399739Y-75703800D01*
X118225706Y-75669183D01*
X118061771Y-75601279D01*
X117914233Y-75502697D01*
X117788763Y-75377227D01*
X117690181Y-75229689D01*
X117622277Y-75065754D01*
X117587660Y-74891721D01*
X117587660Y-74714279D01*
X117622277Y-74540246D01*
X117690181Y-74376311D01*
X117788763Y-74228773D01*
X117914233Y-74103303D01*
X118061771Y-74004721D01*
X118225706Y-73936817D01*
X118399739Y-73902200D01*
X118577181Y-73902200D01*
X118751214Y-73936817D01*
G37*
G36*
X97426881Y-73390355D02*
G01*
X97598096Y-73461274D01*
X97752185Y-73564233D01*
X97883227Y-73695275D01*
X97986186Y-73849364D01*
X98057105Y-74020579D01*
X98093260Y-74202339D01*
X98093260Y-74387661D01*
X98057105Y-74569421D01*
X97986186Y-74740636D01*
X97883227Y-74894725D01*
X97752185Y-75025767D01*
X97598096Y-75128726D01*
X97426881Y-75199645D01*
X97245121Y-75235800D01*
X97059799Y-75235800D01*
X96878039Y-75199645D01*
X96706824Y-75128726D01*
X96552735Y-75025767D01*
X96421693Y-74894725D01*
X96318734Y-74740636D01*
X96247815Y-74569421D01*
X96211660Y-74387661D01*
X96211660Y-74202339D01*
X96247815Y-74020579D01*
X96318734Y-73849364D01*
X96421693Y-73695275D01*
X96552735Y-73564233D01*
X96706824Y-73461274D01*
X96878039Y-73390355D01*
X97059799Y-73354200D01*
X97245121Y-73354200D01*
X97426881Y-73390355D01*
G37*
G36*
X112666881Y-73390355D02*
G01*
X112838096Y-73461274D01*
X112992185Y-73564233D01*
X113123227Y-73695275D01*
X113226186Y-73849364D01*
X113297105Y-74020579D01*
X113333260Y-74202339D01*
X113333260Y-74387661D01*
X113297105Y-74569421D01*
X113226186Y-74740636D01*
X113123227Y-74894725D01*
X112992185Y-75025767D01*
X112838096Y-75128726D01*
X112666881Y-75199645D01*
X112485121Y-75235800D01*
X112299799Y-75235800D01*
X112118039Y-75199645D01*
X111946824Y-75128726D01*
X111792735Y-75025767D01*
X111661693Y-74894725D01*
X111558734Y-74740636D01*
X111487815Y-74569421D01*
X111451660Y-74387661D01*
X111451660Y-74202339D01*
X111487815Y-74020579D01*
X111558734Y-73849364D01*
X111661693Y-73695275D01*
X111792735Y-73564233D01*
X111946824Y-73461274D01*
X112118039Y-73390355D01*
X112299799Y-73354200D01*
X112485121Y-73354200D01*
X112666881Y-73390355D01*
G37*
G36*
X119389260Y-73163800D02*
G01*
X117587660Y-73163800D01*
X117587660Y-71362200D01*
X119389260Y-71362200D01*
X119389260Y-73163800D01*
G37*
M02*
