G04 #@! TF.GenerationSoftware,KiCad,Pcbnew,(5.1.9)-1*
G04 #@! TF.CreationDate,2021-01-04T11:02:08-08:00*
G04 #@! TF.ProjectId,Plug_Pass,506c7567-5f50-4617-9373-2e6b69636164,v3.1*
G04 #@! TF.SameCoordinates,Original*
G04 #@! TF.FileFunction,Copper,L2,Bot*
G04 #@! TF.FilePolarity,Positive*
%FSLAX46Y46*%
G04 Gerber Fmt 4.6, Leading zero omitted, Abs format (unit mm)*
G04 Created by KiCad (PCBNEW (5.1.9)-1) date 2021-01-04 11:02:08*
%MOMM*%
%LPD*%
G01*
G04 APERTURE LIST*
G04 #@! TA.AperFunction,SMDPad,CuDef*
%ADD10R,1.500000X2.030000*%
G04 #@! TD*
G04 #@! TA.AperFunction,ComponentPad*
%ADD11R,6.000001X6.000001*%
G04 #@! TD*
G04 #@! TA.AperFunction,ComponentPad*
%ADD12O,2.200000X1.100000*%
G04 #@! TD*
G04 #@! TA.AperFunction,SMDPad,CuDef*
%ADD13R,1.400000X0.950000*%
G04 #@! TD*
G04 #@! TA.AperFunction,SMDPad,CuDef*
%ADD14R,0.750000X1.150000*%
G04 #@! TD*
G04 #@! TA.AperFunction,ComponentPad*
%ADD15C,2.500000*%
G04 #@! TD*
G04 #@! TA.AperFunction,ComponentPad*
%ADD16R,4.000000X4.000000*%
G04 #@! TD*
G04 #@! TA.AperFunction,ComponentPad*
%ADD17C,4.000000*%
G04 #@! TD*
G04 #@! TA.AperFunction,ComponentPad*
%ADD18C,2.000000*%
G04 #@! TD*
G04 #@! TA.AperFunction,ComponentPad*
%ADD19R,2.000000X2.000000*%
G04 #@! TD*
G04 #@! TA.AperFunction,ViaPad*
%ADD20C,0.508000*%
G04 #@! TD*
G04 #@! TA.AperFunction,ViaPad*
%ADD21C,0.762000*%
G04 #@! TD*
G04 #@! TA.AperFunction,ViaPad*
%ADD22C,1.160000*%
G04 #@! TD*
G04 #@! TA.AperFunction,Conductor*
%ADD23C,0.254000*%
G04 #@! TD*
G04 #@! TA.AperFunction,Conductor*
%ADD24C,0.508000*%
G04 #@! TD*
G04 #@! TA.AperFunction,Conductor*
%ADD25C,0.762000*%
G04 #@! TD*
G04 #@! TA.AperFunction,Conductor*
%ADD26C,0.100000*%
G04 #@! TD*
G04 APERTURE END LIST*
D10*
X137922000Y-88264000D03*
X140462000Y-88264000D03*
X143002000Y-88264000D03*
X145542000Y-88264000D03*
X158242000Y-88264000D03*
X163322000Y-88264000D03*
X168402000Y-88264000D03*
X137922000Y-59564000D03*
X140462000Y-59564000D03*
X143002000Y-59564000D03*
X145542000Y-59564000D03*
X158242000Y-59564000D03*
X163322000Y-59564000D03*
X168402000Y-59564000D03*
D11*
X173736000Y-123444000D03*
X173736000Y-56388000D03*
X132080000Y-123444000D03*
X132080000Y-56388000D03*
D12*
X167392000Y-93599000D03*
X161792000Y-93599000D03*
X164592000Y-95749000D03*
G04 #@! TA.AperFunction,SMDPad,CuDef*
G36*
G01*
X172446000Y-91740500D02*
X172446000Y-92663500D01*
G75*
G02*
X172432500Y-92677000I-13500J0D01*
G01*
X171559500Y-92677000D01*
G75*
G02*
X171546000Y-92663500I0J13500D01*
G01*
X171546000Y-91740500D01*
G75*
G02*
X171559500Y-91727000I13500J0D01*
G01*
X172432500Y-91727000D01*
G75*
G02*
X172446000Y-91740500I0J-13500D01*
G01*
G37*
G04 #@! TD.AperFunction*
G04 #@! TA.AperFunction,SMDPad,CuDef*
G36*
G01*
X170846000Y-91740500D02*
X170846000Y-92663500D01*
G75*
G02*
X170832500Y-92677000I-13500J0D01*
G01*
X169959500Y-92677000D01*
G75*
G02*
X169946000Y-92663500I0J13500D01*
G01*
X169946000Y-91740500D01*
G75*
G02*
X169959500Y-91727000I13500J0D01*
G01*
X170832500Y-91727000D01*
G75*
G02*
X170846000Y-91740500I0J-13500D01*
G01*
G37*
G04 #@! TD.AperFunction*
D13*
X172339000Y-99398000D03*
X172339000Y-103548000D03*
D14*
X170814000Y-99898000D03*
X173864000Y-99898000D03*
X170814000Y-103048000D03*
X173864000Y-103048000D03*
G04 #@! TA.AperFunction,SMDPad,CuDef*
G36*
G01*
X172446000Y-89962500D02*
X172446000Y-90885500D01*
G75*
G02*
X172432500Y-90899000I-13500J0D01*
G01*
X171559500Y-90899000D01*
G75*
G02*
X171546000Y-90885500I0J13500D01*
G01*
X171546000Y-89962500D01*
G75*
G02*
X171559500Y-89949000I13500J0D01*
G01*
X172432500Y-89949000D01*
G75*
G02*
X172446000Y-89962500I0J-13500D01*
G01*
G37*
G04 #@! TD.AperFunction*
G04 #@! TA.AperFunction,SMDPad,CuDef*
G36*
G01*
X170846000Y-89962500D02*
X170846000Y-90885500D01*
G75*
G02*
X170832500Y-90899000I-13500J0D01*
G01*
X169959500Y-90899000D01*
G75*
G02*
X169946000Y-90885500I0J13500D01*
G01*
X169946000Y-89962500D01*
G75*
G02*
X169959500Y-89949000I13500J0D01*
G01*
X170832500Y-89949000D01*
G75*
G02*
X170846000Y-89962500I0J-13500D01*
G01*
G37*
G04 #@! TD.AperFunction*
G04 #@! TA.AperFunction,SMDPad,CuDef*
G36*
G01*
X150127000Y-59609700D02*
X150127000Y-59008300D01*
G75*
G02*
X150136300Y-58999000I9300J0D01*
G01*
X150737700Y-58999000D01*
G75*
G02*
X150747000Y-59008300I0J-9300D01*
G01*
X150747000Y-59609700D01*
G75*
G02*
X150737700Y-59619000I-9300J0D01*
G01*
X150136300Y-59619000D01*
G75*
G02*
X150127000Y-59609700I0J9300D01*
G01*
G37*
G04 #@! TD.AperFunction*
G04 #@! TA.AperFunction,SMDPad,CuDef*
G36*
G01*
X149227000Y-59609700D02*
X149227000Y-59008300D01*
G75*
G02*
X149236300Y-58999000I9300J0D01*
G01*
X149837700Y-58999000D01*
G75*
G02*
X149847000Y-59008300I0J-9300D01*
G01*
X149847000Y-59609700D01*
G75*
G02*
X149837700Y-59619000I-9300J0D01*
G01*
X149236300Y-59619000D01*
G75*
G02*
X149227000Y-59609700I0J9300D01*
G01*
G37*
G04 #@! TD.AperFunction*
G04 #@! TA.AperFunction,SMDPad,CuDef*
G36*
G01*
X154285000Y-59228500D02*
X154285000Y-60151500D01*
G75*
G02*
X154271500Y-60165000I-13500J0D01*
G01*
X153398500Y-60165000D01*
G75*
G02*
X153385000Y-60151500I0J13500D01*
G01*
X153385000Y-59228500D01*
G75*
G02*
X153398500Y-59215000I13500J0D01*
G01*
X154271500Y-59215000D01*
G75*
G02*
X154285000Y-59228500I0J-13500D01*
G01*
G37*
G04 #@! TD.AperFunction*
G04 #@! TA.AperFunction,SMDPad,CuDef*
G36*
G01*
X152685000Y-59228500D02*
X152685000Y-60151500D01*
G75*
G02*
X152671500Y-60165000I-13500J0D01*
G01*
X151798500Y-60165000D01*
G75*
G02*
X151785000Y-60151500I0J13500D01*
G01*
X151785000Y-59228500D01*
G75*
G02*
X151798500Y-59215000I13500J0D01*
G01*
X152671500Y-59215000D01*
G75*
G02*
X152685000Y-59228500I0J-13500D01*
G01*
G37*
G04 #@! TD.AperFunction*
G04 #@! TA.AperFunction,SMDPad,CuDef*
G36*
G01*
X173816300Y-77425000D02*
X174417700Y-77425000D01*
G75*
G02*
X174427000Y-77434300I0J-9300D01*
G01*
X174427000Y-78035700D01*
G75*
G02*
X174417700Y-78045000I-9300J0D01*
G01*
X173816300Y-78045000D01*
G75*
G02*
X173807000Y-78035700I0J9300D01*
G01*
X173807000Y-77434300D01*
G75*
G02*
X173816300Y-77425000I9300J0D01*
G01*
G37*
G04 #@! TD.AperFunction*
G04 #@! TA.AperFunction,SMDPad,CuDef*
G36*
G01*
X173816300Y-76525000D02*
X174417700Y-76525000D01*
G75*
G02*
X174427000Y-76534300I0J-9300D01*
G01*
X174427000Y-77135700D01*
G75*
G02*
X174417700Y-77145000I-9300J0D01*
G01*
X173816300Y-77145000D01*
G75*
G02*
X173807000Y-77135700I0J9300D01*
G01*
X173807000Y-76534300D01*
G75*
G02*
X173816300Y-76525000I9300J0D01*
G01*
G37*
G04 #@! TD.AperFunction*
G04 #@! TA.AperFunction,SMDPad,CuDef*
G36*
G01*
X150127000Y-60879700D02*
X150127000Y-60278300D01*
G75*
G02*
X150136300Y-60269000I9300J0D01*
G01*
X150737700Y-60269000D01*
G75*
G02*
X150747000Y-60278300I0J-9300D01*
G01*
X150747000Y-60879700D01*
G75*
G02*
X150737700Y-60889000I-9300J0D01*
G01*
X150136300Y-60889000D01*
G75*
G02*
X150127000Y-60879700I0J9300D01*
G01*
G37*
G04 #@! TD.AperFunction*
G04 #@! TA.AperFunction,SMDPad,CuDef*
G36*
G01*
X149227000Y-60879700D02*
X149227000Y-60278300D01*
G75*
G02*
X149236300Y-60269000I9300J0D01*
G01*
X149837700Y-60269000D01*
G75*
G02*
X149847000Y-60278300I0J-9300D01*
G01*
X149847000Y-60879700D01*
G75*
G02*
X149837700Y-60889000I-9300J0D01*
G01*
X149236300Y-60889000D01*
G75*
G02*
X149227000Y-60879700I0J9300D01*
G01*
G37*
G04 #@! TD.AperFunction*
D15*
X163275200Y-105841800D03*
X163275200Y-116001800D03*
D16*
X150575200Y-102031800D03*
D17*
X148035200Y-119811800D03*
D11*
X149225000Y-93345000D03*
X155956000Y-93345000D03*
D18*
X133604000Y-91567000D03*
X141224000Y-91567000D03*
X133604000Y-96647000D03*
X141224000Y-96647000D03*
X143764000Y-91567000D03*
D19*
X143764000Y-96647000D03*
D20*
X131826000Y-106934000D03*
X160713000Y-64585000D03*
D21*
X164846000Y-71374000D03*
D20*
X138427500Y-115445500D03*
X156464000Y-64643000D03*
X132842000Y-103124000D03*
X137287000Y-112522000D03*
D21*
X134747000Y-110490000D03*
D20*
X156972000Y-82804000D03*
X158369000Y-86614000D03*
D21*
X156972000Y-77597000D03*
X143002000Y-103505000D03*
X164338000Y-110617000D03*
D20*
X138140000Y-106843000D03*
D22*
X168021000Y-96393000D03*
X163068000Y-100457000D03*
X167894000Y-61849000D03*
D20*
X163576000Y-61468000D03*
X135706000Y-105721000D03*
X150368000Y-81153000D03*
X144907000Y-76835000D03*
X138176000Y-82550000D03*
D21*
X168688500Y-92423500D03*
D20*
X155514000Y-65212000D03*
X155321000Y-69850000D03*
D21*
X148971000Y-82677000D03*
D20*
X171704000Y-83185000D03*
X149098000Y-83693000D03*
X154305000Y-77343000D03*
D21*
X155209238Y-74549000D03*
D20*
X157480000Y-73406000D03*
X169839000Y-76668000D03*
X156718000Y-74168000D03*
X172339000Y-75692000D03*
X140839000Y-111121000D03*
X141605000Y-119888000D03*
D21*
X133350000Y-115062000D03*
X140843000Y-107442000D03*
X164592000Y-89535000D03*
X163957000Y-92202000D03*
X137640000Y-117574000D03*
X133350000Y-119507000D03*
X173482000Y-90424000D03*
X173482000Y-92202000D03*
D20*
X171577000Y-75057000D03*
D21*
X146685000Y-77978000D03*
D20*
X131190999Y-111251999D03*
X135382000Y-81534000D03*
X131191000Y-113030000D03*
X134493000Y-82804000D03*
D23*
X132334000Y-106426000D02*
X131826000Y-106934000D01*
X136017000Y-106426000D02*
X132334000Y-106426000D01*
X136652000Y-111041566D02*
X136652000Y-107061000D01*
X133393566Y-114300000D02*
X136652000Y-111041566D01*
X132461001Y-114823237D02*
X132984238Y-114300000D01*
X138427500Y-115445500D02*
X138068290Y-115445500D01*
X136652000Y-107061000D02*
X136017000Y-106426000D01*
X132984238Y-114300000D02*
X133393566Y-114300000D01*
X137689789Y-115824001D02*
X132461001Y-115824001D01*
X138068290Y-115445500D02*
X137689789Y-115824001D01*
X132461001Y-115824001D02*
X132461001Y-114823237D01*
D24*
X140203990Y-119614752D02*
X146192238Y-125603000D01*
X138427500Y-115445500D02*
X140203990Y-117221990D01*
X140203990Y-117221990D02*
X140203990Y-119614752D01*
X146192238Y-125603000D02*
X161925000Y-125603000D01*
X161925000Y-125603000D02*
X175895000Y-111633000D01*
X175895000Y-111633000D02*
X175895000Y-72771000D01*
X174498000Y-71374000D02*
X164846000Y-71374000D01*
X175895000Y-72771000D02*
X174498000Y-71374000D01*
X160655000Y-64643000D02*
X160713000Y-64585000D01*
X156464000Y-64643000D02*
X160655000Y-64643000D01*
X160713000Y-64585000D02*
X163010000Y-64585000D01*
X164846000Y-66421000D02*
X164846000Y-71374000D01*
X163010000Y-64585000D02*
X164846000Y-66421000D01*
D23*
X135706000Y-105721000D02*
X135706000Y-105226000D01*
D24*
X144907000Y-77515722D02*
X144907000Y-76835000D01*
X146766268Y-79374990D02*
X144907000Y-77515722D01*
X148589990Y-79374990D02*
X146766268Y-79374990D01*
X150368000Y-81153000D02*
X148589990Y-79374990D01*
D23*
X168688500Y-92423500D02*
X169323500Y-92423500D01*
X169545000Y-92202000D02*
X170396000Y-92202000D01*
X169323500Y-92423500D02*
X169545000Y-92202000D01*
X170396000Y-92202000D02*
X170396000Y-90424000D01*
X155321000Y-65405000D02*
X155514000Y-65212000D01*
X155321000Y-69850000D02*
X155321000Y-65405000D01*
X155514000Y-65212000D02*
X152207000Y-65212000D01*
X149537000Y-62542000D02*
X149537000Y-60579000D01*
X152207000Y-65212000D02*
X149537000Y-62542000D01*
X149537000Y-60579000D02*
X149537000Y-59309000D01*
X149227000Y-60579000D02*
X148465000Y-61341000D01*
X149537000Y-60579000D02*
X149227000Y-60579000D01*
X143002000Y-60833000D02*
X143002000Y-59564000D01*
X143510000Y-61341000D02*
X143002000Y-60833000D01*
X148465000Y-61341000D02*
X143510000Y-61341000D01*
D24*
X143002000Y-59564000D02*
X143002000Y-80137000D01*
X133604000Y-89535000D02*
X133604000Y-91567000D01*
X143002000Y-80137000D02*
X133604000Y-89535000D01*
X133604000Y-95232787D02*
X133604000Y-91567000D01*
X133604000Y-96647000D02*
X133604000Y-95232787D01*
X147543185Y-80137000D02*
X143002000Y-80137000D01*
X148971000Y-81564815D02*
X147543185Y-80137000D01*
X148971000Y-82677000D02*
X148971000Y-81564815D01*
D23*
X174117000Y-77735000D02*
X174117000Y-80772000D01*
X174117000Y-80772000D02*
X171704000Y-83185000D01*
X171704000Y-83185000D02*
X171704000Y-83185000D01*
X154305000Y-77343000D02*
X154305000Y-77343000D01*
X154305000Y-78486000D02*
X149098000Y-83693000D01*
X154305000Y-77343000D02*
X154305000Y-78486000D01*
D24*
X155209238Y-74549000D02*
X155209238Y-79486762D01*
X155209238Y-79486762D02*
X148717000Y-85979000D01*
X140224001Y-95647001D02*
X141224000Y-96647000D01*
X139203999Y-94626999D02*
X140224001Y-95647001D01*
X139203999Y-86856001D02*
X139203999Y-94626999D01*
X140081000Y-85979000D02*
X139203999Y-86856001D01*
X148717000Y-85979000D02*
X140081000Y-85979000D01*
D23*
X161453198Y-76668000D02*
X159512000Y-74726802D01*
X169839000Y-76668000D02*
X161453198Y-76668000D01*
X159512000Y-74726802D02*
X159512000Y-74041000D01*
X158877000Y-73406000D02*
X157480000Y-73406000D01*
X159512000Y-74041000D02*
X158877000Y-73406000D01*
X161369765Y-77303001D02*
X158234764Y-74168000D01*
X172339000Y-75692000D02*
X170727999Y-77303001D01*
X158234764Y-74168000D02*
X156718000Y-74168000D01*
X170727999Y-77303001D02*
X161369765Y-77303001D01*
D25*
X163322000Y-89741000D02*
X163322000Y-88264000D01*
X159718000Y-93345000D02*
X163322000Y-89741000D01*
X155956000Y-93345000D02*
X159718000Y-93345000D01*
X155585057Y-102031800D02*
X165608000Y-92008857D01*
X150575200Y-102031800D02*
X155585057Y-102031800D01*
X165608000Y-92008857D02*
X165608000Y-89408000D01*
X166752000Y-88264000D02*
X168402000Y-88264000D01*
X165608000Y-89408000D02*
X166752000Y-88264000D01*
X149242198Y-105841800D02*
X161507434Y-105841800D01*
X145589999Y-102189601D02*
X149242198Y-105841800D01*
X161507434Y-105841800D02*
X163275200Y-105841800D01*
X145589999Y-93392999D02*
X145589999Y-102189601D01*
X143764000Y-91567000D02*
X145589999Y-93392999D01*
D23*
X140839000Y-119122000D02*
X141605000Y-119888000D01*
X140839000Y-111121000D02*
X140839000Y-119122000D01*
X140843000Y-107569000D02*
X140843000Y-107442000D01*
X133350000Y-115062000D02*
X140843000Y-107569000D01*
X163957000Y-90170000D02*
X164592000Y-89535000D01*
X163957000Y-92202000D02*
X163957000Y-90170000D01*
X150437000Y-59309000D02*
X151130000Y-59309000D01*
X151511000Y-59690000D02*
X152235000Y-59690000D01*
X151130000Y-59309000D02*
X151511000Y-59690000D01*
X135707000Y-119507000D02*
X137640000Y-117574000D01*
X133350000Y-119507000D02*
X135707000Y-119507000D01*
X171996000Y-90424000D02*
X173482000Y-90424000D01*
X173482000Y-90424000D02*
X173482000Y-90424000D01*
X171996000Y-92202000D02*
X172446000Y-92202000D01*
X172446000Y-92202000D02*
X173482000Y-92202000D01*
X173482000Y-92202000D02*
X173482000Y-92202000D01*
X171577000Y-75057000D02*
X160782000Y-75057000D01*
X171577000Y-75057000D02*
X173228000Y-75057000D01*
X174117000Y-75946000D02*
X174117000Y-76835000D01*
X173228000Y-75057000D02*
X174117000Y-75946000D01*
X172339000Y-98669000D02*
X175006000Y-96002000D01*
X172339000Y-99398000D02*
X172339000Y-98669000D01*
X174427000Y-76835000D02*
X174117000Y-76835000D01*
X175006000Y-77414000D02*
X174427000Y-76835000D01*
X175006000Y-96002000D02*
X175006000Y-77414000D01*
X160782000Y-74592566D02*
X160782000Y-75057000D01*
X158960433Y-72770999D02*
X160782000Y-74592566D01*
X151892001Y-72770999D02*
X158960433Y-72770999D01*
X146685000Y-77978000D02*
X151892001Y-72770999D01*
X131190999Y-91049963D02*
X131190999Y-111251999D01*
X131816962Y-90424000D02*
X131190999Y-91049963D01*
X131190999Y-111251999D02*
X131190999Y-111251999D01*
X135382000Y-86741000D02*
X135440981Y-86799981D01*
X135382000Y-81534000D02*
X135382000Y-86741000D01*
X135440981Y-86799981D02*
X131816962Y-90424000D01*
X130555998Y-112394998D02*
X130937001Y-112776001D01*
X130555998Y-90932002D02*
X130555998Y-112394998D01*
X130937001Y-112776001D02*
X131191000Y-113030000D01*
X134493000Y-86995000D02*
X134429500Y-87058500D01*
X134493000Y-82804000D02*
X134493000Y-86995000D01*
X134429500Y-87058500D02*
X130555998Y-90932002D01*
X170101000Y-56102250D02*
X170259750Y-56261000D01*
X173609000Y-56261000D01*
X173609000Y-56241000D01*
X173863000Y-56241000D01*
X173863000Y-56261000D01*
X173883000Y-56261000D01*
X173883000Y-56515000D01*
X173863000Y-56515000D01*
X173863000Y-59864250D01*
X174021750Y-60023000D01*
X176136300Y-60025393D01*
X176136300Y-71755065D01*
X175157499Y-70776264D01*
X175129659Y-70742341D01*
X174994291Y-70631247D01*
X174839851Y-70548697D01*
X174672274Y-70497864D01*
X174541667Y-70485000D01*
X174541660Y-70485000D01*
X174498000Y-70480700D01*
X174454340Y-70485000D01*
X165735000Y-70485000D01*
X165735000Y-66464659D01*
X165739300Y-66420999D01*
X165735000Y-66377334D01*
X165735000Y-66377333D01*
X165722136Y-66246726D01*
X165722136Y-66246724D01*
X165671302Y-66079147D01*
X165664722Y-66066836D01*
X165588753Y-65924709D01*
X165477659Y-65789341D01*
X165443743Y-65761507D01*
X163669499Y-63987264D01*
X163641659Y-63953341D01*
X163506291Y-63842247D01*
X163351851Y-63759697D01*
X163184274Y-63708864D01*
X163053667Y-63696000D01*
X163053660Y-63696000D01*
X163010000Y-63691700D01*
X162966340Y-63696000D01*
X160756659Y-63696000D01*
X160712999Y-63691700D01*
X160669339Y-63696000D01*
X160625441Y-63696000D01*
X160582391Y-63704563D01*
X160557073Y-63707057D01*
X160538725Y-63708864D01*
X160496737Y-63721601D01*
X160453688Y-63730164D01*
X160413143Y-63746959D01*
X160389930Y-63754000D01*
X156376441Y-63754000D01*
X156333391Y-63762563D01*
X156289726Y-63766864D01*
X156247737Y-63779601D01*
X156204688Y-63788164D01*
X156164143Y-63804959D01*
X156122149Y-63817697D01*
X156083443Y-63838386D01*
X156042901Y-63855179D01*
X156006415Y-63879558D01*
X155967709Y-63900247D01*
X155933785Y-63928088D01*
X155897296Y-63952469D01*
X155866264Y-63983501D01*
X155832341Y-64011341D01*
X155804501Y-64045264D01*
X155773469Y-64076296D01*
X155749088Y-64112785D01*
X155721247Y-64146709D01*
X155700558Y-64185415D01*
X155676179Y-64221901D01*
X155659386Y-64262443D01*
X155638697Y-64301149D01*
X155630333Y-64328723D01*
X155601559Y-64323000D01*
X155426441Y-64323000D01*
X155254688Y-64357164D01*
X155092901Y-64424179D01*
X155054257Y-64450000D01*
X152522631Y-64450000D01*
X150299000Y-62226370D01*
X150299000Y-61376250D01*
X150310000Y-61365250D01*
X150310000Y-61319745D01*
X150375970Y-61239361D01*
X150435794Y-61127439D01*
X150472633Y-61005996D01*
X150485072Y-60879700D01*
X150485072Y-60432000D01*
X150564000Y-60432000D01*
X150564000Y-60452000D01*
X150584000Y-60452000D01*
X150584000Y-60706000D01*
X150564000Y-60706000D01*
X150564000Y-61365250D01*
X150722750Y-61524000D01*
X150747000Y-61527072D01*
X150871482Y-61514812D01*
X150991180Y-61478502D01*
X151101494Y-61419537D01*
X151198185Y-61340185D01*
X151277537Y-61243494D01*
X151336502Y-61133180D01*
X151372812Y-61013482D01*
X151385072Y-60889000D01*
X151382000Y-60864750D01*
X151223252Y-60706002D01*
X151382000Y-60706002D01*
X151382000Y-60648530D01*
X151436506Y-60693262D01*
X151549154Y-60753474D01*
X151671385Y-60790552D01*
X151798500Y-60803072D01*
X152671500Y-60803072D01*
X152798615Y-60790552D01*
X152920846Y-60753474D01*
X153030006Y-60695126D01*
X153030506Y-60695537D01*
X153140820Y-60754502D01*
X153260518Y-60790812D01*
X153385000Y-60803072D01*
X153549250Y-60800000D01*
X153708000Y-60641250D01*
X153708000Y-59817000D01*
X153962000Y-59817000D01*
X153962000Y-60641250D01*
X154120750Y-60800000D01*
X154285000Y-60803072D01*
X154409482Y-60790812D01*
X154529180Y-60754502D01*
X154639494Y-60695537D01*
X154736185Y-60616185D01*
X154815537Y-60519494D01*
X154874502Y-60409180D01*
X154910812Y-60289482D01*
X154923072Y-60165000D01*
X154920000Y-59975750D01*
X154761250Y-59817000D01*
X153962000Y-59817000D01*
X153708000Y-59817000D01*
X153688000Y-59817000D01*
X153688000Y-59563000D01*
X153708000Y-59563000D01*
X153708000Y-58738750D01*
X153962000Y-58738750D01*
X153962000Y-59563000D01*
X154761250Y-59563000D01*
X154920000Y-59404250D01*
X154923072Y-59215000D01*
X154910812Y-59090518D01*
X154874502Y-58970820D01*
X154815537Y-58860506D01*
X154736185Y-58763815D01*
X154639494Y-58684463D01*
X154529180Y-58625498D01*
X154409482Y-58589188D01*
X154285000Y-58576928D01*
X154120750Y-58580000D01*
X153962000Y-58738750D01*
X153708000Y-58738750D01*
X153549250Y-58580000D01*
X153385000Y-58576928D01*
X153260518Y-58589188D01*
X153140820Y-58625498D01*
X153030506Y-58684463D01*
X153030006Y-58684874D01*
X152920846Y-58626526D01*
X152798615Y-58589448D01*
X152671500Y-58576928D01*
X151798500Y-58576928D01*
X151671385Y-58589448D01*
X151549154Y-58626526D01*
X151509403Y-58647773D01*
X151423015Y-58601598D01*
X151279378Y-58558026D01*
X151194384Y-58549655D01*
X151193586Y-58549000D01*
X156853928Y-58549000D01*
X156853928Y-60579000D01*
X156866188Y-60703482D01*
X156902498Y-60823180D01*
X156961463Y-60933494D01*
X157040815Y-61030185D01*
X157137506Y-61109537D01*
X157247820Y-61168502D01*
X157367518Y-61204812D01*
X157492000Y-61217072D01*
X158992000Y-61217072D01*
X159116482Y-61204812D01*
X159236180Y-61168502D01*
X159346494Y-61109537D01*
X159443185Y-61030185D01*
X159522537Y-60933494D01*
X159581502Y-60823180D01*
X159617812Y-60703482D01*
X159630072Y-60579000D01*
X159630072Y-58549000D01*
X161933928Y-58549000D01*
X161933928Y-60579000D01*
X161946188Y-60703482D01*
X161982498Y-60823180D01*
X162041463Y-60933494D01*
X162120815Y-61030185D01*
X162217506Y-61109537D01*
X162327820Y-61168502D01*
X162447518Y-61204812D01*
X162572000Y-61217072D01*
X164072000Y-61217072D01*
X164196482Y-61204812D01*
X164316180Y-61168502D01*
X164426494Y-61109537D01*
X164523185Y-61030185D01*
X164602537Y-60933494D01*
X164661502Y-60823180D01*
X164697812Y-60703482D01*
X164710072Y-60579000D01*
X164710072Y-58549000D01*
X167013928Y-58549000D01*
X167013928Y-60579000D01*
X167026188Y-60703482D01*
X167062498Y-60823180D01*
X167121463Y-60933494D01*
X167200815Y-61030185D01*
X167297506Y-61109537D01*
X167407820Y-61168502D01*
X167527518Y-61204812D01*
X167652000Y-61217072D01*
X169152000Y-61217072D01*
X169276482Y-61204812D01*
X169396180Y-61168502D01*
X169506494Y-61109537D01*
X169603185Y-61030185D01*
X169682537Y-60933494D01*
X169741502Y-60823180D01*
X169777812Y-60703482D01*
X169790072Y-60579000D01*
X169790072Y-59388000D01*
X170097928Y-59388000D01*
X170110188Y-59512482D01*
X170146498Y-59632180D01*
X170205463Y-59742494D01*
X170284815Y-59839185D01*
X170381506Y-59918537D01*
X170491820Y-59977502D01*
X170611518Y-60013812D01*
X170736000Y-60026072D01*
X173450250Y-60023000D01*
X173609000Y-59864250D01*
X173609000Y-56515000D01*
X170259750Y-56515000D01*
X170101000Y-56673750D01*
X170097928Y-59388000D01*
X169790072Y-59388000D01*
X169790072Y-58549000D01*
X169777812Y-58424518D01*
X169741502Y-58304820D01*
X169682537Y-58194506D01*
X169603185Y-58097815D01*
X169506494Y-58018463D01*
X169396180Y-57959498D01*
X169276482Y-57923188D01*
X169152000Y-57910928D01*
X167652000Y-57910928D01*
X167527518Y-57923188D01*
X167407820Y-57959498D01*
X167297506Y-58018463D01*
X167200815Y-58097815D01*
X167121463Y-58194506D01*
X167062498Y-58304820D01*
X167026188Y-58424518D01*
X167013928Y-58549000D01*
X164710072Y-58549000D01*
X164697812Y-58424518D01*
X164661502Y-58304820D01*
X164602537Y-58194506D01*
X164523185Y-58097815D01*
X164426494Y-58018463D01*
X164316180Y-57959498D01*
X164196482Y-57923188D01*
X164072000Y-57910928D01*
X162572000Y-57910928D01*
X162447518Y-57923188D01*
X162327820Y-57959498D01*
X162217506Y-58018463D01*
X162120815Y-58097815D01*
X162041463Y-58194506D01*
X161982498Y-58304820D01*
X161946188Y-58424518D01*
X161933928Y-58549000D01*
X159630072Y-58549000D01*
X159617812Y-58424518D01*
X159581502Y-58304820D01*
X159522537Y-58194506D01*
X159443185Y-58097815D01*
X159346494Y-58018463D01*
X159236180Y-57959498D01*
X159116482Y-57923188D01*
X158992000Y-57910928D01*
X157492000Y-57910928D01*
X157367518Y-57923188D01*
X157247820Y-57959498D01*
X157137506Y-58018463D01*
X157040815Y-58097815D01*
X156961463Y-58194506D01*
X156902498Y-58304820D01*
X156866188Y-58424518D01*
X156853928Y-58549000D01*
X151193586Y-58549000D01*
X151097361Y-58470030D01*
X150985439Y-58410206D01*
X150863996Y-58373367D01*
X150737700Y-58360928D01*
X150136300Y-58360928D01*
X150010004Y-58373367D01*
X149987000Y-58380345D01*
X149963996Y-58373367D01*
X149837700Y-58360928D01*
X149236300Y-58360928D01*
X149110004Y-58373367D01*
X148988561Y-58410206D01*
X148876639Y-58470030D01*
X148778539Y-58550539D01*
X148698030Y-58648639D01*
X148638206Y-58760561D01*
X148601367Y-58882004D01*
X148588928Y-59008300D01*
X148588928Y-59609700D01*
X148601367Y-59735996D01*
X148638206Y-59857439D01*
X148684474Y-59944000D01*
X148638206Y-60030561D01*
X148612254Y-60116116D01*
X148149370Y-60579000D01*
X146930072Y-60579000D01*
X146930072Y-58549000D01*
X146917812Y-58424518D01*
X146881502Y-58304820D01*
X146822537Y-58194506D01*
X146743185Y-58097815D01*
X146646494Y-58018463D01*
X146536180Y-57959498D01*
X146416482Y-57923188D01*
X146292000Y-57910928D01*
X144792000Y-57910928D01*
X144667518Y-57923188D01*
X144547820Y-57959498D01*
X144437506Y-58018463D01*
X144340815Y-58097815D01*
X144272000Y-58181667D01*
X144203185Y-58097815D01*
X144106494Y-58018463D01*
X143996180Y-57959498D01*
X143876482Y-57923188D01*
X143752000Y-57910928D01*
X142252000Y-57910928D01*
X142127518Y-57923188D01*
X142007820Y-57959498D01*
X141897506Y-58018463D01*
X141800815Y-58097815D01*
X141732000Y-58181667D01*
X141663185Y-58097815D01*
X141566494Y-58018463D01*
X141456180Y-57959498D01*
X141336482Y-57923188D01*
X141212000Y-57910928D01*
X139712000Y-57910928D01*
X139587518Y-57923188D01*
X139467820Y-57959498D01*
X139357506Y-58018463D01*
X139260815Y-58097815D01*
X139192000Y-58181667D01*
X139123185Y-58097815D01*
X139026494Y-58018463D01*
X138916180Y-57959498D01*
X138796482Y-57923188D01*
X138672000Y-57910928D01*
X138207750Y-57914000D01*
X138049000Y-58072750D01*
X138049000Y-59437000D01*
X138069000Y-59437000D01*
X138069000Y-59691000D01*
X138049000Y-59691000D01*
X138049000Y-61055250D01*
X138207750Y-61214000D01*
X138672000Y-61217072D01*
X138796482Y-61204812D01*
X138916180Y-61168502D01*
X139026494Y-61109537D01*
X139123185Y-61030185D01*
X139192000Y-60946333D01*
X139260815Y-61030185D01*
X139357506Y-61109537D01*
X139467820Y-61168502D01*
X139587518Y-61204812D01*
X139712000Y-61217072D01*
X141212000Y-61217072D01*
X141336482Y-61204812D01*
X141456180Y-61168502D01*
X141566494Y-61109537D01*
X141663185Y-61030185D01*
X141732000Y-60946333D01*
X141800815Y-61030185D01*
X141897506Y-61109537D01*
X142007820Y-61168502D01*
X142113000Y-61200408D01*
X142113001Y-79768763D01*
X136144000Y-85737765D01*
X136144000Y-81993743D01*
X136169821Y-81955099D01*
X136236836Y-81793312D01*
X136271000Y-81621559D01*
X136271000Y-81446441D01*
X136236836Y-81274688D01*
X136169821Y-81112901D01*
X136072531Y-80967296D01*
X135948704Y-80843469D01*
X135803099Y-80746179D01*
X135641312Y-80679164D01*
X135469559Y-80645000D01*
X135294441Y-80645000D01*
X135122688Y-80679164D01*
X134960901Y-80746179D01*
X134815296Y-80843469D01*
X134691469Y-80967296D01*
X134594179Y-81112901D01*
X134527164Y-81274688D01*
X134493000Y-81446441D01*
X134493000Y-81621559D01*
X134527164Y-81793312D01*
X134577569Y-81915000D01*
X134405441Y-81915000D01*
X134233688Y-81949164D01*
X134071901Y-82016179D01*
X133926296Y-82113469D01*
X133802469Y-82237296D01*
X133705179Y-82382901D01*
X133638164Y-82544688D01*
X133604000Y-82716441D01*
X133604000Y-82891559D01*
X133638164Y-83063312D01*
X133705179Y-83225099D01*
X133731000Y-83263743D01*
X133731001Y-86679368D01*
X130043652Y-90366718D01*
X130014576Y-90390580D01*
X129983116Y-90428915D01*
X129919353Y-90506610D01*
X129887768Y-90565702D01*
X129848596Y-90638988D01*
X129805024Y-90782625D01*
X129795690Y-90877401D01*
X129790312Y-90932002D01*
X129793998Y-90969425D01*
X129793999Y-112357565D01*
X129790312Y-112394998D01*
X129805025Y-112544376D01*
X129848597Y-112688013D01*
X129919353Y-112820390D01*
X129968784Y-112880621D01*
X130014577Y-112936420D01*
X130043648Y-112960278D01*
X130327096Y-113243725D01*
X130336164Y-113289312D01*
X130403179Y-113451099D01*
X130500469Y-113596704D01*
X130624296Y-113720531D01*
X130769901Y-113817821D01*
X130931688Y-113884836D01*
X131103441Y-113919000D01*
X131278559Y-113919000D01*
X131450312Y-113884836D01*
X131612099Y-113817821D01*
X131757704Y-113720531D01*
X131881531Y-113596704D01*
X131978821Y-113451099D01*
X132045836Y-113289312D01*
X132080000Y-113117559D01*
X132080000Y-112942441D01*
X132045836Y-112770688D01*
X131978821Y-112608901D01*
X131881531Y-112463296D01*
X131757704Y-112339469D01*
X131612099Y-112242179D01*
X131450312Y-112175164D01*
X131404725Y-112166096D01*
X131362860Y-112124230D01*
X131450311Y-112106835D01*
X131612098Y-112039820D01*
X131757703Y-111942530D01*
X131881530Y-111818703D01*
X131978820Y-111673098D01*
X132045835Y-111511311D01*
X132079999Y-111339558D01*
X132079999Y-111164440D01*
X132045835Y-110992687D01*
X131978820Y-110830900D01*
X131952999Y-110792256D01*
X131952999Y-107815155D01*
X132085312Y-107788836D01*
X132247099Y-107721821D01*
X132392704Y-107624531D01*
X132516531Y-107500704D01*
X132613821Y-107355099D01*
X132680836Y-107193312D01*
X132681893Y-107188000D01*
X135701370Y-107188000D01*
X135890001Y-107376631D01*
X135890000Y-110725936D01*
X133077936Y-113538000D01*
X133021661Y-113538000D01*
X132984238Y-113534314D01*
X132946815Y-113538000D01*
X132946812Y-113538000D01*
X132834860Y-113549026D01*
X132691223Y-113592598D01*
X132629602Y-113625535D01*
X132558845Y-113663355D01*
X132476142Y-113731228D01*
X132442816Y-113758578D01*
X132418958Y-113787649D01*
X131948650Y-114257958D01*
X131919580Y-114281815D01*
X131895723Y-114310885D01*
X131895722Y-114310886D01*
X131824356Y-114397845D01*
X131753600Y-114530222D01*
X131710028Y-114673859D01*
X131695315Y-114823237D01*
X131699002Y-114860670D01*
X131699001Y-115786575D01*
X131695315Y-115824001D01*
X131710027Y-115973379D01*
X131753599Y-116117016D01*
X131824356Y-116249393D01*
X131894201Y-116334500D01*
X131919579Y-116365423D01*
X132035609Y-116460646D01*
X132167986Y-116531403D01*
X132311623Y-116574975D01*
X132461001Y-116589687D01*
X132498426Y-116586001D01*
X137399161Y-116586001D01*
X137343644Y-116597044D01*
X137158744Y-116673632D01*
X136992338Y-116784821D01*
X136850821Y-116926338D01*
X136739632Y-117092744D01*
X136663044Y-117277644D01*
X136624000Y-117473933D01*
X136624000Y-117512369D01*
X135391370Y-118745000D01*
X134024841Y-118745000D01*
X133997662Y-118717821D01*
X133831256Y-118606632D01*
X133646356Y-118530044D01*
X133450067Y-118491000D01*
X133249933Y-118491000D01*
X133053644Y-118530044D01*
X132868744Y-118606632D01*
X132702338Y-118717821D01*
X132560821Y-118859338D01*
X132449632Y-119025744D01*
X132373044Y-119210644D01*
X132334000Y-119406933D01*
X132334000Y-119607067D01*
X132373044Y-119803356D01*
X132375377Y-119808989D01*
X132365750Y-119809000D01*
X132207000Y-119967750D01*
X132207000Y-123317000D01*
X135556250Y-123317000D01*
X135715000Y-123158250D01*
X135718072Y-120444000D01*
X135705812Y-120319518D01*
X135691132Y-120271123D01*
X135707000Y-120272686D01*
X135744423Y-120269000D01*
X135744426Y-120269000D01*
X135856378Y-120257974D01*
X136000015Y-120214402D01*
X136132392Y-120143645D01*
X136248422Y-120048422D01*
X136272284Y-120019346D01*
X137701631Y-118590000D01*
X137740067Y-118590000D01*
X137936356Y-118550956D01*
X138121256Y-118474368D01*
X138287662Y-118363179D01*
X138429179Y-118221662D01*
X138540368Y-118055256D01*
X138616956Y-117870356D01*
X138656000Y-117674067D01*
X138656000Y-117473933D01*
X138616956Y-117277644D01*
X138540368Y-117092744D01*
X138429179Y-116926338D01*
X138287662Y-116784821D01*
X138121256Y-116673632D01*
X137936356Y-116597044D01*
X137829964Y-116575881D01*
X137839167Y-116574975D01*
X137982804Y-116531403D01*
X138115181Y-116460646D01*
X138153755Y-116428990D01*
X139314990Y-117590225D01*
X139314991Y-119571082D01*
X139310690Y-119614752D01*
X139327854Y-119789026D01*
X139378688Y-119956604D01*
X139461238Y-120111043D01*
X139534096Y-120199820D01*
X139572332Y-120246411D01*
X139606249Y-120274246D01*
X145176302Y-125844300D01*
X135717393Y-125844300D01*
X135715000Y-123729750D01*
X135556250Y-123571000D01*
X132207000Y-123571000D01*
X132207000Y-123591000D01*
X131953000Y-123591000D01*
X131953000Y-123571000D01*
X131933000Y-123571000D01*
X131933000Y-123317000D01*
X131953000Y-123317000D01*
X131953000Y-119967750D01*
X131794250Y-119809000D01*
X129679700Y-119806607D01*
X129679700Y-60579000D01*
X136533928Y-60579000D01*
X136546188Y-60703482D01*
X136582498Y-60823180D01*
X136641463Y-60933494D01*
X136720815Y-61030185D01*
X136817506Y-61109537D01*
X136927820Y-61168502D01*
X137047518Y-61204812D01*
X137172000Y-61217072D01*
X137636250Y-61214000D01*
X137795000Y-61055250D01*
X137795000Y-59691000D01*
X136695750Y-59691000D01*
X136537000Y-59849750D01*
X136533928Y-60579000D01*
X129679700Y-60579000D01*
X129679700Y-60025393D01*
X131794250Y-60023000D01*
X131953000Y-59864250D01*
X131953000Y-56515000D01*
X132207000Y-56515000D01*
X132207000Y-59864250D01*
X132365750Y-60023000D01*
X135080000Y-60026072D01*
X135204482Y-60013812D01*
X135324180Y-59977502D01*
X135434494Y-59918537D01*
X135531185Y-59839185D01*
X135610537Y-59742494D01*
X135669502Y-59632180D01*
X135705812Y-59512482D01*
X135718072Y-59388000D01*
X135717123Y-58549000D01*
X136533928Y-58549000D01*
X136537000Y-59278250D01*
X136695750Y-59437000D01*
X137795000Y-59437000D01*
X137795000Y-58072750D01*
X137636250Y-57914000D01*
X137172000Y-57910928D01*
X137047518Y-57923188D01*
X136927820Y-57959498D01*
X136817506Y-58018463D01*
X136720815Y-58097815D01*
X136641463Y-58194506D01*
X136582498Y-58304820D01*
X136546188Y-58424518D01*
X136533928Y-58549000D01*
X135717123Y-58549000D01*
X135715000Y-56673750D01*
X135556250Y-56515000D01*
X132207000Y-56515000D01*
X131953000Y-56515000D01*
X131933000Y-56515000D01*
X131933000Y-56261000D01*
X131953000Y-56261000D01*
X131953000Y-56241000D01*
X132207000Y-56241000D01*
X132207000Y-56261000D01*
X135556250Y-56261000D01*
X135715000Y-56102250D01*
X135717393Y-53987700D01*
X170098607Y-53987700D01*
X170101000Y-56102250D01*
G04 #@! TA.AperFunction,Conductor*
D26*
G36*
X170101000Y-56102250D02*
G01*
X170259750Y-56261000D01*
X173609000Y-56261000D01*
X173609000Y-56241000D01*
X173863000Y-56241000D01*
X173863000Y-56261000D01*
X173883000Y-56261000D01*
X173883000Y-56515000D01*
X173863000Y-56515000D01*
X173863000Y-59864250D01*
X174021750Y-60023000D01*
X176136300Y-60025393D01*
X176136300Y-71755065D01*
X175157499Y-70776264D01*
X175129659Y-70742341D01*
X174994291Y-70631247D01*
X174839851Y-70548697D01*
X174672274Y-70497864D01*
X174541667Y-70485000D01*
X174541660Y-70485000D01*
X174498000Y-70480700D01*
X174454340Y-70485000D01*
X165735000Y-70485000D01*
X165735000Y-66464659D01*
X165739300Y-66420999D01*
X165735000Y-66377334D01*
X165735000Y-66377333D01*
X165722136Y-66246726D01*
X165722136Y-66246724D01*
X165671302Y-66079147D01*
X165664722Y-66066836D01*
X165588753Y-65924709D01*
X165477659Y-65789341D01*
X165443743Y-65761507D01*
X163669499Y-63987264D01*
X163641659Y-63953341D01*
X163506291Y-63842247D01*
X163351851Y-63759697D01*
X163184274Y-63708864D01*
X163053667Y-63696000D01*
X163053660Y-63696000D01*
X163010000Y-63691700D01*
X162966340Y-63696000D01*
X160756659Y-63696000D01*
X160712999Y-63691700D01*
X160669339Y-63696000D01*
X160625441Y-63696000D01*
X160582391Y-63704563D01*
X160557073Y-63707057D01*
X160538725Y-63708864D01*
X160496737Y-63721601D01*
X160453688Y-63730164D01*
X160413143Y-63746959D01*
X160389930Y-63754000D01*
X156376441Y-63754000D01*
X156333391Y-63762563D01*
X156289726Y-63766864D01*
X156247737Y-63779601D01*
X156204688Y-63788164D01*
X156164143Y-63804959D01*
X156122149Y-63817697D01*
X156083443Y-63838386D01*
X156042901Y-63855179D01*
X156006415Y-63879558D01*
X155967709Y-63900247D01*
X155933785Y-63928088D01*
X155897296Y-63952469D01*
X155866264Y-63983501D01*
X155832341Y-64011341D01*
X155804501Y-64045264D01*
X155773469Y-64076296D01*
X155749088Y-64112785D01*
X155721247Y-64146709D01*
X155700558Y-64185415D01*
X155676179Y-64221901D01*
X155659386Y-64262443D01*
X155638697Y-64301149D01*
X155630333Y-64328723D01*
X155601559Y-64323000D01*
X155426441Y-64323000D01*
X155254688Y-64357164D01*
X155092901Y-64424179D01*
X155054257Y-64450000D01*
X152522631Y-64450000D01*
X150299000Y-62226370D01*
X150299000Y-61376250D01*
X150310000Y-61365250D01*
X150310000Y-61319745D01*
X150375970Y-61239361D01*
X150435794Y-61127439D01*
X150472633Y-61005996D01*
X150485072Y-60879700D01*
X150485072Y-60432000D01*
X150564000Y-60432000D01*
X150564000Y-60452000D01*
X150584000Y-60452000D01*
X150584000Y-60706000D01*
X150564000Y-60706000D01*
X150564000Y-61365250D01*
X150722750Y-61524000D01*
X150747000Y-61527072D01*
X150871482Y-61514812D01*
X150991180Y-61478502D01*
X151101494Y-61419537D01*
X151198185Y-61340185D01*
X151277537Y-61243494D01*
X151336502Y-61133180D01*
X151372812Y-61013482D01*
X151385072Y-60889000D01*
X151382000Y-60864750D01*
X151223252Y-60706002D01*
X151382000Y-60706002D01*
X151382000Y-60648530D01*
X151436506Y-60693262D01*
X151549154Y-60753474D01*
X151671385Y-60790552D01*
X151798500Y-60803072D01*
X152671500Y-60803072D01*
X152798615Y-60790552D01*
X152920846Y-60753474D01*
X153030006Y-60695126D01*
X153030506Y-60695537D01*
X153140820Y-60754502D01*
X153260518Y-60790812D01*
X153385000Y-60803072D01*
X153549250Y-60800000D01*
X153708000Y-60641250D01*
X153708000Y-59817000D01*
X153962000Y-59817000D01*
X153962000Y-60641250D01*
X154120750Y-60800000D01*
X154285000Y-60803072D01*
X154409482Y-60790812D01*
X154529180Y-60754502D01*
X154639494Y-60695537D01*
X154736185Y-60616185D01*
X154815537Y-60519494D01*
X154874502Y-60409180D01*
X154910812Y-60289482D01*
X154923072Y-60165000D01*
X154920000Y-59975750D01*
X154761250Y-59817000D01*
X153962000Y-59817000D01*
X153708000Y-59817000D01*
X153688000Y-59817000D01*
X153688000Y-59563000D01*
X153708000Y-59563000D01*
X153708000Y-58738750D01*
X153962000Y-58738750D01*
X153962000Y-59563000D01*
X154761250Y-59563000D01*
X154920000Y-59404250D01*
X154923072Y-59215000D01*
X154910812Y-59090518D01*
X154874502Y-58970820D01*
X154815537Y-58860506D01*
X154736185Y-58763815D01*
X154639494Y-58684463D01*
X154529180Y-58625498D01*
X154409482Y-58589188D01*
X154285000Y-58576928D01*
X154120750Y-58580000D01*
X153962000Y-58738750D01*
X153708000Y-58738750D01*
X153549250Y-58580000D01*
X153385000Y-58576928D01*
X153260518Y-58589188D01*
X153140820Y-58625498D01*
X153030506Y-58684463D01*
X153030006Y-58684874D01*
X152920846Y-58626526D01*
X152798615Y-58589448D01*
X152671500Y-58576928D01*
X151798500Y-58576928D01*
X151671385Y-58589448D01*
X151549154Y-58626526D01*
X151509403Y-58647773D01*
X151423015Y-58601598D01*
X151279378Y-58558026D01*
X151194384Y-58549655D01*
X151193586Y-58549000D01*
X156853928Y-58549000D01*
X156853928Y-60579000D01*
X156866188Y-60703482D01*
X156902498Y-60823180D01*
X156961463Y-60933494D01*
X157040815Y-61030185D01*
X157137506Y-61109537D01*
X157247820Y-61168502D01*
X157367518Y-61204812D01*
X157492000Y-61217072D01*
X158992000Y-61217072D01*
X159116482Y-61204812D01*
X159236180Y-61168502D01*
X159346494Y-61109537D01*
X159443185Y-61030185D01*
X159522537Y-60933494D01*
X159581502Y-60823180D01*
X159617812Y-60703482D01*
X159630072Y-60579000D01*
X159630072Y-58549000D01*
X161933928Y-58549000D01*
X161933928Y-60579000D01*
X161946188Y-60703482D01*
X161982498Y-60823180D01*
X162041463Y-60933494D01*
X162120815Y-61030185D01*
X162217506Y-61109537D01*
X162327820Y-61168502D01*
X162447518Y-61204812D01*
X162572000Y-61217072D01*
X164072000Y-61217072D01*
X164196482Y-61204812D01*
X164316180Y-61168502D01*
X164426494Y-61109537D01*
X164523185Y-61030185D01*
X164602537Y-60933494D01*
X164661502Y-60823180D01*
X164697812Y-60703482D01*
X164710072Y-60579000D01*
X164710072Y-58549000D01*
X167013928Y-58549000D01*
X167013928Y-60579000D01*
X167026188Y-60703482D01*
X167062498Y-60823180D01*
X167121463Y-60933494D01*
X167200815Y-61030185D01*
X167297506Y-61109537D01*
X167407820Y-61168502D01*
X167527518Y-61204812D01*
X167652000Y-61217072D01*
X169152000Y-61217072D01*
X169276482Y-61204812D01*
X169396180Y-61168502D01*
X169506494Y-61109537D01*
X169603185Y-61030185D01*
X169682537Y-60933494D01*
X169741502Y-60823180D01*
X169777812Y-60703482D01*
X169790072Y-60579000D01*
X169790072Y-59388000D01*
X170097928Y-59388000D01*
X170110188Y-59512482D01*
X170146498Y-59632180D01*
X170205463Y-59742494D01*
X170284815Y-59839185D01*
X170381506Y-59918537D01*
X170491820Y-59977502D01*
X170611518Y-60013812D01*
X170736000Y-60026072D01*
X173450250Y-60023000D01*
X173609000Y-59864250D01*
X173609000Y-56515000D01*
X170259750Y-56515000D01*
X170101000Y-56673750D01*
X170097928Y-59388000D01*
X169790072Y-59388000D01*
X169790072Y-58549000D01*
X169777812Y-58424518D01*
X169741502Y-58304820D01*
X169682537Y-58194506D01*
X169603185Y-58097815D01*
X169506494Y-58018463D01*
X169396180Y-57959498D01*
X169276482Y-57923188D01*
X169152000Y-57910928D01*
X167652000Y-57910928D01*
X167527518Y-57923188D01*
X167407820Y-57959498D01*
X167297506Y-58018463D01*
X167200815Y-58097815D01*
X167121463Y-58194506D01*
X167062498Y-58304820D01*
X167026188Y-58424518D01*
X167013928Y-58549000D01*
X164710072Y-58549000D01*
X164697812Y-58424518D01*
X164661502Y-58304820D01*
X164602537Y-58194506D01*
X164523185Y-58097815D01*
X164426494Y-58018463D01*
X164316180Y-57959498D01*
X164196482Y-57923188D01*
X164072000Y-57910928D01*
X162572000Y-57910928D01*
X162447518Y-57923188D01*
X162327820Y-57959498D01*
X162217506Y-58018463D01*
X162120815Y-58097815D01*
X162041463Y-58194506D01*
X161982498Y-58304820D01*
X161946188Y-58424518D01*
X161933928Y-58549000D01*
X159630072Y-58549000D01*
X159617812Y-58424518D01*
X159581502Y-58304820D01*
X159522537Y-58194506D01*
X159443185Y-58097815D01*
X159346494Y-58018463D01*
X159236180Y-57959498D01*
X159116482Y-57923188D01*
X158992000Y-57910928D01*
X157492000Y-57910928D01*
X157367518Y-57923188D01*
X157247820Y-57959498D01*
X157137506Y-58018463D01*
X157040815Y-58097815D01*
X156961463Y-58194506D01*
X156902498Y-58304820D01*
X156866188Y-58424518D01*
X156853928Y-58549000D01*
X151193586Y-58549000D01*
X151097361Y-58470030D01*
X150985439Y-58410206D01*
X150863996Y-58373367D01*
X150737700Y-58360928D01*
X150136300Y-58360928D01*
X150010004Y-58373367D01*
X149987000Y-58380345D01*
X149963996Y-58373367D01*
X149837700Y-58360928D01*
X149236300Y-58360928D01*
X149110004Y-58373367D01*
X148988561Y-58410206D01*
X148876639Y-58470030D01*
X148778539Y-58550539D01*
X148698030Y-58648639D01*
X148638206Y-58760561D01*
X148601367Y-58882004D01*
X148588928Y-59008300D01*
X148588928Y-59609700D01*
X148601367Y-59735996D01*
X148638206Y-59857439D01*
X148684474Y-59944000D01*
X148638206Y-60030561D01*
X148612254Y-60116116D01*
X148149370Y-60579000D01*
X146930072Y-60579000D01*
X146930072Y-58549000D01*
X146917812Y-58424518D01*
X146881502Y-58304820D01*
X146822537Y-58194506D01*
X146743185Y-58097815D01*
X146646494Y-58018463D01*
X146536180Y-57959498D01*
X146416482Y-57923188D01*
X146292000Y-57910928D01*
X144792000Y-57910928D01*
X144667518Y-57923188D01*
X144547820Y-57959498D01*
X144437506Y-58018463D01*
X144340815Y-58097815D01*
X144272000Y-58181667D01*
X144203185Y-58097815D01*
X144106494Y-58018463D01*
X143996180Y-57959498D01*
X143876482Y-57923188D01*
X143752000Y-57910928D01*
X142252000Y-57910928D01*
X142127518Y-57923188D01*
X142007820Y-57959498D01*
X141897506Y-58018463D01*
X141800815Y-58097815D01*
X141732000Y-58181667D01*
X141663185Y-58097815D01*
X141566494Y-58018463D01*
X141456180Y-57959498D01*
X141336482Y-57923188D01*
X141212000Y-57910928D01*
X139712000Y-57910928D01*
X139587518Y-57923188D01*
X139467820Y-57959498D01*
X139357506Y-58018463D01*
X139260815Y-58097815D01*
X139192000Y-58181667D01*
X139123185Y-58097815D01*
X139026494Y-58018463D01*
X138916180Y-57959498D01*
X138796482Y-57923188D01*
X138672000Y-57910928D01*
X138207750Y-57914000D01*
X138049000Y-58072750D01*
X138049000Y-59437000D01*
X138069000Y-59437000D01*
X138069000Y-59691000D01*
X138049000Y-59691000D01*
X138049000Y-61055250D01*
X138207750Y-61214000D01*
X138672000Y-61217072D01*
X138796482Y-61204812D01*
X138916180Y-61168502D01*
X139026494Y-61109537D01*
X139123185Y-61030185D01*
X139192000Y-60946333D01*
X139260815Y-61030185D01*
X139357506Y-61109537D01*
X139467820Y-61168502D01*
X139587518Y-61204812D01*
X139712000Y-61217072D01*
X141212000Y-61217072D01*
X141336482Y-61204812D01*
X141456180Y-61168502D01*
X141566494Y-61109537D01*
X141663185Y-61030185D01*
X141732000Y-60946333D01*
X141800815Y-61030185D01*
X141897506Y-61109537D01*
X142007820Y-61168502D01*
X142113000Y-61200408D01*
X142113001Y-79768763D01*
X136144000Y-85737765D01*
X136144000Y-81993743D01*
X136169821Y-81955099D01*
X136236836Y-81793312D01*
X136271000Y-81621559D01*
X136271000Y-81446441D01*
X136236836Y-81274688D01*
X136169821Y-81112901D01*
X136072531Y-80967296D01*
X135948704Y-80843469D01*
X135803099Y-80746179D01*
X135641312Y-80679164D01*
X135469559Y-80645000D01*
X135294441Y-80645000D01*
X135122688Y-80679164D01*
X134960901Y-80746179D01*
X134815296Y-80843469D01*
X134691469Y-80967296D01*
X134594179Y-81112901D01*
X134527164Y-81274688D01*
X134493000Y-81446441D01*
X134493000Y-81621559D01*
X134527164Y-81793312D01*
X134577569Y-81915000D01*
X134405441Y-81915000D01*
X134233688Y-81949164D01*
X134071901Y-82016179D01*
X133926296Y-82113469D01*
X133802469Y-82237296D01*
X133705179Y-82382901D01*
X133638164Y-82544688D01*
X133604000Y-82716441D01*
X133604000Y-82891559D01*
X133638164Y-83063312D01*
X133705179Y-83225099D01*
X133731000Y-83263743D01*
X133731001Y-86679368D01*
X130043652Y-90366718D01*
X130014576Y-90390580D01*
X129983116Y-90428915D01*
X129919353Y-90506610D01*
X129887768Y-90565702D01*
X129848596Y-90638988D01*
X129805024Y-90782625D01*
X129795690Y-90877401D01*
X129790312Y-90932002D01*
X129793998Y-90969425D01*
X129793999Y-112357565D01*
X129790312Y-112394998D01*
X129805025Y-112544376D01*
X129848597Y-112688013D01*
X129919353Y-112820390D01*
X129968784Y-112880621D01*
X130014577Y-112936420D01*
X130043648Y-112960278D01*
X130327096Y-113243725D01*
X130336164Y-113289312D01*
X130403179Y-113451099D01*
X130500469Y-113596704D01*
X130624296Y-113720531D01*
X130769901Y-113817821D01*
X130931688Y-113884836D01*
X131103441Y-113919000D01*
X131278559Y-113919000D01*
X131450312Y-113884836D01*
X131612099Y-113817821D01*
X131757704Y-113720531D01*
X131881531Y-113596704D01*
X131978821Y-113451099D01*
X132045836Y-113289312D01*
X132080000Y-113117559D01*
X132080000Y-112942441D01*
X132045836Y-112770688D01*
X131978821Y-112608901D01*
X131881531Y-112463296D01*
X131757704Y-112339469D01*
X131612099Y-112242179D01*
X131450312Y-112175164D01*
X131404725Y-112166096D01*
X131362860Y-112124230D01*
X131450311Y-112106835D01*
X131612098Y-112039820D01*
X131757703Y-111942530D01*
X131881530Y-111818703D01*
X131978820Y-111673098D01*
X132045835Y-111511311D01*
X132079999Y-111339558D01*
X132079999Y-111164440D01*
X132045835Y-110992687D01*
X131978820Y-110830900D01*
X131952999Y-110792256D01*
X131952999Y-107815155D01*
X132085312Y-107788836D01*
X132247099Y-107721821D01*
X132392704Y-107624531D01*
X132516531Y-107500704D01*
X132613821Y-107355099D01*
X132680836Y-107193312D01*
X132681893Y-107188000D01*
X135701370Y-107188000D01*
X135890001Y-107376631D01*
X135890000Y-110725936D01*
X133077936Y-113538000D01*
X133021661Y-113538000D01*
X132984238Y-113534314D01*
X132946815Y-113538000D01*
X132946812Y-113538000D01*
X132834860Y-113549026D01*
X132691223Y-113592598D01*
X132629602Y-113625535D01*
X132558845Y-113663355D01*
X132476142Y-113731228D01*
X132442816Y-113758578D01*
X132418958Y-113787649D01*
X131948650Y-114257958D01*
X131919580Y-114281815D01*
X131895723Y-114310885D01*
X131895722Y-114310886D01*
X131824356Y-114397845D01*
X131753600Y-114530222D01*
X131710028Y-114673859D01*
X131695315Y-114823237D01*
X131699002Y-114860670D01*
X131699001Y-115786575D01*
X131695315Y-115824001D01*
X131710027Y-115973379D01*
X131753599Y-116117016D01*
X131824356Y-116249393D01*
X131894201Y-116334500D01*
X131919579Y-116365423D01*
X132035609Y-116460646D01*
X132167986Y-116531403D01*
X132311623Y-116574975D01*
X132461001Y-116589687D01*
X132498426Y-116586001D01*
X137399161Y-116586001D01*
X137343644Y-116597044D01*
X137158744Y-116673632D01*
X136992338Y-116784821D01*
X136850821Y-116926338D01*
X136739632Y-117092744D01*
X136663044Y-117277644D01*
X136624000Y-117473933D01*
X136624000Y-117512369D01*
X135391370Y-118745000D01*
X134024841Y-118745000D01*
X133997662Y-118717821D01*
X133831256Y-118606632D01*
X133646356Y-118530044D01*
X133450067Y-118491000D01*
X133249933Y-118491000D01*
X133053644Y-118530044D01*
X132868744Y-118606632D01*
X132702338Y-118717821D01*
X132560821Y-118859338D01*
X132449632Y-119025744D01*
X132373044Y-119210644D01*
X132334000Y-119406933D01*
X132334000Y-119607067D01*
X132373044Y-119803356D01*
X132375377Y-119808989D01*
X132365750Y-119809000D01*
X132207000Y-119967750D01*
X132207000Y-123317000D01*
X135556250Y-123317000D01*
X135715000Y-123158250D01*
X135718072Y-120444000D01*
X135705812Y-120319518D01*
X135691132Y-120271123D01*
X135707000Y-120272686D01*
X135744423Y-120269000D01*
X135744426Y-120269000D01*
X135856378Y-120257974D01*
X136000015Y-120214402D01*
X136132392Y-120143645D01*
X136248422Y-120048422D01*
X136272284Y-120019346D01*
X137701631Y-118590000D01*
X137740067Y-118590000D01*
X137936356Y-118550956D01*
X138121256Y-118474368D01*
X138287662Y-118363179D01*
X138429179Y-118221662D01*
X138540368Y-118055256D01*
X138616956Y-117870356D01*
X138656000Y-117674067D01*
X138656000Y-117473933D01*
X138616956Y-117277644D01*
X138540368Y-117092744D01*
X138429179Y-116926338D01*
X138287662Y-116784821D01*
X138121256Y-116673632D01*
X137936356Y-116597044D01*
X137829964Y-116575881D01*
X137839167Y-116574975D01*
X137982804Y-116531403D01*
X138115181Y-116460646D01*
X138153755Y-116428990D01*
X139314990Y-117590225D01*
X139314991Y-119571082D01*
X139310690Y-119614752D01*
X139327854Y-119789026D01*
X139378688Y-119956604D01*
X139461238Y-120111043D01*
X139534096Y-120199820D01*
X139572332Y-120246411D01*
X139606249Y-120274246D01*
X145176302Y-125844300D01*
X135717393Y-125844300D01*
X135715000Y-123729750D01*
X135556250Y-123571000D01*
X132207000Y-123571000D01*
X132207000Y-123591000D01*
X131953000Y-123591000D01*
X131953000Y-123571000D01*
X131933000Y-123571000D01*
X131933000Y-123317000D01*
X131953000Y-123317000D01*
X131953000Y-119967750D01*
X131794250Y-119809000D01*
X129679700Y-119806607D01*
X129679700Y-60579000D01*
X136533928Y-60579000D01*
X136546188Y-60703482D01*
X136582498Y-60823180D01*
X136641463Y-60933494D01*
X136720815Y-61030185D01*
X136817506Y-61109537D01*
X136927820Y-61168502D01*
X137047518Y-61204812D01*
X137172000Y-61217072D01*
X137636250Y-61214000D01*
X137795000Y-61055250D01*
X137795000Y-59691000D01*
X136695750Y-59691000D01*
X136537000Y-59849750D01*
X136533928Y-60579000D01*
X129679700Y-60579000D01*
X129679700Y-60025393D01*
X131794250Y-60023000D01*
X131953000Y-59864250D01*
X131953000Y-56515000D01*
X132207000Y-56515000D01*
X132207000Y-59864250D01*
X132365750Y-60023000D01*
X135080000Y-60026072D01*
X135204482Y-60013812D01*
X135324180Y-59977502D01*
X135434494Y-59918537D01*
X135531185Y-59839185D01*
X135610537Y-59742494D01*
X135669502Y-59632180D01*
X135705812Y-59512482D01*
X135718072Y-59388000D01*
X135717123Y-58549000D01*
X136533928Y-58549000D01*
X136537000Y-59278250D01*
X136695750Y-59437000D01*
X137795000Y-59437000D01*
X137795000Y-58072750D01*
X137636250Y-57914000D01*
X137172000Y-57910928D01*
X137047518Y-57923188D01*
X136927820Y-57959498D01*
X136817506Y-58018463D01*
X136720815Y-58097815D01*
X136641463Y-58194506D01*
X136582498Y-58304820D01*
X136546188Y-58424518D01*
X136533928Y-58549000D01*
X135717123Y-58549000D01*
X135715000Y-56673750D01*
X135556250Y-56515000D01*
X132207000Y-56515000D01*
X131953000Y-56515000D01*
X131933000Y-56515000D01*
X131933000Y-56261000D01*
X131953000Y-56261000D01*
X131953000Y-56241000D01*
X132207000Y-56241000D01*
X132207000Y-56261000D01*
X135556250Y-56261000D01*
X135715000Y-56102250D01*
X135717393Y-53987700D01*
X170098607Y-53987700D01*
X170101000Y-56102250D01*
G37*
G04 #@! TD.AperFunction*
D23*
X176136301Y-119806607D02*
X174021750Y-119809000D01*
X173863000Y-119967750D01*
X173863000Y-123317000D01*
X173883000Y-123317000D01*
X173883000Y-123571000D01*
X173863000Y-123571000D01*
X173863000Y-123591000D01*
X173609000Y-123591000D01*
X173609000Y-123571000D01*
X170259750Y-123571000D01*
X170101000Y-123729750D01*
X170098607Y-125844300D01*
X162940935Y-125844300D01*
X168341235Y-120444000D01*
X170097928Y-120444000D01*
X170101000Y-123158250D01*
X170259750Y-123317000D01*
X173609000Y-123317000D01*
X173609000Y-119967750D01*
X173450250Y-119809000D01*
X170736000Y-119805928D01*
X170611518Y-119818188D01*
X170491820Y-119854498D01*
X170381506Y-119913463D01*
X170284815Y-119992815D01*
X170205463Y-120089506D01*
X170146498Y-120199820D01*
X170110188Y-120319518D01*
X170097928Y-120444000D01*
X168341235Y-120444000D01*
X176136301Y-112648935D01*
X176136301Y-119806607D01*
G04 #@! TA.AperFunction,Conductor*
D26*
G36*
X176136301Y-119806607D02*
G01*
X174021750Y-119809000D01*
X173863000Y-119967750D01*
X173863000Y-123317000D01*
X173883000Y-123317000D01*
X173883000Y-123571000D01*
X173863000Y-123571000D01*
X173863000Y-123591000D01*
X173609000Y-123591000D01*
X173609000Y-123571000D01*
X170259750Y-123571000D01*
X170101000Y-123729750D01*
X170098607Y-125844300D01*
X162940935Y-125844300D01*
X168341235Y-120444000D01*
X170097928Y-120444000D01*
X170101000Y-123158250D01*
X170259750Y-123317000D01*
X173609000Y-123317000D01*
X173609000Y-119967750D01*
X173450250Y-119809000D01*
X170736000Y-119805928D01*
X170611518Y-119818188D01*
X170491820Y-119854498D01*
X170381506Y-119913463D01*
X170284815Y-119992815D01*
X170205463Y-120089506D01*
X170146498Y-120199820D01*
X170110188Y-120319518D01*
X170097928Y-120444000D01*
X168341235Y-120444000D01*
X176136301Y-112648935D01*
X176136301Y-119806607D01*
G37*
G04 #@! TD.AperFunction*
D23*
X136533928Y-89279000D02*
X136546188Y-89403482D01*
X136582498Y-89523180D01*
X136641463Y-89633494D01*
X136720815Y-89730185D01*
X136817506Y-89809537D01*
X136927820Y-89868502D01*
X137047518Y-89904812D01*
X137172000Y-89917072D01*
X138314999Y-89917072D01*
X138315000Y-94583329D01*
X138310699Y-94626999D01*
X138327863Y-94801273D01*
X138378697Y-94968851D01*
X138461247Y-95123290D01*
X138521121Y-95196246D01*
X138572341Y-95258658D01*
X138606258Y-95286493D01*
X139624958Y-96305194D01*
X139589000Y-96485967D01*
X139589000Y-96808033D01*
X139651832Y-97123912D01*
X139775082Y-97421463D01*
X139954013Y-97689252D01*
X140181748Y-97916987D01*
X140449537Y-98095918D01*
X140747088Y-98219168D01*
X141062967Y-98282000D01*
X141385033Y-98282000D01*
X141700912Y-98219168D01*
X141998463Y-98095918D01*
X142208809Y-97955370D01*
X142233463Y-98001494D01*
X142312815Y-98098185D01*
X142409506Y-98177537D01*
X142519820Y-98236502D01*
X142639518Y-98272812D01*
X142764000Y-98285072D01*
X144574000Y-98285072D01*
X144574000Y-102139689D01*
X144569084Y-102189601D01*
X144588701Y-102388771D01*
X144598929Y-102422487D01*
X144646798Y-102580288D01*
X144741140Y-102756791D01*
X144868104Y-102911497D01*
X144906867Y-102943309D01*
X148488490Y-106524933D01*
X148520302Y-106563696D01*
X148675008Y-106690660D01*
X148851511Y-106785002D01*
X148984930Y-106825474D01*
X149043026Y-106843098D01*
X149062375Y-106845004D01*
X149192296Y-106857800D01*
X149192303Y-106857800D01*
X149242197Y-106862714D01*
X149292091Y-106857800D01*
X161686999Y-106857800D01*
X161811025Y-107043418D01*
X162073582Y-107305975D01*
X162382318Y-107512266D01*
X162725366Y-107654361D01*
X163089544Y-107726800D01*
X163460856Y-107726800D01*
X163825034Y-107654361D01*
X164168082Y-107512266D01*
X164476818Y-107305975D01*
X164739375Y-107043418D01*
X164945666Y-106734682D01*
X165087761Y-106391634D01*
X165160200Y-106027456D01*
X165160200Y-105656144D01*
X165087761Y-105291966D01*
X164945666Y-104948918D01*
X164739375Y-104640182D01*
X164476818Y-104377625D01*
X164168082Y-104171334D01*
X163825034Y-104029239D01*
X163460856Y-103956800D01*
X163089544Y-103956800D01*
X162725366Y-104029239D01*
X162382318Y-104171334D01*
X162073582Y-104377625D01*
X161811025Y-104640182D01*
X161686999Y-104825800D01*
X149663039Y-104825800D01*
X149507111Y-104669872D01*
X152575200Y-104669872D01*
X152699682Y-104657612D01*
X152819380Y-104621302D01*
X152929694Y-104562337D01*
X153026385Y-104482985D01*
X153105737Y-104386294D01*
X153164702Y-104275980D01*
X153201012Y-104156282D01*
X153213272Y-104031800D01*
X153213272Y-103623000D01*
X169800928Y-103623000D01*
X169813188Y-103747482D01*
X169849498Y-103867180D01*
X169908463Y-103977494D01*
X169987815Y-104074185D01*
X170084506Y-104153537D01*
X170194820Y-104212502D01*
X170314518Y-104248812D01*
X170439000Y-104261072D01*
X170528250Y-104258000D01*
X170687000Y-104099250D01*
X170687000Y-103175000D01*
X169962750Y-103175000D01*
X169804000Y-103333750D01*
X169800928Y-103623000D01*
X153213272Y-103623000D01*
X153213272Y-103047800D01*
X155535155Y-103047800D01*
X155585057Y-103052715D01*
X155634959Y-103047800D01*
X155784228Y-103033098D01*
X155975744Y-102975002D01*
X156152247Y-102880660D01*
X156306953Y-102753696D01*
X156338769Y-102714928D01*
X156580697Y-102473000D01*
X169800928Y-102473000D01*
X169804000Y-102762250D01*
X169962750Y-102921000D01*
X170687000Y-102921000D01*
X170687000Y-101996750D01*
X170941000Y-101996750D01*
X170941000Y-102921000D01*
X170961000Y-102921000D01*
X170961000Y-103175000D01*
X170941000Y-103175000D01*
X170941000Y-104099250D01*
X171023619Y-104181869D01*
X171049498Y-104267180D01*
X171108463Y-104377494D01*
X171187815Y-104474185D01*
X171284506Y-104553537D01*
X171394820Y-104612502D01*
X171514518Y-104648812D01*
X171639000Y-104661072D01*
X172053250Y-104658000D01*
X172212000Y-104499250D01*
X172212000Y-103675000D01*
X172192000Y-103675000D01*
X172192000Y-103421000D01*
X172212000Y-103421000D01*
X172212000Y-102596750D01*
X172466000Y-102596750D01*
X172466000Y-103421000D01*
X172486000Y-103421000D01*
X172486000Y-103675000D01*
X172466000Y-103675000D01*
X172466000Y-104499250D01*
X172624750Y-104658000D01*
X173039000Y-104661072D01*
X173163482Y-104648812D01*
X173283180Y-104612502D01*
X173393494Y-104553537D01*
X173490185Y-104474185D01*
X173569537Y-104377494D01*
X173628502Y-104267180D01*
X173654381Y-104181869D01*
X173737000Y-104099250D01*
X173737000Y-103175000D01*
X173991000Y-103175000D01*
X173991000Y-104099250D01*
X174149750Y-104258000D01*
X174239000Y-104261072D01*
X174363482Y-104248812D01*
X174483180Y-104212502D01*
X174593494Y-104153537D01*
X174690185Y-104074185D01*
X174769537Y-103977494D01*
X174828502Y-103867180D01*
X174864812Y-103747482D01*
X174877072Y-103623000D01*
X174874000Y-103333750D01*
X174715250Y-103175000D01*
X173991000Y-103175000D01*
X173737000Y-103175000D01*
X173717000Y-103175000D01*
X173717000Y-102921000D01*
X173737000Y-102921000D01*
X173737000Y-101996750D01*
X173991000Y-101996750D01*
X173991000Y-102921000D01*
X174715250Y-102921000D01*
X174874000Y-102762250D01*
X174877072Y-102473000D01*
X174864812Y-102348518D01*
X174828502Y-102228820D01*
X174769537Y-102118506D01*
X174690185Y-102021815D01*
X174593494Y-101942463D01*
X174483180Y-101883498D01*
X174363482Y-101847188D01*
X174239000Y-101834928D01*
X174149750Y-101838000D01*
X173991000Y-101996750D01*
X173737000Y-101996750D01*
X173578250Y-101838000D01*
X173489000Y-101834928D01*
X173364518Y-101847188D01*
X173244820Y-101883498D01*
X173134506Y-101942463D01*
X173037815Y-102021815D01*
X172958463Y-102118506D01*
X172899498Y-102228820D01*
X172863188Y-102348518D01*
X172854543Y-102436296D01*
X172624750Y-102438000D01*
X172466000Y-102596750D01*
X172212000Y-102596750D01*
X172053250Y-102438000D01*
X171823457Y-102436296D01*
X171814812Y-102348518D01*
X171778502Y-102228820D01*
X171719537Y-102118506D01*
X171640185Y-102021815D01*
X171543494Y-101942463D01*
X171433180Y-101883498D01*
X171313482Y-101847188D01*
X171189000Y-101834928D01*
X171099750Y-101838000D01*
X170941000Y-101996750D01*
X170687000Y-101996750D01*
X170528250Y-101838000D01*
X170439000Y-101834928D01*
X170314518Y-101847188D01*
X170194820Y-101883498D01*
X170084506Y-101942463D01*
X169987815Y-102021815D01*
X169908463Y-102118506D01*
X169849498Y-102228820D01*
X169813188Y-102348518D01*
X169800928Y-102473000D01*
X156580697Y-102473000D01*
X158580697Y-100473000D01*
X169800928Y-100473000D01*
X169813188Y-100597482D01*
X169849498Y-100717180D01*
X169908463Y-100827494D01*
X169987815Y-100924185D01*
X170084506Y-101003537D01*
X170194820Y-101062502D01*
X170314518Y-101098812D01*
X170439000Y-101111072D01*
X170528250Y-101108000D01*
X170687000Y-100949250D01*
X170687000Y-100025000D01*
X169962750Y-100025000D01*
X169804000Y-100183750D01*
X169800928Y-100473000D01*
X158580697Y-100473000D01*
X159730697Y-99323000D01*
X169800928Y-99323000D01*
X169804000Y-99612250D01*
X169962750Y-99771000D01*
X170687000Y-99771000D01*
X170687000Y-98846750D01*
X170528250Y-98688000D01*
X170439000Y-98684928D01*
X170314518Y-98697188D01*
X170194820Y-98733498D01*
X170084506Y-98792463D01*
X169987815Y-98871815D01*
X169908463Y-98968506D01*
X169849498Y-99078820D01*
X169813188Y-99198518D01*
X169800928Y-99323000D01*
X159730697Y-99323000D01*
X162918735Y-96134962D01*
X162986150Y-96301754D01*
X163114275Y-96497119D01*
X163278052Y-96663734D01*
X163471187Y-96795196D01*
X163686258Y-96886454D01*
X163915000Y-96934000D01*
X164465000Y-96934000D01*
X164465000Y-95876000D01*
X164719000Y-95876000D01*
X164719000Y-96934000D01*
X165269000Y-96934000D01*
X165497742Y-96886454D01*
X165712813Y-96795196D01*
X165905948Y-96663734D01*
X166069725Y-96497119D01*
X166197850Y-96301754D01*
X166285399Y-96085147D01*
X166285803Y-96058744D01*
X166160361Y-95876000D01*
X164719000Y-95876000D01*
X164465000Y-95876000D01*
X164445000Y-95876000D01*
X164445000Y-95622000D01*
X164465000Y-95622000D01*
X164465000Y-94588698D01*
X164489698Y-94564000D01*
X164719000Y-94564000D01*
X164719000Y-95622000D01*
X166160361Y-95622000D01*
X166285803Y-95439256D01*
X166285399Y-95412853D01*
X166197850Y-95196246D01*
X166069725Y-95000881D01*
X165905948Y-94834266D01*
X165712813Y-94702804D01*
X165497742Y-94611546D01*
X165269000Y-94564000D01*
X164719000Y-94564000D01*
X164489698Y-94564000D01*
X165144954Y-93908744D01*
X165698197Y-93908744D01*
X165698601Y-93935147D01*
X165786150Y-94151754D01*
X165914275Y-94347119D01*
X166078052Y-94513734D01*
X166271187Y-94645196D01*
X166486258Y-94736454D01*
X166715000Y-94784000D01*
X167265000Y-94784000D01*
X167265000Y-93726000D01*
X167519000Y-93726000D01*
X167519000Y-94784000D01*
X168069000Y-94784000D01*
X168297742Y-94736454D01*
X168512813Y-94645196D01*
X168705948Y-94513734D01*
X168869725Y-94347119D01*
X168997850Y-94151754D01*
X169085399Y-93935147D01*
X169085803Y-93908744D01*
X168960361Y-93726000D01*
X167519000Y-93726000D01*
X167265000Y-93726000D01*
X165823639Y-93726000D01*
X165698197Y-93908744D01*
X165144954Y-93908744D01*
X165725161Y-93328537D01*
X165823639Y-93472000D01*
X167265000Y-93472000D01*
X167265000Y-92414000D01*
X166715000Y-92414000D01*
X166522037Y-92454109D01*
X166551202Y-92399545D01*
X166609298Y-92208028D01*
X166628915Y-92008857D01*
X166624000Y-91958955D01*
X166624000Y-89828840D01*
X167031581Y-89421260D01*
X167062498Y-89523180D01*
X167121463Y-89633494D01*
X167200815Y-89730185D01*
X167297506Y-89809537D01*
X167407820Y-89868502D01*
X167527518Y-89904812D01*
X167652000Y-89917072D01*
X169152000Y-89917072D01*
X169276482Y-89904812D01*
X169314753Y-89893203D01*
X169307928Y-89962500D01*
X169307928Y-90885500D01*
X169320448Y-91012615D01*
X169357526Y-91134846D01*
X169417738Y-91247494D01*
X169471497Y-91313000D01*
X169417738Y-91378506D01*
X169375753Y-91457053D01*
X169251985Y-91494598D01*
X169182576Y-91531698D01*
X169169756Y-91523132D01*
X168984856Y-91446544D01*
X168788567Y-91407500D01*
X168588433Y-91407500D01*
X168392144Y-91446544D01*
X168207244Y-91523132D01*
X168040838Y-91634321D01*
X167899321Y-91775838D01*
X167788132Y-91942244D01*
X167711544Y-92127144D01*
X167672500Y-92323433D01*
X167672500Y-92414000D01*
X167519000Y-92414000D01*
X167519000Y-93472000D01*
X168960361Y-93472000D01*
X169019251Y-93386209D01*
X169169756Y-93323868D01*
X169336162Y-93212679D01*
X169363605Y-93185236D01*
X169472878Y-93174474D01*
X169536481Y-93155180D01*
X169597506Y-93205262D01*
X169710154Y-93265474D01*
X169832385Y-93302552D01*
X169959500Y-93315072D01*
X170832500Y-93315072D01*
X170959615Y-93302552D01*
X171081846Y-93265474D01*
X171194494Y-93205262D01*
X171196000Y-93204026D01*
X171197506Y-93205262D01*
X171310154Y-93265474D01*
X171432385Y-93302552D01*
X171559500Y-93315072D01*
X172432500Y-93315072D01*
X172559615Y-93302552D01*
X172681846Y-93265474D01*
X172794494Y-93205262D01*
X172893231Y-93124231D01*
X172942895Y-93063715D01*
X173000744Y-93102368D01*
X173185644Y-93178956D01*
X173381933Y-93218000D01*
X173582067Y-93218000D01*
X173778356Y-93178956D01*
X173963256Y-93102368D01*
X174129662Y-92991179D01*
X174244000Y-92876841D01*
X174244000Y-95686370D01*
X171826649Y-98103721D01*
X171797579Y-98127578D01*
X171773722Y-98156648D01*
X171773721Y-98156649D01*
X171702355Y-98243608D01*
X171680269Y-98284928D01*
X171639000Y-98284928D01*
X171514518Y-98297188D01*
X171394820Y-98333498D01*
X171284506Y-98392463D01*
X171187815Y-98471815D01*
X171108463Y-98568506D01*
X171049498Y-98678820D01*
X171023619Y-98764131D01*
X170941000Y-98846750D01*
X170941000Y-99771000D01*
X170961000Y-99771000D01*
X170961000Y-100025000D01*
X170941000Y-100025000D01*
X170941000Y-100949250D01*
X171099750Y-101108000D01*
X171189000Y-101111072D01*
X171313482Y-101098812D01*
X171433180Y-101062502D01*
X171543494Y-101003537D01*
X171640185Y-100924185D01*
X171719537Y-100827494D01*
X171778502Y-100717180D01*
X171814812Y-100597482D01*
X171823322Y-100511072D01*
X172854678Y-100511072D01*
X172863188Y-100597482D01*
X172899498Y-100717180D01*
X172958463Y-100827494D01*
X173037815Y-100924185D01*
X173134506Y-101003537D01*
X173244820Y-101062502D01*
X173364518Y-101098812D01*
X173489000Y-101111072D01*
X173578250Y-101108000D01*
X173737000Y-100949250D01*
X173737000Y-100025000D01*
X173991000Y-100025000D01*
X173991000Y-100949250D01*
X174149750Y-101108000D01*
X174239000Y-101111072D01*
X174363482Y-101098812D01*
X174483180Y-101062502D01*
X174593494Y-101003537D01*
X174690185Y-100924185D01*
X174769537Y-100827494D01*
X174828502Y-100717180D01*
X174864812Y-100597482D01*
X174877072Y-100473000D01*
X174874000Y-100183750D01*
X174715250Y-100025000D01*
X173991000Y-100025000D01*
X173737000Y-100025000D01*
X173717000Y-100025000D01*
X173717000Y-99771000D01*
X173737000Y-99771000D01*
X173737000Y-98846750D01*
X173991000Y-98846750D01*
X173991000Y-99771000D01*
X174715250Y-99771000D01*
X174874000Y-99612250D01*
X174877072Y-99323000D01*
X174864812Y-99198518D01*
X174828502Y-99078820D01*
X174769537Y-98968506D01*
X174690185Y-98871815D01*
X174593494Y-98792463D01*
X174483180Y-98733498D01*
X174363482Y-98697188D01*
X174239000Y-98684928D01*
X174149750Y-98688000D01*
X173991000Y-98846750D01*
X173737000Y-98846750D01*
X173654381Y-98764131D01*
X173628502Y-98678820D01*
X173569537Y-98568506D01*
X173545912Y-98539718D01*
X175006000Y-97079630D01*
X175006000Y-111264764D01*
X161556765Y-124714000D01*
X146560474Y-124714000D01*
X142297793Y-120451319D01*
X142392821Y-120309099D01*
X142459836Y-120147312D01*
X142494000Y-119975559D01*
X142494000Y-119800441D01*
X142459836Y-119628688D01*
X142428185Y-119552275D01*
X145400200Y-119552275D01*
X145400200Y-120071325D01*
X145501461Y-120580401D01*
X145700093Y-121059941D01*
X145988462Y-121491515D01*
X146355485Y-121858538D01*
X146787059Y-122146907D01*
X147266599Y-122345539D01*
X147775675Y-122446800D01*
X148294725Y-122446800D01*
X148803801Y-122345539D01*
X149283341Y-122146907D01*
X149714915Y-121858538D01*
X150081938Y-121491515D01*
X150370307Y-121059941D01*
X150568939Y-120580401D01*
X150670200Y-120071325D01*
X150670200Y-119552275D01*
X150568939Y-119043199D01*
X150370307Y-118563659D01*
X150081938Y-118132085D01*
X149714915Y-117765062D01*
X149283341Y-117476693D01*
X148893958Y-117315405D01*
X162141200Y-117315405D01*
X162267114Y-117605377D01*
X162599326Y-117771233D01*
X162957512Y-117869090D01*
X163327906Y-117895189D01*
X163696275Y-117848525D01*
X164048462Y-117730894D01*
X164283286Y-117605377D01*
X164409200Y-117315405D01*
X163275200Y-116181405D01*
X162141200Y-117315405D01*
X148893958Y-117315405D01*
X148803801Y-117278061D01*
X148294725Y-117176800D01*
X147775675Y-117176800D01*
X147266599Y-117278061D01*
X146787059Y-117476693D01*
X146355485Y-117765062D01*
X145988462Y-118132085D01*
X145700093Y-118563659D01*
X145501461Y-119043199D01*
X145400200Y-119552275D01*
X142428185Y-119552275D01*
X142392821Y-119466901D01*
X142295531Y-119321296D01*
X142171704Y-119197469D01*
X142026099Y-119100179D01*
X141864312Y-119033164D01*
X141818726Y-119024096D01*
X141601000Y-118806370D01*
X141601000Y-116054506D01*
X161381811Y-116054506D01*
X161428475Y-116422875D01*
X161546106Y-116775062D01*
X161671623Y-117009886D01*
X161961595Y-117135800D01*
X163095595Y-116001800D01*
X163454805Y-116001800D01*
X164588805Y-117135800D01*
X164878777Y-117009886D01*
X165044633Y-116677674D01*
X165142490Y-116319488D01*
X165168589Y-115949094D01*
X165121925Y-115580725D01*
X165004294Y-115228538D01*
X164878777Y-114993714D01*
X164588805Y-114867800D01*
X163454805Y-116001800D01*
X163095595Y-116001800D01*
X161961595Y-114867800D01*
X161671623Y-114993714D01*
X161505767Y-115325926D01*
X161407910Y-115684112D01*
X161381811Y-116054506D01*
X141601000Y-116054506D01*
X141601000Y-114688195D01*
X162141200Y-114688195D01*
X163275200Y-115822195D01*
X164409200Y-114688195D01*
X164283286Y-114398223D01*
X163951074Y-114232367D01*
X163592888Y-114134510D01*
X163222494Y-114108411D01*
X162854125Y-114155075D01*
X162501938Y-114272706D01*
X162267114Y-114398223D01*
X162141200Y-114688195D01*
X141601000Y-114688195D01*
X141601000Y-111580743D01*
X141626821Y-111542099D01*
X141693836Y-111380312D01*
X141728000Y-111208559D01*
X141728000Y-111033441D01*
X141693836Y-110861688D01*
X141626821Y-110699901D01*
X141529531Y-110554296D01*
X141405704Y-110430469D01*
X141260099Y-110333179D01*
X141098312Y-110266164D01*
X140926559Y-110232000D01*
X140751441Y-110232000D01*
X140579688Y-110266164D01*
X140417901Y-110333179D01*
X140272296Y-110430469D01*
X140148469Y-110554296D01*
X140051179Y-110699901D01*
X139984164Y-110861688D01*
X139950000Y-111033441D01*
X139950000Y-111208559D01*
X139984164Y-111380312D01*
X140051179Y-111542099D01*
X140077000Y-111580743D01*
X140077001Y-115837766D01*
X138994204Y-114754969D01*
X138957710Y-114730584D01*
X138923791Y-114702748D01*
X138885092Y-114682063D01*
X138848599Y-114657679D01*
X138808052Y-114640884D01*
X138769352Y-114620198D01*
X138727362Y-114607461D01*
X138686812Y-114590664D01*
X138643761Y-114582101D01*
X138601774Y-114569364D01*
X138558112Y-114565064D01*
X138515059Y-114556500D01*
X138471160Y-114556500D01*
X138427500Y-114552200D01*
X138383840Y-114556500D01*
X138339941Y-114556500D01*
X138296888Y-114565064D01*
X138253226Y-114569364D01*
X138211239Y-114582101D01*
X138168188Y-114590664D01*
X138127638Y-114607461D01*
X138085648Y-114620198D01*
X138046948Y-114640884D01*
X138006401Y-114657679D01*
X137969908Y-114682063D01*
X137952843Y-114691184D01*
X137918912Y-114694526D01*
X137775275Y-114738098D01*
X137642898Y-114808855D01*
X137526868Y-114904078D01*
X137503006Y-114933154D01*
X137374159Y-115062001D01*
X134427629Y-115062001D01*
X141053621Y-108436010D01*
X141139356Y-108418956D01*
X141324256Y-108342368D01*
X141490662Y-108231179D01*
X141632179Y-108089662D01*
X141743368Y-107923256D01*
X141819956Y-107738356D01*
X141859000Y-107542067D01*
X141859000Y-107341933D01*
X141819956Y-107145644D01*
X141743368Y-106960744D01*
X141632179Y-106794338D01*
X141490662Y-106652821D01*
X141324256Y-106541632D01*
X141139356Y-106465044D01*
X140943067Y-106426000D01*
X140742933Y-106426000D01*
X140546644Y-106465044D01*
X140361744Y-106541632D01*
X140195338Y-106652821D01*
X140053821Y-106794338D01*
X139942632Y-106960744D01*
X139866044Y-107145644D01*
X139827000Y-107341933D01*
X139827000Y-107507369D01*
X137414000Y-109920369D01*
X137414000Y-107098423D01*
X137417686Y-107061000D01*
X137414000Y-107023574D01*
X137402974Y-106911622D01*
X137359402Y-106767985D01*
X137297846Y-106652821D01*
X137288645Y-106635607D01*
X137253857Y-106593219D01*
X137193422Y-106519578D01*
X137164346Y-106495716D01*
X136582284Y-105913654D01*
X136558422Y-105884578D01*
X136442392Y-105789355D01*
X136310015Y-105718598D01*
X136166378Y-105675026D01*
X136054426Y-105664000D01*
X136054423Y-105664000D01*
X136017000Y-105660314D01*
X135979577Y-105664000D01*
X132371415Y-105664000D01*
X132333999Y-105660315D01*
X132296583Y-105664000D01*
X132296574Y-105664000D01*
X132184622Y-105675026D01*
X132040985Y-105718598D01*
X131952999Y-105765628D01*
X131952999Y-91365593D01*
X131982998Y-91335595D01*
X131969000Y-91405967D01*
X131969000Y-91728033D01*
X132031832Y-92043912D01*
X132155082Y-92341463D01*
X132334013Y-92609252D01*
X132561748Y-92836987D01*
X132715001Y-92939387D01*
X132715000Y-95274613D01*
X132561748Y-95377013D01*
X132334013Y-95604748D01*
X132155082Y-95872537D01*
X132031832Y-96170088D01*
X131969000Y-96485967D01*
X131969000Y-96808033D01*
X132031832Y-97123912D01*
X132155082Y-97421463D01*
X132334013Y-97689252D01*
X132561748Y-97916987D01*
X132829537Y-98095918D01*
X133127088Y-98219168D01*
X133442967Y-98282000D01*
X133765033Y-98282000D01*
X134080912Y-98219168D01*
X134378463Y-98095918D01*
X134646252Y-97916987D01*
X134873987Y-97689252D01*
X135052918Y-97421463D01*
X135176168Y-97123912D01*
X135239000Y-96808033D01*
X135239000Y-96485967D01*
X135176168Y-96170088D01*
X135052918Y-95872537D01*
X134873987Y-95604748D01*
X134646252Y-95377013D01*
X134493000Y-95274613D01*
X134493000Y-92939387D01*
X134646252Y-92836987D01*
X134873987Y-92609252D01*
X135052918Y-92341463D01*
X135176168Y-92043912D01*
X135239000Y-91728033D01*
X135239000Y-91405967D01*
X135176168Y-91090088D01*
X135052918Y-90792537D01*
X134873987Y-90524748D01*
X134646252Y-90297013D01*
X134493000Y-90194613D01*
X134493000Y-89903235D01*
X136533928Y-87862307D01*
X136533928Y-89279000D01*
G04 #@! TA.AperFunction,Conductor*
D26*
G36*
X136533928Y-89279000D02*
G01*
X136546188Y-89403482D01*
X136582498Y-89523180D01*
X136641463Y-89633494D01*
X136720815Y-89730185D01*
X136817506Y-89809537D01*
X136927820Y-89868502D01*
X137047518Y-89904812D01*
X137172000Y-89917072D01*
X138314999Y-89917072D01*
X138315000Y-94583329D01*
X138310699Y-94626999D01*
X138327863Y-94801273D01*
X138378697Y-94968851D01*
X138461247Y-95123290D01*
X138521121Y-95196246D01*
X138572341Y-95258658D01*
X138606258Y-95286493D01*
X139624958Y-96305194D01*
X139589000Y-96485967D01*
X139589000Y-96808033D01*
X139651832Y-97123912D01*
X139775082Y-97421463D01*
X139954013Y-97689252D01*
X140181748Y-97916987D01*
X140449537Y-98095918D01*
X140747088Y-98219168D01*
X141062967Y-98282000D01*
X141385033Y-98282000D01*
X141700912Y-98219168D01*
X141998463Y-98095918D01*
X142208809Y-97955370D01*
X142233463Y-98001494D01*
X142312815Y-98098185D01*
X142409506Y-98177537D01*
X142519820Y-98236502D01*
X142639518Y-98272812D01*
X142764000Y-98285072D01*
X144574000Y-98285072D01*
X144574000Y-102139689D01*
X144569084Y-102189601D01*
X144588701Y-102388771D01*
X144598929Y-102422487D01*
X144646798Y-102580288D01*
X144741140Y-102756791D01*
X144868104Y-102911497D01*
X144906867Y-102943309D01*
X148488490Y-106524933D01*
X148520302Y-106563696D01*
X148675008Y-106690660D01*
X148851511Y-106785002D01*
X148984930Y-106825474D01*
X149043026Y-106843098D01*
X149062375Y-106845004D01*
X149192296Y-106857800D01*
X149192303Y-106857800D01*
X149242197Y-106862714D01*
X149292091Y-106857800D01*
X161686999Y-106857800D01*
X161811025Y-107043418D01*
X162073582Y-107305975D01*
X162382318Y-107512266D01*
X162725366Y-107654361D01*
X163089544Y-107726800D01*
X163460856Y-107726800D01*
X163825034Y-107654361D01*
X164168082Y-107512266D01*
X164476818Y-107305975D01*
X164739375Y-107043418D01*
X164945666Y-106734682D01*
X165087761Y-106391634D01*
X165160200Y-106027456D01*
X165160200Y-105656144D01*
X165087761Y-105291966D01*
X164945666Y-104948918D01*
X164739375Y-104640182D01*
X164476818Y-104377625D01*
X164168082Y-104171334D01*
X163825034Y-104029239D01*
X163460856Y-103956800D01*
X163089544Y-103956800D01*
X162725366Y-104029239D01*
X162382318Y-104171334D01*
X162073582Y-104377625D01*
X161811025Y-104640182D01*
X161686999Y-104825800D01*
X149663039Y-104825800D01*
X149507111Y-104669872D01*
X152575200Y-104669872D01*
X152699682Y-104657612D01*
X152819380Y-104621302D01*
X152929694Y-104562337D01*
X153026385Y-104482985D01*
X153105737Y-104386294D01*
X153164702Y-104275980D01*
X153201012Y-104156282D01*
X153213272Y-104031800D01*
X153213272Y-103623000D01*
X169800928Y-103623000D01*
X169813188Y-103747482D01*
X169849498Y-103867180D01*
X169908463Y-103977494D01*
X169987815Y-104074185D01*
X170084506Y-104153537D01*
X170194820Y-104212502D01*
X170314518Y-104248812D01*
X170439000Y-104261072D01*
X170528250Y-104258000D01*
X170687000Y-104099250D01*
X170687000Y-103175000D01*
X169962750Y-103175000D01*
X169804000Y-103333750D01*
X169800928Y-103623000D01*
X153213272Y-103623000D01*
X153213272Y-103047800D01*
X155535155Y-103047800D01*
X155585057Y-103052715D01*
X155634959Y-103047800D01*
X155784228Y-103033098D01*
X155975744Y-102975002D01*
X156152247Y-102880660D01*
X156306953Y-102753696D01*
X156338769Y-102714928D01*
X156580697Y-102473000D01*
X169800928Y-102473000D01*
X169804000Y-102762250D01*
X169962750Y-102921000D01*
X170687000Y-102921000D01*
X170687000Y-101996750D01*
X170941000Y-101996750D01*
X170941000Y-102921000D01*
X170961000Y-102921000D01*
X170961000Y-103175000D01*
X170941000Y-103175000D01*
X170941000Y-104099250D01*
X171023619Y-104181869D01*
X171049498Y-104267180D01*
X171108463Y-104377494D01*
X171187815Y-104474185D01*
X171284506Y-104553537D01*
X171394820Y-104612502D01*
X171514518Y-104648812D01*
X171639000Y-104661072D01*
X172053250Y-104658000D01*
X172212000Y-104499250D01*
X172212000Y-103675000D01*
X172192000Y-103675000D01*
X172192000Y-103421000D01*
X172212000Y-103421000D01*
X172212000Y-102596750D01*
X172466000Y-102596750D01*
X172466000Y-103421000D01*
X172486000Y-103421000D01*
X172486000Y-103675000D01*
X172466000Y-103675000D01*
X172466000Y-104499250D01*
X172624750Y-104658000D01*
X173039000Y-104661072D01*
X173163482Y-104648812D01*
X173283180Y-104612502D01*
X173393494Y-104553537D01*
X173490185Y-104474185D01*
X173569537Y-104377494D01*
X173628502Y-104267180D01*
X173654381Y-104181869D01*
X173737000Y-104099250D01*
X173737000Y-103175000D01*
X173991000Y-103175000D01*
X173991000Y-104099250D01*
X174149750Y-104258000D01*
X174239000Y-104261072D01*
X174363482Y-104248812D01*
X174483180Y-104212502D01*
X174593494Y-104153537D01*
X174690185Y-104074185D01*
X174769537Y-103977494D01*
X174828502Y-103867180D01*
X174864812Y-103747482D01*
X174877072Y-103623000D01*
X174874000Y-103333750D01*
X174715250Y-103175000D01*
X173991000Y-103175000D01*
X173737000Y-103175000D01*
X173717000Y-103175000D01*
X173717000Y-102921000D01*
X173737000Y-102921000D01*
X173737000Y-101996750D01*
X173991000Y-101996750D01*
X173991000Y-102921000D01*
X174715250Y-102921000D01*
X174874000Y-102762250D01*
X174877072Y-102473000D01*
X174864812Y-102348518D01*
X174828502Y-102228820D01*
X174769537Y-102118506D01*
X174690185Y-102021815D01*
X174593494Y-101942463D01*
X174483180Y-101883498D01*
X174363482Y-101847188D01*
X174239000Y-101834928D01*
X174149750Y-101838000D01*
X173991000Y-101996750D01*
X173737000Y-101996750D01*
X173578250Y-101838000D01*
X173489000Y-101834928D01*
X173364518Y-101847188D01*
X173244820Y-101883498D01*
X173134506Y-101942463D01*
X173037815Y-102021815D01*
X172958463Y-102118506D01*
X172899498Y-102228820D01*
X172863188Y-102348518D01*
X172854543Y-102436296D01*
X172624750Y-102438000D01*
X172466000Y-102596750D01*
X172212000Y-102596750D01*
X172053250Y-102438000D01*
X171823457Y-102436296D01*
X171814812Y-102348518D01*
X171778502Y-102228820D01*
X171719537Y-102118506D01*
X171640185Y-102021815D01*
X171543494Y-101942463D01*
X171433180Y-101883498D01*
X171313482Y-101847188D01*
X171189000Y-101834928D01*
X171099750Y-101838000D01*
X170941000Y-101996750D01*
X170687000Y-101996750D01*
X170528250Y-101838000D01*
X170439000Y-101834928D01*
X170314518Y-101847188D01*
X170194820Y-101883498D01*
X170084506Y-101942463D01*
X169987815Y-102021815D01*
X169908463Y-102118506D01*
X169849498Y-102228820D01*
X169813188Y-102348518D01*
X169800928Y-102473000D01*
X156580697Y-102473000D01*
X158580697Y-100473000D01*
X169800928Y-100473000D01*
X169813188Y-100597482D01*
X169849498Y-100717180D01*
X169908463Y-100827494D01*
X169987815Y-100924185D01*
X170084506Y-101003537D01*
X170194820Y-101062502D01*
X170314518Y-101098812D01*
X170439000Y-101111072D01*
X170528250Y-101108000D01*
X170687000Y-100949250D01*
X170687000Y-100025000D01*
X169962750Y-100025000D01*
X169804000Y-100183750D01*
X169800928Y-100473000D01*
X158580697Y-100473000D01*
X159730697Y-99323000D01*
X169800928Y-99323000D01*
X169804000Y-99612250D01*
X169962750Y-99771000D01*
X170687000Y-99771000D01*
X170687000Y-98846750D01*
X170528250Y-98688000D01*
X170439000Y-98684928D01*
X170314518Y-98697188D01*
X170194820Y-98733498D01*
X170084506Y-98792463D01*
X169987815Y-98871815D01*
X169908463Y-98968506D01*
X169849498Y-99078820D01*
X169813188Y-99198518D01*
X169800928Y-99323000D01*
X159730697Y-99323000D01*
X162918735Y-96134962D01*
X162986150Y-96301754D01*
X163114275Y-96497119D01*
X163278052Y-96663734D01*
X163471187Y-96795196D01*
X163686258Y-96886454D01*
X163915000Y-96934000D01*
X164465000Y-96934000D01*
X164465000Y-95876000D01*
X164719000Y-95876000D01*
X164719000Y-96934000D01*
X165269000Y-96934000D01*
X165497742Y-96886454D01*
X165712813Y-96795196D01*
X165905948Y-96663734D01*
X166069725Y-96497119D01*
X166197850Y-96301754D01*
X166285399Y-96085147D01*
X166285803Y-96058744D01*
X166160361Y-95876000D01*
X164719000Y-95876000D01*
X164465000Y-95876000D01*
X164445000Y-95876000D01*
X164445000Y-95622000D01*
X164465000Y-95622000D01*
X164465000Y-94588698D01*
X164489698Y-94564000D01*
X164719000Y-94564000D01*
X164719000Y-95622000D01*
X166160361Y-95622000D01*
X166285803Y-95439256D01*
X166285399Y-95412853D01*
X166197850Y-95196246D01*
X166069725Y-95000881D01*
X165905948Y-94834266D01*
X165712813Y-94702804D01*
X165497742Y-94611546D01*
X165269000Y-94564000D01*
X164719000Y-94564000D01*
X164489698Y-94564000D01*
X165144954Y-93908744D01*
X165698197Y-93908744D01*
X165698601Y-93935147D01*
X165786150Y-94151754D01*
X165914275Y-94347119D01*
X166078052Y-94513734D01*
X166271187Y-94645196D01*
X166486258Y-94736454D01*
X166715000Y-94784000D01*
X167265000Y-94784000D01*
X167265000Y-93726000D01*
X167519000Y-93726000D01*
X167519000Y-94784000D01*
X168069000Y-94784000D01*
X168297742Y-94736454D01*
X168512813Y-94645196D01*
X168705948Y-94513734D01*
X168869725Y-94347119D01*
X168997850Y-94151754D01*
X169085399Y-93935147D01*
X169085803Y-93908744D01*
X168960361Y-93726000D01*
X167519000Y-93726000D01*
X167265000Y-93726000D01*
X165823639Y-93726000D01*
X165698197Y-93908744D01*
X165144954Y-93908744D01*
X165725161Y-93328537D01*
X165823639Y-93472000D01*
X167265000Y-93472000D01*
X167265000Y-92414000D01*
X166715000Y-92414000D01*
X166522037Y-92454109D01*
X166551202Y-92399545D01*
X166609298Y-92208028D01*
X166628915Y-92008857D01*
X166624000Y-91958955D01*
X166624000Y-89828840D01*
X167031581Y-89421260D01*
X167062498Y-89523180D01*
X167121463Y-89633494D01*
X167200815Y-89730185D01*
X167297506Y-89809537D01*
X167407820Y-89868502D01*
X167527518Y-89904812D01*
X167652000Y-89917072D01*
X169152000Y-89917072D01*
X169276482Y-89904812D01*
X169314753Y-89893203D01*
X169307928Y-89962500D01*
X169307928Y-90885500D01*
X169320448Y-91012615D01*
X169357526Y-91134846D01*
X169417738Y-91247494D01*
X169471497Y-91313000D01*
X169417738Y-91378506D01*
X169375753Y-91457053D01*
X169251985Y-91494598D01*
X169182576Y-91531698D01*
X169169756Y-91523132D01*
X168984856Y-91446544D01*
X168788567Y-91407500D01*
X168588433Y-91407500D01*
X168392144Y-91446544D01*
X168207244Y-91523132D01*
X168040838Y-91634321D01*
X167899321Y-91775838D01*
X167788132Y-91942244D01*
X167711544Y-92127144D01*
X167672500Y-92323433D01*
X167672500Y-92414000D01*
X167519000Y-92414000D01*
X167519000Y-93472000D01*
X168960361Y-93472000D01*
X169019251Y-93386209D01*
X169169756Y-93323868D01*
X169336162Y-93212679D01*
X169363605Y-93185236D01*
X169472878Y-93174474D01*
X169536481Y-93155180D01*
X169597506Y-93205262D01*
X169710154Y-93265474D01*
X169832385Y-93302552D01*
X169959500Y-93315072D01*
X170832500Y-93315072D01*
X170959615Y-93302552D01*
X171081846Y-93265474D01*
X171194494Y-93205262D01*
X171196000Y-93204026D01*
X171197506Y-93205262D01*
X171310154Y-93265474D01*
X171432385Y-93302552D01*
X171559500Y-93315072D01*
X172432500Y-93315072D01*
X172559615Y-93302552D01*
X172681846Y-93265474D01*
X172794494Y-93205262D01*
X172893231Y-93124231D01*
X172942895Y-93063715D01*
X173000744Y-93102368D01*
X173185644Y-93178956D01*
X173381933Y-93218000D01*
X173582067Y-93218000D01*
X173778356Y-93178956D01*
X173963256Y-93102368D01*
X174129662Y-92991179D01*
X174244000Y-92876841D01*
X174244000Y-95686370D01*
X171826649Y-98103721D01*
X171797579Y-98127578D01*
X171773722Y-98156648D01*
X171773721Y-98156649D01*
X171702355Y-98243608D01*
X171680269Y-98284928D01*
X171639000Y-98284928D01*
X171514518Y-98297188D01*
X171394820Y-98333498D01*
X171284506Y-98392463D01*
X171187815Y-98471815D01*
X171108463Y-98568506D01*
X171049498Y-98678820D01*
X171023619Y-98764131D01*
X170941000Y-98846750D01*
X170941000Y-99771000D01*
X170961000Y-99771000D01*
X170961000Y-100025000D01*
X170941000Y-100025000D01*
X170941000Y-100949250D01*
X171099750Y-101108000D01*
X171189000Y-101111072D01*
X171313482Y-101098812D01*
X171433180Y-101062502D01*
X171543494Y-101003537D01*
X171640185Y-100924185D01*
X171719537Y-100827494D01*
X171778502Y-100717180D01*
X171814812Y-100597482D01*
X171823322Y-100511072D01*
X172854678Y-100511072D01*
X172863188Y-100597482D01*
X172899498Y-100717180D01*
X172958463Y-100827494D01*
X173037815Y-100924185D01*
X173134506Y-101003537D01*
X173244820Y-101062502D01*
X173364518Y-101098812D01*
X173489000Y-101111072D01*
X173578250Y-101108000D01*
X173737000Y-100949250D01*
X173737000Y-100025000D01*
X173991000Y-100025000D01*
X173991000Y-100949250D01*
X174149750Y-101108000D01*
X174239000Y-101111072D01*
X174363482Y-101098812D01*
X174483180Y-101062502D01*
X174593494Y-101003537D01*
X174690185Y-100924185D01*
X174769537Y-100827494D01*
X174828502Y-100717180D01*
X174864812Y-100597482D01*
X174877072Y-100473000D01*
X174874000Y-100183750D01*
X174715250Y-100025000D01*
X173991000Y-100025000D01*
X173737000Y-100025000D01*
X173717000Y-100025000D01*
X173717000Y-99771000D01*
X173737000Y-99771000D01*
X173737000Y-98846750D01*
X173991000Y-98846750D01*
X173991000Y-99771000D01*
X174715250Y-99771000D01*
X174874000Y-99612250D01*
X174877072Y-99323000D01*
X174864812Y-99198518D01*
X174828502Y-99078820D01*
X174769537Y-98968506D01*
X174690185Y-98871815D01*
X174593494Y-98792463D01*
X174483180Y-98733498D01*
X174363482Y-98697188D01*
X174239000Y-98684928D01*
X174149750Y-98688000D01*
X173991000Y-98846750D01*
X173737000Y-98846750D01*
X173654381Y-98764131D01*
X173628502Y-98678820D01*
X173569537Y-98568506D01*
X173545912Y-98539718D01*
X175006000Y-97079630D01*
X175006000Y-111264764D01*
X161556765Y-124714000D01*
X146560474Y-124714000D01*
X142297793Y-120451319D01*
X142392821Y-120309099D01*
X142459836Y-120147312D01*
X142494000Y-119975559D01*
X142494000Y-119800441D01*
X142459836Y-119628688D01*
X142428185Y-119552275D01*
X145400200Y-119552275D01*
X145400200Y-120071325D01*
X145501461Y-120580401D01*
X145700093Y-121059941D01*
X145988462Y-121491515D01*
X146355485Y-121858538D01*
X146787059Y-122146907D01*
X147266599Y-122345539D01*
X147775675Y-122446800D01*
X148294725Y-122446800D01*
X148803801Y-122345539D01*
X149283341Y-122146907D01*
X149714915Y-121858538D01*
X150081938Y-121491515D01*
X150370307Y-121059941D01*
X150568939Y-120580401D01*
X150670200Y-120071325D01*
X150670200Y-119552275D01*
X150568939Y-119043199D01*
X150370307Y-118563659D01*
X150081938Y-118132085D01*
X149714915Y-117765062D01*
X149283341Y-117476693D01*
X148893958Y-117315405D01*
X162141200Y-117315405D01*
X162267114Y-117605377D01*
X162599326Y-117771233D01*
X162957512Y-117869090D01*
X163327906Y-117895189D01*
X163696275Y-117848525D01*
X164048462Y-117730894D01*
X164283286Y-117605377D01*
X164409200Y-117315405D01*
X163275200Y-116181405D01*
X162141200Y-117315405D01*
X148893958Y-117315405D01*
X148803801Y-117278061D01*
X148294725Y-117176800D01*
X147775675Y-117176800D01*
X147266599Y-117278061D01*
X146787059Y-117476693D01*
X146355485Y-117765062D01*
X145988462Y-118132085D01*
X145700093Y-118563659D01*
X145501461Y-119043199D01*
X145400200Y-119552275D01*
X142428185Y-119552275D01*
X142392821Y-119466901D01*
X142295531Y-119321296D01*
X142171704Y-119197469D01*
X142026099Y-119100179D01*
X141864312Y-119033164D01*
X141818726Y-119024096D01*
X141601000Y-118806370D01*
X141601000Y-116054506D01*
X161381811Y-116054506D01*
X161428475Y-116422875D01*
X161546106Y-116775062D01*
X161671623Y-117009886D01*
X161961595Y-117135800D01*
X163095595Y-116001800D01*
X163454805Y-116001800D01*
X164588805Y-117135800D01*
X164878777Y-117009886D01*
X165044633Y-116677674D01*
X165142490Y-116319488D01*
X165168589Y-115949094D01*
X165121925Y-115580725D01*
X165004294Y-115228538D01*
X164878777Y-114993714D01*
X164588805Y-114867800D01*
X163454805Y-116001800D01*
X163095595Y-116001800D01*
X161961595Y-114867800D01*
X161671623Y-114993714D01*
X161505767Y-115325926D01*
X161407910Y-115684112D01*
X161381811Y-116054506D01*
X141601000Y-116054506D01*
X141601000Y-114688195D01*
X162141200Y-114688195D01*
X163275200Y-115822195D01*
X164409200Y-114688195D01*
X164283286Y-114398223D01*
X163951074Y-114232367D01*
X163592888Y-114134510D01*
X163222494Y-114108411D01*
X162854125Y-114155075D01*
X162501938Y-114272706D01*
X162267114Y-114398223D01*
X162141200Y-114688195D01*
X141601000Y-114688195D01*
X141601000Y-111580743D01*
X141626821Y-111542099D01*
X141693836Y-111380312D01*
X141728000Y-111208559D01*
X141728000Y-111033441D01*
X141693836Y-110861688D01*
X141626821Y-110699901D01*
X141529531Y-110554296D01*
X141405704Y-110430469D01*
X141260099Y-110333179D01*
X141098312Y-110266164D01*
X140926559Y-110232000D01*
X140751441Y-110232000D01*
X140579688Y-110266164D01*
X140417901Y-110333179D01*
X140272296Y-110430469D01*
X140148469Y-110554296D01*
X140051179Y-110699901D01*
X139984164Y-110861688D01*
X139950000Y-111033441D01*
X139950000Y-111208559D01*
X139984164Y-111380312D01*
X140051179Y-111542099D01*
X140077000Y-111580743D01*
X140077001Y-115837766D01*
X138994204Y-114754969D01*
X138957710Y-114730584D01*
X138923791Y-114702748D01*
X138885092Y-114682063D01*
X138848599Y-114657679D01*
X138808052Y-114640884D01*
X138769352Y-114620198D01*
X138727362Y-114607461D01*
X138686812Y-114590664D01*
X138643761Y-114582101D01*
X138601774Y-114569364D01*
X138558112Y-114565064D01*
X138515059Y-114556500D01*
X138471160Y-114556500D01*
X138427500Y-114552200D01*
X138383840Y-114556500D01*
X138339941Y-114556500D01*
X138296888Y-114565064D01*
X138253226Y-114569364D01*
X138211239Y-114582101D01*
X138168188Y-114590664D01*
X138127638Y-114607461D01*
X138085648Y-114620198D01*
X138046948Y-114640884D01*
X138006401Y-114657679D01*
X137969908Y-114682063D01*
X137952843Y-114691184D01*
X137918912Y-114694526D01*
X137775275Y-114738098D01*
X137642898Y-114808855D01*
X137526868Y-114904078D01*
X137503006Y-114933154D01*
X137374159Y-115062001D01*
X134427629Y-115062001D01*
X141053621Y-108436010D01*
X141139356Y-108418956D01*
X141324256Y-108342368D01*
X141490662Y-108231179D01*
X141632179Y-108089662D01*
X141743368Y-107923256D01*
X141819956Y-107738356D01*
X141859000Y-107542067D01*
X141859000Y-107341933D01*
X141819956Y-107145644D01*
X141743368Y-106960744D01*
X141632179Y-106794338D01*
X141490662Y-106652821D01*
X141324256Y-106541632D01*
X141139356Y-106465044D01*
X140943067Y-106426000D01*
X140742933Y-106426000D01*
X140546644Y-106465044D01*
X140361744Y-106541632D01*
X140195338Y-106652821D01*
X140053821Y-106794338D01*
X139942632Y-106960744D01*
X139866044Y-107145644D01*
X139827000Y-107341933D01*
X139827000Y-107507369D01*
X137414000Y-109920369D01*
X137414000Y-107098423D01*
X137417686Y-107061000D01*
X137414000Y-107023574D01*
X137402974Y-106911622D01*
X137359402Y-106767985D01*
X137297846Y-106652821D01*
X137288645Y-106635607D01*
X137253857Y-106593219D01*
X137193422Y-106519578D01*
X137164346Y-106495716D01*
X136582284Y-105913654D01*
X136558422Y-105884578D01*
X136442392Y-105789355D01*
X136310015Y-105718598D01*
X136166378Y-105675026D01*
X136054426Y-105664000D01*
X136054423Y-105664000D01*
X136017000Y-105660314D01*
X135979577Y-105664000D01*
X132371415Y-105664000D01*
X132333999Y-105660315D01*
X132296583Y-105664000D01*
X132296574Y-105664000D01*
X132184622Y-105675026D01*
X132040985Y-105718598D01*
X131952999Y-105765628D01*
X131952999Y-91365593D01*
X131982998Y-91335595D01*
X131969000Y-91405967D01*
X131969000Y-91728033D01*
X132031832Y-92043912D01*
X132155082Y-92341463D01*
X132334013Y-92609252D01*
X132561748Y-92836987D01*
X132715001Y-92939387D01*
X132715000Y-95274613D01*
X132561748Y-95377013D01*
X132334013Y-95604748D01*
X132155082Y-95872537D01*
X132031832Y-96170088D01*
X131969000Y-96485967D01*
X131969000Y-96808033D01*
X132031832Y-97123912D01*
X132155082Y-97421463D01*
X132334013Y-97689252D01*
X132561748Y-97916987D01*
X132829537Y-98095918D01*
X133127088Y-98219168D01*
X133442967Y-98282000D01*
X133765033Y-98282000D01*
X134080912Y-98219168D01*
X134378463Y-98095918D01*
X134646252Y-97916987D01*
X134873987Y-97689252D01*
X135052918Y-97421463D01*
X135176168Y-97123912D01*
X135239000Y-96808033D01*
X135239000Y-96485967D01*
X135176168Y-96170088D01*
X135052918Y-95872537D01*
X134873987Y-95604748D01*
X134646252Y-95377013D01*
X134493000Y-95274613D01*
X134493000Y-92939387D01*
X134646252Y-92836987D01*
X134873987Y-92609252D01*
X135052918Y-92341463D01*
X135176168Y-92043912D01*
X135239000Y-91728033D01*
X135239000Y-91405967D01*
X135176168Y-91090088D01*
X135052918Y-90792537D01*
X134873987Y-90524748D01*
X134646252Y-90297013D01*
X134493000Y-90194613D01*
X134493000Y-89903235D01*
X136533928Y-87862307D01*
X136533928Y-89279000D01*
G37*
G04 #@! TD.AperFunction*
D23*
X156296901Y-74955821D02*
X156458688Y-75022836D01*
X156630441Y-75057000D01*
X156805559Y-75057000D01*
X156977312Y-75022836D01*
X157139099Y-74955821D01*
X157177743Y-74930000D01*
X157919134Y-74930000D01*
X160804486Y-77815353D01*
X160828343Y-77844423D01*
X160857413Y-77868280D01*
X160944372Y-77939646D01*
X161015129Y-77977466D01*
X161076750Y-78010403D01*
X161220387Y-78053975D01*
X161332339Y-78065001D01*
X161332342Y-78065001D01*
X161369765Y-78068687D01*
X161407188Y-78065001D01*
X170690576Y-78065001D01*
X170727999Y-78068687D01*
X170765422Y-78065001D01*
X170765425Y-78065001D01*
X170877377Y-78053975D01*
X171021014Y-78010403D01*
X171153391Y-77939646D01*
X171269421Y-77844423D01*
X171293283Y-77815347D01*
X172552727Y-76555903D01*
X172598312Y-76546836D01*
X172760099Y-76479821D01*
X172905704Y-76382531D01*
X173029531Y-76258704D01*
X173126821Y-76113099D01*
X173150149Y-76056780D01*
X173274539Y-76181170D01*
X173218206Y-76286561D01*
X173181367Y-76408004D01*
X173168928Y-76534300D01*
X173168928Y-77135700D01*
X173181367Y-77261996D01*
X173188345Y-77285000D01*
X173181367Y-77308004D01*
X173168928Y-77434300D01*
X173168928Y-78035700D01*
X173181367Y-78161996D01*
X173218206Y-78283439D01*
X173278030Y-78395361D01*
X173355000Y-78489149D01*
X173355001Y-80456368D01*
X171490273Y-82321096D01*
X171444688Y-82330164D01*
X171282901Y-82397179D01*
X171137296Y-82494469D01*
X171013469Y-82618296D01*
X170916179Y-82763901D01*
X170849164Y-82925688D01*
X170815000Y-83097441D01*
X170815000Y-83272559D01*
X170849164Y-83444312D01*
X170916179Y-83606099D01*
X171013469Y-83751704D01*
X171137296Y-83875531D01*
X171282901Y-83972821D01*
X171444688Y-84039836D01*
X171616441Y-84074000D01*
X171791559Y-84074000D01*
X171963312Y-84039836D01*
X172125099Y-83972821D01*
X172270704Y-83875531D01*
X172394531Y-83751704D01*
X172491821Y-83606099D01*
X172558836Y-83444312D01*
X172567904Y-83398727D01*
X174244001Y-81722630D01*
X174244000Y-89749159D01*
X174129662Y-89634821D01*
X173963256Y-89523632D01*
X173778356Y-89447044D01*
X173582067Y-89408000D01*
X173381933Y-89408000D01*
X173185644Y-89447044D01*
X173000744Y-89523632D01*
X172942895Y-89562285D01*
X172893231Y-89501769D01*
X172794494Y-89420738D01*
X172681846Y-89360526D01*
X172559615Y-89323448D01*
X172432500Y-89310928D01*
X171559500Y-89310928D01*
X171432385Y-89323448D01*
X171310154Y-89360526D01*
X171197506Y-89420738D01*
X171196000Y-89421974D01*
X171194494Y-89420738D01*
X171081846Y-89360526D01*
X170959615Y-89323448D01*
X170832500Y-89310928D01*
X169959500Y-89310928D01*
X169832385Y-89323448D01*
X169784257Y-89338047D01*
X169790072Y-89279000D01*
X169790072Y-87249000D01*
X169777812Y-87124518D01*
X169741502Y-87004820D01*
X169682537Y-86894506D01*
X169603185Y-86797815D01*
X169506494Y-86718463D01*
X169396180Y-86659498D01*
X169276482Y-86623188D01*
X169152000Y-86610928D01*
X167652000Y-86610928D01*
X167527518Y-86623188D01*
X167407820Y-86659498D01*
X167297506Y-86718463D01*
X167200815Y-86797815D01*
X167121463Y-86894506D01*
X167062498Y-87004820D01*
X167026188Y-87124518D01*
X167014026Y-87248000D01*
X166801893Y-87248000D01*
X166751999Y-87243086D01*
X166702105Y-87248000D01*
X166702098Y-87248000D01*
X166552829Y-87262702D01*
X166361313Y-87320798D01*
X166184810Y-87415140D01*
X166030104Y-87542104D01*
X165998292Y-87580867D01*
X164982231Y-88596928D01*
X164888356Y-88558044D01*
X164710072Y-88522581D01*
X164710072Y-87249000D01*
X164697812Y-87124518D01*
X164661502Y-87004820D01*
X164602537Y-86894506D01*
X164523185Y-86797815D01*
X164426494Y-86718463D01*
X164316180Y-86659498D01*
X164196482Y-86623188D01*
X164072000Y-86610928D01*
X162572000Y-86610928D01*
X162447518Y-86623188D01*
X162327820Y-86659498D01*
X162217506Y-86718463D01*
X162120815Y-86797815D01*
X162041463Y-86894506D01*
X161982498Y-87004820D01*
X161946188Y-87124518D01*
X161933928Y-87249000D01*
X161933928Y-89279000D01*
X161946188Y-89403482D01*
X161982498Y-89523180D01*
X162024465Y-89601694D01*
X159594072Y-92032088D01*
X159594072Y-90345000D01*
X159581812Y-90220518D01*
X159545502Y-90100820D01*
X159486537Y-89990506D01*
X159407185Y-89893815D01*
X159321058Y-89823133D01*
X159346494Y-89809537D01*
X159443185Y-89730185D01*
X159522537Y-89633494D01*
X159581502Y-89523180D01*
X159617812Y-89403482D01*
X159630072Y-89279000D01*
X159630072Y-87249000D01*
X159617812Y-87124518D01*
X159581502Y-87004820D01*
X159522537Y-86894506D01*
X159443185Y-86797815D01*
X159346494Y-86718463D01*
X159236180Y-86659498D01*
X159116482Y-86623188D01*
X158992000Y-86610928D01*
X157492000Y-86610928D01*
X157367518Y-86623188D01*
X157247820Y-86659498D01*
X157137506Y-86718463D01*
X157040815Y-86797815D01*
X156961463Y-86894506D01*
X156902498Y-87004820D01*
X156866188Y-87124518D01*
X156853928Y-87249000D01*
X156853928Y-89279000D01*
X156866188Y-89403482D01*
X156902498Y-89523180D01*
X156961463Y-89633494D01*
X157021729Y-89706928D01*
X152956000Y-89706928D01*
X152831518Y-89719188D01*
X152711820Y-89755498D01*
X152601506Y-89814463D01*
X152590500Y-89823495D01*
X152579494Y-89814463D01*
X152469180Y-89755498D01*
X152349482Y-89719188D01*
X152225000Y-89706928D01*
X149510750Y-89710000D01*
X149352000Y-89868750D01*
X149352000Y-93218000D01*
X149372000Y-93218000D01*
X149372000Y-93472000D01*
X149352000Y-93472000D01*
X149352000Y-96821250D01*
X149510750Y-96980000D01*
X152225000Y-96983072D01*
X152349482Y-96970812D01*
X152469180Y-96934502D01*
X152579494Y-96875537D01*
X152590500Y-96866505D01*
X152601506Y-96875537D01*
X152711820Y-96934502D01*
X152831518Y-96970812D01*
X152956000Y-96983072D01*
X158956000Y-96983072D01*
X159080482Y-96970812D01*
X159200180Y-96934502D01*
X159297573Y-96882443D01*
X155164217Y-101015800D01*
X153213272Y-101015800D01*
X153213272Y-100031800D01*
X153201012Y-99907318D01*
X153164702Y-99787620D01*
X153105737Y-99677306D01*
X153026385Y-99580615D01*
X152929694Y-99501263D01*
X152819380Y-99442298D01*
X152699682Y-99405988D01*
X152575200Y-99393728D01*
X148575200Y-99393728D01*
X148450718Y-99405988D01*
X148331020Y-99442298D01*
X148220706Y-99501263D01*
X148124015Y-99580615D01*
X148044663Y-99677306D01*
X147985698Y-99787620D01*
X147949388Y-99907318D01*
X147937128Y-100031800D01*
X147937128Y-103099890D01*
X146605999Y-101768761D01*
X146605999Y-96982641D01*
X148939250Y-96980000D01*
X149098000Y-96821250D01*
X149098000Y-93472000D01*
X149078000Y-93472000D01*
X149078000Y-93218000D01*
X149098000Y-93218000D01*
X149098000Y-89868750D01*
X148939250Y-89710000D01*
X146761773Y-89707536D01*
X146822537Y-89633494D01*
X146881502Y-89523180D01*
X146917812Y-89403482D01*
X146930072Y-89279000D01*
X146930072Y-87249000D01*
X146917812Y-87124518D01*
X146881502Y-87004820D01*
X146822537Y-86894506D01*
X146800784Y-86868000D01*
X148673340Y-86868000D01*
X148717000Y-86872300D01*
X148760660Y-86868000D01*
X148760667Y-86868000D01*
X148891274Y-86855136D01*
X149058851Y-86804303D01*
X149213291Y-86721753D01*
X149348659Y-86610659D01*
X149376499Y-86576736D01*
X155806980Y-80146256D01*
X155840897Y-80118421D01*
X155951991Y-79983053D01*
X156034541Y-79828613D01*
X156085374Y-79661036D01*
X156098238Y-79530429D01*
X156098238Y-79530423D01*
X156102538Y-79486763D01*
X156098238Y-79443103D01*
X156098238Y-75047269D01*
X156109606Y-75030256D01*
X156174355Y-74873938D01*
X156296901Y-74955821D01*
G04 #@! TA.AperFunction,Conductor*
D26*
G36*
X156296901Y-74955821D02*
G01*
X156458688Y-75022836D01*
X156630441Y-75057000D01*
X156805559Y-75057000D01*
X156977312Y-75022836D01*
X157139099Y-74955821D01*
X157177743Y-74930000D01*
X157919134Y-74930000D01*
X160804486Y-77815353D01*
X160828343Y-77844423D01*
X160857413Y-77868280D01*
X160944372Y-77939646D01*
X161015129Y-77977466D01*
X161076750Y-78010403D01*
X161220387Y-78053975D01*
X161332339Y-78065001D01*
X161332342Y-78065001D01*
X161369765Y-78068687D01*
X161407188Y-78065001D01*
X170690576Y-78065001D01*
X170727999Y-78068687D01*
X170765422Y-78065001D01*
X170765425Y-78065001D01*
X170877377Y-78053975D01*
X171021014Y-78010403D01*
X171153391Y-77939646D01*
X171269421Y-77844423D01*
X171293283Y-77815347D01*
X172552727Y-76555903D01*
X172598312Y-76546836D01*
X172760099Y-76479821D01*
X172905704Y-76382531D01*
X173029531Y-76258704D01*
X173126821Y-76113099D01*
X173150149Y-76056780D01*
X173274539Y-76181170D01*
X173218206Y-76286561D01*
X173181367Y-76408004D01*
X173168928Y-76534300D01*
X173168928Y-77135700D01*
X173181367Y-77261996D01*
X173188345Y-77285000D01*
X173181367Y-77308004D01*
X173168928Y-77434300D01*
X173168928Y-78035700D01*
X173181367Y-78161996D01*
X173218206Y-78283439D01*
X173278030Y-78395361D01*
X173355000Y-78489149D01*
X173355001Y-80456368D01*
X171490273Y-82321096D01*
X171444688Y-82330164D01*
X171282901Y-82397179D01*
X171137296Y-82494469D01*
X171013469Y-82618296D01*
X170916179Y-82763901D01*
X170849164Y-82925688D01*
X170815000Y-83097441D01*
X170815000Y-83272559D01*
X170849164Y-83444312D01*
X170916179Y-83606099D01*
X171013469Y-83751704D01*
X171137296Y-83875531D01*
X171282901Y-83972821D01*
X171444688Y-84039836D01*
X171616441Y-84074000D01*
X171791559Y-84074000D01*
X171963312Y-84039836D01*
X172125099Y-83972821D01*
X172270704Y-83875531D01*
X172394531Y-83751704D01*
X172491821Y-83606099D01*
X172558836Y-83444312D01*
X172567904Y-83398727D01*
X174244001Y-81722630D01*
X174244000Y-89749159D01*
X174129662Y-89634821D01*
X173963256Y-89523632D01*
X173778356Y-89447044D01*
X173582067Y-89408000D01*
X173381933Y-89408000D01*
X173185644Y-89447044D01*
X173000744Y-89523632D01*
X172942895Y-89562285D01*
X172893231Y-89501769D01*
X172794494Y-89420738D01*
X172681846Y-89360526D01*
X172559615Y-89323448D01*
X172432500Y-89310928D01*
X171559500Y-89310928D01*
X171432385Y-89323448D01*
X171310154Y-89360526D01*
X171197506Y-89420738D01*
X171196000Y-89421974D01*
X171194494Y-89420738D01*
X171081846Y-89360526D01*
X170959615Y-89323448D01*
X170832500Y-89310928D01*
X169959500Y-89310928D01*
X169832385Y-89323448D01*
X169784257Y-89338047D01*
X169790072Y-89279000D01*
X169790072Y-87249000D01*
X169777812Y-87124518D01*
X169741502Y-87004820D01*
X169682537Y-86894506D01*
X169603185Y-86797815D01*
X169506494Y-86718463D01*
X169396180Y-86659498D01*
X169276482Y-86623188D01*
X169152000Y-86610928D01*
X167652000Y-86610928D01*
X167527518Y-86623188D01*
X167407820Y-86659498D01*
X167297506Y-86718463D01*
X167200815Y-86797815D01*
X167121463Y-86894506D01*
X167062498Y-87004820D01*
X167026188Y-87124518D01*
X167014026Y-87248000D01*
X166801893Y-87248000D01*
X166751999Y-87243086D01*
X166702105Y-87248000D01*
X166702098Y-87248000D01*
X166552829Y-87262702D01*
X166361313Y-87320798D01*
X166184810Y-87415140D01*
X166030104Y-87542104D01*
X165998292Y-87580867D01*
X164982231Y-88596928D01*
X164888356Y-88558044D01*
X164710072Y-88522581D01*
X164710072Y-87249000D01*
X164697812Y-87124518D01*
X164661502Y-87004820D01*
X164602537Y-86894506D01*
X164523185Y-86797815D01*
X164426494Y-86718463D01*
X164316180Y-86659498D01*
X164196482Y-86623188D01*
X164072000Y-86610928D01*
X162572000Y-86610928D01*
X162447518Y-86623188D01*
X162327820Y-86659498D01*
X162217506Y-86718463D01*
X162120815Y-86797815D01*
X162041463Y-86894506D01*
X161982498Y-87004820D01*
X161946188Y-87124518D01*
X161933928Y-87249000D01*
X161933928Y-89279000D01*
X161946188Y-89403482D01*
X161982498Y-89523180D01*
X162024465Y-89601694D01*
X159594072Y-92032088D01*
X159594072Y-90345000D01*
X159581812Y-90220518D01*
X159545502Y-90100820D01*
X159486537Y-89990506D01*
X159407185Y-89893815D01*
X159321058Y-89823133D01*
X159346494Y-89809537D01*
X159443185Y-89730185D01*
X159522537Y-89633494D01*
X159581502Y-89523180D01*
X159617812Y-89403482D01*
X159630072Y-89279000D01*
X159630072Y-87249000D01*
X159617812Y-87124518D01*
X159581502Y-87004820D01*
X159522537Y-86894506D01*
X159443185Y-86797815D01*
X159346494Y-86718463D01*
X159236180Y-86659498D01*
X159116482Y-86623188D01*
X158992000Y-86610928D01*
X157492000Y-86610928D01*
X157367518Y-86623188D01*
X157247820Y-86659498D01*
X157137506Y-86718463D01*
X157040815Y-86797815D01*
X156961463Y-86894506D01*
X156902498Y-87004820D01*
X156866188Y-87124518D01*
X156853928Y-87249000D01*
X156853928Y-89279000D01*
X156866188Y-89403482D01*
X156902498Y-89523180D01*
X156961463Y-89633494D01*
X157021729Y-89706928D01*
X152956000Y-89706928D01*
X152831518Y-89719188D01*
X152711820Y-89755498D01*
X152601506Y-89814463D01*
X152590500Y-89823495D01*
X152579494Y-89814463D01*
X152469180Y-89755498D01*
X152349482Y-89719188D01*
X152225000Y-89706928D01*
X149510750Y-89710000D01*
X149352000Y-89868750D01*
X149352000Y-93218000D01*
X149372000Y-93218000D01*
X149372000Y-93472000D01*
X149352000Y-93472000D01*
X149352000Y-96821250D01*
X149510750Y-96980000D01*
X152225000Y-96983072D01*
X152349482Y-96970812D01*
X152469180Y-96934502D01*
X152579494Y-96875537D01*
X152590500Y-96866505D01*
X152601506Y-96875537D01*
X152711820Y-96934502D01*
X152831518Y-96970812D01*
X152956000Y-96983072D01*
X158956000Y-96983072D01*
X159080482Y-96970812D01*
X159200180Y-96934502D01*
X159297573Y-96882443D01*
X155164217Y-101015800D01*
X153213272Y-101015800D01*
X153213272Y-100031800D01*
X153201012Y-99907318D01*
X153164702Y-99787620D01*
X153105737Y-99677306D01*
X153026385Y-99580615D01*
X152929694Y-99501263D01*
X152819380Y-99442298D01*
X152699682Y-99405988D01*
X152575200Y-99393728D01*
X148575200Y-99393728D01*
X148450718Y-99405988D01*
X148331020Y-99442298D01*
X148220706Y-99501263D01*
X148124015Y-99580615D01*
X148044663Y-99677306D01*
X147985698Y-99787620D01*
X147949388Y-99907318D01*
X147937128Y-100031800D01*
X147937128Y-103099890D01*
X146605999Y-101768761D01*
X146605999Y-96982641D01*
X148939250Y-96980000D01*
X149098000Y-96821250D01*
X149098000Y-93472000D01*
X149078000Y-93472000D01*
X149078000Y-93218000D01*
X149098000Y-93218000D01*
X149098000Y-89868750D01*
X148939250Y-89710000D01*
X146761773Y-89707536D01*
X146822537Y-89633494D01*
X146881502Y-89523180D01*
X146917812Y-89403482D01*
X146930072Y-89279000D01*
X146930072Y-87249000D01*
X146917812Y-87124518D01*
X146881502Y-87004820D01*
X146822537Y-86894506D01*
X146800784Y-86868000D01*
X148673340Y-86868000D01*
X148717000Y-86872300D01*
X148760660Y-86868000D01*
X148760667Y-86868000D01*
X148891274Y-86855136D01*
X149058851Y-86804303D01*
X149213291Y-86721753D01*
X149348659Y-86610659D01*
X149376499Y-86576736D01*
X155806980Y-80146256D01*
X155840897Y-80118421D01*
X155951991Y-79983053D01*
X156034541Y-79828613D01*
X156085374Y-79661036D01*
X156098238Y-79530429D01*
X156098238Y-79530423D01*
X156102538Y-79486763D01*
X156098238Y-79443103D01*
X156098238Y-75047269D01*
X156109606Y-75030256D01*
X156174355Y-74873938D01*
X156296901Y-74955821D01*
G37*
G04 #@! TD.AperFunction*
D23*
X144340815Y-89730185D02*
X144437506Y-89809537D01*
X144547820Y-89868502D01*
X144667518Y-89904812D01*
X144792000Y-89917072D01*
X145754729Y-89917072D01*
X145694463Y-89990506D01*
X145635498Y-90100820D01*
X145599188Y-90220518D01*
X145586928Y-90345000D01*
X145588750Y-91954910D01*
X145392840Y-91759000D01*
X145399000Y-91728033D01*
X145399000Y-91405967D01*
X145336168Y-91090088D01*
X145212918Y-90792537D01*
X145033987Y-90524748D01*
X144806252Y-90297013D01*
X144538463Y-90118082D01*
X144240912Y-89994832D01*
X143925033Y-89932000D01*
X143602967Y-89932000D01*
X143287088Y-89994832D01*
X142989537Y-90118082D01*
X142721748Y-90297013D01*
X142494013Y-90524748D01*
X142421280Y-90633600D01*
X142359413Y-90611192D01*
X141403605Y-91567000D01*
X142359413Y-92522808D01*
X142421280Y-92500400D01*
X142494013Y-92609252D01*
X142721748Y-92836987D01*
X142989537Y-93015918D01*
X143287088Y-93139168D01*
X143602967Y-93202000D01*
X143925033Y-93202000D01*
X143956000Y-93195840D01*
X144573999Y-93813840D01*
X144573999Y-95008928D01*
X142764000Y-95008928D01*
X142639518Y-95021188D01*
X142519820Y-95057498D01*
X142409506Y-95116463D01*
X142312815Y-95195815D01*
X142233463Y-95292506D01*
X142208809Y-95338630D01*
X141998463Y-95198082D01*
X141700912Y-95074832D01*
X141385033Y-95012000D01*
X141062967Y-95012000D01*
X140882194Y-95047958D01*
X140092999Y-94258764D01*
X140092999Y-92758557D01*
X140152525Y-92818083D01*
X140268193Y-92702415D01*
X140363956Y-92966814D01*
X140653571Y-93107704D01*
X140965108Y-93189384D01*
X141286595Y-93208718D01*
X141605675Y-93164961D01*
X141910088Y-93059795D01*
X142084044Y-92966814D01*
X142179808Y-92702413D01*
X141224000Y-91746605D01*
X141209858Y-91760748D01*
X141030253Y-91581143D01*
X141044395Y-91567000D01*
X141030253Y-91552858D01*
X141209858Y-91373253D01*
X141224000Y-91387395D01*
X142179808Y-90431587D01*
X142084044Y-90167186D01*
X141794429Y-90026296D01*
X141482892Y-89944616D01*
X141161405Y-89925282D01*
X140842325Y-89969039D01*
X140537912Y-90074205D01*
X140363956Y-90167186D01*
X140268193Y-90431585D01*
X140152525Y-90315917D01*
X140092999Y-90375443D01*
X140092999Y-89917072D01*
X141212000Y-89917072D01*
X141336482Y-89904812D01*
X141456180Y-89868502D01*
X141566494Y-89809537D01*
X141663185Y-89730185D01*
X141732000Y-89646333D01*
X141800815Y-89730185D01*
X141897506Y-89809537D01*
X142007820Y-89868502D01*
X142127518Y-89904812D01*
X142252000Y-89917072D01*
X143752000Y-89917072D01*
X143876482Y-89904812D01*
X143996180Y-89868502D01*
X144106494Y-89809537D01*
X144203185Y-89730185D01*
X144272000Y-89646333D01*
X144340815Y-89730185D01*
G04 #@! TA.AperFunction,Conductor*
D26*
G36*
X144340815Y-89730185D02*
G01*
X144437506Y-89809537D01*
X144547820Y-89868502D01*
X144667518Y-89904812D01*
X144792000Y-89917072D01*
X145754729Y-89917072D01*
X145694463Y-89990506D01*
X145635498Y-90100820D01*
X145599188Y-90220518D01*
X145586928Y-90345000D01*
X145588750Y-91954910D01*
X145392840Y-91759000D01*
X145399000Y-91728033D01*
X145399000Y-91405967D01*
X145336168Y-91090088D01*
X145212918Y-90792537D01*
X145033987Y-90524748D01*
X144806252Y-90297013D01*
X144538463Y-90118082D01*
X144240912Y-89994832D01*
X143925033Y-89932000D01*
X143602967Y-89932000D01*
X143287088Y-89994832D01*
X142989537Y-90118082D01*
X142721748Y-90297013D01*
X142494013Y-90524748D01*
X142421280Y-90633600D01*
X142359413Y-90611192D01*
X141403605Y-91567000D01*
X142359413Y-92522808D01*
X142421280Y-92500400D01*
X142494013Y-92609252D01*
X142721748Y-92836987D01*
X142989537Y-93015918D01*
X143287088Y-93139168D01*
X143602967Y-93202000D01*
X143925033Y-93202000D01*
X143956000Y-93195840D01*
X144573999Y-93813840D01*
X144573999Y-95008928D01*
X142764000Y-95008928D01*
X142639518Y-95021188D01*
X142519820Y-95057498D01*
X142409506Y-95116463D01*
X142312815Y-95195815D01*
X142233463Y-95292506D01*
X142208809Y-95338630D01*
X141998463Y-95198082D01*
X141700912Y-95074832D01*
X141385033Y-95012000D01*
X141062967Y-95012000D01*
X140882194Y-95047958D01*
X140092999Y-94258764D01*
X140092999Y-92758557D01*
X140152525Y-92818083D01*
X140268193Y-92702415D01*
X140363956Y-92966814D01*
X140653571Y-93107704D01*
X140965108Y-93189384D01*
X141286595Y-93208718D01*
X141605675Y-93164961D01*
X141910088Y-93059795D01*
X142084044Y-92966814D01*
X142179808Y-92702413D01*
X141224000Y-91746605D01*
X141209858Y-91760748D01*
X141030253Y-91581143D01*
X141044395Y-91567000D01*
X141030253Y-91552858D01*
X141209858Y-91373253D01*
X141224000Y-91387395D01*
X142179808Y-90431587D01*
X142084044Y-90167186D01*
X141794429Y-90026296D01*
X141482892Y-89944616D01*
X141161405Y-89925282D01*
X140842325Y-89969039D01*
X140537912Y-90074205D01*
X140363956Y-90167186D01*
X140268193Y-90431585D01*
X140152525Y-90315917D01*
X140092999Y-90375443D01*
X140092999Y-89917072D01*
X141212000Y-89917072D01*
X141336482Y-89904812D01*
X141456180Y-89868502D01*
X141566494Y-89809537D01*
X141663185Y-89730185D01*
X141732000Y-89646333D01*
X141800815Y-89730185D01*
X141897506Y-89809537D01*
X142007820Y-89868502D01*
X142127518Y-89904812D01*
X142252000Y-89917072D01*
X143752000Y-89917072D01*
X143876482Y-89904812D01*
X143996180Y-89868502D01*
X144106494Y-89809537D01*
X144203185Y-89730185D01*
X144272000Y-89646333D01*
X144340815Y-89730185D01*
G37*
G04 #@! TD.AperFunction*
D23*
X161919000Y-93472000D02*
X161939000Y-93472000D01*
X161939000Y-93726000D01*
X161919000Y-93726000D01*
X161919000Y-93746000D01*
X161665000Y-93746000D01*
X161665000Y-93726000D01*
X161645000Y-93726000D01*
X161645000Y-93472000D01*
X161665000Y-93472000D01*
X161665000Y-93452000D01*
X161919000Y-93452000D01*
X161919000Y-93472000D01*
G04 #@! TA.AperFunction,Conductor*
D26*
G36*
X161919000Y-93472000D02*
G01*
X161939000Y-93472000D01*
X161939000Y-93726000D01*
X161919000Y-93726000D01*
X161919000Y-93746000D01*
X161665000Y-93746000D01*
X161665000Y-93726000D01*
X161645000Y-93726000D01*
X161645000Y-93472000D01*
X161665000Y-93472000D01*
X161665000Y-93452000D01*
X161919000Y-93452000D01*
X161919000Y-93472000D01*
G37*
G04 #@! TD.AperFunction*
D23*
X148775000Y-62504576D02*
X148771314Y-62542000D01*
X148775000Y-62579423D01*
X148775000Y-62579425D01*
X148786026Y-62691377D01*
X148829598Y-62835014D01*
X148829599Y-62835015D01*
X148900355Y-62967392D01*
X148939983Y-63015678D01*
X148995578Y-63083422D01*
X149024654Y-63107284D01*
X151641720Y-65724351D01*
X151665578Y-65753422D01*
X151781608Y-65848645D01*
X151913985Y-65919402D01*
X152057622Y-65962974D01*
X152169574Y-65974000D01*
X152169576Y-65974000D01*
X152206999Y-65977686D01*
X152244422Y-65974000D01*
X154559001Y-65974000D01*
X154559000Y-69390257D01*
X154533179Y-69428901D01*
X154466164Y-69590688D01*
X154432000Y-69762441D01*
X154432000Y-69937559D01*
X154466164Y-70109312D01*
X154533179Y-70271099D01*
X154630469Y-70416704D01*
X154754296Y-70540531D01*
X154899901Y-70637821D01*
X155061688Y-70704836D01*
X155233441Y-70739000D01*
X155408559Y-70739000D01*
X155580312Y-70704836D01*
X155742099Y-70637821D01*
X155887704Y-70540531D01*
X156011531Y-70416704D01*
X156108821Y-70271099D01*
X156175836Y-70109312D01*
X156210000Y-69937559D01*
X156210000Y-69762441D01*
X156175836Y-69590688D01*
X156108821Y-69428901D01*
X156083000Y-69390257D01*
X156083000Y-65900235D01*
X156204531Y-65778704D01*
X156301821Y-65633099D01*
X156346190Y-65525983D01*
X156376441Y-65532000D01*
X160611340Y-65532000D01*
X160655000Y-65536300D01*
X160698660Y-65532000D01*
X160698667Y-65532000D01*
X160829274Y-65519136D01*
X160978070Y-65474000D01*
X162641765Y-65474000D01*
X163957000Y-66789236D01*
X163957001Y-70875729D01*
X163945632Y-70892744D01*
X163869044Y-71077644D01*
X163830000Y-71273933D01*
X163830000Y-71474067D01*
X163869044Y-71670356D01*
X163945632Y-71855256D01*
X164056821Y-72021662D01*
X164198338Y-72163179D01*
X164364744Y-72274368D01*
X164549644Y-72350956D01*
X164745933Y-72390000D01*
X164946067Y-72390000D01*
X165142356Y-72350956D01*
X165327256Y-72274368D01*
X165344269Y-72263000D01*
X174129765Y-72263000D01*
X175006001Y-73139236D01*
X175006001Y-76268240D01*
X174955970Y-76174639D01*
X174879000Y-76080851D01*
X174879000Y-75983423D01*
X174882686Y-75946000D01*
X174876203Y-75880179D01*
X174867974Y-75796622D01*
X174824402Y-75652985D01*
X174753646Y-75520609D01*
X174753645Y-75520607D01*
X174682279Y-75433648D01*
X174658422Y-75404578D01*
X174629353Y-75380722D01*
X173793284Y-74544653D01*
X173769422Y-74515578D01*
X173653392Y-74420355D01*
X173521015Y-74349598D01*
X173377378Y-74306026D01*
X173265426Y-74295000D01*
X173265423Y-74295000D01*
X173228000Y-74291314D01*
X173190577Y-74295000D01*
X172036743Y-74295000D01*
X171998099Y-74269179D01*
X171836312Y-74202164D01*
X171664559Y-74168000D01*
X171489441Y-74168000D01*
X171317688Y-74202164D01*
X171155901Y-74269179D01*
X171117257Y-74295000D01*
X161486969Y-74295000D01*
X161418646Y-74167175D01*
X161418645Y-74167173D01*
X161347279Y-74080214D01*
X161323422Y-74051144D01*
X161294353Y-74027288D01*
X159525717Y-72258653D01*
X159501855Y-72229577D01*
X159385825Y-72134354D01*
X159253448Y-72063597D01*
X159109811Y-72020025D01*
X158997859Y-72008999D01*
X158997856Y-72008999D01*
X158960433Y-72005313D01*
X158923010Y-72008999D01*
X151929423Y-72008999D01*
X151892000Y-72005313D01*
X151854577Y-72008999D01*
X151854575Y-72008999D01*
X151742623Y-72020025D01*
X151598986Y-72063597D01*
X151466609Y-72134354D01*
X151350579Y-72229577D01*
X151326722Y-72258647D01*
X146623370Y-76962000D01*
X146584933Y-76962000D01*
X146388644Y-77001044D01*
X146203744Y-77077632D01*
X146037338Y-77188821D01*
X145895821Y-77330338D01*
X145784632Y-77496744D01*
X145708044Y-77681644D01*
X145669000Y-77877933D01*
X145669000Y-78078067D01*
X145708044Y-78274356D01*
X145784632Y-78459256D01*
X145895821Y-78625662D01*
X146037338Y-78767179D01*
X146203744Y-78878368D01*
X146388644Y-78954956D01*
X146584933Y-78994000D01*
X146785067Y-78994000D01*
X146981356Y-78954956D01*
X147166256Y-78878368D01*
X147332662Y-78767179D01*
X147474179Y-78625662D01*
X147585368Y-78459256D01*
X147661956Y-78274356D01*
X147701000Y-78078067D01*
X147701000Y-78039630D01*
X152207632Y-73532999D01*
X156095766Y-73532999D01*
X156027469Y-73601296D01*
X155930179Y-73746901D01*
X155904932Y-73807853D01*
X155856900Y-73759821D01*
X155690494Y-73648632D01*
X155505594Y-73572044D01*
X155309305Y-73533000D01*
X155109171Y-73533000D01*
X154912882Y-73572044D01*
X154727982Y-73648632D01*
X154561576Y-73759821D01*
X154420059Y-73901338D01*
X154308870Y-74067744D01*
X154232282Y-74252644D01*
X154193238Y-74448933D01*
X154193238Y-74649067D01*
X154232282Y-74845356D01*
X154308870Y-75030256D01*
X154320238Y-75047270D01*
X154320238Y-76454000D01*
X154217441Y-76454000D01*
X154045688Y-76488164D01*
X153883901Y-76555179D01*
X153738296Y-76652469D01*
X153614469Y-76776296D01*
X153517179Y-76921901D01*
X153450164Y-77083688D01*
X153416000Y-77255441D01*
X153416000Y-77430559D01*
X153450164Y-77602312D01*
X153517179Y-77764099D01*
X153543000Y-77802744D01*
X153543001Y-78170368D01*
X149860000Y-81853370D01*
X149860000Y-81608474D01*
X149864300Y-81564814D01*
X149860000Y-81521154D01*
X149860000Y-81521148D01*
X149847136Y-81390541D01*
X149847136Y-81390539D01*
X149816296Y-81288873D01*
X149796303Y-81222964D01*
X149713753Y-81068524D01*
X149602659Y-80933156D01*
X149568736Y-80905316D01*
X148202684Y-79539264D01*
X148174844Y-79505341D01*
X148039476Y-79394247D01*
X147885036Y-79311697D01*
X147717459Y-79260864D01*
X147586852Y-79248000D01*
X147586845Y-79248000D01*
X147543185Y-79243700D01*
X147499525Y-79248000D01*
X143891000Y-79248000D01*
X143891000Y-62103000D01*
X148427577Y-62103000D01*
X148465000Y-62106686D01*
X148502423Y-62103000D01*
X148502426Y-62103000D01*
X148614378Y-62091974D01*
X148758015Y-62048402D01*
X148775000Y-62039323D01*
X148775000Y-62504576D01*
G04 #@! TA.AperFunction,Conductor*
D26*
G36*
X148775000Y-62504576D02*
G01*
X148771314Y-62542000D01*
X148775000Y-62579423D01*
X148775000Y-62579425D01*
X148786026Y-62691377D01*
X148829598Y-62835014D01*
X148829599Y-62835015D01*
X148900355Y-62967392D01*
X148939983Y-63015678D01*
X148995578Y-63083422D01*
X149024654Y-63107284D01*
X151641720Y-65724351D01*
X151665578Y-65753422D01*
X151781608Y-65848645D01*
X151913985Y-65919402D01*
X152057622Y-65962974D01*
X152169574Y-65974000D01*
X152169576Y-65974000D01*
X152206999Y-65977686D01*
X152244422Y-65974000D01*
X154559001Y-65974000D01*
X154559000Y-69390257D01*
X154533179Y-69428901D01*
X154466164Y-69590688D01*
X154432000Y-69762441D01*
X154432000Y-69937559D01*
X154466164Y-70109312D01*
X154533179Y-70271099D01*
X154630469Y-70416704D01*
X154754296Y-70540531D01*
X154899901Y-70637821D01*
X155061688Y-70704836D01*
X155233441Y-70739000D01*
X155408559Y-70739000D01*
X155580312Y-70704836D01*
X155742099Y-70637821D01*
X155887704Y-70540531D01*
X156011531Y-70416704D01*
X156108821Y-70271099D01*
X156175836Y-70109312D01*
X156210000Y-69937559D01*
X156210000Y-69762441D01*
X156175836Y-69590688D01*
X156108821Y-69428901D01*
X156083000Y-69390257D01*
X156083000Y-65900235D01*
X156204531Y-65778704D01*
X156301821Y-65633099D01*
X156346190Y-65525983D01*
X156376441Y-65532000D01*
X160611340Y-65532000D01*
X160655000Y-65536300D01*
X160698660Y-65532000D01*
X160698667Y-65532000D01*
X160829274Y-65519136D01*
X160978070Y-65474000D01*
X162641765Y-65474000D01*
X163957000Y-66789236D01*
X163957001Y-70875729D01*
X163945632Y-70892744D01*
X163869044Y-71077644D01*
X163830000Y-71273933D01*
X163830000Y-71474067D01*
X163869044Y-71670356D01*
X163945632Y-71855256D01*
X164056821Y-72021662D01*
X164198338Y-72163179D01*
X164364744Y-72274368D01*
X164549644Y-72350956D01*
X164745933Y-72390000D01*
X164946067Y-72390000D01*
X165142356Y-72350956D01*
X165327256Y-72274368D01*
X165344269Y-72263000D01*
X174129765Y-72263000D01*
X175006001Y-73139236D01*
X175006001Y-76268240D01*
X174955970Y-76174639D01*
X174879000Y-76080851D01*
X174879000Y-75983423D01*
X174882686Y-75946000D01*
X174876203Y-75880179D01*
X174867974Y-75796622D01*
X174824402Y-75652985D01*
X174753646Y-75520609D01*
X174753645Y-75520607D01*
X174682279Y-75433648D01*
X174658422Y-75404578D01*
X174629353Y-75380722D01*
X173793284Y-74544653D01*
X173769422Y-74515578D01*
X173653392Y-74420355D01*
X173521015Y-74349598D01*
X173377378Y-74306026D01*
X173265426Y-74295000D01*
X173265423Y-74295000D01*
X173228000Y-74291314D01*
X173190577Y-74295000D01*
X172036743Y-74295000D01*
X171998099Y-74269179D01*
X171836312Y-74202164D01*
X171664559Y-74168000D01*
X171489441Y-74168000D01*
X171317688Y-74202164D01*
X171155901Y-74269179D01*
X171117257Y-74295000D01*
X161486969Y-74295000D01*
X161418646Y-74167175D01*
X161418645Y-74167173D01*
X161347279Y-74080214D01*
X161323422Y-74051144D01*
X161294353Y-74027288D01*
X159525717Y-72258653D01*
X159501855Y-72229577D01*
X159385825Y-72134354D01*
X159253448Y-72063597D01*
X159109811Y-72020025D01*
X158997859Y-72008999D01*
X158997856Y-72008999D01*
X158960433Y-72005313D01*
X158923010Y-72008999D01*
X151929423Y-72008999D01*
X151892000Y-72005313D01*
X151854577Y-72008999D01*
X151854575Y-72008999D01*
X151742623Y-72020025D01*
X151598986Y-72063597D01*
X151466609Y-72134354D01*
X151350579Y-72229577D01*
X151326722Y-72258647D01*
X146623370Y-76962000D01*
X146584933Y-76962000D01*
X146388644Y-77001044D01*
X146203744Y-77077632D01*
X146037338Y-77188821D01*
X145895821Y-77330338D01*
X145784632Y-77496744D01*
X145708044Y-77681644D01*
X145669000Y-77877933D01*
X145669000Y-78078067D01*
X145708044Y-78274356D01*
X145784632Y-78459256D01*
X145895821Y-78625662D01*
X146037338Y-78767179D01*
X146203744Y-78878368D01*
X146388644Y-78954956D01*
X146584933Y-78994000D01*
X146785067Y-78994000D01*
X146981356Y-78954956D01*
X147166256Y-78878368D01*
X147332662Y-78767179D01*
X147474179Y-78625662D01*
X147585368Y-78459256D01*
X147661956Y-78274356D01*
X147701000Y-78078067D01*
X147701000Y-78039630D01*
X152207632Y-73532999D01*
X156095766Y-73532999D01*
X156027469Y-73601296D01*
X155930179Y-73746901D01*
X155904932Y-73807853D01*
X155856900Y-73759821D01*
X155690494Y-73648632D01*
X155505594Y-73572044D01*
X155309305Y-73533000D01*
X155109171Y-73533000D01*
X154912882Y-73572044D01*
X154727982Y-73648632D01*
X154561576Y-73759821D01*
X154420059Y-73901338D01*
X154308870Y-74067744D01*
X154232282Y-74252644D01*
X154193238Y-74448933D01*
X154193238Y-74649067D01*
X154232282Y-74845356D01*
X154308870Y-75030256D01*
X154320238Y-75047270D01*
X154320238Y-76454000D01*
X154217441Y-76454000D01*
X154045688Y-76488164D01*
X153883901Y-76555179D01*
X153738296Y-76652469D01*
X153614469Y-76776296D01*
X153517179Y-76921901D01*
X153450164Y-77083688D01*
X153416000Y-77255441D01*
X153416000Y-77430559D01*
X153450164Y-77602312D01*
X153517179Y-77764099D01*
X153543000Y-77802744D01*
X153543001Y-78170368D01*
X149860000Y-81853370D01*
X149860000Y-81608474D01*
X149864300Y-81564814D01*
X149860000Y-81521154D01*
X149860000Y-81521148D01*
X149847136Y-81390541D01*
X149847136Y-81390539D01*
X149816296Y-81288873D01*
X149796303Y-81222964D01*
X149713753Y-81068524D01*
X149602659Y-80933156D01*
X149568736Y-80905316D01*
X148202684Y-79539264D01*
X148174844Y-79505341D01*
X148039476Y-79394247D01*
X147885036Y-79311697D01*
X147717459Y-79260864D01*
X147586852Y-79248000D01*
X147586845Y-79248000D01*
X147543185Y-79243700D01*
X147499525Y-79248000D01*
X143891000Y-79248000D01*
X143891000Y-62103000D01*
X148427577Y-62103000D01*
X148465000Y-62106686D01*
X148502423Y-62103000D01*
X148502426Y-62103000D01*
X148614378Y-62091974D01*
X148758015Y-62048402D01*
X148775000Y-62039323D01*
X148775000Y-62504576D01*
G37*
G04 #@! TD.AperFunction*
M02*
