G04 #@! TF.GenerationSoftware,KiCad,Pcbnew,(5.1.5)-3*
G04 #@! TF.CreationDate,2020-05-07T10:05:27-07:00*
G04 #@! TF.ProjectId,Plug_Pass_AC_shield,506c7567-5f50-4617-9373-5f41435f7368,rev?*
G04 #@! TF.SameCoordinates,Original*
G04 #@! TF.FileFunction,Legend,Bot*
G04 #@! TF.FilePolarity,Positive*
%FSLAX46Y46*%
G04 Gerber Fmt 4.6, Leading zero omitted, Abs format (unit mm)*
G04 Created by KiCad (PCBNEW (5.1.5)-3) date 2020-05-07 10:05:27*
%MOMM*%
%LPD*%
G04 APERTURE LIST*
%ADD10C,0.150000*%
%ADD11C,0.250000*%
%ADD12C,0.120000*%
G04 APERTURE END LIST*
D10*
X202082588Y-137537180D02*
X202082588Y-136537180D01*
X201701636Y-136537180D01*
X201606398Y-136584800D01*
X201558779Y-136632419D01*
X201511160Y-136727657D01*
X201511160Y-136870514D01*
X201558779Y-136965752D01*
X201606398Y-137013371D01*
X201701636Y-137060990D01*
X202082588Y-137060990D01*
X200939731Y-137537180D02*
X201034969Y-137489561D01*
X201082588Y-137394323D01*
X201082588Y-136537180D01*
X200130207Y-136870514D02*
X200130207Y-137537180D01*
X200558779Y-136870514D02*
X200558779Y-137394323D01*
X200511160Y-137489561D01*
X200415921Y-137537180D01*
X200273064Y-137537180D01*
X200177826Y-137489561D01*
X200130207Y-137441942D01*
X199225445Y-136870514D02*
X199225445Y-137680038D01*
X199273064Y-137775276D01*
X199320683Y-137822895D01*
X199415921Y-137870514D01*
X199558779Y-137870514D01*
X199654017Y-137822895D01*
X199225445Y-137489561D02*
X199320683Y-137537180D01*
X199511160Y-137537180D01*
X199606398Y-137489561D01*
X199654017Y-137441942D01*
X199701636Y-137346704D01*
X199701636Y-137060990D01*
X199654017Y-136965752D01*
X199606398Y-136918133D01*
X199511160Y-136870514D01*
X199320683Y-136870514D01*
X199225445Y-136918133D01*
X197987350Y-137537180D02*
X197987350Y-136537180D01*
X197606398Y-136537180D01*
X197511160Y-136584800D01*
X197463540Y-136632419D01*
X197415921Y-136727657D01*
X197415921Y-136870514D01*
X197463540Y-136965752D01*
X197511160Y-137013371D01*
X197606398Y-137060990D01*
X197987350Y-137060990D01*
X196558779Y-137537180D02*
X196558779Y-137013371D01*
X196606398Y-136918133D01*
X196701636Y-136870514D01*
X196892112Y-136870514D01*
X196987350Y-136918133D01*
X196558779Y-137489561D02*
X196654017Y-137537180D01*
X196892112Y-137537180D01*
X196987350Y-137489561D01*
X197034969Y-137394323D01*
X197034969Y-137299085D01*
X196987350Y-137203847D01*
X196892112Y-137156228D01*
X196654017Y-137156228D01*
X196558779Y-137108609D01*
X196130207Y-137489561D02*
X196034969Y-137537180D01*
X195844493Y-137537180D01*
X195749255Y-137489561D01*
X195701636Y-137394323D01*
X195701636Y-137346704D01*
X195749255Y-137251466D01*
X195844493Y-137203847D01*
X195987350Y-137203847D01*
X196082588Y-137156228D01*
X196130207Y-137060990D01*
X196130207Y-137013371D01*
X196082588Y-136918133D01*
X195987350Y-136870514D01*
X195844493Y-136870514D01*
X195749255Y-136918133D01*
X195320683Y-137489561D02*
X195225445Y-137537180D01*
X195034969Y-137537180D01*
X194939731Y-137489561D01*
X194892112Y-137394323D01*
X194892112Y-137346704D01*
X194939731Y-137251466D01*
X195034969Y-137203847D01*
X195177826Y-137203847D01*
X195273064Y-137156228D01*
X195320683Y-137060990D01*
X195320683Y-137013371D01*
X195273064Y-136918133D01*
X195177826Y-136870514D01*
X195034969Y-136870514D01*
X194939731Y-136918133D01*
X202606398Y-138520514D02*
X202368302Y-139187180D01*
X202130207Y-138520514D01*
X201368302Y-139139561D02*
X201463540Y-139187180D01*
X201654017Y-139187180D01*
X201749255Y-139139561D01*
X201796874Y-139044323D01*
X201796874Y-138663371D01*
X201749255Y-138568133D01*
X201654017Y-138520514D01*
X201463540Y-138520514D01*
X201368302Y-138568133D01*
X201320683Y-138663371D01*
X201320683Y-138758609D01*
X201796874Y-138853847D01*
X200892112Y-139187180D02*
X200892112Y-138520514D01*
X200892112Y-138710990D02*
X200844493Y-138615752D01*
X200796874Y-138568133D01*
X200701636Y-138520514D01*
X200606398Y-138520514D01*
X200320683Y-139139561D02*
X200225445Y-139187180D01*
X200034969Y-139187180D01*
X199939731Y-139139561D01*
X199892112Y-139044323D01*
X199892112Y-138996704D01*
X199939731Y-138901466D01*
X200034969Y-138853847D01*
X200177826Y-138853847D01*
X200273064Y-138806228D01*
X200320683Y-138710990D01*
X200320683Y-138663371D01*
X200273064Y-138568133D01*
X200177826Y-138520514D01*
X200034969Y-138520514D01*
X199939731Y-138568133D01*
X199463540Y-139187180D02*
X199463540Y-138520514D01*
X199463540Y-138187180D02*
X199511160Y-138234800D01*
X199463540Y-138282419D01*
X199415921Y-138234800D01*
X199463540Y-138187180D01*
X199463540Y-138282419D01*
X198844493Y-139187180D02*
X198939731Y-139139561D01*
X198987350Y-139091942D01*
X199034969Y-138996704D01*
X199034969Y-138710990D01*
X198987350Y-138615752D01*
X198939731Y-138568133D01*
X198844493Y-138520514D01*
X198701636Y-138520514D01*
X198606398Y-138568133D01*
X198558779Y-138615752D01*
X198511160Y-138710990D01*
X198511160Y-138996704D01*
X198558779Y-139091942D01*
X198606398Y-139139561D01*
X198701636Y-139187180D01*
X198844493Y-139187180D01*
X198082588Y-138520514D02*
X198082588Y-139187180D01*
X198082588Y-138615752D02*
X198034969Y-138568133D01*
X197939731Y-138520514D01*
X197796874Y-138520514D01*
X197701636Y-138568133D01*
X197654017Y-138663371D01*
X197654017Y-139187180D01*
X195892112Y-139187180D02*
X196463540Y-139187180D01*
X196177826Y-139187180D02*
X196177826Y-138187180D01*
X196273064Y-138330038D01*
X196368302Y-138425276D01*
X196463540Y-138472895D01*
X195463540Y-139091942D02*
X195415921Y-139139561D01*
X195463540Y-139187180D01*
X195511160Y-139139561D01*
X195463540Y-139091942D01*
X195463540Y-139187180D01*
X194463540Y-139187180D02*
X195034969Y-139187180D01*
X194749255Y-139187180D02*
X194749255Y-138187180D01*
X194844493Y-138330038D01*
X194939731Y-138425276D01*
X195034969Y-138472895D01*
X201939731Y-140551466D02*
X201463540Y-140551466D01*
X202034969Y-140837180D02*
X201701636Y-139837180D01*
X201368302Y-140837180D01*
X200463540Y-140741942D02*
X200511160Y-140789561D01*
X200654017Y-140837180D01*
X200749255Y-140837180D01*
X200892112Y-140789561D01*
X200987350Y-140694323D01*
X201034969Y-140599085D01*
X201082588Y-140408609D01*
X201082588Y-140265752D01*
X201034969Y-140075276D01*
X200987350Y-139980038D01*
X200892112Y-139884800D01*
X200749255Y-139837180D01*
X200654017Y-139837180D01*
X200511160Y-139884800D01*
X200463540Y-139932419D01*
X199320683Y-140789561D02*
X199177826Y-140837180D01*
X198939731Y-140837180D01*
X198844493Y-140789561D01*
X198796874Y-140741942D01*
X198749255Y-140646704D01*
X198749255Y-140551466D01*
X198796874Y-140456228D01*
X198844493Y-140408609D01*
X198939731Y-140360990D01*
X199130207Y-140313371D01*
X199225445Y-140265752D01*
X199273064Y-140218133D01*
X199320683Y-140122895D01*
X199320683Y-140027657D01*
X199273064Y-139932419D01*
X199225445Y-139884800D01*
X199130207Y-139837180D01*
X198892112Y-139837180D01*
X198749255Y-139884800D01*
X198320683Y-140837180D02*
X198320683Y-139837180D01*
X197892112Y-140837180D02*
X197892112Y-140313371D01*
X197939731Y-140218133D01*
X198034969Y-140170514D01*
X198177826Y-140170514D01*
X198273064Y-140218133D01*
X198320683Y-140265752D01*
X197415921Y-140837180D02*
X197415921Y-140170514D01*
X197415921Y-139837180D02*
X197463540Y-139884800D01*
X197415921Y-139932419D01*
X197368302Y-139884800D01*
X197415921Y-139837180D01*
X197415921Y-139932419D01*
X196558779Y-140789561D02*
X196654017Y-140837180D01*
X196844493Y-140837180D01*
X196939731Y-140789561D01*
X196987350Y-140694323D01*
X196987350Y-140313371D01*
X196939731Y-140218133D01*
X196844493Y-140170514D01*
X196654017Y-140170514D01*
X196558779Y-140218133D01*
X196511160Y-140313371D01*
X196511160Y-140408609D01*
X196987350Y-140503847D01*
X195939731Y-140837180D02*
X196034969Y-140789561D01*
X196082588Y-140694323D01*
X196082588Y-139837180D01*
X195130207Y-140837180D02*
X195130207Y-139837180D01*
X195130207Y-140789561D02*
X195225445Y-140837180D01*
X195415921Y-140837180D01*
X195511160Y-140789561D01*
X195558779Y-140741942D01*
X195606398Y-140646704D01*
X195606398Y-140360990D01*
X195558779Y-140265752D01*
X195511160Y-140218133D01*
X195415921Y-140170514D01*
X195225445Y-140170514D01*
X195130207Y-140218133D01*
X211302334Y-54578522D02*
X211349953Y-54626141D01*
X211492810Y-54673760D01*
X211588048Y-54673760D01*
X211730905Y-54626141D01*
X211826143Y-54530903D01*
X211873762Y-54435665D01*
X211921381Y-54245189D01*
X211921381Y-54102332D01*
X211873762Y-53911856D01*
X211826143Y-53816618D01*
X211730905Y-53721380D01*
X211588048Y-53673760D01*
X211492810Y-53673760D01*
X211349953Y-53721380D01*
X211302334Y-53768999D01*
X210730905Y-54673760D02*
X210826143Y-54626141D01*
X210873762Y-54530903D01*
X210873762Y-53673760D01*
X209921381Y-54673760D02*
X209921381Y-54149951D01*
X209969000Y-54054713D01*
X210064239Y-54007094D01*
X210254715Y-54007094D01*
X210349953Y-54054713D01*
X209921381Y-54626141D02*
X210016620Y-54673760D01*
X210254715Y-54673760D01*
X210349953Y-54626141D01*
X210397572Y-54530903D01*
X210397572Y-54435665D01*
X210349953Y-54340427D01*
X210254715Y-54292808D01*
X210016620Y-54292808D01*
X209921381Y-54245189D01*
X209588048Y-54007094D02*
X209207096Y-54007094D01*
X209445191Y-53673760D02*
X209445191Y-54530903D01*
X209397572Y-54626141D01*
X209302334Y-54673760D01*
X209207096Y-54673760D01*
X208921381Y-54626141D02*
X208826143Y-54673760D01*
X208635667Y-54673760D01*
X208540429Y-54626141D01*
X208492810Y-54530903D01*
X208492810Y-54483284D01*
X208540429Y-54388046D01*
X208635667Y-54340427D01*
X208778524Y-54340427D01*
X208873762Y-54292808D01*
X208921381Y-54197570D01*
X208921381Y-54149951D01*
X208873762Y-54054713D01*
X208778524Y-54007094D01*
X208635667Y-54007094D01*
X208540429Y-54054713D01*
X208064239Y-54673760D02*
X208064239Y-53673760D01*
X207969000Y-54292808D02*
X207683286Y-54673760D01*
X207683286Y-54007094D02*
X208064239Y-54388046D01*
X206826143Y-54673760D02*
X206826143Y-54149951D01*
X206873762Y-54054713D01*
X206969000Y-54007094D01*
X207159477Y-54007094D01*
X207254715Y-54054713D01*
X206826143Y-54626141D02*
X206921381Y-54673760D01*
X207159477Y-54673760D01*
X207254715Y-54626141D01*
X207302334Y-54530903D01*
X207302334Y-54435665D01*
X207254715Y-54340427D01*
X207159477Y-54292808D01*
X206921381Y-54292808D01*
X206826143Y-54245189D01*
X206349953Y-54007094D02*
X206349953Y-54673760D01*
X206349953Y-54102332D02*
X206302334Y-54054713D01*
X206207096Y-54007094D01*
X206064239Y-54007094D01*
X205969000Y-54054713D01*
X205921381Y-54149951D01*
X205921381Y-54673760D01*
X205445191Y-54673760D02*
X205445191Y-54007094D01*
X205445191Y-53673760D02*
X205492810Y-53721380D01*
X205445191Y-53768999D01*
X205397572Y-53721380D01*
X205445191Y-53673760D01*
X205445191Y-53768999D01*
X204588048Y-54626141D02*
X204683286Y-54673760D01*
X204873762Y-54673760D01*
X204969000Y-54626141D01*
X205016620Y-54530903D01*
X205016620Y-54149951D01*
X204969000Y-54054713D01*
X204873762Y-54007094D01*
X204683286Y-54007094D01*
X204588048Y-54054713D01*
X204540429Y-54149951D01*
X204540429Y-54245189D01*
X205016620Y-54340427D01*
X203349953Y-54673760D02*
X203349953Y-53673760D01*
X202969000Y-53673760D01*
X202873762Y-53721380D01*
X202826143Y-53768999D01*
X202778524Y-53864237D01*
X202778524Y-54007094D01*
X202826143Y-54102332D01*
X202873762Y-54149951D01*
X202969000Y-54197570D01*
X203349953Y-54197570D01*
X201969000Y-54626141D02*
X202064239Y-54673760D01*
X202254715Y-54673760D01*
X202349953Y-54626141D01*
X202397572Y-54530903D01*
X202397572Y-54149951D01*
X202349953Y-54054713D01*
X202254715Y-54007094D01*
X202064239Y-54007094D01*
X201969000Y-54054713D01*
X201921381Y-54149951D01*
X201921381Y-54245189D01*
X202397572Y-54340427D01*
X201349953Y-54673760D02*
X201445191Y-54626141D01*
X201492810Y-54578522D01*
X201540429Y-54483284D01*
X201540429Y-54197570D01*
X201492810Y-54102332D01*
X201445191Y-54054713D01*
X201349953Y-54007094D01*
X201207096Y-54007094D01*
X201111858Y-54054713D01*
X201064239Y-54102332D01*
X201016620Y-54197570D01*
X201016620Y-54483284D01*
X201064239Y-54578522D01*
X201111858Y-54626141D01*
X201207096Y-54673760D01*
X201349953Y-54673760D01*
X200588048Y-54007094D02*
X200588048Y-55007094D01*
X200588048Y-54054713D02*
X200492810Y-54007094D01*
X200302334Y-54007094D01*
X200207096Y-54054713D01*
X200159477Y-54102332D01*
X200111858Y-54197570D01*
X200111858Y-54483284D01*
X200159477Y-54578522D01*
X200207096Y-54626141D01*
X200302334Y-54673760D01*
X200492810Y-54673760D01*
X200588048Y-54626141D01*
X199540429Y-54673760D02*
X199635667Y-54626141D01*
X199683286Y-54530903D01*
X199683286Y-53673760D01*
X198778524Y-54626141D02*
X198873762Y-54673760D01*
X199064239Y-54673760D01*
X199159477Y-54626141D01*
X199207096Y-54530903D01*
X199207096Y-54149951D01*
X199159477Y-54054713D01*
X199064239Y-54007094D01*
X198873762Y-54007094D01*
X198778524Y-54054713D01*
X198730905Y-54149951D01*
X198730905Y-54245189D01*
X199207096Y-54340427D01*
X198254715Y-53673760D02*
X198349953Y-53864237D01*
X197873762Y-54626141D02*
X197778524Y-54673760D01*
X197588048Y-54673760D01*
X197492810Y-54626141D01*
X197445191Y-54530903D01*
X197445191Y-54483284D01*
X197492810Y-54388046D01*
X197588048Y-54340427D01*
X197730905Y-54340427D01*
X197826143Y-54292808D01*
X197873762Y-54197570D01*
X197873762Y-54149951D01*
X197826143Y-54054713D01*
X197730905Y-54007094D01*
X197588048Y-54007094D01*
X197492810Y-54054713D01*
X196254715Y-53673760D02*
X196254715Y-54483284D01*
X196207096Y-54578522D01*
X196159477Y-54626141D01*
X196064239Y-54673760D01*
X195873762Y-54673760D01*
X195778524Y-54626141D01*
X195730905Y-54578522D01*
X195683286Y-54483284D01*
X195683286Y-53673760D01*
X195349953Y-54007094D02*
X194969000Y-54007094D01*
X195207096Y-53673760D02*
X195207096Y-54530903D01*
X195159477Y-54626141D01*
X195064239Y-54673760D01*
X194969000Y-54673760D01*
X194635667Y-54673760D02*
X194635667Y-54007094D01*
X194635667Y-53673760D02*
X194683286Y-53721380D01*
X194635667Y-53768999D01*
X194588048Y-53721380D01*
X194635667Y-53673760D01*
X194635667Y-53768999D01*
X194016620Y-54673760D02*
X194111858Y-54626141D01*
X194159477Y-54530903D01*
X194159477Y-53673760D01*
X193635667Y-54673760D02*
X193635667Y-54007094D01*
X193635667Y-53673760D02*
X193683286Y-53721380D01*
X193635667Y-53768999D01*
X193588048Y-53721380D01*
X193635667Y-53673760D01*
X193635667Y-53768999D01*
X193302334Y-54007094D02*
X192921381Y-54007094D01*
X193159477Y-53673760D02*
X193159477Y-54530903D01*
X193111858Y-54626141D01*
X193016620Y-54673760D01*
X192921381Y-54673760D01*
X192683286Y-54007094D02*
X192445191Y-54673760D01*
X192207096Y-54007094D02*
X192445191Y-54673760D01*
X192540429Y-54911856D01*
X192588048Y-54959475D01*
X192683286Y-55007094D01*
X191064239Y-54673760D02*
X191064239Y-53673760D01*
X190826143Y-53673760D01*
X190683286Y-53721380D01*
X190588048Y-53816618D01*
X190540429Y-53911856D01*
X190492810Y-54102332D01*
X190492810Y-54245189D01*
X190540429Y-54435665D01*
X190588048Y-54530903D01*
X190683286Y-54626141D01*
X190826143Y-54673760D01*
X191064239Y-54673760D01*
X190064239Y-54673760D02*
X190064239Y-54007094D01*
X190064239Y-53673760D02*
X190111858Y-53721380D01*
X190064239Y-53768999D01*
X190016620Y-53721380D01*
X190064239Y-53673760D01*
X190064239Y-53768999D01*
X189635667Y-54626141D02*
X189540429Y-54673760D01*
X189349953Y-54673760D01*
X189254715Y-54626141D01*
X189207096Y-54530903D01*
X189207096Y-54483284D01*
X189254715Y-54388046D01*
X189349953Y-54340427D01*
X189492810Y-54340427D01*
X189588048Y-54292808D01*
X189635667Y-54197570D01*
X189635667Y-54149951D01*
X189588048Y-54054713D01*
X189492810Y-54007094D01*
X189349953Y-54007094D01*
X189254715Y-54054713D01*
X188921381Y-54007094D02*
X188540429Y-54007094D01*
X188778524Y-53673760D02*
X188778524Y-54530903D01*
X188730905Y-54626141D01*
X188635667Y-54673760D01*
X188540429Y-54673760D01*
X188207096Y-54673760D02*
X188207096Y-54007094D01*
X188207096Y-54197570D02*
X188159477Y-54102332D01*
X188111858Y-54054713D01*
X188016620Y-54007094D01*
X187921381Y-54007094D01*
X187588048Y-54673760D02*
X187588048Y-54007094D01*
X187588048Y-53673760D02*
X187635667Y-53721380D01*
X187588048Y-53768999D01*
X187540429Y-53721380D01*
X187588048Y-53673760D01*
X187588048Y-53768999D01*
X186683286Y-54626141D02*
X186778524Y-54673760D01*
X186969000Y-54673760D01*
X187064239Y-54626141D01*
X187111858Y-54578522D01*
X187159477Y-54483284D01*
X187159477Y-54197570D01*
X187111858Y-54102332D01*
X187064239Y-54054713D01*
X186969000Y-54007094D01*
X186778524Y-54007094D01*
X186683286Y-54054713D01*
X186397572Y-54007094D02*
X186016620Y-54007094D01*
X186254715Y-53673760D02*
X186254715Y-54530903D01*
X186207096Y-54626141D01*
X186111858Y-54673760D01*
X186016620Y-54673760D01*
D11*
X204752040Y-59021980D02*
X218252040Y-59021980D01*
X204720240Y-79807580D02*
X218220240Y-79807580D01*
X181625240Y-107337320D02*
X214135240Y-107337320D01*
X181625240Y-134767320D02*
X214135240Y-134767320D01*
D12*
X204086000Y-105086640D02*
X178486000Y-105086640D01*
X178486000Y-105086640D02*
X178486000Y-59186640D01*
X204086000Y-105086640D02*
X204086000Y-59186640D01*
X204086000Y-59186640D02*
X178486000Y-59186640D01*
X193786000Y-105386640D02*
X191786000Y-105386640D01*
X207739040Y-100623940D02*
X210279040Y-100623940D01*
X207739040Y-100623940D02*
X207739040Y-98083940D01*
X207989040Y-100373940D02*
X217339040Y-100373940D01*
X207989040Y-82053940D02*
X207989040Y-100373940D01*
X217339040Y-82053940D02*
X207989040Y-82053940D01*
X217339040Y-100373940D02*
X217339040Y-82053940D01*
D10*
X207344543Y-80661260D02*
X207344543Y-81375546D01*
X207392162Y-81518403D01*
X207487400Y-81613641D01*
X207630258Y-81661260D01*
X207725496Y-81661260D01*
X206344543Y-81661260D02*
X206915972Y-81661260D01*
X206630258Y-81661260D02*
X206630258Y-80661260D01*
X206725496Y-80804118D01*
X206820734Y-80899356D01*
X206915972Y-80946975D01*
X205725496Y-80661260D02*
X205630258Y-80661260D01*
X205535020Y-80708880D01*
X205487400Y-80756499D01*
X205439781Y-80851737D01*
X205392162Y-81042213D01*
X205392162Y-81280308D01*
X205439781Y-81470784D01*
X205487400Y-81566022D01*
X205535020Y-81613641D01*
X205630258Y-81661260D01*
X205725496Y-81661260D01*
X205820734Y-81613641D01*
X205868353Y-81566022D01*
X205915972Y-81470784D01*
X205963591Y-81280308D01*
X205963591Y-81042213D01*
X205915972Y-80851737D01*
X205868353Y-80756499D01*
X205820734Y-80708880D01*
X205725496Y-80661260D01*
X215737344Y-57556780D02*
X215832582Y-57509160D01*
X215975440Y-57509160D01*
X216118297Y-57556780D01*
X216213535Y-57652018D01*
X216261154Y-57747256D01*
X216308773Y-57937732D01*
X216308773Y-58080589D01*
X216261154Y-58271065D01*
X216213535Y-58366303D01*
X216118297Y-58461541D01*
X215975440Y-58509160D01*
X215880201Y-58509160D01*
X215737344Y-58461541D01*
X215689725Y-58413922D01*
X215689725Y-58080589D01*
X215880201Y-58080589D01*
X215261154Y-58509160D02*
X215261154Y-57509160D01*
X214689725Y-58509160D01*
X214689725Y-57509160D01*
X214213535Y-58509160D02*
X214213535Y-57509160D01*
X213975440Y-57509160D01*
X213832582Y-57556780D01*
X213737344Y-57652018D01*
X213689725Y-57747256D01*
X213642106Y-57937732D01*
X213642106Y-58080589D01*
X213689725Y-58271065D01*
X213737344Y-58366303D01*
X213832582Y-58461541D01*
X213975440Y-58509160D01*
X214213535Y-58509160D01*
X209988897Y-58483760D02*
X209988897Y-57483760D01*
X209417468Y-58483760D01*
X209417468Y-57483760D01*
X208941278Y-57959951D02*
X208607944Y-57959951D01*
X208465087Y-58483760D02*
X208941278Y-58483760D01*
X208941278Y-57483760D01*
X208465087Y-57483760D01*
X208036516Y-57483760D02*
X208036516Y-58293284D01*
X207988897Y-58388522D01*
X207941278Y-58436141D01*
X207846040Y-58483760D01*
X207655563Y-58483760D01*
X207560325Y-58436141D01*
X207512706Y-58388522D01*
X207465087Y-58293284D01*
X207465087Y-57483760D01*
X207131754Y-57483760D02*
X206560325Y-57483760D01*
X206846040Y-58483760D02*
X206846040Y-57483760D01*
X180985420Y-125334520D02*
X180509230Y-125001186D01*
X180985420Y-124763091D02*
X179985420Y-124763091D01*
X179985420Y-125144043D01*
X180033040Y-125239281D01*
X180080659Y-125286900D01*
X180175897Y-125334520D01*
X180318754Y-125334520D01*
X180413992Y-125286900D01*
X180461611Y-125239281D01*
X180509230Y-125144043D01*
X180509230Y-124763091D01*
X180985420Y-126239281D02*
X180985420Y-125763091D01*
X179985420Y-125763091D01*
X180509230Y-126763091D02*
X180985420Y-126763091D01*
X179985420Y-126429758D02*
X180509230Y-126763091D01*
X179985420Y-127096424D01*
X180985420Y-127953567D02*
X180985420Y-127382139D01*
X180985420Y-127667853D02*
X179985420Y-127667853D01*
X180128278Y-127572615D01*
X180223516Y-127477377D01*
X180271135Y-127382139D01*
X192857285Y-58024020D02*
X192857285Y-57024020D01*
X192476333Y-57024020D01*
X192381095Y-57071640D01*
X192333476Y-57119259D01*
X192285857Y-57214497D01*
X192285857Y-57357354D01*
X192333476Y-57452592D01*
X192381095Y-57500211D01*
X192476333Y-57547830D01*
X192857285Y-57547830D01*
X191904904Y-57976401D02*
X191762047Y-58024020D01*
X191523952Y-58024020D01*
X191428714Y-57976401D01*
X191381095Y-57928782D01*
X191333476Y-57833544D01*
X191333476Y-57738306D01*
X191381095Y-57643068D01*
X191428714Y-57595449D01*
X191523952Y-57547830D01*
X191714428Y-57500211D01*
X191809666Y-57452592D01*
X191857285Y-57404973D01*
X191904904Y-57309735D01*
X191904904Y-57214497D01*
X191857285Y-57119259D01*
X191809666Y-57071640D01*
X191714428Y-57024020D01*
X191476333Y-57024020D01*
X191333476Y-57071640D01*
X190381095Y-58024020D02*
X190952523Y-58024020D01*
X190666809Y-58024020D02*
X190666809Y-57024020D01*
X190762047Y-57166878D01*
X190857285Y-57262116D01*
X190952523Y-57309735D01*
X212997373Y-101080320D02*
X212997373Y-101794606D01*
X213044992Y-101937463D01*
X213140230Y-102032701D01*
X213283087Y-102080320D01*
X213378325Y-102080320D01*
X212092611Y-101413654D02*
X212092611Y-102080320D01*
X212330706Y-101032701D02*
X212568801Y-101746987D01*
X211949754Y-101746987D01*
M02*
