G04 #@! TF.GenerationSoftware,KiCad,Pcbnew,(5.1.5)-3*
G04 #@! TF.CreationDate,2020-05-28T10:51:02-07:00*
G04 #@! TF.ProjectId,Plug_Pass_AC_shield,506c7567-5f50-4617-9373-5f41435f7368,v1.2*
G04 #@! TF.SameCoordinates,Original*
G04 #@! TF.FileFunction,Soldermask,Bot*
G04 #@! TF.FilePolarity,Negative*
%FSLAX46Y46*%
G04 Gerber Fmt 4.6, Leading zero omitted, Abs format (unit mm)*
G04 Created by KiCad (PCBNEW (5.1.5)-3) date 2020-05-28 10:51:02*
%MOMM*%
%LPD*%
G04 APERTURE LIST*
%ADD10C,0.100000*%
G04 APERTURE END LIST*
D10*
G36*
X193114862Y-127540869D02*
G01*
X193359685Y-127589567D01*
X193705607Y-127732853D01*
X194016930Y-127940872D01*
X194281688Y-128205630D01*
X194489707Y-128516953D01*
X194632993Y-128862875D01*
X194706040Y-129230109D01*
X194706040Y-129604531D01*
X194632993Y-129971765D01*
X194489707Y-130317687D01*
X194281688Y-130629010D01*
X194016930Y-130893768D01*
X193705607Y-131101787D01*
X193359685Y-131245073D01*
X193114862Y-131293771D01*
X192992452Y-131318120D01*
X192618028Y-131318120D01*
X192495618Y-131293771D01*
X192250795Y-131245073D01*
X191904873Y-131101787D01*
X191593550Y-130893768D01*
X191328792Y-130629010D01*
X191120773Y-130317687D01*
X190977487Y-129971765D01*
X190904440Y-129604531D01*
X190904440Y-129230109D01*
X190977487Y-128862875D01*
X191120773Y-128516953D01*
X191328792Y-128205630D01*
X191593550Y-127940872D01*
X191904873Y-127732853D01*
X192250795Y-127589567D01*
X192495618Y-127540869D01*
X192618028Y-127516520D01*
X192992452Y-127516520D01*
X193114862Y-127540869D01*
G37*
G36*
X185494862Y-127540869D02*
G01*
X185739685Y-127589567D01*
X186085607Y-127732853D01*
X186396930Y-127940872D01*
X186661688Y-128205630D01*
X186869707Y-128516953D01*
X187012993Y-128862875D01*
X187086040Y-129230109D01*
X187086040Y-129604531D01*
X187012993Y-129971765D01*
X186869707Y-130317687D01*
X186661688Y-130629010D01*
X186396930Y-130893768D01*
X186085607Y-131101787D01*
X185739685Y-131245073D01*
X185494862Y-131293771D01*
X185372452Y-131318120D01*
X184998028Y-131318120D01*
X184875618Y-131293771D01*
X184630795Y-131245073D01*
X184284873Y-131101787D01*
X183973550Y-130893768D01*
X183708792Y-130629010D01*
X183500773Y-130317687D01*
X183357487Y-129971765D01*
X183284440Y-129604531D01*
X183284440Y-129230109D01*
X183357487Y-128862875D01*
X183500773Y-128516953D01*
X183708792Y-128205630D01*
X183973550Y-127940872D01*
X184284873Y-127732853D01*
X184630795Y-127589567D01*
X184875618Y-127540869D01*
X184998028Y-127516520D01*
X185372452Y-127516520D01*
X185494862Y-127540869D01*
G37*
G36*
X208424669Y-124356509D02*
G01*
X208661400Y-124454566D01*
X208874452Y-124596923D01*
X209055637Y-124778108D01*
X209197994Y-124991160D01*
X209296051Y-125227891D01*
X209346040Y-125479202D01*
X209346040Y-125735438D01*
X209296051Y-125986749D01*
X209197994Y-126223480D01*
X209055637Y-126436532D01*
X208874452Y-126617717D01*
X208661400Y-126760074D01*
X208424669Y-126858131D01*
X208173358Y-126908120D01*
X207917122Y-126908120D01*
X207665811Y-126858131D01*
X207429080Y-126760074D01*
X207216028Y-126617717D01*
X207034843Y-126436532D01*
X206892486Y-126223480D01*
X206794429Y-125986749D01*
X206744440Y-125735438D01*
X206744440Y-125479202D01*
X206794429Y-125227891D01*
X206892486Y-124991160D01*
X207034843Y-124778108D01*
X207216028Y-124596923D01*
X207429080Y-124454566D01*
X207665811Y-124356509D01*
X207917122Y-124306520D01*
X208173358Y-124306520D01*
X208424669Y-124356509D01*
G37*
G36*
X208424669Y-114196509D02*
G01*
X208661400Y-114294566D01*
X208874452Y-114436923D01*
X209055637Y-114618108D01*
X209197994Y-114831160D01*
X209296051Y-115067891D01*
X209346040Y-115319202D01*
X209346040Y-115575438D01*
X209296051Y-115826749D01*
X209197994Y-116063480D01*
X209055637Y-116276532D01*
X208874452Y-116457717D01*
X208661400Y-116600074D01*
X208424669Y-116698131D01*
X208173358Y-116748120D01*
X207917122Y-116748120D01*
X207665811Y-116698131D01*
X207429080Y-116600074D01*
X207216028Y-116457717D01*
X207034843Y-116276532D01*
X206892486Y-116063480D01*
X206794429Y-115826749D01*
X206744440Y-115575438D01*
X206744440Y-115319202D01*
X206794429Y-115067891D01*
X206892486Y-114831160D01*
X207034843Y-114618108D01*
X207216028Y-114436923D01*
X207429080Y-114294566D01*
X207665811Y-114196509D01*
X207917122Y-114146520D01*
X208173358Y-114146520D01*
X208424669Y-114196509D01*
G37*
G36*
X197146040Y-113438120D02*
G01*
X193544440Y-113438120D01*
X193544440Y-109836520D01*
X197146040Y-109836520D01*
X197146040Y-113438120D01*
G37*
G36*
X213792391Y-101211170D02*
G01*
X213880723Y-101228740D01*
X214047131Y-101297669D01*
X214196896Y-101397739D01*
X214324261Y-101525104D01*
X214424331Y-101674869D01*
X214493260Y-101841277D01*
X214528400Y-102017941D01*
X214528400Y-102198059D01*
X214493260Y-102374723D01*
X214424331Y-102541131D01*
X214324261Y-102690896D01*
X214196896Y-102818261D01*
X214047131Y-102918331D01*
X213880723Y-102987260D01*
X213792391Y-103004830D01*
X213704061Y-103022400D01*
X213523939Y-103022400D01*
X213435609Y-103004830D01*
X213347277Y-102987260D01*
X213180869Y-102918331D01*
X213031104Y-102818261D01*
X212903739Y-102690896D01*
X212803669Y-102541131D01*
X212734740Y-102374723D01*
X212699600Y-102198059D01*
X212699600Y-102017941D01*
X212734740Y-101841277D01*
X212803669Y-101674869D01*
X212903739Y-101525104D01*
X213031104Y-101397739D01*
X213180869Y-101297669D01*
X213347277Y-101228740D01*
X213435609Y-101211170D01*
X213523939Y-101193600D01*
X213704061Y-101193600D01*
X213792391Y-101211170D01*
G37*
G36*
X211252391Y-101211170D02*
G01*
X211340723Y-101228740D01*
X211507131Y-101297669D01*
X211656896Y-101397739D01*
X211784261Y-101525104D01*
X211884331Y-101674869D01*
X211953260Y-101841277D01*
X211988400Y-102017941D01*
X211988400Y-102198059D01*
X211953260Y-102374723D01*
X211884331Y-102541131D01*
X211784261Y-102690896D01*
X211656896Y-102818261D01*
X211507131Y-102918331D01*
X211340723Y-102987260D01*
X211252391Y-103004830D01*
X211164061Y-103022400D01*
X210983939Y-103022400D01*
X210895609Y-103004830D01*
X210807277Y-102987260D01*
X210640869Y-102918331D01*
X210491104Y-102818261D01*
X210363739Y-102690896D01*
X210263669Y-102541131D01*
X210194740Y-102374723D01*
X210159600Y-102198059D01*
X210159600Y-102017941D01*
X210194740Y-101841277D01*
X210263669Y-101674869D01*
X210363739Y-101525104D01*
X210491104Y-101397739D01*
X210640869Y-101297669D01*
X210807277Y-101228740D01*
X210895609Y-101211170D01*
X210983939Y-101193600D01*
X211164061Y-101193600D01*
X211252391Y-101211170D01*
G37*
G36*
X182488352Y-99895436D02*
G01*
X182488355Y-99895437D01*
X182488354Y-99895437D01*
X182770580Y-100012339D01*
X183024578Y-100182055D01*
X183240585Y-100398062D01*
X183410301Y-100652060D01*
X183410301Y-100652061D01*
X183527204Y-100934288D01*
X183586800Y-101233899D01*
X183586800Y-101539381D01*
X183527204Y-101838992D01*
X183526257Y-101841279D01*
X183410301Y-102121220D01*
X183240585Y-102375218D01*
X183024578Y-102591225D01*
X182770580Y-102760941D01*
X182632197Y-102818261D01*
X182488352Y-102877844D01*
X182188741Y-102937440D01*
X181883259Y-102937440D01*
X181583648Y-102877844D01*
X181439803Y-102818261D01*
X181301420Y-102760941D01*
X181047422Y-102591225D01*
X180831415Y-102375218D01*
X180661699Y-102121220D01*
X180545743Y-101841279D01*
X180544796Y-101838992D01*
X180485200Y-101539381D01*
X180485200Y-101233899D01*
X180544796Y-100934288D01*
X180661699Y-100652061D01*
X180661699Y-100652060D01*
X180831415Y-100398062D01*
X181047422Y-100182055D01*
X181301420Y-100012339D01*
X181583646Y-99895437D01*
X181583645Y-99895437D01*
X181583648Y-99895436D01*
X181883259Y-99835840D01*
X182188741Y-99835840D01*
X182488352Y-99895436D01*
G37*
G36*
X194336800Y-102937440D02*
G01*
X191235200Y-102937440D01*
X191235200Y-99835840D01*
X194336800Y-99835840D01*
X194336800Y-102937440D01*
G37*
G36*
X213792391Y-98671170D02*
G01*
X213880723Y-98688740D01*
X214047131Y-98757669D01*
X214196896Y-98857739D01*
X214324261Y-98985104D01*
X214424331Y-99134869D01*
X214493260Y-99301277D01*
X214528400Y-99477941D01*
X214528400Y-99658059D01*
X214493260Y-99834723D01*
X214424331Y-100001131D01*
X214324261Y-100150896D01*
X214196896Y-100278261D01*
X214047131Y-100378331D01*
X213880723Y-100447260D01*
X213792391Y-100464830D01*
X213704061Y-100482400D01*
X213523939Y-100482400D01*
X213435609Y-100464830D01*
X213347277Y-100447260D01*
X213180869Y-100378331D01*
X213031104Y-100278261D01*
X212903739Y-100150896D01*
X212803669Y-100001131D01*
X212734740Y-99834723D01*
X212699600Y-99658059D01*
X212699600Y-99477941D01*
X212734740Y-99301277D01*
X212803669Y-99134869D01*
X212903739Y-98985104D01*
X213031104Y-98857739D01*
X213180869Y-98757669D01*
X213347277Y-98688740D01*
X213435609Y-98671170D01*
X213523939Y-98653600D01*
X213704061Y-98653600D01*
X213792391Y-98671170D01*
G37*
G36*
X211252391Y-98671170D02*
G01*
X211340723Y-98688740D01*
X211507131Y-98757669D01*
X211656896Y-98857739D01*
X211784261Y-98985104D01*
X211884331Y-99134869D01*
X211953260Y-99301277D01*
X211988400Y-99477941D01*
X211988400Y-99658059D01*
X211953260Y-99834723D01*
X211884331Y-100001131D01*
X211784261Y-100150896D01*
X211656896Y-100278261D01*
X211507131Y-100378331D01*
X211340723Y-100447260D01*
X211252391Y-100464830D01*
X211164061Y-100482400D01*
X210983939Y-100482400D01*
X210895609Y-100464830D01*
X210807277Y-100447260D01*
X210640869Y-100378331D01*
X210491104Y-100278261D01*
X210363739Y-100150896D01*
X210263669Y-100001131D01*
X210194740Y-99834723D01*
X210159600Y-99658059D01*
X210159600Y-99477941D01*
X210194740Y-99301277D01*
X210263669Y-99134869D01*
X210363739Y-98985104D01*
X210491104Y-98857739D01*
X210640869Y-98757669D01*
X210807277Y-98688740D01*
X210895609Y-98671170D01*
X210983939Y-98653600D01*
X211164061Y-98653600D01*
X211252391Y-98671170D01*
G37*
G36*
X213792391Y-96131170D02*
G01*
X213880723Y-96148740D01*
X214047131Y-96217669D01*
X214196896Y-96317739D01*
X214324261Y-96445104D01*
X214424331Y-96594869D01*
X214493260Y-96761277D01*
X214528400Y-96937941D01*
X214528400Y-97118059D01*
X214493260Y-97294723D01*
X214424331Y-97461131D01*
X214324261Y-97610896D01*
X214196896Y-97738261D01*
X214047131Y-97838331D01*
X213880723Y-97907260D01*
X213792391Y-97924830D01*
X213704061Y-97942400D01*
X213523939Y-97942400D01*
X213435609Y-97924830D01*
X213347277Y-97907260D01*
X213180869Y-97838331D01*
X213031104Y-97738261D01*
X212903739Y-97610896D01*
X212803669Y-97461131D01*
X212734740Y-97294723D01*
X212699600Y-97118059D01*
X212699600Y-96937941D01*
X212734740Y-96761277D01*
X212803669Y-96594869D01*
X212903739Y-96445104D01*
X213031104Y-96317739D01*
X213180869Y-96217669D01*
X213347277Y-96148740D01*
X213435609Y-96131170D01*
X213523939Y-96113600D01*
X213704061Y-96113600D01*
X213792391Y-96131170D01*
G37*
G36*
X211252391Y-96131170D02*
G01*
X211340723Y-96148740D01*
X211507131Y-96217669D01*
X211656896Y-96317739D01*
X211784261Y-96445104D01*
X211884331Y-96594869D01*
X211953260Y-96761277D01*
X211988400Y-96937941D01*
X211988400Y-97118059D01*
X211953260Y-97294723D01*
X211884331Y-97461131D01*
X211784261Y-97610896D01*
X211656896Y-97738261D01*
X211507131Y-97838331D01*
X211340723Y-97907260D01*
X211252391Y-97924830D01*
X211164061Y-97942400D01*
X210983939Y-97942400D01*
X210895609Y-97924830D01*
X210807277Y-97907260D01*
X210640869Y-97838331D01*
X210491104Y-97738261D01*
X210363739Y-97610896D01*
X210263669Y-97461131D01*
X210194740Y-97294723D01*
X210159600Y-97118059D01*
X210159600Y-96937941D01*
X210194740Y-96761277D01*
X210263669Y-96594869D01*
X210363739Y-96445104D01*
X210491104Y-96317739D01*
X210640869Y-96217669D01*
X210807277Y-96148740D01*
X210895609Y-96131170D01*
X210983939Y-96113600D01*
X211164061Y-96113600D01*
X211252391Y-96131170D01*
G37*
G36*
X211252391Y-93591170D02*
G01*
X211340723Y-93608740D01*
X211507131Y-93677669D01*
X211656896Y-93777739D01*
X211784261Y-93905104D01*
X211884331Y-94054869D01*
X211953260Y-94221277D01*
X211988400Y-94397941D01*
X211988400Y-94578059D01*
X211953260Y-94754723D01*
X211884331Y-94921131D01*
X211784261Y-95070896D01*
X211656896Y-95198261D01*
X211507131Y-95298331D01*
X211340723Y-95367260D01*
X211252391Y-95384830D01*
X211164061Y-95402400D01*
X210983939Y-95402400D01*
X210895609Y-95384830D01*
X210807277Y-95367260D01*
X210640869Y-95298331D01*
X210491104Y-95198261D01*
X210363739Y-95070896D01*
X210263669Y-94921131D01*
X210194740Y-94754723D01*
X210159600Y-94578059D01*
X210159600Y-94397941D01*
X210194740Y-94221277D01*
X210263669Y-94054869D01*
X210363739Y-93905104D01*
X210491104Y-93777739D01*
X210640869Y-93677669D01*
X210807277Y-93608740D01*
X210895609Y-93591170D01*
X210983939Y-93573600D01*
X211164061Y-93573600D01*
X211252391Y-93591170D01*
G37*
G36*
X214528400Y-95402400D02*
G01*
X212699600Y-95402400D01*
X212699600Y-93573600D01*
X214528400Y-93573600D01*
X214528400Y-95402400D01*
G37*
G36*
X206673166Y-85830661D02*
G01*
X206808509Y-85857582D01*
X206999741Y-85936793D01*
X207171846Y-86051790D01*
X207318210Y-86198154D01*
X207433207Y-86370259D01*
X207512418Y-86561491D01*
X207552800Y-86764506D01*
X207552800Y-86971494D01*
X207512418Y-87174509D01*
X207433207Y-87365741D01*
X207318210Y-87537846D01*
X207171846Y-87684210D01*
X206999741Y-87799207D01*
X206808509Y-87878418D01*
X206673166Y-87905339D01*
X206605495Y-87918800D01*
X206398505Y-87918800D01*
X206330834Y-87905339D01*
X206195491Y-87878418D01*
X206004259Y-87799207D01*
X205832154Y-87684210D01*
X205685790Y-87537846D01*
X205570793Y-87365741D01*
X205491582Y-87174509D01*
X205451200Y-86971494D01*
X205451200Y-86764506D01*
X205491582Y-86561491D01*
X205570793Y-86370259D01*
X205685790Y-86198154D01*
X205832154Y-86051790D01*
X206004259Y-85936793D01*
X206195491Y-85857582D01*
X206330834Y-85830661D01*
X206398505Y-85817200D01*
X206605495Y-85817200D01*
X206673166Y-85830661D01*
G37*
G36*
X216833166Y-85830661D02*
G01*
X216968509Y-85857582D01*
X217159741Y-85936793D01*
X217331846Y-86051790D01*
X217478210Y-86198154D01*
X217593207Y-86370259D01*
X217672418Y-86561491D01*
X217712800Y-86764506D01*
X217712800Y-86971494D01*
X217672418Y-87174509D01*
X217593207Y-87365741D01*
X217478210Y-87537846D01*
X217331846Y-87684210D01*
X217159741Y-87799207D01*
X216968509Y-87878418D01*
X216833166Y-87905339D01*
X216765495Y-87918800D01*
X216558505Y-87918800D01*
X216490834Y-87905339D01*
X216355491Y-87878418D01*
X216164259Y-87799207D01*
X215992154Y-87684210D01*
X215845790Y-87537846D01*
X215730793Y-87365741D01*
X215651582Y-87174509D01*
X215611200Y-86971494D01*
X215611200Y-86764506D01*
X215651582Y-86561491D01*
X215730793Y-86370259D01*
X215845790Y-86198154D01*
X215992154Y-86051790D01*
X216164259Y-85936793D01*
X216355491Y-85857582D01*
X216490834Y-85830661D01*
X216558505Y-85817200D01*
X216765495Y-85817200D01*
X216833166Y-85830661D01*
G37*
G36*
X209213166Y-85830661D02*
G01*
X209348509Y-85857582D01*
X209539741Y-85936793D01*
X209711846Y-86051790D01*
X209858210Y-86198154D01*
X209973207Y-86370259D01*
X210052418Y-86561491D01*
X210092800Y-86764506D01*
X210092800Y-86971494D01*
X210052418Y-87174509D01*
X209973207Y-87365741D01*
X209858210Y-87537846D01*
X209711846Y-87684210D01*
X209539741Y-87799207D01*
X209348509Y-87878418D01*
X209213166Y-87905339D01*
X209145495Y-87918800D01*
X208938505Y-87918800D01*
X208870834Y-87905339D01*
X208735491Y-87878418D01*
X208544259Y-87799207D01*
X208372154Y-87684210D01*
X208225790Y-87537846D01*
X208110793Y-87365741D01*
X208031582Y-87174509D01*
X207991200Y-86971494D01*
X207991200Y-86764506D01*
X208031582Y-86561491D01*
X208110793Y-86370259D01*
X208225790Y-86198154D01*
X208372154Y-86051790D01*
X208544259Y-85936793D01*
X208735491Y-85857582D01*
X208870834Y-85830661D01*
X208938505Y-85817200D01*
X209145495Y-85817200D01*
X209213166Y-85830661D01*
G37*
G36*
X207552800Y-82838800D02*
G01*
X205451200Y-82838800D01*
X205451200Y-80737200D01*
X207552800Y-80737200D01*
X207552800Y-82838800D01*
G37*
G36*
X209213166Y-80750661D02*
G01*
X209348509Y-80777582D01*
X209539741Y-80856793D01*
X209711846Y-80971790D01*
X209858210Y-81118154D01*
X209973207Y-81290259D01*
X210052418Y-81481491D01*
X210092800Y-81684506D01*
X210092800Y-81891494D01*
X210052418Y-82094509D01*
X209973207Y-82285741D01*
X209858210Y-82457846D01*
X209711846Y-82604210D01*
X209539741Y-82719207D01*
X209348509Y-82798418D01*
X209213166Y-82825339D01*
X209145495Y-82838800D01*
X208938505Y-82838800D01*
X208870834Y-82825339D01*
X208735491Y-82798418D01*
X208544259Y-82719207D01*
X208372154Y-82604210D01*
X208225790Y-82457846D01*
X208110793Y-82285741D01*
X208031582Y-82094509D01*
X207991200Y-81891494D01*
X207991200Y-81684506D01*
X208031582Y-81481491D01*
X208110793Y-81290259D01*
X208225790Y-81118154D01*
X208372154Y-80971790D01*
X208544259Y-80856793D01*
X208735491Y-80777582D01*
X208870834Y-80750661D01*
X208938505Y-80737200D01*
X209145495Y-80737200D01*
X209213166Y-80750661D01*
G37*
G36*
X216833166Y-80750661D02*
G01*
X216968509Y-80777582D01*
X217159741Y-80856793D01*
X217331846Y-80971790D01*
X217478210Y-81118154D01*
X217593207Y-81290259D01*
X217672418Y-81481491D01*
X217712800Y-81684506D01*
X217712800Y-81891494D01*
X217672418Y-82094509D01*
X217593207Y-82285741D01*
X217478210Y-82457846D01*
X217331846Y-82604210D01*
X217159741Y-82719207D01*
X216968509Y-82798418D01*
X216833166Y-82825339D01*
X216765495Y-82838800D01*
X216558505Y-82838800D01*
X216490834Y-82825339D01*
X216355491Y-82798418D01*
X216164259Y-82719207D01*
X215992154Y-82604210D01*
X215845790Y-82457846D01*
X215730793Y-82285741D01*
X215651582Y-82094509D01*
X215611200Y-81891494D01*
X215611200Y-81684506D01*
X215651582Y-81481491D01*
X215730793Y-81290259D01*
X215845790Y-81118154D01*
X215992154Y-80971790D01*
X216164259Y-80856793D01*
X216355491Y-80777582D01*
X216490834Y-80750661D01*
X216558505Y-80737200D01*
X216765495Y-80737200D01*
X216833166Y-80750661D01*
G37*
G36*
X209846040Y-78708380D02*
G01*
X206744440Y-78708380D01*
X206744440Y-75606780D01*
X209846040Y-75606780D01*
X209846040Y-78708380D01*
G37*
G36*
X215097592Y-66166376D02*
G01*
X215097595Y-66166377D01*
X215097594Y-66166377D01*
X215379820Y-66283279D01*
X215633818Y-66452995D01*
X215849825Y-66669002D01*
X216019541Y-66923000D01*
X216019541Y-66923001D01*
X216136444Y-67205228D01*
X216196040Y-67504839D01*
X216196040Y-67810321D01*
X216136444Y-68109932D01*
X216136443Y-68109934D01*
X216019541Y-68392160D01*
X215849825Y-68646158D01*
X215633818Y-68862165D01*
X215379820Y-69031881D01*
X215180254Y-69114544D01*
X215097592Y-69148784D01*
X214797981Y-69208380D01*
X214492499Y-69208380D01*
X214192888Y-69148784D01*
X214110226Y-69114544D01*
X213910660Y-69031881D01*
X213656662Y-68862165D01*
X213440655Y-68646158D01*
X213270939Y-68392160D01*
X213154037Y-68109934D01*
X213154036Y-68109932D01*
X213094440Y-67810321D01*
X213094440Y-67504839D01*
X213154036Y-67205228D01*
X213270939Y-66923001D01*
X213270939Y-66923000D01*
X213440655Y-66669002D01*
X213656662Y-66452995D01*
X213910660Y-66283279D01*
X214192886Y-66166377D01*
X214192885Y-66166377D01*
X214192888Y-66166376D01*
X214492499Y-66106780D01*
X214797981Y-66106780D01*
X215097592Y-66166376D01*
G37*
G36*
X182488352Y-61395436D02*
G01*
X182488355Y-61395437D01*
X182488354Y-61395437D01*
X182770580Y-61512339D01*
X183024578Y-61682055D01*
X183240585Y-61898062D01*
X183410301Y-62152060D01*
X183410301Y-62152061D01*
X183527204Y-62434288D01*
X183586800Y-62733899D01*
X183586800Y-63039381D01*
X183527204Y-63338992D01*
X183527203Y-63338994D01*
X183410301Y-63621220D01*
X183240585Y-63875218D01*
X183024578Y-64091225D01*
X182770580Y-64260941D01*
X182571014Y-64343604D01*
X182488352Y-64377844D01*
X182188741Y-64437440D01*
X181883259Y-64437440D01*
X181583648Y-64377844D01*
X181500986Y-64343604D01*
X181301420Y-64260941D01*
X181047422Y-64091225D01*
X180831415Y-63875218D01*
X180661699Y-63621220D01*
X180544797Y-63338994D01*
X180544796Y-63338992D01*
X180485200Y-63039381D01*
X180485200Y-62733899D01*
X180544796Y-62434288D01*
X180661699Y-62152061D01*
X180661699Y-62152060D01*
X180831415Y-61898062D01*
X181047422Y-61682055D01*
X181301420Y-61512339D01*
X181583646Y-61395437D01*
X181583645Y-61395437D01*
X181583648Y-61395436D01*
X181883259Y-61335840D01*
X182188741Y-61335840D01*
X182488352Y-61395436D01*
G37*
G36*
X190488352Y-61395436D02*
G01*
X190488355Y-61395437D01*
X190488354Y-61395437D01*
X190770580Y-61512339D01*
X191024578Y-61682055D01*
X191240585Y-61898062D01*
X191410301Y-62152060D01*
X191410301Y-62152061D01*
X191527204Y-62434288D01*
X191586800Y-62733899D01*
X191586800Y-63039381D01*
X191527204Y-63338992D01*
X191527203Y-63338994D01*
X191410301Y-63621220D01*
X191240585Y-63875218D01*
X191024578Y-64091225D01*
X190770580Y-64260941D01*
X190571014Y-64343604D01*
X190488352Y-64377844D01*
X190188741Y-64437440D01*
X189883259Y-64437440D01*
X189583648Y-64377844D01*
X189500986Y-64343604D01*
X189301420Y-64260941D01*
X189047422Y-64091225D01*
X188831415Y-63875218D01*
X188661699Y-63621220D01*
X188544797Y-63338994D01*
X188544796Y-63338992D01*
X188485200Y-63039381D01*
X188485200Y-62733899D01*
X188544796Y-62434288D01*
X188661699Y-62152061D01*
X188661699Y-62152060D01*
X188831415Y-61898062D01*
X189047422Y-61682055D01*
X189301420Y-61512339D01*
X189583646Y-61395437D01*
X189583645Y-61395437D01*
X189583648Y-61395436D01*
X189883259Y-61335840D01*
X190188741Y-61335840D01*
X190488352Y-61395436D01*
G37*
M02*
