M48
; DRILL file {KiCad (5.1.9)-1} date 01/04/21 11:02:11
; FORMAT={-:-/ absolute / inch / decimal}
; #@! TF.CreationDate,2021-01-04T11:02:11-08:00
; #@! TF.GenerationSoftware,Kicad,Pcbnew,(5.1.9)-1
FMAT,2
INCH
T1C0.0100
T2C0.0150
T3C0.0197
T4C0.0200
T5C0.0394
T6C0.0472
T7C0.0819
T8C0.0866
T9C0.1260
%
G90
G05
T1
X5.165Y-4.38
X5.165Y-4.45
X5.19Y-4.21
X5.23Y-4.06
X5.295Y-3.26
X5.33Y-3.21
X5.3428Y-4.1622
X5.405Y-4.43
X5.4386Y-4.2064
X5.44Y-3.25
X5.4499Y-4.5451
X5.5448Y-4.3748
X5.575Y-4.72
X5.705Y-3.025
X5.87Y-3.295
X5.92Y-3.195
X6.075Y-3.045
X6.115Y-2.75
X6.1226Y-2.5674
X6.16Y-2.545
X6.17Y-2.92
X6.18Y-3.26
X6.2Y-2.89
X6.235Y-3.41
X6.3273Y-2.5427
X6.44Y-2.42
X6.6866Y-3.0184
X6.755Y-2.955
X6.76Y-3.275
X6.785Y-2.98
T2
X5.25Y-4.53
X5.25Y-4.705
X5.305Y-4.35
X5.4189Y-4.6289
X5.545Y-4.23
X5.63Y-4.075
X5.775Y-3.07
X5.865Y-3.255
X6.1106Y-2.935
X6.18Y-3.055
X6.455Y-3.63
X6.47Y-4.355
X6.48Y-3.525
X6.49Y-2.81
X6.6413Y-3.6387
X6.83Y-3.56
X6.83Y-3.63
T4
X6.42Y-3.955
X6.61Y-2.435
X6.615Y-3.795
T5
X5.26Y-3.605
X5.26Y-3.805
X5.56Y-3.605
X5.56Y-3.805
X5.66Y-3.605
X5.66Y-3.805
T6
X6.4282Y-4.167
X6.4282Y-4.567
T7
X5.9282Y-4.017
T8
X5.8282Y-4.717
T9
X5.2Y-2.22
X5.2Y-4.86
X5.875Y-3.675
X6.14Y-3.675
X6.84Y-2.22
X6.84Y-4.86
T3
G00X6.356Y-3.685
M15
G01X6.3835Y-3.685
M16
G05
G00X6.4583Y-3.7696
M15
G01X6.5017Y-3.7696
M16
G05
G00X6.5765Y-3.685
M15
G01X6.604Y-3.685
M16
G05
T0
M30
