G04 #@! TF.GenerationSoftware,KiCad,Pcbnew,(5.1.5)-3*
G04 #@! TF.CreationDate,2020-07-28T07:49:15-07:00*
G04 #@! TF.ProjectId,Plug_Pass,506c7567-5f50-4617-9373-2e6b69636164,v2.2*
G04 #@! TF.SameCoordinates,Original*
G04 #@! TF.FileFunction,Legend,Bot*
G04 #@! TF.FilePolarity,Positive*
%FSLAX46Y46*%
G04 Gerber Fmt 4.6, Leading zero omitted, Abs format (unit mm)*
G04 Created by KiCad (PCBNEW (5.1.5)-3) date 2020-07-28 07:49:15*
%MOMM*%
%LPD*%
G04 APERTURE LIST*
%ADD10C,0.300000*%
%ADD11C,0.150000*%
%ADD12C,0.250000*%
%ADD13C,0.120000*%
%ADD14C,0.100000*%
G04 APERTURE END LIST*
D10*
X174878857Y-60210000D02*
X175021714Y-60138571D01*
X175236000Y-60138571D01*
X175450285Y-60210000D01*
X175593142Y-60352857D01*
X175664571Y-60495714D01*
X175736000Y-60781428D01*
X175736000Y-60995714D01*
X175664571Y-61281428D01*
X175593142Y-61424285D01*
X175450285Y-61567142D01*
X175236000Y-61638571D01*
X175093142Y-61638571D01*
X174878857Y-61567142D01*
X174807428Y-61495714D01*
X174807428Y-60995714D01*
X175093142Y-60995714D01*
X174164571Y-61638571D02*
X174164571Y-60138571D01*
X173307428Y-61638571D01*
X173307428Y-60138571D01*
X172593142Y-61638571D02*
X172593142Y-60138571D01*
X172236000Y-60138571D01*
X172021714Y-60210000D01*
X171878857Y-60352857D01*
X171807428Y-60495714D01*
X171736000Y-60781428D01*
X171736000Y-60995714D01*
X171807428Y-61281428D01*
X171878857Y-61424285D01*
X172021714Y-61567142D01*
X172236000Y-61638571D01*
X172593142Y-61638571D01*
X133222857Y-60210000D02*
X133365714Y-60138571D01*
X133580000Y-60138571D01*
X133794285Y-60210000D01*
X133937142Y-60352857D01*
X134008571Y-60495714D01*
X134080000Y-60781428D01*
X134080000Y-60995714D01*
X134008571Y-61281428D01*
X133937142Y-61424285D01*
X133794285Y-61567142D01*
X133580000Y-61638571D01*
X133437142Y-61638571D01*
X133222857Y-61567142D01*
X133151428Y-61495714D01*
X133151428Y-60995714D01*
X133437142Y-60995714D01*
X132508571Y-61638571D02*
X132508571Y-60138571D01*
X131651428Y-61638571D01*
X131651428Y-60138571D01*
X130937142Y-61638571D02*
X130937142Y-60138571D01*
X130580000Y-60138571D01*
X130365714Y-60210000D01*
X130222857Y-60352857D01*
X130151428Y-60495714D01*
X130080000Y-60781428D01*
X130080000Y-60995714D01*
X130151428Y-61281428D01*
X130222857Y-61424285D01*
X130365714Y-61567142D01*
X130580000Y-61638571D01*
X130937142Y-61638571D01*
X133222857Y-118122000D02*
X133365714Y-118050571D01*
X133580000Y-118050571D01*
X133794285Y-118122000D01*
X133937142Y-118264857D01*
X134008571Y-118407714D01*
X134080000Y-118693428D01*
X134080000Y-118907714D01*
X134008571Y-119193428D01*
X133937142Y-119336285D01*
X133794285Y-119479142D01*
X133580000Y-119550571D01*
X133437142Y-119550571D01*
X133222857Y-119479142D01*
X133151428Y-119407714D01*
X133151428Y-118907714D01*
X133437142Y-118907714D01*
X132508571Y-119550571D02*
X132508571Y-118050571D01*
X131651428Y-119550571D01*
X131651428Y-118050571D01*
X130937142Y-119550571D02*
X130937142Y-118050571D01*
X130580000Y-118050571D01*
X130365714Y-118122000D01*
X130222857Y-118264857D01*
X130151428Y-118407714D01*
X130080000Y-118693428D01*
X130080000Y-118907714D01*
X130151428Y-119193428D01*
X130222857Y-119336285D01*
X130365714Y-119479142D01*
X130580000Y-119550571D01*
X130937142Y-119550571D01*
X174878857Y-118122000D02*
X175021714Y-118050571D01*
X175236000Y-118050571D01*
X175450285Y-118122000D01*
X175593142Y-118264857D01*
X175664571Y-118407714D01*
X175736000Y-118693428D01*
X175736000Y-118907714D01*
X175664571Y-119193428D01*
X175593142Y-119336285D01*
X175450285Y-119479142D01*
X175236000Y-119550571D01*
X175093142Y-119550571D01*
X174878857Y-119479142D01*
X174807428Y-119407714D01*
X174807428Y-118907714D01*
X175093142Y-118907714D01*
X174164571Y-119550571D02*
X174164571Y-118050571D01*
X173307428Y-119550571D01*
X173307428Y-118050571D01*
X172593142Y-119550571D02*
X172593142Y-118050571D01*
X172236000Y-118050571D01*
X172021714Y-118122000D01*
X171878857Y-118264857D01*
X171807428Y-118407714D01*
X171736000Y-118693428D01*
X171736000Y-118907714D01*
X171807428Y-119193428D01*
X171878857Y-119336285D01*
X172021714Y-119479142D01*
X172236000Y-119550571D01*
X172593142Y-119550571D01*
D11*
X164685714Y-109768142D02*
X164733333Y-109815761D01*
X164876190Y-109863380D01*
X164971428Y-109863380D01*
X165114285Y-109815761D01*
X165209523Y-109720523D01*
X165257142Y-109625285D01*
X165304761Y-109434809D01*
X165304761Y-109291952D01*
X165257142Y-109101476D01*
X165209523Y-109006238D01*
X165114285Y-108911000D01*
X164971428Y-108863380D01*
X164876190Y-108863380D01*
X164733333Y-108911000D01*
X164685714Y-108958619D01*
X164114285Y-109863380D02*
X164209523Y-109815761D01*
X164257142Y-109720523D01*
X164257142Y-108863380D01*
X163304761Y-109863380D02*
X163304761Y-109339571D01*
X163352380Y-109244333D01*
X163447619Y-109196714D01*
X163638095Y-109196714D01*
X163733333Y-109244333D01*
X163304761Y-109815761D02*
X163400000Y-109863380D01*
X163638095Y-109863380D01*
X163733333Y-109815761D01*
X163780952Y-109720523D01*
X163780952Y-109625285D01*
X163733333Y-109530047D01*
X163638095Y-109482428D01*
X163400000Y-109482428D01*
X163304761Y-109434809D01*
X162971428Y-109196714D02*
X162590476Y-109196714D01*
X162828571Y-108863380D02*
X162828571Y-109720523D01*
X162780952Y-109815761D01*
X162685714Y-109863380D01*
X162590476Y-109863380D01*
X162304761Y-109815761D02*
X162209523Y-109863380D01*
X162019047Y-109863380D01*
X161923809Y-109815761D01*
X161876190Y-109720523D01*
X161876190Y-109672904D01*
X161923809Y-109577666D01*
X162019047Y-109530047D01*
X162161904Y-109530047D01*
X162257142Y-109482428D01*
X162304761Y-109387190D01*
X162304761Y-109339571D01*
X162257142Y-109244333D01*
X162161904Y-109196714D01*
X162019047Y-109196714D01*
X161923809Y-109244333D01*
X161447619Y-109863380D02*
X161447619Y-108863380D01*
X161352380Y-109482428D02*
X161066666Y-109863380D01*
X161066666Y-109196714D02*
X161447619Y-109577666D01*
X160209523Y-109863380D02*
X160209523Y-109339571D01*
X160257142Y-109244333D01*
X160352380Y-109196714D01*
X160542857Y-109196714D01*
X160638095Y-109244333D01*
X160209523Y-109815761D02*
X160304761Y-109863380D01*
X160542857Y-109863380D01*
X160638095Y-109815761D01*
X160685714Y-109720523D01*
X160685714Y-109625285D01*
X160638095Y-109530047D01*
X160542857Y-109482428D01*
X160304761Y-109482428D01*
X160209523Y-109434809D01*
X159733333Y-109196714D02*
X159733333Y-109863380D01*
X159733333Y-109291952D02*
X159685714Y-109244333D01*
X159590476Y-109196714D01*
X159447619Y-109196714D01*
X159352380Y-109244333D01*
X159304761Y-109339571D01*
X159304761Y-109863380D01*
X158828571Y-109863380D02*
X158828571Y-109196714D01*
X158828571Y-108863380D02*
X158876190Y-108911000D01*
X158828571Y-108958619D01*
X158780952Y-108911000D01*
X158828571Y-108863380D01*
X158828571Y-108958619D01*
X157971428Y-109815761D02*
X158066666Y-109863380D01*
X158257142Y-109863380D01*
X158352380Y-109815761D01*
X158400000Y-109720523D01*
X158400000Y-109339571D01*
X158352380Y-109244333D01*
X158257142Y-109196714D01*
X158066666Y-109196714D01*
X157971428Y-109244333D01*
X157923809Y-109339571D01*
X157923809Y-109434809D01*
X158400000Y-109530047D01*
X156733333Y-109863380D02*
X156733333Y-108863380D01*
X156352380Y-108863380D01*
X156257142Y-108911000D01*
X156209523Y-108958619D01*
X156161904Y-109053857D01*
X156161904Y-109196714D01*
X156209523Y-109291952D01*
X156257142Y-109339571D01*
X156352380Y-109387190D01*
X156733333Y-109387190D01*
X155352380Y-109815761D02*
X155447619Y-109863380D01*
X155638095Y-109863380D01*
X155733333Y-109815761D01*
X155780952Y-109720523D01*
X155780952Y-109339571D01*
X155733333Y-109244333D01*
X155638095Y-109196714D01*
X155447619Y-109196714D01*
X155352380Y-109244333D01*
X155304761Y-109339571D01*
X155304761Y-109434809D01*
X155780952Y-109530047D01*
X154733333Y-109863380D02*
X154828571Y-109815761D01*
X154876190Y-109768142D01*
X154923809Y-109672904D01*
X154923809Y-109387190D01*
X154876190Y-109291952D01*
X154828571Y-109244333D01*
X154733333Y-109196714D01*
X154590476Y-109196714D01*
X154495238Y-109244333D01*
X154447619Y-109291952D01*
X154400000Y-109387190D01*
X154400000Y-109672904D01*
X154447619Y-109768142D01*
X154495238Y-109815761D01*
X154590476Y-109863380D01*
X154733333Y-109863380D01*
X153971428Y-109196714D02*
X153971428Y-110196714D01*
X153971428Y-109244333D02*
X153876190Y-109196714D01*
X153685714Y-109196714D01*
X153590476Y-109244333D01*
X153542857Y-109291952D01*
X153495238Y-109387190D01*
X153495238Y-109672904D01*
X153542857Y-109768142D01*
X153590476Y-109815761D01*
X153685714Y-109863380D01*
X153876190Y-109863380D01*
X153971428Y-109815761D01*
X152923809Y-109863380D02*
X153019047Y-109815761D01*
X153066666Y-109720523D01*
X153066666Y-108863380D01*
X152161904Y-109815761D02*
X152257142Y-109863380D01*
X152447619Y-109863380D01*
X152542857Y-109815761D01*
X152590476Y-109720523D01*
X152590476Y-109339571D01*
X152542857Y-109244333D01*
X152447619Y-109196714D01*
X152257142Y-109196714D01*
X152161904Y-109244333D01*
X152114285Y-109339571D01*
X152114285Y-109434809D01*
X152590476Y-109530047D01*
X151638095Y-108863380D02*
X151733333Y-109053857D01*
X151257142Y-109815761D02*
X151161904Y-109863380D01*
X150971428Y-109863380D01*
X150876190Y-109815761D01*
X150828571Y-109720523D01*
X150828571Y-109672904D01*
X150876190Y-109577666D01*
X150971428Y-109530047D01*
X151114285Y-109530047D01*
X151209523Y-109482428D01*
X151257142Y-109387190D01*
X151257142Y-109339571D01*
X151209523Y-109244333D01*
X151114285Y-109196714D01*
X150971428Y-109196714D01*
X150876190Y-109244333D01*
X149638095Y-108863380D02*
X149638095Y-109672904D01*
X149590476Y-109768142D01*
X149542857Y-109815761D01*
X149447619Y-109863380D01*
X149257142Y-109863380D01*
X149161904Y-109815761D01*
X149114285Y-109768142D01*
X149066666Y-109672904D01*
X149066666Y-108863380D01*
X148733333Y-109196714D02*
X148352380Y-109196714D01*
X148590476Y-108863380D02*
X148590476Y-109720523D01*
X148542857Y-109815761D01*
X148447619Y-109863380D01*
X148352380Y-109863380D01*
X148019047Y-109863380D02*
X148019047Y-109196714D01*
X148019047Y-108863380D02*
X148066666Y-108911000D01*
X148019047Y-108958619D01*
X147971428Y-108911000D01*
X148019047Y-108863380D01*
X148019047Y-108958619D01*
X147400000Y-109863380D02*
X147495238Y-109815761D01*
X147542857Y-109720523D01*
X147542857Y-108863380D01*
X147019047Y-109863380D02*
X147019047Y-109196714D01*
X147019047Y-108863380D02*
X147066666Y-108911000D01*
X147019047Y-108958619D01*
X146971428Y-108911000D01*
X147019047Y-108863380D01*
X147019047Y-108958619D01*
X146685714Y-109196714D02*
X146304761Y-109196714D01*
X146542857Y-108863380D02*
X146542857Y-109720523D01*
X146495238Y-109815761D01*
X146400000Y-109863380D01*
X146304761Y-109863380D01*
X146066666Y-109196714D02*
X145828571Y-109863380D01*
X145590476Y-109196714D02*
X145828571Y-109863380D01*
X145923809Y-110101476D01*
X145971428Y-110149095D01*
X146066666Y-110196714D01*
X144447619Y-109863380D02*
X144447619Y-108863380D01*
X144209523Y-108863380D01*
X144066666Y-108911000D01*
X143971428Y-109006238D01*
X143923809Y-109101476D01*
X143876190Y-109291952D01*
X143876190Y-109434809D01*
X143923809Y-109625285D01*
X143971428Y-109720523D01*
X144066666Y-109815761D01*
X144209523Y-109863380D01*
X144447619Y-109863380D01*
X143447619Y-109863380D02*
X143447619Y-109196714D01*
X143447619Y-108863380D02*
X143495238Y-108911000D01*
X143447619Y-108958619D01*
X143400000Y-108911000D01*
X143447619Y-108863380D01*
X143447619Y-108958619D01*
X143019047Y-109815761D02*
X142923809Y-109863380D01*
X142733333Y-109863380D01*
X142638095Y-109815761D01*
X142590476Y-109720523D01*
X142590476Y-109672904D01*
X142638095Y-109577666D01*
X142733333Y-109530047D01*
X142876190Y-109530047D01*
X142971428Y-109482428D01*
X143019047Y-109387190D01*
X143019047Y-109339571D01*
X142971428Y-109244333D01*
X142876190Y-109196714D01*
X142733333Y-109196714D01*
X142638095Y-109244333D01*
X142304761Y-109196714D02*
X141923809Y-109196714D01*
X142161904Y-108863380D02*
X142161904Y-109720523D01*
X142114285Y-109815761D01*
X142019047Y-109863380D01*
X141923809Y-109863380D01*
X141590476Y-109863380D02*
X141590476Y-109196714D01*
X141590476Y-109387190D02*
X141542857Y-109291952D01*
X141495238Y-109244333D01*
X141400000Y-109196714D01*
X141304761Y-109196714D01*
X140971428Y-109863380D02*
X140971428Y-109196714D01*
X140971428Y-108863380D02*
X141019047Y-108911000D01*
X140971428Y-108958619D01*
X140923809Y-108911000D01*
X140971428Y-108863380D01*
X140971428Y-108958619D01*
X140066666Y-109815761D02*
X140161904Y-109863380D01*
X140352380Y-109863380D01*
X140447619Y-109815761D01*
X140495238Y-109768142D01*
X140542857Y-109672904D01*
X140542857Y-109387190D01*
X140495238Y-109291952D01*
X140447619Y-109244333D01*
X140352380Y-109196714D01*
X140161904Y-109196714D01*
X140066666Y-109244333D01*
X139780952Y-109196714D02*
X139400000Y-109196714D01*
X139638095Y-108863380D02*
X139638095Y-109720523D01*
X139590476Y-109815761D01*
X139495238Y-109863380D01*
X139400000Y-109863380D01*
X169328571Y-111513380D02*
X169328571Y-110513380D01*
X168947619Y-110513380D01*
X168852380Y-110561000D01*
X168804761Y-110608619D01*
X168757142Y-110703857D01*
X168757142Y-110846714D01*
X168804761Y-110941952D01*
X168852380Y-110989571D01*
X168947619Y-111037190D01*
X169328571Y-111037190D01*
X168185714Y-111513380D02*
X168280952Y-111465761D01*
X168328571Y-111370523D01*
X168328571Y-110513380D01*
X167376190Y-110846714D02*
X167376190Y-111513380D01*
X167804761Y-110846714D02*
X167804761Y-111370523D01*
X167757142Y-111465761D01*
X167661904Y-111513380D01*
X167519047Y-111513380D01*
X167423809Y-111465761D01*
X167376190Y-111418142D01*
X166471428Y-110846714D02*
X166471428Y-111656238D01*
X166519047Y-111751476D01*
X166566666Y-111799095D01*
X166661904Y-111846714D01*
X166804761Y-111846714D01*
X166900000Y-111799095D01*
X166471428Y-111465761D02*
X166566666Y-111513380D01*
X166757142Y-111513380D01*
X166852380Y-111465761D01*
X166900000Y-111418142D01*
X166947619Y-111322904D01*
X166947619Y-111037190D01*
X166900000Y-110941952D01*
X166852380Y-110894333D01*
X166757142Y-110846714D01*
X166566666Y-110846714D01*
X166471428Y-110894333D01*
X165233333Y-111513380D02*
X165233333Y-110513380D01*
X164852380Y-110513380D01*
X164757142Y-110561000D01*
X164709523Y-110608619D01*
X164661904Y-110703857D01*
X164661904Y-110846714D01*
X164709523Y-110941952D01*
X164757142Y-110989571D01*
X164852380Y-111037190D01*
X165233333Y-111037190D01*
X163804761Y-111513380D02*
X163804761Y-110989571D01*
X163852380Y-110894333D01*
X163947619Y-110846714D01*
X164138095Y-110846714D01*
X164233333Y-110894333D01*
X163804761Y-111465761D02*
X163900000Y-111513380D01*
X164138095Y-111513380D01*
X164233333Y-111465761D01*
X164280952Y-111370523D01*
X164280952Y-111275285D01*
X164233333Y-111180047D01*
X164138095Y-111132428D01*
X163900000Y-111132428D01*
X163804761Y-111084809D01*
X163376190Y-111465761D02*
X163280952Y-111513380D01*
X163090476Y-111513380D01*
X162995238Y-111465761D01*
X162947619Y-111370523D01*
X162947619Y-111322904D01*
X162995238Y-111227666D01*
X163090476Y-111180047D01*
X163233333Y-111180047D01*
X163328571Y-111132428D01*
X163376190Y-111037190D01*
X163376190Y-110989571D01*
X163328571Y-110894333D01*
X163233333Y-110846714D01*
X163090476Y-110846714D01*
X162995238Y-110894333D01*
X162566666Y-111465761D02*
X162471428Y-111513380D01*
X162280952Y-111513380D01*
X162185714Y-111465761D01*
X162138095Y-111370523D01*
X162138095Y-111322904D01*
X162185714Y-111227666D01*
X162280952Y-111180047D01*
X162423809Y-111180047D01*
X162519047Y-111132428D01*
X162566666Y-111037190D01*
X162566666Y-110989571D01*
X162519047Y-110894333D01*
X162423809Y-110846714D01*
X162280952Y-110846714D01*
X162185714Y-110894333D01*
X160947619Y-111132428D02*
X160185714Y-111132428D01*
X158423809Y-111513380D02*
X158995238Y-111513380D01*
X158709523Y-111513380D02*
X158709523Y-110513380D01*
X158804761Y-110656238D01*
X158900000Y-110751476D01*
X158995238Y-110799095D01*
X158042857Y-110608619D02*
X157995238Y-110561000D01*
X157900000Y-110513380D01*
X157661904Y-110513380D01*
X157566666Y-110561000D01*
X157519047Y-110608619D01*
X157471428Y-110703857D01*
X157471428Y-110799095D01*
X157519047Y-110941952D01*
X158090476Y-111513380D01*
X157471428Y-111513380D01*
X156852380Y-110513380D02*
X156757142Y-110513380D01*
X156661904Y-110561000D01*
X156614285Y-110608619D01*
X156566666Y-110703857D01*
X156519047Y-110894333D01*
X156519047Y-111132428D01*
X156566666Y-111322904D01*
X156614285Y-111418142D01*
X156661904Y-111465761D01*
X156757142Y-111513380D01*
X156852380Y-111513380D01*
X156947619Y-111465761D01*
X156995238Y-111418142D01*
X157042857Y-111322904D01*
X157090476Y-111132428D01*
X157090476Y-110894333D01*
X157042857Y-110703857D01*
X156995238Y-110608619D01*
X156947619Y-110561000D01*
X156852380Y-110513380D01*
X156233333Y-110513380D02*
X155900000Y-111513380D01*
X155566666Y-110513380D01*
X153900000Y-111513380D02*
X154233333Y-111037190D01*
X154471428Y-111513380D02*
X154471428Y-110513380D01*
X154090476Y-110513380D01*
X153995238Y-110561000D01*
X153947619Y-110608619D01*
X153900000Y-110703857D01*
X153900000Y-110846714D01*
X153947619Y-110941952D01*
X153995238Y-110989571D01*
X154090476Y-111037190D01*
X154471428Y-111037190D01*
X153138095Y-110989571D02*
X153471428Y-110989571D01*
X153471428Y-111513380D02*
X153471428Y-110513380D01*
X152995238Y-110513380D01*
X152614285Y-111513380D02*
X152614285Y-110513380D01*
X152138095Y-111513380D02*
X152138095Y-110513380D01*
X151900000Y-110513380D01*
X151757142Y-110561000D01*
X151661904Y-110656238D01*
X151614285Y-110751476D01*
X151566666Y-110941952D01*
X151566666Y-111084809D01*
X151614285Y-111275285D01*
X151661904Y-111370523D01*
X151757142Y-111465761D01*
X151900000Y-111513380D01*
X152138095Y-111513380D01*
X149947619Y-111465761D02*
X150042857Y-111513380D01*
X150233333Y-111513380D01*
X150328571Y-111465761D01*
X150376190Y-111418142D01*
X150423809Y-111322904D01*
X150423809Y-111037190D01*
X150376190Y-110941952D01*
X150328571Y-110894333D01*
X150233333Y-110846714D01*
X150042857Y-110846714D01*
X149947619Y-110894333D01*
X149376190Y-111513380D02*
X149471428Y-111465761D01*
X149519047Y-111418142D01*
X149566666Y-111322904D01*
X149566666Y-111037190D01*
X149519047Y-110941952D01*
X149471428Y-110894333D01*
X149376190Y-110846714D01*
X149233333Y-110846714D01*
X149138095Y-110894333D01*
X149090476Y-110941952D01*
X149042857Y-111037190D01*
X149042857Y-111322904D01*
X149090476Y-111418142D01*
X149138095Y-111465761D01*
X149233333Y-111513380D01*
X149376190Y-111513380D01*
X148614285Y-110846714D02*
X148614285Y-111513380D01*
X148614285Y-110941952D02*
X148566666Y-110894333D01*
X148471428Y-110846714D01*
X148328571Y-110846714D01*
X148233333Y-110894333D01*
X148185714Y-110989571D01*
X148185714Y-111513380D01*
X147852380Y-110846714D02*
X147471428Y-110846714D01*
X147709523Y-110513380D02*
X147709523Y-111370523D01*
X147661904Y-111465761D01*
X147566666Y-111513380D01*
X147471428Y-111513380D01*
X147138095Y-111513380D02*
X147138095Y-110846714D01*
X147138095Y-111037190D02*
X147090476Y-110941952D01*
X147042857Y-110894333D01*
X146947619Y-110846714D01*
X146852380Y-110846714D01*
X146376190Y-111513380D02*
X146471428Y-111465761D01*
X146519047Y-111418142D01*
X146566666Y-111322904D01*
X146566666Y-111037190D01*
X146519047Y-110941952D01*
X146471428Y-110894333D01*
X146376190Y-110846714D01*
X146233333Y-110846714D01*
X146138095Y-110894333D01*
X146090476Y-110941952D01*
X146042857Y-111037190D01*
X146042857Y-111322904D01*
X146090476Y-111418142D01*
X146138095Y-111465761D01*
X146233333Y-111513380D01*
X146376190Y-111513380D01*
X145471428Y-111513380D02*
X145566666Y-111465761D01*
X145614285Y-111370523D01*
X145614285Y-110513380D01*
X144328571Y-111513380D02*
X144328571Y-110846714D01*
X144328571Y-110941952D02*
X144280952Y-110894333D01*
X144185714Y-110846714D01*
X144042857Y-110846714D01*
X143947619Y-110894333D01*
X143900000Y-110989571D01*
X143900000Y-111513380D01*
X143900000Y-110989571D02*
X143852380Y-110894333D01*
X143757142Y-110846714D01*
X143614285Y-110846714D01*
X143519047Y-110894333D01*
X143471428Y-110989571D01*
X143471428Y-111513380D01*
X142852380Y-111513380D02*
X142947619Y-111465761D01*
X142995238Y-111418142D01*
X143042857Y-111322904D01*
X143042857Y-111037190D01*
X142995238Y-110941952D01*
X142947619Y-110894333D01*
X142852380Y-110846714D01*
X142709523Y-110846714D01*
X142614285Y-110894333D01*
X142566666Y-110941952D01*
X142519047Y-111037190D01*
X142519047Y-111322904D01*
X142566666Y-111418142D01*
X142614285Y-111465761D01*
X142709523Y-111513380D01*
X142852380Y-111513380D01*
X141661904Y-111513380D02*
X141661904Y-110513380D01*
X141661904Y-111465761D02*
X141757142Y-111513380D01*
X141947619Y-111513380D01*
X142042857Y-111465761D01*
X142090476Y-111418142D01*
X142138095Y-111322904D01*
X142138095Y-111037190D01*
X142090476Y-110941952D01*
X142042857Y-110894333D01*
X141947619Y-110846714D01*
X141757142Y-110846714D01*
X141661904Y-110894333D01*
X140757142Y-110846714D02*
X140757142Y-111513380D01*
X141185714Y-110846714D02*
X141185714Y-111370523D01*
X141138095Y-111465761D01*
X141042857Y-111513380D01*
X140900000Y-111513380D01*
X140804761Y-111465761D01*
X140757142Y-111418142D01*
X140138095Y-111513380D02*
X140233333Y-111465761D01*
X140280952Y-111370523D01*
X140280952Y-110513380D01*
X139376190Y-111465761D02*
X139471428Y-111513380D01*
X139661904Y-111513380D01*
X139757142Y-111465761D01*
X139804761Y-111370523D01*
X139804761Y-110989571D01*
X139757142Y-110894333D01*
X139661904Y-110846714D01*
X139471428Y-110846714D01*
X139376190Y-110894333D01*
X139328571Y-110989571D01*
X139328571Y-111084809D01*
X139804761Y-111180047D01*
X138233333Y-110846714D02*
X137995238Y-111513380D01*
X137757142Y-110846714D01*
X137423809Y-110608619D02*
X137376190Y-110561000D01*
X137280952Y-110513380D01*
X137042857Y-110513380D01*
X136947619Y-110561000D01*
X136900000Y-110608619D01*
X136852380Y-110703857D01*
X136852380Y-110799095D01*
X136900000Y-110941952D01*
X137471428Y-111513380D01*
X136852380Y-111513380D01*
X136423809Y-111418142D02*
X136376190Y-111465761D01*
X136423809Y-111513380D01*
X136471428Y-111465761D01*
X136423809Y-111418142D01*
X136423809Y-111513380D01*
X135995238Y-110608619D02*
X135947619Y-110561000D01*
X135852380Y-110513380D01*
X135614285Y-110513380D01*
X135519047Y-110561000D01*
X135471428Y-110608619D01*
X135423809Y-110703857D01*
X135423809Y-110799095D01*
X135471428Y-110941952D01*
X136042857Y-111513380D01*
X135423809Y-111513380D01*
D12*
X135458200Y-53392800D02*
X167968200Y-53392800D01*
X135458200Y-80822800D02*
X167968200Y-80822800D01*
D13*
X129904000Y-106296000D02*
X129904000Y-80696000D01*
X129904000Y-80696000D02*
X175804000Y-80696000D01*
X129904000Y-106296000D02*
X175804000Y-106296000D01*
X175804000Y-106296000D02*
X175804000Y-80696000D01*
X129604000Y-95996000D02*
X129604000Y-93996000D01*
X136940000Y-117924000D02*
X136940000Y-122174000D01*
X156790000Y-117924000D02*
X136940000Y-117924000D01*
X156740000Y-122174000D02*
X156740000Y-117924000D01*
X156740000Y-126424000D02*
X156740000Y-122174000D01*
X136940000Y-126424000D02*
X156740000Y-126424000D01*
X136940000Y-122174000D02*
X136940000Y-126424000D01*
D14*
X169871000Y-126263000D02*
X169871000Y-125813000D01*
X169246000Y-126263000D02*
X169871000Y-126263000D01*
X169871000Y-118513000D02*
X169271000Y-118513000D01*
X169871000Y-118938000D02*
X169871000Y-118513000D01*
X169871000Y-118888000D02*
X169871000Y-118988000D01*
X157121000Y-126263000D02*
X157121000Y-125588000D01*
X157996000Y-126263000D02*
X157121000Y-126263000D01*
X157121000Y-118788000D02*
X157121000Y-119463000D01*
X157396000Y-118513000D02*
X157121000Y-118788000D01*
X157996000Y-118513000D02*
X157396000Y-118513000D01*
D11*
X134818380Y-71390000D02*
X134342190Y-71056666D01*
X134818380Y-70818571D02*
X133818380Y-70818571D01*
X133818380Y-71199523D01*
X133866000Y-71294761D01*
X133913619Y-71342380D01*
X134008857Y-71390000D01*
X134151714Y-71390000D01*
X134246952Y-71342380D01*
X134294571Y-71294761D01*
X134342190Y-71199523D01*
X134342190Y-70818571D01*
X134818380Y-72294761D02*
X134818380Y-71818571D01*
X133818380Y-71818571D01*
X134342190Y-72818571D02*
X134818380Y-72818571D01*
X133818380Y-72485238D02*
X134342190Y-72818571D01*
X133818380Y-73151904D01*
X134818380Y-74009047D02*
X134818380Y-73437619D01*
X134818380Y-73723333D02*
X133818380Y-73723333D01*
X133961238Y-73628095D01*
X134056476Y-73532857D01*
X134104095Y-73437619D01*
X133802285Y-80208380D02*
X133802285Y-79208380D01*
X133421333Y-79208380D01*
X133326095Y-79256000D01*
X133278476Y-79303619D01*
X133230857Y-79398857D01*
X133230857Y-79541714D01*
X133278476Y-79636952D01*
X133326095Y-79684571D01*
X133421333Y-79732190D01*
X133802285Y-79732190D01*
X132849904Y-80160761D02*
X132707047Y-80208380D01*
X132468952Y-80208380D01*
X132373714Y-80160761D01*
X132326095Y-80113142D01*
X132278476Y-80017904D01*
X132278476Y-79922666D01*
X132326095Y-79827428D01*
X132373714Y-79779809D01*
X132468952Y-79732190D01*
X132659428Y-79684571D01*
X132754666Y-79636952D01*
X132802285Y-79589333D01*
X132849904Y-79494095D01*
X132849904Y-79398857D01*
X132802285Y-79303619D01*
X132754666Y-79256000D01*
X132659428Y-79208380D01*
X132421333Y-79208380D01*
X132278476Y-79256000D01*
X131326095Y-80208380D02*
X131897523Y-80208380D01*
X131611809Y-80208380D02*
X131611809Y-79208380D01*
X131707047Y-79351238D01*
X131802285Y-79446476D01*
X131897523Y-79494095D01*
X154765333Y-116292380D02*
X154765333Y-117006666D01*
X154812952Y-117149523D01*
X154908190Y-117244761D01*
X155051047Y-117292380D01*
X155146285Y-117292380D01*
X153860571Y-116292380D02*
X154051047Y-116292380D01*
X154146285Y-116340000D01*
X154193904Y-116387619D01*
X154289142Y-116530476D01*
X154336761Y-116720952D01*
X154336761Y-117101904D01*
X154289142Y-117197142D01*
X154241523Y-117244761D01*
X154146285Y-117292380D01*
X153955809Y-117292380D01*
X153860571Y-117244761D01*
X153812952Y-117197142D01*
X153765333Y-117101904D01*
X153765333Y-116863809D01*
X153812952Y-116768571D01*
X153860571Y-116720952D01*
X153955809Y-116673333D01*
X154146285Y-116673333D01*
X154241523Y-116720952D01*
X154289142Y-116768571D01*
X154336761Y-116863809D01*
X136342380Y-120531142D02*
X135342380Y-120531142D01*
X136342380Y-121102571D01*
X135342380Y-121102571D01*
X135818571Y-121578761D02*
X135818571Y-121912095D01*
X136342380Y-122054952D02*
X136342380Y-121578761D01*
X135342380Y-121578761D01*
X135342380Y-122054952D01*
X135342380Y-122483523D02*
X136151904Y-122483523D01*
X136247142Y-122531142D01*
X136294761Y-122578761D01*
X136342380Y-122674000D01*
X136342380Y-122864476D01*
X136294761Y-122959714D01*
X136247142Y-123007333D01*
X136151904Y-123054952D01*
X135342380Y-123054952D01*
X135342380Y-123388285D02*
X135342380Y-123959714D01*
X136342380Y-123674000D02*
X135342380Y-123674000D01*
X169148000Y-117800380D02*
X169481333Y-117324190D01*
X169719428Y-117800380D02*
X169719428Y-116800380D01*
X169338476Y-116800380D01*
X169243238Y-116848000D01*
X169195619Y-116895619D01*
X169148000Y-116990857D01*
X169148000Y-117133714D01*
X169195619Y-117228952D01*
X169243238Y-117276571D01*
X169338476Y-117324190D01*
X169719428Y-117324190D01*
X168243238Y-117800380D02*
X168719428Y-117800380D01*
X168719428Y-116800380D01*
X167719428Y-117324190D02*
X167719428Y-117800380D01*
X168052761Y-116800380D02*
X167719428Y-117324190D01*
X167386095Y-116800380D01*
X167100380Y-116895619D02*
X167052761Y-116848000D01*
X166957523Y-116800380D01*
X166719428Y-116800380D01*
X166624190Y-116848000D01*
X166576571Y-116895619D01*
X166528952Y-116990857D01*
X166528952Y-117086095D01*
X166576571Y-117228952D01*
X167148000Y-117800380D01*
X166528952Y-117800380D01*
M02*
