M48
; DRILL file {KiCad (5.1.5)-3} date 2020-06-18 1:27:55 PM
; FORMAT={-:-/ absolute / inch / decimal}
; #@! TF.CreationDate,2020-06-18T13:27:55-07:00
; #@! TF.GenerationSoftware,Kicad,Pcbnew,(5.1.5)-3
FMAT,2
INCH
T1C0.0394
T2C0.0400
T3C0.0472
T4C0.0591
T5C0.0787
T6C0.0819
T7C0.0866
T8C0.1200
%
G90
G05
T1
X8.34Y-4.42
X8.34Y-4.52
X8.34Y-4.82
X8.54Y-4.42
X8.54Y-4.52
X8.54Y-4.82
T2
X8.38Y-3.86
X8.38Y-3.96
X8.38Y-4.06
X8.38Y-4.16
X8.48Y-3.86
X8.48Y-3.96
X8.48Y-4.06
X8.48Y-4.16
T3
X7.9532Y-3.942
X7.9532Y-4.342
T4
X7.0Y-2.7568
X7.0Y-3.18
X8.5157Y-2.7568
X8.5157Y-3.0717
T5
X7.38Y-4.94
X7.8721Y-4.94
T6
X7.4532Y-3.792
T7
X7.0532Y-4.492
X7.3532Y-4.492
T8
X8.58Y-5.1
X6.94Y-2.46
X6.94Y-5.1
X8.58Y-2.46
T0
M30
