G04 #@! TF.GenerationSoftware,KiCad,Pcbnew,(5.1.10)-1*
G04 #@! TF.CreationDate,2021-06-08T22:52:37-07:00*
G04 #@! TF.ProjectId,Plug_Pass,506c7567-5f50-4617-9373-2e6b69636164,v3.1*
G04 #@! TF.SameCoordinates,Original*
G04 #@! TF.FileFunction,Copper,L2,Bot*
G04 #@! TF.FilePolarity,Positive*
%FSLAX46Y46*%
G04 Gerber Fmt 4.6, Leading zero omitted, Abs format (unit mm)*
G04 Created by KiCad (PCBNEW (5.1.10)-1) date 2021-06-08 22:52:37*
%MOMM*%
%LPD*%
G01*
G04 APERTURE LIST*
G04 #@! TA.AperFunction,ComponentPad*
%ADD10C,1.030000*%
G04 #@! TD*
G04 #@! TA.AperFunction,ComponentPad*
%ADD11O,2.080000X1.040000*%
G04 #@! TD*
G04 #@! TA.AperFunction,ComponentPad*
%ADD12C,1.651000*%
G04 #@! TD*
G04 #@! TA.AperFunction,ComponentPad*
%ADD13R,1.651000X1.651000*%
G04 #@! TD*
G04 #@! TA.AperFunction,ComponentPad*
%ADD14O,1.700000X1.700000*%
G04 #@! TD*
G04 #@! TA.AperFunction,ComponentPad*
%ADD15R,1.700000X1.700000*%
G04 #@! TD*
G04 #@! TA.AperFunction,SMDPad,CuDef*
%ADD16R,1.500000X2.030000*%
G04 #@! TD*
G04 #@! TA.AperFunction,ComponentPad*
%ADD17R,6.000001X6.000001*%
G04 #@! TD*
G04 #@! TA.AperFunction,ComponentPad*
%ADD18O,2.200000X1.100000*%
G04 #@! TD*
G04 #@! TA.AperFunction,SMDPad,CuDef*
%ADD19R,1.400000X0.950000*%
G04 #@! TD*
G04 #@! TA.AperFunction,SMDPad,CuDef*
%ADD20R,0.750000X1.150000*%
G04 #@! TD*
G04 #@! TA.AperFunction,ComponentPad*
%ADD21C,2.500000*%
G04 #@! TD*
G04 #@! TA.AperFunction,ComponentPad*
%ADD22R,4.000000X4.000000*%
G04 #@! TD*
G04 #@! TA.AperFunction,ComponentPad*
%ADD23C,4.000000*%
G04 #@! TD*
G04 #@! TA.AperFunction,ComponentPad*
%ADD24C,2.000000*%
G04 #@! TD*
G04 #@! TA.AperFunction,ComponentPad*
%ADD25R,2.000000X2.000000*%
G04 #@! TD*
G04 #@! TA.AperFunction,ViaPad*
%ADD26C,0.762000*%
G04 #@! TD*
G04 #@! TA.AperFunction,ViaPad*
%ADD27C,0.508000*%
G04 #@! TD*
G04 #@! TA.AperFunction,ViaPad*
%ADD28C,1.160000*%
G04 #@! TD*
G04 #@! TA.AperFunction,Conductor*
%ADD29C,0.254000*%
G04 #@! TD*
G04 #@! TA.AperFunction,Conductor*
%ADD30C,0.177800*%
G04 #@! TD*
G04 #@! TA.AperFunction,Conductor*
%ADD31C,0.762000*%
G04 #@! TD*
G04 #@! TA.AperFunction,Conductor*
%ADD32C,0.100000*%
G04 #@! TD*
G04 APERTURE END LIST*
D10*
X154078000Y-57150000D03*
X149198000Y-57150000D03*
D11*
X132080000Y-73914000D03*
X132080000Y-75184000D03*
X132080000Y-76454000D03*
D12*
X172212000Y-104140000D03*
X172212000Y-101600000D03*
D13*
X172212000Y-99060000D03*
D14*
X131572000Y-62230000D03*
D15*
X131572000Y-64770000D03*
D16*
X137668000Y-86994000D03*
X140208000Y-86994000D03*
X142748000Y-86994000D03*
X145288000Y-86994000D03*
X157988000Y-86994000D03*
X163068000Y-86994000D03*
X168148000Y-86994000D03*
X137668000Y-58294000D03*
X140208000Y-58294000D03*
X142748000Y-58294000D03*
X145288000Y-58294000D03*
X157988000Y-58294000D03*
X163068000Y-58294000D03*
X168148000Y-58294000D03*
D17*
X173736000Y-123444000D03*
X173736000Y-56388000D03*
X132080000Y-123444000D03*
X132080000Y-56388000D03*
D18*
X167392000Y-93599000D03*
X161792000Y-93599000D03*
X164592000Y-95749000D03*
G04 #@! TA.AperFunction,SMDPad,CuDef*
G36*
G01*
X172446000Y-91740500D02*
X172446000Y-92663500D01*
G75*
G02*
X172432500Y-92677000I-13500J0D01*
G01*
X171559500Y-92677000D01*
G75*
G02*
X171546000Y-92663500I0J13500D01*
G01*
X171546000Y-91740500D01*
G75*
G02*
X171559500Y-91727000I13500J0D01*
G01*
X172432500Y-91727000D01*
G75*
G02*
X172446000Y-91740500I0J-13500D01*
G01*
G37*
G04 #@! TD.AperFunction*
G04 #@! TA.AperFunction,SMDPad,CuDef*
G36*
G01*
X170846000Y-91740500D02*
X170846000Y-92663500D01*
G75*
G02*
X170832500Y-92677000I-13500J0D01*
G01*
X169959500Y-92677000D01*
G75*
G02*
X169946000Y-92663500I0J13500D01*
G01*
X169946000Y-91740500D01*
G75*
G02*
X169959500Y-91727000I13500J0D01*
G01*
X170832500Y-91727000D01*
G75*
G02*
X170846000Y-91740500I0J-13500D01*
G01*
G37*
G04 #@! TD.AperFunction*
D19*
X172212000Y-108458000D03*
X172212000Y-112608000D03*
D20*
X170687000Y-108958000D03*
X173737000Y-108958000D03*
X170687000Y-112108000D03*
X173737000Y-112108000D03*
G04 #@! TA.AperFunction,SMDPad,CuDef*
G36*
G01*
X172446000Y-89962500D02*
X172446000Y-90885500D01*
G75*
G02*
X172432500Y-90899000I-13500J0D01*
G01*
X171559500Y-90899000D01*
G75*
G02*
X171546000Y-90885500I0J13500D01*
G01*
X171546000Y-89962500D01*
G75*
G02*
X171559500Y-89949000I13500J0D01*
G01*
X172432500Y-89949000D01*
G75*
G02*
X172446000Y-89962500I0J-13500D01*
G01*
G37*
G04 #@! TD.AperFunction*
G04 #@! TA.AperFunction,SMDPad,CuDef*
G36*
G01*
X170846000Y-89962500D02*
X170846000Y-90885500D01*
G75*
G02*
X170832500Y-90899000I-13500J0D01*
G01*
X169959500Y-90899000D01*
G75*
G02*
X169946000Y-90885500I0J13500D01*
G01*
X169946000Y-89962500D01*
G75*
G02*
X169959500Y-89949000I13500J0D01*
G01*
X170832500Y-89949000D01*
G75*
G02*
X170846000Y-89962500I0J-13500D01*
G01*
G37*
G04 #@! TD.AperFunction*
G04 #@! TA.AperFunction,SMDPad,CuDef*
G36*
G01*
X150127000Y-59609700D02*
X150127000Y-59008300D01*
G75*
G02*
X150136300Y-58999000I9300J0D01*
G01*
X150737700Y-58999000D01*
G75*
G02*
X150747000Y-59008300I0J-9300D01*
G01*
X150747000Y-59609700D01*
G75*
G02*
X150737700Y-59619000I-9300J0D01*
G01*
X150136300Y-59619000D01*
G75*
G02*
X150127000Y-59609700I0J9300D01*
G01*
G37*
G04 #@! TD.AperFunction*
G04 #@! TA.AperFunction,SMDPad,CuDef*
G36*
G01*
X149227000Y-59609700D02*
X149227000Y-59008300D01*
G75*
G02*
X149236300Y-58999000I9300J0D01*
G01*
X149837700Y-58999000D01*
G75*
G02*
X149847000Y-59008300I0J-9300D01*
G01*
X149847000Y-59609700D01*
G75*
G02*
X149837700Y-59619000I-9300J0D01*
G01*
X149236300Y-59619000D01*
G75*
G02*
X149227000Y-59609700I0J9300D01*
G01*
G37*
G04 #@! TD.AperFunction*
G04 #@! TA.AperFunction,SMDPad,CuDef*
G36*
G01*
X154285000Y-59228500D02*
X154285000Y-60151500D01*
G75*
G02*
X154271500Y-60165000I-13500J0D01*
G01*
X153398500Y-60165000D01*
G75*
G02*
X153385000Y-60151500I0J13500D01*
G01*
X153385000Y-59228500D01*
G75*
G02*
X153398500Y-59215000I13500J0D01*
G01*
X154271500Y-59215000D01*
G75*
G02*
X154285000Y-59228500I0J-13500D01*
G01*
G37*
G04 #@! TD.AperFunction*
G04 #@! TA.AperFunction,SMDPad,CuDef*
G36*
G01*
X152685000Y-59228500D02*
X152685000Y-60151500D01*
G75*
G02*
X152671500Y-60165000I-13500J0D01*
G01*
X151798500Y-60165000D01*
G75*
G02*
X151785000Y-60151500I0J13500D01*
G01*
X151785000Y-59228500D01*
G75*
G02*
X151798500Y-59215000I13500J0D01*
G01*
X152671500Y-59215000D01*
G75*
G02*
X152685000Y-59228500I0J-13500D01*
G01*
G37*
G04 #@! TD.AperFunction*
G04 #@! TA.AperFunction,SMDPad,CuDef*
G36*
G01*
X173816300Y-77425000D02*
X174417700Y-77425000D01*
G75*
G02*
X174427000Y-77434300I0J-9300D01*
G01*
X174427000Y-78035700D01*
G75*
G02*
X174417700Y-78045000I-9300J0D01*
G01*
X173816300Y-78045000D01*
G75*
G02*
X173807000Y-78035700I0J9300D01*
G01*
X173807000Y-77434300D01*
G75*
G02*
X173816300Y-77425000I9300J0D01*
G01*
G37*
G04 #@! TD.AperFunction*
G04 #@! TA.AperFunction,SMDPad,CuDef*
G36*
G01*
X173816300Y-76525000D02*
X174417700Y-76525000D01*
G75*
G02*
X174427000Y-76534300I0J-9300D01*
G01*
X174427000Y-77135700D01*
G75*
G02*
X174417700Y-77145000I-9300J0D01*
G01*
X173816300Y-77145000D01*
G75*
G02*
X173807000Y-77135700I0J9300D01*
G01*
X173807000Y-76534300D01*
G75*
G02*
X173816300Y-76525000I9300J0D01*
G01*
G37*
G04 #@! TD.AperFunction*
G04 #@! TA.AperFunction,SMDPad,CuDef*
G36*
G01*
X150127000Y-60879700D02*
X150127000Y-60278300D01*
G75*
G02*
X150136300Y-60269000I9300J0D01*
G01*
X150737700Y-60269000D01*
G75*
G02*
X150747000Y-60278300I0J-9300D01*
G01*
X150747000Y-60879700D01*
G75*
G02*
X150737700Y-60889000I-9300J0D01*
G01*
X150136300Y-60889000D01*
G75*
G02*
X150127000Y-60879700I0J9300D01*
G01*
G37*
G04 #@! TD.AperFunction*
G04 #@! TA.AperFunction,SMDPad,CuDef*
G36*
G01*
X149227000Y-60879700D02*
X149227000Y-60278300D01*
G75*
G02*
X149236300Y-60269000I9300J0D01*
G01*
X149837700Y-60269000D01*
G75*
G02*
X149847000Y-60278300I0J-9300D01*
G01*
X149847000Y-60879700D01*
G75*
G02*
X149837700Y-60889000I-9300J0D01*
G01*
X149236300Y-60889000D01*
G75*
G02*
X149227000Y-60879700I0J9300D01*
G01*
G37*
G04 #@! TD.AperFunction*
D21*
X163275200Y-105841800D03*
X163275200Y-116001800D03*
D22*
X150575200Y-102031800D03*
D23*
X148035200Y-119811800D03*
D17*
X149225000Y-93345000D03*
X155956000Y-93345000D03*
D24*
X133604000Y-91567000D03*
X141224000Y-91567000D03*
X133604000Y-96647000D03*
X141224000Y-96647000D03*
X143764000Y-91567000D03*
D25*
X143764000Y-96647000D03*
D26*
X156972000Y-67564000D03*
D27*
X131826000Y-106934000D03*
X138427500Y-115445500D03*
D26*
X161290000Y-66548000D03*
X165862000Y-69342000D03*
D27*
X136652000Y-116840000D03*
X160528000Y-81788000D03*
X154686000Y-84582000D03*
X134366000Y-109982000D03*
D26*
X146050000Y-82296000D03*
D27*
X132842000Y-103124000D03*
D26*
X156972000Y-77597000D03*
X143002000Y-103505000D03*
D27*
X138684000Y-105664000D03*
D28*
X161544000Y-101092000D03*
D27*
X162560000Y-61214000D03*
X135706000Y-105156000D03*
D26*
X163068000Y-65532000D03*
X172212000Y-85090000D03*
X146558000Y-111760000D03*
X149098000Y-109728000D03*
X144526000Y-116332000D03*
X168688500Y-92423500D03*
X153924000Y-69342000D03*
X163068000Y-71882000D03*
X166246000Y-116456000D03*
X153954100Y-66324100D03*
D27*
X171704000Y-83185000D03*
X171577000Y-75057000D03*
D26*
X139700000Y-114300000D03*
X162052000Y-110236000D03*
D27*
X155956000Y-75692000D03*
X160020000Y-83820000D03*
D26*
X152584000Y-76638000D03*
X149860000Y-82804000D03*
X147066000Y-80518000D03*
X149860000Y-81280000D03*
X136398000Y-81534000D03*
X136398000Y-78994000D03*
D27*
X157480000Y-73406000D03*
X169839000Y-76668000D03*
X156718000Y-74168000D03*
X172339000Y-75692000D03*
X140839000Y-111121000D03*
X141605000Y-119888000D03*
D26*
X133350000Y-115062000D03*
X140843000Y-107442000D03*
X164592000Y-89535000D03*
X163957000Y-92202000D03*
X138176000Y-55372000D03*
X138938000Y-74930000D03*
X137640000Y-117574000D03*
X133350000Y-119507000D03*
X173482000Y-90424000D03*
X173482000Y-92202000D03*
D27*
X131190999Y-111251999D03*
D26*
X132588000Y-81534000D03*
D27*
X131191000Y-113030000D03*
D26*
X132588000Y-82804000D03*
X155956000Y-73406000D03*
X148590000Y-74168000D03*
D29*
X132334000Y-106426000D02*
X131826000Y-106934000D01*
X136017000Y-106426000D02*
X132334000Y-106426000D01*
X136652000Y-111041566D02*
X136652000Y-107061000D01*
X133393566Y-114300000D02*
X136652000Y-111041566D01*
X132461001Y-114823237D02*
X132984238Y-114300000D01*
X138427500Y-115445500D02*
X138068290Y-115445500D01*
X136652000Y-107061000D02*
X136017000Y-106426000D01*
X132984238Y-114300000D02*
X133393566Y-114300000D01*
X138068290Y-115445500D02*
X137689789Y-115824001D01*
X132461001Y-115824001D02*
X132461001Y-114823237D01*
X161290000Y-66548000D02*
X161290000Y-68072000D01*
X161290000Y-68072000D02*
X162560000Y-69342000D01*
X162560000Y-69342000D02*
X165862000Y-69342000D01*
D30*
X136651999Y-116480789D02*
X136651999Y-115824001D01*
X136652000Y-116840000D02*
X136651999Y-116480789D01*
D29*
X136651999Y-115824001D02*
X132461001Y-115824001D01*
X137689789Y-115824001D02*
X136651999Y-115824001D01*
X172974000Y-69342000D02*
X165862000Y-69342000D01*
X174752000Y-69342000D02*
X172974000Y-69342000D01*
X164338000Y-124460000D02*
X176022000Y-112776000D01*
X139700000Y-121412000D02*
X142748000Y-124460000D01*
X142748000Y-124460000D02*
X164338000Y-124460000D01*
X139700000Y-116718000D02*
X139700000Y-121412000D01*
X176022000Y-70612000D02*
X174752000Y-69342000D01*
X138427500Y-115445500D02*
X139700000Y-116718000D01*
X172212000Y-101600000D02*
X176022000Y-101600000D01*
X176022000Y-101600000D02*
X176022000Y-70612000D01*
X176022000Y-112776000D02*
X176022000Y-101600000D01*
X168688500Y-92423500D02*
X169323500Y-92423500D01*
X169545000Y-92202000D02*
X170396000Y-92202000D01*
X169323500Y-92423500D02*
X169545000Y-92202000D01*
X170396000Y-92202000D02*
X170396000Y-90424000D01*
X149537000Y-60579000D02*
X149537000Y-59309000D01*
X153670000Y-69342000D02*
X153924000Y-69342000D01*
X153924000Y-69342000D02*
X153924000Y-69342000D01*
X153924000Y-69342000D02*
X159258000Y-69342000D01*
X160528000Y-69342000D02*
X163068000Y-71882000D01*
X163068000Y-71882000D02*
X163068000Y-71882000D01*
X149227000Y-60579000D02*
X149537000Y-60579000D01*
X148465000Y-61341000D02*
X149227000Y-60579000D01*
X143510000Y-61341000D02*
X148465000Y-61341000D01*
X142748000Y-60579000D02*
X143510000Y-61341000D01*
X142748000Y-58294000D02*
X142748000Y-60579000D01*
X149537000Y-62542000D02*
X149537000Y-60579000D01*
X153319100Y-66324100D02*
X149537000Y-62542000D01*
X153954100Y-66324100D02*
X153319100Y-66324100D01*
X159258000Y-69342000D02*
X160528000Y-69342000D01*
X174117000Y-77735000D02*
X174117000Y-80772000D01*
X174117000Y-80772000D02*
X171704000Y-83185000D01*
X171704000Y-83185000D02*
X171704000Y-83185000D01*
X171577000Y-75057000D02*
X173228000Y-75057000D01*
X174117000Y-75946000D02*
X174117000Y-76835000D01*
X173228000Y-75057000D02*
X174117000Y-75946000D01*
X172339000Y-99398000D02*
X172339000Y-98669000D01*
X163275200Y-102662800D02*
X163275200Y-105841800D01*
X168688500Y-92423500D02*
X169418000Y-93153000D01*
X163275200Y-101758562D02*
X163275200Y-102662800D01*
X169418000Y-95615762D02*
X163275200Y-101758562D01*
X169418000Y-93153000D02*
X169418000Y-95615762D01*
X141224000Y-96647000D02*
X141224000Y-99822000D01*
X147243800Y-105841800D02*
X163275200Y-105841800D01*
X141224000Y-99822000D02*
X147243800Y-105841800D01*
X163275200Y-105841800D02*
X166370000Y-108936600D01*
X166370000Y-116332000D02*
X166246000Y-116456000D01*
X166370000Y-108936600D02*
X166370000Y-116332000D01*
X155956000Y-75692000D02*
X155956000Y-79756000D01*
X155956000Y-79756000D02*
X160020000Y-83820000D01*
X160020000Y-83820000D02*
X160020000Y-83820000D01*
D30*
X173917498Y-76835000D02*
X174117000Y-76835000D01*
X166932498Y-83820000D02*
X173917498Y-76835000D01*
X160020000Y-83820000D02*
X166932498Y-83820000D01*
D29*
X170180000Y-106426000D02*
X172212000Y-108458000D01*
X170180000Y-97536000D02*
X170180000Y-106426000D01*
X175006000Y-92710000D02*
X170180000Y-97536000D01*
X175006000Y-77414000D02*
X175006000Y-92710000D01*
X174427000Y-76835000D02*
X175006000Y-77414000D01*
X174117000Y-76835000D02*
X174427000Y-76835000D01*
X152584000Y-76638000D02*
X152584000Y-80080000D01*
X152584000Y-80080000D02*
X149860000Y-82804000D01*
X149860000Y-82804000D02*
X149860000Y-82804000D01*
X147066000Y-80518000D02*
X147828000Y-81280000D01*
X147828000Y-81280000D02*
X149860000Y-81280000D01*
X149860000Y-81280000D02*
X149860000Y-81280000D01*
X136398000Y-81534000D02*
X136398000Y-78994000D01*
X136398000Y-78994000D02*
X136398000Y-78994000D01*
X158191198Y-73406000D02*
X157480000Y-73406000D01*
X161453198Y-76668000D02*
X158191198Y-73406000D01*
X169839000Y-76668000D02*
X161453198Y-76668000D01*
X161369765Y-77303001D02*
X158234764Y-74168000D01*
X158234764Y-74168000D02*
X156718000Y-74168000D01*
X172251999Y-75779001D02*
X172339000Y-75692000D01*
X161369765Y-77303001D02*
X171616999Y-77303001D01*
X172339000Y-76581000D02*
X172339000Y-75692000D01*
X171616999Y-77303001D02*
X172339000Y-76581000D01*
D31*
X155956000Y-93345000D02*
X159718000Y-93345000D01*
X163068000Y-89916000D02*
X163068000Y-86994000D01*
X159718000Y-93266000D02*
X163068000Y-89916000D01*
X159718000Y-93345000D02*
X159718000Y-93266000D01*
X168148000Y-89967143D02*
X168148000Y-86994000D01*
X156083343Y-102031800D02*
X168148000Y-89967143D01*
X150575200Y-102031800D02*
X156083343Y-102031800D01*
D29*
X140839000Y-119122000D02*
X141605000Y-119888000D01*
X140839000Y-111121000D02*
X140839000Y-119122000D01*
X140843000Y-107569000D02*
X140843000Y-107442000D01*
X133350000Y-115062000D02*
X140843000Y-107569000D01*
X163957000Y-90170000D02*
X164592000Y-89535000D01*
X163957000Y-92202000D02*
X163957000Y-90170000D01*
X138176000Y-55372000D02*
X136906000Y-55372000D01*
X136906000Y-55372000D02*
X135890000Y-56388000D01*
X135890000Y-56388000D02*
X135890000Y-71882000D01*
X135890000Y-71882000D02*
X138938000Y-74930000D01*
X138938000Y-74930000D02*
X138938000Y-74930000D01*
X150437000Y-59309000D02*
X151130000Y-59309000D01*
X151511000Y-59690000D02*
X152235000Y-59690000D01*
X151130000Y-59309000D02*
X151511000Y-59690000D01*
X135707000Y-119507000D02*
X137640000Y-117574000D01*
X133350000Y-119507000D02*
X135707000Y-119507000D01*
X171996000Y-90424000D02*
X173482000Y-90424000D01*
X173482000Y-90424000D02*
X173482000Y-90424000D01*
X171996000Y-92202000D02*
X172446000Y-92202000D01*
X172446000Y-92202000D02*
X173482000Y-92202000D01*
X173482000Y-92202000D02*
X173482000Y-92202000D01*
X131190999Y-111251999D02*
X131190999Y-111251999D01*
X133350000Y-82296000D02*
X132588000Y-81534000D01*
X133350000Y-86360000D02*
X133350000Y-82296000D01*
X131190999Y-88519001D02*
X133350000Y-86360000D01*
X131190999Y-111251999D02*
X131190999Y-88519001D01*
X132588000Y-86106000D02*
X132588000Y-82804000D01*
X130555998Y-88138002D02*
X132588000Y-86106000D01*
X130555998Y-112394998D02*
X130555998Y-88138002D01*
X131191000Y-113030000D02*
X130555998Y-112394998D01*
X133604000Y-91567000D02*
X133604000Y-96647000D01*
X152958800Y-116001800D02*
X163275200Y-116001800D01*
X133604000Y-96647000D02*
X152958800Y-116001800D01*
X155956000Y-73406000D02*
X149352000Y-73406000D01*
X149352000Y-73406000D02*
X148590000Y-74168000D01*
X148590000Y-74168000D02*
X148590000Y-74168000D01*
X148590000Y-74168000D02*
X148590000Y-74168000D01*
X133374000Y-75184000D02*
X133858000Y-74700000D01*
X132080000Y-75184000D02*
X133374000Y-75184000D01*
X133858000Y-74700000D02*
X133858000Y-70866000D01*
X131572000Y-68580000D02*
X131572000Y-64770000D01*
X133858000Y-70866000D02*
X131572000Y-68580000D01*
X130786000Y-73914000D02*
X132080000Y-73914000D01*
X130159762Y-74540238D02*
X130786000Y-73914000D01*
X130159762Y-77978000D02*
X130159762Y-74540238D01*
X135128000Y-82946238D02*
X130159762Y-77978000D01*
X135128000Y-88392000D02*
X135128000Y-82946238D01*
X138303000Y-91567000D02*
X135128000Y-88392000D01*
X141224000Y-91567000D02*
X138303000Y-91567000D01*
X131894646Y-80790514D02*
X131798821Y-80886338D01*
X131687632Y-81052744D01*
X131611044Y-81237644D01*
X131572000Y-81433933D01*
X131572000Y-81634067D01*
X131611044Y-81830356D01*
X131687632Y-82015256D01*
X131790361Y-82169000D01*
X131687632Y-82322744D01*
X131611044Y-82507644D01*
X131572000Y-82703933D01*
X131572000Y-82904067D01*
X131611044Y-83100356D01*
X131687632Y-83285256D01*
X131798821Y-83451662D01*
X131826001Y-83478842D01*
X131826000Y-85790369D01*
X130043647Y-87572723D01*
X130014577Y-87596580D01*
X129990720Y-87625650D01*
X129990719Y-87625651D01*
X129919353Y-87712610D01*
X129848597Y-87844987D01*
X129805025Y-87988624D01*
X129790312Y-88138002D01*
X129793999Y-88175435D01*
X129793998Y-112357575D01*
X129790312Y-112394998D01*
X129793998Y-112432421D01*
X129793998Y-112432423D01*
X129805024Y-112544375D01*
X129848596Y-112688012D01*
X129848597Y-112688013D01*
X129919353Y-112820390D01*
X129958981Y-112868676D01*
X130014576Y-112936420D01*
X130043651Y-112960281D01*
X130327097Y-113243727D01*
X130336164Y-113289312D01*
X130403179Y-113451099D01*
X130500469Y-113596704D01*
X130624296Y-113720531D01*
X130769901Y-113817821D01*
X130931688Y-113884836D01*
X131103441Y-113919000D01*
X131278559Y-113919000D01*
X131450312Y-113884836D01*
X131612099Y-113817821D01*
X131757704Y-113720531D01*
X131881531Y-113596704D01*
X131978821Y-113451099D01*
X132045836Y-113289312D01*
X132080000Y-113117559D01*
X132080000Y-112942441D01*
X132045836Y-112770688D01*
X131978821Y-112608901D01*
X131881531Y-112463296D01*
X131757704Y-112339469D01*
X131612099Y-112242179D01*
X131450312Y-112175164D01*
X131404727Y-112166097D01*
X131362861Y-112124230D01*
X131450311Y-112106835D01*
X131612098Y-112039820D01*
X131757703Y-111942530D01*
X131881530Y-111818703D01*
X131978820Y-111673098D01*
X132045835Y-111511311D01*
X132079999Y-111339558D01*
X132079999Y-111164440D01*
X132045835Y-110992687D01*
X131978820Y-110830900D01*
X131952999Y-110792256D01*
X131952999Y-107815155D01*
X132085312Y-107788836D01*
X132247099Y-107721821D01*
X132392704Y-107624531D01*
X132516531Y-107500704D01*
X132613821Y-107355099D01*
X132680836Y-107193312D01*
X132681893Y-107188000D01*
X135701370Y-107188000D01*
X135890001Y-107376631D01*
X135890000Y-110725936D01*
X133077936Y-113538000D01*
X133021661Y-113538000D01*
X132984238Y-113534314D01*
X132946815Y-113538000D01*
X132946812Y-113538000D01*
X132834860Y-113549026D01*
X132691223Y-113592598D01*
X132652049Y-113613537D01*
X132558845Y-113663355D01*
X132488517Y-113721072D01*
X132442816Y-113758578D01*
X132418958Y-113787649D01*
X131948650Y-114257958D01*
X131919580Y-114281815D01*
X131895723Y-114310885D01*
X131895722Y-114310886D01*
X131824356Y-114397845D01*
X131753600Y-114530222D01*
X131710028Y-114673859D01*
X131695315Y-114823237D01*
X131699002Y-114860670D01*
X131699001Y-115786575D01*
X131695315Y-115824001D01*
X131710027Y-115973379D01*
X131753599Y-116117016D01*
X131824356Y-116249393D01*
X131911791Y-116355933D01*
X131919579Y-116365423D01*
X132035609Y-116460646D01*
X132167986Y-116531403D01*
X132311623Y-116574975D01*
X132461001Y-116589687D01*
X132498426Y-116586001D01*
X135796107Y-116586001D01*
X135763000Y-116752441D01*
X135763000Y-116927559D01*
X135797164Y-117099312D01*
X135864179Y-117261099D01*
X135961469Y-117406704D01*
X136085296Y-117530531D01*
X136230901Y-117627821D01*
X136392688Y-117694836D01*
X136433429Y-117702940D01*
X135391370Y-118745000D01*
X134024841Y-118745000D01*
X133997662Y-118717821D01*
X133831256Y-118606632D01*
X133646356Y-118530044D01*
X133450067Y-118491000D01*
X133249933Y-118491000D01*
X133053644Y-118530044D01*
X132868744Y-118606632D01*
X132702338Y-118717821D01*
X132560821Y-118859338D01*
X132449632Y-119025744D01*
X132373044Y-119210644D01*
X132334000Y-119406933D01*
X132334000Y-119607067D01*
X132373044Y-119803356D01*
X132375377Y-119808989D01*
X132365750Y-119809000D01*
X132207000Y-119967750D01*
X132207000Y-123317000D01*
X135556250Y-123317000D01*
X135715000Y-123158250D01*
X135718072Y-120444000D01*
X135705812Y-120319518D01*
X135691132Y-120271123D01*
X135707000Y-120272686D01*
X135744423Y-120269000D01*
X135744426Y-120269000D01*
X135856378Y-120257974D01*
X136000015Y-120214402D01*
X136132392Y-120143645D01*
X136248422Y-120048422D01*
X136272284Y-120019346D01*
X137701631Y-118590000D01*
X137740067Y-118590000D01*
X137936356Y-118550956D01*
X138121256Y-118474368D01*
X138287662Y-118363179D01*
X138429179Y-118221662D01*
X138540368Y-118055256D01*
X138616956Y-117870356D01*
X138656000Y-117674067D01*
X138656000Y-117473933D01*
X138616956Y-117277644D01*
X138540368Y-117092744D01*
X138429179Y-116926338D01*
X138287662Y-116784821D01*
X138121256Y-116673632D01*
X137936356Y-116597044D01*
X137829964Y-116575881D01*
X137839167Y-116574975D01*
X137982804Y-116531403D01*
X138115181Y-116460646D01*
X138231211Y-116365423D01*
X138248602Y-116344232D01*
X138938000Y-117033631D01*
X138938001Y-121374567D01*
X138934314Y-121412000D01*
X138949027Y-121561378D01*
X138992599Y-121705015D01*
X139063355Y-121837392D01*
X139134721Y-121924351D01*
X139158579Y-121953422D01*
X139187649Y-121977279D01*
X142182721Y-124972352D01*
X142206578Y-125001422D01*
X142235648Y-125025279D01*
X142322607Y-125096645D01*
X142393364Y-125134465D01*
X142454985Y-125167402D01*
X142598622Y-125210974D01*
X142710574Y-125222000D01*
X142710577Y-125222000D01*
X142748000Y-125225686D01*
X142785423Y-125222000D01*
X164300577Y-125222000D01*
X164338000Y-125225686D01*
X164375423Y-125222000D01*
X164375426Y-125222000D01*
X164487378Y-125210974D01*
X164631015Y-125167402D01*
X164763392Y-125096645D01*
X164879422Y-125001422D01*
X164903284Y-124972346D01*
X169431630Y-120444000D01*
X170097928Y-120444000D01*
X170101000Y-123158250D01*
X170259750Y-123317000D01*
X173609000Y-123317000D01*
X173609000Y-119967750D01*
X173450250Y-119809000D01*
X170736000Y-119805928D01*
X170611518Y-119818188D01*
X170491820Y-119854498D01*
X170381506Y-119913463D01*
X170284815Y-119992815D01*
X170205463Y-120089506D01*
X170146498Y-120199820D01*
X170110188Y-120319518D01*
X170097928Y-120444000D01*
X169431630Y-120444000D01*
X176136301Y-113739330D01*
X176136301Y-119806607D01*
X174021750Y-119809000D01*
X173863000Y-119967750D01*
X173863000Y-123317000D01*
X173883000Y-123317000D01*
X173883000Y-123571000D01*
X173863000Y-123571000D01*
X173863000Y-123591000D01*
X173609000Y-123591000D01*
X173609000Y-123571000D01*
X170259750Y-123571000D01*
X170101000Y-123729750D01*
X170098607Y-125844300D01*
X135717393Y-125844300D01*
X135715000Y-123729750D01*
X135556250Y-123571000D01*
X132207000Y-123571000D01*
X132207000Y-123591000D01*
X131953000Y-123591000D01*
X131953000Y-123571000D01*
X131933000Y-123571000D01*
X131933000Y-123317000D01*
X131953000Y-123317000D01*
X131953000Y-119967750D01*
X131794250Y-119809000D01*
X129679700Y-119806607D01*
X129679700Y-78575568D01*
X131894646Y-80790514D01*
G04 #@! TA.AperFunction,Conductor*
D32*
G36*
X131894646Y-80790514D02*
G01*
X131798821Y-80886338D01*
X131687632Y-81052744D01*
X131611044Y-81237644D01*
X131572000Y-81433933D01*
X131572000Y-81634067D01*
X131611044Y-81830356D01*
X131687632Y-82015256D01*
X131790361Y-82169000D01*
X131687632Y-82322744D01*
X131611044Y-82507644D01*
X131572000Y-82703933D01*
X131572000Y-82904067D01*
X131611044Y-83100356D01*
X131687632Y-83285256D01*
X131798821Y-83451662D01*
X131826001Y-83478842D01*
X131826000Y-85790369D01*
X130043647Y-87572723D01*
X130014577Y-87596580D01*
X129990720Y-87625650D01*
X129990719Y-87625651D01*
X129919353Y-87712610D01*
X129848597Y-87844987D01*
X129805025Y-87988624D01*
X129790312Y-88138002D01*
X129793999Y-88175435D01*
X129793998Y-112357575D01*
X129790312Y-112394998D01*
X129793998Y-112432421D01*
X129793998Y-112432423D01*
X129805024Y-112544375D01*
X129848596Y-112688012D01*
X129848597Y-112688013D01*
X129919353Y-112820390D01*
X129958981Y-112868676D01*
X130014576Y-112936420D01*
X130043651Y-112960281D01*
X130327097Y-113243727D01*
X130336164Y-113289312D01*
X130403179Y-113451099D01*
X130500469Y-113596704D01*
X130624296Y-113720531D01*
X130769901Y-113817821D01*
X130931688Y-113884836D01*
X131103441Y-113919000D01*
X131278559Y-113919000D01*
X131450312Y-113884836D01*
X131612099Y-113817821D01*
X131757704Y-113720531D01*
X131881531Y-113596704D01*
X131978821Y-113451099D01*
X132045836Y-113289312D01*
X132080000Y-113117559D01*
X132080000Y-112942441D01*
X132045836Y-112770688D01*
X131978821Y-112608901D01*
X131881531Y-112463296D01*
X131757704Y-112339469D01*
X131612099Y-112242179D01*
X131450312Y-112175164D01*
X131404727Y-112166097D01*
X131362861Y-112124230D01*
X131450311Y-112106835D01*
X131612098Y-112039820D01*
X131757703Y-111942530D01*
X131881530Y-111818703D01*
X131978820Y-111673098D01*
X132045835Y-111511311D01*
X132079999Y-111339558D01*
X132079999Y-111164440D01*
X132045835Y-110992687D01*
X131978820Y-110830900D01*
X131952999Y-110792256D01*
X131952999Y-107815155D01*
X132085312Y-107788836D01*
X132247099Y-107721821D01*
X132392704Y-107624531D01*
X132516531Y-107500704D01*
X132613821Y-107355099D01*
X132680836Y-107193312D01*
X132681893Y-107188000D01*
X135701370Y-107188000D01*
X135890001Y-107376631D01*
X135890000Y-110725936D01*
X133077936Y-113538000D01*
X133021661Y-113538000D01*
X132984238Y-113534314D01*
X132946815Y-113538000D01*
X132946812Y-113538000D01*
X132834860Y-113549026D01*
X132691223Y-113592598D01*
X132652049Y-113613537D01*
X132558845Y-113663355D01*
X132488517Y-113721072D01*
X132442816Y-113758578D01*
X132418958Y-113787649D01*
X131948650Y-114257958D01*
X131919580Y-114281815D01*
X131895723Y-114310885D01*
X131895722Y-114310886D01*
X131824356Y-114397845D01*
X131753600Y-114530222D01*
X131710028Y-114673859D01*
X131695315Y-114823237D01*
X131699002Y-114860670D01*
X131699001Y-115786575D01*
X131695315Y-115824001D01*
X131710027Y-115973379D01*
X131753599Y-116117016D01*
X131824356Y-116249393D01*
X131911791Y-116355933D01*
X131919579Y-116365423D01*
X132035609Y-116460646D01*
X132167986Y-116531403D01*
X132311623Y-116574975D01*
X132461001Y-116589687D01*
X132498426Y-116586001D01*
X135796107Y-116586001D01*
X135763000Y-116752441D01*
X135763000Y-116927559D01*
X135797164Y-117099312D01*
X135864179Y-117261099D01*
X135961469Y-117406704D01*
X136085296Y-117530531D01*
X136230901Y-117627821D01*
X136392688Y-117694836D01*
X136433429Y-117702940D01*
X135391370Y-118745000D01*
X134024841Y-118745000D01*
X133997662Y-118717821D01*
X133831256Y-118606632D01*
X133646356Y-118530044D01*
X133450067Y-118491000D01*
X133249933Y-118491000D01*
X133053644Y-118530044D01*
X132868744Y-118606632D01*
X132702338Y-118717821D01*
X132560821Y-118859338D01*
X132449632Y-119025744D01*
X132373044Y-119210644D01*
X132334000Y-119406933D01*
X132334000Y-119607067D01*
X132373044Y-119803356D01*
X132375377Y-119808989D01*
X132365750Y-119809000D01*
X132207000Y-119967750D01*
X132207000Y-123317000D01*
X135556250Y-123317000D01*
X135715000Y-123158250D01*
X135718072Y-120444000D01*
X135705812Y-120319518D01*
X135691132Y-120271123D01*
X135707000Y-120272686D01*
X135744423Y-120269000D01*
X135744426Y-120269000D01*
X135856378Y-120257974D01*
X136000015Y-120214402D01*
X136132392Y-120143645D01*
X136248422Y-120048422D01*
X136272284Y-120019346D01*
X137701631Y-118590000D01*
X137740067Y-118590000D01*
X137936356Y-118550956D01*
X138121256Y-118474368D01*
X138287662Y-118363179D01*
X138429179Y-118221662D01*
X138540368Y-118055256D01*
X138616956Y-117870356D01*
X138656000Y-117674067D01*
X138656000Y-117473933D01*
X138616956Y-117277644D01*
X138540368Y-117092744D01*
X138429179Y-116926338D01*
X138287662Y-116784821D01*
X138121256Y-116673632D01*
X137936356Y-116597044D01*
X137829964Y-116575881D01*
X137839167Y-116574975D01*
X137982804Y-116531403D01*
X138115181Y-116460646D01*
X138231211Y-116365423D01*
X138248602Y-116344232D01*
X138938000Y-117033631D01*
X138938001Y-121374567D01*
X138934314Y-121412000D01*
X138949027Y-121561378D01*
X138992599Y-121705015D01*
X139063355Y-121837392D01*
X139134721Y-121924351D01*
X139158579Y-121953422D01*
X139187649Y-121977279D01*
X142182721Y-124972352D01*
X142206578Y-125001422D01*
X142235648Y-125025279D01*
X142322607Y-125096645D01*
X142393364Y-125134465D01*
X142454985Y-125167402D01*
X142598622Y-125210974D01*
X142710574Y-125222000D01*
X142710577Y-125222000D01*
X142748000Y-125225686D01*
X142785423Y-125222000D01*
X164300577Y-125222000D01*
X164338000Y-125225686D01*
X164375423Y-125222000D01*
X164375426Y-125222000D01*
X164487378Y-125210974D01*
X164631015Y-125167402D01*
X164763392Y-125096645D01*
X164879422Y-125001422D01*
X164903284Y-124972346D01*
X169431630Y-120444000D01*
X170097928Y-120444000D01*
X170101000Y-123158250D01*
X170259750Y-123317000D01*
X173609000Y-123317000D01*
X173609000Y-119967750D01*
X173450250Y-119809000D01*
X170736000Y-119805928D01*
X170611518Y-119818188D01*
X170491820Y-119854498D01*
X170381506Y-119913463D01*
X170284815Y-119992815D01*
X170205463Y-120089506D01*
X170146498Y-120199820D01*
X170110188Y-120319518D01*
X170097928Y-120444000D01*
X169431630Y-120444000D01*
X176136301Y-113739330D01*
X176136301Y-119806607D01*
X174021750Y-119809000D01*
X173863000Y-119967750D01*
X173863000Y-123317000D01*
X173883000Y-123317000D01*
X173883000Y-123571000D01*
X173863000Y-123571000D01*
X173863000Y-123591000D01*
X173609000Y-123591000D01*
X173609000Y-123571000D01*
X170259750Y-123571000D01*
X170101000Y-123729750D01*
X170098607Y-125844300D01*
X135717393Y-125844300D01*
X135715000Y-123729750D01*
X135556250Y-123571000D01*
X132207000Y-123571000D01*
X132207000Y-123591000D01*
X131953000Y-123591000D01*
X131953000Y-123571000D01*
X131933000Y-123571000D01*
X131933000Y-123317000D01*
X131953000Y-123317000D01*
X131953000Y-119967750D01*
X131794250Y-119809000D01*
X129679700Y-119806607D01*
X129679700Y-78575568D01*
X131894646Y-80790514D01*
G37*
G04 #@! TD.AperFunction*
D29*
X170101000Y-56102250D02*
X170259750Y-56261000D01*
X173609000Y-56261000D01*
X173609000Y-56241000D01*
X173863000Y-56241000D01*
X173863000Y-56261000D01*
X173883000Y-56261000D01*
X173883000Y-56515000D01*
X173863000Y-56515000D01*
X173863000Y-59864250D01*
X174021750Y-60023000D01*
X176136300Y-60025393D01*
X176136300Y-69648670D01*
X175317284Y-68829654D01*
X175293422Y-68800578D01*
X175177392Y-68705355D01*
X175045015Y-68634598D01*
X174901378Y-68591026D01*
X174789426Y-68580000D01*
X174789423Y-68580000D01*
X174752000Y-68576314D01*
X174714577Y-68580000D01*
X166536841Y-68580000D01*
X166509662Y-68552821D01*
X166343256Y-68441632D01*
X166158356Y-68365044D01*
X165962067Y-68326000D01*
X165761933Y-68326000D01*
X165565644Y-68365044D01*
X165380744Y-68441632D01*
X165214338Y-68552821D01*
X165187159Y-68580000D01*
X162875631Y-68580000D01*
X162052000Y-67756370D01*
X162052000Y-67222841D01*
X162079179Y-67195662D01*
X162190368Y-67029256D01*
X162266956Y-66844356D01*
X162306000Y-66648067D01*
X162306000Y-66447933D01*
X162266956Y-66251644D01*
X162190368Y-66066744D01*
X162079179Y-65900338D01*
X161937662Y-65758821D01*
X161771256Y-65647632D01*
X161586356Y-65571044D01*
X161390067Y-65532000D01*
X161189933Y-65532000D01*
X160993644Y-65571044D01*
X160808744Y-65647632D01*
X160642338Y-65758821D01*
X160500821Y-65900338D01*
X160389632Y-66066744D01*
X160313044Y-66251644D01*
X160274000Y-66447933D01*
X160274000Y-66648067D01*
X160313044Y-66844356D01*
X160389632Y-67029256D01*
X160500821Y-67195662D01*
X160528000Y-67222841D01*
X160528001Y-68034567D01*
X160524314Y-68072000D01*
X160539027Y-68221378D01*
X160582599Y-68365015D01*
X160653355Y-68497392D01*
X160698845Y-68552821D01*
X160747708Y-68612360D01*
X160677378Y-68591026D01*
X160565426Y-68580000D01*
X160565423Y-68580000D01*
X160528000Y-68576314D01*
X160490577Y-68580000D01*
X154598841Y-68580000D01*
X154571662Y-68552821D01*
X154405256Y-68441632D01*
X154220356Y-68365044D01*
X154024067Y-68326000D01*
X153823933Y-68326000D01*
X153627644Y-68365044D01*
X153442744Y-68441632D01*
X153276338Y-68552821D01*
X153134821Y-68694338D01*
X153023632Y-68860744D01*
X152947044Y-69045644D01*
X152908000Y-69241933D01*
X152908000Y-69304574D01*
X152904314Y-69342000D01*
X152908000Y-69379426D01*
X152908000Y-69442067D01*
X152947044Y-69638356D01*
X153023632Y-69823256D01*
X153134821Y-69989662D01*
X153276338Y-70131179D01*
X153442744Y-70242368D01*
X153627644Y-70318956D01*
X153823933Y-70358000D01*
X154024067Y-70358000D01*
X154220356Y-70318956D01*
X154405256Y-70242368D01*
X154571662Y-70131179D01*
X154598841Y-70104000D01*
X160212370Y-70104000D01*
X162052000Y-71943631D01*
X162052000Y-71982067D01*
X162091044Y-72178356D01*
X162167632Y-72363256D01*
X162278821Y-72529662D01*
X162420338Y-72671179D01*
X162586744Y-72782368D01*
X162771644Y-72858956D01*
X162967933Y-72898000D01*
X163168067Y-72898000D01*
X163364356Y-72858956D01*
X163549256Y-72782368D01*
X163715662Y-72671179D01*
X163857179Y-72529662D01*
X163968368Y-72363256D01*
X164044956Y-72178356D01*
X164084000Y-71982067D01*
X164084000Y-71781933D01*
X164044956Y-71585644D01*
X163968368Y-71400744D01*
X163857179Y-71234338D01*
X163715662Y-71092821D01*
X163549256Y-70981632D01*
X163364356Y-70905044D01*
X163168067Y-70866000D01*
X163129631Y-70866000D01*
X162333083Y-70069453D01*
X162410622Y-70092974D01*
X162522574Y-70104000D01*
X162522576Y-70104000D01*
X162559999Y-70107686D01*
X162597422Y-70104000D01*
X165187159Y-70104000D01*
X165214338Y-70131179D01*
X165380744Y-70242368D01*
X165565644Y-70318956D01*
X165761933Y-70358000D01*
X165962067Y-70358000D01*
X166158356Y-70318956D01*
X166343256Y-70242368D01*
X166509662Y-70131179D01*
X166536841Y-70104000D01*
X174436370Y-70104000D01*
X175260001Y-70927632D01*
X175260001Y-76590371D01*
X175041747Y-76372117D01*
X175015794Y-76286561D01*
X174955970Y-76174639D01*
X174879000Y-76080851D01*
X174879000Y-75983423D01*
X174882686Y-75946000D01*
X174879000Y-75908574D01*
X174867974Y-75796622D01*
X174824402Y-75652985D01*
X174776950Y-75564209D01*
X174753645Y-75520607D01*
X174682279Y-75433648D01*
X174658422Y-75404578D01*
X174629353Y-75380722D01*
X173793284Y-74544653D01*
X173769422Y-74515578D01*
X173653392Y-74420355D01*
X173521015Y-74349598D01*
X173377378Y-74306026D01*
X173265426Y-74295000D01*
X173265423Y-74295000D01*
X173228000Y-74291314D01*
X173190577Y-74295000D01*
X172036743Y-74295000D01*
X171998099Y-74269179D01*
X171836312Y-74202164D01*
X171664559Y-74168000D01*
X171489441Y-74168000D01*
X171317688Y-74202164D01*
X171155901Y-74269179D01*
X171010296Y-74366469D01*
X170886469Y-74490296D01*
X170789179Y-74635901D01*
X170722164Y-74797688D01*
X170688000Y-74969441D01*
X170688000Y-75144559D01*
X170722164Y-75316312D01*
X170789179Y-75478099D01*
X170886469Y-75623704D01*
X171010296Y-75747531D01*
X171155901Y-75844821D01*
X171317688Y-75911836D01*
X171482846Y-75944688D01*
X171484164Y-75951312D01*
X171551179Y-76113099D01*
X171577000Y-76151743D01*
X171577000Y-76265370D01*
X171301369Y-76541001D01*
X170720155Y-76541001D01*
X170693836Y-76408688D01*
X170626821Y-76246901D01*
X170529531Y-76101296D01*
X170405704Y-75977469D01*
X170260099Y-75880179D01*
X170098312Y-75813164D01*
X169926559Y-75779000D01*
X169751441Y-75779000D01*
X169579688Y-75813164D01*
X169417901Y-75880179D01*
X169379257Y-75906000D01*
X161768828Y-75906000D01*
X158756482Y-72893654D01*
X158732620Y-72864578D01*
X158616590Y-72769355D01*
X158484213Y-72698598D01*
X158340576Y-72655026D01*
X158228624Y-72644000D01*
X158228621Y-72644000D01*
X158191198Y-72640314D01*
X158153775Y-72644000D01*
X157939743Y-72644000D01*
X157901099Y-72618179D01*
X157739312Y-72551164D01*
X157567559Y-72517000D01*
X157392441Y-72517000D01*
X157220688Y-72551164D01*
X157058901Y-72618179D01*
X156913296Y-72715469D01*
X156795346Y-72833419D01*
X156745179Y-72758338D01*
X156603662Y-72616821D01*
X156437256Y-72505632D01*
X156252356Y-72429044D01*
X156056067Y-72390000D01*
X155855933Y-72390000D01*
X155659644Y-72429044D01*
X155474744Y-72505632D01*
X155308338Y-72616821D01*
X155281159Y-72644000D01*
X149389423Y-72644000D01*
X149352000Y-72640314D01*
X149314577Y-72644000D01*
X149314574Y-72644000D01*
X149202622Y-72655026D01*
X149058985Y-72698598D01*
X149027422Y-72715469D01*
X148926607Y-72769355D01*
X148843904Y-72837228D01*
X148810578Y-72864578D01*
X148786720Y-72893649D01*
X148528369Y-73152000D01*
X148489933Y-73152000D01*
X148293644Y-73191044D01*
X148108744Y-73267632D01*
X147942338Y-73378821D01*
X147800821Y-73520338D01*
X147689632Y-73686744D01*
X147613044Y-73871644D01*
X147574000Y-74067933D01*
X147574000Y-74268067D01*
X147613044Y-74464356D01*
X147689632Y-74649256D01*
X147800821Y-74815662D01*
X147942338Y-74957179D01*
X148108744Y-75068368D01*
X148293644Y-75144956D01*
X148489933Y-75184000D01*
X148690067Y-75184000D01*
X148886356Y-75144956D01*
X149071256Y-75068368D01*
X149237662Y-74957179D01*
X149379179Y-74815662D01*
X149490368Y-74649256D01*
X149566956Y-74464356D01*
X149606000Y-74268067D01*
X149606000Y-74229631D01*
X149667631Y-74168000D01*
X155281159Y-74168000D01*
X155308338Y-74195179D01*
X155474744Y-74306368D01*
X155659644Y-74382956D01*
X155855933Y-74422000D01*
X155862107Y-74422000D01*
X155863164Y-74427312D01*
X155930179Y-74589099D01*
X156027469Y-74734704D01*
X156108728Y-74815963D01*
X156043559Y-74803000D01*
X155868441Y-74803000D01*
X155696688Y-74837164D01*
X155534901Y-74904179D01*
X155389296Y-75001469D01*
X155265469Y-75125296D01*
X155168179Y-75270901D01*
X155101164Y-75432688D01*
X155067000Y-75604441D01*
X155067000Y-75779559D01*
X155101164Y-75951312D01*
X155168179Y-76113099D01*
X155194000Y-76151743D01*
X155194001Y-79718567D01*
X155190314Y-79756000D01*
X155205027Y-79905378D01*
X155248599Y-80049015D01*
X155319355Y-80181392D01*
X155387150Y-80264000D01*
X155414579Y-80297422D01*
X155443649Y-80321279D01*
X159156097Y-84033728D01*
X159165164Y-84079312D01*
X159232179Y-84241099D01*
X159329469Y-84386704D01*
X159453296Y-84510531D01*
X159598901Y-84607821D01*
X159760688Y-84674836D01*
X159932441Y-84709000D01*
X160107559Y-84709000D01*
X160279312Y-84674836D01*
X160441099Y-84607821D01*
X160536764Y-84543900D01*
X166896942Y-84543900D01*
X166932498Y-84547402D01*
X167074407Y-84533425D01*
X167149879Y-84510531D01*
X167210863Y-84492032D01*
X167336621Y-84424813D01*
X167446849Y-84334351D01*
X167469522Y-84306724D01*
X173324393Y-78451854D01*
X173355000Y-78489149D01*
X173355001Y-80456368D01*
X171490273Y-82321096D01*
X171444688Y-82330164D01*
X171282901Y-82397179D01*
X171137296Y-82494469D01*
X171013469Y-82618296D01*
X170916179Y-82763901D01*
X170849164Y-82925688D01*
X170815000Y-83097441D01*
X170815000Y-83272559D01*
X170849164Y-83444312D01*
X170916179Y-83606099D01*
X171013469Y-83751704D01*
X171137296Y-83875531D01*
X171282901Y-83972821D01*
X171444688Y-84039836D01*
X171616441Y-84074000D01*
X171791559Y-84074000D01*
X171963312Y-84039836D01*
X172125099Y-83972821D01*
X172270704Y-83875531D01*
X172394531Y-83751704D01*
X172491821Y-83606099D01*
X172558836Y-83444312D01*
X172567904Y-83398727D01*
X174244000Y-81722631D01*
X174244001Y-89749160D01*
X174129662Y-89634821D01*
X173963256Y-89523632D01*
X173778356Y-89447044D01*
X173582067Y-89408000D01*
X173381933Y-89408000D01*
X173185644Y-89447044D01*
X173000744Y-89523632D01*
X172942895Y-89562285D01*
X172893231Y-89501769D01*
X172794494Y-89420738D01*
X172681846Y-89360526D01*
X172559615Y-89323448D01*
X172432500Y-89310928D01*
X171559500Y-89310928D01*
X171432385Y-89323448D01*
X171310154Y-89360526D01*
X171197506Y-89420738D01*
X171196000Y-89421974D01*
X171194494Y-89420738D01*
X171081846Y-89360526D01*
X170959615Y-89323448D01*
X170832500Y-89310928D01*
X169959500Y-89310928D01*
X169832385Y-89323448D01*
X169710154Y-89360526D01*
X169597506Y-89420738D01*
X169498769Y-89501769D01*
X169417738Y-89600506D01*
X169357526Y-89713154D01*
X169320448Y-89835385D01*
X169307928Y-89962500D01*
X169307928Y-90885500D01*
X169320448Y-91012615D01*
X169357526Y-91134846D01*
X169417738Y-91247494D01*
X169471497Y-91313000D01*
X169417738Y-91378506D01*
X169375753Y-91457053D01*
X169251985Y-91494598D01*
X169182576Y-91531698D01*
X169169756Y-91523132D01*
X168984856Y-91446544D01*
X168788567Y-91407500D01*
X168588433Y-91407500D01*
X168392144Y-91446544D01*
X168207244Y-91523132D01*
X168040838Y-91634321D01*
X167899321Y-91775838D01*
X167788132Y-91942244D01*
X167711544Y-92127144D01*
X167672500Y-92323433D01*
X167672500Y-92414000D01*
X167519000Y-92414000D01*
X167519000Y-93472000D01*
X167539000Y-93472000D01*
X167539000Y-93726000D01*
X167519000Y-93726000D01*
X167519000Y-94784000D01*
X168069000Y-94784000D01*
X168297742Y-94736454D01*
X168512813Y-94645196D01*
X168656001Y-94547732D01*
X168656001Y-95300130D01*
X162762854Y-101193278D01*
X162733778Y-101217140D01*
X162678183Y-101284884D01*
X162638555Y-101333170D01*
X162600735Y-101403927D01*
X162567798Y-101465548D01*
X162524226Y-101609185D01*
X162513200Y-101721136D01*
X162509514Y-101758562D01*
X162513200Y-101795985D01*
X162513200Y-104117121D01*
X162382318Y-104171334D01*
X162073582Y-104377625D01*
X161811025Y-104640182D01*
X161604734Y-104948918D01*
X161550521Y-105079800D01*
X147559431Y-105079800D01*
X142511431Y-100031800D01*
X147937128Y-100031800D01*
X147937128Y-104031800D01*
X147949388Y-104156282D01*
X147985698Y-104275980D01*
X148044663Y-104386294D01*
X148124015Y-104482985D01*
X148220706Y-104562337D01*
X148331020Y-104621302D01*
X148450718Y-104657612D01*
X148575200Y-104669872D01*
X152575200Y-104669872D01*
X152699682Y-104657612D01*
X152819380Y-104621302D01*
X152929694Y-104562337D01*
X153026385Y-104482985D01*
X153105737Y-104386294D01*
X153164702Y-104275980D01*
X153201012Y-104156282D01*
X153213272Y-104031800D01*
X153213272Y-103047800D01*
X156033441Y-103047800D01*
X156083343Y-103052715D01*
X156133245Y-103047800D01*
X156282514Y-103033098D01*
X156474030Y-102975002D01*
X156650533Y-102880660D01*
X156805239Y-102753696D01*
X156837055Y-102714928D01*
X163090744Y-96461239D01*
X163114275Y-96497119D01*
X163278052Y-96663734D01*
X163471187Y-96795196D01*
X163686258Y-96886454D01*
X163915000Y-96934000D01*
X164465000Y-96934000D01*
X164465000Y-95876000D01*
X164719000Y-95876000D01*
X164719000Y-96934000D01*
X165269000Y-96934000D01*
X165497742Y-96886454D01*
X165712813Y-96795196D01*
X165905948Y-96663734D01*
X166069725Y-96497119D01*
X166197850Y-96301754D01*
X166285399Y-96085147D01*
X166285803Y-96058744D01*
X166160361Y-95876000D01*
X164719000Y-95876000D01*
X164465000Y-95876000D01*
X164445000Y-95876000D01*
X164445000Y-95622000D01*
X164465000Y-95622000D01*
X164465000Y-95602000D01*
X164719000Y-95602000D01*
X164719000Y-95622000D01*
X166160361Y-95622000D01*
X166285803Y-95439256D01*
X166285399Y-95412853D01*
X166197850Y-95196246D01*
X166069725Y-95000881D01*
X165905948Y-94834266D01*
X165712813Y-94702804D01*
X165497742Y-94611546D01*
X165269000Y-94564000D01*
X164987984Y-94564000D01*
X165818506Y-93733478D01*
X165698197Y-93908744D01*
X165698601Y-93935147D01*
X165786150Y-94151754D01*
X165914275Y-94347119D01*
X166078052Y-94513734D01*
X166271187Y-94645196D01*
X166486258Y-94736454D01*
X166715000Y-94784000D01*
X167265000Y-94784000D01*
X167265000Y-93726000D01*
X167245000Y-93726000D01*
X167245000Y-93472000D01*
X167265000Y-93472000D01*
X167265000Y-92414000D01*
X167137984Y-92414000D01*
X168831133Y-90720851D01*
X168869896Y-90689039D01*
X168996860Y-90534333D01*
X169091202Y-90357830D01*
X169149298Y-90166314D01*
X169164000Y-90017045D01*
X169164000Y-90017044D01*
X169168915Y-89967143D01*
X169164000Y-89917241D01*
X169164000Y-88586839D01*
X169252494Y-88539537D01*
X169349185Y-88460185D01*
X169428537Y-88363494D01*
X169487502Y-88253180D01*
X169523812Y-88133482D01*
X169536072Y-88009000D01*
X169536072Y-85979000D01*
X169523812Y-85854518D01*
X169487502Y-85734820D01*
X169428537Y-85624506D01*
X169349185Y-85527815D01*
X169252494Y-85448463D01*
X169142180Y-85389498D01*
X169022482Y-85353188D01*
X168898000Y-85340928D01*
X167398000Y-85340928D01*
X167273518Y-85353188D01*
X167153820Y-85389498D01*
X167043506Y-85448463D01*
X166946815Y-85527815D01*
X166867463Y-85624506D01*
X166808498Y-85734820D01*
X166772188Y-85854518D01*
X166759928Y-85979000D01*
X166759928Y-88009000D01*
X166772188Y-88133482D01*
X166808498Y-88253180D01*
X166867463Y-88363494D01*
X166946815Y-88460185D01*
X167043506Y-88539537D01*
X167132000Y-88586839D01*
X167132000Y-89546302D01*
X164886713Y-91791589D01*
X164857368Y-91720744D01*
X164746179Y-91554338D01*
X164719000Y-91527159D01*
X164719000Y-90545643D01*
X164888356Y-90511956D01*
X165073256Y-90435368D01*
X165239662Y-90324179D01*
X165381179Y-90182662D01*
X165492368Y-90016256D01*
X165568956Y-89831356D01*
X165608000Y-89635067D01*
X165608000Y-89434933D01*
X165568956Y-89238644D01*
X165492368Y-89053744D01*
X165381179Y-88887338D01*
X165239662Y-88745821D01*
X165073256Y-88634632D01*
X164888356Y-88558044D01*
X164692067Y-88519000D01*
X164491933Y-88519000D01*
X164295644Y-88558044D01*
X164110744Y-88634632D01*
X164084000Y-88652502D01*
X164084000Y-88586839D01*
X164172494Y-88539537D01*
X164269185Y-88460185D01*
X164348537Y-88363494D01*
X164407502Y-88253180D01*
X164443812Y-88133482D01*
X164456072Y-88009000D01*
X164456072Y-85979000D01*
X164443812Y-85854518D01*
X164407502Y-85734820D01*
X164348537Y-85624506D01*
X164269185Y-85527815D01*
X164172494Y-85448463D01*
X164062180Y-85389498D01*
X163942482Y-85353188D01*
X163818000Y-85340928D01*
X162318000Y-85340928D01*
X162193518Y-85353188D01*
X162073820Y-85389498D01*
X161963506Y-85448463D01*
X161866815Y-85527815D01*
X161787463Y-85624506D01*
X161728498Y-85734820D01*
X161692188Y-85854518D01*
X161679928Y-85979000D01*
X161679928Y-88009000D01*
X161692188Y-88133482D01*
X161728498Y-88253180D01*
X161787463Y-88363494D01*
X161866815Y-88460185D01*
X161963506Y-88539537D01*
X162052000Y-88586839D01*
X162052000Y-89495159D01*
X159594072Y-91953088D01*
X159594072Y-90345000D01*
X159581812Y-90220518D01*
X159545502Y-90100820D01*
X159486537Y-89990506D01*
X159407185Y-89893815D01*
X159310494Y-89814463D01*
X159200180Y-89755498D01*
X159080482Y-89719188D01*
X158956000Y-89706928D01*
X152956000Y-89706928D01*
X152831518Y-89719188D01*
X152711820Y-89755498D01*
X152601506Y-89814463D01*
X152590500Y-89823495D01*
X152579494Y-89814463D01*
X152469180Y-89755498D01*
X152349482Y-89719188D01*
X152225000Y-89706928D01*
X149510750Y-89710000D01*
X149352000Y-89868750D01*
X149352000Y-93218000D01*
X149372000Y-93218000D01*
X149372000Y-93472000D01*
X149352000Y-93472000D01*
X149352000Y-96821250D01*
X149510750Y-96980000D01*
X152225000Y-96983072D01*
X152349482Y-96970812D01*
X152469180Y-96934502D01*
X152579494Y-96875537D01*
X152590500Y-96866505D01*
X152601506Y-96875537D01*
X152711820Y-96934502D01*
X152831518Y-96970812D01*
X152956000Y-96983072D01*
X158956000Y-96983072D01*
X159080482Y-96970812D01*
X159200180Y-96934502D01*
X159310494Y-96875537D01*
X159407185Y-96796185D01*
X159486537Y-96699494D01*
X159545502Y-96589180D01*
X159581812Y-96469482D01*
X159594072Y-96345000D01*
X159594072Y-94361000D01*
X159668098Y-94361000D01*
X159718000Y-94365915D01*
X159767902Y-94361000D01*
X159917171Y-94346298D01*
X160108687Y-94288202D01*
X160232303Y-94222128D01*
X160314275Y-94347119D01*
X160478052Y-94513734D01*
X160671187Y-94645196D01*
X160886258Y-94736454D01*
X161115000Y-94784000D01*
X161665000Y-94784000D01*
X161665000Y-93726000D01*
X161645000Y-93726000D01*
X161645000Y-93472000D01*
X161665000Y-93472000D01*
X161665000Y-93452000D01*
X161919000Y-93452000D01*
X161919000Y-93472000D01*
X161939000Y-93472000D01*
X161939000Y-93726000D01*
X161919000Y-93726000D01*
X161919000Y-94759302D01*
X155662503Y-101015800D01*
X153213272Y-101015800D01*
X153213272Y-100031800D01*
X153201012Y-99907318D01*
X153164702Y-99787620D01*
X153105737Y-99677306D01*
X153026385Y-99580615D01*
X152929694Y-99501263D01*
X152819380Y-99442298D01*
X152699682Y-99405988D01*
X152575200Y-99393728D01*
X148575200Y-99393728D01*
X148450718Y-99405988D01*
X148331020Y-99442298D01*
X148220706Y-99501263D01*
X148124015Y-99580615D01*
X148044663Y-99677306D01*
X147985698Y-99787620D01*
X147949388Y-99907318D01*
X147937128Y-100031800D01*
X142511431Y-100031800D01*
X141986000Y-99506370D01*
X141986000Y-98101080D01*
X141998463Y-98095918D01*
X142208809Y-97955370D01*
X142233463Y-98001494D01*
X142312815Y-98098185D01*
X142409506Y-98177537D01*
X142519820Y-98236502D01*
X142639518Y-98272812D01*
X142764000Y-98285072D01*
X144764000Y-98285072D01*
X144888482Y-98272812D01*
X145008180Y-98236502D01*
X145118494Y-98177537D01*
X145215185Y-98098185D01*
X145294537Y-98001494D01*
X145353502Y-97891180D01*
X145389812Y-97771482D01*
X145402072Y-97647000D01*
X145402072Y-96345000D01*
X145586928Y-96345000D01*
X145599188Y-96469482D01*
X145635498Y-96589180D01*
X145694463Y-96699494D01*
X145773815Y-96796185D01*
X145870506Y-96875537D01*
X145980820Y-96934502D01*
X146100518Y-96970812D01*
X146225000Y-96983072D01*
X148939250Y-96980000D01*
X149098000Y-96821250D01*
X149098000Y-93472000D01*
X145748750Y-93472000D01*
X145590000Y-93630750D01*
X145586928Y-96345000D01*
X145402072Y-96345000D01*
X145402072Y-95647000D01*
X145389812Y-95522518D01*
X145353502Y-95402820D01*
X145294537Y-95292506D01*
X145215185Y-95195815D01*
X145118494Y-95116463D01*
X145008180Y-95057498D01*
X144888482Y-95021188D01*
X144764000Y-95008928D01*
X142764000Y-95008928D01*
X142639518Y-95021188D01*
X142519820Y-95057498D01*
X142409506Y-95116463D01*
X142312815Y-95195815D01*
X142233463Y-95292506D01*
X142208809Y-95338630D01*
X141998463Y-95198082D01*
X141700912Y-95074832D01*
X141385033Y-95012000D01*
X141062967Y-95012000D01*
X140747088Y-95074832D01*
X140449537Y-95198082D01*
X140181748Y-95377013D01*
X139954013Y-95604748D01*
X139775082Y-95872537D01*
X139651832Y-96170088D01*
X139589000Y-96485967D01*
X139589000Y-96808033D01*
X139651832Y-97123912D01*
X139775082Y-97421463D01*
X139954013Y-97689252D01*
X140181748Y-97916987D01*
X140449537Y-98095918D01*
X140462000Y-98101081D01*
X140462001Y-99784567D01*
X140458314Y-99822000D01*
X140473027Y-99971378D01*
X140516599Y-100115015D01*
X140587355Y-100247392D01*
X140635225Y-100305721D01*
X140682579Y-100363422D01*
X140711649Y-100387279D01*
X146678520Y-106354151D01*
X146702378Y-106383222D01*
X146731448Y-106407079D01*
X146818407Y-106478445D01*
X146874839Y-106508608D01*
X146950785Y-106549202D01*
X147094422Y-106592774D01*
X147206374Y-106603800D01*
X147206377Y-106603800D01*
X147243800Y-106607486D01*
X147281223Y-106603800D01*
X161550521Y-106603800D01*
X161604734Y-106734682D01*
X161811025Y-107043418D01*
X162073582Y-107305975D01*
X162382318Y-107512266D01*
X162725366Y-107654361D01*
X163089544Y-107726800D01*
X163460856Y-107726800D01*
X163825034Y-107654361D01*
X163955917Y-107600147D01*
X165608000Y-109252231D01*
X165608001Y-115660364D01*
X165598338Y-115666821D01*
X165456821Y-115808338D01*
X165345632Y-115974744D01*
X165269044Y-116159644D01*
X165230000Y-116355933D01*
X165230000Y-116556067D01*
X165269044Y-116752356D01*
X165345632Y-116937256D01*
X165456821Y-117103662D01*
X165598338Y-117245179D01*
X165764744Y-117356368D01*
X165949644Y-117432956D01*
X166145933Y-117472000D01*
X166346067Y-117472000D01*
X166542356Y-117432956D01*
X166727256Y-117356368D01*
X166893662Y-117245179D01*
X167035179Y-117103662D01*
X167146368Y-116937256D01*
X167222956Y-116752356D01*
X167262000Y-116556067D01*
X167262000Y-116355933D01*
X167222956Y-116159644D01*
X167146368Y-115974744D01*
X167132000Y-115953241D01*
X167132000Y-112683000D01*
X169673928Y-112683000D01*
X169686188Y-112807482D01*
X169722498Y-112927180D01*
X169781463Y-113037494D01*
X169860815Y-113134185D01*
X169957506Y-113213537D01*
X170067820Y-113272502D01*
X170187518Y-113308812D01*
X170312000Y-113321072D01*
X170401250Y-113318000D01*
X170560000Y-113159250D01*
X170560000Y-112235000D01*
X169835750Y-112235000D01*
X169677000Y-112393750D01*
X169673928Y-112683000D01*
X167132000Y-112683000D01*
X167132000Y-111533000D01*
X169673928Y-111533000D01*
X169677000Y-111822250D01*
X169835750Y-111981000D01*
X170560000Y-111981000D01*
X170560000Y-111056750D01*
X170814000Y-111056750D01*
X170814000Y-111981000D01*
X170834000Y-111981000D01*
X170834000Y-112235000D01*
X170814000Y-112235000D01*
X170814000Y-113159250D01*
X170896619Y-113241869D01*
X170922498Y-113327180D01*
X170981463Y-113437494D01*
X171060815Y-113534185D01*
X171157506Y-113613537D01*
X171267820Y-113672502D01*
X171387518Y-113708812D01*
X171512000Y-113721072D01*
X171926250Y-113718000D01*
X172085000Y-113559250D01*
X172085000Y-112735000D01*
X172065000Y-112735000D01*
X172065000Y-112481000D01*
X172085000Y-112481000D01*
X172085000Y-111656750D01*
X172339000Y-111656750D01*
X172339000Y-112481000D01*
X172359000Y-112481000D01*
X172359000Y-112735000D01*
X172339000Y-112735000D01*
X172339000Y-113559250D01*
X172497750Y-113718000D01*
X172912000Y-113721072D01*
X173036482Y-113708812D01*
X173156180Y-113672502D01*
X173266494Y-113613537D01*
X173363185Y-113534185D01*
X173442537Y-113437494D01*
X173501502Y-113327180D01*
X173527381Y-113241869D01*
X173610000Y-113159250D01*
X173610000Y-112235000D01*
X173864000Y-112235000D01*
X173864000Y-113159250D01*
X174022750Y-113318000D01*
X174112000Y-113321072D01*
X174236482Y-113308812D01*
X174356180Y-113272502D01*
X174466494Y-113213537D01*
X174563185Y-113134185D01*
X174642537Y-113037494D01*
X174701502Y-112927180D01*
X174737812Y-112807482D01*
X174750072Y-112683000D01*
X174747000Y-112393750D01*
X174588250Y-112235000D01*
X173864000Y-112235000D01*
X173610000Y-112235000D01*
X173590000Y-112235000D01*
X173590000Y-111981000D01*
X173610000Y-111981000D01*
X173610000Y-111056750D01*
X173864000Y-111056750D01*
X173864000Y-111981000D01*
X174588250Y-111981000D01*
X174747000Y-111822250D01*
X174750072Y-111533000D01*
X174737812Y-111408518D01*
X174701502Y-111288820D01*
X174642537Y-111178506D01*
X174563185Y-111081815D01*
X174466494Y-111002463D01*
X174356180Y-110943498D01*
X174236482Y-110907188D01*
X174112000Y-110894928D01*
X174022750Y-110898000D01*
X173864000Y-111056750D01*
X173610000Y-111056750D01*
X173451250Y-110898000D01*
X173362000Y-110894928D01*
X173237518Y-110907188D01*
X173117820Y-110943498D01*
X173007506Y-111002463D01*
X172910815Y-111081815D01*
X172831463Y-111178506D01*
X172772498Y-111288820D01*
X172736188Y-111408518D01*
X172727543Y-111496296D01*
X172497750Y-111498000D01*
X172339000Y-111656750D01*
X172085000Y-111656750D01*
X171926250Y-111498000D01*
X171696457Y-111496296D01*
X171687812Y-111408518D01*
X171651502Y-111288820D01*
X171592537Y-111178506D01*
X171513185Y-111081815D01*
X171416494Y-111002463D01*
X171306180Y-110943498D01*
X171186482Y-110907188D01*
X171062000Y-110894928D01*
X170972750Y-110898000D01*
X170814000Y-111056750D01*
X170560000Y-111056750D01*
X170401250Y-110898000D01*
X170312000Y-110894928D01*
X170187518Y-110907188D01*
X170067820Y-110943498D01*
X169957506Y-111002463D01*
X169860815Y-111081815D01*
X169781463Y-111178506D01*
X169722498Y-111288820D01*
X169686188Y-111408518D01*
X169673928Y-111533000D01*
X167132000Y-111533000D01*
X167132000Y-109533000D01*
X169673928Y-109533000D01*
X169686188Y-109657482D01*
X169722498Y-109777180D01*
X169781463Y-109887494D01*
X169860815Y-109984185D01*
X169957506Y-110063537D01*
X170067820Y-110122502D01*
X170187518Y-110158812D01*
X170312000Y-110171072D01*
X170401250Y-110168000D01*
X170560000Y-110009250D01*
X170560000Y-109085000D01*
X169835750Y-109085000D01*
X169677000Y-109243750D01*
X169673928Y-109533000D01*
X167132000Y-109533000D01*
X167132000Y-108974022D01*
X167135686Y-108936599D01*
X167132000Y-108899174D01*
X167120974Y-108787222D01*
X167077402Y-108643585D01*
X167006645Y-108511208D01*
X166911422Y-108395178D01*
X166882353Y-108371322D01*
X165033547Y-106522517D01*
X165087761Y-106391634D01*
X165160200Y-106027456D01*
X165160200Y-105656144D01*
X165087761Y-105291966D01*
X164945666Y-104948918D01*
X164739375Y-104640182D01*
X164476818Y-104377625D01*
X164168082Y-104171334D01*
X164037200Y-104117121D01*
X164037200Y-102074192D01*
X169930352Y-96181041D01*
X169959422Y-96157184D01*
X170054645Y-96041154D01*
X170125402Y-95908777D01*
X170168974Y-95765140D01*
X170180000Y-95653188D01*
X170180000Y-95653186D01*
X170183686Y-95615763D01*
X170180000Y-95578340D01*
X170180000Y-93315072D01*
X170832500Y-93315072D01*
X170959615Y-93302552D01*
X171081846Y-93265474D01*
X171194494Y-93205262D01*
X171196000Y-93204026D01*
X171197506Y-93205262D01*
X171310154Y-93265474D01*
X171432385Y-93302552D01*
X171559500Y-93315072D01*
X172432500Y-93315072D01*
X172559615Y-93302552D01*
X172681846Y-93265474D01*
X172794494Y-93205262D01*
X172893231Y-93124231D01*
X172942895Y-93063715D01*
X173000744Y-93102368D01*
X173185644Y-93178956D01*
X173381933Y-93218000D01*
X173420370Y-93218000D01*
X169667654Y-96970716D01*
X169638578Y-96994578D01*
X169582983Y-97062322D01*
X169543355Y-97110608D01*
X169536244Y-97123912D01*
X169472598Y-97242986D01*
X169429026Y-97386623D01*
X169425595Y-97421463D01*
X169414314Y-97536000D01*
X169418000Y-97573423D01*
X169418001Y-106388567D01*
X169414314Y-106426000D01*
X169429027Y-106575378D01*
X169472599Y-106719015D01*
X169543355Y-106851392D01*
X169592784Y-106911621D01*
X169638579Y-106967422D01*
X169667649Y-106991279D01*
X170559998Y-107883629D01*
X170559998Y-107906748D01*
X170401250Y-107748000D01*
X170312000Y-107744928D01*
X170187518Y-107757188D01*
X170067820Y-107793498D01*
X169957506Y-107852463D01*
X169860815Y-107931815D01*
X169781463Y-108028506D01*
X169722498Y-108138820D01*
X169686188Y-108258518D01*
X169673928Y-108383000D01*
X169677000Y-108672250D01*
X169835750Y-108831000D01*
X170560000Y-108831000D01*
X170560000Y-108811000D01*
X170814000Y-108811000D01*
X170814000Y-108831000D01*
X170834000Y-108831000D01*
X170834000Y-109085000D01*
X170814000Y-109085000D01*
X170814000Y-110009250D01*
X170972750Y-110168000D01*
X171062000Y-110171072D01*
X171186482Y-110158812D01*
X171306180Y-110122502D01*
X171416494Y-110063537D01*
X171513185Y-109984185D01*
X171592537Y-109887494D01*
X171651502Y-109777180D01*
X171687812Y-109657482D01*
X171696322Y-109571072D01*
X172727678Y-109571072D01*
X172736188Y-109657482D01*
X172772498Y-109777180D01*
X172831463Y-109887494D01*
X172910815Y-109984185D01*
X173007506Y-110063537D01*
X173117820Y-110122502D01*
X173237518Y-110158812D01*
X173362000Y-110171072D01*
X173451250Y-110168000D01*
X173610000Y-110009250D01*
X173610000Y-109085000D01*
X173864000Y-109085000D01*
X173864000Y-110009250D01*
X174022750Y-110168000D01*
X174112000Y-110171072D01*
X174236482Y-110158812D01*
X174356180Y-110122502D01*
X174466494Y-110063537D01*
X174563185Y-109984185D01*
X174642537Y-109887494D01*
X174701502Y-109777180D01*
X174737812Y-109657482D01*
X174750072Y-109533000D01*
X174747000Y-109243750D01*
X174588250Y-109085000D01*
X173864000Y-109085000D01*
X173610000Y-109085000D01*
X173590000Y-109085000D01*
X173590000Y-108831000D01*
X173610000Y-108831000D01*
X173610000Y-107906750D01*
X173864000Y-107906750D01*
X173864000Y-108831000D01*
X174588250Y-108831000D01*
X174747000Y-108672250D01*
X174750072Y-108383000D01*
X174737812Y-108258518D01*
X174701502Y-108138820D01*
X174642537Y-108028506D01*
X174563185Y-107931815D01*
X174466494Y-107852463D01*
X174356180Y-107793498D01*
X174236482Y-107757188D01*
X174112000Y-107744928D01*
X174022750Y-107748000D01*
X173864000Y-107906750D01*
X173610000Y-107906750D01*
X173527381Y-107824131D01*
X173501502Y-107738820D01*
X173442537Y-107628506D01*
X173363185Y-107531815D01*
X173266494Y-107452463D01*
X173156180Y-107393498D01*
X173036482Y-107357188D01*
X172912000Y-107344928D01*
X172176559Y-107344928D01*
X170942000Y-106110370D01*
X170942000Y-104868142D01*
X171077555Y-105071015D01*
X171280985Y-105274445D01*
X171520194Y-105434279D01*
X171785988Y-105544374D01*
X172068153Y-105600500D01*
X172355847Y-105600500D01*
X172638012Y-105544374D01*
X172903806Y-105434279D01*
X173143015Y-105274445D01*
X173346445Y-105071015D01*
X173506279Y-104831806D01*
X173616374Y-104566012D01*
X173672500Y-104283847D01*
X173672500Y-103996153D01*
X173616374Y-103713988D01*
X173506279Y-103448194D01*
X173346445Y-103208985D01*
X173143015Y-103005555D01*
X172940142Y-102870000D01*
X173143015Y-102734445D01*
X173346445Y-102531015D01*
X173459377Y-102362000D01*
X175260001Y-102362000D01*
X175260000Y-112460369D01*
X164022370Y-123698000D01*
X143063631Y-123698000D01*
X140462000Y-121096370D01*
X140462000Y-119822630D01*
X140741096Y-120101726D01*
X140750164Y-120147312D01*
X140817179Y-120309099D01*
X140914469Y-120454704D01*
X141038296Y-120578531D01*
X141183901Y-120675821D01*
X141345688Y-120742836D01*
X141517441Y-120777000D01*
X141692559Y-120777000D01*
X141864312Y-120742836D01*
X142026099Y-120675821D01*
X142171704Y-120578531D01*
X142295531Y-120454704D01*
X142392821Y-120309099D01*
X142459836Y-120147312D01*
X142494000Y-119975559D01*
X142494000Y-119800441D01*
X142459836Y-119628688D01*
X142428185Y-119552275D01*
X145400200Y-119552275D01*
X145400200Y-120071325D01*
X145501461Y-120580401D01*
X145700093Y-121059941D01*
X145988462Y-121491515D01*
X146355485Y-121858538D01*
X146787059Y-122146907D01*
X147266599Y-122345539D01*
X147775675Y-122446800D01*
X148294725Y-122446800D01*
X148803801Y-122345539D01*
X149283341Y-122146907D01*
X149714915Y-121858538D01*
X150081938Y-121491515D01*
X150370307Y-121059941D01*
X150568939Y-120580401D01*
X150670200Y-120071325D01*
X150670200Y-119552275D01*
X150568939Y-119043199D01*
X150370307Y-118563659D01*
X150081938Y-118132085D01*
X149714915Y-117765062D01*
X149283341Y-117476693D01*
X148803801Y-117278061D01*
X148294725Y-117176800D01*
X147775675Y-117176800D01*
X147266599Y-117278061D01*
X146787059Y-117476693D01*
X146355485Y-117765062D01*
X145988462Y-118132085D01*
X145700093Y-118563659D01*
X145501461Y-119043199D01*
X145400200Y-119552275D01*
X142428185Y-119552275D01*
X142392821Y-119466901D01*
X142295531Y-119321296D01*
X142171704Y-119197469D01*
X142026099Y-119100179D01*
X141864312Y-119033164D01*
X141818726Y-119024096D01*
X141601000Y-118806370D01*
X141601000Y-111580743D01*
X141626821Y-111542099D01*
X141693836Y-111380312D01*
X141728000Y-111208559D01*
X141728000Y-111033441D01*
X141693836Y-110861688D01*
X141626821Y-110699901D01*
X141529531Y-110554296D01*
X141405704Y-110430469D01*
X141260099Y-110333179D01*
X141098312Y-110266164D01*
X140926559Y-110232000D01*
X140751441Y-110232000D01*
X140579688Y-110266164D01*
X140417901Y-110333179D01*
X140272296Y-110430469D01*
X140148469Y-110554296D01*
X140051179Y-110699901D01*
X139984164Y-110861688D01*
X139950000Y-111033441D01*
X139950000Y-111208559D01*
X139984164Y-111380312D01*
X140051179Y-111542099D01*
X140077000Y-111580743D01*
X140077001Y-116017370D01*
X139291404Y-115231773D01*
X139282336Y-115186188D01*
X139215321Y-115024401D01*
X139118031Y-114878796D01*
X138994204Y-114754969D01*
X138848599Y-114657679D01*
X138686812Y-114590664D01*
X138515059Y-114556500D01*
X138339941Y-114556500D01*
X138168188Y-114590664D01*
X138006401Y-114657679D01*
X137956847Y-114690790D01*
X137918912Y-114694526D01*
X137775275Y-114738098D01*
X137642898Y-114808855D01*
X137526868Y-114904078D01*
X137503006Y-114933154D01*
X137374159Y-115062001D01*
X134427629Y-115062001D01*
X141053621Y-108436010D01*
X141139356Y-108418956D01*
X141324256Y-108342368D01*
X141490662Y-108231179D01*
X141632179Y-108089662D01*
X141743368Y-107923256D01*
X141819956Y-107738356D01*
X141859000Y-107542067D01*
X141859000Y-107341933D01*
X141819956Y-107145644D01*
X141743368Y-106960744D01*
X141632179Y-106794338D01*
X141490662Y-106652821D01*
X141324256Y-106541632D01*
X141139356Y-106465044D01*
X140943067Y-106426000D01*
X140742933Y-106426000D01*
X140546644Y-106465044D01*
X140361744Y-106541632D01*
X140195338Y-106652821D01*
X140053821Y-106794338D01*
X139942632Y-106960744D01*
X139866044Y-107145644D01*
X139827000Y-107341933D01*
X139827000Y-107507369D01*
X137414000Y-109920369D01*
X137414000Y-107098423D01*
X137417686Y-107061000D01*
X137414000Y-107023574D01*
X137402974Y-106911622D01*
X137359402Y-106767985D01*
X137297846Y-106652821D01*
X137288645Y-106635607D01*
X137253491Y-106592773D01*
X137193422Y-106519578D01*
X137164346Y-106495716D01*
X136582284Y-105913654D01*
X136558422Y-105884578D01*
X136442392Y-105789355D01*
X136310015Y-105718598D01*
X136166378Y-105675026D01*
X136054426Y-105664000D01*
X136054423Y-105664000D01*
X136017000Y-105660314D01*
X135979577Y-105664000D01*
X132371415Y-105664000D01*
X132333999Y-105660315D01*
X132296583Y-105664000D01*
X132296574Y-105664000D01*
X132184622Y-105675026D01*
X132040985Y-105718598D01*
X131952999Y-105765628D01*
X131952999Y-91405967D01*
X131969000Y-91405967D01*
X131969000Y-91728033D01*
X132031832Y-92043912D01*
X132155082Y-92341463D01*
X132334013Y-92609252D01*
X132561748Y-92836987D01*
X132829537Y-93015918D01*
X132842000Y-93021080D01*
X132842001Y-95192919D01*
X132829537Y-95198082D01*
X132561748Y-95377013D01*
X132334013Y-95604748D01*
X132155082Y-95872537D01*
X132031832Y-96170088D01*
X131969000Y-96485967D01*
X131969000Y-96808033D01*
X132031832Y-97123912D01*
X132155082Y-97421463D01*
X132334013Y-97689252D01*
X132561748Y-97916987D01*
X132829537Y-98095918D01*
X133127088Y-98219168D01*
X133442967Y-98282000D01*
X133765033Y-98282000D01*
X134080912Y-98219168D01*
X134093375Y-98214005D01*
X152393516Y-116514146D01*
X152417378Y-116543222D01*
X152463031Y-116580688D01*
X152533407Y-116638445D01*
X152599238Y-116673632D01*
X152665785Y-116709202D01*
X152809422Y-116752774D01*
X152921374Y-116763800D01*
X152921377Y-116763800D01*
X152958800Y-116767486D01*
X152996223Y-116763800D01*
X161550521Y-116763800D01*
X161604734Y-116894682D01*
X161811025Y-117203418D01*
X162073582Y-117465975D01*
X162382318Y-117672266D01*
X162725366Y-117814361D01*
X163089544Y-117886800D01*
X163460856Y-117886800D01*
X163825034Y-117814361D01*
X164168082Y-117672266D01*
X164476818Y-117465975D01*
X164739375Y-117203418D01*
X164945666Y-116894682D01*
X165087761Y-116551634D01*
X165160200Y-116187456D01*
X165160200Y-115816144D01*
X165087761Y-115451966D01*
X164945666Y-115108918D01*
X164739375Y-114800182D01*
X164476818Y-114537625D01*
X164168082Y-114331334D01*
X163825034Y-114189239D01*
X163460856Y-114116800D01*
X163089544Y-114116800D01*
X162725366Y-114189239D01*
X162382318Y-114331334D01*
X162073582Y-114537625D01*
X161811025Y-114800182D01*
X161604734Y-115108918D01*
X161550521Y-115239800D01*
X153274430Y-115239800D01*
X135171005Y-97136375D01*
X135176168Y-97123912D01*
X135239000Y-96808033D01*
X135239000Y-96485967D01*
X135176168Y-96170088D01*
X135052918Y-95872537D01*
X134873987Y-95604748D01*
X134646252Y-95377013D01*
X134378463Y-95198082D01*
X134366000Y-95192920D01*
X134366000Y-93021080D01*
X134378463Y-93015918D01*
X134646252Y-92836987D01*
X134873987Y-92609252D01*
X135052918Y-92341463D01*
X135176168Y-92043912D01*
X135239000Y-91728033D01*
X135239000Y-91405967D01*
X135176168Y-91090088D01*
X135052918Y-90792537D01*
X134873987Y-90524748D01*
X134646252Y-90297013D01*
X134378463Y-90118082D01*
X134080912Y-89994832D01*
X133765033Y-89932000D01*
X133442967Y-89932000D01*
X133127088Y-89994832D01*
X132829537Y-90118082D01*
X132561748Y-90297013D01*
X132334013Y-90524748D01*
X132155082Y-90792537D01*
X132031832Y-91090088D01*
X131969000Y-91405967D01*
X131952999Y-91405967D01*
X131952999Y-88834631D01*
X133862353Y-86925278D01*
X133891422Y-86901422D01*
X133986645Y-86785392D01*
X134057402Y-86653015D01*
X134100974Y-86509378D01*
X134112000Y-86397426D01*
X134112000Y-86397417D01*
X134115685Y-86360001D01*
X134112000Y-86322585D01*
X134112000Y-83007868D01*
X134366001Y-83261869D01*
X134366000Y-88354577D01*
X134362314Y-88392000D01*
X134366000Y-88429423D01*
X134366000Y-88429425D01*
X134377026Y-88541377D01*
X134420598Y-88685014D01*
X134420599Y-88685015D01*
X134491355Y-88817392D01*
X134530983Y-88865678D01*
X134586578Y-88933422D01*
X134615654Y-88957284D01*
X137737721Y-92079352D01*
X137761578Y-92108422D01*
X137877608Y-92203645D01*
X138009985Y-92274402D01*
X138153622Y-92317974D01*
X138265574Y-92329000D01*
X138265576Y-92329000D01*
X138302999Y-92332686D01*
X138340422Y-92329000D01*
X139769920Y-92329000D01*
X139775082Y-92341463D01*
X139954013Y-92609252D01*
X140181748Y-92836987D01*
X140449537Y-93015918D01*
X140747088Y-93139168D01*
X141062967Y-93202000D01*
X141385033Y-93202000D01*
X141700912Y-93139168D01*
X141998463Y-93015918D01*
X142266252Y-92836987D01*
X142400826Y-92702413D01*
X142808192Y-92702413D01*
X142903956Y-92966814D01*
X143193571Y-93107704D01*
X143505108Y-93189384D01*
X143826595Y-93208718D01*
X144145675Y-93164961D01*
X144450088Y-93059795D01*
X144624044Y-92966814D01*
X144719808Y-92702413D01*
X143764000Y-91746605D01*
X142808192Y-92702413D01*
X142400826Y-92702413D01*
X142493987Y-92609252D01*
X142566720Y-92500400D01*
X142628587Y-92522808D01*
X143584395Y-91567000D01*
X143943605Y-91567000D01*
X144899413Y-92522808D01*
X145163814Y-92427044D01*
X145304704Y-92137429D01*
X145386384Y-91825892D01*
X145405718Y-91504405D01*
X145361961Y-91185325D01*
X145256795Y-90880912D01*
X145163814Y-90706956D01*
X144899413Y-90611192D01*
X143943605Y-91567000D01*
X143584395Y-91567000D01*
X142628587Y-90611192D01*
X142566720Y-90633600D01*
X142493987Y-90524748D01*
X142400826Y-90431587D01*
X142808192Y-90431587D01*
X143764000Y-91387395D01*
X144719808Y-90431587D01*
X144688447Y-90345000D01*
X145586928Y-90345000D01*
X145590000Y-93059250D01*
X145748750Y-93218000D01*
X149098000Y-93218000D01*
X149098000Y-89868750D01*
X148939250Y-89710000D01*
X146225000Y-89706928D01*
X146100518Y-89719188D01*
X145980820Y-89755498D01*
X145870506Y-89814463D01*
X145773815Y-89893815D01*
X145694463Y-89990506D01*
X145635498Y-90100820D01*
X145599188Y-90220518D01*
X145586928Y-90345000D01*
X144688447Y-90345000D01*
X144624044Y-90167186D01*
X144334429Y-90026296D01*
X144022892Y-89944616D01*
X143701405Y-89925282D01*
X143382325Y-89969039D01*
X143077912Y-90074205D01*
X142903956Y-90167186D01*
X142808192Y-90431587D01*
X142400826Y-90431587D01*
X142266252Y-90297013D01*
X141998463Y-90118082D01*
X141700912Y-89994832D01*
X141385033Y-89932000D01*
X141062967Y-89932000D01*
X140747088Y-89994832D01*
X140449537Y-90118082D01*
X140181748Y-90297013D01*
X139954013Y-90524748D01*
X139775082Y-90792537D01*
X139769920Y-90805000D01*
X138618631Y-90805000D01*
X135890000Y-88076370D01*
X135890000Y-85979000D01*
X136279928Y-85979000D01*
X136279928Y-88009000D01*
X136292188Y-88133482D01*
X136328498Y-88253180D01*
X136387463Y-88363494D01*
X136466815Y-88460185D01*
X136563506Y-88539537D01*
X136673820Y-88598502D01*
X136793518Y-88634812D01*
X136918000Y-88647072D01*
X138418000Y-88647072D01*
X138542482Y-88634812D01*
X138662180Y-88598502D01*
X138772494Y-88539537D01*
X138869185Y-88460185D01*
X138938000Y-88376333D01*
X139006815Y-88460185D01*
X139103506Y-88539537D01*
X139213820Y-88598502D01*
X139333518Y-88634812D01*
X139458000Y-88647072D01*
X140958000Y-88647072D01*
X141082482Y-88634812D01*
X141202180Y-88598502D01*
X141312494Y-88539537D01*
X141409185Y-88460185D01*
X141478000Y-88376333D01*
X141546815Y-88460185D01*
X141643506Y-88539537D01*
X141753820Y-88598502D01*
X141873518Y-88634812D01*
X141998000Y-88647072D01*
X143498000Y-88647072D01*
X143622482Y-88634812D01*
X143742180Y-88598502D01*
X143852494Y-88539537D01*
X143949185Y-88460185D01*
X144018000Y-88376333D01*
X144086815Y-88460185D01*
X144183506Y-88539537D01*
X144293820Y-88598502D01*
X144413518Y-88634812D01*
X144538000Y-88647072D01*
X146038000Y-88647072D01*
X146162482Y-88634812D01*
X146282180Y-88598502D01*
X146392494Y-88539537D01*
X146489185Y-88460185D01*
X146568537Y-88363494D01*
X146627502Y-88253180D01*
X146663812Y-88133482D01*
X146676072Y-88009000D01*
X146676072Y-85979000D01*
X156599928Y-85979000D01*
X156599928Y-88009000D01*
X156612188Y-88133482D01*
X156648498Y-88253180D01*
X156707463Y-88363494D01*
X156786815Y-88460185D01*
X156883506Y-88539537D01*
X156993820Y-88598502D01*
X157113518Y-88634812D01*
X157238000Y-88647072D01*
X158738000Y-88647072D01*
X158862482Y-88634812D01*
X158982180Y-88598502D01*
X159092494Y-88539537D01*
X159189185Y-88460185D01*
X159268537Y-88363494D01*
X159327502Y-88253180D01*
X159363812Y-88133482D01*
X159376072Y-88009000D01*
X159376072Y-85979000D01*
X159363812Y-85854518D01*
X159327502Y-85734820D01*
X159268537Y-85624506D01*
X159189185Y-85527815D01*
X159092494Y-85448463D01*
X158982180Y-85389498D01*
X158862482Y-85353188D01*
X158738000Y-85340928D01*
X157238000Y-85340928D01*
X157113518Y-85353188D01*
X156993820Y-85389498D01*
X156883506Y-85448463D01*
X156786815Y-85527815D01*
X156707463Y-85624506D01*
X156648498Y-85734820D01*
X156612188Y-85854518D01*
X156599928Y-85979000D01*
X146676072Y-85979000D01*
X146663812Y-85854518D01*
X146627502Y-85734820D01*
X146568537Y-85624506D01*
X146489185Y-85527815D01*
X146392494Y-85448463D01*
X146282180Y-85389498D01*
X146162482Y-85353188D01*
X146038000Y-85340928D01*
X144538000Y-85340928D01*
X144413518Y-85353188D01*
X144293820Y-85389498D01*
X144183506Y-85448463D01*
X144086815Y-85527815D01*
X144018000Y-85611667D01*
X143949185Y-85527815D01*
X143852494Y-85448463D01*
X143742180Y-85389498D01*
X143622482Y-85353188D01*
X143498000Y-85340928D01*
X141998000Y-85340928D01*
X141873518Y-85353188D01*
X141753820Y-85389498D01*
X141643506Y-85448463D01*
X141546815Y-85527815D01*
X141478000Y-85611667D01*
X141409185Y-85527815D01*
X141312494Y-85448463D01*
X141202180Y-85389498D01*
X141082482Y-85353188D01*
X140958000Y-85340928D01*
X139458000Y-85340928D01*
X139333518Y-85353188D01*
X139213820Y-85389498D01*
X139103506Y-85448463D01*
X139006815Y-85527815D01*
X138938000Y-85611667D01*
X138869185Y-85527815D01*
X138772494Y-85448463D01*
X138662180Y-85389498D01*
X138542482Y-85353188D01*
X138418000Y-85340928D01*
X136918000Y-85340928D01*
X136793518Y-85353188D01*
X136673820Y-85389498D01*
X136563506Y-85448463D01*
X136466815Y-85527815D01*
X136387463Y-85624506D01*
X136328498Y-85734820D01*
X136292188Y-85854518D01*
X136279928Y-85979000D01*
X135890000Y-85979000D01*
X135890000Y-82983661D01*
X135893686Y-82946238D01*
X135890000Y-82908812D01*
X135878974Y-82796860D01*
X135835402Y-82653223D01*
X135779349Y-82548355D01*
X135764645Y-82520845D01*
X135702710Y-82445378D01*
X135669422Y-82404816D01*
X135640346Y-82380954D01*
X132153325Y-78893933D01*
X135382000Y-78893933D01*
X135382000Y-79094067D01*
X135421044Y-79290356D01*
X135497632Y-79475256D01*
X135608821Y-79641662D01*
X135636001Y-79668842D01*
X135636000Y-80859159D01*
X135608821Y-80886338D01*
X135497632Y-81052744D01*
X135421044Y-81237644D01*
X135382000Y-81433933D01*
X135382000Y-81634067D01*
X135421044Y-81830356D01*
X135497632Y-82015256D01*
X135608821Y-82181662D01*
X135750338Y-82323179D01*
X135916744Y-82434368D01*
X136101644Y-82510956D01*
X136297933Y-82550000D01*
X136498067Y-82550000D01*
X136694356Y-82510956D01*
X136879256Y-82434368D01*
X137045662Y-82323179D01*
X137187179Y-82181662D01*
X137298368Y-82015256D01*
X137374956Y-81830356D01*
X137414000Y-81634067D01*
X137414000Y-81433933D01*
X137374956Y-81237644D01*
X137298368Y-81052744D01*
X137187179Y-80886338D01*
X137160000Y-80859159D01*
X137160000Y-80417933D01*
X146050000Y-80417933D01*
X146050000Y-80618067D01*
X146089044Y-80814356D01*
X146165632Y-80999256D01*
X146276821Y-81165662D01*
X146418338Y-81307179D01*
X146584744Y-81418368D01*
X146769644Y-81494956D01*
X146965933Y-81534000D01*
X147004369Y-81534000D01*
X147262720Y-81792351D01*
X147286578Y-81821422D01*
X147315648Y-81845279D01*
X147402607Y-81916645D01*
X147423219Y-81927662D01*
X147534985Y-81987402D01*
X147678622Y-82030974D01*
X147790574Y-82042000D01*
X147790577Y-82042000D01*
X147828000Y-82045686D01*
X147865423Y-82042000D01*
X149185159Y-82042000D01*
X149070821Y-82156338D01*
X148959632Y-82322744D01*
X148883044Y-82507644D01*
X148844000Y-82703933D01*
X148844000Y-82904067D01*
X148883044Y-83100356D01*
X148959632Y-83285256D01*
X149070821Y-83451662D01*
X149212338Y-83593179D01*
X149378744Y-83704368D01*
X149563644Y-83780956D01*
X149759933Y-83820000D01*
X149960067Y-83820000D01*
X150156356Y-83780956D01*
X150341256Y-83704368D01*
X150507662Y-83593179D01*
X150649179Y-83451662D01*
X150760368Y-83285256D01*
X150836956Y-83100356D01*
X150876000Y-82904067D01*
X150876000Y-82865630D01*
X153096352Y-80645279D01*
X153125422Y-80621422D01*
X153165491Y-80572598D01*
X153220645Y-80505393D01*
X153267393Y-80417933D01*
X153291402Y-80373015D01*
X153334974Y-80229378D01*
X153346000Y-80117426D01*
X153346000Y-80117423D01*
X153349686Y-80080000D01*
X153346000Y-80042577D01*
X153346000Y-77312841D01*
X153373179Y-77285662D01*
X153484368Y-77119256D01*
X153560956Y-76934356D01*
X153600000Y-76738067D01*
X153600000Y-76537933D01*
X153560956Y-76341644D01*
X153484368Y-76156744D01*
X153373179Y-75990338D01*
X153231662Y-75848821D01*
X153065256Y-75737632D01*
X152880356Y-75661044D01*
X152684067Y-75622000D01*
X152483933Y-75622000D01*
X152287644Y-75661044D01*
X152102744Y-75737632D01*
X151936338Y-75848821D01*
X151794821Y-75990338D01*
X151683632Y-76156744D01*
X151607044Y-76341644D01*
X151568000Y-76537933D01*
X151568000Y-76738067D01*
X151607044Y-76934356D01*
X151683632Y-77119256D01*
X151794821Y-77285662D01*
X151822000Y-77312841D01*
X151822001Y-79764368D01*
X150768352Y-80818018D01*
X150760368Y-80798744D01*
X150649179Y-80632338D01*
X150507662Y-80490821D01*
X150341256Y-80379632D01*
X150156356Y-80303044D01*
X149960067Y-80264000D01*
X149759933Y-80264000D01*
X149563644Y-80303044D01*
X149378744Y-80379632D01*
X149212338Y-80490821D01*
X149185159Y-80518000D01*
X148143631Y-80518000D01*
X148082000Y-80456369D01*
X148082000Y-80417933D01*
X148042956Y-80221644D01*
X147966368Y-80036744D01*
X147855179Y-79870338D01*
X147713662Y-79728821D01*
X147547256Y-79617632D01*
X147362356Y-79541044D01*
X147166067Y-79502000D01*
X146965933Y-79502000D01*
X146769644Y-79541044D01*
X146584744Y-79617632D01*
X146418338Y-79728821D01*
X146276821Y-79870338D01*
X146165632Y-80036744D01*
X146089044Y-80221644D01*
X146050000Y-80417933D01*
X137160000Y-80417933D01*
X137160000Y-79668841D01*
X137187179Y-79641662D01*
X137298368Y-79475256D01*
X137374956Y-79290356D01*
X137414000Y-79094067D01*
X137414000Y-78893933D01*
X137374956Y-78697644D01*
X137298368Y-78512744D01*
X137187179Y-78346338D01*
X137045662Y-78204821D01*
X136879256Y-78093632D01*
X136694356Y-78017044D01*
X136498067Y-77978000D01*
X136297933Y-77978000D01*
X136101644Y-78017044D01*
X135916744Y-78093632D01*
X135750338Y-78204821D01*
X135608821Y-78346338D01*
X135497632Y-78512744D01*
X135421044Y-78697644D01*
X135382000Y-78893933D01*
X132153325Y-78893933D01*
X130921762Y-77662370D01*
X130921762Y-77418453D01*
X131000668Y-77472481D01*
X131210111Y-77562031D01*
X131433000Y-77609000D01*
X131953000Y-77609000D01*
X131953000Y-76581000D01*
X132207000Y-76581000D01*
X132207000Y-77609000D01*
X132727000Y-77609000D01*
X132949889Y-77562031D01*
X133159332Y-77472481D01*
X133347280Y-77343791D01*
X133506511Y-77180907D01*
X133630905Y-76990088D01*
X133713996Y-76759023D01*
X133588122Y-76581000D01*
X132207000Y-76581000D01*
X131953000Y-76581000D01*
X131933000Y-76581000D01*
X131933000Y-76339000D01*
X132656737Y-76339000D01*
X132778577Y-76327000D01*
X133588122Y-76327000D01*
X133713996Y-76148977D01*
X133630905Y-75917912D01*
X133622438Y-75904924D01*
X133667015Y-75891402D01*
X133799392Y-75820645D01*
X133915422Y-75725422D01*
X133939284Y-75696346D01*
X134370347Y-75265283D01*
X134399422Y-75241422D01*
X134494645Y-75125392D01*
X134565402Y-74993015D01*
X134608974Y-74849378D01*
X134620000Y-74737426D01*
X134620000Y-74737424D01*
X134623686Y-74700001D01*
X134620000Y-74662578D01*
X134620000Y-70903422D01*
X134623686Y-70865999D01*
X134620000Y-70828574D01*
X134608974Y-70716622D01*
X134565402Y-70572985D01*
X134494645Y-70440608D01*
X134399422Y-70324578D01*
X134370352Y-70300721D01*
X132334000Y-68264370D01*
X132334000Y-66258072D01*
X132422000Y-66258072D01*
X132546482Y-66245812D01*
X132666180Y-66209502D01*
X132776494Y-66150537D01*
X132873185Y-66071185D01*
X132952537Y-65974494D01*
X133011502Y-65864180D01*
X133047812Y-65744482D01*
X133060072Y-65620000D01*
X133060072Y-63920000D01*
X133047812Y-63795518D01*
X133011502Y-63675820D01*
X132952537Y-63565506D01*
X132873185Y-63468815D01*
X132776494Y-63389463D01*
X132666180Y-63330498D01*
X132593620Y-63308487D01*
X132725475Y-63176632D01*
X132887990Y-62933411D01*
X132999932Y-62663158D01*
X133057000Y-62376260D01*
X133057000Y-62083740D01*
X132999932Y-61796842D01*
X132887990Y-61526589D01*
X132725475Y-61283368D01*
X132518632Y-61076525D01*
X132275411Y-60914010D01*
X132005158Y-60802068D01*
X131718260Y-60745000D01*
X131425740Y-60745000D01*
X131138842Y-60802068D01*
X130868589Y-60914010D01*
X130625368Y-61076525D01*
X130418525Y-61283368D01*
X130256010Y-61526589D01*
X130144068Y-61796842D01*
X130087000Y-62083740D01*
X130087000Y-62376260D01*
X130144068Y-62663158D01*
X130256010Y-62933411D01*
X130418525Y-63176632D01*
X130550380Y-63308487D01*
X130477820Y-63330498D01*
X130367506Y-63389463D01*
X130270815Y-63468815D01*
X130191463Y-63565506D01*
X130132498Y-63675820D01*
X130096188Y-63795518D01*
X130083928Y-63920000D01*
X130083928Y-65620000D01*
X130096188Y-65744482D01*
X130132498Y-65864180D01*
X130191463Y-65974494D01*
X130270815Y-66071185D01*
X130367506Y-66150537D01*
X130477820Y-66209502D01*
X130597518Y-66245812D01*
X130722000Y-66258072D01*
X130810001Y-66258072D01*
X130810000Y-68542577D01*
X130806314Y-68580000D01*
X130810000Y-68617423D01*
X130810000Y-68617425D01*
X130821026Y-68729377D01*
X130864598Y-68873014D01*
X130897535Y-68934635D01*
X130935355Y-69005392D01*
X130968389Y-69045644D01*
X131030578Y-69121422D01*
X131059654Y-69145284D01*
X133096001Y-71181632D01*
X133096000Y-72869478D01*
X133044138Y-72841757D01*
X132826419Y-72775712D01*
X132656737Y-72759000D01*
X131503263Y-72759000D01*
X131333581Y-72775712D01*
X131115862Y-72841757D01*
X130915212Y-72949006D01*
X130739340Y-73093340D01*
X130686154Y-73158148D01*
X130636622Y-73163026D01*
X130492985Y-73206598D01*
X130360608Y-73277355D01*
X130244578Y-73372578D01*
X130220720Y-73401649D01*
X129679700Y-73942670D01*
X129679700Y-60025393D01*
X131794250Y-60023000D01*
X131953000Y-59864250D01*
X131953000Y-56515000D01*
X131933000Y-56515000D01*
X131933000Y-56261000D01*
X131953000Y-56261000D01*
X131953000Y-56241000D01*
X132207000Y-56241000D01*
X132207000Y-56261000D01*
X132227000Y-56261000D01*
X132227000Y-56515000D01*
X132207000Y-56515000D01*
X132207000Y-59864250D01*
X132365750Y-60023000D01*
X135080000Y-60026072D01*
X135128000Y-60021345D01*
X135128001Y-71844567D01*
X135124314Y-71882000D01*
X135139027Y-72031378D01*
X135182599Y-72175015D01*
X135253355Y-72307392D01*
X135299202Y-72363256D01*
X135348579Y-72423422D01*
X135377649Y-72447279D01*
X137922000Y-74991631D01*
X137922000Y-75030067D01*
X137961044Y-75226356D01*
X138037632Y-75411256D01*
X138148821Y-75577662D01*
X138290338Y-75719179D01*
X138456744Y-75830368D01*
X138641644Y-75906956D01*
X138837933Y-75946000D01*
X139038067Y-75946000D01*
X139234356Y-75906956D01*
X139419256Y-75830368D01*
X139585662Y-75719179D01*
X139727179Y-75577662D01*
X139838368Y-75411256D01*
X139914956Y-75226356D01*
X139954000Y-75030067D01*
X139954000Y-74829933D01*
X139914956Y-74633644D01*
X139838368Y-74448744D01*
X139727179Y-74282338D01*
X139585662Y-74140821D01*
X139419256Y-74029632D01*
X139234356Y-73953044D01*
X139038067Y-73914000D01*
X138999631Y-73914000D01*
X136652000Y-71566370D01*
X136652000Y-59886839D01*
X136673820Y-59898502D01*
X136793518Y-59934812D01*
X136918000Y-59947072D01*
X137382250Y-59944000D01*
X137541000Y-59785250D01*
X137541000Y-58421000D01*
X137521000Y-58421000D01*
X137521000Y-58167000D01*
X137541000Y-58167000D01*
X137541000Y-56802750D01*
X137795000Y-56802750D01*
X137795000Y-58167000D01*
X137815000Y-58167000D01*
X137815000Y-58421000D01*
X137795000Y-58421000D01*
X137795000Y-59785250D01*
X137953750Y-59944000D01*
X138418000Y-59947072D01*
X138542482Y-59934812D01*
X138662180Y-59898502D01*
X138772494Y-59839537D01*
X138869185Y-59760185D01*
X138938000Y-59676333D01*
X139006815Y-59760185D01*
X139103506Y-59839537D01*
X139213820Y-59898502D01*
X139333518Y-59934812D01*
X139458000Y-59947072D01*
X140958000Y-59947072D01*
X141082482Y-59934812D01*
X141202180Y-59898502D01*
X141312494Y-59839537D01*
X141409185Y-59760185D01*
X141478000Y-59676333D01*
X141546815Y-59760185D01*
X141643506Y-59839537D01*
X141753820Y-59898502D01*
X141873518Y-59934812D01*
X141986001Y-59945890D01*
X141986001Y-60541567D01*
X141982314Y-60579000D01*
X141997027Y-60728378D01*
X142040599Y-60872015D01*
X142111355Y-61004392D01*
X142170554Y-61076525D01*
X142206579Y-61120422D01*
X142235649Y-61144279D01*
X142944720Y-61853351D01*
X142968578Y-61882422D01*
X142997648Y-61906279D01*
X143084607Y-61977645D01*
X143127514Y-62000579D01*
X143216985Y-62048402D01*
X143360622Y-62091974D01*
X143472574Y-62103000D01*
X143472577Y-62103000D01*
X143510000Y-62106686D01*
X143547423Y-62103000D01*
X148427577Y-62103000D01*
X148465000Y-62106686D01*
X148502423Y-62103000D01*
X148502426Y-62103000D01*
X148614378Y-62091974D01*
X148758015Y-62048402D01*
X148775000Y-62039323D01*
X148775000Y-62504576D01*
X148771314Y-62542000D01*
X148775000Y-62579423D01*
X148775000Y-62579425D01*
X148786026Y-62691377D01*
X148829598Y-62835014D01*
X148829599Y-62835015D01*
X148900355Y-62967392D01*
X148939983Y-63015678D01*
X148995578Y-63083422D01*
X149024654Y-63107284D01*
X152753821Y-66836452D01*
X152777678Y-66865522D01*
X152893708Y-66960745D01*
X153026085Y-67031502D01*
X153169722Y-67075074D01*
X153278995Y-67085836D01*
X153306438Y-67113279D01*
X153472844Y-67224468D01*
X153657744Y-67301056D01*
X153854033Y-67340100D01*
X154054167Y-67340100D01*
X154250456Y-67301056D01*
X154435356Y-67224468D01*
X154601762Y-67113279D01*
X154743279Y-66971762D01*
X154854468Y-66805356D01*
X154931056Y-66620456D01*
X154970100Y-66424167D01*
X154970100Y-66224033D01*
X154931056Y-66027744D01*
X154854468Y-65842844D01*
X154743279Y-65676438D01*
X154601762Y-65534921D01*
X154435356Y-65423732D01*
X154250456Y-65347144D01*
X154054167Y-65308100D01*
X153854033Y-65308100D01*
X153657744Y-65347144D01*
X153489474Y-65416843D01*
X150299000Y-62226370D01*
X150299000Y-61376250D01*
X150310000Y-61365250D01*
X150310000Y-61319745D01*
X150375970Y-61239361D01*
X150435794Y-61127439D01*
X150472633Y-61005996D01*
X150485072Y-60879700D01*
X150485072Y-60432000D01*
X150564000Y-60432000D01*
X150564000Y-60452000D01*
X150584000Y-60452000D01*
X150584000Y-60706000D01*
X150564000Y-60706000D01*
X150564000Y-61365250D01*
X150722750Y-61524000D01*
X150747000Y-61527072D01*
X150871482Y-61514812D01*
X150991180Y-61478502D01*
X151101494Y-61419537D01*
X151198185Y-61340185D01*
X151277537Y-61243494D01*
X151336502Y-61133180D01*
X151372812Y-61013482D01*
X151385072Y-60889000D01*
X151382000Y-60864750D01*
X151223252Y-60706002D01*
X151382000Y-60706002D01*
X151382000Y-60648530D01*
X151436506Y-60693262D01*
X151549154Y-60753474D01*
X151671385Y-60790552D01*
X151798500Y-60803072D01*
X152671500Y-60803072D01*
X152798615Y-60790552D01*
X152920846Y-60753474D01*
X153030006Y-60695126D01*
X153030506Y-60695537D01*
X153140820Y-60754502D01*
X153260518Y-60790812D01*
X153385000Y-60803072D01*
X153549250Y-60800000D01*
X153708000Y-60641250D01*
X153708000Y-59817000D01*
X153962000Y-59817000D01*
X153962000Y-60641250D01*
X154120750Y-60800000D01*
X154285000Y-60803072D01*
X154409482Y-60790812D01*
X154529180Y-60754502D01*
X154639494Y-60695537D01*
X154736185Y-60616185D01*
X154815537Y-60519494D01*
X154874502Y-60409180D01*
X154910812Y-60289482D01*
X154923072Y-60165000D01*
X154920000Y-59975750D01*
X154761250Y-59817000D01*
X153962000Y-59817000D01*
X153708000Y-59817000D01*
X153688000Y-59817000D01*
X153688000Y-59563000D01*
X153708000Y-59563000D01*
X153708000Y-58738750D01*
X153962000Y-58738750D01*
X153962000Y-59563000D01*
X154761250Y-59563000D01*
X154920000Y-59404250D01*
X154923072Y-59215000D01*
X154910812Y-59090518D01*
X154874502Y-58970820D01*
X154815537Y-58860506D01*
X154736185Y-58763815D01*
X154639494Y-58684463D01*
X154529180Y-58625498D01*
X154409482Y-58589188D01*
X154285000Y-58576928D01*
X154120750Y-58580000D01*
X153962000Y-58738750D01*
X153708000Y-58738750D01*
X153549250Y-58580000D01*
X153385000Y-58576928D01*
X153260518Y-58589188D01*
X153140820Y-58625498D01*
X153030506Y-58684463D01*
X153030006Y-58684874D01*
X152920846Y-58626526D01*
X152798615Y-58589448D01*
X152671500Y-58576928D01*
X151798500Y-58576928D01*
X151671385Y-58589448D01*
X151549154Y-58626526D01*
X151509403Y-58647773D01*
X151423015Y-58601598D01*
X151279378Y-58558026D01*
X151194384Y-58549655D01*
X151097361Y-58470030D01*
X150985439Y-58410206D01*
X150863996Y-58373367D01*
X150737700Y-58360928D01*
X150136300Y-58360928D01*
X150010004Y-58373367D01*
X149987000Y-58380345D01*
X149963996Y-58373367D01*
X149837700Y-58360928D01*
X149236300Y-58360928D01*
X149110004Y-58373367D01*
X148988561Y-58410206D01*
X148876639Y-58470030D01*
X148778539Y-58550539D01*
X148698030Y-58648639D01*
X148638206Y-58760561D01*
X148601367Y-58882004D01*
X148588928Y-59008300D01*
X148588928Y-59609700D01*
X148601367Y-59735996D01*
X148638206Y-59857439D01*
X148684474Y-59944000D01*
X148638206Y-60030561D01*
X148612254Y-60116116D01*
X148149370Y-60579000D01*
X143825631Y-60579000D01*
X143510000Y-60263370D01*
X143510000Y-59945890D01*
X143622482Y-59934812D01*
X143742180Y-59898502D01*
X143852494Y-59839537D01*
X143949185Y-59760185D01*
X144018000Y-59676333D01*
X144086815Y-59760185D01*
X144183506Y-59839537D01*
X144293820Y-59898502D01*
X144413518Y-59934812D01*
X144538000Y-59947072D01*
X146038000Y-59947072D01*
X146162482Y-59934812D01*
X146282180Y-59898502D01*
X146392494Y-59839537D01*
X146489185Y-59760185D01*
X146568537Y-59663494D01*
X146627502Y-59553180D01*
X146663812Y-59433482D01*
X146676072Y-59309000D01*
X146676072Y-57279000D01*
X146663812Y-57154518D01*
X146628083Y-57036735D01*
X148048000Y-57036735D01*
X148048000Y-57263265D01*
X148092194Y-57485443D01*
X148178884Y-57694729D01*
X148304737Y-57883082D01*
X148464918Y-58043263D01*
X148653271Y-58169116D01*
X148862557Y-58255806D01*
X149084735Y-58300000D01*
X149311265Y-58300000D01*
X149533443Y-58255806D01*
X149742729Y-58169116D01*
X149931082Y-58043263D01*
X150091263Y-57883082D01*
X150217116Y-57694729D01*
X150303806Y-57485443D01*
X150348000Y-57263265D01*
X150348000Y-57036735D01*
X152928000Y-57036735D01*
X152928000Y-57263265D01*
X152972194Y-57485443D01*
X153058884Y-57694729D01*
X153184737Y-57883082D01*
X153344918Y-58043263D01*
X153533271Y-58169116D01*
X153742557Y-58255806D01*
X153964735Y-58300000D01*
X154191265Y-58300000D01*
X154413443Y-58255806D01*
X154622729Y-58169116D01*
X154811082Y-58043263D01*
X154971263Y-57883082D01*
X155097116Y-57694729D01*
X155183806Y-57485443D01*
X155224870Y-57279000D01*
X156599928Y-57279000D01*
X156599928Y-59309000D01*
X156612188Y-59433482D01*
X156648498Y-59553180D01*
X156707463Y-59663494D01*
X156786815Y-59760185D01*
X156883506Y-59839537D01*
X156993820Y-59898502D01*
X157113518Y-59934812D01*
X157238000Y-59947072D01*
X158738000Y-59947072D01*
X158862482Y-59934812D01*
X158982180Y-59898502D01*
X159092494Y-59839537D01*
X159189185Y-59760185D01*
X159268537Y-59663494D01*
X159327502Y-59553180D01*
X159363812Y-59433482D01*
X159376072Y-59309000D01*
X159376072Y-57279000D01*
X161679928Y-57279000D01*
X161679928Y-59309000D01*
X161692188Y-59433482D01*
X161728498Y-59553180D01*
X161787463Y-59663494D01*
X161866815Y-59760185D01*
X161963506Y-59839537D01*
X162073820Y-59898502D01*
X162193518Y-59934812D01*
X162318000Y-59947072D01*
X163818000Y-59947072D01*
X163942482Y-59934812D01*
X164062180Y-59898502D01*
X164172494Y-59839537D01*
X164269185Y-59760185D01*
X164348537Y-59663494D01*
X164407502Y-59553180D01*
X164443812Y-59433482D01*
X164456072Y-59309000D01*
X164456072Y-57279000D01*
X166759928Y-57279000D01*
X166759928Y-59309000D01*
X166772188Y-59433482D01*
X166808498Y-59553180D01*
X166867463Y-59663494D01*
X166946815Y-59760185D01*
X167043506Y-59839537D01*
X167153820Y-59898502D01*
X167273518Y-59934812D01*
X167398000Y-59947072D01*
X168898000Y-59947072D01*
X169022482Y-59934812D01*
X169142180Y-59898502D01*
X169252494Y-59839537D01*
X169349185Y-59760185D01*
X169428537Y-59663494D01*
X169487502Y-59553180D01*
X169523812Y-59433482D01*
X169528291Y-59388000D01*
X170097928Y-59388000D01*
X170110188Y-59512482D01*
X170146498Y-59632180D01*
X170205463Y-59742494D01*
X170284815Y-59839185D01*
X170381506Y-59918537D01*
X170491820Y-59977502D01*
X170611518Y-60013812D01*
X170736000Y-60026072D01*
X173450250Y-60023000D01*
X173609000Y-59864250D01*
X173609000Y-56515000D01*
X170259750Y-56515000D01*
X170101000Y-56673750D01*
X170097928Y-59388000D01*
X169528291Y-59388000D01*
X169536072Y-59309000D01*
X169536072Y-57279000D01*
X169523812Y-57154518D01*
X169487502Y-57034820D01*
X169428537Y-56924506D01*
X169349185Y-56827815D01*
X169252494Y-56748463D01*
X169142180Y-56689498D01*
X169022482Y-56653188D01*
X168898000Y-56640928D01*
X167398000Y-56640928D01*
X167273518Y-56653188D01*
X167153820Y-56689498D01*
X167043506Y-56748463D01*
X166946815Y-56827815D01*
X166867463Y-56924506D01*
X166808498Y-57034820D01*
X166772188Y-57154518D01*
X166759928Y-57279000D01*
X164456072Y-57279000D01*
X164443812Y-57154518D01*
X164407502Y-57034820D01*
X164348537Y-56924506D01*
X164269185Y-56827815D01*
X164172494Y-56748463D01*
X164062180Y-56689498D01*
X163942482Y-56653188D01*
X163818000Y-56640928D01*
X162318000Y-56640928D01*
X162193518Y-56653188D01*
X162073820Y-56689498D01*
X161963506Y-56748463D01*
X161866815Y-56827815D01*
X161787463Y-56924506D01*
X161728498Y-57034820D01*
X161692188Y-57154518D01*
X161679928Y-57279000D01*
X159376072Y-57279000D01*
X159363812Y-57154518D01*
X159327502Y-57034820D01*
X159268537Y-56924506D01*
X159189185Y-56827815D01*
X159092494Y-56748463D01*
X158982180Y-56689498D01*
X158862482Y-56653188D01*
X158738000Y-56640928D01*
X157238000Y-56640928D01*
X157113518Y-56653188D01*
X156993820Y-56689498D01*
X156883506Y-56748463D01*
X156786815Y-56827815D01*
X156707463Y-56924506D01*
X156648498Y-57034820D01*
X156612188Y-57154518D01*
X156599928Y-57279000D01*
X155224870Y-57279000D01*
X155228000Y-57263265D01*
X155228000Y-57036735D01*
X155183806Y-56814557D01*
X155097116Y-56605271D01*
X154971263Y-56416918D01*
X154811082Y-56256737D01*
X154622729Y-56130884D01*
X154413443Y-56044194D01*
X154191265Y-56000000D01*
X153964735Y-56000000D01*
X153742557Y-56044194D01*
X153533271Y-56130884D01*
X153344918Y-56256737D01*
X153184737Y-56416918D01*
X153058884Y-56605271D01*
X152972194Y-56814557D01*
X152928000Y-57036735D01*
X150348000Y-57036735D01*
X150303806Y-56814557D01*
X150217116Y-56605271D01*
X150091263Y-56416918D01*
X149931082Y-56256737D01*
X149742729Y-56130884D01*
X149533443Y-56044194D01*
X149311265Y-56000000D01*
X149084735Y-56000000D01*
X148862557Y-56044194D01*
X148653271Y-56130884D01*
X148464918Y-56256737D01*
X148304737Y-56416918D01*
X148178884Y-56605271D01*
X148092194Y-56814557D01*
X148048000Y-57036735D01*
X146628083Y-57036735D01*
X146627502Y-57034820D01*
X146568537Y-56924506D01*
X146489185Y-56827815D01*
X146392494Y-56748463D01*
X146282180Y-56689498D01*
X146162482Y-56653188D01*
X146038000Y-56640928D01*
X144538000Y-56640928D01*
X144413518Y-56653188D01*
X144293820Y-56689498D01*
X144183506Y-56748463D01*
X144086815Y-56827815D01*
X144018000Y-56911667D01*
X143949185Y-56827815D01*
X143852494Y-56748463D01*
X143742180Y-56689498D01*
X143622482Y-56653188D01*
X143498000Y-56640928D01*
X141998000Y-56640928D01*
X141873518Y-56653188D01*
X141753820Y-56689498D01*
X141643506Y-56748463D01*
X141546815Y-56827815D01*
X141478000Y-56911667D01*
X141409185Y-56827815D01*
X141312494Y-56748463D01*
X141202180Y-56689498D01*
X141082482Y-56653188D01*
X140958000Y-56640928D01*
X139458000Y-56640928D01*
X139333518Y-56653188D01*
X139213820Y-56689498D01*
X139103506Y-56748463D01*
X139006815Y-56827815D01*
X138938000Y-56911667D01*
X138869185Y-56827815D01*
X138772494Y-56748463D01*
X138662180Y-56689498D01*
X138542482Y-56653188D01*
X138418000Y-56640928D01*
X137953750Y-56644000D01*
X137795000Y-56802750D01*
X137541000Y-56802750D01*
X137382250Y-56644000D01*
X136918000Y-56640928D01*
X136793518Y-56653188D01*
X136673820Y-56689498D01*
X136657304Y-56698326D01*
X137221631Y-56134000D01*
X137501159Y-56134000D01*
X137528338Y-56161179D01*
X137694744Y-56272368D01*
X137879644Y-56348956D01*
X138075933Y-56388000D01*
X138276067Y-56388000D01*
X138472356Y-56348956D01*
X138657256Y-56272368D01*
X138823662Y-56161179D01*
X138965179Y-56019662D01*
X139076368Y-55853256D01*
X139152956Y-55668356D01*
X139192000Y-55472067D01*
X139192000Y-55271933D01*
X139152956Y-55075644D01*
X139076368Y-54890744D01*
X138965179Y-54724338D01*
X138823662Y-54582821D01*
X138657256Y-54471632D01*
X138472356Y-54395044D01*
X138276067Y-54356000D01*
X138075933Y-54356000D01*
X137879644Y-54395044D01*
X137694744Y-54471632D01*
X137528338Y-54582821D01*
X137501159Y-54610000D01*
X136943423Y-54610000D01*
X136906000Y-54606314D01*
X136868577Y-54610000D01*
X136868574Y-54610000D01*
X136756622Y-54621026D01*
X136612985Y-54664598D01*
X136551364Y-54697535D01*
X136480607Y-54735355D01*
X136397904Y-54803228D01*
X136364578Y-54830578D01*
X136340721Y-54859649D01*
X135715699Y-55484671D01*
X135717393Y-53987700D01*
X170098607Y-53987700D01*
X170101000Y-56102250D01*
G04 #@! TA.AperFunction,Conductor*
D32*
G36*
X170101000Y-56102250D02*
G01*
X170259750Y-56261000D01*
X173609000Y-56261000D01*
X173609000Y-56241000D01*
X173863000Y-56241000D01*
X173863000Y-56261000D01*
X173883000Y-56261000D01*
X173883000Y-56515000D01*
X173863000Y-56515000D01*
X173863000Y-59864250D01*
X174021750Y-60023000D01*
X176136300Y-60025393D01*
X176136300Y-69648670D01*
X175317284Y-68829654D01*
X175293422Y-68800578D01*
X175177392Y-68705355D01*
X175045015Y-68634598D01*
X174901378Y-68591026D01*
X174789426Y-68580000D01*
X174789423Y-68580000D01*
X174752000Y-68576314D01*
X174714577Y-68580000D01*
X166536841Y-68580000D01*
X166509662Y-68552821D01*
X166343256Y-68441632D01*
X166158356Y-68365044D01*
X165962067Y-68326000D01*
X165761933Y-68326000D01*
X165565644Y-68365044D01*
X165380744Y-68441632D01*
X165214338Y-68552821D01*
X165187159Y-68580000D01*
X162875631Y-68580000D01*
X162052000Y-67756370D01*
X162052000Y-67222841D01*
X162079179Y-67195662D01*
X162190368Y-67029256D01*
X162266956Y-66844356D01*
X162306000Y-66648067D01*
X162306000Y-66447933D01*
X162266956Y-66251644D01*
X162190368Y-66066744D01*
X162079179Y-65900338D01*
X161937662Y-65758821D01*
X161771256Y-65647632D01*
X161586356Y-65571044D01*
X161390067Y-65532000D01*
X161189933Y-65532000D01*
X160993644Y-65571044D01*
X160808744Y-65647632D01*
X160642338Y-65758821D01*
X160500821Y-65900338D01*
X160389632Y-66066744D01*
X160313044Y-66251644D01*
X160274000Y-66447933D01*
X160274000Y-66648067D01*
X160313044Y-66844356D01*
X160389632Y-67029256D01*
X160500821Y-67195662D01*
X160528000Y-67222841D01*
X160528001Y-68034567D01*
X160524314Y-68072000D01*
X160539027Y-68221378D01*
X160582599Y-68365015D01*
X160653355Y-68497392D01*
X160698845Y-68552821D01*
X160747708Y-68612360D01*
X160677378Y-68591026D01*
X160565426Y-68580000D01*
X160565423Y-68580000D01*
X160528000Y-68576314D01*
X160490577Y-68580000D01*
X154598841Y-68580000D01*
X154571662Y-68552821D01*
X154405256Y-68441632D01*
X154220356Y-68365044D01*
X154024067Y-68326000D01*
X153823933Y-68326000D01*
X153627644Y-68365044D01*
X153442744Y-68441632D01*
X153276338Y-68552821D01*
X153134821Y-68694338D01*
X153023632Y-68860744D01*
X152947044Y-69045644D01*
X152908000Y-69241933D01*
X152908000Y-69304574D01*
X152904314Y-69342000D01*
X152908000Y-69379426D01*
X152908000Y-69442067D01*
X152947044Y-69638356D01*
X153023632Y-69823256D01*
X153134821Y-69989662D01*
X153276338Y-70131179D01*
X153442744Y-70242368D01*
X153627644Y-70318956D01*
X153823933Y-70358000D01*
X154024067Y-70358000D01*
X154220356Y-70318956D01*
X154405256Y-70242368D01*
X154571662Y-70131179D01*
X154598841Y-70104000D01*
X160212370Y-70104000D01*
X162052000Y-71943631D01*
X162052000Y-71982067D01*
X162091044Y-72178356D01*
X162167632Y-72363256D01*
X162278821Y-72529662D01*
X162420338Y-72671179D01*
X162586744Y-72782368D01*
X162771644Y-72858956D01*
X162967933Y-72898000D01*
X163168067Y-72898000D01*
X163364356Y-72858956D01*
X163549256Y-72782368D01*
X163715662Y-72671179D01*
X163857179Y-72529662D01*
X163968368Y-72363256D01*
X164044956Y-72178356D01*
X164084000Y-71982067D01*
X164084000Y-71781933D01*
X164044956Y-71585644D01*
X163968368Y-71400744D01*
X163857179Y-71234338D01*
X163715662Y-71092821D01*
X163549256Y-70981632D01*
X163364356Y-70905044D01*
X163168067Y-70866000D01*
X163129631Y-70866000D01*
X162333083Y-70069453D01*
X162410622Y-70092974D01*
X162522574Y-70104000D01*
X162522576Y-70104000D01*
X162559999Y-70107686D01*
X162597422Y-70104000D01*
X165187159Y-70104000D01*
X165214338Y-70131179D01*
X165380744Y-70242368D01*
X165565644Y-70318956D01*
X165761933Y-70358000D01*
X165962067Y-70358000D01*
X166158356Y-70318956D01*
X166343256Y-70242368D01*
X166509662Y-70131179D01*
X166536841Y-70104000D01*
X174436370Y-70104000D01*
X175260001Y-70927632D01*
X175260001Y-76590371D01*
X175041747Y-76372117D01*
X175015794Y-76286561D01*
X174955970Y-76174639D01*
X174879000Y-76080851D01*
X174879000Y-75983423D01*
X174882686Y-75946000D01*
X174879000Y-75908574D01*
X174867974Y-75796622D01*
X174824402Y-75652985D01*
X174776950Y-75564209D01*
X174753645Y-75520607D01*
X174682279Y-75433648D01*
X174658422Y-75404578D01*
X174629353Y-75380722D01*
X173793284Y-74544653D01*
X173769422Y-74515578D01*
X173653392Y-74420355D01*
X173521015Y-74349598D01*
X173377378Y-74306026D01*
X173265426Y-74295000D01*
X173265423Y-74295000D01*
X173228000Y-74291314D01*
X173190577Y-74295000D01*
X172036743Y-74295000D01*
X171998099Y-74269179D01*
X171836312Y-74202164D01*
X171664559Y-74168000D01*
X171489441Y-74168000D01*
X171317688Y-74202164D01*
X171155901Y-74269179D01*
X171010296Y-74366469D01*
X170886469Y-74490296D01*
X170789179Y-74635901D01*
X170722164Y-74797688D01*
X170688000Y-74969441D01*
X170688000Y-75144559D01*
X170722164Y-75316312D01*
X170789179Y-75478099D01*
X170886469Y-75623704D01*
X171010296Y-75747531D01*
X171155901Y-75844821D01*
X171317688Y-75911836D01*
X171482846Y-75944688D01*
X171484164Y-75951312D01*
X171551179Y-76113099D01*
X171577000Y-76151743D01*
X171577000Y-76265370D01*
X171301369Y-76541001D01*
X170720155Y-76541001D01*
X170693836Y-76408688D01*
X170626821Y-76246901D01*
X170529531Y-76101296D01*
X170405704Y-75977469D01*
X170260099Y-75880179D01*
X170098312Y-75813164D01*
X169926559Y-75779000D01*
X169751441Y-75779000D01*
X169579688Y-75813164D01*
X169417901Y-75880179D01*
X169379257Y-75906000D01*
X161768828Y-75906000D01*
X158756482Y-72893654D01*
X158732620Y-72864578D01*
X158616590Y-72769355D01*
X158484213Y-72698598D01*
X158340576Y-72655026D01*
X158228624Y-72644000D01*
X158228621Y-72644000D01*
X158191198Y-72640314D01*
X158153775Y-72644000D01*
X157939743Y-72644000D01*
X157901099Y-72618179D01*
X157739312Y-72551164D01*
X157567559Y-72517000D01*
X157392441Y-72517000D01*
X157220688Y-72551164D01*
X157058901Y-72618179D01*
X156913296Y-72715469D01*
X156795346Y-72833419D01*
X156745179Y-72758338D01*
X156603662Y-72616821D01*
X156437256Y-72505632D01*
X156252356Y-72429044D01*
X156056067Y-72390000D01*
X155855933Y-72390000D01*
X155659644Y-72429044D01*
X155474744Y-72505632D01*
X155308338Y-72616821D01*
X155281159Y-72644000D01*
X149389423Y-72644000D01*
X149352000Y-72640314D01*
X149314577Y-72644000D01*
X149314574Y-72644000D01*
X149202622Y-72655026D01*
X149058985Y-72698598D01*
X149027422Y-72715469D01*
X148926607Y-72769355D01*
X148843904Y-72837228D01*
X148810578Y-72864578D01*
X148786720Y-72893649D01*
X148528369Y-73152000D01*
X148489933Y-73152000D01*
X148293644Y-73191044D01*
X148108744Y-73267632D01*
X147942338Y-73378821D01*
X147800821Y-73520338D01*
X147689632Y-73686744D01*
X147613044Y-73871644D01*
X147574000Y-74067933D01*
X147574000Y-74268067D01*
X147613044Y-74464356D01*
X147689632Y-74649256D01*
X147800821Y-74815662D01*
X147942338Y-74957179D01*
X148108744Y-75068368D01*
X148293644Y-75144956D01*
X148489933Y-75184000D01*
X148690067Y-75184000D01*
X148886356Y-75144956D01*
X149071256Y-75068368D01*
X149237662Y-74957179D01*
X149379179Y-74815662D01*
X149490368Y-74649256D01*
X149566956Y-74464356D01*
X149606000Y-74268067D01*
X149606000Y-74229631D01*
X149667631Y-74168000D01*
X155281159Y-74168000D01*
X155308338Y-74195179D01*
X155474744Y-74306368D01*
X155659644Y-74382956D01*
X155855933Y-74422000D01*
X155862107Y-74422000D01*
X155863164Y-74427312D01*
X155930179Y-74589099D01*
X156027469Y-74734704D01*
X156108728Y-74815963D01*
X156043559Y-74803000D01*
X155868441Y-74803000D01*
X155696688Y-74837164D01*
X155534901Y-74904179D01*
X155389296Y-75001469D01*
X155265469Y-75125296D01*
X155168179Y-75270901D01*
X155101164Y-75432688D01*
X155067000Y-75604441D01*
X155067000Y-75779559D01*
X155101164Y-75951312D01*
X155168179Y-76113099D01*
X155194000Y-76151743D01*
X155194001Y-79718567D01*
X155190314Y-79756000D01*
X155205027Y-79905378D01*
X155248599Y-80049015D01*
X155319355Y-80181392D01*
X155387150Y-80264000D01*
X155414579Y-80297422D01*
X155443649Y-80321279D01*
X159156097Y-84033728D01*
X159165164Y-84079312D01*
X159232179Y-84241099D01*
X159329469Y-84386704D01*
X159453296Y-84510531D01*
X159598901Y-84607821D01*
X159760688Y-84674836D01*
X159932441Y-84709000D01*
X160107559Y-84709000D01*
X160279312Y-84674836D01*
X160441099Y-84607821D01*
X160536764Y-84543900D01*
X166896942Y-84543900D01*
X166932498Y-84547402D01*
X167074407Y-84533425D01*
X167149879Y-84510531D01*
X167210863Y-84492032D01*
X167336621Y-84424813D01*
X167446849Y-84334351D01*
X167469522Y-84306724D01*
X173324393Y-78451854D01*
X173355000Y-78489149D01*
X173355001Y-80456368D01*
X171490273Y-82321096D01*
X171444688Y-82330164D01*
X171282901Y-82397179D01*
X171137296Y-82494469D01*
X171013469Y-82618296D01*
X170916179Y-82763901D01*
X170849164Y-82925688D01*
X170815000Y-83097441D01*
X170815000Y-83272559D01*
X170849164Y-83444312D01*
X170916179Y-83606099D01*
X171013469Y-83751704D01*
X171137296Y-83875531D01*
X171282901Y-83972821D01*
X171444688Y-84039836D01*
X171616441Y-84074000D01*
X171791559Y-84074000D01*
X171963312Y-84039836D01*
X172125099Y-83972821D01*
X172270704Y-83875531D01*
X172394531Y-83751704D01*
X172491821Y-83606099D01*
X172558836Y-83444312D01*
X172567904Y-83398727D01*
X174244000Y-81722631D01*
X174244001Y-89749160D01*
X174129662Y-89634821D01*
X173963256Y-89523632D01*
X173778356Y-89447044D01*
X173582067Y-89408000D01*
X173381933Y-89408000D01*
X173185644Y-89447044D01*
X173000744Y-89523632D01*
X172942895Y-89562285D01*
X172893231Y-89501769D01*
X172794494Y-89420738D01*
X172681846Y-89360526D01*
X172559615Y-89323448D01*
X172432500Y-89310928D01*
X171559500Y-89310928D01*
X171432385Y-89323448D01*
X171310154Y-89360526D01*
X171197506Y-89420738D01*
X171196000Y-89421974D01*
X171194494Y-89420738D01*
X171081846Y-89360526D01*
X170959615Y-89323448D01*
X170832500Y-89310928D01*
X169959500Y-89310928D01*
X169832385Y-89323448D01*
X169710154Y-89360526D01*
X169597506Y-89420738D01*
X169498769Y-89501769D01*
X169417738Y-89600506D01*
X169357526Y-89713154D01*
X169320448Y-89835385D01*
X169307928Y-89962500D01*
X169307928Y-90885500D01*
X169320448Y-91012615D01*
X169357526Y-91134846D01*
X169417738Y-91247494D01*
X169471497Y-91313000D01*
X169417738Y-91378506D01*
X169375753Y-91457053D01*
X169251985Y-91494598D01*
X169182576Y-91531698D01*
X169169756Y-91523132D01*
X168984856Y-91446544D01*
X168788567Y-91407500D01*
X168588433Y-91407500D01*
X168392144Y-91446544D01*
X168207244Y-91523132D01*
X168040838Y-91634321D01*
X167899321Y-91775838D01*
X167788132Y-91942244D01*
X167711544Y-92127144D01*
X167672500Y-92323433D01*
X167672500Y-92414000D01*
X167519000Y-92414000D01*
X167519000Y-93472000D01*
X167539000Y-93472000D01*
X167539000Y-93726000D01*
X167519000Y-93726000D01*
X167519000Y-94784000D01*
X168069000Y-94784000D01*
X168297742Y-94736454D01*
X168512813Y-94645196D01*
X168656001Y-94547732D01*
X168656001Y-95300130D01*
X162762854Y-101193278D01*
X162733778Y-101217140D01*
X162678183Y-101284884D01*
X162638555Y-101333170D01*
X162600735Y-101403927D01*
X162567798Y-101465548D01*
X162524226Y-101609185D01*
X162513200Y-101721136D01*
X162509514Y-101758562D01*
X162513200Y-101795985D01*
X162513200Y-104117121D01*
X162382318Y-104171334D01*
X162073582Y-104377625D01*
X161811025Y-104640182D01*
X161604734Y-104948918D01*
X161550521Y-105079800D01*
X147559431Y-105079800D01*
X142511431Y-100031800D01*
X147937128Y-100031800D01*
X147937128Y-104031800D01*
X147949388Y-104156282D01*
X147985698Y-104275980D01*
X148044663Y-104386294D01*
X148124015Y-104482985D01*
X148220706Y-104562337D01*
X148331020Y-104621302D01*
X148450718Y-104657612D01*
X148575200Y-104669872D01*
X152575200Y-104669872D01*
X152699682Y-104657612D01*
X152819380Y-104621302D01*
X152929694Y-104562337D01*
X153026385Y-104482985D01*
X153105737Y-104386294D01*
X153164702Y-104275980D01*
X153201012Y-104156282D01*
X153213272Y-104031800D01*
X153213272Y-103047800D01*
X156033441Y-103047800D01*
X156083343Y-103052715D01*
X156133245Y-103047800D01*
X156282514Y-103033098D01*
X156474030Y-102975002D01*
X156650533Y-102880660D01*
X156805239Y-102753696D01*
X156837055Y-102714928D01*
X163090744Y-96461239D01*
X163114275Y-96497119D01*
X163278052Y-96663734D01*
X163471187Y-96795196D01*
X163686258Y-96886454D01*
X163915000Y-96934000D01*
X164465000Y-96934000D01*
X164465000Y-95876000D01*
X164719000Y-95876000D01*
X164719000Y-96934000D01*
X165269000Y-96934000D01*
X165497742Y-96886454D01*
X165712813Y-96795196D01*
X165905948Y-96663734D01*
X166069725Y-96497119D01*
X166197850Y-96301754D01*
X166285399Y-96085147D01*
X166285803Y-96058744D01*
X166160361Y-95876000D01*
X164719000Y-95876000D01*
X164465000Y-95876000D01*
X164445000Y-95876000D01*
X164445000Y-95622000D01*
X164465000Y-95622000D01*
X164465000Y-95602000D01*
X164719000Y-95602000D01*
X164719000Y-95622000D01*
X166160361Y-95622000D01*
X166285803Y-95439256D01*
X166285399Y-95412853D01*
X166197850Y-95196246D01*
X166069725Y-95000881D01*
X165905948Y-94834266D01*
X165712813Y-94702804D01*
X165497742Y-94611546D01*
X165269000Y-94564000D01*
X164987984Y-94564000D01*
X165818506Y-93733478D01*
X165698197Y-93908744D01*
X165698601Y-93935147D01*
X165786150Y-94151754D01*
X165914275Y-94347119D01*
X166078052Y-94513734D01*
X166271187Y-94645196D01*
X166486258Y-94736454D01*
X166715000Y-94784000D01*
X167265000Y-94784000D01*
X167265000Y-93726000D01*
X167245000Y-93726000D01*
X167245000Y-93472000D01*
X167265000Y-93472000D01*
X167265000Y-92414000D01*
X167137984Y-92414000D01*
X168831133Y-90720851D01*
X168869896Y-90689039D01*
X168996860Y-90534333D01*
X169091202Y-90357830D01*
X169149298Y-90166314D01*
X169164000Y-90017045D01*
X169164000Y-90017044D01*
X169168915Y-89967143D01*
X169164000Y-89917241D01*
X169164000Y-88586839D01*
X169252494Y-88539537D01*
X169349185Y-88460185D01*
X169428537Y-88363494D01*
X169487502Y-88253180D01*
X169523812Y-88133482D01*
X169536072Y-88009000D01*
X169536072Y-85979000D01*
X169523812Y-85854518D01*
X169487502Y-85734820D01*
X169428537Y-85624506D01*
X169349185Y-85527815D01*
X169252494Y-85448463D01*
X169142180Y-85389498D01*
X169022482Y-85353188D01*
X168898000Y-85340928D01*
X167398000Y-85340928D01*
X167273518Y-85353188D01*
X167153820Y-85389498D01*
X167043506Y-85448463D01*
X166946815Y-85527815D01*
X166867463Y-85624506D01*
X166808498Y-85734820D01*
X166772188Y-85854518D01*
X166759928Y-85979000D01*
X166759928Y-88009000D01*
X166772188Y-88133482D01*
X166808498Y-88253180D01*
X166867463Y-88363494D01*
X166946815Y-88460185D01*
X167043506Y-88539537D01*
X167132000Y-88586839D01*
X167132000Y-89546302D01*
X164886713Y-91791589D01*
X164857368Y-91720744D01*
X164746179Y-91554338D01*
X164719000Y-91527159D01*
X164719000Y-90545643D01*
X164888356Y-90511956D01*
X165073256Y-90435368D01*
X165239662Y-90324179D01*
X165381179Y-90182662D01*
X165492368Y-90016256D01*
X165568956Y-89831356D01*
X165608000Y-89635067D01*
X165608000Y-89434933D01*
X165568956Y-89238644D01*
X165492368Y-89053744D01*
X165381179Y-88887338D01*
X165239662Y-88745821D01*
X165073256Y-88634632D01*
X164888356Y-88558044D01*
X164692067Y-88519000D01*
X164491933Y-88519000D01*
X164295644Y-88558044D01*
X164110744Y-88634632D01*
X164084000Y-88652502D01*
X164084000Y-88586839D01*
X164172494Y-88539537D01*
X164269185Y-88460185D01*
X164348537Y-88363494D01*
X164407502Y-88253180D01*
X164443812Y-88133482D01*
X164456072Y-88009000D01*
X164456072Y-85979000D01*
X164443812Y-85854518D01*
X164407502Y-85734820D01*
X164348537Y-85624506D01*
X164269185Y-85527815D01*
X164172494Y-85448463D01*
X164062180Y-85389498D01*
X163942482Y-85353188D01*
X163818000Y-85340928D01*
X162318000Y-85340928D01*
X162193518Y-85353188D01*
X162073820Y-85389498D01*
X161963506Y-85448463D01*
X161866815Y-85527815D01*
X161787463Y-85624506D01*
X161728498Y-85734820D01*
X161692188Y-85854518D01*
X161679928Y-85979000D01*
X161679928Y-88009000D01*
X161692188Y-88133482D01*
X161728498Y-88253180D01*
X161787463Y-88363494D01*
X161866815Y-88460185D01*
X161963506Y-88539537D01*
X162052000Y-88586839D01*
X162052000Y-89495159D01*
X159594072Y-91953088D01*
X159594072Y-90345000D01*
X159581812Y-90220518D01*
X159545502Y-90100820D01*
X159486537Y-89990506D01*
X159407185Y-89893815D01*
X159310494Y-89814463D01*
X159200180Y-89755498D01*
X159080482Y-89719188D01*
X158956000Y-89706928D01*
X152956000Y-89706928D01*
X152831518Y-89719188D01*
X152711820Y-89755498D01*
X152601506Y-89814463D01*
X152590500Y-89823495D01*
X152579494Y-89814463D01*
X152469180Y-89755498D01*
X152349482Y-89719188D01*
X152225000Y-89706928D01*
X149510750Y-89710000D01*
X149352000Y-89868750D01*
X149352000Y-93218000D01*
X149372000Y-93218000D01*
X149372000Y-93472000D01*
X149352000Y-93472000D01*
X149352000Y-96821250D01*
X149510750Y-96980000D01*
X152225000Y-96983072D01*
X152349482Y-96970812D01*
X152469180Y-96934502D01*
X152579494Y-96875537D01*
X152590500Y-96866505D01*
X152601506Y-96875537D01*
X152711820Y-96934502D01*
X152831518Y-96970812D01*
X152956000Y-96983072D01*
X158956000Y-96983072D01*
X159080482Y-96970812D01*
X159200180Y-96934502D01*
X159310494Y-96875537D01*
X159407185Y-96796185D01*
X159486537Y-96699494D01*
X159545502Y-96589180D01*
X159581812Y-96469482D01*
X159594072Y-96345000D01*
X159594072Y-94361000D01*
X159668098Y-94361000D01*
X159718000Y-94365915D01*
X159767902Y-94361000D01*
X159917171Y-94346298D01*
X160108687Y-94288202D01*
X160232303Y-94222128D01*
X160314275Y-94347119D01*
X160478052Y-94513734D01*
X160671187Y-94645196D01*
X160886258Y-94736454D01*
X161115000Y-94784000D01*
X161665000Y-94784000D01*
X161665000Y-93726000D01*
X161645000Y-93726000D01*
X161645000Y-93472000D01*
X161665000Y-93472000D01*
X161665000Y-93452000D01*
X161919000Y-93452000D01*
X161919000Y-93472000D01*
X161939000Y-93472000D01*
X161939000Y-93726000D01*
X161919000Y-93726000D01*
X161919000Y-94759302D01*
X155662503Y-101015800D01*
X153213272Y-101015800D01*
X153213272Y-100031800D01*
X153201012Y-99907318D01*
X153164702Y-99787620D01*
X153105737Y-99677306D01*
X153026385Y-99580615D01*
X152929694Y-99501263D01*
X152819380Y-99442298D01*
X152699682Y-99405988D01*
X152575200Y-99393728D01*
X148575200Y-99393728D01*
X148450718Y-99405988D01*
X148331020Y-99442298D01*
X148220706Y-99501263D01*
X148124015Y-99580615D01*
X148044663Y-99677306D01*
X147985698Y-99787620D01*
X147949388Y-99907318D01*
X147937128Y-100031800D01*
X142511431Y-100031800D01*
X141986000Y-99506370D01*
X141986000Y-98101080D01*
X141998463Y-98095918D01*
X142208809Y-97955370D01*
X142233463Y-98001494D01*
X142312815Y-98098185D01*
X142409506Y-98177537D01*
X142519820Y-98236502D01*
X142639518Y-98272812D01*
X142764000Y-98285072D01*
X144764000Y-98285072D01*
X144888482Y-98272812D01*
X145008180Y-98236502D01*
X145118494Y-98177537D01*
X145215185Y-98098185D01*
X145294537Y-98001494D01*
X145353502Y-97891180D01*
X145389812Y-97771482D01*
X145402072Y-97647000D01*
X145402072Y-96345000D01*
X145586928Y-96345000D01*
X145599188Y-96469482D01*
X145635498Y-96589180D01*
X145694463Y-96699494D01*
X145773815Y-96796185D01*
X145870506Y-96875537D01*
X145980820Y-96934502D01*
X146100518Y-96970812D01*
X146225000Y-96983072D01*
X148939250Y-96980000D01*
X149098000Y-96821250D01*
X149098000Y-93472000D01*
X145748750Y-93472000D01*
X145590000Y-93630750D01*
X145586928Y-96345000D01*
X145402072Y-96345000D01*
X145402072Y-95647000D01*
X145389812Y-95522518D01*
X145353502Y-95402820D01*
X145294537Y-95292506D01*
X145215185Y-95195815D01*
X145118494Y-95116463D01*
X145008180Y-95057498D01*
X144888482Y-95021188D01*
X144764000Y-95008928D01*
X142764000Y-95008928D01*
X142639518Y-95021188D01*
X142519820Y-95057498D01*
X142409506Y-95116463D01*
X142312815Y-95195815D01*
X142233463Y-95292506D01*
X142208809Y-95338630D01*
X141998463Y-95198082D01*
X141700912Y-95074832D01*
X141385033Y-95012000D01*
X141062967Y-95012000D01*
X140747088Y-95074832D01*
X140449537Y-95198082D01*
X140181748Y-95377013D01*
X139954013Y-95604748D01*
X139775082Y-95872537D01*
X139651832Y-96170088D01*
X139589000Y-96485967D01*
X139589000Y-96808033D01*
X139651832Y-97123912D01*
X139775082Y-97421463D01*
X139954013Y-97689252D01*
X140181748Y-97916987D01*
X140449537Y-98095918D01*
X140462000Y-98101081D01*
X140462001Y-99784567D01*
X140458314Y-99822000D01*
X140473027Y-99971378D01*
X140516599Y-100115015D01*
X140587355Y-100247392D01*
X140635225Y-100305721D01*
X140682579Y-100363422D01*
X140711649Y-100387279D01*
X146678520Y-106354151D01*
X146702378Y-106383222D01*
X146731448Y-106407079D01*
X146818407Y-106478445D01*
X146874839Y-106508608D01*
X146950785Y-106549202D01*
X147094422Y-106592774D01*
X147206374Y-106603800D01*
X147206377Y-106603800D01*
X147243800Y-106607486D01*
X147281223Y-106603800D01*
X161550521Y-106603800D01*
X161604734Y-106734682D01*
X161811025Y-107043418D01*
X162073582Y-107305975D01*
X162382318Y-107512266D01*
X162725366Y-107654361D01*
X163089544Y-107726800D01*
X163460856Y-107726800D01*
X163825034Y-107654361D01*
X163955917Y-107600147D01*
X165608000Y-109252231D01*
X165608001Y-115660364D01*
X165598338Y-115666821D01*
X165456821Y-115808338D01*
X165345632Y-115974744D01*
X165269044Y-116159644D01*
X165230000Y-116355933D01*
X165230000Y-116556067D01*
X165269044Y-116752356D01*
X165345632Y-116937256D01*
X165456821Y-117103662D01*
X165598338Y-117245179D01*
X165764744Y-117356368D01*
X165949644Y-117432956D01*
X166145933Y-117472000D01*
X166346067Y-117472000D01*
X166542356Y-117432956D01*
X166727256Y-117356368D01*
X166893662Y-117245179D01*
X167035179Y-117103662D01*
X167146368Y-116937256D01*
X167222956Y-116752356D01*
X167262000Y-116556067D01*
X167262000Y-116355933D01*
X167222956Y-116159644D01*
X167146368Y-115974744D01*
X167132000Y-115953241D01*
X167132000Y-112683000D01*
X169673928Y-112683000D01*
X169686188Y-112807482D01*
X169722498Y-112927180D01*
X169781463Y-113037494D01*
X169860815Y-113134185D01*
X169957506Y-113213537D01*
X170067820Y-113272502D01*
X170187518Y-113308812D01*
X170312000Y-113321072D01*
X170401250Y-113318000D01*
X170560000Y-113159250D01*
X170560000Y-112235000D01*
X169835750Y-112235000D01*
X169677000Y-112393750D01*
X169673928Y-112683000D01*
X167132000Y-112683000D01*
X167132000Y-111533000D01*
X169673928Y-111533000D01*
X169677000Y-111822250D01*
X169835750Y-111981000D01*
X170560000Y-111981000D01*
X170560000Y-111056750D01*
X170814000Y-111056750D01*
X170814000Y-111981000D01*
X170834000Y-111981000D01*
X170834000Y-112235000D01*
X170814000Y-112235000D01*
X170814000Y-113159250D01*
X170896619Y-113241869D01*
X170922498Y-113327180D01*
X170981463Y-113437494D01*
X171060815Y-113534185D01*
X171157506Y-113613537D01*
X171267820Y-113672502D01*
X171387518Y-113708812D01*
X171512000Y-113721072D01*
X171926250Y-113718000D01*
X172085000Y-113559250D01*
X172085000Y-112735000D01*
X172065000Y-112735000D01*
X172065000Y-112481000D01*
X172085000Y-112481000D01*
X172085000Y-111656750D01*
X172339000Y-111656750D01*
X172339000Y-112481000D01*
X172359000Y-112481000D01*
X172359000Y-112735000D01*
X172339000Y-112735000D01*
X172339000Y-113559250D01*
X172497750Y-113718000D01*
X172912000Y-113721072D01*
X173036482Y-113708812D01*
X173156180Y-113672502D01*
X173266494Y-113613537D01*
X173363185Y-113534185D01*
X173442537Y-113437494D01*
X173501502Y-113327180D01*
X173527381Y-113241869D01*
X173610000Y-113159250D01*
X173610000Y-112235000D01*
X173864000Y-112235000D01*
X173864000Y-113159250D01*
X174022750Y-113318000D01*
X174112000Y-113321072D01*
X174236482Y-113308812D01*
X174356180Y-113272502D01*
X174466494Y-113213537D01*
X174563185Y-113134185D01*
X174642537Y-113037494D01*
X174701502Y-112927180D01*
X174737812Y-112807482D01*
X174750072Y-112683000D01*
X174747000Y-112393750D01*
X174588250Y-112235000D01*
X173864000Y-112235000D01*
X173610000Y-112235000D01*
X173590000Y-112235000D01*
X173590000Y-111981000D01*
X173610000Y-111981000D01*
X173610000Y-111056750D01*
X173864000Y-111056750D01*
X173864000Y-111981000D01*
X174588250Y-111981000D01*
X174747000Y-111822250D01*
X174750072Y-111533000D01*
X174737812Y-111408518D01*
X174701502Y-111288820D01*
X174642537Y-111178506D01*
X174563185Y-111081815D01*
X174466494Y-111002463D01*
X174356180Y-110943498D01*
X174236482Y-110907188D01*
X174112000Y-110894928D01*
X174022750Y-110898000D01*
X173864000Y-111056750D01*
X173610000Y-111056750D01*
X173451250Y-110898000D01*
X173362000Y-110894928D01*
X173237518Y-110907188D01*
X173117820Y-110943498D01*
X173007506Y-111002463D01*
X172910815Y-111081815D01*
X172831463Y-111178506D01*
X172772498Y-111288820D01*
X172736188Y-111408518D01*
X172727543Y-111496296D01*
X172497750Y-111498000D01*
X172339000Y-111656750D01*
X172085000Y-111656750D01*
X171926250Y-111498000D01*
X171696457Y-111496296D01*
X171687812Y-111408518D01*
X171651502Y-111288820D01*
X171592537Y-111178506D01*
X171513185Y-111081815D01*
X171416494Y-111002463D01*
X171306180Y-110943498D01*
X171186482Y-110907188D01*
X171062000Y-110894928D01*
X170972750Y-110898000D01*
X170814000Y-111056750D01*
X170560000Y-111056750D01*
X170401250Y-110898000D01*
X170312000Y-110894928D01*
X170187518Y-110907188D01*
X170067820Y-110943498D01*
X169957506Y-111002463D01*
X169860815Y-111081815D01*
X169781463Y-111178506D01*
X169722498Y-111288820D01*
X169686188Y-111408518D01*
X169673928Y-111533000D01*
X167132000Y-111533000D01*
X167132000Y-109533000D01*
X169673928Y-109533000D01*
X169686188Y-109657482D01*
X169722498Y-109777180D01*
X169781463Y-109887494D01*
X169860815Y-109984185D01*
X169957506Y-110063537D01*
X170067820Y-110122502D01*
X170187518Y-110158812D01*
X170312000Y-110171072D01*
X170401250Y-110168000D01*
X170560000Y-110009250D01*
X170560000Y-109085000D01*
X169835750Y-109085000D01*
X169677000Y-109243750D01*
X169673928Y-109533000D01*
X167132000Y-109533000D01*
X167132000Y-108974022D01*
X167135686Y-108936599D01*
X167132000Y-108899174D01*
X167120974Y-108787222D01*
X167077402Y-108643585D01*
X167006645Y-108511208D01*
X166911422Y-108395178D01*
X166882353Y-108371322D01*
X165033547Y-106522517D01*
X165087761Y-106391634D01*
X165160200Y-106027456D01*
X165160200Y-105656144D01*
X165087761Y-105291966D01*
X164945666Y-104948918D01*
X164739375Y-104640182D01*
X164476818Y-104377625D01*
X164168082Y-104171334D01*
X164037200Y-104117121D01*
X164037200Y-102074192D01*
X169930352Y-96181041D01*
X169959422Y-96157184D01*
X170054645Y-96041154D01*
X170125402Y-95908777D01*
X170168974Y-95765140D01*
X170180000Y-95653188D01*
X170180000Y-95653186D01*
X170183686Y-95615763D01*
X170180000Y-95578340D01*
X170180000Y-93315072D01*
X170832500Y-93315072D01*
X170959615Y-93302552D01*
X171081846Y-93265474D01*
X171194494Y-93205262D01*
X171196000Y-93204026D01*
X171197506Y-93205262D01*
X171310154Y-93265474D01*
X171432385Y-93302552D01*
X171559500Y-93315072D01*
X172432500Y-93315072D01*
X172559615Y-93302552D01*
X172681846Y-93265474D01*
X172794494Y-93205262D01*
X172893231Y-93124231D01*
X172942895Y-93063715D01*
X173000744Y-93102368D01*
X173185644Y-93178956D01*
X173381933Y-93218000D01*
X173420370Y-93218000D01*
X169667654Y-96970716D01*
X169638578Y-96994578D01*
X169582983Y-97062322D01*
X169543355Y-97110608D01*
X169536244Y-97123912D01*
X169472598Y-97242986D01*
X169429026Y-97386623D01*
X169425595Y-97421463D01*
X169414314Y-97536000D01*
X169418000Y-97573423D01*
X169418001Y-106388567D01*
X169414314Y-106426000D01*
X169429027Y-106575378D01*
X169472599Y-106719015D01*
X169543355Y-106851392D01*
X169592784Y-106911621D01*
X169638579Y-106967422D01*
X169667649Y-106991279D01*
X170559998Y-107883629D01*
X170559998Y-107906748D01*
X170401250Y-107748000D01*
X170312000Y-107744928D01*
X170187518Y-107757188D01*
X170067820Y-107793498D01*
X169957506Y-107852463D01*
X169860815Y-107931815D01*
X169781463Y-108028506D01*
X169722498Y-108138820D01*
X169686188Y-108258518D01*
X169673928Y-108383000D01*
X169677000Y-108672250D01*
X169835750Y-108831000D01*
X170560000Y-108831000D01*
X170560000Y-108811000D01*
X170814000Y-108811000D01*
X170814000Y-108831000D01*
X170834000Y-108831000D01*
X170834000Y-109085000D01*
X170814000Y-109085000D01*
X170814000Y-110009250D01*
X170972750Y-110168000D01*
X171062000Y-110171072D01*
X171186482Y-110158812D01*
X171306180Y-110122502D01*
X171416494Y-110063537D01*
X171513185Y-109984185D01*
X171592537Y-109887494D01*
X171651502Y-109777180D01*
X171687812Y-109657482D01*
X171696322Y-109571072D01*
X172727678Y-109571072D01*
X172736188Y-109657482D01*
X172772498Y-109777180D01*
X172831463Y-109887494D01*
X172910815Y-109984185D01*
X173007506Y-110063537D01*
X173117820Y-110122502D01*
X173237518Y-110158812D01*
X173362000Y-110171072D01*
X173451250Y-110168000D01*
X173610000Y-110009250D01*
X173610000Y-109085000D01*
X173864000Y-109085000D01*
X173864000Y-110009250D01*
X174022750Y-110168000D01*
X174112000Y-110171072D01*
X174236482Y-110158812D01*
X174356180Y-110122502D01*
X174466494Y-110063537D01*
X174563185Y-109984185D01*
X174642537Y-109887494D01*
X174701502Y-109777180D01*
X174737812Y-109657482D01*
X174750072Y-109533000D01*
X174747000Y-109243750D01*
X174588250Y-109085000D01*
X173864000Y-109085000D01*
X173610000Y-109085000D01*
X173590000Y-109085000D01*
X173590000Y-108831000D01*
X173610000Y-108831000D01*
X173610000Y-107906750D01*
X173864000Y-107906750D01*
X173864000Y-108831000D01*
X174588250Y-108831000D01*
X174747000Y-108672250D01*
X174750072Y-108383000D01*
X174737812Y-108258518D01*
X174701502Y-108138820D01*
X174642537Y-108028506D01*
X174563185Y-107931815D01*
X174466494Y-107852463D01*
X174356180Y-107793498D01*
X174236482Y-107757188D01*
X174112000Y-107744928D01*
X174022750Y-107748000D01*
X173864000Y-107906750D01*
X173610000Y-107906750D01*
X173527381Y-107824131D01*
X173501502Y-107738820D01*
X173442537Y-107628506D01*
X173363185Y-107531815D01*
X173266494Y-107452463D01*
X173156180Y-107393498D01*
X173036482Y-107357188D01*
X172912000Y-107344928D01*
X172176559Y-107344928D01*
X170942000Y-106110370D01*
X170942000Y-104868142D01*
X171077555Y-105071015D01*
X171280985Y-105274445D01*
X171520194Y-105434279D01*
X171785988Y-105544374D01*
X172068153Y-105600500D01*
X172355847Y-105600500D01*
X172638012Y-105544374D01*
X172903806Y-105434279D01*
X173143015Y-105274445D01*
X173346445Y-105071015D01*
X173506279Y-104831806D01*
X173616374Y-104566012D01*
X173672500Y-104283847D01*
X173672500Y-103996153D01*
X173616374Y-103713988D01*
X173506279Y-103448194D01*
X173346445Y-103208985D01*
X173143015Y-103005555D01*
X172940142Y-102870000D01*
X173143015Y-102734445D01*
X173346445Y-102531015D01*
X173459377Y-102362000D01*
X175260001Y-102362000D01*
X175260000Y-112460369D01*
X164022370Y-123698000D01*
X143063631Y-123698000D01*
X140462000Y-121096370D01*
X140462000Y-119822630D01*
X140741096Y-120101726D01*
X140750164Y-120147312D01*
X140817179Y-120309099D01*
X140914469Y-120454704D01*
X141038296Y-120578531D01*
X141183901Y-120675821D01*
X141345688Y-120742836D01*
X141517441Y-120777000D01*
X141692559Y-120777000D01*
X141864312Y-120742836D01*
X142026099Y-120675821D01*
X142171704Y-120578531D01*
X142295531Y-120454704D01*
X142392821Y-120309099D01*
X142459836Y-120147312D01*
X142494000Y-119975559D01*
X142494000Y-119800441D01*
X142459836Y-119628688D01*
X142428185Y-119552275D01*
X145400200Y-119552275D01*
X145400200Y-120071325D01*
X145501461Y-120580401D01*
X145700093Y-121059941D01*
X145988462Y-121491515D01*
X146355485Y-121858538D01*
X146787059Y-122146907D01*
X147266599Y-122345539D01*
X147775675Y-122446800D01*
X148294725Y-122446800D01*
X148803801Y-122345539D01*
X149283341Y-122146907D01*
X149714915Y-121858538D01*
X150081938Y-121491515D01*
X150370307Y-121059941D01*
X150568939Y-120580401D01*
X150670200Y-120071325D01*
X150670200Y-119552275D01*
X150568939Y-119043199D01*
X150370307Y-118563659D01*
X150081938Y-118132085D01*
X149714915Y-117765062D01*
X149283341Y-117476693D01*
X148803801Y-117278061D01*
X148294725Y-117176800D01*
X147775675Y-117176800D01*
X147266599Y-117278061D01*
X146787059Y-117476693D01*
X146355485Y-117765062D01*
X145988462Y-118132085D01*
X145700093Y-118563659D01*
X145501461Y-119043199D01*
X145400200Y-119552275D01*
X142428185Y-119552275D01*
X142392821Y-119466901D01*
X142295531Y-119321296D01*
X142171704Y-119197469D01*
X142026099Y-119100179D01*
X141864312Y-119033164D01*
X141818726Y-119024096D01*
X141601000Y-118806370D01*
X141601000Y-111580743D01*
X141626821Y-111542099D01*
X141693836Y-111380312D01*
X141728000Y-111208559D01*
X141728000Y-111033441D01*
X141693836Y-110861688D01*
X141626821Y-110699901D01*
X141529531Y-110554296D01*
X141405704Y-110430469D01*
X141260099Y-110333179D01*
X141098312Y-110266164D01*
X140926559Y-110232000D01*
X140751441Y-110232000D01*
X140579688Y-110266164D01*
X140417901Y-110333179D01*
X140272296Y-110430469D01*
X140148469Y-110554296D01*
X140051179Y-110699901D01*
X139984164Y-110861688D01*
X139950000Y-111033441D01*
X139950000Y-111208559D01*
X139984164Y-111380312D01*
X140051179Y-111542099D01*
X140077000Y-111580743D01*
X140077001Y-116017370D01*
X139291404Y-115231773D01*
X139282336Y-115186188D01*
X139215321Y-115024401D01*
X139118031Y-114878796D01*
X138994204Y-114754969D01*
X138848599Y-114657679D01*
X138686812Y-114590664D01*
X138515059Y-114556500D01*
X138339941Y-114556500D01*
X138168188Y-114590664D01*
X138006401Y-114657679D01*
X137956847Y-114690790D01*
X137918912Y-114694526D01*
X137775275Y-114738098D01*
X137642898Y-114808855D01*
X137526868Y-114904078D01*
X137503006Y-114933154D01*
X137374159Y-115062001D01*
X134427629Y-115062001D01*
X141053621Y-108436010D01*
X141139356Y-108418956D01*
X141324256Y-108342368D01*
X141490662Y-108231179D01*
X141632179Y-108089662D01*
X141743368Y-107923256D01*
X141819956Y-107738356D01*
X141859000Y-107542067D01*
X141859000Y-107341933D01*
X141819956Y-107145644D01*
X141743368Y-106960744D01*
X141632179Y-106794338D01*
X141490662Y-106652821D01*
X141324256Y-106541632D01*
X141139356Y-106465044D01*
X140943067Y-106426000D01*
X140742933Y-106426000D01*
X140546644Y-106465044D01*
X140361744Y-106541632D01*
X140195338Y-106652821D01*
X140053821Y-106794338D01*
X139942632Y-106960744D01*
X139866044Y-107145644D01*
X139827000Y-107341933D01*
X139827000Y-107507369D01*
X137414000Y-109920369D01*
X137414000Y-107098423D01*
X137417686Y-107061000D01*
X137414000Y-107023574D01*
X137402974Y-106911622D01*
X137359402Y-106767985D01*
X137297846Y-106652821D01*
X137288645Y-106635607D01*
X137253491Y-106592773D01*
X137193422Y-106519578D01*
X137164346Y-106495716D01*
X136582284Y-105913654D01*
X136558422Y-105884578D01*
X136442392Y-105789355D01*
X136310015Y-105718598D01*
X136166378Y-105675026D01*
X136054426Y-105664000D01*
X136054423Y-105664000D01*
X136017000Y-105660314D01*
X135979577Y-105664000D01*
X132371415Y-105664000D01*
X132333999Y-105660315D01*
X132296583Y-105664000D01*
X132296574Y-105664000D01*
X132184622Y-105675026D01*
X132040985Y-105718598D01*
X131952999Y-105765628D01*
X131952999Y-91405967D01*
X131969000Y-91405967D01*
X131969000Y-91728033D01*
X132031832Y-92043912D01*
X132155082Y-92341463D01*
X132334013Y-92609252D01*
X132561748Y-92836987D01*
X132829537Y-93015918D01*
X132842000Y-93021080D01*
X132842001Y-95192919D01*
X132829537Y-95198082D01*
X132561748Y-95377013D01*
X132334013Y-95604748D01*
X132155082Y-95872537D01*
X132031832Y-96170088D01*
X131969000Y-96485967D01*
X131969000Y-96808033D01*
X132031832Y-97123912D01*
X132155082Y-97421463D01*
X132334013Y-97689252D01*
X132561748Y-97916987D01*
X132829537Y-98095918D01*
X133127088Y-98219168D01*
X133442967Y-98282000D01*
X133765033Y-98282000D01*
X134080912Y-98219168D01*
X134093375Y-98214005D01*
X152393516Y-116514146D01*
X152417378Y-116543222D01*
X152463031Y-116580688D01*
X152533407Y-116638445D01*
X152599238Y-116673632D01*
X152665785Y-116709202D01*
X152809422Y-116752774D01*
X152921374Y-116763800D01*
X152921377Y-116763800D01*
X152958800Y-116767486D01*
X152996223Y-116763800D01*
X161550521Y-116763800D01*
X161604734Y-116894682D01*
X161811025Y-117203418D01*
X162073582Y-117465975D01*
X162382318Y-117672266D01*
X162725366Y-117814361D01*
X163089544Y-117886800D01*
X163460856Y-117886800D01*
X163825034Y-117814361D01*
X164168082Y-117672266D01*
X164476818Y-117465975D01*
X164739375Y-117203418D01*
X164945666Y-116894682D01*
X165087761Y-116551634D01*
X165160200Y-116187456D01*
X165160200Y-115816144D01*
X165087761Y-115451966D01*
X164945666Y-115108918D01*
X164739375Y-114800182D01*
X164476818Y-114537625D01*
X164168082Y-114331334D01*
X163825034Y-114189239D01*
X163460856Y-114116800D01*
X163089544Y-114116800D01*
X162725366Y-114189239D01*
X162382318Y-114331334D01*
X162073582Y-114537625D01*
X161811025Y-114800182D01*
X161604734Y-115108918D01*
X161550521Y-115239800D01*
X153274430Y-115239800D01*
X135171005Y-97136375D01*
X135176168Y-97123912D01*
X135239000Y-96808033D01*
X135239000Y-96485967D01*
X135176168Y-96170088D01*
X135052918Y-95872537D01*
X134873987Y-95604748D01*
X134646252Y-95377013D01*
X134378463Y-95198082D01*
X134366000Y-95192920D01*
X134366000Y-93021080D01*
X134378463Y-93015918D01*
X134646252Y-92836987D01*
X134873987Y-92609252D01*
X135052918Y-92341463D01*
X135176168Y-92043912D01*
X135239000Y-91728033D01*
X135239000Y-91405967D01*
X135176168Y-91090088D01*
X135052918Y-90792537D01*
X134873987Y-90524748D01*
X134646252Y-90297013D01*
X134378463Y-90118082D01*
X134080912Y-89994832D01*
X133765033Y-89932000D01*
X133442967Y-89932000D01*
X133127088Y-89994832D01*
X132829537Y-90118082D01*
X132561748Y-90297013D01*
X132334013Y-90524748D01*
X132155082Y-90792537D01*
X132031832Y-91090088D01*
X131969000Y-91405967D01*
X131952999Y-91405967D01*
X131952999Y-88834631D01*
X133862353Y-86925278D01*
X133891422Y-86901422D01*
X133986645Y-86785392D01*
X134057402Y-86653015D01*
X134100974Y-86509378D01*
X134112000Y-86397426D01*
X134112000Y-86397417D01*
X134115685Y-86360001D01*
X134112000Y-86322585D01*
X134112000Y-83007868D01*
X134366001Y-83261869D01*
X134366000Y-88354577D01*
X134362314Y-88392000D01*
X134366000Y-88429423D01*
X134366000Y-88429425D01*
X134377026Y-88541377D01*
X134420598Y-88685014D01*
X134420599Y-88685015D01*
X134491355Y-88817392D01*
X134530983Y-88865678D01*
X134586578Y-88933422D01*
X134615654Y-88957284D01*
X137737721Y-92079352D01*
X137761578Y-92108422D01*
X137877608Y-92203645D01*
X138009985Y-92274402D01*
X138153622Y-92317974D01*
X138265574Y-92329000D01*
X138265576Y-92329000D01*
X138302999Y-92332686D01*
X138340422Y-92329000D01*
X139769920Y-92329000D01*
X139775082Y-92341463D01*
X139954013Y-92609252D01*
X140181748Y-92836987D01*
X140449537Y-93015918D01*
X140747088Y-93139168D01*
X141062967Y-93202000D01*
X141385033Y-93202000D01*
X141700912Y-93139168D01*
X141998463Y-93015918D01*
X142266252Y-92836987D01*
X142400826Y-92702413D01*
X142808192Y-92702413D01*
X142903956Y-92966814D01*
X143193571Y-93107704D01*
X143505108Y-93189384D01*
X143826595Y-93208718D01*
X144145675Y-93164961D01*
X144450088Y-93059795D01*
X144624044Y-92966814D01*
X144719808Y-92702413D01*
X143764000Y-91746605D01*
X142808192Y-92702413D01*
X142400826Y-92702413D01*
X142493987Y-92609252D01*
X142566720Y-92500400D01*
X142628587Y-92522808D01*
X143584395Y-91567000D01*
X143943605Y-91567000D01*
X144899413Y-92522808D01*
X145163814Y-92427044D01*
X145304704Y-92137429D01*
X145386384Y-91825892D01*
X145405718Y-91504405D01*
X145361961Y-91185325D01*
X145256795Y-90880912D01*
X145163814Y-90706956D01*
X144899413Y-90611192D01*
X143943605Y-91567000D01*
X143584395Y-91567000D01*
X142628587Y-90611192D01*
X142566720Y-90633600D01*
X142493987Y-90524748D01*
X142400826Y-90431587D01*
X142808192Y-90431587D01*
X143764000Y-91387395D01*
X144719808Y-90431587D01*
X144688447Y-90345000D01*
X145586928Y-90345000D01*
X145590000Y-93059250D01*
X145748750Y-93218000D01*
X149098000Y-93218000D01*
X149098000Y-89868750D01*
X148939250Y-89710000D01*
X146225000Y-89706928D01*
X146100518Y-89719188D01*
X145980820Y-89755498D01*
X145870506Y-89814463D01*
X145773815Y-89893815D01*
X145694463Y-89990506D01*
X145635498Y-90100820D01*
X145599188Y-90220518D01*
X145586928Y-90345000D01*
X144688447Y-90345000D01*
X144624044Y-90167186D01*
X144334429Y-90026296D01*
X144022892Y-89944616D01*
X143701405Y-89925282D01*
X143382325Y-89969039D01*
X143077912Y-90074205D01*
X142903956Y-90167186D01*
X142808192Y-90431587D01*
X142400826Y-90431587D01*
X142266252Y-90297013D01*
X141998463Y-90118082D01*
X141700912Y-89994832D01*
X141385033Y-89932000D01*
X141062967Y-89932000D01*
X140747088Y-89994832D01*
X140449537Y-90118082D01*
X140181748Y-90297013D01*
X139954013Y-90524748D01*
X139775082Y-90792537D01*
X139769920Y-90805000D01*
X138618631Y-90805000D01*
X135890000Y-88076370D01*
X135890000Y-85979000D01*
X136279928Y-85979000D01*
X136279928Y-88009000D01*
X136292188Y-88133482D01*
X136328498Y-88253180D01*
X136387463Y-88363494D01*
X136466815Y-88460185D01*
X136563506Y-88539537D01*
X136673820Y-88598502D01*
X136793518Y-88634812D01*
X136918000Y-88647072D01*
X138418000Y-88647072D01*
X138542482Y-88634812D01*
X138662180Y-88598502D01*
X138772494Y-88539537D01*
X138869185Y-88460185D01*
X138938000Y-88376333D01*
X139006815Y-88460185D01*
X139103506Y-88539537D01*
X139213820Y-88598502D01*
X139333518Y-88634812D01*
X139458000Y-88647072D01*
X140958000Y-88647072D01*
X141082482Y-88634812D01*
X141202180Y-88598502D01*
X141312494Y-88539537D01*
X141409185Y-88460185D01*
X141478000Y-88376333D01*
X141546815Y-88460185D01*
X141643506Y-88539537D01*
X141753820Y-88598502D01*
X141873518Y-88634812D01*
X141998000Y-88647072D01*
X143498000Y-88647072D01*
X143622482Y-88634812D01*
X143742180Y-88598502D01*
X143852494Y-88539537D01*
X143949185Y-88460185D01*
X144018000Y-88376333D01*
X144086815Y-88460185D01*
X144183506Y-88539537D01*
X144293820Y-88598502D01*
X144413518Y-88634812D01*
X144538000Y-88647072D01*
X146038000Y-88647072D01*
X146162482Y-88634812D01*
X146282180Y-88598502D01*
X146392494Y-88539537D01*
X146489185Y-88460185D01*
X146568537Y-88363494D01*
X146627502Y-88253180D01*
X146663812Y-88133482D01*
X146676072Y-88009000D01*
X146676072Y-85979000D01*
X156599928Y-85979000D01*
X156599928Y-88009000D01*
X156612188Y-88133482D01*
X156648498Y-88253180D01*
X156707463Y-88363494D01*
X156786815Y-88460185D01*
X156883506Y-88539537D01*
X156993820Y-88598502D01*
X157113518Y-88634812D01*
X157238000Y-88647072D01*
X158738000Y-88647072D01*
X158862482Y-88634812D01*
X158982180Y-88598502D01*
X159092494Y-88539537D01*
X159189185Y-88460185D01*
X159268537Y-88363494D01*
X159327502Y-88253180D01*
X159363812Y-88133482D01*
X159376072Y-88009000D01*
X159376072Y-85979000D01*
X159363812Y-85854518D01*
X159327502Y-85734820D01*
X159268537Y-85624506D01*
X159189185Y-85527815D01*
X159092494Y-85448463D01*
X158982180Y-85389498D01*
X158862482Y-85353188D01*
X158738000Y-85340928D01*
X157238000Y-85340928D01*
X157113518Y-85353188D01*
X156993820Y-85389498D01*
X156883506Y-85448463D01*
X156786815Y-85527815D01*
X156707463Y-85624506D01*
X156648498Y-85734820D01*
X156612188Y-85854518D01*
X156599928Y-85979000D01*
X146676072Y-85979000D01*
X146663812Y-85854518D01*
X146627502Y-85734820D01*
X146568537Y-85624506D01*
X146489185Y-85527815D01*
X146392494Y-85448463D01*
X146282180Y-85389498D01*
X146162482Y-85353188D01*
X146038000Y-85340928D01*
X144538000Y-85340928D01*
X144413518Y-85353188D01*
X144293820Y-85389498D01*
X144183506Y-85448463D01*
X144086815Y-85527815D01*
X144018000Y-85611667D01*
X143949185Y-85527815D01*
X143852494Y-85448463D01*
X143742180Y-85389498D01*
X143622482Y-85353188D01*
X143498000Y-85340928D01*
X141998000Y-85340928D01*
X141873518Y-85353188D01*
X141753820Y-85389498D01*
X141643506Y-85448463D01*
X141546815Y-85527815D01*
X141478000Y-85611667D01*
X141409185Y-85527815D01*
X141312494Y-85448463D01*
X141202180Y-85389498D01*
X141082482Y-85353188D01*
X140958000Y-85340928D01*
X139458000Y-85340928D01*
X139333518Y-85353188D01*
X139213820Y-85389498D01*
X139103506Y-85448463D01*
X139006815Y-85527815D01*
X138938000Y-85611667D01*
X138869185Y-85527815D01*
X138772494Y-85448463D01*
X138662180Y-85389498D01*
X138542482Y-85353188D01*
X138418000Y-85340928D01*
X136918000Y-85340928D01*
X136793518Y-85353188D01*
X136673820Y-85389498D01*
X136563506Y-85448463D01*
X136466815Y-85527815D01*
X136387463Y-85624506D01*
X136328498Y-85734820D01*
X136292188Y-85854518D01*
X136279928Y-85979000D01*
X135890000Y-85979000D01*
X135890000Y-82983661D01*
X135893686Y-82946238D01*
X135890000Y-82908812D01*
X135878974Y-82796860D01*
X135835402Y-82653223D01*
X135779349Y-82548355D01*
X135764645Y-82520845D01*
X135702710Y-82445378D01*
X135669422Y-82404816D01*
X135640346Y-82380954D01*
X132153325Y-78893933D01*
X135382000Y-78893933D01*
X135382000Y-79094067D01*
X135421044Y-79290356D01*
X135497632Y-79475256D01*
X135608821Y-79641662D01*
X135636001Y-79668842D01*
X135636000Y-80859159D01*
X135608821Y-80886338D01*
X135497632Y-81052744D01*
X135421044Y-81237644D01*
X135382000Y-81433933D01*
X135382000Y-81634067D01*
X135421044Y-81830356D01*
X135497632Y-82015256D01*
X135608821Y-82181662D01*
X135750338Y-82323179D01*
X135916744Y-82434368D01*
X136101644Y-82510956D01*
X136297933Y-82550000D01*
X136498067Y-82550000D01*
X136694356Y-82510956D01*
X136879256Y-82434368D01*
X137045662Y-82323179D01*
X137187179Y-82181662D01*
X137298368Y-82015256D01*
X137374956Y-81830356D01*
X137414000Y-81634067D01*
X137414000Y-81433933D01*
X137374956Y-81237644D01*
X137298368Y-81052744D01*
X137187179Y-80886338D01*
X137160000Y-80859159D01*
X137160000Y-80417933D01*
X146050000Y-80417933D01*
X146050000Y-80618067D01*
X146089044Y-80814356D01*
X146165632Y-80999256D01*
X146276821Y-81165662D01*
X146418338Y-81307179D01*
X146584744Y-81418368D01*
X146769644Y-81494956D01*
X146965933Y-81534000D01*
X147004369Y-81534000D01*
X147262720Y-81792351D01*
X147286578Y-81821422D01*
X147315648Y-81845279D01*
X147402607Y-81916645D01*
X147423219Y-81927662D01*
X147534985Y-81987402D01*
X147678622Y-82030974D01*
X147790574Y-82042000D01*
X147790577Y-82042000D01*
X147828000Y-82045686D01*
X147865423Y-82042000D01*
X149185159Y-82042000D01*
X149070821Y-82156338D01*
X148959632Y-82322744D01*
X148883044Y-82507644D01*
X148844000Y-82703933D01*
X148844000Y-82904067D01*
X148883044Y-83100356D01*
X148959632Y-83285256D01*
X149070821Y-83451662D01*
X149212338Y-83593179D01*
X149378744Y-83704368D01*
X149563644Y-83780956D01*
X149759933Y-83820000D01*
X149960067Y-83820000D01*
X150156356Y-83780956D01*
X150341256Y-83704368D01*
X150507662Y-83593179D01*
X150649179Y-83451662D01*
X150760368Y-83285256D01*
X150836956Y-83100356D01*
X150876000Y-82904067D01*
X150876000Y-82865630D01*
X153096352Y-80645279D01*
X153125422Y-80621422D01*
X153165491Y-80572598D01*
X153220645Y-80505393D01*
X153267393Y-80417933D01*
X153291402Y-80373015D01*
X153334974Y-80229378D01*
X153346000Y-80117426D01*
X153346000Y-80117423D01*
X153349686Y-80080000D01*
X153346000Y-80042577D01*
X153346000Y-77312841D01*
X153373179Y-77285662D01*
X153484368Y-77119256D01*
X153560956Y-76934356D01*
X153600000Y-76738067D01*
X153600000Y-76537933D01*
X153560956Y-76341644D01*
X153484368Y-76156744D01*
X153373179Y-75990338D01*
X153231662Y-75848821D01*
X153065256Y-75737632D01*
X152880356Y-75661044D01*
X152684067Y-75622000D01*
X152483933Y-75622000D01*
X152287644Y-75661044D01*
X152102744Y-75737632D01*
X151936338Y-75848821D01*
X151794821Y-75990338D01*
X151683632Y-76156744D01*
X151607044Y-76341644D01*
X151568000Y-76537933D01*
X151568000Y-76738067D01*
X151607044Y-76934356D01*
X151683632Y-77119256D01*
X151794821Y-77285662D01*
X151822000Y-77312841D01*
X151822001Y-79764368D01*
X150768352Y-80818018D01*
X150760368Y-80798744D01*
X150649179Y-80632338D01*
X150507662Y-80490821D01*
X150341256Y-80379632D01*
X150156356Y-80303044D01*
X149960067Y-80264000D01*
X149759933Y-80264000D01*
X149563644Y-80303044D01*
X149378744Y-80379632D01*
X149212338Y-80490821D01*
X149185159Y-80518000D01*
X148143631Y-80518000D01*
X148082000Y-80456369D01*
X148082000Y-80417933D01*
X148042956Y-80221644D01*
X147966368Y-80036744D01*
X147855179Y-79870338D01*
X147713662Y-79728821D01*
X147547256Y-79617632D01*
X147362356Y-79541044D01*
X147166067Y-79502000D01*
X146965933Y-79502000D01*
X146769644Y-79541044D01*
X146584744Y-79617632D01*
X146418338Y-79728821D01*
X146276821Y-79870338D01*
X146165632Y-80036744D01*
X146089044Y-80221644D01*
X146050000Y-80417933D01*
X137160000Y-80417933D01*
X137160000Y-79668841D01*
X137187179Y-79641662D01*
X137298368Y-79475256D01*
X137374956Y-79290356D01*
X137414000Y-79094067D01*
X137414000Y-78893933D01*
X137374956Y-78697644D01*
X137298368Y-78512744D01*
X137187179Y-78346338D01*
X137045662Y-78204821D01*
X136879256Y-78093632D01*
X136694356Y-78017044D01*
X136498067Y-77978000D01*
X136297933Y-77978000D01*
X136101644Y-78017044D01*
X135916744Y-78093632D01*
X135750338Y-78204821D01*
X135608821Y-78346338D01*
X135497632Y-78512744D01*
X135421044Y-78697644D01*
X135382000Y-78893933D01*
X132153325Y-78893933D01*
X130921762Y-77662370D01*
X130921762Y-77418453D01*
X131000668Y-77472481D01*
X131210111Y-77562031D01*
X131433000Y-77609000D01*
X131953000Y-77609000D01*
X131953000Y-76581000D01*
X132207000Y-76581000D01*
X132207000Y-77609000D01*
X132727000Y-77609000D01*
X132949889Y-77562031D01*
X133159332Y-77472481D01*
X133347280Y-77343791D01*
X133506511Y-77180907D01*
X133630905Y-76990088D01*
X133713996Y-76759023D01*
X133588122Y-76581000D01*
X132207000Y-76581000D01*
X131953000Y-76581000D01*
X131933000Y-76581000D01*
X131933000Y-76339000D01*
X132656737Y-76339000D01*
X132778577Y-76327000D01*
X133588122Y-76327000D01*
X133713996Y-76148977D01*
X133630905Y-75917912D01*
X133622438Y-75904924D01*
X133667015Y-75891402D01*
X133799392Y-75820645D01*
X133915422Y-75725422D01*
X133939284Y-75696346D01*
X134370347Y-75265283D01*
X134399422Y-75241422D01*
X134494645Y-75125392D01*
X134565402Y-74993015D01*
X134608974Y-74849378D01*
X134620000Y-74737426D01*
X134620000Y-74737424D01*
X134623686Y-74700001D01*
X134620000Y-74662578D01*
X134620000Y-70903422D01*
X134623686Y-70865999D01*
X134620000Y-70828574D01*
X134608974Y-70716622D01*
X134565402Y-70572985D01*
X134494645Y-70440608D01*
X134399422Y-70324578D01*
X134370352Y-70300721D01*
X132334000Y-68264370D01*
X132334000Y-66258072D01*
X132422000Y-66258072D01*
X132546482Y-66245812D01*
X132666180Y-66209502D01*
X132776494Y-66150537D01*
X132873185Y-66071185D01*
X132952537Y-65974494D01*
X133011502Y-65864180D01*
X133047812Y-65744482D01*
X133060072Y-65620000D01*
X133060072Y-63920000D01*
X133047812Y-63795518D01*
X133011502Y-63675820D01*
X132952537Y-63565506D01*
X132873185Y-63468815D01*
X132776494Y-63389463D01*
X132666180Y-63330498D01*
X132593620Y-63308487D01*
X132725475Y-63176632D01*
X132887990Y-62933411D01*
X132999932Y-62663158D01*
X133057000Y-62376260D01*
X133057000Y-62083740D01*
X132999932Y-61796842D01*
X132887990Y-61526589D01*
X132725475Y-61283368D01*
X132518632Y-61076525D01*
X132275411Y-60914010D01*
X132005158Y-60802068D01*
X131718260Y-60745000D01*
X131425740Y-60745000D01*
X131138842Y-60802068D01*
X130868589Y-60914010D01*
X130625368Y-61076525D01*
X130418525Y-61283368D01*
X130256010Y-61526589D01*
X130144068Y-61796842D01*
X130087000Y-62083740D01*
X130087000Y-62376260D01*
X130144068Y-62663158D01*
X130256010Y-62933411D01*
X130418525Y-63176632D01*
X130550380Y-63308487D01*
X130477820Y-63330498D01*
X130367506Y-63389463D01*
X130270815Y-63468815D01*
X130191463Y-63565506D01*
X130132498Y-63675820D01*
X130096188Y-63795518D01*
X130083928Y-63920000D01*
X130083928Y-65620000D01*
X130096188Y-65744482D01*
X130132498Y-65864180D01*
X130191463Y-65974494D01*
X130270815Y-66071185D01*
X130367506Y-66150537D01*
X130477820Y-66209502D01*
X130597518Y-66245812D01*
X130722000Y-66258072D01*
X130810001Y-66258072D01*
X130810000Y-68542577D01*
X130806314Y-68580000D01*
X130810000Y-68617423D01*
X130810000Y-68617425D01*
X130821026Y-68729377D01*
X130864598Y-68873014D01*
X130897535Y-68934635D01*
X130935355Y-69005392D01*
X130968389Y-69045644D01*
X131030578Y-69121422D01*
X131059654Y-69145284D01*
X133096001Y-71181632D01*
X133096000Y-72869478D01*
X133044138Y-72841757D01*
X132826419Y-72775712D01*
X132656737Y-72759000D01*
X131503263Y-72759000D01*
X131333581Y-72775712D01*
X131115862Y-72841757D01*
X130915212Y-72949006D01*
X130739340Y-73093340D01*
X130686154Y-73158148D01*
X130636622Y-73163026D01*
X130492985Y-73206598D01*
X130360608Y-73277355D01*
X130244578Y-73372578D01*
X130220720Y-73401649D01*
X129679700Y-73942670D01*
X129679700Y-60025393D01*
X131794250Y-60023000D01*
X131953000Y-59864250D01*
X131953000Y-56515000D01*
X131933000Y-56515000D01*
X131933000Y-56261000D01*
X131953000Y-56261000D01*
X131953000Y-56241000D01*
X132207000Y-56241000D01*
X132207000Y-56261000D01*
X132227000Y-56261000D01*
X132227000Y-56515000D01*
X132207000Y-56515000D01*
X132207000Y-59864250D01*
X132365750Y-60023000D01*
X135080000Y-60026072D01*
X135128000Y-60021345D01*
X135128001Y-71844567D01*
X135124314Y-71882000D01*
X135139027Y-72031378D01*
X135182599Y-72175015D01*
X135253355Y-72307392D01*
X135299202Y-72363256D01*
X135348579Y-72423422D01*
X135377649Y-72447279D01*
X137922000Y-74991631D01*
X137922000Y-75030067D01*
X137961044Y-75226356D01*
X138037632Y-75411256D01*
X138148821Y-75577662D01*
X138290338Y-75719179D01*
X138456744Y-75830368D01*
X138641644Y-75906956D01*
X138837933Y-75946000D01*
X139038067Y-75946000D01*
X139234356Y-75906956D01*
X139419256Y-75830368D01*
X139585662Y-75719179D01*
X139727179Y-75577662D01*
X139838368Y-75411256D01*
X139914956Y-75226356D01*
X139954000Y-75030067D01*
X139954000Y-74829933D01*
X139914956Y-74633644D01*
X139838368Y-74448744D01*
X139727179Y-74282338D01*
X139585662Y-74140821D01*
X139419256Y-74029632D01*
X139234356Y-73953044D01*
X139038067Y-73914000D01*
X138999631Y-73914000D01*
X136652000Y-71566370D01*
X136652000Y-59886839D01*
X136673820Y-59898502D01*
X136793518Y-59934812D01*
X136918000Y-59947072D01*
X137382250Y-59944000D01*
X137541000Y-59785250D01*
X137541000Y-58421000D01*
X137521000Y-58421000D01*
X137521000Y-58167000D01*
X137541000Y-58167000D01*
X137541000Y-56802750D01*
X137795000Y-56802750D01*
X137795000Y-58167000D01*
X137815000Y-58167000D01*
X137815000Y-58421000D01*
X137795000Y-58421000D01*
X137795000Y-59785250D01*
X137953750Y-59944000D01*
X138418000Y-59947072D01*
X138542482Y-59934812D01*
X138662180Y-59898502D01*
X138772494Y-59839537D01*
X138869185Y-59760185D01*
X138938000Y-59676333D01*
X139006815Y-59760185D01*
X139103506Y-59839537D01*
X139213820Y-59898502D01*
X139333518Y-59934812D01*
X139458000Y-59947072D01*
X140958000Y-59947072D01*
X141082482Y-59934812D01*
X141202180Y-59898502D01*
X141312494Y-59839537D01*
X141409185Y-59760185D01*
X141478000Y-59676333D01*
X141546815Y-59760185D01*
X141643506Y-59839537D01*
X141753820Y-59898502D01*
X141873518Y-59934812D01*
X141986001Y-59945890D01*
X141986001Y-60541567D01*
X141982314Y-60579000D01*
X141997027Y-60728378D01*
X142040599Y-60872015D01*
X142111355Y-61004392D01*
X142170554Y-61076525D01*
X142206579Y-61120422D01*
X142235649Y-61144279D01*
X142944720Y-61853351D01*
X142968578Y-61882422D01*
X142997648Y-61906279D01*
X143084607Y-61977645D01*
X143127514Y-62000579D01*
X143216985Y-62048402D01*
X143360622Y-62091974D01*
X143472574Y-62103000D01*
X143472577Y-62103000D01*
X143510000Y-62106686D01*
X143547423Y-62103000D01*
X148427577Y-62103000D01*
X148465000Y-62106686D01*
X148502423Y-62103000D01*
X148502426Y-62103000D01*
X148614378Y-62091974D01*
X148758015Y-62048402D01*
X148775000Y-62039323D01*
X148775000Y-62504576D01*
X148771314Y-62542000D01*
X148775000Y-62579423D01*
X148775000Y-62579425D01*
X148786026Y-62691377D01*
X148829598Y-62835014D01*
X148829599Y-62835015D01*
X148900355Y-62967392D01*
X148939983Y-63015678D01*
X148995578Y-63083422D01*
X149024654Y-63107284D01*
X152753821Y-66836452D01*
X152777678Y-66865522D01*
X152893708Y-66960745D01*
X153026085Y-67031502D01*
X153169722Y-67075074D01*
X153278995Y-67085836D01*
X153306438Y-67113279D01*
X153472844Y-67224468D01*
X153657744Y-67301056D01*
X153854033Y-67340100D01*
X154054167Y-67340100D01*
X154250456Y-67301056D01*
X154435356Y-67224468D01*
X154601762Y-67113279D01*
X154743279Y-66971762D01*
X154854468Y-66805356D01*
X154931056Y-66620456D01*
X154970100Y-66424167D01*
X154970100Y-66224033D01*
X154931056Y-66027744D01*
X154854468Y-65842844D01*
X154743279Y-65676438D01*
X154601762Y-65534921D01*
X154435356Y-65423732D01*
X154250456Y-65347144D01*
X154054167Y-65308100D01*
X153854033Y-65308100D01*
X153657744Y-65347144D01*
X153489474Y-65416843D01*
X150299000Y-62226370D01*
X150299000Y-61376250D01*
X150310000Y-61365250D01*
X150310000Y-61319745D01*
X150375970Y-61239361D01*
X150435794Y-61127439D01*
X150472633Y-61005996D01*
X150485072Y-60879700D01*
X150485072Y-60432000D01*
X150564000Y-60432000D01*
X150564000Y-60452000D01*
X150584000Y-60452000D01*
X150584000Y-60706000D01*
X150564000Y-60706000D01*
X150564000Y-61365250D01*
X150722750Y-61524000D01*
X150747000Y-61527072D01*
X150871482Y-61514812D01*
X150991180Y-61478502D01*
X151101494Y-61419537D01*
X151198185Y-61340185D01*
X151277537Y-61243494D01*
X151336502Y-61133180D01*
X151372812Y-61013482D01*
X151385072Y-60889000D01*
X151382000Y-60864750D01*
X151223252Y-60706002D01*
X151382000Y-60706002D01*
X151382000Y-60648530D01*
X151436506Y-60693262D01*
X151549154Y-60753474D01*
X151671385Y-60790552D01*
X151798500Y-60803072D01*
X152671500Y-60803072D01*
X152798615Y-60790552D01*
X152920846Y-60753474D01*
X153030006Y-60695126D01*
X153030506Y-60695537D01*
X153140820Y-60754502D01*
X153260518Y-60790812D01*
X153385000Y-60803072D01*
X153549250Y-60800000D01*
X153708000Y-60641250D01*
X153708000Y-59817000D01*
X153962000Y-59817000D01*
X153962000Y-60641250D01*
X154120750Y-60800000D01*
X154285000Y-60803072D01*
X154409482Y-60790812D01*
X154529180Y-60754502D01*
X154639494Y-60695537D01*
X154736185Y-60616185D01*
X154815537Y-60519494D01*
X154874502Y-60409180D01*
X154910812Y-60289482D01*
X154923072Y-60165000D01*
X154920000Y-59975750D01*
X154761250Y-59817000D01*
X153962000Y-59817000D01*
X153708000Y-59817000D01*
X153688000Y-59817000D01*
X153688000Y-59563000D01*
X153708000Y-59563000D01*
X153708000Y-58738750D01*
X153962000Y-58738750D01*
X153962000Y-59563000D01*
X154761250Y-59563000D01*
X154920000Y-59404250D01*
X154923072Y-59215000D01*
X154910812Y-59090518D01*
X154874502Y-58970820D01*
X154815537Y-58860506D01*
X154736185Y-58763815D01*
X154639494Y-58684463D01*
X154529180Y-58625498D01*
X154409482Y-58589188D01*
X154285000Y-58576928D01*
X154120750Y-58580000D01*
X153962000Y-58738750D01*
X153708000Y-58738750D01*
X153549250Y-58580000D01*
X153385000Y-58576928D01*
X153260518Y-58589188D01*
X153140820Y-58625498D01*
X153030506Y-58684463D01*
X153030006Y-58684874D01*
X152920846Y-58626526D01*
X152798615Y-58589448D01*
X152671500Y-58576928D01*
X151798500Y-58576928D01*
X151671385Y-58589448D01*
X151549154Y-58626526D01*
X151509403Y-58647773D01*
X151423015Y-58601598D01*
X151279378Y-58558026D01*
X151194384Y-58549655D01*
X151097361Y-58470030D01*
X150985439Y-58410206D01*
X150863996Y-58373367D01*
X150737700Y-58360928D01*
X150136300Y-58360928D01*
X150010004Y-58373367D01*
X149987000Y-58380345D01*
X149963996Y-58373367D01*
X149837700Y-58360928D01*
X149236300Y-58360928D01*
X149110004Y-58373367D01*
X148988561Y-58410206D01*
X148876639Y-58470030D01*
X148778539Y-58550539D01*
X148698030Y-58648639D01*
X148638206Y-58760561D01*
X148601367Y-58882004D01*
X148588928Y-59008300D01*
X148588928Y-59609700D01*
X148601367Y-59735996D01*
X148638206Y-59857439D01*
X148684474Y-59944000D01*
X148638206Y-60030561D01*
X148612254Y-60116116D01*
X148149370Y-60579000D01*
X143825631Y-60579000D01*
X143510000Y-60263370D01*
X143510000Y-59945890D01*
X143622482Y-59934812D01*
X143742180Y-59898502D01*
X143852494Y-59839537D01*
X143949185Y-59760185D01*
X144018000Y-59676333D01*
X144086815Y-59760185D01*
X144183506Y-59839537D01*
X144293820Y-59898502D01*
X144413518Y-59934812D01*
X144538000Y-59947072D01*
X146038000Y-59947072D01*
X146162482Y-59934812D01*
X146282180Y-59898502D01*
X146392494Y-59839537D01*
X146489185Y-59760185D01*
X146568537Y-59663494D01*
X146627502Y-59553180D01*
X146663812Y-59433482D01*
X146676072Y-59309000D01*
X146676072Y-57279000D01*
X146663812Y-57154518D01*
X146628083Y-57036735D01*
X148048000Y-57036735D01*
X148048000Y-57263265D01*
X148092194Y-57485443D01*
X148178884Y-57694729D01*
X148304737Y-57883082D01*
X148464918Y-58043263D01*
X148653271Y-58169116D01*
X148862557Y-58255806D01*
X149084735Y-58300000D01*
X149311265Y-58300000D01*
X149533443Y-58255806D01*
X149742729Y-58169116D01*
X149931082Y-58043263D01*
X150091263Y-57883082D01*
X150217116Y-57694729D01*
X150303806Y-57485443D01*
X150348000Y-57263265D01*
X150348000Y-57036735D01*
X152928000Y-57036735D01*
X152928000Y-57263265D01*
X152972194Y-57485443D01*
X153058884Y-57694729D01*
X153184737Y-57883082D01*
X153344918Y-58043263D01*
X153533271Y-58169116D01*
X153742557Y-58255806D01*
X153964735Y-58300000D01*
X154191265Y-58300000D01*
X154413443Y-58255806D01*
X154622729Y-58169116D01*
X154811082Y-58043263D01*
X154971263Y-57883082D01*
X155097116Y-57694729D01*
X155183806Y-57485443D01*
X155224870Y-57279000D01*
X156599928Y-57279000D01*
X156599928Y-59309000D01*
X156612188Y-59433482D01*
X156648498Y-59553180D01*
X156707463Y-59663494D01*
X156786815Y-59760185D01*
X156883506Y-59839537D01*
X156993820Y-59898502D01*
X157113518Y-59934812D01*
X157238000Y-59947072D01*
X158738000Y-59947072D01*
X158862482Y-59934812D01*
X158982180Y-59898502D01*
X159092494Y-59839537D01*
X159189185Y-59760185D01*
X159268537Y-59663494D01*
X159327502Y-59553180D01*
X159363812Y-59433482D01*
X159376072Y-59309000D01*
X159376072Y-57279000D01*
X161679928Y-57279000D01*
X161679928Y-59309000D01*
X161692188Y-59433482D01*
X161728498Y-59553180D01*
X161787463Y-59663494D01*
X161866815Y-59760185D01*
X161963506Y-59839537D01*
X162073820Y-59898502D01*
X162193518Y-59934812D01*
X162318000Y-59947072D01*
X163818000Y-59947072D01*
X163942482Y-59934812D01*
X164062180Y-59898502D01*
X164172494Y-59839537D01*
X164269185Y-59760185D01*
X164348537Y-59663494D01*
X164407502Y-59553180D01*
X164443812Y-59433482D01*
X164456072Y-59309000D01*
X164456072Y-57279000D01*
X166759928Y-57279000D01*
X166759928Y-59309000D01*
X166772188Y-59433482D01*
X166808498Y-59553180D01*
X166867463Y-59663494D01*
X166946815Y-59760185D01*
X167043506Y-59839537D01*
X167153820Y-59898502D01*
X167273518Y-59934812D01*
X167398000Y-59947072D01*
X168898000Y-59947072D01*
X169022482Y-59934812D01*
X169142180Y-59898502D01*
X169252494Y-59839537D01*
X169349185Y-59760185D01*
X169428537Y-59663494D01*
X169487502Y-59553180D01*
X169523812Y-59433482D01*
X169528291Y-59388000D01*
X170097928Y-59388000D01*
X170110188Y-59512482D01*
X170146498Y-59632180D01*
X170205463Y-59742494D01*
X170284815Y-59839185D01*
X170381506Y-59918537D01*
X170491820Y-59977502D01*
X170611518Y-60013812D01*
X170736000Y-60026072D01*
X173450250Y-60023000D01*
X173609000Y-59864250D01*
X173609000Y-56515000D01*
X170259750Y-56515000D01*
X170101000Y-56673750D01*
X170097928Y-59388000D01*
X169528291Y-59388000D01*
X169536072Y-59309000D01*
X169536072Y-57279000D01*
X169523812Y-57154518D01*
X169487502Y-57034820D01*
X169428537Y-56924506D01*
X169349185Y-56827815D01*
X169252494Y-56748463D01*
X169142180Y-56689498D01*
X169022482Y-56653188D01*
X168898000Y-56640928D01*
X167398000Y-56640928D01*
X167273518Y-56653188D01*
X167153820Y-56689498D01*
X167043506Y-56748463D01*
X166946815Y-56827815D01*
X166867463Y-56924506D01*
X166808498Y-57034820D01*
X166772188Y-57154518D01*
X166759928Y-57279000D01*
X164456072Y-57279000D01*
X164443812Y-57154518D01*
X164407502Y-57034820D01*
X164348537Y-56924506D01*
X164269185Y-56827815D01*
X164172494Y-56748463D01*
X164062180Y-56689498D01*
X163942482Y-56653188D01*
X163818000Y-56640928D01*
X162318000Y-56640928D01*
X162193518Y-56653188D01*
X162073820Y-56689498D01*
X161963506Y-56748463D01*
X161866815Y-56827815D01*
X161787463Y-56924506D01*
X161728498Y-57034820D01*
X161692188Y-57154518D01*
X161679928Y-57279000D01*
X159376072Y-57279000D01*
X159363812Y-57154518D01*
X159327502Y-57034820D01*
X159268537Y-56924506D01*
X159189185Y-56827815D01*
X159092494Y-56748463D01*
X158982180Y-56689498D01*
X158862482Y-56653188D01*
X158738000Y-56640928D01*
X157238000Y-56640928D01*
X157113518Y-56653188D01*
X156993820Y-56689498D01*
X156883506Y-56748463D01*
X156786815Y-56827815D01*
X156707463Y-56924506D01*
X156648498Y-57034820D01*
X156612188Y-57154518D01*
X156599928Y-57279000D01*
X155224870Y-57279000D01*
X155228000Y-57263265D01*
X155228000Y-57036735D01*
X155183806Y-56814557D01*
X155097116Y-56605271D01*
X154971263Y-56416918D01*
X154811082Y-56256737D01*
X154622729Y-56130884D01*
X154413443Y-56044194D01*
X154191265Y-56000000D01*
X153964735Y-56000000D01*
X153742557Y-56044194D01*
X153533271Y-56130884D01*
X153344918Y-56256737D01*
X153184737Y-56416918D01*
X153058884Y-56605271D01*
X152972194Y-56814557D01*
X152928000Y-57036735D01*
X150348000Y-57036735D01*
X150303806Y-56814557D01*
X150217116Y-56605271D01*
X150091263Y-56416918D01*
X149931082Y-56256737D01*
X149742729Y-56130884D01*
X149533443Y-56044194D01*
X149311265Y-56000000D01*
X149084735Y-56000000D01*
X148862557Y-56044194D01*
X148653271Y-56130884D01*
X148464918Y-56256737D01*
X148304737Y-56416918D01*
X148178884Y-56605271D01*
X148092194Y-56814557D01*
X148048000Y-57036735D01*
X146628083Y-57036735D01*
X146627502Y-57034820D01*
X146568537Y-56924506D01*
X146489185Y-56827815D01*
X146392494Y-56748463D01*
X146282180Y-56689498D01*
X146162482Y-56653188D01*
X146038000Y-56640928D01*
X144538000Y-56640928D01*
X144413518Y-56653188D01*
X144293820Y-56689498D01*
X144183506Y-56748463D01*
X144086815Y-56827815D01*
X144018000Y-56911667D01*
X143949185Y-56827815D01*
X143852494Y-56748463D01*
X143742180Y-56689498D01*
X143622482Y-56653188D01*
X143498000Y-56640928D01*
X141998000Y-56640928D01*
X141873518Y-56653188D01*
X141753820Y-56689498D01*
X141643506Y-56748463D01*
X141546815Y-56827815D01*
X141478000Y-56911667D01*
X141409185Y-56827815D01*
X141312494Y-56748463D01*
X141202180Y-56689498D01*
X141082482Y-56653188D01*
X140958000Y-56640928D01*
X139458000Y-56640928D01*
X139333518Y-56653188D01*
X139213820Y-56689498D01*
X139103506Y-56748463D01*
X139006815Y-56827815D01*
X138938000Y-56911667D01*
X138869185Y-56827815D01*
X138772494Y-56748463D01*
X138662180Y-56689498D01*
X138542482Y-56653188D01*
X138418000Y-56640928D01*
X137953750Y-56644000D01*
X137795000Y-56802750D01*
X137541000Y-56802750D01*
X137382250Y-56644000D01*
X136918000Y-56640928D01*
X136793518Y-56653188D01*
X136673820Y-56689498D01*
X136657304Y-56698326D01*
X137221631Y-56134000D01*
X137501159Y-56134000D01*
X137528338Y-56161179D01*
X137694744Y-56272368D01*
X137879644Y-56348956D01*
X138075933Y-56388000D01*
X138276067Y-56388000D01*
X138472356Y-56348956D01*
X138657256Y-56272368D01*
X138823662Y-56161179D01*
X138965179Y-56019662D01*
X139076368Y-55853256D01*
X139152956Y-55668356D01*
X139192000Y-55472067D01*
X139192000Y-55271933D01*
X139152956Y-55075644D01*
X139076368Y-54890744D01*
X138965179Y-54724338D01*
X138823662Y-54582821D01*
X138657256Y-54471632D01*
X138472356Y-54395044D01*
X138276067Y-54356000D01*
X138075933Y-54356000D01*
X137879644Y-54395044D01*
X137694744Y-54471632D01*
X137528338Y-54582821D01*
X137501159Y-54610000D01*
X136943423Y-54610000D01*
X136906000Y-54606314D01*
X136868577Y-54610000D01*
X136868574Y-54610000D01*
X136756622Y-54621026D01*
X136612985Y-54664598D01*
X136551364Y-54697535D01*
X136480607Y-54735355D01*
X136397904Y-54803228D01*
X136364578Y-54830578D01*
X136340721Y-54859649D01*
X135715699Y-55484671D01*
X135717393Y-53987700D01*
X170098607Y-53987700D01*
X170101000Y-56102250D01*
G37*
G04 #@! TD.AperFunction*
D29*
X175260000Y-100838000D02*
X173459377Y-100838000D01*
X173346445Y-100668985D01*
X173182537Y-100505077D01*
X173281680Y-100475002D01*
X173391994Y-100416037D01*
X173488685Y-100336685D01*
X173568037Y-100239994D01*
X173627002Y-100129680D01*
X173663312Y-100009982D01*
X173675572Y-99885500D01*
X173672500Y-99345750D01*
X173513750Y-99187000D01*
X172339000Y-99187000D01*
X172339000Y-99207000D01*
X172085000Y-99207000D01*
X172085000Y-99187000D01*
X172065000Y-99187000D01*
X172065000Y-98933000D01*
X172085000Y-98933000D01*
X172085000Y-97758250D01*
X172339000Y-97758250D01*
X172339000Y-98933000D01*
X173513750Y-98933000D01*
X173672500Y-98774250D01*
X173675572Y-98234500D01*
X173663312Y-98110018D01*
X173627002Y-97990320D01*
X173568037Y-97880006D01*
X173488685Y-97783315D01*
X173391994Y-97703963D01*
X173281680Y-97644998D01*
X173161982Y-97608688D01*
X173037500Y-97596428D01*
X172497750Y-97599500D01*
X172339000Y-97758250D01*
X172085000Y-97758250D01*
X171926250Y-97599500D01*
X171386500Y-97596428D01*
X171262018Y-97608688D01*
X171151380Y-97642250D01*
X175260000Y-93533630D01*
X175260000Y-100838000D01*
G04 #@! TA.AperFunction,Conductor*
D32*
G36*
X175260000Y-100838000D02*
G01*
X173459377Y-100838000D01*
X173346445Y-100668985D01*
X173182537Y-100505077D01*
X173281680Y-100475002D01*
X173391994Y-100416037D01*
X173488685Y-100336685D01*
X173568037Y-100239994D01*
X173627002Y-100129680D01*
X173663312Y-100009982D01*
X173675572Y-99885500D01*
X173672500Y-99345750D01*
X173513750Y-99187000D01*
X172339000Y-99187000D01*
X172339000Y-99207000D01*
X172085000Y-99207000D01*
X172085000Y-99187000D01*
X172065000Y-99187000D01*
X172065000Y-98933000D01*
X172085000Y-98933000D01*
X172085000Y-97758250D01*
X172339000Y-97758250D01*
X172339000Y-98933000D01*
X173513750Y-98933000D01*
X173672500Y-98774250D01*
X173675572Y-98234500D01*
X173663312Y-98110018D01*
X173627002Y-97990320D01*
X173568037Y-97880006D01*
X173488685Y-97783315D01*
X173391994Y-97703963D01*
X173281680Y-97644998D01*
X173161982Y-97608688D01*
X173037500Y-97596428D01*
X172497750Y-97599500D01*
X172339000Y-97758250D01*
X172085000Y-97758250D01*
X171926250Y-97599500D01*
X171386500Y-97596428D01*
X171262018Y-97608688D01*
X171151380Y-97642250D01*
X175260000Y-93533630D01*
X175260000Y-100838000D01*
G37*
G04 #@! TD.AperFunction*
D29*
X160804486Y-77815353D02*
X160828343Y-77844423D01*
X160857413Y-77868280D01*
X160944372Y-77939646D01*
X161015129Y-77977466D01*
X161076750Y-78010403D01*
X161220387Y-78053975D01*
X161332339Y-78065001D01*
X161332342Y-78065001D01*
X161369765Y-78068687D01*
X161407188Y-78065001D01*
X171579576Y-78065001D01*
X171616999Y-78068687D01*
X171654422Y-78065001D01*
X171654425Y-78065001D01*
X171664767Y-78063982D01*
X166632650Y-83096100D01*
X160536764Y-83096100D01*
X160441099Y-83032179D01*
X160279312Y-82965164D01*
X160233728Y-82956097D01*
X156718000Y-79440370D01*
X156718000Y-76151743D01*
X156743821Y-76113099D01*
X156810836Y-75951312D01*
X156845000Y-75779559D01*
X156845000Y-75604441D01*
X156810836Y-75432688D01*
X156743821Y-75270901D01*
X156646531Y-75125296D01*
X156565272Y-75044037D01*
X156630441Y-75057000D01*
X156805559Y-75057000D01*
X156977312Y-75022836D01*
X157139099Y-74955821D01*
X157177743Y-74930000D01*
X157919134Y-74930000D01*
X160804486Y-77815353D01*
G04 #@! TA.AperFunction,Conductor*
D32*
G36*
X160804486Y-77815353D02*
G01*
X160828343Y-77844423D01*
X160857413Y-77868280D01*
X160944372Y-77939646D01*
X161015129Y-77977466D01*
X161076750Y-78010403D01*
X161220387Y-78053975D01*
X161332339Y-78065001D01*
X161332342Y-78065001D01*
X161369765Y-78068687D01*
X161407188Y-78065001D01*
X171579576Y-78065001D01*
X171616999Y-78068687D01*
X171654422Y-78065001D01*
X171654425Y-78065001D01*
X171664767Y-78063982D01*
X166632650Y-83096100D01*
X160536764Y-83096100D01*
X160441099Y-83032179D01*
X160279312Y-82965164D01*
X160233728Y-82956097D01*
X156718000Y-79440370D01*
X156718000Y-76151743D01*
X156743821Y-76113099D01*
X156810836Y-75951312D01*
X156845000Y-75779559D01*
X156845000Y-75604441D01*
X156810836Y-75432688D01*
X156743821Y-75270901D01*
X156646531Y-75125296D01*
X156565272Y-75044037D01*
X156630441Y-75057000D01*
X156805559Y-75057000D01*
X156977312Y-75022836D01*
X157139099Y-74955821D01*
X157177743Y-74930000D01*
X157919134Y-74930000D01*
X160804486Y-77815353D01*
G37*
G04 #@! TD.AperFunction*
M02*
