G04 #@! TF.GenerationSoftware,KiCad,Pcbnew,(5.1.5)-3*
G04 #@! TF.CreationDate,2020-05-28T10:51:02-07:00*
G04 #@! TF.ProjectId,Plug_Pass_AC_shield,506c7567-5f50-4617-9373-5f41435f7368,v1.2*
G04 #@! TF.SameCoordinates,Original*
G04 #@! TF.FileFunction,Copper,L2,Bot*
G04 #@! TF.FilePolarity,Positive*
%FSLAX46Y46*%
G04 Gerber Fmt 4.6, Leading zero omitted, Abs format (unit mm)*
G04 Created by KiCad (PCBNEW (5.1.5)-3) date 2020-05-28 10:51:02*
%MOMM*%
%LPD*%
G04 APERTURE LIST*
%ADD10C,2.000000*%
%ADD11R,2.000000X2.000000*%
%ADD12C,3.000000*%
%ADD13R,3.000000X3.000000*%
%ADD14C,2.500000*%
%ADD15R,3.500000X3.500000*%
%ADD16C,3.700000*%
%ADD17O,1.727200X1.727200*%
%ADD18R,1.727200X1.727200*%
%ADD19C,0.508000*%
%ADD20C,0.254000*%
G04 APERTURE END LIST*
D10*
X216662000Y-86868000D03*
X209042000Y-86868000D03*
X216662000Y-81788000D03*
X209042000Y-81788000D03*
X206502000Y-86868000D03*
D11*
X206502000Y-81788000D03*
D12*
X214645240Y-67657580D03*
D13*
X208295240Y-77157580D03*
D14*
X208045240Y-115447320D03*
X208045240Y-125607320D03*
D15*
X195345240Y-111637320D03*
D16*
X192805240Y-129417320D03*
X185185240Y-129417320D03*
D13*
X192786000Y-101386640D03*
D12*
X190036000Y-62886640D03*
X182036000Y-101386640D03*
X182036000Y-62886640D03*
D17*
X211074000Y-102108000D03*
X213614000Y-102108000D03*
X211074000Y-99568000D03*
X213614000Y-99568000D03*
X211074000Y-97028000D03*
X213614000Y-97028000D03*
X211074000Y-94488000D03*
D18*
X213614000Y-94488000D03*
D19*
X216662000Y-84836000D02*
X203454000Y-84836000D01*
X216662000Y-84836000D02*
X216662000Y-86868000D01*
X216662000Y-81788000D02*
X216662000Y-84836000D01*
X190036000Y-71418000D02*
X190036000Y-62886640D01*
X203454000Y-84836000D02*
X190036000Y-71418000D01*
D20*
G36*
X217792300Y-80606061D02*
G01*
X217704252Y-80518013D01*
X217436463Y-80339082D01*
X217138912Y-80215832D01*
X216823033Y-80153000D01*
X216500967Y-80153000D01*
X216185088Y-80215832D01*
X215887537Y-80339082D01*
X215619748Y-80518013D01*
X215392013Y-80745748D01*
X215213082Y-81013537D01*
X215089832Y-81311088D01*
X215027000Y-81626967D01*
X215027000Y-81949033D01*
X215089832Y-82264912D01*
X215213082Y-82562463D01*
X215392013Y-82830252D01*
X215619748Y-83057987D01*
X215773000Y-83160387D01*
X215773001Y-83947000D01*
X203822236Y-83947000D01*
X200663236Y-80788000D01*
X204863928Y-80788000D01*
X204863928Y-82788000D01*
X204876188Y-82912482D01*
X204912498Y-83032180D01*
X204971463Y-83142494D01*
X205050815Y-83239185D01*
X205147506Y-83318537D01*
X205257820Y-83377502D01*
X205377518Y-83413812D01*
X205502000Y-83426072D01*
X207502000Y-83426072D01*
X207626482Y-83413812D01*
X207746180Y-83377502D01*
X207856494Y-83318537D01*
X207953185Y-83239185D01*
X208032537Y-83142494D01*
X208057191Y-83096370D01*
X208267537Y-83236918D01*
X208565088Y-83360168D01*
X208880967Y-83423000D01*
X209203033Y-83423000D01*
X209518912Y-83360168D01*
X209816463Y-83236918D01*
X210084252Y-83057987D01*
X210311987Y-82830252D01*
X210490918Y-82562463D01*
X210614168Y-82264912D01*
X210677000Y-81949033D01*
X210677000Y-81626967D01*
X210614168Y-81311088D01*
X210490918Y-81013537D01*
X210311987Y-80745748D01*
X210084252Y-80518013D01*
X209816463Y-80339082D01*
X209518912Y-80215832D01*
X209203033Y-80153000D01*
X208880967Y-80153000D01*
X208565088Y-80215832D01*
X208267537Y-80339082D01*
X208057191Y-80479630D01*
X208032537Y-80433506D01*
X207953185Y-80336815D01*
X207856494Y-80257463D01*
X207746180Y-80198498D01*
X207626482Y-80162188D01*
X207502000Y-80149928D01*
X205502000Y-80149928D01*
X205377518Y-80162188D01*
X205257820Y-80198498D01*
X205147506Y-80257463D01*
X205050815Y-80336815D01*
X204971463Y-80433506D01*
X204912498Y-80543820D01*
X204876188Y-80663518D01*
X204863928Y-80788000D01*
X200663236Y-80788000D01*
X195532816Y-75657580D01*
X206157168Y-75657580D01*
X206157168Y-78657580D01*
X206169428Y-78782062D01*
X206205738Y-78901760D01*
X206264703Y-79012074D01*
X206344055Y-79108765D01*
X206440746Y-79188117D01*
X206551060Y-79247082D01*
X206670758Y-79283392D01*
X206795240Y-79295652D01*
X209795240Y-79295652D01*
X209919722Y-79283392D01*
X210039420Y-79247082D01*
X210149734Y-79188117D01*
X210246425Y-79108765D01*
X210325777Y-79012074D01*
X210384742Y-78901760D01*
X210421052Y-78782062D01*
X210433312Y-78657580D01*
X210433312Y-75657580D01*
X210421052Y-75533098D01*
X210384742Y-75413400D01*
X210325777Y-75303086D01*
X210246425Y-75206395D01*
X210149734Y-75127043D01*
X210039420Y-75068078D01*
X209919722Y-75031768D01*
X209795240Y-75019508D01*
X206795240Y-75019508D01*
X206670758Y-75031768D01*
X206551060Y-75068078D01*
X206440746Y-75127043D01*
X206344055Y-75206395D01*
X206264703Y-75303086D01*
X206205738Y-75413400D01*
X206169428Y-75533098D01*
X206157168Y-75657580D01*
X195532816Y-75657580D01*
X190925000Y-71049765D01*
X190925000Y-69149233D01*
X213333192Y-69149233D01*
X213489202Y-69464794D01*
X213863985Y-69655600D01*
X214268791Y-69769624D01*
X214688064Y-69802482D01*
X215105691Y-69752914D01*
X215505623Y-69622823D01*
X215801278Y-69464794D01*
X215957288Y-69149233D01*
X214645240Y-67837185D01*
X213333192Y-69149233D01*
X190925000Y-69149233D01*
X190925000Y-67700404D01*
X212500338Y-67700404D01*
X212549906Y-68118031D01*
X212679997Y-68517963D01*
X212838026Y-68813618D01*
X213153587Y-68969628D01*
X214465635Y-67657580D01*
X214824845Y-67657580D01*
X216136893Y-68969628D01*
X216452454Y-68813618D01*
X216643260Y-68438835D01*
X216757284Y-68034029D01*
X216790142Y-67614756D01*
X216740574Y-67197129D01*
X216610483Y-66797197D01*
X216452454Y-66501542D01*
X216136893Y-66345532D01*
X214824845Y-67657580D01*
X214465635Y-67657580D01*
X213153587Y-66345532D01*
X212838026Y-66501542D01*
X212647220Y-66876325D01*
X212533196Y-67281131D01*
X212500338Y-67700404D01*
X190925000Y-67700404D01*
X190925000Y-66165927D01*
X213333192Y-66165927D01*
X214645240Y-67477975D01*
X215957288Y-66165927D01*
X215801278Y-65850366D01*
X215426495Y-65659560D01*
X215021689Y-65545536D01*
X214602416Y-65512678D01*
X214184789Y-65562246D01*
X213784857Y-65692337D01*
X213489202Y-65850366D01*
X213333192Y-66165927D01*
X190925000Y-66165927D01*
X190925000Y-64829311D01*
X191047302Y-64778652D01*
X191396983Y-64545003D01*
X191694363Y-64247623D01*
X191928012Y-63897942D01*
X192088953Y-63509396D01*
X192171000Y-63096919D01*
X192171000Y-62676361D01*
X192088953Y-62263884D01*
X191928012Y-61875338D01*
X191694363Y-61525657D01*
X191396983Y-61228277D01*
X191047302Y-60994628D01*
X190658756Y-60833687D01*
X190246279Y-60751640D01*
X189825721Y-60751640D01*
X189413244Y-60833687D01*
X189024698Y-60994628D01*
X188675017Y-61228277D01*
X188377637Y-61525657D01*
X188143988Y-61875338D01*
X187983047Y-62263884D01*
X187901000Y-62676361D01*
X187901000Y-63096919D01*
X187983047Y-63509396D01*
X188143988Y-63897942D01*
X188377637Y-64247623D01*
X188675017Y-64545003D01*
X189024698Y-64778652D01*
X189147001Y-64829311D01*
X189147000Y-71374340D01*
X189142700Y-71418000D01*
X189147000Y-71461660D01*
X189147000Y-71461666D01*
X189159864Y-71592273D01*
X189210697Y-71759850D01*
X189293247Y-71914290D01*
X189404341Y-72049659D01*
X189438264Y-72077499D01*
X202794506Y-85433742D01*
X202822341Y-85467659D01*
X202957709Y-85578753D01*
X203112149Y-85661303D01*
X203228892Y-85696716D01*
X203279725Y-85712136D01*
X203454000Y-85729301D01*
X203497668Y-85725000D01*
X205332761Y-85725000D01*
X205232013Y-85825748D01*
X205053082Y-86093537D01*
X204929832Y-86391088D01*
X204867000Y-86706967D01*
X204867000Y-87029033D01*
X204929832Y-87344912D01*
X205053082Y-87642463D01*
X205232013Y-87910252D01*
X205459748Y-88137987D01*
X205727537Y-88316918D01*
X206025088Y-88440168D01*
X206340967Y-88503000D01*
X206663033Y-88503000D01*
X206978912Y-88440168D01*
X207276463Y-88316918D01*
X207544252Y-88137987D01*
X207678826Y-88003413D01*
X208086192Y-88003413D01*
X208181956Y-88267814D01*
X208471571Y-88408704D01*
X208783108Y-88490384D01*
X209104595Y-88509718D01*
X209423675Y-88465961D01*
X209728088Y-88360795D01*
X209902044Y-88267814D01*
X209997808Y-88003413D01*
X209042000Y-87047605D01*
X208086192Y-88003413D01*
X207678826Y-88003413D01*
X207771987Y-87910252D01*
X207844720Y-87801400D01*
X207906587Y-87823808D01*
X208862395Y-86868000D01*
X208848253Y-86853858D01*
X209027858Y-86674253D01*
X209042000Y-86688395D01*
X209056143Y-86674253D01*
X209235748Y-86853858D01*
X209221605Y-86868000D01*
X210177413Y-87823808D01*
X210441814Y-87728044D01*
X210582704Y-87438429D01*
X210664384Y-87126892D01*
X210683718Y-86805405D01*
X210639961Y-86486325D01*
X210534795Y-86181912D01*
X210441814Y-86007956D01*
X210177415Y-85912193D01*
X210293083Y-85796525D01*
X210221558Y-85725000D01*
X215492761Y-85725000D01*
X215392013Y-85825748D01*
X215213082Y-86093537D01*
X215089832Y-86391088D01*
X215027000Y-86706967D01*
X215027000Y-87029033D01*
X215089832Y-87344912D01*
X215213082Y-87642463D01*
X215392013Y-87910252D01*
X215619748Y-88137987D01*
X215887537Y-88316918D01*
X216185088Y-88440168D01*
X216500967Y-88503000D01*
X216823033Y-88503000D01*
X217138912Y-88440168D01*
X217436463Y-88316918D01*
X217704252Y-88137987D01*
X217792300Y-88049939D01*
X217792301Y-141592300D01*
X178447700Y-141592300D01*
X178447700Y-138205296D01*
X179328539Y-138205296D01*
X179328539Y-138654704D01*
X179416214Y-139095478D01*
X179588196Y-139510677D01*
X179837874Y-139884347D01*
X180155653Y-140202126D01*
X180529323Y-140451804D01*
X180944522Y-140623786D01*
X181385296Y-140711461D01*
X181834704Y-140711461D01*
X182275478Y-140623786D01*
X182690677Y-140451804D01*
X183064347Y-140202126D01*
X183382126Y-139884347D01*
X183631804Y-139510677D01*
X183803786Y-139095478D01*
X183891461Y-138654704D01*
X183891461Y-138205296D01*
X212348539Y-138205296D01*
X212348539Y-138654704D01*
X212436214Y-139095478D01*
X212608196Y-139510677D01*
X212857874Y-139884347D01*
X213175653Y-140202126D01*
X213549323Y-140451804D01*
X213964522Y-140623786D01*
X214405296Y-140711461D01*
X214854704Y-140711461D01*
X215295478Y-140623786D01*
X215710677Y-140451804D01*
X216084347Y-140202126D01*
X216402126Y-139884347D01*
X216651804Y-139510677D01*
X216823786Y-139095478D01*
X216911461Y-138654704D01*
X216911461Y-138205296D01*
X216823786Y-137764522D01*
X216651804Y-137349323D01*
X216402126Y-136975653D01*
X216084347Y-136657874D01*
X215710677Y-136408196D01*
X215295478Y-136236214D01*
X214854704Y-136148539D01*
X214405296Y-136148539D01*
X213964522Y-136236214D01*
X213549323Y-136408196D01*
X213175653Y-136657874D01*
X212857874Y-136975653D01*
X212608196Y-137349323D01*
X212436214Y-137764522D01*
X212348539Y-138205296D01*
X183891461Y-138205296D01*
X183803786Y-137764522D01*
X183631804Y-137349323D01*
X183382126Y-136975653D01*
X183064347Y-136657874D01*
X182690677Y-136408196D01*
X182275478Y-136236214D01*
X181834704Y-136148539D01*
X181385296Y-136148539D01*
X180944522Y-136236214D01*
X180529323Y-136408196D01*
X180155653Y-136657874D01*
X179837874Y-136975653D01*
X179588196Y-137349323D01*
X179416214Y-137764522D01*
X179328539Y-138205296D01*
X178447700Y-138205296D01*
X178447700Y-129172569D01*
X182700240Y-129172569D01*
X182700240Y-129662071D01*
X182795737Y-130142168D01*
X182983061Y-130594409D01*
X183255014Y-131001415D01*
X183601145Y-131347546D01*
X184008151Y-131619499D01*
X184460392Y-131806823D01*
X184940489Y-131902320D01*
X185429991Y-131902320D01*
X185910088Y-131806823D01*
X186362329Y-131619499D01*
X186769335Y-131347546D01*
X187115466Y-131001415D01*
X187387419Y-130594409D01*
X187574743Y-130142168D01*
X187670240Y-129662071D01*
X187670240Y-129172569D01*
X190320240Y-129172569D01*
X190320240Y-129662071D01*
X190415737Y-130142168D01*
X190603061Y-130594409D01*
X190875014Y-131001415D01*
X191221145Y-131347546D01*
X191628151Y-131619499D01*
X192080392Y-131806823D01*
X192560489Y-131902320D01*
X193049991Y-131902320D01*
X193530088Y-131806823D01*
X193982329Y-131619499D01*
X194389335Y-131347546D01*
X194735466Y-131001415D01*
X195007419Y-130594409D01*
X195194743Y-130142168D01*
X195290240Y-129662071D01*
X195290240Y-129172569D01*
X195194743Y-128692472D01*
X195007419Y-128240231D01*
X194735466Y-127833225D01*
X194389335Y-127487094D01*
X193982329Y-127215141D01*
X193530088Y-127027817D01*
X193049991Y-126932320D01*
X192560489Y-126932320D01*
X192080392Y-127027817D01*
X191628151Y-127215141D01*
X191221145Y-127487094D01*
X190875014Y-127833225D01*
X190603061Y-128240231D01*
X190415737Y-128692472D01*
X190320240Y-129172569D01*
X187670240Y-129172569D01*
X187574743Y-128692472D01*
X187387419Y-128240231D01*
X187115466Y-127833225D01*
X186769335Y-127487094D01*
X186362329Y-127215141D01*
X185910088Y-127027817D01*
X185429991Y-126932320D01*
X184940489Y-126932320D01*
X184460392Y-127027817D01*
X184008151Y-127215141D01*
X183601145Y-127487094D01*
X183255014Y-127833225D01*
X182983061Y-128240231D01*
X182795737Y-128692472D01*
X182700240Y-129172569D01*
X178447700Y-129172569D01*
X178447700Y-126920925D01*
X206911240Y-126920925D01*
X207037154Y-127210897D01*
X207369366Y-127376753D01*
X207727552Y-127474610D01*
X208097946Y-127500709D01*
X208466315Y-127454045D01*
X208818502Y-127336414D01*
X209053326Y-127210897D01*
X209179240Y-126920925D01*
X208045240Y-125786925D01*
X206911240Y-126920925D01*
X178447700Y-126920925D01*
X178447700Y-125660026D01*
X206151851Y-125660026D01*
X206198515Y-126028395D01*
X206316146Y-126380582D01*
X206441663Y-126615406D01*
X206731635Y-126741320D01*
X207865635Y-125607320D01*
X208224845Y-125607320D01*
X209358845Y-126741320D01*
X209648817Y-126615406D01*
X209814673Y-126283194D01*
X209912530Y-125925008D01*
X209938629Y-125554614D01*
X209891965Y-125186245D01*
X209774334Y-124834058D01*
X209648817Y-124599234D01*
X209358845Y-124473320D01*
X208224845Y-125607320D01*
X207865635Y-125607320D01*
X206731635Y-124473320D01*
X206441663Y-124599234D01*
X206275807Y-124931446D01*
X206177950Y-125289632D01*
X206151851Y-125660026D01*
X178447700Y-125660026D01*
X178447700Y-124293715D01*
X206911240Y-124293715D01*
X208045240Y-125427715D01*
X209179240Y-124293715D01*
X209053326Y-124003743D01*
X208721114Y-123837887D01*
X208362928Y-123740030D01*
X207992534Y-123713931D01*
X207624165Y-123760595D01*
X207271978Y-123878226D01*
X207037154Y-124003743D01*
X206911240Y-124293715D01*
X178447700Y-124293715D01*
X178447700Y-115261664D01*
X206160240Y-115261664D01*
X206160240Y-115632976D01*
X206232679Y-115997154D01*
X206374774Y-116340202D01*
X206581065Y-116648938D01*
X206843622Y-116911495D01*
X207152358Y-117117786D01*
X207495406Y-117259881D01*
X207859584Y-117332320D01*
X208230896Y-117332320D01*
X208595074Y-117259881D01*
X208938122Y-117117786D01*
X209246858Y-116911495D01*
X209509415Y-116648938D01*
X209715706Y-116340202D01*
X209857801Y-115997154D01*
X209930240Y-115632976D01*
X209930240Y-115261664D01*
X209857801Y-114897486D01*
X209715706Y-114554438D01*
X209509415Y-114245702D01*
X209246858Y-113983145D01*
X208938122Y-113776854D01*
X208595074Y-113634759D01*
X208230896Y-113562320D01*
X207859584Y-113562320D01*
X207495406Y-113634759D01*
X207152358Y-113776854D01*
X206843622Y-113983145D01*
X206581065Y-114245702D01*
X206374774Y-114554438D01*
X206232679Y-114897486D01*
X206160240Y-115261664D01*
X178447700Y-115261664D01*
X178447700Y-109887320D01*
X192957168Y-109887320D01*
X192957168Y-113387320D01*
X192969428Y-113511802D01*
X193005738Y-113631500D01*
X193064703Y-113741814D01*
X193144055Y-113838505D01*
X193240746Y-113917857D01*
X193351060Y-113976822D01*
X193470758Y-114013132D01*
X193595240Y-114025392D01*
X197095240Y-114025392D01*
X197219722Y-114013132D01*
X197339420Y-113976822D01*
X197449734Y-113917857D01*
X197546425Y-113838505D01*
X197625777Y-113741814D01*
X197684742Y-113631500D01*
X197721052Y-113511802D01*
X197733312Y-113387320D01*
X197733312Y-109887320D01*
X197721052Y-109762838D01*
X197684742Y-109643140D01*
X197625777Y-109532826D01*
X197546425Y-109436135D01*
X197449734Y-109356783D01*
X197339420Y-109297818D01*
X197219722Y-109261508D01*
X197095240Y-109249248D01*
X193595240Y-109249248D01*
X193470758Y-109261508D01*
X193351060Y-109297818D01*
X193240746Y-109356783D01*
X193144055Y-109436135D01*
X193064703Y-109532826D01*
X193005738Y-109643140D01*
X192969428Y-109762838D01*
X192957168Y-109887320D01*
X178447700Y-109887320D01*
X178447700Y-101176361D01*
X179901000Y-101176361D01*
X179901000Y-101596919D01*
X179983047Y-102009396D01*
X180143988Y-102397942D01*
X180377637Y-102747623D01*
X180675017Y-103045003D01*
X181024698Y-103278652D01*
X181413244Y-103439593D01*
X181825721Y-103521640D01*
X182246279Y-103521640D01*
X182658756Y-103439593D01*
X183047302Y-103278652D01*
X183396983Y-103045003D01*
X183694363Y-102747623D01*
X183928012Y-102397942D01*
X184088953Y-102009396D01*
X184171000Y-101596919D01*
X184171000Y-101176361D01*
X184088953Y-100763884D01*
X183928012Y-100375338D01*
X183694363Y-100025657D01*
X183555346Y-99886640D01*
X190647928Y-99886640D01*
X190647928Y-102886640D01*
X190660188Y-103011122D01*
X190696498Y-103130820D01*
X190755463Y-103241134D01*
X190834815Y-103337825D01*
X190931506Y-103417177D01*
X191041820Y-103476142D01*
X191161518Y-103512452D01*
X191286000Y-103524712D01*
X194286000Y-103524712D01*
X194410482Y-103512452D01*
X194530180Y-103476142D01*
X194640494Y-103417177D01*
X194737185Y-103337825D01*
X194816537Y-103241134D01*
X194875502Y-103130820D01*
X194911812Y-103011122D01*
X194924072Y-102886640D01*
X194924072Y-99886640D01*
X194911812Y-99762158D01*
X194875502Y-99642460D01*
X194816537Y-99532146D01*
X194737185Y-99435455D01*
X194640494Y-99356103D01*
X194530180Y-99297138D01*
X194410482Y-99260828D01*
X194286000Y-99248568D01*
X191286000Y-99248568D01*
X191161518Y-99260828D01*
X191041820Y-99297138D01*
X190931506Y-99356103D01*
X190834815Y-99435455D01*
X190755463Y-99532146D01*
X190696498Y-99642460D01*
X190660188Y-99762158D01*
X190647928Y-99886640D01*
X183555346Y-99886640D01*
X183396983Y-99728277D01*
X183047302Y-99494628D01*
X182658756Y-99333687D01*
X182246279Y-99251640D01*
X181825721Y-99251640D01*
X181413244Y-99333687D01*
X181024698Y-99494628D01*
X180675017Y-99728277D01*
X180377637Y-100025657D01*
X180143988Y-100375338D01*
X179983047Y-100763884D01*
X179901000Y-101176361D01*
X178447700Y-101176361D01*
X178447700Y-94340401D01*
X209575400Y-94340401D01*
X209575400Y-94635599D01*
X209632990Y-94925125D01*
X209745958Y-95197853D01*
X209909961Y-95443302D01*
X210118698Y-95652039D01*
X210277281Y-95758000D01*
X210118698Y-95863961D01*
X209909961Y-96072698D01*
X209745958Y-96318147D01*
X209632990Y-96590875D01*
X209575400Y-96880401D01*
X209575400Y-97175599D01*
X209632990Y-97465125D01*
X209745958Y-97737853D01*
X209909961Y-97983302D01*
X210118698Y-98192039D01*
X210277281Y-98298000D01*
X210118698Y-98403961D01*
X209909961Y-98612698D01*
X209745958Y-98858147D01*
X209632990Y-99130875D01*
X209575400Y-99420401D01*
X209575400Y-99715599D01*
X209632990Y-100005125D01*
X209745958Y-100277853D01*
X209909961Y-100523302D01*
X210118698Y-100732039D01*
X210277281Y-100838000D01*
X210118698Y-100943961D01*
X209909961Y-101152698D01*
X209745958Y-101398147D01*
X209632990Y-101670875D01*
X209575400Y-101960401D01*
X209575400Y-102255599D01*
X209632990Y-102545125D01*
X209745958Y-102817853D01*
X209909961Y-103063302D01*
X210118698Y-103272039D01*
X210364147Y-103436042D01*
X210636875Y-103549010D01*
X210926401Y-103606600D01*
X211221599Y-103606600D01*
X211511125Y-103549010D01*
X211783853Y-103436042D01*
X212029302Y-103272039D01*
X212238039Y-103063302D01*
X212345692Y-102902187D01*
X212507146Y-103118293D01*
X212725512Y-103314817D01*
X212978022Y-103464964D01*
X213254973Y-103562963D01*
X213487000Y-103442464D01*
X213487000Y-102235000D01*
X213741000Y-102235000D01*
X213741000Y-103442464D01*
X213973027Y-103562963D01*
X214249978Y-103464964D01*
X214502488Y-103314817D01*
X214720854Y-103118293D01*
X214896684Y-102882944D01*
X215023222Y-102617814D01*
X215068958Y-102467026D01*
X214947817Y-102235000D01*
X213741000Y-102235000D01*
X213487000Y-102235000D01*
X213467000Y-102235000D01*
X213467000Y-101981000D01*
X213487000Y-101981000D01*
X213487000Y-101961000D01*
X213741000Y-101961000D01*
X213741000Y-101981000D01*
X214947817Y-101981000D01*
X215068958Y-101748974D01*
X215023222Y-101598186D01*
X214896684Y-101333056D01*
X214720854Y-101097707D01*
X214502488Y-100901183D01*
X214403897Y-100842559D01*
X214569302Y-100732039D01*
X214778039Y-100523302D01*
X214942042Y-100277853D01*
X215055010Y-100005125D01*
X215112600Y-99715599D01*
X215112600Y-99420401D01*
X215055010Y-99130875D01*
X214942042Y-98858147D01*
X214778039Y-98612698D01*
X214569302Y-98403961D01*
X214410719Y-98298000D01*
X214569302Y-98192039D01*
X214778039Y-97983302D01*
X214942042Y-97737853D01*
X215055010Y-97465125D01*
X215112600Y-97175599D01*
X215112600Y-96880401D01*
X215055010Y-96590875D01*
X214942042Y-96318147D01*
X214778039Y-96072698D01*
X214663977Y-95958636D01*
X214721780Y-95941102D01*
X214832094Y-95882137D01*
X214928785Y-95802785D01*
X215008137Y-95706094D01*
X215067102Y-95595780D01*
X215103412Y-95476082D01*
X215115672Y-95351600D01*
X215115672Y-93624400D01*
X215103412Y-93499918D01*
X215067102Y-93380220D01*
X215008137Y-93269906D01*
X214928785Y-93173215D01*
X214832094Y-93093863D01*
X214721780Y-93034898D01*
X214602082Y-92998588D01*
X214477600Y-92986328D01*
X212750400Y-92986328D01*
X212625918Y-92998588D01*
X212506220Y-93034898D01*
X212395906Y-93093863D01*
X212299215Y-93173215D01*
X212219863Y-93269906D01*
X212160898Y-93380220D01*
X212143364Y-93438023D01*
X212029302Y-93323961D01*
X211783853Y-93159958D01*
X211511125Y-93046990D01*
X211221599Y-92989400D01*
X210926401Y-92989400D01*
X210636875Y-93046990D01*
X210364147Y-93159958D01*
X210118698Y-93323961D01*
X209909961Y-93532698D01*
X209745958Y-93778147D01*
X209632990Y-94050875D01*
X209575400Y-94340401D01*
X178447700Y-94340401D01*
X178447700Y-64378293D01*
X180723952Y-64378293D01*
X180879962Y-64693854D01*
X181254745Y-64884660D01*
X181659551Y-64998684D01*
X182078824Y-65031542D01*
X182496451Y-64981974D01*
X182896383Y-64851883D01*
X183192038Y-64693854D01*
X183348048Y-64378293D01*
X182036000Y-63066245D01*
X180723952Y-64378293D01*
X178447700Y-64378293D01*
X178447700Y-62929464D01*
X179891098Y-62929464D01*
X179940666Y-63347091D01*
X180070757Y-63747023D01*
X180228786Y-64042678D01*
X180544347Y-64198688D01*
X181856395Y-62886640D01*
X182215605Y-62886640D01*
X183527653Y-64198688D01*
X183843214Y-64042678D01*
X184034020Y-63667895D01*
X184148044Y-63263089D01*
X184180902Y-62843816D01*
X184131334Y-62426189D01*
X184001243Y-62026257D01*
X183843214Y-61730602D01*
X183527653Y-61574592D01*
X182215605Y-62886640D01*
X181856395Y-62886640D01*
X180544347Y-61574592D01*
X180228786Y-61730602D01*
X180037980Y-62105385D01*
X179923956Y-62510191D01*
X179891098Y-62929464D01*
X178447700Y-62929464D01*
X178447700Y-61394987D01*
X180723952Y-61394987D01*
X182036000Y-62707035D01*
X183348048Y-61394987D01*
X183192038Y-61079426D01*
X182817255Y-60888620D01*
X182412449Y-60774596D01*
X181993176Y-60741738D01*
X181575549Y-60791306D01*
X181175617Y-60921397D01*
X180879962Y-61079426D01*
X180723952Y-61394987D01*
X178447700Y-61394987D01*
X178447700Y-54385296D01*
X179328539Y-54385296D01*
X179328539Y-54834704D01*
X179416214Y-55275478D01*
X179588196Y-55690677D01*
X179837874Y-56064347D01*
X180155653Y-56382126D01*
X180529323Y-56631804D01*
X180944522Y-56803786D01*
X181385296Y-56891461D01*
X181834704Y-56891461D01*
X182275478Y-56803786D01*
X182690677Y-56631804D01*
X183064347Y-56382126D01*
X183382126Y-56064347D01*
X183631804Y-55690677D01*
X183803786Y-55275478D01*
X183891461Y-54834704D01*
X183891461Y-54385296D01*
X212348539Y-54385296D01*
X212348539Y-54834704D01*
X212436214Y-55275478D01*
X212608196Y-55690677D01*
X212857874Y-56064347D01*
X213175653Y-56382126D01*
X213549323Y-56631804D01*
X213964522Y-56803786D01*
X214405296Y-56891461D01*
X214854704Y-56891461D01*
X215295478Y-56803786D01*
X215710677Y-56631804D01*
X216084347Y-56382126D01*
X216402126Y-56064347D01*
X216651804Y-55690677D01*
X216823786Y-55275478D01*
X216911461Y-54834704D01*
X216911461Y-54385296D01*
X216823786Y-53944522D01*
X216651804Y-53529323D01*
X216402126Y-53155653D01*
X216084347Y-52837874D01*
X215710677Y-52588196D01*
X215295478Y-52416214D01*
X214854704Y-52328539D01*
X214405296Y-52328539D01*
X213964522Y-52416214D01*
X213549323Y-52588196D01*
X213175653Y-52837874D01*
X212857874Y-53155653D01*
X212608196Y-53529323D01*
X212436214Y-53944522D01*
X212348539Y-54385296D01*
X183891461Y-54385296D01*
X183803786Y-53944522D01*
X183631804Y-53529323D01*
X183382126Y-53155653D01*
X183064347Y-52837874D01*
X182690677Y-52588196D01*
X182275478Y-52416214D01*
X181834704Y-52328539D01*
X181385296Y-52328539D01*
X180944522Y-52416214D01*
X180529323Y-52588196D01*
X180155653Y-52837874D01*
X179837874Y-53155653D01*
X179588196Y-53529323D01*
X179416214Y-53944522D01*
X179328539Y-54385296D01*
X178447700Y-54385296D01*
X178447700Y-51447700D01*
X217792300Y-51447700D01*
X217792300Y-80606061D01*
G37*
X217792300Y-80606061D02*
X217704252Y-80518013D01*
X217436463Y-80339082D01*
X217138912Y-80215832D01*
X216823033Y-80153000D01*
X216500967Y-80153000D01*
X216185088Y-80215832D01*
X215887537Y-80339082D01*
X215619748Y-80518013D01*
X215392013Y-80745748D01*
X215213082Y-81013537D01*
X215089832Y-81311088D01*
X215027000Y-81626967D01*
X215027000Y-81949033D01*
X215089832Y-82264912D01*
X215213082Y-82562463D01*
X215392013Y-82830252D01*
X215619748Y-83057987D01*
X215773000Y-83160387D01*
X215773001Y-83947000D01*
X203822236Y-83947000D01*
X200663236Y-80788000D01*
X204863928Y-80788000D01*
X204863928Y-82788000D01*
X204876188Y-82912482D01*
X204912498Y-83032180D01*
X204971463Y-83142494D01*
X205050815Y-83239185D01*
X205147506Y-83318537D01*
X205257820Y-83377502D01*
X205377518Y-83413812D01*
X205502000Y-83426072D01*
X207502000Y-83426072D01*
X207626482Y-83413812D01*
X207746180Y-83377502D01*
X207856494Y-83318537D01*
X207953185Y-83239185D01*
X208032537Y-83142494D01*
X208057191Y-83096370D01*
X208267537Y-83236918D01*
X208565088Y-83360168D01*
X208880967Y-83423000D01*
X209203033Y-83423000D01*
X209518912Y-83360168D01*
X209816463Y-83236918D01*
X210084252Y-83057987D01*
X210311987Y-82830252D01*
X210490918Y-82562463D01*
X210614168Y-82264912D01*
X210677000Y-81949033D01*
X210677000Y-81626967D01*
X210614168Y-81311088D01*
X210490918Y-81013537D01*
X210311987Y-80745748D01*
X210084252Y-80518013D01*
X209816463Y-80339082D01*
X209518912Y-80215832D01*
X209203033Y-80153000D01*
X208880967Y-80153000D01*
X208565088Y-80215832D01*
X208267537Y-80339082D01*
X208057191Y-80479630D01*
X208032537Y-80433506D01*
X207953185Y-80336815D01*
X207856494Y-80257463D01*
X207746180Y-80198498D01*
X207626482Y-80162188D01*
X207502000Y-80149928D01*
X205502000Y-80149928D01*
X205377518Y-80162188D01*
X205257820Y-80198498D01*
X205147506Y-80257463D01*
X205050815Y-80336815D01*
X204971463Y-80433506D01*
X204912498Y-80543820D01*
X204876188Y-80663518D01*
X204863928Y-80788000D01*
X200663236Y-80788000D01*
X195532816Y-75657580D01*
X206157168Y-75657580D01*
X206157168Y-78657580D01*
X206169428Y-78782062D01*
X206205738Y-78901760D01*
X206264703Y-79012074D01*
X206344055Y-79108765D01*
X206440746Y-79188117D01*
X206551060Y-79247082D01*
X206670758Y-79283392D01*
X206795240Y-79295652D01*
X209795240Y-79295652D01*
X209919722Y-79283392D01*
X210039420Y-79247082D01*
X210149734Y-79188117D01*
X210246425Y-79108765D01*
X210325777Y-79012074D01*
X210384742Y-78901760D01*
X210421052Y-78782062D01*
X210433312Y-78657580D01*
X210433312Y-75657580D01*
X210421052Y-75533098D01*
X210384742Y-75413400D01*
X210325777Y-75303086D01*
X210246425Y-75206395D01*
X210149734Y-75127043D01*
X210039420Y-75068078D01*
X209919722Y-75031768D01*
X209795240Y-75019508D01*
X206795240Y-75019508D01*
X206670758Y-75031768D01*
X206551060Y-75068078D01*
X206440746Y-75127043D01*
X206344055Y-75206395D01*
X206264703Y-75303086D01*
X206205738Y-75413400D01*
X206169428Y-75533098D01*
X206157168Y-75657580D01*
X195532816Y-75657580D01*
X190925000Y-71049765D01*
X190925000Y-69149233D01*
X213333192Y-69149233D01*
X213489202Y-69464794D01*
X213863985Y-69655600D01*
X214268791Y-69769624D01*
X214688064Y-69802482D01*
X215105691Y-69752914D01*
X215505623Y-69622823D01*
X215801278Y-69464794D01*
X215957288Y-69149233D01*
X214645240Y-67837185D01*
X213333192Y-69149233D01*
X190925000Y-69149233D01*
X190925000Y-67700404D01*
X212500338Y-67700404D01*
X212549906Y-68118031D01*
X212679997Y-68517963D01*
X212838026Y-68813618D01*
X213153587Y-68969628D01*
X214465635Y-67657580D01*
X214824845Y-67657580D01*
X216136893Y-68969628D01*
X216452454Y-68813618D01*
X216643260Y-68438835D01*
X216757284Y-68034029D01*
X216790142Y-67614756D01*
X216740574Y-67197129D01*
X216610483Y-66797197D01*
X216452454Y-66501542D01*
X216136893Y-66345532D01*
X214824845Y-67657580D01*
X214465635Y-67657580D01*
X213153587Y-66345532D01*
X212838026Y-66501542D01*
X212647220Y-66876325D01*
X212533196Y-67281131D01*
X212500338Y-67700404D01*
X190925000Y-67700404D01*
X190925000Y-66165927D01*
X213333192Y-66165927D01*
X214645240Y-67477975D01*
X215957288Y-66165927D01*
X215801278Y-65850366D01*
X215426495Y-65659560D01*
X215021689Y-65545536D01*
X214602416Y-65512678D01*
X214184789Y-65562246D01*
X213784857Y-65692337D01*
X213489202Y-65850366D01*
X213333192Y-66165927D01*
X190925000Y-66165927D01*
X190925000Y-64829311D01*
X191047302Y-64778652D01*
X191396983Y-64545003D01*
X191694363Y-64247623D01*
X191928012Y-63897942D01*
X192088953Y-63509396D01*
X192171000Y-63096919D01*
X192171000Y-62676361D01*
X192088953Y-62263884D01*
X191928012Y-61875338D01*
X191694363Y-61525657D01*
X191396983Y-61228277D01*
X191047302Y-60994628D01*
X190658756Y-60833687D01*
X190246279Y-60751640D01*
X189825721Y-60751640D01*
X189413244Y-60833687D01*
X189024698Y-60994628D01*
X188675017Y-61228277D01*
X188377637Y-61525657D01*
X188143988Y-61875338D01*
X187983047Y-62263884D01*
X187901000Y-62676361D01*
X187901000Y-63096919D01*
X187983047Y-63509396D01*
X188143988Y-63897942D01*
X188377637Y-64247623D01*
X188675017Y-64545003D01*
X189024698Y-64778652D01*
X189147001Y-64829311D01*
X189147000Y-71374340D01*
X189142700Y-71418000D01*
X189147000Y-71461660D01*
X189147000Y-71461666D01*
X189159864Y-71592273D01*
X189210697Y-71759850D01*
X189293247Y-71914290D01*
X189404341Y-72049659D01*
X189438264Y-72077499D01*
X202794506Y-85433742D01*
X202822341Y-85467659D01*
X202957709Y-85578753D01*
X203112149Y-85661303D01*
X203228892Y-85696716D01*
X203279725Y-85712136D01*
X203454000Y-85729301D01*
X203497668Y-85725000D01*
X205332761Y-85725000D01*
X205232013Y-85825748D01*
X205053082Y-86093537D01*
X204929832Y-86391088D01*
X204867000Y-86706967D01*
X204867000Y-87029033D01*
X204929832Y-87344912D01*
X205053082Y-87642463D01*
X205232013Y-87910252D01*
X205459748Y-88137987D01*
X205727537Y-88316918D01*
X206025088Y-88440168D01*
X206340967Y-88503000D01*
X206663033Y-88503000D01*
X206978912Y-88440168D01*
X207276463Y-88316918D01*
X207544252Y-88137987D01*
X207678826Y-88003413D01*
X208086192Y-88003413D01*
X208181956Y-88267814D01*
X208471571Y-88408704D01*
X208783108Y-88490384D01*
X209104595Y-88509718D01*
X209423675Y-88465961D01*
X209728088Y-88360795D01*
X209902044Y-88267814D01*
X209997808Y-88003413D01*
X209042000Y-87047605D01*
X208086192Y-88003413D01*
X207678826Y-88003413D01*
X207771987Y-87910252D01*
X207844720Y-87801400D01*
X207906587Y-87823808D01*
X208862395Y-86868000D01*
X208848253Y-86853858D01*
X209027858Y-86674253D01*
X209042000Y-86688395D01*
X209056143Y-86674253D01*
X209235748Y-86853858D01*
X209221605Y-86868000D01*
X210177413Y-87823808D01*
X210441814Y-87728044D01*
X210582704Y-87438429D01*
X210664384Y-87126892D01*
X210683718Y-86805405D01*
X210639961Y-86486325D01*
X210534795Y-86181912D01*
X210441814Y-86007956D01*
X210177415Y-85912193D01*
X210293083Y-85796525D01*
X210221558Y-85725000D01*
X215492761Y-85725000D01*
X215392013Y-85825748D01*
X215213082Y-86093537D01*
X215089832Y-86391088D01*
X215027000Y-86706967D01*
X215027000Y-87029033D01*
X215089832Y-87344912D01*
X215213082Y-87642463D01*
X215392013Y-87910252D01*
X215619748Y-88137987D01*
X215887537Y-88316918D01*
X216185088Y-88440168D01*
X216500967Y-88503000D01*
X216823033Y-88503000D01*
X217138912Y-88440168D01*
X217436463Y-88316918D01*
X217704252Y-88137987D01*
X217792300Y-88049939D01*
X217792301Y-141592300D01*
X178447700Y-141592300D01*
X178447700Y-138205296D01*
X179328539Y-138205296D01*
X179328539Y-138654704D01*
X179416214Y-139095478D01*
X179588196Y-139510677D01*
X179837874Y-139884347D01*
X180155653Y-140202126D01*
X180529323Y-140451804D01*
X180944522Y-140623786D01*
X181385296Y-140711461D01*
X181834704Y-140711461D01*
X182275478Y-140623786D01*
X182690677Y-140451804D01*
X183064347Y-140202126D01*
X183382126Y-139884347D01*
X183631804Y-139510677D01*
X183803786Y-139095478D01*
X183891461Y-138654704D01*
X183891461Y-138205296D01*
X212348539Y-138205296D01*
X212348539Y-138654704D01*
X212436214Y-139095478D01*
X212608196Y-139510677D01*
X212857874Y-139884347D01*
X213175653Y-140202126D01*
X213549323Y-140451804D01*
X213964522Y-140623786D01*
X214405296Y-140711461D01*
X214854704Y-140711461D01*
X215295478Y-140623786D01*
X215710677Y-140451804D01*
X216084347Y-140202126D01*
X216402126Y-139884347D01*
X216651804Y-139510677D01*
X216823786Y-139095478D01*
X216911461Y-138654704D01*
X216911461Y-138205296D01*
X216823786Y-137764522D01*
X216651804Y-137349323D01*
X216402126Y-136975653D01*
X216084347Y-136657874D01*
X215710677Y-136408196D01*
X215295478Y-136236214D01*
X214854704Y-136148539D01*
X214405296Y-136148539D01*
X213964522Y-136236214D01*
X213549323Y-136408196D01*
X213175653Y-136657874D01*
X212857874Y-136975653D01*
X212608196Y-137349323D01*
X212436214Y-137764522D01*
X212348539Y-138205296D01*
X183891461Y-138205296D01*
X183803786Y-137764522D01*
X183631804Y-137349323D01*
X183382126Y-136975653D01*
X183064347Y-136657874D01*
X182690677Y-136408196D01*
X182275478Y-136236214D01*
X181834704Y-136148539D01*
X181385296Y-136148539D01*
X180944522Y-136236214D01*
X180529323Y-136408196D01*
X180155653Y-136657874D01*
X179837874Y-136975653D01*
X179588196Y-137349323D01*
X179416214Y-137764522D01*
X179328539Y-138205296D01*
X178447700Y-138205296D01*
X178447700Y-129172569D01*
X182700240Y-129172569D01*
X182700240Y-129662071D01*
X182795737Y-130142168D01*
X182983061Y-130594409D01*
X183255014Y-131001415D01*
X183601145Y-131347546D01*
X184008151Y-131619499D01*
X184460392Y-131806823D01*
X184940489Y-131902320D01*
X185429991Y-131902320D01*
X185910088Y-131806823D01*
X186362329Y-131619499D01*
X186769335Y-131347546D01*
X187115466Y-131001415D01*
X187387419Y-130594409D01*
X187574743Y-130142168D01*
X187670240Y-129662071D01*
X187670240Y-129172569D01*
X190320240Y-129172569D01*
X190320240Y-129662071D01*
X190415737Y-130142168D01*
X190603061Y-130594409D01*
X190875014Y-131001415D01*
X191221145Y-131347546D01*
X191628151Y-131619499D01*
X192080392Y-131806823D01*
X192560489Y-131902320D01*
X193049991Y-131902320D01*
X193530088Y-131806823D01*
X193982329Y-131619499D01*
X194389335Y-131347546D01*
X194735466Y-131001415D01*
X195007419Y-130594409D01*
X195194743Y-130142168D01*
X195290240Y-129662071D01*
X195290240Y-129172569D01*
X195194743Y-128692472D01*
X195007419Y-128240231D01*
X194735466Y-127833225D01*
X194389335Y-127487094D01*
X193982329Y-127215141D01*
X193530088Y-127027817D01*
X193049991Y-126932320D01*
X192560489Y-126932320D01*
X192080392Y-127027817D01*
X191628151Y-127215141D01*
X191221145Y-127487094D01*
X190875014Y-127833225D01*
X190603061Y-128240231D01*
X190415737Y-128692472D01*
X190320240Y-129172569D01*
X187670240Y-129172569D01*
X187574743Y-128692472D01*
X187387419Y-128240231D01*
X187115466Y-127833225D01*
X186769335Y-127487094D01*
X186362329Y-127215141D01*
X185910088Y-127027817D01*
X185429991Y-126932320D01*
X184940489Y-126932320D01*
X184460392Y-127027817D01*
X184008151Y-127215141D01*
X183601145Y-127487094D01*
X183255014Y-127833225D01*
X182983061Y-128240231D01*
X182795737Y-128692472D01*
X182700240Y-129172569D01*
X178447700Y-129172569D01*
X178447700Y-126920925D01*
X206911240Y-126920925D01*
X207037154Y-127210897D01*
X207369366Y-127376753D01*
X207727552Y-127474610D01*
X208097946Y-127500709D01*
X208466315Y-127454045D01*
X208818502Y-127336414D01*
X209053326Y-127210897D01*
X209179240Y-126920925D01*
X208045240Y-125786925D01*
X206911240Y-126920925D01*
X178447700Y-126920925D01*
X178447700Y-125660026D01*
X206151851Y-125660026D01*
X206198515Y-126028395D01*
X206316146Y-126380582D01*
X206441663Y-126615406D01*
X206731635Y-126741320D01*
X207865635Y-125607320D01*
X208224845Y-125607320D01*
X209358845Y-126741320D01*
X209648817Y-126615406D01*
X209814673Y-126283194D01*
X209912530Y-125925008D01*
X209938629Y-125554614D01*
X209891965Y-125186245D01*
X209774334Y-124834058D01*
X209648817Y-124599234D01*
X209358845Y-124473320D01*
X208224845Y-125607320D01*
X207865635Y-125607320D01*
X206731635Y-124473320D01*
X206441663Y-124599234D01*
X206275807Y-124931446D01*
X206177950Y-125289632D01*
X206151851Y-125660026D01*
X178447700Y-125660026D01*
X178447700Y-124293715D01*
X206911240Y-124293715D01*
X208045240Y-125427715D01*
X209179240Y-124293715D01*
X209053326Y-124003743D01*
X208721114Y-123837887D01*
X208362928Y-123740030D01*
X207992534Y-123713931D01*
X207624165Y-123760595D01*
X207271978Y-123878226D01*
X207037154Y-124003743D01*
X206911240Y-124293715D01*
X178447700Y-124293715D01*
X178447700Y-115261664D01*
X206160240Y-115261664D01*
X206160240Y-115632976D01*
X206232679Y-115997154D01*
X206374774Y-116340202D01*
X206581065Y-116648938D01*
X206843622Y-116911495D01*
X207152358Y-117117786D01*
X207495406Y-117259881D01*
X207859584Y-117332320D01*
X208230896Y-117332320D01*
X208595074Y-117259881D01*
X208938122Y-117117786D01*
X209246858Y-116911495D01*
X209509415Y-116648938D01*
X209715706Y-116340202D01*
X209857801Y-115997154D01*
X209930240Y-115632976D01*
X209930240Y-115261664D01*
X209857801Y-114897486D01*
X209715706Y-114554438D01*
X209509415Y-114245702D01*
X209246858Y-113983145D01*
X208938122Y-113776854D01*
X208595074Y-113634759D01*
X208230896Y-113562320D01*
X207859584Y-113562320D01*
X207495406Y-113634759D01*
X207152358Y-113776854D01*
X206843622Y-113983145D01*
X206581065Y-114245702D01*
X206374774Y-114554438D01*
X206232679Y-114897486D01*
X206160240Y-115261664D01*
X178447700Y-115261664D01*
X178447700Y-109887320D01*
X192957168Y-109887320D01*
X192957168Y-113387320D01*
X192969428Y-113511802D01*
X193005738Y-113631500D01*
X193064703Y-113741814D01*
X193144055Y-113838505D01*
X193240746Y-113917857D01*
X193351060Y-113976822D01*
X193470758Y-114013132D01*
X193595240Y-114025392D01*
X197095240Y-114025392D01*
X197219722Y-114013132D01*
X197339420Y-113976822D01*
X197449734Y-113917857D01*
X197546425Y-113838505D01*
X197625777Y-113741814D01*
X197684742Y-113631500D01*
X197721052Y-113511802D01*
X197733312Y-113387320D01*
X197733312Y-109887320D01*
X197721052Y-109762838D01*
X197684742Y-109643140D01*
X197625777Y-109532826D01*
X197546425Y-109436135D01*
X197449734Y-109356783D01*
X197339420Y-109297818D01*
X197219722Y-109261508D01*
X197095240Y-109249248D01*
X193595240Y-109249248D01*
X193470758Y-109261508D01*
X193351060Y-109297818D01*
X193240746Y-109356783D01*
X193144055Y-109436135D01*
X193064703Y-109532826D01*
X193005738Y-109643140D01*
X192969428Y-109762838D01*
X192957168Y-109887320D01*
X178447700Y-109887320D01*
X178447700Y-101176361D01*
X179901000Y-101176361D01*
X179901000Y-101596919D01*
X179983047Y-102009396D01*
X180143988Y-102397942D01*
X180377637Y-102747623D01*
X180675017Y-103045003D01*
X181024698Y-103278652D01*
X181413244Y-103439593D01*
X181825721Y-103521640D01*
X182246279Y-103521640D01*
X182658756Y-103439593D01*
X183047302Y-103278652D01*
X183396983Y-103045003D01*
X183694363Y-102747623D01*
X183928012Y-102397942D01*
X184088953Y-102009396D01*
X184171000Y-101596919D01*
X184171000Y-101176361D01*
X184088953Y-100763884D01*
X183928012Y-100375338D01*
X183694363Y-100025657D01*
X183555346Y-99886640D01*
X190647928Y-99886640D01*
X190647928Y-102886640D01*
X190660188Y-103011122D01*
X190696498Y-103130820D01*
X190755463Y-103241134D01*
X190834815Y-103337825D01*
X190931506Y-103417177D01*
X191041820Y-103476142D01*
X191161518Y-103512452D01*
X191286000Y-103524712D01*
X194286000Y-103524712D01*
X194410482Y-103512452D01*
X194530180Y-103476142D01*
X194640494Y-103417177D01*
X194737185Y-103337825D01*
X194816537Y-103241134D01*
X194875502Y-103130820D01*
X194911812Y-103011122D01*
X194924072Y-102886640D01*
X194924072Y-99886640D01*
X194911812Y-99762158D01*
X194875502Y-99642460D01*
X194816537Y-99532146D01*
X194737185Y-99435455D01*
X194640494Y-99356103D01*
X194530180Y-99297138D01*
X194410482Y-99260828D01*
X194286000Y-99248568D01*
X191286000Y-99248568D01*
X191161518Y-99260828D01*
X191041820Y-99297138D01*
X190931506Y-99356103D01*
X190834815Y-99435455D01*
X190755463Y-99532146D01*
X190696498Y-99642460D01*
X190660188Y-99762158D01*
X190647928Y-99886640D01*
X183555346Y-99886640D01*
X183396983Y-99728277D01*
X183047302Y-99494628D01*
X182658756Y-99333687D01*
X182246279Y-99251640D01*
X181825721Y-99251640D01*
X181413244Y-99333687D01*
X181024698Y-99494628D01*
X180675017Y-99728277D01*
X180377637Y-100025657D01*
X180143988Y-100375338D01*
X179983047Y-100763884D01*
X179901000Y-101176361D01*
X178447700Y-101176361D01*
X178447700Y-94340401D01*
X209575400Y-94340401D01*
X209575400Y-94635599D01*
X209632990Y-94925125D01*
X209745958Y-95197853D01*
X209909961Y-95443302D01*
X210118698Y-95652039D01*
X210277281Y-95758000D01*
X210118698Y-95863961D01*
X209909961Y-96072698D01*
X209745958Y-96318147D01*
X209632990Y-96590875D01*
X209575400Y-96880401D01*
X209575400Y-97175599D01*
X209632990Y-97465125D01*
X209745958Y-97737853D01*
X209909961Y-97983302D01*
X210118698Y-98192039D01*
X210277281Y-98298000D01*
X210118698Y-98403961D01*
X209909961Y-98612698D01*
X209745958Y-98858147D01*
X209632990Y-99130875D01*
X209575400Y-99420401D01*
X209575400Y-99715599D01*
X209632990Y-100005125D01*
X209745958Y-100277853D01*
X209909961Y-100523302D01*
X210118698Y-100732039D01*
X210277281Y-100838000D01*
X210118698Y-100943961D01*
X209909961Y-101152698D01*
X209745958Y-101398147D01*
X209632990Y-101670875D01*
X209575400Y-101960401D01*
X209575400Y-102255599D01*
X209632990Y-102545125D01*
X209745958Y-102817853D01*
X209909961Y-103063302D01*
X210118698Y-103272039D01*
X210364147Y-103436042D01*
X210636875Y-103549010D01*
X210926401Y-103606600D01*
X211221599Y-103606600D01*
X211511125Y-103549010D01*
X211783853Y-103436042D01*
X212029302Y-103272039D01*
X212238039Y-103063302D01*
X212345692Y-102902187D01*
X212507146Y-103118293D01*
X212725512Y-103314817D01*
X212978022Y-103464964D01*
X213254973Y-103562963D01*
X213487000Y-103442464D01*
X213487000Y-102235000D01*
X213741000Y-102235000D01*
X213741000Y-103442464D01*
X213973027Y-103562963D01*
X214249978Y-103464964D01*
X214502488Y-103314817D01*
X214720854Y-103118293D01*
X214896684Y-102882944D01*
X215023222Y-102617814D01*
X215068958Y-102467026D01*
X214947817Y-102235000D01*
X213741000Y-102235000D01*
X213487000Y-102235000D01*
X213467000Y-102235000D01*
X213467000Y-101981000D01*
X213487000Y-101981000D01*
X213487000Y-101961000D01*
X213741000Y-101961000D01*
X213741000Y-101981000D01*
X214947817Y-101981000D01*
X215068958Y-101748974D01*
X215023222Y-101598186D01*
X214896684Y-101333056D01*
X214720854Y-101097707D01*
X214502488Y-100901183D01*
X214403897Y-100842559D01*
X214569302Y-100732039D01*
X214778039Y-100523302D01*
X214942042Y-100277853D01*
X215055010Y-100005125D01*
X215112600Y-99715599D01*
X215112600Y-99420401D01*
X215055010Y-99130875D01*
X214942042Y-98858147D01*
X214778039Y-98612698D01*
X214569302Y-98403961D01*
X214410719Y-98298000D01*
X214569302Y-98192039D01*
X214778039Y-97983302D01*
X214942042Y-97737853D01*
X215055010Y-97465125D01*
X215112600Y-97175599D01*
X215112600Y-96880401D01*
X215055010Y-96590875D01*
X214942042Y-96318147D01*
X214778039Y-96072698D01*
X214663977Y-95958636D01*
X214721780Y-95941102D01*
X214832094Y-95882137D01*
X214928785Y-95802785D01*
X215008137Y-95706094D01*
X215067102Y-95595780D01*
X215103412Y-95476082D01*
X215115672Y-95351600D01*
X215115672Y-93624400D01*
X215103412Y-93499918D01*
X215067102Y-93380220D01*
X215008137Y-93269906D01*
X214928785Y-93173215D01*
X214832094Y-93093863D01*
X214721780Y-93034898D01*
X214602082Y-92998588D01*
X214477600Y-92986328D01*
X212750400Y-92986328D01*
X212625918Y-92998588D01*
X212506220Y-93034898D01*
X212395906Y-93093863D01*
X212299215Y-93173215D01*
X212219863Y-93269906D01*
X212160898Y-93380220D01*
X212143364Y-93438023D01*
X212029302Y-93323961D01*
X211783853Y-93159958D01*
X211511125Y-93046990D01*
X211221599Y-92989400D01*
X210926401Y-92989400D01*
X210636875Y-93046990D01*
X210364147Y-93159958D01*
X210118698Y-93323961D01*
X209909961Y-93532698D01*
X209745958Y-93778147D01*
X209632990Y-94050875D01*
X209575400Y-94340401D01*
X178447700Y-94340401D01*
X178447700Y-64378293D01*
X180723952Y-64378293D01*
X180879962Y-64693854D01*
X181254745Y-64884660D01*
X181659551Y-64998684D01*
X182078824Y-65031542D01*
X182496451Y-64981974D01*
X182896383Y-64851883D01*
X183192038Y-64693854D01*
X183348048Y-64378293D01*
X182036000Y-63066245D01*
X180723952Y-64378293D01*
X178447700Y-64378293D01*
X178447700Y-62929464D01*
X179891098Y-62929464D01*
X179940666Y-63347091D01*
X180070757Y-63747023D01*
X180228786Y-64042678D01*
X180544347Y-64198688D01*
X181856395Y-62886640D01*
X182215605Y-62886640D01*
X183527653Y-64198688D01*
X183843214Y-64042678D01*
X184034020Y-63667895D01*
X184148044Y-63263089D01*
X184180902Y-62843816D01*
X184131334Y-62426189D01*
X184001243Y-62026257D01*
X183843214Y-61730602D01*
X183527653Y-61574592D01*
X182215605Y-62886640D01*
X181856395Y-62886640D01*
X180544347Y-61574592D01*
X180228786Y-61730602D01*
X180037980Y-62105385D01*
X179923956Y-62510191D01*
X179891098Y-62929464D01*
X178447700Y-62929464D01*
X178447700Y-61394987D01*
X180723952Y-61394987D01*
X182036000Y-62707035D01*
X183348048Y-61394987D01*
X183192038Y-61079426D01*
X182817255Y-60888620D01*
X182412449Y-60774596D01*
X181993176Y-60741738D01*
X181575549Y-60791306D01*
X181175617Y-60921397D01*
X180879962Y-61079426D01*
X180723952Y-61394987D01*
X178447700Y-61394987D01*
X178447700Y-54385296D01*
X179328539Y-54385296D01*
X179328539Y-54834704D01*
X179416214Y-55275478D01*
X179588196Y-55690677D01*
X179837874Y-56064347D01*
X180155653Y-56382126D01*
X180529323Y-56631804D01*
X180944522Y-56803786D01*
X181385296Y-56891461D01*
X181834704Y-56891461D01*
X182275478Y-56803786D01*
X182690677Y-56631804D01*
X183064347Y-56382126D01*
X183382126Y-56064347D01*
X183631804Y-55690677D01*
X183803786Y-55275478D01*
X183891461Y-54834704D01*
X183891461Y-54385296D01*
X212348539Y-54385296D01*
X212348539Y-54834704D01*
X212436214Y-55275478D01*
X212608196Y-55690677D01*
X212857874Y-56064347D01*
X213175653Y-56382126D01*
X213549323Y-56631804D01*
X213964522Y-56803786D01*
X214405296Y-56891461D01*
X214854704Y-56891461D01*
X215295478Y-56803786D01*
X215710677Y-56631804D01*
X216084347Y-56382126D01*
X216402126Y-56064347D01*
X216651804Y-55690677D01*
X216823786Y-55275478D01*
X216911461Y-54834704D01*
X216911461Y-54385296D01*
X216823786Y-53944522D01*
X216651804Y-53529323D01*
X216402126Y-53155653D01*
X216084347Y-52837874D01*
X215710677Y-52588196D01*
X215295478Y-52416214D01*
X214854704Y-52328539D01*
X214405296Y-52328539D01*
X213964522Y-52416214D01*
X213549323Y-52588196D01*
X213175653Y-52837874D01*
X212857874Y-53155653D01*
X212608196Y-53529323D01*
X212436214Y-53944522D01*
X212348539Y-54385296D01*
X183891461Y-54385296D01*
X183803786Y-53944522D01*
X183631804Y-53529323D01*
X183382126Y-53155653D01*
X183064347Y-52837874D01*
X182690677Y-52588196D01*
X182275478Y-52416214D01*
X181834704Y-52328539D01*
X181385296Y-52328539D01*
X180944522Y-52416214D01*
X180529323Y-52588196D01*
X180155653Y-52837874D01*
X179837874Y-53155653D01*
X179588196Y-53529323D01*
X179416214Y-53944522D01*
X179328539Y-54385296D01*
X178447700Y-54385296D01*
X178447700Y-51447700D01*
X217792300Y-51447700D01*
X217792300Y-80606061D01*
M02*
