M48
INCH
T1C0.0150
T2C0.0197
T3C0.0248
T4C0.0331
T5C0.0394
T6C0.0472
T7C0.0819
T8C0.0866
T9C0.1260
%
G90
G05
T1
X5.52Y-2.91
X5.6Y-2.53
X5.68Y-2.26
X5.71Y-2.59
X5.76Y-2.86
X5.79Y-2.76
X5.79Y-3.85
X5.83Y-2.86
X5.85Y-2.92
X5.87Y-3.09
X5.9Y-2.44
X5.94Y-3.14
X5.97Y-4.02
X6.03Y-2.78
X6.09Y-2.82
X6.09Y-2.87
X6.09Y-2.92
X6.1Y-3.81
X6.14Y-2.7785
X6.14Y-2.97
X6.16Y-2.6
X6.37Y-2.6
X6.42Y-2.55
X6.43Y-2.89
X6.49Y-2.43
X6.53Y-2.96
X6.53Y-3.02
X6.56Y-3.22
X6.6Y-2.65
X6.6Y-2.73
X6.63Y-3.19
X6.66Y-2.96
X6.66Y-3.02
X6.67Y-2.75
X6.76Y-3.64
X6.81Y-3.21
X6.82Y-2.61
T3
X5.8939Y-3.31
X6.0861Y-3.31
T4
X6.78Y-3.93
X6.78Y-3.98
X6.78Y-4.03
T5
X5.31Y-3.44
X5.31Y-3.64
X5.41Y-3.44
X5.41Y-3.64
X5.71Y-3.44
X5.71Y-3.64
T6
X6.4332Y-4.032
X6.4332Y-4.432
T7
X5.9332Y-3.882
T8
X5.8332Y-4.582
T9
X5.24Y-2.09
X5.24Y-4.73
X5.96Y-3.56
X6.27Y-3.56
X6.6Y-3.56
X6.88Y-2.09
X6.88Y-4.73
T2
G00X6.7454Y-4.3383
M15
G01X6.7454Y-4.3817
M16
G05
G00X6.83Y-4.236
M15
G01X6.83Y-4.2635
M16
G05
G00X6.83Y-4.4565
M15
G01X6.83Y-4.484
M16
G05
T0
M30
