M48
; DRILL file {KiCad (5.1.5)-3} date 2020-07-28 7:49:02 AM
; FORMAT={-:-/ absolute / inch / decimal}
; #@! TF.CreationDate,2020-07-28T07:49:02-07:00
; #@! TF.GenerationSoftware,Kicad,Pcbnew,(5.1.5)-3
FMAT,2
INCH
T1C0.0200
T2C0.0394
T3C0.0472
T4C0.0591
T5C0.0787
T6C0.0819
T7C0.0866
T8C0.1260
%
G90
G05
T1
X5.62Y-3.72
X5.76Y-3.44
X5.76Y-3.76
X5.86Y-3.58
X5.86Y-4.34
X5.96Y-3.44
X5.96Y-4.4
X6.06Y-3.58
X6.06Y-4.48
X6.16Y-3.24
T2
X6.24Y-4.72
X6.24Y-4.92
X6.34Y-4.72
X6.34Y-4.92
X6.64Y-4.72
X6.64Y-4.92
X6.7Y-2.48
X6.7Y-2.58
X6.7Y-2.68
X6.7Y-2.78
X6.7Y-2.88
X6.7Y-2.98
T3
X6.3732Y-2.382
X6.3732Y-2.782
T4
X5.26Y-3.3168
X5.26Y-3.74
X6.7757Y-3.3168
X6.7757Y-3.6317
T5
X5.6Y-4.81
X6.0921Y-4.81
T6
X5.8732Y-2.232
T7
X5.4732Y-2.932
X5.7732Y-2.932
T8
X5.2Y-2.22
X6.84Y-4.86
X6.84Y-2.22
X5.2Y-4.86
T0
M30
