G04 #@! TF.GenerationSoftware,KiCad,Pcbnew,(5.1.5)-3*
G04 #@! TF.CreationDate,2020-05-07T10:18:35-07:00*
G04 #@! TF.ProjectId,Plug_Pass_arduino_shield,506c7567-5f50-4617-9373-5f6172647569,rev?*
G04 #@! TF.SameCoordinates,Original*
G04 #@! TF.FileFunction,Copper,L1,Top*
G04 #@! TF.FilePolarity,Positive*
%FSLAX46Y46*%
G04 Gerber Fmt 4.6, Leading zero omitted, Abs format (unit mm)*
G04 Created by KiCad (PCBNEW (5.1.5)-3) date 2020-05-07 10:18:35*
%MOMM*%
%LPD*%
G04 APERTURE LIST*
%ADD10O,1.700000X1.700000*%
%ADD11R,1.700000X1.700000*%
%ADD12C,2.000000*%
%ADD13R,2.000000X2.000000*%
%ADD14O,1.600000X1.600000*%
%ADD15R,1.600000X1.600000*%
%ADD16R,1.727200X1.727200*%
%ADD17O,1.727200X1.727200*%
%ADD18C,0.254000*%
%ADD19C,0.508000*%
G04 APERTURE END LIST*
D10*
X89530680Y-102389940D03*
X89530680Y-104929940D03*
X89530680Y-107469940D03*
X89530680Y-110009940D03*
X89530680Y-112549940D03*
X89530680Y-115089940D03*
X89530680Y-117629940D03*
D11*
X89530680Y-120169940D03*
D12*
X107236260Y-103695500D03*
X107236260Y-111315500D03*
X102156260Y-103695500D03*
X102156260Y-111315500D03*
X107236260Y-113855500D03*
D13*
X102156260Y-113855500D03*
D14*
X112392460Y-112395000D03*
X97152460Y-112395000D03*
X112392460Y-76835000D03*
X97152460Y-109855000D03*
X112392460Y-79375000D03*
X97152460Y-107315000D03*
X112392460Y-81915000D03*
X97152460Y-104775000D03*
X112392460Y-84455000D03*
X97152460Y-102235000D03*
X112392460Y-86995000D03*
X97152460Y-99695000D03*
X112392460Y-89535000D03*
X97152460Y-97155000D03*
X112392460Y-92075000D03*
X97152460Y-94615000D03*
X112392460Y-94615000D03*
X97152460Y-92075000D03*
X112392460Y-97155000D03*
X97152460Y-89535000D03*
X112392460Y-99695000D03*
X97152460Y-86995000D03*
X112392460Y-102235000D03*
X97152460Y-84455000D03*
X112392460Y-104775000D03*
X97152460Y-81915000D03*
X112392460Y-107315000D03*
X97152460Y-79375000D03*
X112392460Y-109855000D03*
D15*
X97152460Y-76835000D03*
D10*
X120488460Y-84963000D03*
X120488460Y-82423000D03*
X120488460Y-79883000D03*
X120488460Y-77343000D03*
X120488460Y-74803000D03*
D11*
X120488460Y-72263000D03*
D16*
X103418640Y-95023940D03*
D17*
X105958640Y-95023940D03*
X103418640Y-92483940D03*
X105958640Y-92483940D03*
X103418640Y-89943940D03*
X105958640Y-89943940D03*
X103418640Y-87403940D03*
X105958640Y-87403940D03*
D18*
X89530680Y-112549940D02*
X90732761Y-112549940D01*
X96021090Y-94615000D02*
X92753180Y-97882910D01*
X97152460Y-94615000D02*
X96021090Y-94615000D01*
X92753180Y-110479840D02*
X91389200Y-111843820D01*
X92753180Y-97882910D02*
X92753180Y-110479840D01*
X90732761Y-112549940D02*
X91389200Y-111843820D01*
X91389200Y-111843820D02*
X91622880Y-111659821D01*
X110408720Y-90091260D02*
X112392460Y-92075000D01*
X117286379Y-77343000D02*
X116435380Y-78193999D01*
X120488460Y-77343000D02*
X117286379Y-77343000D01*
X116435380Y-78193999D02*
X111825579Y-78193999D01*
X111825579Y-78193999D02*
X110408720Y-79610858D01*
X110408720Y-79610858D02*
X110408720Y-90091260D01*
D19*
X114427000Y-84455000D02*
X112392460Y-84455000D01*
X115534440Y-83466940D02*
X114853720Y-84249260D01*
X114853720Y-84249260D02*
X114427000Y-84455000D01*
X120488460Y-82423000D02*
X116459000Y-82423000D01*
X116459000Y-82423000D02*
X115534440Y-83466940D01*
X101762560Y-89943940D02*
X103418640Y-89943940D01*
X101762560Y-89943940D02*
X101762560Y-85316060D01*
X110243620Y-76835000D02*
X112392460Y-76835000D01*
X101762560Y-85316060D02*
X110243620Y-76835000D01*
X102156260Y-103695500D02*
X107236260Y-103695500D01*
X101762560Y-101887587D02*
X101762560Y-89943940D01*
X102156260Y-102281287D02*
X101762560Y-101887587D01*
X102156260Y-103695500D02*
X102156260Y-102281287D01*
X97152460Y-112395000D02*
X98836480Y-112395000D01*
X99915980Y-111315500D02*
X102156260Y-111315500D01*
X98836480Y-112395000D02*
X99915980Y-111315500D01*
D18*
G36*
X123812301Y-149212300D02*
G01*
X104741605Y-149212300D01*
X104780100Y-149204398D01*
X104841091Y-149192763D01*
X104850247Y-149189999D01*
X105323325Y-149043557D01*
X105380571Y-149019493D01*
X105438122Y-148996241D01*
X105446567Y-148991751D01*
X105882192Y-148756210D01*
X105933666Y-148721490D01*
X105985614Y-148687496D01*
X105993026Y-148681451D01*
X106374603Y-148365782D01*
X106418369Y-148321709D01*
X106462707Y-148278290D01*
X106468804Y-148270921D01*
X106781801Y-147887149D01*
X106816172Y-147835416D01*
X106851233Y-147784211D01*
X106855783Y-147775798D01*
X107088278Y-147338540D01*
X107111949Y-147281110D01*
X107136395Y-147224073D01*
X107139222Y-147214941D01*
X107139224Y-147214935D01*
X107282358Y-146740848D01*
X107294419Y-146679938D01*
X107307325Y-146619219D01*
X107308325Y-146609707D01*
X107347627Y-146208879D01*
X107355088Y-146184283D01*
X107365000Y-146083647D01*
X107365000Y-138396353D01*
X107364765Y-138393964D01*
X107364735Y-138389716D01*
X107361482Y-138358769D01*
X107361482Y-138327656D01*
X107360483Y-138318144D01*
X107347826Y-138205296D01*
X118368539Y-138205296D01*
X118368539Y-138654704D01*
X118456214Y-139095478D01*
X118628196Y-139510677D01*
X118877874Y-139884347D01*
X119195653Y-140202126D01*
X119569323Y-140451804D01*
X119984522Y-140623786D01*
X120425296Y-140711461D01*
X120874704Y-140711461D01*
X121315478Y-140623786D01*
X121730677Y-140451804D01*
X122104347Y-140202126D01*
X122422126Y-139884347D01*
X122671804Y-139510677D01*
X122843786Y-139095478D01*
X122931461Y-138654704D01*
X122931461Y-138205296D01*
X122843786Y-137764522D01*
X122671804Y-137349323D01*
X122422126Y-136975653D01*
X122104347Y-136657874D01*
X121730677Y-136408196D01*
X121315478Y-136236214D01*
X120874704Y-136148539D01*
X120425296Y-136148539D01*
X119984522Y-136236214D01*
X119569323Y-136408196D01*
X119195653Y-136657874D01*
X118877874Y-136975653D01*
X118628196Y-137349323D01*
X118456214Y-137764522D01*
X118368539Y-138205296D01*
X107347826Y-138205296D01*
X107305170Y-137825020D01*
X107292265Y-137764308D01*
X107280203Y-137703390D01*
X107277375Y-137694253D01*
X107127334Y-137221264D01*
X107102860Y-137164163D01*
X107079217Y-137106800D01*
X107074668Y-137098386D01*
X107074668Y-137098385D01*
X107074665Y-137098381D01*
X106835614Y-136663548D01*
X106800532Y-136612312D01*
X106766181Y-136560609D01*
X106760085Y-136553240D01*
X106441122Y-136173115D01*
X106396765Y-136129677D01*
X106353018Y-136085624D01*
X106345606Y-136079579D01*
X105958885Y-135768647D01*
X105906944Y-135734658D01*
X105855464Y-135699934D01*
X105847019Y-135695444D01*
X105407270Y-135465548D01*
X105349672Y-135442277D01*
X105292472Y-135418233D01*
X105283316Y-135415468D01*
X104807288Y-135275365D01*
X104746285Y-135263728D01*
X104685485Y-135251248D01*
X104675967Y-135250314D01*
X104181793Y-135205341D01*
X104119710Y-135205775D01*
X104057626Y-135205341D01*
X104048107Y-135206275D01*
X103554609Y-135258144D01*
X103493815Y-135270623D01*
X103432808Y-135282261D01*
X103423652Y-135285025D01*
X102949626Y-135431760D01*
X102892372Y-135455828D01*
X102834828Y-135479077D01*
X102826383Y-135483567D01*
X102389887Y-135719580D01*
X102338409Y-135754302D01*
X102286467Y-135788292D01*
X102279055Y-135794337D01*
X101896713Y-136110637D01*
X101852965Y-136154692D01*
X101808607Y-136198130D01*
X101802511Y-136205499D01*
X101488887Y-136590040D01*
X101454541Y-136641735D01*
X101419454Y-136692979D01*
X101414905Y-136701393D01*
X101181946Y-137139525D01*
X101158277Y-137196949D01*
X101133830Y-137253989D01*
X101131001Y-137263125D01*
X100987578Y-137738163D01*
X100975514Y-137799093D01*
X100962611Y-137859796D01*
X100961611Y-137869307D01*
X100913189Y-138363156D01*
X100913190Y-138496845D01*
X100915000Y-138505987D01*
X100915001Y-146083647D01*
X100915235Y-146086021D01*
X100915264Y-146090204D01*
X100918517Y-146121155D01*
X100918517Y-146152273D01*
X100919516Y-146161785D01*
X100974719Y-146653925D01*
X100987623Y-146714630D01*
X100999686Y-146775555D01*
X101002514Y-146784691D01*
X101152255Y-147256735D01*
X101176707Y-147313785D01*
X101200372Y-147371201D01*
X101204921Y-147379614D01*
X101443498Y-147813583D01*
X101478589Y-147864831D01*
X101512931Y-147916520D01*
X101519027Y-147923890D01*
X101837351Y-148303255D01*
X101881709Y-148346693D01*
X101925457Y-148390748D01*
X101932869Y-148396793D01*
X102318816Y-148707102D01*
X102370760Y-148741093D01*
X102422238Y-148775815D01*
X102430682Y-148780306D01*
X102869554Y-149009742D01*
X102927112Y-149032997D01*
X102984350Y-149057057D01*
X102993506Y-149059822D01*
X103468583Y-149199645D01*
X103529586Y-149211282D01*
X103534545Y-149212300D01*
X84467700Y-149212300D01*
X84467700Y-138205296D01*
X85348539Y-138205296D01*
X85348539Y-138654704D01*
X85436214Y-139095478D01*
X85608196Y-139510677D01*
X85857874Y-139884347D01*
X86175653Y-140202126D01*
X86549323Y-140451804D01*
X86964522Y-140623786D01*
X87405296Y-140711461D01*
X87854704Y-140711461D01*
X88295478Y-140623786D01*
X88710677Y-140451804D01*
X89084347Y-140202126D01*
X89402126Y-139884347D01*
X89651804Y-139510677D01*
X89823786Y-139095478D01*
X89911461Y-138654704D01*
X89911461Y-138205296D01*
X89823786Y-137764522D01*
X89651804Y-137349323D01*
X89402126Y-136975653D01*
X89084347Y-136657874D01*
X88710677Y-136408196D01*
X88295478Y-136236214D01*
X87854704Y-136148539D01*
X87405296Y-136148539D01*
X86964522Y-136236214D01*
X86549323Y-136408196D01*
X86175653Y-136657874D01*
X85857874Y-136975653D01*
X85608196Y-137349323D01*
X85436214Y-137764522D01*
X85348539Y-138205296D01*
X84467700Y-138205296D01*
X84467700Y-119319940D01*
X88042608Y-119319940D01*
X88042608Y-121019940D01*
X88054868Y-121144422D01*
X88091178Y-121264120D01*
X88150143Y-121374434D01*
X88229495Y-121471125D01*
X88326186Y-121550477D01*
X88436500Y-121609442D01*
X88556198Y-121645752D01*
X88680680Y-121658012D01*
X90380680Y-121658012D01*
X90505162Y-121645752D01*
X90624860Y-121609442D01*
X90735174Y-121550477D01*
X90831865Y-121471125D01*
X90911217Y-121374434D01*
X90970182Y-121264120D01*
X91006492Y-121144422D01*
X91018752Y-121019940D01*
X91018752Y-119319940D01*
X91006492Y-119195458D01*
X90970182Y-119075760D01*
X90911217Y-118965446D01*
X90831865Y-118868755D01*
X90735174Y-118789403D01*
X90624860Y-118730438D01*
X90552300Y-118708427D01*
X90684155Y-118576572D01*
X90846670Y-118333351D01*
X90958612Y-118063098D01*
X91015680Y-117776200D01*
X91015680Y-117483680D01*
X90958612Y-117196782D01*
X90846670Y-116926529D01*
X90684155Y-116683308D01*
X90477312Y-116476465D01*
X90302920Y-116359940D01*
X90477312Y-116243415D01*
X90684155Y-116036572D01*
X90846670Y-115793351D01*
X90958612Y-115523098D01*
X91015680Y-115236200D01*
X91015680Y-114943680D01*
X90958612Y-114656782D01*
X90846670Y-114386529D01*
X90684155Y-114143308D01*
X90477312Y-113936465D01*
X90302920Y-113819940D01*
X90477312Y-113703415D01*
X90684155Y-113496572D01*
X90809851Y-113308454D01*
X90821242Y-113306912D01*
X90882139Y-113300914D01*
X90895541Y-113296848D01*
X90909403Y-113294971D01*
X90967223Y-113275104D01*
X91025776Y-113257342D01*
X91038122Y-113250743D01*
X91051358Y-113246195D01*
X91104209Y-113215418D01*
X91158153Y-113186585D01*
X91168973Y-113177705D01*
X91181068Y-113170662D01*
X91226893Y-113130172D01*
X91274183Y-113091362D01*
X91306867Y-113051537D01*
X91907045Y-112405935D01*
X92123687Y-112235352D01*
X92204824Y-112157431D01*
X92290721Y-112034338D01*
X92301955Y-112008695D01*
X93265532Y-111045119D01*
X93294602Y-111021262D01*
X93389825Y-110905232D01*
X93460582Y-110772855D01*
X93504154Y-110629218D01*
X93515180Y-110517266D01*
X93515180Y-110517264D01*
X93518866Y-110479841D01*
X93515180Y-110442418D01*
X93515180Y-98198540D01*
X96110892Y-95602828D01*
X96237701Y-95729637D01*
X96470219Y-95885000D01*
X96237701Y-96040363D01*
X96037823Y-96240241D01*
X95880780Y-96475273D01*
X95772607Y-96736426D01*
X95717460Y-97013665D01*
X95717460Y-97296335D01*
X95772607Y-97573574D01*
X95880780Y-97834727D01*
X96037823Y-98069759D01*
X96237701Y-98269637D01*
X96470219Y-98425000D01*
X96237701Y-98580363D01*
X96037823Y-98780241D01*
X95880780Y-99015273D01*
X95772607Y-99276426D01*
X95717460Y-99553665D01*
X95717460Y-99836335D01*
X95772607Y-100113574D01*
X95880780Y-100374727D01*
X96037823Y-100609759D01*
X96237701Y-100809637D01*
X96470219Y-100965000D01*
X96237701Y-101120363D01*
X96037823Y-101320241D01*
X95880780Y-101555273D01*
X95772607Y-101816426D01*
X95717460Y-102093665D01*
X95717460Y-102376335D01*
X95772607Y-102653574D01*
X95880780Y-102914727D01*
X96037823Y-103149759D01*
X96237701Y-103349637D01*
X96470219Y-103505000D01*
X96237701Y-103660363D01*
X96037823Y-103860241D01*
X95880780Y-104095273D01*
X95772607Y-104356426D01*
X95717460Y-104633665D01*
X95717460Y-104916335D01*
X95772607Y-105193574D01*
X95880780Y-105454727D01*
X96037823Y-105689759D01*
X96237701Y-105889637D01*
X96470219Y-106045000D01*
X96237701Y-106200363D01*
X96037823Y-106400241D01*
X95880780Y-106635273D01*
X95772607Y-106896426D01*
X95717460Y-107173665D01*
X95717460Y-107456335D01*
X95772607Y-107733574D01*
X95880780Y-107994727D01*
X96037823Y-108229759D01*
X96237701Y-108429637D01*
X96470219Y-108585000D01*
X96237701Y-108740363D01*
X96037823Y-108940241D01*
X95880780Y-109175273D01*
X95772607Y-109436426D01*
X95717460Y-109713665D01*
X95717460Y-109996335D01*
X95772607Y-110273574D01*
X95880780Y-110534727D01*
X96037823Y-110769759D01*
X96237701Y-110969637D01*
X96470219Y-111125000D01*
X96237701Y-111280363D01*
X96037823Y-111480241D01*
X95880780Y-111715273D01*
X95772607Y-111976426D01*
X95717460Y-112253665D01*
X95717460Y-112536335D01*
X95772607Y-112813574D01*
X95880780Y-113074727D01*
X96037823Y-113309759D01*
X96237701Y-113509637D01*
X96389220Y-113610879D01*
X96180329Y-113750455D01*
X95967915Y-113962869D01*
X95801022Y-114212642D01*
X95686065Y-114490174D01*
X95627460Y-114784801D01*
X95627460Y-115085199D01*
X95686065Y-115379826D01*
X95801022Y-115657358D01*
X95967915Y-115907131D01*
X96180329Y-116119545D01*
X96430102Y-116286438D01*
X96707634Y-116401395D01*
X97002261Y-116460000D01*
X97302659Y-116460000D01*
X97597286Y-116401395D01*
X97874818Y-116286438D01*
X98124591Y-116119545D01*
X98337005Y-115907131D01*
X98503898Y-115657358D01*
X98618855Y-115379826D01*
X98677460Y-115085199D01*
X98677460Y-114784801D01*
X98618855Y-114490174D01*
X98503898Y-114212642D01*
X98337005Y-113962869D01*
X98124591Y-113750455D01*
X97915700Y-113610879D01*
X98067219Y-113509637D01*
X98267097Y-113309759D01*
X98284309Y-113284000D01*
X98792820Y-113284000D01*
X98836480Y-113288300D01*
X98880140Y-113284000D01*
X98880147Y-113284000D01*
X99010754Y-113271136D01*
X99178331Y-113220303D01*
X99332771Y-113137753D01*
X99468139Y-113026659D01*
X99495979Y-112992736D01*
X100284216Y-112204500D01*
X100783873Y-112204500D01*
X100847890Y-112300309D01*
X100801766Y-112324963D01*
X100705075Y-112404315D01*
X100625723Y-112501006D01*
X100566758Y-112611320D01*
X100530448Y-112731018D01*
X100518188Y-112855500D01*
X100518188Y-114855500D01*
X100530448Y-114979982D01*
X100566758Y-115099680D01*
X100625723Y-115209994D01*
X100705075Y-115306685D01*
X100801766Y-115386037D01*
X100912080Y-115445002D01*
X101031778Y-115481312D01*
X101156260Y-115493572D01*
X103156260Y-115493572D01*
X103280742Y-115481312D01*
X103400440Y-115445002D01*
X103510754Y-115386037D01*
X103607445Y-115306685D01*
X103686797Y-115209994D01*
X103745762Y-115099680D01*
X103782072Y-114979982D01*
X103794332Y-114855500D01*
X103794332Y-113694467D01*
X105601260Y-113694467D01*
X105601260Y-114016533D01*
X105664092Y-114332412D01*
X105787342Y-114629963D01*
X105966273Y-114897752D01*
X106194008Y-115125487D01*
X106461797Y-115304418D01*
X106759348Y-115427668D01*
X107075227Y-115490500D01*
X107397293Y-115490500D01*
X107713172Y-115427668D01*
X108010723Y-115304418D01*
X108278512Y-115125487D01*
X108506247Y-114897752D01*
X108685178Y-114629963D01*
X108808428Y-114332412D01*
X108871260Y-114016533D01*
X108871260Y-113694467D01*
X108808428Y-113378588D01*
X108685178Y-113081037D01*
X108506247Y-112813248D01*
X108278512Y-112585513D01*
X108169660Y-112512780D01*
X108192068Y-112450913D01*
X107236260Y-111495105D01*
X106280452Y-112450913D01*
X106302860Y-112512780D01*
X106194008Y-112585513D01*
X105966273Y-112813248D01*
X105787342Y-113081037D01*
X105664092Y-113378588D01*
X105601260Y-113694467D01*
X103794332Y-113694467D01*
X103794332Y-112855500D01*
X103782072Y-112731018D01*
X103745762Y-112611320D01*
X103686797Y-112501006D01*
X103607445Y-112404315D01*
X103510754Y-112324963D01*
X103464630Y-112300309D01*
X103605178Y-112089963D01*
X103728428Y-111792412D01*
X103791260Y-111476533D01*
X103791260Y-111378095D01*
X105594542Y-111378095D01*
X105638299Y-111697175D01*
X105743465Y-112001588D01*
X105836446Y-112175544D01*
X106100847Y-112271308D01*
X107056655Y-111315500D01*
X107415865Y-111315500D01*
X108371673Y-112271308D01*
X108636074Y-112175544D01*
X108776964Y-111885929D01*
X108858644Y-111574392D01*
X108877978Y-111252905D01*
X108834221Y-110933825D01*
X108729055Y-110629412D01*
X108636074Y-110455456D01*
X108371673Y-110359692D01*
X107415865Y-111315500D01*
X107056655Y-111315500D01*
X106100847Y-110359692D01*
X105836446Y-110455456D01*
X105695556Y-110745071D01*
X105613876Y-111056608D01*
X105594542Y-111378095D01*
X103791260Y-111378095D01*
X103791260Y-111154467D01*
X103728428Y-110838588D01*
X103605178Y-110541037D01*
X103426247Y-110273248D01*
X103333086Y-110180087D01*
X106280452Y-110180087D01*
X107236260Y-111135895D01*
X108192068Y-110180087D01*
X108096304Y-109915686D01*
X107806689Y-109774796D01*
X107495152Y-109693116D01*
X107173665Y-109673782D01*
X106854585Y-109717539D01*
X106550172Y-109822705D01*
X106376216Y-109915686D01*
X106280452Y-110180087D01*
X103333086Y-110180087D01*
X103198512Y-110045513D01*
X102930723Y-109866582D01*
X102633172Y-109743332D01*
X102317293Y-109680500D01*
X101995227Y-109680500D01*
X101679348Y-109743332D01*
X101381797Y-109866582D01*
X101114008Y-110045513D01*
X100886273Y-110273248D01*
X100783873Y-110426500D01*
X99959648Y-110426500D01*
X99915980Y-110422199D01*
X99741705Y-110439364D01*
X99729396Y-110443098D01*
X99574129Y-110490197D01*
X99419689Y-110572747D01*
X99284321Y-110683841D01*
X99256485Y-110717759D01*
X98468245Y-111506000D01*
X98284309Y-111506000D01*
X98267097Y-111480241D01*
X98067219Y-111280363D01*
X97834701Y-111125000D01*
X98067219Y-110969637D01*
X98267097Y-110769759D01*
X98424140Y-110534727D01*
X98532313Y-110273574D01*
X98587460Y-109996335D01*
X98587460Y-109713665D01*
X98532313Y-109436426D01*
X98424140Y-109175273D01*
X98267097Y-108940241D01*
X98067219Y-108740363D01*
X97834701Y-108585000D01*
X98067219Y-108429637D01*
X98267097Y-108229759D01*
X98424140Y-107994727D01*
X98532313Y-107733574D01*
X98587460Y-107456335D01*
X98587460Y-107173665D01*
X98532313Y-106896426D01*
X98424140Y-106635273D01*
X98267097Y-106400241D01*
X98067219Y-106200363D01*
X97834701Y-106045000D01*
X98067219Y-105889637D01*
X98267097Y-105689759D01*
X98424140Y-105454727D01*
X98532313Y-105193574D01*
X98587460Y-104916335D01*
X98587460Y-104633665D01*
X98532313Y-104356426D01*
X98424140Y-104095273D01*
X98267097Y-103860241D01*
X98067219Y-103660363D01*
X97878802Y-103534467D01*
X100521260Y-103534467D01*
X100521260Y-103856533D01*
X100584092Y-104172412D01*
X100707342Y-104469963D01*
X100886273Y-104737752D01*
X101114008Y-104965487D01*
X101381797Y-105144418D01*
X101679348Y-105267668D01*
X101995227Y-105330500D01*
X102317293Y-105330500D01*
X102633172Y-105267668D01*
X102930723Y-105144418D01*
X103198512Y-104965487D01*
X103426247Y-104737752D01*
X103528647Y-104584500D01*
X105863873Y-104584500D01*
X105966273Y-104737752D01*
X106194008Y-104965487D01*
X106461797Y-105144418D01*
X106759348Y-105267668D01*
X107075227Y-105330500D01*
X107397293Y-105330500D01*
X107713172Y-105267668D01*
X108010723Y-105144418D01*
X108278512Y-104965487D01*
X108506247Y-104737752D01*
X108685178Y-104469963D01*
X108808428Y-104172412D01*
X108871260Y-103856533D01*
X108871260Y-103534467D01*
X108808428Y-103218588D01*
X108685178Y-102921037D01*
X108506247Y-102653248D01*
X108278512Y-102425513D01*
X108010723Y-102246582D01*
X107713172Y-102123332D01*
X107397293Y-102060500D01*
X107075227Y-102060500D01*
X106759348Y-102123332D01*
X106461797Y-102246582D01*
X106194008Y-102425513D01*
X105966273Y-102653248D01*
X105863873Y-102806500D01*
X103528647Y-102806500D01*
X103426247Y-102653248D01*
X103198512Y-102425513D01*
X103045429Y-102323226D01*
X103049560Y-102281287D01*
X103045260Y-102237627D01*
X103045260Y-102237620D01*
X103032396Y-102107013D01*
X102981563Y-101939436D01*
X102899013Y-101784996D01*
X102787919Y-101649628D01*
X102753996Y-101621788D01*
X102651560Y-101519352D01*
X102651560Y-96525612D01*
X104282240Y-96525612D01*
X104406722Y-96513352D01*
X104526420Y-96477042D01*
X104636734Y-96418077D01*
X104733425Y-96338725D01*
X104812777Y-96242034D01*
X104871742Y-96131720D01*
X104889276Y-96073917D01*
X105003338Y-96187979D01*
X105248787Y-96351982D01*
X105521515Y-96464950D01*
X105811041Y-96522540D01*
X106106239Y-96522540D01*
X106395765Y-96464950D01*
X106668493Y-96351982D01*
X106913942Y-96187979D01*
X107122679Y-95979242D01*
X107286682Y-95733793D01*
X107399650Y-95461065D01*
X107457240Y-95171539D01*
X107457240Y-94876341D01*
X107399650Y-94586815D01*
X107286682Y-94314087D01*
X107122679Y-94068638D01*
X106913942Y-93859901D01*
X106755359Y-93753940D01*
X106913942Y-93647979D01*
X107122679Y-93439242D01*
X107286682Y-93193793D01*
X107399650Y-92921065D01*
X107457240Y-92631539D01*
X107457240Y-92336341D01*
X107399650Y-92046815D01*
X107286682Y-91774087D01*
X107122679Y-91528638D01*
X106913942Y-91319901D01*
X106755359Y-91213940D01*
X106913942Y-91107979D01*
X107122679Y-90899242D01*
X107286682Y-90653793D01*
X107399650Y-90381065D01*
X107457240Y-90091539D01*
X107457240Y-89796341D01*
X107399650Y-89506815D01*
X107286682Y-89234087D01*
X107122679Y-88988638D01*
X106913942Y-88779901D01*
X106755359Y-88673940D01*
X106913942Y-88567979D01*
X107122679Y-88359242D01*
X107286682Y-88113793D01*
X107399650Y-87841065D01*
X107457240Y-87551539D01*
X107457240Y-87256341D01*
X107399650Y-86966815D01*
X107286682Y-86694087D01*
X107122679Y-86448638D01*
X106913942Y-86239901D01*
X106668493Y-86075898D01*
X106395765Y-85962930D01*
X106106239Y-85905340D01*
X105811041Y-85905340D01*
X105521515Y-85962930D01*
X105248787Y-86075898D01*
X105003338Y-86239901D01*
X104794601Y-86448638D01*
X104686948Y-86609753D01*
X104525494Y-86393647D01*
X104307128Y-86197123D01*
X104054618Y-86046976D01*
X103777667Y-85948977D01*
X103545640Y-86069476D01*
X103545640Y-87276940D01*
X103565640Y-87276940D01*
X103565640Y-87530940D01*
X103545640Y-87530940D01*
X103545640Y-87550940D01*
X103291640Y-87550940D01*
X103291640Y-87530940D01*
X103271640Y-87530940D01*
X103271640Y-87276940D01*
X103291640Y-87276940D01*
X103291640Y-86069476D01*
X103059613Y-85948977D01*
X102782662Y-86046976D01*
X102651560Y-86124932D01*
X102651560Y-85684295D01*
X110611856Y-77724000D01*
X111217947Y-77724000D01*
X109896374Y-79045574D01*
X109867298Y-79069436D01*
X109811703Y-79137180D01*
X109772075Y-79185466D01*
X109738650Y-79248000D01*
X109701318Y-79317844D01*
X109657746Y-79461481D01*
X109652344Y-79516335D01*
X109643034Y-79610858D01*
X109646720Y-79648281D01*
X109646721Y-90053827D01*
X109643034Y-90091260D01*
X109657747Y-90240638D01*
X109701319Y-90384275D01*
X109772075Y-90516652D01*
X109820452Y-90575599D01*
X109867299Y-90632682D01*
X109896369Y-90656539D01*
X110993303Y-91753473D01*
X110957460Y-91933665D01*
X110957460Y-92216335D01*
X111012607Y-92493574D01*
X111120780Y-92754727D01*
X111277823Y-92989759D01*
X111477701Y-93189637D01*
X111710219Y-93345000D01*
X111477701Y-93500363D01*
X111277823Y-93700241D01*
X111120780Y-93935273D01*
X111012607Y-94196426D01*
X110957460Y-94473665D01*
X110957460Y-94756335D01*
X111012607Y-95033574D01*
X111120780Y-95294727D01*
X111277823Y-95529759D01*
X111477701Y-95729637D01*
X111710219Y-95885000D01*
X111477701Y-96040363D01*
X111277823Y-96240241D01*
X111120780Y-96475273D01*
X111012607Y-96736426D01*
X110957460Y-97013665D01*
X110957460Y-97296335D01*
X111012607Y-97573574D01*
X111120780Y-97834727D01*
X111277823Y-98069759D01*
X111477701Y-98269637D01*
X111710219Y-98425000D01*
X111477701Y-98580363D01*
X111277823Y-98780241D01*
X111120780Y-99015273D01*
X111012607Y-99276426D01*
X110957460Y-99553665D01*
X110957460Y-99836335D01*
X111012607Y-100113574D01*
X111120780Y-100374727D01*
X111277823Y-100609759D01*
X111477701Y-100809637D01*
X111710219Y-100965000D01*
X111477701Y-101120363D01*
X111277823Y-101320241D01*
X111120780Y-101555273D01*
X111012607Y-101816426D01*
X110957460Y-102093665D01*
X110957460Y-102376335D01*
X111012607Y-102653574D01*
X111120780Y-102914727D01*
X111277823Y-103149759D01*
X111477701Y-103349637D01*
X111710219Y-103505000D01*
X111477701Y-103660363D01*
X111277823Y-103860241D01*
X111120780Y-104095273D01*
X111012607Y-104356426D01*
X110957460Y-104633665D01*
X110957460Y-104916335D01*
X111012607Y-105193574D01*
X111120780Y-105454727D01*
X111277823Y-105689759D01*
X111477701Y-105889637D01*
X111710219Y-106045000D01*
X111477701Y-106200363D01*
X111277823Y-106400241D01*
X111120780Y-106635273D01*
X111012607Y-106896426D01*
X110957460Y-107173665D01*
X110957460Y-107456335D01*
X111012607Y-107733574D01*
X111120780Y-107994727D01*
X111277823Y-108229759D01*
X111477701Y-108429637D01*
X111710219Y-108585000D01*
X111477701Y-108740363D01*
X111277823Y-108940241D01*
X111120780Y-109175273D01*
X111012607Y-109436426D01*
X110957460Y-109713665D01*
X110957460Y-109996335D01*
X111012607Y-110273574D01*
X111120780Y-110534727D01*
X111277823Y-110769759D01*
X111477701Y-110969637D01*
X111710219Y-111125000D01*
X111477701Y-111280363D01*
X111277823Y-111480241D01*
X111120780Y-111715273D01*
X111012607Y-111976426D01*
X110957460Y-112253665D01*
X110957460Y-112536335D01*
X111012607Y-112813574D01*
X111120780Y-113074727D01*
X111277823Y-113309759D01*
X111477701Y-113509637D01*
X111629220Y-113610879D01*
X111420329Y-113750455D01*
X111207915Y-113962869D01*
X111041022Y-114212642D01*
X110926065Y-114490174D01*
X110867460Y-114784801D01*
X110867460Y-115085199D01*
X110926065Y-115379826D01*
X111041022Y-115657358D01*
X111207915Y-115907131D01*
X111420329Y-116119545D01*
X111670102Y-116286438D01*
X111947634Y-116401395D01*
X112242261Y-116460000D01*
X112542659Y-116460000D01*
X112837286Y-116401395D01*
X113114818Y-116286438D01*
X113364591Y-116119545D01*
X113577005Y-115907131D01*
X113743898Y-115657358D01*
X113858855Y-115379826D01*
X113917460Y-115085199D01*
X113917460Y-114784801D01*
X113858855Y-114490174D01*
X113743898Y-114212642D01*
X113577005Y-113962869D01*
X113364591Y-113750455D01*
X113155700Y-113610879D01*
X113307219Y-113509637D01*
X113507097Y-113309759D01*
X113664140Y-113074727D01*
X113772313Y-112813574D01*
X113827460Y-112536335D01*
X113827460Y-112253665D01*
X113772313Y-111976426D01*
X113664140Y-111715273D01*
X113507097Y-111480241D01*
X113307219Y-111280363D01*
X113074701Y-111125000D01*
X113307219Y-110969637D01*
X113507097Y-110769759D01*
X113664140Y-110534727D01*
X113772313Y-110273574D01*
X113827460Y-109996335D01*
X113827460Y-109713665D01*
X113772313Y-109436426D01*
X113664140Y-109175273D01*
X113507097Y-108940241D01*
X113307219Y-108740363D01*
X113074701Y-108585000D01*
X113307219Y-108429637D01*
X113507097Y-108229759D01*
X113664140Y-107994727D01*
X113772313Y-107733574D01*
X113827460Y-107456335D01*
X113827460Y-107173665D01*
X113772313Y-106896426D01*
X113664140Y-106635273D01*
X113507097Y-106400241D01*
X113307219Y-106200363D01*
X113074701Y-106045000D01*
X113307219Y-105889637D01*
X113507097Y-105689759D01*
X113664140Y-105454727D01*
X113772313Y-105193574D01*
X113827460Y-104916335D01*
X113827460Y-104633665D01*
X113772313Y-104356426D01*
X113664140Y-104095273D01*
X113507097Y-103860241D01*
X113307219Y-103660363D01*
X113074701Y-103505000D01*
X113307219Y-103349637D01*
X113507097Y-103149759D01*
X113664140Y-102914727D01*
X113772313Y-102653574D01*
X113827460Y-102376335D01*
X113827460Y-102093665D01*
X113772313Y-101816426D01*
X113664140Y-101555273D01*
X113507097Y-101320241D01*
X113307219Y-101120363D01*
X113074701Y-100965000D01*
X113307219Y-100809637D01*
X113507097Y-100609759D01*
X113664140Y-100374727D01*
X113772313Y-100113574D01*
X113827460Y-99836335D01*
X113827460Y-99553665D01*
X113772313Y-99276426D01*
X113664140Y-99015273D01*
X113507097Y-98780241D01*
X113307219Y-98580363D01*
X113074701Y-98425000D01*
X113307219Y-98269637D01*
X113507097Y-98069759D01*
X113664140Y-97834727D01*
X113772313Y-97573574D01*
X113827460Y-97296335D01*
X113827460Y-97013665D01*
X113772313Y-96736426D01*
X113664140Y-96475273D01*
X113507097Y-96240241D01*
X113307219Y-96040363D01*
X113074701Y-95885000D01*
X113307219Y-95729637D01*
X113507097Y-95529759D01*
X113664140Y-95294727D01*
X113772313Y-95033574D01*
X113827460Y-94756335D01*
X113827460Y-94473665D01*
X113772313Y-94196426D01*
X113664140Y-93935273D01*
X113507097Y-93700241D01*
X113307219Y-93500363D01*
X113074701Y-93345000D01*
X113307219Y-93189637D01*
X113507097Y-92989759D01*
X113664140Y-92754727D01*
X113772313Y-92493574D01*
X113827460Y-92216335D01*
X113827460Y-91933665D01*
X113772313Y-91656426D01*
X113664140Y-91395273D01*
X113507097Y-91160241D01*
X113307219Y-90960363D01*
X113074701Y-90805000D01*
X113307219Y-90649637D01*
X113507097Y-90449759D01*
X113664140Y-90214727D01*
X113772313Y-89953574D01*
X113827460Y-89676335D01*
X113827460Y-89393665D01*
X113772313Y-89116426D01*
X113664140Y-88855273D01*
X113507097Y-88620241D01*
X113307219Y-88420363D01*
X113074701Y-88265000D01*
X113307219Y-88109637D01*
X113507097Y-87909759D01*
X113664140Y-87674727D01*
X113772313Y-87413574D01*
X113827460Y-87136335D01*
X113827460Y-86853665D01*
X113772313Y-86576426D01*
X113664140Y-86315273D01*
X113507097Y-86080241D01*
X113307219Y-85880363D01*
X113074701Y-85725000D01*
X113307219Y-85569637D01*
X113507097Y-85369759D01*
X113524309Y-85344000D01*
X114408522Y-85344000D01*
X114477499Y-85346872D01*
X114539155Y-85337254D01*
X114601274Y-85331136D01*
X114625512Y-85323784D01*
X114650472Y-85319890D01*
X119046984Y-85319890D01*
X119091635Y-85467099D01*
X119216819Y-85729920D01*
X119390872Y-85963269D01*
X119607105Y-86158178D01*
X119857208Y-86307157D01*
X120131569Y-86404481D01*
X120361460Y-86283814D01*
X120361460Y-85090000D01*
X120615460Y-85090000D01*
X120615460Y-86283814D01*
X120845351Y-86404481D01*
X121119712Y-86307157D01*
X121369815Y-86158178D01*
X121586048Y-85963269D01*
X121760101Y-85729920D01*
X121885285Y-85467099D01*
X121929936Y-85319890D01*
X121808615Y-85090000D01*
X120615460Y-85090000D01*
X120361460Y-85090000D01*
X119168305Y-85090000D01*
X119046984Y-85319890D01*
X114650472Y-85319890D01*
X114650524Y-85319882D01*
X114709105Y-85298426D01*
X114768851Y-85280303D01*
X114829767Y-85247743D01*
X115205603Y-85066536D01*
X115251925Y-85048896D01*
X115321294Y-85005385D01*
X115391205Y-84962768D01*
X115395419Y-84958891D01*
X115400275Y-84955845D01*
X115459801Y-84899657D01*
X115520077Y-84844201D01*
X115549311Y-84804161D01*
X116202556Y-84053418D01*
X116859189Y-83312000D01*
X119296477Y-83312000D01*
X119334985Y-83369632D01*
X119541828Y-83576475D01*
X119723994Y-83698195D01*
X119607105Y-83767822D01*
X119390872Y-83962731D01*
X119216819Y-84196080D01*
X119091635Y-84458901D01*
X119046984Y-84606110D01*
X119168305Y-84836000D01*
X120361460Y-84836000D01*
X120361460Y-84816000D01*
X120615460Y-84816000D01*
X120615460Y-84836000D01*
X121808615Y-84836000D01*
X121929936Y-84606110D01*
X121885285Y-84458901D01*
X121760101Y-84196080D01*
X121586048Y-83962731D01*
X121369815Y-83767822D01*
X121252926Y-83698195D01*
X121435092Y-83576475D01*
X121641935Y-83369632D01*
X121804450Y-83126411D01*
X121916392Y-82856158D01*
X121973460Y-82569260D01*
X121973460Y-82276740D01*
X121916392Y-81989842D01*
X121804450Y-81719589D01*
X121641935Y-81476368D01*
X121435092Y-81269525D01*
X121260700Y-81153000D01*
X121435092Y-81036475D01*
X121641935Y-80829632D01*
X121804450Y-80586411D01*
X121916392Y-80316158D01*
X121973460Y-80029260D01*
X121973460Y-79736740D01*
X121916392Y-79449842D01*
X121804450Y-79179589D01*
X121641935Y-78936368D01*
X121435092Y-78729525D01*
X121260700Y-78613000D01*
X121435092Y-78496475D01*
X121641935Y-78289632D01*
X121804450Y-78046411D01*
X121916392Y-77776158D01*
X121973460Y-77489260D01*
X121973460Y-77196740D01*
X121916392Y-76909842D01*
X121804450Y-76639589D01*
X121641935Y-76396368D01*
X121435092Y-76189525D01*
X121260700Y-76073000D01*
X121435092Y-75956475D01*
X121641935Y-75749632D01*
X121804450Y-75506411D01*
X121916392Y-75236158D01*
X121973460Y-74949260D01*
X121973460Y-74656740D01*
X121916392Y-74369842D01*
X121804450Y-74099589D01*
X121641935Y-73856368D01*
X121510080Y-73724513D01*
X121582640Y-73702502D01*
X121692954Y-73643537D01*
X121789645Y-73564185D01*
X121868997Y-73467494D01*
X121927962Y-73357180D01*
X121964272Y-73237482D01*
X121976532Y-73113000D01*
X121976532Y-71413000D01*
X121964272Y-71288518D01*
X121927962Y-71168820D01*
X121868997Y-71058506D01*
X121789645Y-70961815D01*
X121692954Y-70882463D01*
X121582640Y-70823498D01*
X121462942Y-70787188D01*
X121338460Y-70774928D01*
X119638460Y-70774928D01*
X119513978Y-70787188D01*
X119394280Y-70823498D01*
X119283966Y-70882463D01*
X119187275Y-70961815D01*
X119107923Y-71058506D01*
X119048958Y-71168820D01*
X119012648Y-71288518D01*
X119000388Y-71413000D01*
X119000388Y-73113000D01*
X119012648Y-73237482D01*
X119048958Y-73357180D01*
X119107923Y-73467494D01*
X119187275Y-73564185D01*
X119283966Y-73643537D01*
X119394280Y-73702502D01*
X119466840Y-73724513D01*
X119334985Y-73856368D01*
X119172470Y-74099589D01*
X119060528Y-74369842D01*
X119003460Y-74656740D01*
X119003460Y-74949260D01*
X119060528Y-75236158D01*
X119172470Y-75506411D01*
X119334985Y-75749632D01*
X119541828Y-75956475D01*
X119716220Y-76073000D01*
X119541828Y-76189525D01*
X119334985Y-76396368D01*
X119211618Y-76581000D01*
X117323801Y-76581000D01*
X117286378Y-76577314D01*
X117248955Y-76581000D01*
X117248953Y-76581000D01*
X117137001Y-76592026D01*
X116993364Y-76635598D01*
X116860987Y-76706355D01*
X116744957Y-76801578D01*
X116721099Y-76830649D01*
X116119750Y-77431999D01*
X113698407Y-77431999D01*
X113772313Y-77253574D01*
X113827460Y-76976335D01*
X113827460Y-76693665D01*
X113772313Y-76416426D01*
X113664140Y-76155273D01*
X113507097Y-75920241D01*
X113307219Y-75720363D01*
X113155700Y-75619121D01*
X113364591Y-75479545D01*
X113577005Y-75267131D01*
X113743898Y-75017358D01*
X113858855Y-74739826D01*
X113917460Y-74445199D01*
X113917460Y-74144801D01*
X113858855Y-73850174D01*
X113743898Y-73572642D01*
X113577005Y-73322869D01*
X113364591Y-73110455D01*
X113114818Y-72943562D01*
X112837286Y-72828605D01*
X112542659Y-72770000D01*
X112242261Y-72770000D01*
X111947634Y-72828605D01*
X111670102Y-72943562D01*
X111420329Y-73110455D01*
X111207915Y-73322869D01*
X111041022Y-73572642D01*
X110926065Y-73850174D01*
X110867460Y-74144801D01*
X110867460Y-74445199D01*
X110926065Y-74739826D01*
X111041022Y-75017358D01*
X111207915Y-75267131D01*
X111420329Y-75479545D01*
X111629220Y-75619121D01*
X111477701Y-75720363D01*
X111277823Y-75920241D01*
X111260611Y-75946000D01*
X110287279Y-75946000D01*
X110243619Y-75941700D01*
X110199959Y-75946000D01*
X110199953Y-75946000D01*
X110102544Y-75955594D01*
X110069344Y-75958864D01*
X109967678Y-75989704D01*
X109901769Y-76009697D01*
X109747329Y-76092247D01*
X109611961Y-76203341D01*
X109584126Y-76237258D01*
X101164819Y-84656566D01*
X101130902Y-84684401D01*
X101103067Y-84718318D01*
X101103065Y-84718320D01*
X101019808Y-84819769D01*
X100937258Y-84974208D01*
X100886424Y-85141786D01*
X100869260Y-85316060D01*
X100873561Y-85359730D01*
X100873560Y-89900272D01*
X100869259Y-89943940D01*
X100873561Y-89987618D01*
X100873560Y-101843927D01*
X100869260Y-101887587D01*
X100873560Y-101931247D01*
X100873560Y-101931253D01*
X100886424Y-102061860D01*
X100937257Y-102229437D01*
X101019807Y-102383877D01*
X101081036Y-102458485D01*
X100886273Y-102653248D01*
X100707342Y-102921037D01*
X100584092Y-103218588D01*
X100521260Y-103534467D01*
X97878802Y-103534467D01*
X97834701Y-103505000D01*
X98067219Y-103349637D01*
X98267097Y-103149759D01*
X98424140Y-102914727D01*
X98532313Y-102653574D01*
X98587460Y-102376335D01*
X98587460Y-102093665D01*
X98532313Y-101816426D01*
X98424140Y-101555273D01*
X98267097Y-101320241D01*
X98067219Y-101120363D01*
X97834701Y-100965000D01*
X98067219Y-100809637D01*
X98267097Y-100609759D01*
X98424140Y-100374727D01*
X98532313Y-100113574D01*
X98587460Y-99836335D01*
X98587460Y-99553665D01*
X98532313Y-99276426D01*
X98424140Y-99015273D01*
X98267097Y-98780241D01*
X98067219Y-98580363D01*
X97834701Y-98425000D01*
X98067219Y-98269637D01*
X98267097Y-98069759D01*
X98424140Y-97834727D01*
X98532313Y-97573574D01*
X98587460Y-97296335D01*
X98587460Y-97013665D01*
X98532313Y-96736426D01*
X98424140Y-96475273D01*
X98267097Y-96240241D01*
X98067219Y-96040363D01*
X97834701Y-95885000D01*
X98067219Y-95729637D01*
X98267097Y-95529759D01*
X98424140Y-95294727D01*
X98532313Y-95033574D01*
X98587460Y-94756335D01*
X98587460Y-94473665D01*
X98532313Y-94196426D01*
X98424140Y-93935273D01*
X98267097Y-93700241D01*
X98067219Y-93500363D01*
X97834701Y-93345000D01*
X98067219Y-93189637D01*
X98267097Y-92989759D01*
X98424140Y-92754727D01*
X98532313Y-92493574D01*
X98587460Y-92216335D01*
X98587460Y-91933665D01*
X98532313Y-91656426D01*
X98424140Y-91395273D01*
X98267097Y-91160241D01*
X98067219Y-90960363D01*
X97834701Y-90805000D01*
X98067219Y-90649637D01*
X98267097Y-90449759D01*
X98424140Y-90214727D01*
X98532313Y-89953574D01*
X98587460Y-89676335D01*
X98587460Y-89393665D01*
X98532313Y-89116426D01*
X98424140Y-88855273D01*
X98267097Y-88620241D01*
X98067219Y-88420363D01*
X97834701Y-88265000D01*
X98067219Y-88109637D01*
X98267097Y-87909759D01*
X98424140Y-87674727D01*
X98532313Y-87413574D01*
X98587460Y-87136335D01*
X98587460Y-86853665D01*
X98532313Y-86576426D01*
X98424140Y-86315273D01*
X98267097Y-86080241D01*
X98067219Y-85880363D01*
X97832187Y-85723320D01*
X97821595Y-85718933D01*
X98007591Y-85607385D01*
X98215979Y-85418414D01*
X98383497Y-85192420D01*
X98503706Y-84938087D01*
X98544364Y-84804039D01*
X98422375Y-84582000D01*
X97279460Y-84582000D01*
X97279460Y-84602000D01*
X97025460Y-84602000D01*
X97025460Y-84582000D01*
X95882545Y-84582000D01*
X95760556Y-84804039D01*
X95801214Y-84938087D01*
X95921423Y-85192420D01*
X96088941Y-85418414D01*
X96297329Y-85607385D01*
X96483325Y-85718933D01*
X96472733Y-85723320D01*
X96237701Y-85880363D01*
X96037823Y-86080241D01*
X95880780Y-86315273D01*
X95772607Y-86576426D01*
X95717460Y-86853665D01*
X95717460Y-87136335D01*
X95772607Y-87413574D01*
X95880780Y-87674727D01*
X96037823Y-87909759D01*
X96237701Y-88109637D01*
X96470219Y-88265000D01*
X96237701Y-88420363D01*
X96037823Y-88620241D01*
X95880780Y-88855273D01*
X95772607Y-89116426D01*
X95717460Y-89393665D01*
X95717460Y-89676335D01*
X95772607Y-89953574D01*
X95880780Y-90214727D01*
X96037823Y-90449759D01*
X96237701Y-90649637D01*
X96470219Y-90805000D01*
X96237701Y-90960363D01*
X96037823Y-91160241D01*
X95880780Y-91395273D01*
X95772607Y-91656426D01*
X95717460Y-91933665D01*
X95717460Y-92216335D01*
X95772607Y-92493574D01*
X95880780Y-92754727D01*
X96037823Y-92989759D01*
X96237701Y-93189637D01*
X96470219Y-93345000D01*
X96237701Y-93500363D01*
X96037823Y-93700241D01*
X95932378Y-93858051D01*
X95871712Y-93864026D01*
X95728075Y-93907598D01*
X95712057Y-93916160D01*
X95595697Y-93978355D01*
X95553309Y-94013143D01*
X95479668Y-94073578D01*
X95455806Y-94102654D01*
X92240834Y-97317626D01*
X92211758Y-97341488D01*
X92156163Y-97409232D01*
X92116535Y-97457518D01*
X92078715Y-97528275D01*
X92045778Y-97589896D01*
X92002206Y-97733533D01*
X91992240Y-97834727D01*
X91987494Y-97882910D01*
X91991180Y-97920333D01*
X91991181Y-110164208D01*
X90867019Y-111288371D01*
X90856591Y-111297585D01*
X90845791Y-111309202D01*
X90807256Y-111346210D01*
X90794820Y-111364031D01*
X90626229Y-111545382D01*
X90477312Y-111396465D01*
X90302920Y-111279940D01*
X90477312Y-111163415D01*
X90684155Y-110956572D01*
X90846670Y-110713351D01*
X90958612Y-110443098D01*
X91015680Y-110156200D01*
X91015680Y-109863680D01*
X90958612Y-109576782D01*
X90846670Y-109306529D01*
X90684155Y-109063308D01*
X90477312Y-108856465D01*
X90295146Y-108734745D01*
X90412035Y-108665118D01*
X90628268Y-108470209D01*
X90802321Y-108236860D01*
X90927505Y-107974039D01*
X90972156Y-107826830D01*
X90850835Y-107596940D01*
X89657680Y-107596940D01*
X89657680Y-107616940D01*
X89403680Y-107616940D01*
X89403680Y-107596940D01*
X88210525Y-107596940D01*
X88089204Y-107826830D01*
X88133855Y-107974039D01*
X88259039Y-108236860D01*
X88433092Y-108470209D01*
X88649325Y-108665118D01*
X88766214Y-108734745D01*
X88584048Y-108856465D01*
X88377205Y-109063308D01*
X88214690Y-109306529D01*
X88102748Y-109576782D01*
X88045680Y-109863680D01*
X88045680Y-110156200D01*
X88102748Y-110443098D01*
X88214690Y-110713351D01*
X88377205Y-110956572D01*
X88584048Y-111163415D01*
X88758440Y-111279940D01*
X88584048Y-111396465D01*
X88377205Y-111603308D01*
X88214690Y-111846529D01*
X88102748Y-112116782D01*
X88045680Y-112403680D01*
X88045680Y-112696200D01*
X88102748Y-112983098D01*
X88214690Y-113253351D01*
X88377205Y-113496572D01*
X88584048Y-113703415D01*
X88758440Y-113819940D01*
X88584048Y-113936465D01*
X88377205Y-114143308D01*
X88214690Y-114386529D01*
X88102748Y-114656782D01*
X88045680Y-114943680D01*
X88045680Y-115236200D01*
X88102748Y-115523098D01*
X88214690Y-115793351D01*
X88377205Y-116036572D01*
X88584048Y-116243415D01*
X88758440Y-116359940D01*
X88584048Y-116476465D01*
X88377205Y-116683308D01*
X88214690Y-116926529D01*
X88102748Y-117196782D01*
X88045680Y-117483680D01*
X88045680Y-117776200D01*
X88102748Y-118063098D01*
X88214690Y-118333351D01*
X88377205Y-118576572D01*
X88509060Y-118708427D01*
X88436500Y-118730438D01*
X88326186Y-118789403D01*
X88229495Y-118868755D01*
X88150143Y-118965446D01*
X88091178Y-119075760D01*
X88054868Y-119195458D01*
X88042608Y-119319940D01*
X84467700Y-119319940D01*
X84467700Y-102243680D01*
X88045680Y-102243680D01*
X88045680Y-102536200D01*
X88102748Y-102823098D01*
X88214690Y-103093351D01*
X88377205Y-103336572D01*
X88584048Y-103543415D01*
X88758440Y-103659940D01*
X88584048Y-103776465D01*
X88377205Y-103983308D01*
X88214690Y-104226529D01*
X88102748Y-104496782D01*
X88045680Y-104783680D01*
X88045680Y-105076200D01*
X88102748Y-105363098D01*
X88214690Y-105633351D01*
X88377205Y-105876572D01*
X88584048Y-106083415D01*
X88766214Y-106205135D01*
X88649325Y-106274762D01*
X88433092Y-106469671D01*
X88259039Y-106703020D01*
X88133855Y-106965841D01*
X88089204Y-107113050D01*
X88210525Y-107342940D01*
X89403680Y-107342940D01*
X89403680Y-107322940D01*
X89657680Y-107322940D01*
X89657680Y-107342940D01*
X90850835Y-107342940D01*
X90972156Y-107113050D01*
X90927505Y-106965841D01*
X90802321Y-106703020D01*
X90628268Y-106469671D01*
X90412035Y-106274762D01*
X90295146Y-106205135D01*
X90477312Y-106083415D01*
X90684155Y-105876572D01*
X90846670Y-105633351D01*
X90958612Y-105363098D01*
X91015680Y-105076200D01*
X91015680Y-104783680D01*
X90958612Y-104496782D01*
X90846670Y-104226529D01*
X90684155Y-103983308D01*
X90477312Y-103776465D01*
X90302920Y-103659940D01*
X90477312Y-103543415D01*
X90684155Y-103336572D01*
X90846670Y-103093351D01*
X90958612Y-102823098D01*
X91015680Y-102536200D01*
X91015680Y-102243680D01*
X90958612Y-101956782D01*
X90846670Y-101686529D01*
X90684155Y-101443308D01*
X90477312Y-101236465D01*
X90234091Y-101073950D01*
X89963838Y-100962008D01*
X89676940Y-100904940D01*
X89384420Y-100904940D01*
X89097522Y-100962008D01*
X88827269Y-101073950D01*
X88584048Y-101236465D01*
X88377205Y-101443308D01*
X88214690Y-101686529D01*
X88102748Y-101956782D01*
X88045680Y-102243680D01*
X84467700Y-102243680D01*
X84467700Y-74144801D01*
X95627460Y-74144801D01*
X95627460Y-74445199D01*
X95686065Y-74739826D01*
X95801022Y-75017358D01*
X95967915Y-75267131D01*
X96137437Y-75436653D01*
X96108280Y-75445498D01*
X95997966Y-75504463D01*
X95901275Y-75583815D01*
X95821923Y-75680506D01*
X95762958Y-75790820D01*
X95726648Y-75910518D01*
X95714388Y-76035000D01*
X95714388Y-77635000D01*
X95726648Y-77759482D01*
X95762958Y-77879180D01*
X95821923Y-77989494D01*
X95901275Y-78086185D01*
X95997966Y-78165537D01*
X96108280Y-78224502D01*
X96227978Y-78260812D01*
X96236421Y-78261643D01*
X96037823Y-78460241D01*
X95880780Y-78695273D01*
X95772607Y-78956426D01*
X95717460Y-79233665D01*
X95717460Y-79516335D01*
X95772607Y-79793574D01*
X95880780Y-80054727D01*
X96037823Y-80289759D01*
X96237701Y-80489637D01*
X96470219Y-80645000D01*
X96237701Y-80800363D01*
X96037823Y-81000241D01*
X95880780Y-81235273D01*
X95772607Y-81496426D01*
X95717460Y-81773665D01*
X95717460Y-82056335D01*
X95772607Y-82333574D01*
X95880780Y-82594727D01*
X96037823Y-82829759D01*
X96237701Y-83029637D01*
X96472733Y-83186680D01*
X96483325Y-83191067D01*
X96297329Y-83302615D01*
X96088941Y-83491586D01*
X95921423Y-83717580D01*
X95801214Y-83971913D01*
X95760556Y-84105961D01*
X95882545Y-84328000D01*
X97025460Y-84328000D01*
X97025460Y-84308000D01*
X97279460Y-84308000D01*
X97279460Y-84328000D01*
X98422375Y-84328000D01*
X98544364Y-84105961D01*
X98503706Y-83971913D01*
X98383497Y-83717580D01*
X98215979Y-83491586D01*
X98007591Y-83302615D01*
X97821595Y-83191067D01*
X97832187Y-83186680D01*
X98067219Y-83029637D01*
X98267097Y-82829759D01*
X98424140Y-82594727D01*
X98532313Y-82333574D01*
X98587460Y-82056335D01*
X98587460Y-81773665D01*
X98532313Y-81496426D01*
X98424140Y-81235273D01*
X98267097Y-81000241D01*
X98067219Y-80800363D01*
X97834701Y-80645000D01*
X98067219Y-80489637D01*
X98267097Y-80289759D01*
X98424140Y-80054727D01*
X98532313Y-79793574D01*
X98587460Y-79516335D01*
X98587460Y-79233665D01*
X98532313Y-78956426D01*
X98424140Y-78695273D01*
X98267097Y-78460241D01*
X98068499Y-78261643D01*
X98076942Y-78260812D01*
X98196640Y-78224502D01*
X98306954Y-78165537D01*
X98403645Y-78086185D01*
X98482997Y-77989494D01*
X98541962Y-77879180D01*
X98578272Y-77759482D01*
X98590532Y-77635000D01*
X98590532Y-76035000D01*
X98578272Y-75910518D01*
X98541962Y-75790820D01*
X98482997Y-75680506D01*
X98403645Y-75583815D01*
X98306954Y-75504463D01*
X98196640Y-75445498D01*
X98167483Y-75436653D01*
X98337005Y-75267131D01*
X98503898Y-75017358D01*
X98618855Y-74739826D01*
X98677460Y-74445199D01*
X98677460Y-74144801D01*
X98618855Y-73850174D01*
X98503898Y-73572642D01*
X98337005Y-73322869D01*
X98124591Y-73110455D01*
X97874818Y-72943562D01*
X97597286Y-72828605D01*
X97302659Y-72770000D01*
X97002261Y-72770000D01*
X96707634Y-72828605D01*
X96430102Y-72943562D01*
X96180329Y-73110455D01*
X95967915Y-73322869D01*
X95801022Y-73572642D01*
X95686065Y-73850174D01*
X95627460Y-74144801D01*
X84467700Y-74144801D01*
X84467700Y-54385296D01*
X85348539Y-54385296D01*
X85348539Y-54834704D01*
X85436214Y-55275478D01*
X85608196Y-55690677D01*
X85857874Y-56064347D01*
X86175653Y-56382126D01*
X86549323Y-56631804D01*
X86964522Y-56803786D01*
X87405296Y-56891461D01*
X87854704Y-56891461D01*
X88295478Y-56803786D01*
X88710677Y-56631804D01*
X89084347Y-56382126D01*
X89402126Y-56064347D01*
X89651804Y-55690677D01*
X89823786Y-55275478D01*
X89911461Y-54834704D01*
X89911461Y-54385296D01*
X89823786Y-53944522D01*
X89651804Y-53529323D01*
X89402126Y-53155653D01*
X89084347Y-52837874D01*
X88710677Y-52588196D01*
X88295478Y-52416214D01*
X87854704Y-52328539D01*
X87405296Y-52328539D01*
X86964522Y-52416214D01*
X86549323Y-52588196D01*
X86175653Y-52837874D01*
X85857874Y-53155653D01*
X85608196Y-53529323D01*
X85436214Y-53944522D01*
X85348539Y-54385296D01*
X84467700Y-54385296D01*
X84467700Y-46605654D01*
X100913191Y-46605654D01*
X100913191Y-46739343D01*
X100915000Y-46748479D01*
X100915001Y-54326147D01*
X100915235Y-54328521D01*
X100915264Y-54332702D01*
X100918516Y-54363646D01*
X100918516Y-54394770D01*
X100919516Y-54404282D01*
X100974718Y-54896421D01*
X100987622Y-54957129D01*
X100999686Y-55018054D01*
X101002514Y-55027190D01*
X101152256Y-55499234D01*
X101176714Y-55556299D01*
X101200372Y-55613697D01*
X101204920Y-55622110D01*
X101443496Y-56056080D01*
X101478579Y-56107318D01*
X101512930Y-56159020D01*
X101519021Y-56166382D01*
X101519026Y-56166389D01*
X101519032Y-56166394D01*
X101837352Y-56545755D01*
X101881710Y-56589193D01*
X101925457Y-56633247D01*
X101932869Y-56639292D01*
X102318816Y-56949601D01*
X102370742Y-56983580D01*
X102422237Y-57018314D01*
X102430682Y-57022804D01*
X102869552Y-57252240D01*
X102927129Y-57275503D01*
X102984350Y-57299556D01*
X102993506Y-57302321D01*
X103468583Y-57442144D01*
X103529604Y-57453784D01*
X103590385Y-57466261D01*
X103599903Y-57467195D01*
X104093091Y-57512079D01*
X104155175Y-57511645D01*
X104217258Y-57512079D01*
X104226777Y-57511146D01*
X104719289Y-57459381D01*
X104780114Y-57446895D01*
X104841090Y-57435263D01*
X104850246Y-57432499D01*
X105323325Y-57286057D01*
X105380566Y-57261995D01*
X105438124Y-57238740D01*
X105446569Y-57234250D01*
X105882193Y-56998709D01*
X105933656Y-56963997D01*
X105985613Y-56929997D01*
X105993025Y-56923952D01*
X106374603Y-56608284D01*
X106418333Y-56564247D01*
X106462708Y-56520792D01*
X106468805Y-56513422D01*
X106781803Y-56129649D01*
X106816164Y-56077931D01*
X106851236Y-56026710D01*
X106855785Y-56018297D01*
X107088279Y-55581039D01*
X107111942Y-55523629D01*
X107136395Y-55466574D01*
X107139224Y-55457438D01*
X107282360Y-54983349D01*
X107294417Y-54922456D01*
X107307327Y-54861719D01*
X107308327Y-54852207D01*
X107347630Y-54451370D01*
X107355088Y-54426783D01*
X107359174Y-54385296D01*
X118368539Y-54385296D01*
X118368539Y-54834704D01*
X118456214Y-55275478D01*
X118628196Y-55690677D01*
X118877874Y-56064347D01*
X119195653Y-56382126D01*
X119569323Y-56631804D01*
X119984522Y-56803786D01*
X120425296Y-56891461D01*
X120874704Y-56891461D01*
X121315478Y-56803786D01*
X121730677Y-56631804D01*
X122104347Y-56382126D01*
X122422126Y-56064347D01*
X122671804Y-55690677D01*
X122843786Y-55275478D01*
X122931461Y-54834704D01*
X122931461Y-54385296D01*
X122843786Y-53944522D01*
X122671804Y-53529323D01*
X122422126Y-53155653D01*
X122104347Y-52837874D01*
X121730677Y-52588196D01*
X121315478Y-52416214D01*
X120874704Y-52328539D01*
X120425296Y-52328539D01*
X119984522Y-52416214D01*
X119569323Y-52588196D01*
X119195653Y-52837874D01*
X118877874Y-53155653D01*
X118628196Y-53529323D01*
X118456214Y-53944522D01*
X118368539Y-54385296D01*
X107359174Y-54385296D01*
X107365000Y-54326147D01*
X107365000Y-46638853D01*
X107364765Y-46636464D01*
X107364735Y-46632216D01*
X107361483Y-46601277D01*
X107361483Y-46570157D01*
X107360483Y-46560646D01*
X107305171Y-46067521D01*
X107292263Y-46006791D01*
X107280204Y-45945890D01*
X107277376Y-45936753D01*
X107127335Y-45463764D01*
X107102861Y-45406663D01*
X107079218Y-45349300D01*
X107074669Y-45340886D01*
X107074669Y-45340885D01*
X107074666Y-45340881D01*
X106835615Y-44906048D01*
X106800533Y-44854812D01*
X106766182Y-44803109D01*
X106760086Y-44795740D01*
X106441123Y-44415615D01*
X106396746Y-44372158D01*
X106353018Y-44328124D01*
X106345607Y-44322079D01*
X105958887Y-44011148D01*
X105906977Y-43977179D01*
X105855466Y-43942435D01*
X105847022Y-43937945D01*
X105407273Y-43708049D01*
X105349689Y-43684784D01*
X105292473Y-43660732D01*
X105283321Y-43657969D01*
X105283315Y-43657967D01*
X104807289Y-43517866D01*
X104746282Y-43506228D01*
X104685488Y-43493749D01*
X104675970Y-43492815D01*
X104181796Y-43447841D01*
X104119712Y-43448275D01*
X104057628Y-43447841D01*
X104048109Y-43448775D01*
X103554612Y-43500644D01*
X103493818Y-43513123D01*
X103432811Y-43524761D01*
X103423655Y-43527525D01*
X102949629Y-43674260D01*
X102892375Y-43698328D01*
X102834831Y-43721577D01*
X102826386Y-43726066D01*
X102389890Y-43962078D01*
X102338418Y-43996797D01*
X102286469Y-44030791D01*
X102279057Y-44036836D01*
X101896715Y-44353136D01*
X101852967Y-44397191D01*
X101808609Y-44440629D01*
X101802512Y-44447999D01*
X101488889Y-44832540D01*
X101454507Y-44884289D01*
X101419458Y-44935477D01*
X101414908Y-44943890D01*
X101181948Y-45382023D01*
X101158269Y-45439473D01*
X101133832Y-45496488D01*
X101131003Y-45505624D01*
X100987580Y-45980662D01*
X100975517Y-46041584D01*
X100962613Y-46102294D01*
X100961613Y-46111806D01*
X100913191Y-46605654D01*
X84467700Y-46605654D01*
X84467700Y-42557700D01*
X123812300Y-42557700D01*
X123812301Y-149212300D01*
G37*
X123812301Y-149212300D02*
X104741605Y-149212300D01*
X104780100Y-149204398D01*
X104841091Y-149192763D01*
X104850247Y-149189999D01*
X105323325Y-149043557D01*
X105380571Y-149019493D01*
X105438122Y-148996241D01*
X105446567Y-148991751D01*
X105882192Y-148756210D01*
X105933666Y-148721490D01*
X105985614Y-148687496D01*
X105993026Y-148681451D01*
X106374603Y-148365782D01*
X106418369Y-148321709D01*
X106462707Y-148278290D01*
X106468804Y-148270921D01*
X106781801Y-147887149D01*
X106816172Y-147835416D01*
X106851233Y-147784211D01*
X106855783Y-147775798D01*
X107088278Y-147338540D01*
X107111949Y-147281110D01*
X107136395Y-147224073D01*
X107139222Y-147214941D01*
X107139224Y-147214935D01*
X107282358Y-146740848D01*
X107294419Y-146679938D01*
X107307325Y-146619219D01*
X107308325Y-146609707D01*
X107347627Y-146208879D01*
X107355088Y-146184283D01*
X107365000Y-146083647D01*
X107365000Y-138396353D01*
X107364765Y-138393964D01*
X107364735Y-138389716D01*
X107361482Y-138358769D01*
X107361482Y-138327656D01*
X107360483Y-138318144D01*
X107347826Y-138205296D01*
X118368539Y-138205296D01*
X118368539Y-138654704D01*
X118456214Y-139095478D01*
X118628196Y-139510677D01*
X118877874Y-139884347D01*
X119195653Y-140202126D01*
X119569323Y-140451804D01*
X119984522Y-140623786D01*
X120425296Y-140711461D01*
X120874704Y-140711461D01*
X121315478Y-140623786D01*
X121730677Y-140451804D01*
X122104347Y-140202126D01*
X122422126Y-139884347D01*
X122671804Y-139510677D01*
X122843786Y-139095478D01*
X122931461Y-138654704D01*
X122931461Y-138205296D01*
X122843786Y-137764522D01*
X122671804Y-137349323D01*
X122422126Y-136975653D01*
X122104347Y-136657874D01*
X121730677Y-136408196D01*
X121315478Y-136236214D01*
X120874704Y-136148539D01*
X120425296Y-136148539D01*
X119984522Y-136236214D01*
X119569323Y-136408196D01*
X119195653Y-136657874D01*
X118877874Y-136975653D01*
X118628196Y-137349323D01*
X118456214Y-137764522D01*
X118368539Y-138205296D01*
X107347826Y-138205296D01*
X107305170Y-137825020D01*
X107292265Y-137764308D01*
X107280203Y-137703390D01*
X107277375Y-137694253D01*
X107127334Y-137221264D01*
X107102860Y-137164163D01*
X107079217Y-137106800D01*
X107074668Y-137098386D01*
X107074668Y-137098385D01*
X107074665Y-137098381D01*
X106835614Y-136663548D01*
X106800532Y-136612312D01*
X106766181Y-136560609D01*
X106760085Y-136553240D01*
X106441122Y-136173115D01*
X106396765Y-136129677D01*
X106353018Y-136085624D01*
X106345606Y-136079579D01*
X105958885Y-135768647D01*
X105906944Y-135734658D01*
X105855464Y-135699934D01*
X105847019Y-135695444D01*
X105407270Y-135465548D01*
X105349672Y-135442277D01*
X105292472Y-135418233D01*
X105283316Y-135415468D01*
X104807288Y-135275365D01*
X104746285Y-135263728D01*
X104685485Y-135251248D01*
X104675967Y-135250314D01*
X104181793Y-135205341D01*
X104119710Y-135205775D01*
X104057626Y-135205341D01*
X104048107Y-135206275D01*
X103554609Y-135258144D01*
X103493815Y-135270623D01*
X103432808Y-135282261D01*
X103423652Y-135285025D01*
X102949626Y-135431760D01*
X102892372Y-135455828D01*
X102834828Y-135479077D01*
X102826383Y-135483567D01*
X102389887Y-135719580D01*
X102338409Y-135754302D01*
X102286467Y-135788292D01*
X102279055Y-135794337D01*
X101896713Y-136110637D01*
X101852965Y-136154692D01*
X101808607Y-136198130D01*
X101802511Y-136205499D01*
X101488887Y-136590040D01*
X101454541Y-136641735D01*
X101419454Y-136692979D01*
X101414905Y-136701393D01*
X101181946Y-137139525D01*
X101158277Y-137196949D01*
X101133830Y-137253989D01*
X101131001Y-137263125D01*
X100987578Y-137738163D01*
X100975514Y-137799093D01*
X100962611Y-137859796D01*
X100961611Y-137869307D01*
X100913189Y-138363156D01*
X100913190Y-138496845D01*
X100915000Y-138505987D01*
X100915001Y-146083647D01*
X100915235Y-146086021D01*
X100915264Y-146090204D01*
X100918517Y-146121155D01*
X100918517Y-146152273D01*
X100919516Y-146161785D01*
X100974719Y-146653925D01*
X100987623Y-146714630D01*
X100999686Y-146775555D01*
X101002514Y-146784691D01*
X101152255Y-147256735D01*
X101176707Y-147313785D01*
X101200372Y-147371201D01*
X101204921Y-147379614D01*
X101443498Y-147813583D01*
X101478589Y-147864831D01*
X101512931Y-147916520D01*
X101519027Y-147923890D01*
X101837351Y-148303255D01*
X101881709Y-148346693D01*
X101925457Y-148390748D01*
X101932869Y-148396793D01*
X102318816Y-148707102D01*
X102370760Y-148741093D01*
X102422238Y-148775815D01*
X102430682Y-148780306D01*
X102869554Y-149009742D01*
X102927112Y-149032997D01*
X102984350Y-149057057D01*
X102993506Y-149059822D01*
X103468583Y-149199645D01*
X103529586Y-149211282D01*
X103534545Y-149212300D01*
X84467700Y-149212300D01*
X84467700Y-138205296D01*
X85348539Y-138205296D01*
X85348539Y-138654704D01*
X85436214Y-139095478D01*
X85608196Y-139510677D01*
X85857874Y-139884347D01*
X86175653Y-140202126D01*
X86549323Y-140451804D01*
X86964522Y-140623786D01*
X87405296Y-140711461D01*
X87854704Y-140711461D01*
X88295478Y-140623786D01*
X88710677Y-140451804D01*
X89084347Y-140202126D01*
X89402126Y-139884347D01*
X89651804Y-139510677D01*
X89823786Y-139095478D01*
X89911461Y-138654704D01*
X89911461Y-138205296D01*
X89823786Y-137764522D01*
X89651804Y-137349323D01*
X89402126Y-136975653D01*
X89084347Y-136657874D01*
X88710677Y-136408196D01*
X88295478Y-136236214D01*
X87854704Y-136148539D01*
X87405296Y-136148539D01*
X86964522Y-136236214D01*
X86549323Y-136408196D01*
X86175653Y-136657874D01*
X85857874Y-136975653D01*
X85608196Y-137349323D01*
X85436214Y-137764522D01*
X85348539Y-138205296D01*
X84467700Y-138205296D01*
X84467700Y-119319940D01*
X88042608Y-119319940D01*
X88042608Y-121019940D01*
X88054868Y-121144422D01*
X88091178Y-121264120D01*
X88150143Y-121374434D01*
X88229495Y-121471125D01*
X88326186Y-121550477D01*
X88436500Y-121609442D01*
X88556198Y-121645752D01*
X88680680Y-121658012D01*
X90380680Y-121658012D01*
X90505162Y-121645752D01*
X90624860Y-121609442D01*
X90735174Y-121550477D01*
X90831865Y-121471125D01*
X90911217Y-121374434D01*
X90970182Y-121264120D01*
X91006492Y-121144422D01*
X91018752Y-121019940D01*
X91018752Y-119319940D01*
X91006492Y-119195458D01*
X90970182Y-119075760D01*
X90911217Y-118965446D01*
X90831865Y-118868755D01*
X90735174Y-118789403D01*
X90624860Y-118730438D01*
X90552300Y-118708427D01*
X90684155Y-118576572D01*
X90846670Y-118333351D01*
X90958612Y-118063098D01*
X91015680Y-117776200D01*
X91015680Y-117483680D01*
X90958612Y-117196782D01*
X90846670Y-116926529D01*
X90684155Y-116683308D01*
X90477312Y-116476465D01*
X90302920Y-116359940D01*
X90477312Y-116243415D01*
X90684155Y-116036572D01*
X90846670Y-115793351D01*
X90958612Y-115523098D01*
X91015680Y-115236200D01*
X91015680Y-114943680D01*
X90958612Y-114656782D01*
X90846670Y-114386529D01*
X90684155Y-114143308D01*
X90477312Y-113936465D01*
X90302920Y-113819940D01*
X90477312Y-113703415D01*
X90684155Y-113496572D01*
X90809851Y-113308454D01*
X90821242Y-113306912D01*
X90882139Y-113300914D01*
X90895541Y-113296848D01*
X90909403Y-113294971D01*
X90967223Y-113275104D01*
X91025776Y-113257342D01*
X91038122Y-113250743D01*
X91051358Y-113246195D01*
X91104209Y-113215418D01*
X91158153Y-113186585D01*
X91168973Y-113177705D01*
X91181068Y-113170662D01*
X91226893Y-113130172D01*
X91274183Y-113091362D01*
X91306867Y-113051537D01*
X91907045Y-112405935D01*
X92123687Y-112235352D01*
X92204824Y-112157431D01*
X92290721Y-112034338D01*
X92301955Y-112008695D01*
X93265532Y-111045119D01*
X93294602Y-111021262D01*
X93389825Y-110905232D01*
X93460582Y-110772855D01*
X93504154Y-110629218D01*
X93515180Y-110517266D01*
X93515180Y-110517264D01*
X93518866Y-110479841D01*
X93515180Y-110442418D01*
X93515180Y-98198540D01*
X96110892Y-95602828D01*
X96237701Y-95729637D01*
X96470219Y-95885000D01*
X96237701Y-96040363D01*
X96037823Y-96240241D01*
X95880780Y-96475273D01*
X95772607Y-96736426D01*
X95717460Y-97013665D01*
X95717460Y-97296335D01*
X95772607Y-97573574D01*
X95880780Y-97834727D01*
X96037823Y-98069759D01*
X96237701Y-98269637D01*
X96470219Y-98425000D01*
X96237701Y-98580363D01*
X96037823Y-98780241D01*
X95880780Y-99015273D01*
X95772607Y-99276426D01*
X95717460Y-99553665D01*
X95717460Y-99836335D01*
X95772607Y-100113574D01*
X95880780Y-100374727D01*
X96037823Y-100609759D01*
X96237701Y-100809637D01*
X96470219Y-100965000D01*
X96237701Y-101120363D01*
X96037823Y-101320241D01*
X95880780Y-101555273D01*
X95772607Y-101816426D01*
X95717460Y-102093665D01*
X95717460Y-102376335D01*
X95772607Y-102653574D01*
X95880780Y-102914727D01*
X96037823Y-103149759D01*
X96237701Y-103349637D01*
X96470219Y-103505000D01*
X96237701Y-103660363D01*
X96037823Y-103860241D01*
X95880780Y-104095273D01*
X95772607Y-104356426D01*
X95717460Y-104633665D01*
X95717460Y-104916335D01*
X95772607Y-105193574D01*
X95880780Y-105454727D01*
X96037823Y-105689759D01*
X96237701Y-105889637D01*
X96470219Y-106045000D01*
X96237701Y-106200363D01*
X96037823Y-106400241D01*
X95880780Y-106635273D01*
X95772607Y-106896426D01*
X95717460Y-107173665D01*
X95717460Y-107456335D01*
X95772607Y-107733574D01*
X95880780Y-107994727D01*
X96037823Y-108229759D01*
X96237701Y-108429637D01*
X96470219Y-108585000D01*
X96237701Y-108740363D01*
X96037823Y-108940241D01*
X95880780Y-109175273D01*
X95772607Y-109436426D01*
X95717460Y-109713665D01*
X95717460Y-109996335D01*
X95772607Y-110273574D01*
X95880780Y-110534727D01*
X96037823Y-110769759D01*
X96237701Y-110969637D01*
X96470219Y-111125000D01*
X96237701Y-111280363D01*
X96037823Y-111480241D01*
X95880780Y-111715273D01*
X95772607Y-111976426D01*
X95717460Y-112253665D01*
X95717460Y-112536335D01*
X95772607Y-112813574D01*
X95880780Y-113074727D01*
X96037823Y-113309759D01*
X96237701Y-113509637D01*
X96389220Y-113610879D01*
X96180329Y-113750455D01*
X95967915Y-113962869D01*
X95801022Y-114212642D01*
X95686065Y-114490174D01*
X95627460Y-114784801D01*
X95627460Y-115085199D01*
X95686065Y-115379826D01*
X95801022Y-115657358D01*
X95967915Y-115907131D01*
X96180329Y-116119545D01*
X96430102Y-116286438D01*
X96707634Y-116401395D01*
X97002261Y-116460000D01*
X97302659Y-116460000D01*
X97597286Y-116401395D01*
X97874818Y-116286438D01*
X98124591Y-116119545D01*
X98337005Y-115907131D01*
X98503898Y-115657358D01*
X98618855Y-115379826D01*
X98677460Y-115085199D01*
X98677460Y-114784801D01*
X98618855Y-114490174D01*
X98503898Y-114212642D01*
X98337005Y-113962869D01*
X98124591Y-113750455D01*
X97915700Y-113610879D01*
X98067219Y-113509637D01*
X98267097Y-113309759D01*
X98284309Y-113284000D01*
X98792820Y-113284000D01*
X98836480Y-113288300D01*
X98880140Y-113284000D01*
X98880147Y-113284000D01*
X99010754Y-113271136D01*
X99178331Y-113220303D01*
X99332771Y-113137753D01*
X99468139Y-113026659D01*
X99495979Y-112992736D01*
X100284216Y-112204500D01*
X100783873Y-112204500D01*
X100847890Y-112300309D01*
X100801766Y-112324963D01*
X100705075Y-112404315D01*
X100625723Y-112501006D01*
X100566758Y-112611320D01*
X100530448Y-112731018D01*
X100518188Y-112855500D01*
X100518188Y-114855500D01*
X100530448Y-114979982D01*
X100566758Y-115099680D01*
X100625723Y-115209994D01*
X100705075Y-115306685D01*
X100801766Y-115386037D01*
X100912080Y-115445002D01*
X101031778Y-115481312D01*
X101156260Y-115493572D01*
X103156260Y-115493572D01*
X103280742Y-115481312D01*
X103400440Y-115445002D01*
X103510754Y-115386037D01*
X103607445Y-115306685D01*
X103686797Y-115209994D01*
X103745762Y-115099680D01*
X103782072Y-114979982D01*
X103794332Y-114855500D01*
X103794332Y-113694467D01*
X105601260Y-113694467D01*
X105601260Y-114016533D01*
X105664092Y-114332412D01*
X105787342Y-114629963D01*
X105966273Y-114897752D01*
X106194008Y-115125487D01*
X106461797Y-115304418D01*
X106759348Y-115427668D01*
X107075227Y-115490500D01*
X107397293Y-115490500D01*
X107713172Y-115427668D01*
X108010723Y-115304418D01*
X108278512Y-115125487D01*
X108506247Y-114897752D01*
X108685178Y-114629963D01*
X108808428Y-114332412D01*
X108871260Y-114016533D01*
X108871260Y-113694467D01*
X108808428Y-113378588D01*
X108685178Y-113081037D01*
X108506247Y-112813248D01*
X108278512Y-112585513D01*
X108169660Y-112512780D01*
X108192068Y-112450913D01*
X107236260Y-111495105D01*
X106280452Y-112450913D01*
X106302860Y-112512780D01*
X106194008Y-112585513D01*
X105966273Y-112813248D01*
X105787342Y-113081037D01*
X105664092Y-113378588D01*
X105601260Y-113694467D01*
X103794332Y-113694467D01*
X103794332Y-112855500D01*
X103782072Y-112731018D01*
X103745762Y-112611320D01*
X103686797Y-112501006D01*
X103607445Y-112404315D01*
X103510754Y-112324963D01*
X103464630Y-112300309D01*
X103605178Y-112089963D01*
X103728428Y-111792412D01*
X103791260Y-111476533D01*
X103791260Y-111378095D01*
X105594542Y-111378095D01*
X105638299Y-111697175D01*
X105743465Y-112001588D01*
X105836446Y-112175544D01*
X106100847Y-112271308D01*
X107056655Y-111315500D01*
X107415865Y-111315500D01*
X108371673Y-112271308D01*
X108636074Y-112175544D01*
X108776964Y-111885929D01*
X108858644Y-111574392D01*
X108877978Y-111252905D01*
X108834221Y-110933825D01*
X108729055Y-110629412D01*
X108636074Y-110455456D01*
X108371673Y-110359692D01*
X107415865Y-111315500D01*
X107056655Y-111315500D01*
X106100847Y-110359692D01*
X105836446Y-110455456D01*
X105695556Y-110745071D01*
X105613876Y-111056608D01*
X105594542Y-111378095D01*
X103791260Y-111378095D01*
X103791260Y-111154467D01*
X103728428Y-110838588D01*
X103605178Y-110541037D01*
X103426247Y-110273248D01*
X103333086Y-110180087D01*
X106280452Y-110180087D01*
X107236260Y-111135895D01*
X108192068Y-110180087D01*
X108096304Y-109915686D01*
X107806689Y-109774796D01*
X107495152Y-109693116D01*
X107173665Y-109673782D01*
X106854585Y-109717539D01*
X106550172Y-109822705D01*
X106376216Y-109915686D01*
X106280452Y-110180087D01*
X103333086Y-110180087D01*
X103198512Y-110045513D01*
X102930723Y-109866582D01*
X102633172Y-109743332D01*
X102317293Y-109680500D01*
X101995227Y-109680500D01*
X101679348Y-109743332D01*
X101381797Y-109866582D01*
X101114008Y-110045513D01*
X100886273Y-110273248D01*
X100783873Y-110426500D01*
X99959648Y-110426500D01*
X99915980Y-110422199D01*
X99741705Y-110439364D01*
X99729396Y-110443098D01*
X99574129Y-110490197D01*
X99419689Y-110572747D01*
X99284321Y-110683841D01*
X99256485Y-110717759D01*
X98468245Y-111506000D01*
X98284309Y-111506000D01*
X98267097Y-111480241D01*
X98067219Y-111280363D01*
X97834701Y-111125000D01*
X98067219Y-110969637D01*
X98267097Y-110769759D01*
X98424140Y-110534727D01*
X98532313Y-110273574D01*
X98587460Y-109996335D01*
X98587460Y-109713665D01*
X98532313Y-109436426D01*
X98424140Y-109175273D01*
X98267097Y-108940241D01*
X98067219Y-108740363D01*
X97834701Y-108585000D01*
X98067219Y-108429637D01*
X98267097Y-108229759D01*
X98424140Y-107994727D01*
X98532313Y-107733574D01*
X98587460Y-107456335D01*
X98587460Y-107173665D01*
X98532313Y-106896426D01*
X98424140Y-106635273D01*
X98267097Y-106400241D01*
X98067219Y-106200363D01*
X97834701Y-106045000D01*
X98067219Y-105889637D01*
X98267097Y-105689759D01*
X98424140Y-105454727D01*
X98532313Y-105193574D01*
X98587460Y-104916335D01*
X98587460Y-104633665D01*
X98532313Y-104356426D01*
X98424140Y-104095273D01*
X98267097Y-103860241D01*
X98067219Y-103660363D01*
X97878802Y-103534467D01*
X100521260Y-103534467D01*
X100521260Y-103856533D01*
X100584092Y-104172412D01*
X100707342Y-104469963D01*
X100886273Y-104737752D01*
X101114008Y-104965487D01*
X101381797Y-105144418D01*
X101679348Y-105267668D01*
X101995227Y-105330500D01*
X102317293Y-105330500D01*
X102633172Y-105267668D01*
X102930723Y-105144418D01*
X103198512Y-104965487D01*
X103426247Y-104737752D01*
X103528647Y-104584500D01*
X105863873Y-104584500D01*
X105966273Y-104737752D01*
X106194008Y-104965487D01*
X106461797Y-105144418D01*
X106759348Y-105267668D01*
X107075227Y-105330500D01*
X107397293Y-105330500D01*
X107713172Y-105267668D01*
X108010723Y-105144418D01*
X108278512Y-104965487D01*
X108506247Y-104737752D01*
X108685178Y-104469963D01*
X108808428Y-104172412D01*
X108871260Y-103856533D01*
X108871260Y-103534467D01*
X108808428Y-103218588D01*
X108685178Y-102921037D01*
X108506247Y-102653248D01*
X108278512Y-102425513D01*
X108010723Y-102246582D01*
X107713172Y-102123332D01*
X107397293Y-102060500D01*
X107075227Y-102060500D01*
X106759348Y-102123332D01*
X106461797Y-102246582D01*
X106194008Y-102425513D01*
X105966273Y-102653248D01*
X105863873Y-102806500D01*
X103528647Y-102806500D01*
X103426247Y-102653248D01*
X103198512Y-102425513D01*
X103045429Y-102323226D01*
X103049560Y-102281287D01*
X103045260Y-102237627D01*
X103045260Y-102237620D01*
X103032396Y-102107013D01*
X102981563Y-101939436D01*
X102899013Y-101784996D01*
X102787919Y-101649628D01*
X102753996Y-101621788D01*
X102651560Y-101519352D01*
X102651560Y-96525612D01*
X104282240Y-96525612D01*
X104406722Y-96513352D01*
X104526420Y-96477042D01*
X104636734Y-96418077D01*
X104733425Y-96338725D01*
X104812777Y-96242034D01*
X104871742Y-96131720D01*
X104889276Y-96073917D01*
X105003338Y-96187979D01*
X105248787Y-96351982D01*
X105521515Y-96464950D01*
X105811041Y-96522540D01*
X106106239Y-96522540D01*
X106395765Y-96464950D01*
X106668493Y-96351982D01*
X106913942Y-96187979D01*
X107122679Y-95979242D01*
X107286682Y-95733793D01*
X107399650Y-95461065D01*
X107457240Y-95171539D01*
X107457240Y-94876341D01*
X107399650Y-94586815D01*
X107286682Y-94314087D01*
X107122679Y-94068638D01*
X106913942Y-93859901D01*
X106755359Y-93753940D01*
X106913942Y-93647979D01*
X107122679Y-93439242D01*
X107286682Y-93193793D01*
X107399650Y-92921065D01*
X107457240Y-92631539D01*
X107457240Y-92336341D01*
X107399650Y-92046815D01*
X107286682Y-91774087D01*
X107122679Y-91528638D01*
X106913942Y-91319901D01*
X106755359Y-91213940D01*
X106913942Y-91107979D01*
X107122679Y-90899242D01*
X107286682Y-90653793D01*
X107399650Y-90381065D01*
X107457240Y-90091539D01*
X107457240Y-89796341D01*
X107399650Y-89506815D01*
X107286682Y-89234087D01*
X107122679Y-88988638D01*
X106913942Y-88779901D01*
X106755359Y-88673940D01*
X106913942Y-88567979D01*
X107122679Y-88359242D01*
X107286682Y-88113793D01*
X107399650Y-87841065D01*
X107457240Y-87551539D01*
X107457240Y-87256341D01*
X107399650Y-86966815D01*
X107286682Y-86694087D01*
X107122679Y-86448638D01*
X106913942Y-86239901D01*
X106668493Y-86075898D01*
X106395765Y-85962930D01*
X106106239Y-85905340D01*
X105811041Y-85905340D01*
X105521515Y-85962930D01*
X105248787Y-86075898D01*
X105003338Y-86239901D01*
X104794601Y-86448638D01*
X104686948Y-86609753D01*
X104525494Y-86393647D01*
X104307128Y-86197123D01*
X104054618Y-86046976D01*
X103777667Y-85948977D01*
X103545640Y-86069476D01*
X103545640Y-87276940D01*
X103565640Y-87276940D01*
X103565640Y-87530940D01*
X103545640Y-87530940D01*
X103545640Y-87550940D01*
X103291640Y-87550940D01*
X103291640Y-87530940D01*
X103271640Y-87530940D01*
X103271640Y-87276940D01*
X103291640Y-87276940D01*
X103291640Y-86069476D01*
X103059613Y-85948977D01*
X102782662Y-86046976D01*
X102651560Y-86124932D01*
X102651560Y-85684295D01*
X110611856Y-77724000D01*
X111217947Y-77724000D01*
X109896374Y-79045574D01*
X109867298Y-79069436D01*
X109811703Y-79137180D01*
X109772075Y-79185466D01*
X109738650Y-79248000D01*
X109701318Y-79317844D01*
X109657746Y-79461481D01*
X109652344Y-79516335D01*
X109643034Y-79610858D01*
X109646720Y-79648281D01*
X109646721Y-90053827D01*
X109643034Y-90091260D01*
X109657747Y-90240638D01*
X109701319Y-90384275D01*
X109772075Y-90516652D01*
X109820452Y-90575599D01*
X109867299Y-90632682D01*
X109896369Y-90656539D01*
X110993303Y-91753473D01*
X110957460Y-91933665D01*
X110957460Y-92216335D01*
X111012607Y-92493574D01*
X111120780Y-92754727D01*
X111277823Y-92989759D01*
X111477701Y-93189637D01*
X111710219Y-93345000D01*
X111477701Y-93500363D01*
X111277823Y-93700241D01*
X111120780Y-93935273D01*
X111012607Y-94196426D01*
X110957460Y-94473665D01*
X110957460Y-94756335D01*
X111012607Y-95033574D01*
X111120780Y-95294727D01*
X111277823Y-95529759D01*
X111477701Y-95729637D01*
X111710219Y-95885000D01*
X111477701Y-96040363D01*
X111277823Y-96240241D01*
X111120780Y-96475273D01*
X111012607Y-96736426D01*
X110957460Y-97013665D01*
X110957460Y-97296335D01*
X111012607Y-97573574D01*
X111120780Y-97834727D01*
X111277823Y-98069759D01*
X111477701Y-98269637D01*
X111710219Y-98425000D01*
X111477701Y-98580363D01*
X111277823Y-98780241D01*
X111120780Y-99015273D01*
X111012607Y-99276426D01*
X110957460Y-99553665D01*
X110957460Y-99836335D01*
X111012607Y-100113574D01*
X111120780Y-100374727D01*
X111277823Y-100609759D01*
X111477701Y-100809637D01*
X111710219Y-100965000D01*
X111477701Y-101120363D01*
X111277823Y-101320241D01*
X111120780Y-101555273D01*
X111012607Y-101816426D01*
X110957460Y-102093665D01*
X110957460Y-102376335D01*
X111012607Y-102653574D01*
X111120780Y-102914727D01*
X111277823Y-103149759D01*
X111477701Y-103349637D01*
X111710219Y-103505000D01*
X111477701Y-103660363D01*
X111277823Y-103860241D01*
X111120780Y-104095273D01*
X111012607Y-104356426D01*
X110957460Y-104633665D01*
X110957460Y-104916335D01*
X111012607Y-105193574D01*
X111120780Y-105454727D01*
X111277823Y-105689759D01*
X111477701Y-105889637D01*
X111710219Y-106045000D01*
X111477701Y-106200363D01*
X111277823Y-106400241D01*
X111120780Y-106635273D01*
X111012607Y-106896426D01*
X110957460Y-107173665D01*
X110957460Y-107456335D01*
X111012607Y-107733574D01*
X111120780Y-107994727D01*
X111277823Y-108229759D01*
X111477701Y-108429637D01*
X111710219Y-108585000D01*
X111477701Y-108740363D01*
X111277823Y-108940241D01*
X111120780Y-109175273D01*
X111012607Y-109436426D01*
X110957460Y-109713665D01*
X110957460Y-109996335D01*
X111012607Y-110273574D01*
X111120780Y-110534727D01*
X111277823Y-110769759D01*
X111477701Y-110969637D01*
X111710219Y-111125000D01*
X111477701Y-111280363D01*
X111277823Y-111480241D01*
X111120780Y-111715273D01*
X111012607Y-111976426D01*
X110957460Y-112253665D01*
X110957460Y-112536335D01*
X111012607Y-112813574D01*
X111120780Y-113074727D01*
X111277823Y-113309759D01*
X111477701Y-113509637D01*
X111629220Y-113610879D01*
X111420329Y-113750455D01*
X111207915Y-113962869D01*
X111041022Y-114212642D01*
X110926065Y-114490174D01*
X110867460Y-114784801D01*
X110867460Y-115085199D01*
X110926065Y-115379826D01*
X111041022Y-115657358D01*
X111207915Y-115907131D01*
X111420329Y-116119545D01*
X111670102Y-116286438D01*
X111947634Y-116401395D01*
X112242261Y-116460000D01*
X112542659Y-116460000D01*
X112837286Y-116401395D01*
X113114818Y-116286438D01*
X113364591Y-116119545D01*
X113577005Y-115907131D01*
X113743898Y-115657358D01*
X113858855Y-115379826D01*
X113917460Y-115085199D01*
X113917460Y-114784801D01*
X113858855Y-114490174D01*
X113743898Y-114212642D01*
X113577005Y-113962869D01*
X113364591Y-113750455D01*
X113155700Y-113610879D01*
X113307219Y-113509637D01*
X113507097Y-113309759D01*
X113664140Y-113074727D01*
X113772313Y-112813574D01*
X113827460Y-112536335D01*
X113827460Y-112253665D01*
X113772313Y-111976426D01*
X113664140Y-111715273D01*
X113507097Y-111480241D01*
X113307219Y-111280363D01*
X113074701Y-111125000D01*
X113307219Y-110969637D01*
X113507097Y-110769759D01*
X113664140Y-110534727D01*
X113772313Y-110273574D01*
X113827460Y-109996335D01*
X113827460Y-109713665D01*
X113772313Y-109436426D01*
X113664140Y-109175273D01*
X113507097Y-108940241D01*
X113307219Y-108740363D01*
X113074701Y-108585000D01*
X113307219Y-108429637D01*
X113507097Y-108229759D01*
X113664140Y-107994727D01*
X113772313Y-107733574D01*
X113827460Y-107456335D01*
X113827460Y-107173665D01*
X113772313Y-106896426D01*
X113664140Y-106635273D01*
X113507097Y-106400241D01*
X113307219Y-106200363D01*
X113074701Y-106045000D01*
X113307219Y-105889637D01*
X113507097Y-105689759D01*
X113664140Y-105454727D01*
X113772313Y-105193574D01*
X113827460Y-104916335D01*
X113827460Y-104633665D01*
X113772313Y-104356426D01*
X113664140Y-104095273D01*
X113507097Y-103860241D01*
X113307219Y-103660363D01*
X113074701Y-103505000D01*
X113307219Y-103349637D01*
X113507097Y-103149759D01*
X113664140Y-102914727D01*
X113772313Y-102653574D01*
X113827460Y-102376335D01*
X113827460Y-102093665D01*
X113772313Y-101816426D01*
X113664140Y-101555273D01*
X113507097Y-101320241D01*
X113307219Y-101120363D01*
X113074701Y-100965000D01*
X113307219Y-100809637D01*
X113507097Y-100609759D01*
X113664140Y-100374727D01*
X113772313Y-100113574D01*
X113827460Y-99836335D01*
X113827460Y-99553665D01*
X113772313Y-99276426D01*
X113664140Y-99015273D01*
X113507097Y-98780241D01*
X113307219Y-98580363D01*
X113074701Y-98425000D01*
X113307219Y-98269637D01*
X113507097Y-98069759D01*
X113664140Y-97834727D01*
X113772313Y-97573574D01*
X113827460Y-97296335D01*
X113827460Y-97013665D01*
X113772313Y-96736426D01*
X113664140Y-96475273D01*
X113507097Y-96240241D01*
X113307219Y-96040363D01*
X113074701Y-95885000D01*
X113307219Y-95729637D01*
X113507097Y-95529759D01*
X113664140Y-95294727D01*
X113772313Y-95033574D01*
X113827460Y-94756335D01*
X113827460Y-94473665D01*
X113772313Y-94196426D01*
X113664140Y-93935273D01*
X113507097Y-93700241D01*
X113307219Y-93500363D01*
X113074701Y-93345000D01*
X113307219Y-93189637D01*
X113507097Y-92989759D01*
X113664140Y-92754727D01*
X113772313Y-92493574D01*
X113827460Y-92216335D01*
X113827460Y-91933665D01*
X113772313Y-91656426D01*
X113664140Y-91395273D01*
X113507097Y-91160241D01*
X113307219Y-90960363D01*
X113074701Y-90805000D01*
X113307219Y-90649637D01*
X113507097Y-90449759D01*
X113664140Y-90214727D01*
X113772313Y-89953574D01*
X113827460Y-89676335D01*
X113827460Y-89393665D01*
X113772313Y-89116426D01*
X113664140Y-88855273D01*
X113507097Y-88620241D01*
X113307219Y-88420363D01*
X113074701Y-88265000D01*
X113307219Y-88109637D01*
X113507097Y-87909759D01*
X113664140Y-87674727D01*
X113772313Y-87413574D01*
X113827460Y-87136335D01*
X113827460Y-86853665D01*
X113772313Y-86576426D01*
X113664140Y-86315273D01*
X113507097Y-86080241D01*
X113307219Y-85880363D01*
X113074701Y-85725000D01*
X113307219Y-85569637D01*
X113507097Y-85369759D01*
X113524309Y-85344000D01*
X114408522Y-85344000D01*
X114477499Y-85346872D01*
X114539155Y-85337254D01*
X114601274Y-85331136D01*
X114625512Y-85323784D01*
X114650472Y-85319890D01*
X119046984Y-85319890D01*
X119091635Y-85467099D01*
X119216819Y-85729920D01*
X119390872Y-85963269D01*
X119607105Y-86158178D01*
X119857208Y-86307157D01*
X120131569Y-86404481D01*
X120361460Y-86283814D01*
X120361460Y-85090000D01*
X120615460Y-85090000D01*
X120615460Y-86283814D01*
X120845351Y-86404481D01*
X121119712Y-86307157D01*
X121369815Y-86158178D01*
X121586048Y-85963269D01*
X121760101Y-85729920D01*
X121885285Y-85467099D01*
X121929936Y-85319890D01*
X121808615Y-85090000D01*
X120615460Y-85090000D01*
X120361460Y-85090000D01*
X119168305Y-85090000D01*
X119046984Y-85319890D01*
X114650472Y-85319890D01*
X114650524Y-85319882D01*
X114709105Y-85298426D01*
X114768851Y-85280303D01*
X114829767Y-85247743D01*
X115205603Y-85066536D01*
X115251925Y-85048896D01*
X115321294Y-85005385D01*
X115391205Y-84962768D01*
X115395419Y-84958891D01*
X115400275Y-84955845D01*
X115459801Y-84899657D01*
X115520077Y-84844201D01*
X115549311Y-84804161D01*
X116202556Y-84053418D01*
X116859189Y-83312000D01*
X119296477Y-83312000D01*
X119334985Y-83369632D01*
X119541828Y-83576475D01*
X119723994Y-83698195D01*
X119607105Y-83767822D01*
X119390872Y-83962731D01*
X119216819Y-84196080D01*
X119091635Y-84458901D01*
X119046984Y-84606110D01*
X119168305Y-84836000D01*
X120361460Y-84836000D01*
X120361460Y-84816000D01*
X120615460Y-84816000D01*
X120615460Y-84836000D01*
X121808615Y-84836000D01*
X121929936Y-84606110D01*
X121885285Y-84458901D01*
X121760101Y-84196080D01*
X121586048Y-83962731D01*
X121369815Y-83767822D01*
X121252926Y-83698195D01*
X121435092Y-83576475D01*
X121641935Y-83369632D01*
X121804450Y-83126411D01*
X121916392Y-82856158D01*
X121973460Y-82569260D01*
X121973460Y-82276740D01*
X121916392Y-81989842D01*
X121804450Y-81719589D01*
X121641935Y-81476368D01*
X121435092Y-81269525D01*
X121260700Y-81153000D01*
X121435092Y-81036475D01*
X121641935Y-80829632D01*
X121804450Y-80586411D01*
X121916392Y-80316158D01*
X121973460Y-80029260D01*
X121973460Y-79736740D01*
X121916392Y-79449842D01*
X121804450Y-79179589D01*
X121641935Y-78936368D01*
X121435092Y-78729525D01*
X121260700Y-78613000D01*
X121435092Y-78496475D01*
X121641935Y-78289632D01*
X121804450Y-78046411D01*
X121916392Y-77776158D01*
X121973460Y-77489260D01*
X121973460Y-77196740D01*
X121916392Y-76909842D01*
X121804450Y-76639589D01*
X121641935Y-76396368D01*
X121435092Y-76189525D01*
X121260700Y-76073000D01*
X121435092Y-75956475D01*
X121641935Y-75749632D01*
X121804450Y-75506411D01*
X121916392Y-75236158D01*
X121973460Y-74949260D01*
X121973460Y-74656740D01*
X121916392Y-74369842D01*
X121804450Y-74099589D01*
X121641935Y-73856368D01*
X121510080Y-73724513D01*
X121582640Y-73702502D01*
X121692954Y-73643537D01*
X121789645Y-73564185D01*
X121868997Y-73467494D01*
X121927962Y-73357180D01*
X121964272Y-73237482D01*
X121976532Y-73113000D01*
X121976532Y-71413000D01*
X121964272Y-71288518D01*
X121927962Y-71168820D01*
X121868997Y-71058506D01*
X121789645Y-70961815D01*
X121692954Y-70882463D01*
X121582640Y-70823498D01*
X121462942Y-70787188D01*
X121338460Y-70774928D01*
X119638460Y-70774928D01*
X119513978Y-70787188D01*
X119394280Y-70823498D01*
X119283966Y-70882463D01*
X119187275Y-70961815D01*
X119107923Y-71058506D01*
X119048958Y-71168820D01*
X119012648Y-71288518D01*
X119000388Y-71413000D01*
X119000388Y-73113000D01*
X119012648Y-73237482D01*
X119048958Y-73357180D01*
X119107923Y-73467494D01*
X119187275Y-73564185D01*
X119283966Y-73643537D01*
X119394280Y-73702502D01*
X119466840Y-73724513D01*
X119334985Y-73856368D01*
X119172470Y-74099589D01*
X119060528Y-74369842D01*
X119003460Y-74656740D01*
X119003460Y-74949260D01*
X119060528Y-75236158D01*
X119172470Y-75506411D01*
X119334985Y-75749632D01*
X119541828Y-75956475D01*
X119716220Y-76073000D01*
X119541828Y-76189525D01*
X119334985Y-76396368D01*
X119211618Y-76581000D01*
X117323801Y-76581000D01*
X117286378Y-76577314D01*
X117248955Y-76581000D01*
X117248953Y-76581000D01*
X117137001Y-76592026D01*
X116993364Y-76635598D01*
X116860987Y-76706355D01*
X116744957Y-76801578D01*
X116721099Y-76830649D01*
X116119750Y-77431999D01*
X113698407Y-77431999D01*
X113772313Y-77253574D01*
X113827460Y-76976335D01*
X113827460Y-76693665D01*
X113772313Y-76416426D01*
X113664140Y-76155273D01*
X113507097Y-75920241D01*
X113307219Y-75720363D01*
X113155700Y-75619121D01*
X113364591Y-75479545D01*
X113577005Y-75267131D01*
X113743898Y-75017358D01*
X113858855Y-74739826D01*
X113917460Y-74445199D01*
X113917460Y-74144801D01*
X113858855Y-73850174D01*
X113743898Y-73572642D01*
X113577005Y-73322869D01*
X113364591Y-73110455D01*
X113114818Y-72943562D01*
X112837286Y-72828605D01*
X112542659Y-72770000D01*
X112242261Y-72770000D01*
X111947634Y-72828605D01*
X111670102Y-72943562D01*
X111420329Y-73110455D01*
X111207915Y-73322869D01*
X111041022Y-73572642D01*
X110926065Y-73850174D01*
X110867460Y-74144801D01*
X110867460Y-74445199D01*
X110926065Y-74739826D01*
X111041022Y-75017358D01*
X111207915Y-75267131D01*
X111420329Y-75479545D01*
X111629220Y-75619121D01*
X111477701Y-75720363D01*
X111277823Y-75920241D01*
X111260611Y-75946000D01*
X110287279Y-75946000D01*
X110243619Y-75941700D01*
X110199959Y-75946000D01*
X110199953Y-75946000D01*
X110102544Y-75955594D01*
X110069344Y-75958864D01*
X109967678Y-75989704D01*
X109901769Y-76009697D01*
X109747329Y-76092247D01*
X109611961Y-76203341D01*
X109584126Y-76237258D01*
X101164819Y-84656566D01*
X101130902Y-84684401D01*
X101103067Y-84718318D01*
X101103065Y-84718320D01*
X101019808Y-84819769D01*
X100937258Y-84974208D01*
X100886424Y-85141786D01*
X100869260Y-85316060D01*
X100873561Y-85359730D01*
X100873560Y-89900272D01*
X100869259Y-89943940D01*
X100873561Y-89987618D01*
X100873560Y-101843927D01*
X100869260Y-101887587D01*
X100873560Y-101931247D01*
X100873560Y-101931253D01*
X100886424Y-102061860D01*
X100937257Y-102229437D01*
X101019807Y-102383877D01*
X101081036Y-102458485D01*
X100886273Y-102653248D01*
X100707342Y-102921037D01*
X100584092Y-103218588D01*
X100521260Y-103534467D01*
X97878802Y-103534467D01*
X97834701Y-103505000D01*
X98067219Y-103349637D01*
X98267097Y-103149759D01*
X98424140Y-102914727D01*
X98532313Y-102653574D01*
X98587460Y-102376335D01*
X98587460Y-102093665D01*
X98532313Y-101816426D01*
X98424140Y-101555273D01*
X98267097Y-101320241D01*
X98067219Y-101120363D01*
X97834701Y-100965000D01*
X98067219Y-100809637D01*
X98267097Y-100609759D01*
X98424140Y-100374727D01*
X98532313Y-100113574D01*
X98587460Y-99836335D01*
X98587460Y-99553665D01*
X98532313Y-99276426D01*
X98424140Y-99015273D01*
X98267097Y-98780241D01*
X98067219Y-98580363D01*
X97834701Y-98425000D01*
X98067219Y-98269637D01*
X98267097Y-98069759D01*
X98424140Y-97834727D01*
X98532313Y-97573574D01*
X98587460Y-97296335D01*
X98587460Y-97013665D01*
X98532313Y-96736426D01*
X98424140Y-96475273D01*
X98267097Y-96240241D01*
X98067219Y-96040363D01*
X97834701Y-95885000D01*
X98067219Y-95729637D01*
X98267097Y-95529759D01*
X98424140Y-95294727D01*
X98532313Y-95033574D01*
X98587460Y-94756335D01*
X98587460Y-94473665D01*
X98532313Y-94196426D01*
X98424140Y-93935273D01*
X98267097Y-93700241D01*
X98067219Y-93500363D01*
X97834701Y-93345000D01*
X98067219Y-93189637D01*
X98267097Y-92989759D01*
X98424140Y-92754727D01*
X98532313Y-92493574D01*
X98587460Y-92216335D01*
X98587460Y-91933665D01*
X98532313Y-91656426D01*
X98424140Y-91395273D01*
X98267097Y-91160241D01*
X98067219Y-90960363D01*
X97834701Y-90805000D01*
X98067219Y-90649637D01*
X98267097Y-90449759D01*
X98424140Y-90214727D01*
X98532313Y-89953574D01*
X98587460Y-89676335D01*
X98587460Y-89393665D01*
X98532313Y-89116426D01*
X98424140Y-88855273D01*
X98267097Y-88620241D01*
X98067219Y-88420363D01*
X97834701Y-88265000D01*
X98067219Y-88109637D01*
X98267097Y-87909759D01*
X98424140Y-87674727D01*
X98532313Y-87413574D01*
X98587460Y-87136335D01*
X98587460Y-86853665D01*
X98532313Y-86576426D01*
X98424140Y-86315273D01*
X98267097Y-86080241D01*
X98067219Y-85880363D01*
X97832187Y-85723320D01*
X97821595Y-85718933D01*
X98007591Y-85607385D01*
X98215979Y-85418414D01*
X98383497Y-85192420D01*
X98503706Y-84938087D01*
X98544364Y-84804039D01*
X98422375Y-84582000D01*
X97279460Y-84582000D01*
X97279460Y-84602000D01*
X97025460Y-84602000D01*
X97025460Y-84582000D01*
X95882545Y-84582000D01*
X95760556Y-84804039D01*
X95801214Y-84938087D01*
X95921423Y-85192420D01*
X96088941Y-85418414D01*
X96297329Y-85607385D01*
X96483325Y-85718933D01*
X96472733Y-85723320D01*
X96237701Y-85880363D01*
X96037823Y-86080241D01*
X95880780Y-86315273D01*
X95772607Y-86576426D01*
X95717460Y-86853665D01*
X95717460Y-87136335D01*
X95772607Y-87413574D01*
X95880780Y-87674727D01*
X96037823Y-87909759D01*
X96237701Y-88109637D01*
X96470219Y-88265000D01*
X96237701Y-88420363D01*
X96037823Y-88620241D01*
X95880780Y-88855273D01*
X95772607Y-89116426D01*
X95717460Y-89393665D01*
X95717460Y-89676335D01*
X95772607Y-89953574D01*
X95880780Y-90214727D01*
X96037823Y-90449759D01*
X96237701Y-90649637D01*
X96470219Y-90805000D01*
X96237701Y-90960363D01*
X96037823Y-91160241D01*
X95880780Y-91395273D01*
X95772607Y-91656426D01*
X95717460Y-91933665D01*
X95717460Y-92216335D01*
X95772607Y-92493574D01*
X95880780Y-92754727D01*
X96037823Y-92989759D01*
X96237701Y-93189637D01*
X96470219Y-93345000D01*
X96237701Y-93500363D01*
X96037823Y-93700241D01*
X95932378Y-93858051D01*
X95871712Y-93864026D01*
X95728075Y-93907598D01*
X95712057Y-93916160D01*
X95595697Y-93978355D01*
X95553309Y-94013143D01*
X95479668Y-94073578D01*
X95455806Y-94102654D01*
X92240834Y-97317626D01*
X92211758Y-97341488D01*
X92156163Y-97409232D01*
X92116535Y-97457518D01*
X92078715Y-97528275D01*
X92045778Y-97589896D01*
X92002206Y-97733533D01*
X91992240Y-97834727D01*
X91987494Y-97882910D01*
X91991180Y-97920333D01*
X91991181Y-110164208D01*
X90867019Y-111288371D01*
X90856591Y-111297585D01*
X90845791Y-111309202D01*
X90807256Y-111346210D01*
X90794820Y-111364031D01*
X90626229Y-111545382D01*
X90477312Y-111396465D01*
X90302920Y-111279940D01*
X90477312Y-111163415D01*
X90684155Y-110956572D01*
X90846670Y-110713351D01*
X90958612Y-110443098D01*
X91015680Y-110156200D01*
X91015680Y-109863680D01*
X90958612Y-109576782D01*
X90846670Y-109306529D01*
X90684155Y-109063308D01*
X90477312Y-108856465D01*
X90295146Y-108734745D01*
X90412035Y-108665118D01*
X90628268Y-108470209D01*
X90802321Y-108236860D01*
X90927505Y-107974039D01*
X90972156Y-107826830D01*
X90850835Y-107596940D01*
X89657680Y-107596940D01*
X89657680Y-107616940D01*
X89403680Y-107616940D01*
X89403680Y-107596940D01*
X88210525Y-107596940D01*
X88089204Y-107826830D01*
X88133855Y-107974039D01*
X88259039Y-108236860D01*
X88433092Y-108470209D01*
X88649325Y-108665118D01*
X88766214Y-108734745D01*
X88584048Y-108856465D01*
X88377205Y-109063308D01*
X88214690Y-109306529D01*
X88102748Y-109576782D01*
X88045680Y-109863680D01*
X88045680Y-110156200D01*
X88102748Y-110443098D01*
X88214690Y-110713351D01*
X88377205Y-110956572D01*
X88584048Y-111163415D01*
X88758440Y-111279940D01*
X88584048Y-111396465D01*
X88377205Y-111603308D01*
X88214690Y-111846529D01*
X88102748Y-112116782D01*
X88045680Y-112403680D01*
X88045680Y-112696200D01*
X88102748Y-112983098D01*
X88214690Y-113253351D01*
X88377205Y-113496572D01*
X88584048Y-113703415D01*
X88758440Y-113819940D01*
X88584048Y-113936465D01*
X88377205Y-114143308D01*
X88214690Y-114386529D01*
X88102748Y-114656782D01*
X88045680Y-114943680D01*
X88045680Y-115236200D01*
X88102748Y-115523098D01*
X88214690Y-115793351D01*
X88377205Y-116036572D01*
X88584048Y-116243415D01*
X88758440Y-116359940D01*
X88584048Y-116476465D01*
X88377205Y-116683308D01*
X88214690Y-116926529D01*
X88102748Y-117196782D01*
X88045680Y-117483680D01*
X88045680Y-117776200D01*
X88102748Y-118063098D01*
X88214690Y-118333351D01*
X88377205Y-118576572D01*
X88509060Y-118708427D01*
X88436500Y-118730438D01*
X88326186Y-118789403D01*
X88229495Y-118868755D01*
X88150143Y-118965446D01*
X88091178Y-119075760D01*
X88054868Y-119195458D01*
X88042608Y-119319940D01*
X84467700Y-119319940D01*
X84467700Y-102243680D01*
X88045680Y-102243680D01*
X88045680Y-102536200D01*
X88102748Y-102823098D01*
X88214690Y-103093351D01*
X88377205Y-103336572D01*
X88584048Y-103543415D01*
X88758440Y-103659940D01*
X88584048Y-103776465D01*
X88377205Y-103983308D01*
X88214690Y-104226529D01*
X88102748Y-104496782D01*
X88045680Y-104783680D01*
X88045680Y-105076200D01*
X88102748Y-105363098D01*
X88214690Y-105633351D01*
X88377205Y-105876572D01*
X88584048Y-106083415D01*
X88766214Y-106205135D01*
X88649325Y-106274762D01*
X88433092Y-106469671D01*
X88259039Y-106703020D01*
X88133855Y-106965841D01*
X88089204Y-107113050D01*
X88210525Y-107342940D01*
X89403680Y-107342940D01*
X89403680Y-107322940D01*
X89657680Y-107322940D01*
X89657680Y-107342940D01*
X90850835Y-107342940D01*
X90972156Y-107113050D01*
X90927505Y-106965841D01*
X90802321Y-106703020D01*
X90628268Y-106469671D01*
X90412035Y-106274762D01*
X90295146Y-106205135D01*
X90477312Y-106083415D01*
X90684155Y-105876572D01*
X90846670Y-105633351D01*
X90958612Y-105363098D01*
X91015680Y-105076200D01*
X91015680Y-104783680D01*
X90958612Y-104496782D01*
X90846670Y-104226529D01*
X90684155Y-103983308D01*
X90477312Y-103776465D01*
X90302920Y-103659940D01*
X90477312Y-103543415D01*
X90684155Y-103336572D01*
X90846670Y-103093351D01*
X90958612Y-102823098D01*
X91015680Y-102536200D01*
X91015680Y-102243680D01*
X90958612Y-101956782D01*
X90846670Y-101686529D01*
X90684155Y-101443308D01*
X90477312Y-101236465D01*
X90234091Y-101073950D01*
X89963838Y-100962008D01*
X89676940Y-100904940D01*
X89384420Y-100904940D01*
X89097522Y-100962008D01*
X88827269Y-101073950D01*
X88584048Y-101236465D01*
X88377205Y-101443308D01*
X88214690Y-101686529D01*
X88102748Y-101956782D01*
X88045680Y-102243680D01*
X84467700Y-102243680D01*
X84467700Y-74144801D01*
X95627460Y-74144801D01*
X95627460Y-74445199D01*
X95686065Y-74739826D01*
X95801022Y-75017358D01*
X95967915Y-75267131D01*
X96137437Y-75436653D01*
X96108280Y-75445498D01*
X95997966Y-75504463D01*
X95901275Y-75583815D01*
X95821923Y-75680506D01*
X95762958Y-75790820D01*
X95726648Y-75910518D01*
X95714388Y-76035000D01*
X95714388Y-77635000D01*
X95726648Y-77759482D01*
X95762958Y-77879180D01*
X95821923Y-77989494D01*
X95901275Y-78086185D01*
X95997966Y-78165537D01*
X96108280Y-78224502D01*
X96227978Y-78260812D01*
X96236421Y-78261643D01*
X96037823Y-78460241D01*
X95880780Y-78695273D01*
X95772607Y-78956426D01*
X95717460Y-79233665D01*
X95717460Y-79516335D01*
X95772607Y-79793574D01*
X95880780Y-80054727D01*
X96037823Y-80289759D01*
X96237701Y-80489637D01*
X96470219Y-80645000D01*
X96237701Y-80800363D01*
X96037823Y-81000241D01*
X95880780Y-81235273D01*
X95772607Y-81496426D01*
X95717460Y-81773665D01*
X95717460Y-82056335D01*
X95772607Y-82333574D01*
X95880780Y-82594727D01*
X96037823Y-82829759D01*
X96237701Y-83029637D01*
X96472733Y-83186680D01*
X96483325Y-83191067D01*
X96297329Y-83302615D01*
X96088941Y-83491586D01*
X95921423Y-83717580D01*
X95801214Y-83971913D01*
X95760556Y-84105961D01*
X95882545Y-84328000D01*
X97025460Y-84328000D01*
X97025460Y-84308000D01*
X97279460Y-84308000D01*
X97279460Y-84328000D01*
X98422375Y-84328000D01*
X98544364Y-84105961D01*
X98503706Y-83971913D01*
X98383497Y-83717580D01*
X98215979Y-83491586D01*
X98007591Y-83302615D01*
X97821595Y-83191067D01*
X97832187Y-83186680D01*
X98067219Y-83029637D01*
X98267097Y-82829759D01*
X98424140Y-82594727D01*
X98532313Y-82333574D01*
X98587460Y-82056335D01*
X98587460Y-81773665D01*
X98532313Y-81496426D01*
X98424140Y-81235273D01*
X98267097Y-81000241D01*
X98067219Y-80800363D01*
X97834701Y-80645000D01*
X98067219Y-80489637D01*
X98267097Y-80289759D01*
X98424140Y-80054727D01*
X98532313Y-79793574D01*
X98587460Y-79516335D01*
X98587460Y-79233665D01*
X98532313Y-78956426D01*
X98424140Y-78695273D01*
X98267097Y-78460241D01*
X98068499Y-78261643D01*
X98076942Y-78260812D01*
X98196640Y-78224502D01*
X98306954Y-78165537D01*
X98403645Y-78086185D01*
X98482997Y-77989494D01*
X98541962Y-77879180D01*
X98578272Y-77759482D01*
X98590532Y-77635000D01*
X98590532Y-76035000D01*
X98578272Y-75910518D01*
X98541962Y-75790820D01*
X98482997Y-75680506D01*
X98403645Y-75583815D01*
X98306954Y-75504463D01*
X98196640Y-75445498D01*
X98167483Y-75436653D01*
X98337005Y-75267131D01*
X98503898Y-75017358D01*
X98618855Y-74739826D01*
X98677460Y-74445199D01*
X98677460Y-74144801D01*
X98618855Y-73850174D01*
X98503898Y-73572642D01*
X98337005Y-73322869D01*
X98124591Y-73110455D01*
X97874818Y-72943562D01*
X97597286Y-72828605D01*
X97302659Y-72770000D01*
X97002261Y-72770000D01*
X96707634Y-72828605D01*
X96430102Y-72943562D01*
X96180329Y-73110455D01*
X95967915Y-73322869D01*
X95801022Y-73572642D01*
X95686065Y-73850174D01*
X95627460Y-74144801D01*
X84467700Y-74144801D01*
X84467700Y-54385296D01*
X85348539Y-54385296D01*
X85348539Y-54834704D01*
X85436214Y-55275478D01*
X85608196Y-55690677D01*
X85857874Y-56064347D01*
X86175653Y-56382126D01*
X86549323Y-56631804D01*
X86964522Y-56803786D01*
X87405296Y-56891461D01*
X87854704Y-56891461D01*
X88295478Y-56803786D01*
X88710677Y-56631804D01*
X89084347Y-56382126D01*
X89402126Y-56064347D01*
X89651804Y-55690677D01*
X89823786Y-55275478D01*
X89911461Y-54834704D01*
X89911461Y-54385296D01*
X89823786Y-53944522D01*
X89651804Y-53529323D01*
X89402126Y-53155653D01*
X89084347Y-52837874D01*
X88710677Y-52588196D01*
X88295478Y-52416214D01*
X87854704Y-52328539D01*
X87405296Y-52328539D01*
X86964522Y-52416214D01*
X86549323Y-52588196D01*
X86175653Y-52837874D01*
X85857874Y-53155653D01*
X85608196Y-53529323D01*
X85436214Y-53944522D01*
X85348539Y-54385296D01*
X84467700Y-54385296D01*
X84467700Y-46605654D01*
X100913191Y-46605654D01*
X100913191Y-46739343D01*
X100915000Y-46748479D01*
X100915001Y-54326147D01*
X100915235Y-54328521D01*
X100915264Y-54332702D01*
X100918516Y-54363646D01*
X100918516Y-54394770D01*
X100919516Y-54404282D01*
X100974718Y-54896421D01*
X100987622Y-54957129D01*
X100999686Y-55018054D01*
X101002514Y-55027190D01*
X101152256Y-55499234D01*
X101176714Y-55556299D01*
X101200372Y-55613697D01*
X101204920Y-55622110D01*
X101443496Y-56056080D01*
X101478579Y-56107318D01*
X101512930Y-56159020D01*
X101519021Y-56166382D01*
X101519026Y-56166389D01*
X101519032Y-56166394D01*
X101837352Y-56545755D01*
X101881710Y-56589193D01*
X101925457Y-56633247D01*
X101932869Y-56639292D01*
X102318816Y-56949601D01*
X102370742Y-56983580D01*
X102422237Y-57018314D01*
X102430682Y-57022804D01*
X102869552Y-57252240D01*
X102927129Y-57275503D01*
X102984350Y-57299556D01*
X102993506Y-57302321D01*
X103468583Y-57442144D01*
X103529604Y-57453784D01*
X103590385Y-57466261D01*
X103599903Y-57467195D01*
X104093091Y-57512079D01*
X104155175Y-57511645D01*
X104217258Y-57512079D01*
X104226777Y-57511146D01*
X104719289Y-57459381D01*
X104780114Y-57446895D01*
X104841090Y-57435263D01*
X104850246Y-57432499D01*
X105323325Y-57286057D01*
X105380566Y-57261995D01*
X105438124Y-57238740D01*
X105446569Y-57234250D01*
X105882193Y-56998709D01*
X105933656Y-56963997D01*
X105985613Y-56929997D01*
X105993025Y-56923952D01*
X106374603Y-56608284D01*
X106418333Y-56564247D01*
X106462708Y-56520792D01*
X106468805Y-56513422D01*
X106781803Y-56129649D01*
X106816164Y-56077931D01*
X106851236Y-56026710D01*
X106855785Y-56018297D01*
X107088279Y-55581039D01*
X107111942Y-55523629D01*
X107136395Y-55466574D01*
X107139224Y-55457438D01*
X107282360Y-54983349D01*
X107294417Y-54922456D01*
X107307327Y-54861719D01*
X107308327Y-54852207D01*
X107347630Y-54451370D01*
X107355088Y-54426783D01*
X107359174Y-54385296D01*
X118368539Y-54385296D01*
X118368539Y-54834704D01*
X118456214Y-55275478D01*
X118628196Y-55690677D01*
X118877874Y-56064347D01*
X119195653Y-56382126D01*
X119569323Y-56631804D01*
X119984522Y-56803786D01*
X120425296Y-56891461D01*
X120874704Y-56891461D01*
X121315478Y-56803786D01*
X121730677Y-56631804D01*
X122104347Y-56382126D01*
X122422126Y-56064347D01*
X122671804Y-55690677D01*
X122843786Y-55275478D01*
X122931461Y-54834704D01*
X122931461Y-54385296D01*
X122843786Y-53944522D01*
X122671804Y-53529323D01*
X122422126Y-53155653D01*
X122104347Y-52837874D01*
X121730677Y-52588196D01*
X121315478Y-52416214D01*
X120874704Y-52328539D01*
X120425296Y-52328539D01*
X119984522Y-52416214D01*
X119569323Y-52588196D01*
X119195653Y-52837874D01*
X118877874Y-53155653D01*
X118628196Y-53529323D01*
X118456214Y-53944522D01*
X118368539Y-54385296D01*
X107359174Y-54385296D01*
X107365000Y-54326147D01*
X107365000Y-46638853D01*
X107364765Y-46636464D01*
X107364735Y-46632216D01*
X107361483Y-46601277D01*
X107361483Y-46570157D01*
X107360483Y-46560646D01*
X107305171Y-46067521D01*
X107292263Y-46006791D01*
X107280204Y-45945890D01*
X107277376Y-45936753D01*
X107127335Y-45463764D01*
X107102861Y-45406663D01*
X107079218Y-45349300D01*
X107074669Y-45340886D01*
X107074669Y-45340885D01*
X107074666Y-45340881D01*
X106835615Y-44906048D01*
X106800533Y-44854812D01*
X106766182Y-44803109D01*
X106760086Y-44795740D01*
X106441123Y-44415615D01*
X106396746Y-44372158D01*
X106353018Y-44328124D01*
X106345607Y-44322079D01*
X105958887Y-44011148D01*
X105906977Y-43977179D01*
X105855466Y-43942435D01*
X105847022Y-43937945D01*
X105407273Y-43708049D01*
X105349689Y-43684784D01*
X105292473Y-43660732D01*
X105283321Y-43657969D01*
X105283315Y-43657967D01*
X104807289Y-43517866D01*
X104746282Y-43506228D01*
X104685488Y-43493749D01*
X104675970Y-43492815D01*
X104181796Y-43447841D01*
X104119712Y-43448275D01*
X104057628Y-43447841D01*
X104048109Y-43448775D01*
X103554612Y-43500644D01*
X103493818Y-43513123D01*
X103432811Y-43524761D01*
X103423655Y-43527525D01*
X102949629Y-43674260D01*
X102892375Y-43698328D01*
X102834831Y-43721577D01*
X102826386Y-43726066D01*
X102389890Y-43962078D01*
X102338418Y-43996797D01*
X102286469Y-44030791D01*
X102279057Y-44036836D01*
X101896715Y-44353136D01*
X101852967Y-44397191D01*
X101808609Y-44440629D01*
X101802512Y-44447999D01*
X101488889Y-44832540D01*
X101454507Y-44884289D01*
X101419458Y-44935477D01*
X101414908Y-44943890D01*
X101181948Y-45382023D01*
X101158269Y-45439473D01*
X101133832Y-45496488D01*
X101131003Y-45505624D01*
X100987580Y-45980662D01*
X100975517Y-46041584D01*
X100962613Y-46102294D01*
X100961613Y-46111806D01*
X100913191Y-46605654D01*
X84467700Y-46605654D01*
X84467700Y-42557700D01*
X123812300Y-42557700D01*
X123812301Y-149212300D01*
G36*
X119334985Y-78289632D02*
G01*
X119541828Y-78496475D01*
X119716220Y-78613000D01*
X119541828Y-78729525D01*
X119334985Y-78936368D01*
X119172470Y-79179589D01*
X119060528Y-79449842D01*
X119003460Y-79736740D01*
X119003460Y-80029260D01*
X119060528Y-80316158D01*
X119172470Y-80586411D01*
X119334985Y-80829632D01*
X119541828Y-81036475D01*
X119716220Y-81153000D01*
X119541828Y-81269525D01*
X119334985Y-81476368D01*
X119296477Y-81534000D01*
X116475688Y-81534000D01*
X116404924Y-81531338D01*
X116345062Y-81540921D01*
X116284726Y-81546864D01*
X116258783Y-81554734D01*
X116232008Y-81559020D01*
X116175162Y-81580099D01*
X116117149Y-81597697D01*
X116093237Y-81610478D01*
X116067815Y-81619905D01*
X116016179Y-81651667D01*
X115962709Y-81680247D01*
X115941747Y-81697450D01*
X115918657Y-81711653D01*
X115874208Y-81752878D01*
X115827341Y-81791341D01*
X115782416Y-81846082D01*
X114895288Y-82847758D01*
X114892447Y-82850440D01*
X114866311Y-82880476D01*
X114839971Y-82910218D01*
X114837685Y-82913376D01*
X114303020Y-83527842D01*
X114223877Y-83566000D01*
X113524309Y-83566000D01*
X113507097Y-83540241D01*
X113307219Y-83340363D01*
X113074701Y-83185000D01*
X113307219Y-83029637D01*
X113507097Y-82829759D01*
X113664140Y-82594727D01*
X113772313Y-82333574D01*
X113827460Y-82056335D01*
X113827460Y-81773665D01*
X113772313Y-81496426D01*
X113664140Y-81235273D01*
X113507097Y-81000241D01*
X113307219Y-80800363D01*
X113072187Y-80643320D01*
X113061595Y-80638933D01*
X113247591Y-80527385D01*
X113455979Y-80338414D01*
X113623497Y-80112420D01*
X113743706Y-79858087D01*
X113784364Y-79724039D01*
X113662375Y-79502000D01*
X112519460Y-79502000D01*
X112519460Y-79522000D01*
X112265460Y-79522000D01*
X112265460Y-79502000D01*
X112245460Y-79502000D01*
X112245460Y-79248000D01*
X112265460Y-79248000D01*
X112265460Y-79228000D01*
X112519460Y-79228000D01*
X112519460Y-79248000D01*
X113662375Y-79248000D01*
X113784364Y-79025961D01*
X113763144Y-78955999D01*
X116397957Y-78955999D01*
X116435380Y-78959685D01*
X116472803Y-78955999D01*
X116472806Y-78955999D01*
X116584758Y-78944973D01*
X116728395Y-78901401D01*
X116860772Y-78830644D01*
X116976802Y-78735421D01*
X117000664Y-78706346D01*
X117602010Y-78105000D01*
X119211618Y-78105000D01*
X119334985Y-78289632D01*
G37*
X119334985Y-78289632D02*
X119541828Y-78496475D01*
X119716220Y-78613000D01*
X119541828Y-78729525D01*
X119334985Y-78936368D01*
X119172470Y-79179589D01*
X119060528Y-79449842D01*
X119003460Y-79736740D01*
X119003460Y-80029260D01*
X119060528Y-80316158D01*
X119172470Y-80586411D01*
X119334985Y-80829632D01*
X119541828Y-81036475D01*
X119716220Y-81153000D01*
X119541828Y-81269525D01*
X119334985Y-81476368D01*
X119296477Y-81534000D01*
X116475688Y-81534000D01*
X116404924Y-81531338D01*
X116345062Y-81540921D01*
X116284726Y-81546864D01*
X116258783Y-81554734D01*
X116232008Y-81559020D01*
X116175162Y-81580099D01*
X116117149Y-81597697D01*
X116093237Y-81610478D01*
X116067815Y-81619905D01*
X116016179Y-81651667D01*
X115962709Y-81680247D01*
X115941747Y-81697450D01*
X115918657Y-81711653D01*
X115874208Y-81752878D01*
X115827341Y-81791341D01*
X115782416Y-81846082D01*
X114895288Y-82847758D01*
X114892447Y-82850440D01*
X114866311Y-82880476D01*
X114839971Y-82910218D01*
X114837685Y-82913376D01*
X114303020Y-83527842D01*
X114223877Y-83566000D01*
X113524309Y-83566000D01*
X113507097Y-83540241D01*
X113307219Y-83340363D01*
X113074701Y-83185000D01*
X113307219Y-83029637D01*
X113507097Y-82829759D01*
X113664140Y-82594727D01*
X113772313Y-82333574D01*
X113827460Y-82056335D01*
X113827460Y-81773665D01*
X113772313Y-81496426D01*
X113664140Y-81235273D01*
X113507097Y-81000241D01*
X113307219Y-80800363D01*
X113072187Y-80643320D01*
X113061595Y-80638933D01*
X113247591Y-80527385D01*
X113455979Y-80338414D01*
X113623497Y-80112420D01*
X113743706Y-79858087D01*
X113784364Y-79724039D01*
X113662375Y-79502000D01*
X112519460Y-79502000D01*
X112519460Y-79522000D01*
X112265460Y-79522000D01*
X112265460Y-79502000D01*
X112245460Y-79502000D01*
X112245460Y-79248000D01*
X112265460Y-79248000D01*
X112265460Y-79228000D01*
X112519460Y-79228000D01*
X112519460Y-79248000D01*
X113662375Y-79248000D01*
X113784364Y-79025961D01*
X113763144Y-78955999D01*
X116397957Y-78955999D01*
X116435380Y-78959685D01*
X116472803Y-78955999D01*
X116472806Y-78955999D01*
X116584758Y-78944973D01*
X116728395Y-78901401D01*
X116860772Y-78830644D01*
X116976802Y-78735421D01*
X117000664Y-78706346D01*
X117602010Y-78105000D01*
X119211618Y-78105000D01*
X119334985Y-78289632D01*
M02*
