G04 #@! TF.GenerationSoftware,KiCad,Pcbnew,(5.1.5)-3*
G04 #@! TF.CreationDate,2020-07-28T07:49:15-07:00*
G04 #@! TF.ProjectId,Plug_Pass,506c7567-5f50-4617-9373-2e6b69636164,v2.2*
G04 #@! TF.SameCoordinates,Original*
G04 #@! TF.FileFunction,Copper,L2,Bot*
G04 #@! TF.FilePolarity,Positive*
%FSLAX46Y46*%
G04 Gerber Fmt 4.6, Leading zero omitted, Abs format (unit mm)*
G04 Created by KiCad (PCBNEW (5.1.5)-3) date 2020-07-28 07:49:15*
%MOMM*%
%LPD*%
G04 APERTURE LIST*
%ADD10C,2.500000*%
%ADD11R,3.500000X3.500000*%
%ADD12C,3.700000*%
%ADD13R,3.000000X3.000000*%
%ADD14C,3.000000*%
%ADD15O,1.700000X1.700000*%
%ADD16R,1.700000X1.700000*%
%ADD17R,6.000001X6.000001*%
%ADD18C,3.600000*%
%ADD19R,3.600000X3.600000*%
%ADD20C,2.000000*%
%ADD21R,2.000000X2.000000*%
%ADD22C,1.160000*%
%ADD23C,0.508000*%
%ADD24C,0.254000*%
G04 APERTURE END LIST*
D10*
X161878200Y-60502800D03*
X161878200Y-70662800D03*
D11*
X149178200Y-56692800D03*
D12*
X146638200Y-74472800D03*
X139018200Y-74472800D03*
D13*
X133604000Y-94996000D03*
D14*
X172104000Y-92246000D03*
X133604000Y-84246000D03*
X172104000Y-84246000D03*
D15*
X170180000Y-75692000D03*
X170180000Y-73152000D03*
X170180000Y-70612000D03*
X170180000Y-68072000D03*
X170180000Y-65532000D03*
D16*
X170180000Y-62992000D03*
D17*
X173736000Y-123444000D03*
X173736000Y-56388000D03*
X132080000Y-123444000D03*
X132080000Y-56388000D03*
D18*
X154740000Y-122174000D03*
D19*
X142240000Y-122174000D03*
D20*
X168656000Y-124968000D03*
X161036000Y-124968000D03*
X168656000Y-119888000D03*
X161036000Y-119888000D03*
X158496000Y-124968000D03*
D21*
X158496000Y-119888000D03*
D22*
X146304000Y-87376000D03*
X146304000Y-95504000D03*
X148844000Y-110236000D03*
X148844000Y-90932000D03*
X151384000Y-111760000D03*
X151384000Y-87376000D03*
X153924000Y-113792000D03*
X153924000Y-90932000D03*
X142748000Y-94488000D03*
X156464000Y-82296000D03*
D23*
X146304000Y-88392000D02*
X146304000Y-87376000D01*
X146304000Y-95504000D02*
X146304000Y-88392000D01*
X148844000Y-110236000D02*
X148844000Y-90932000D01*
X151384000Y-111760000D02*
X151384000Y-87376000D01*
X153924000Y-113792000D02*
X153924000Y-90932000D01*
X145288000Y-82296000D02*
X156464000Y-82296000D01*
X142748000Y-94488000D02*
X142748000Y-84836000D01*
X142748000Y-84836000D02*
X145288000Y-82296000D01*
X170180000Y-73152000D02*
X169164000Y-73152000D01*
X160020000Y-82296000D02*
X156464000Y-82296000D01*
X169164000Y-73152000D02*
X160020000Y-82296000D01*
X156464000Y-82296000D02*
X156464000Y-82296000D01*
X172104000Y-116440000D02*
X172104000Y-92246000D01*
X168656000Y-119888000D02*
X172104000Y-116440000D01*
X168656000Y-119888000D02*
X168656000Y-124968000D01*
X158496000Y-124968000D02*
X163068000Y-120396000D01*
X163645966Y-60502800D02*
X161878200Y-60502800D01*
X174112001Y-64309599D02*
X170305202Y-60502800D01*
X174112001Y-87266157D02*
X174112001Y-64309599D01*
X163068000Y-98310158D02*
X174112001Y-87266157D01*
X170305202Y-60502800D02*
X163645966Y-60502800D01*
X163068000Y-120396000D02*
X163068000Y-98310158D01*
D24*
G36*
X170101000Y-56102250D02*
G01*
X170259750Y-56261000D01*
X173609000Y-56261000D01*
X173609000Y-56241000D01*
X173863000Y-56241000D01*
X173863000Y-56261000D01*
X173883000Y-56261000D01*
X173883000Y-56515000D01*
X173863000Y-56515000D01*
X173863000Y-59864250D01*
X174021750Y-60023000D01*
X176136300Y-60025393D01*
X176136301Y-119806607D01*
X174021750Y-119809000D01*
X173863000Y-119967750D01*
X173863000Y-123317000D01*
X173883000Y-123317000D01*
X173883000Y-123571000D01*
X173863000Y-123571000D01*
X173863000Y-123591000D01*
X173609000Y-123591000D01*
X173609000Y-123571000D01*
X170259750Y-123571000D01*
X170101000Y-123729750D01*
X170100483Y-124186899D01*
X169925987Y-123925748D01*
X169698252Y-123698013D01*
X169545000Y-123595613D01*
X169545000Y-121260387D01*
X169698252Y-121157987D01*
X169925987Y-120930252D01*
X170098187Y-120672537D01*
X170101000Y-123158250D01*
X170259750Y-123317000D01*
X173609000Y-123317000D01*
X173609000Y-119967750D01*
X173450250Y-119809000D01*
X170736000Y-119805928D01*
X170611518Y-119818188D01*
X170491820Y-119854498D01*
X170381506Y-119913463D01*
X170291000Y-119987739D01*
X170291000Y-119726967D01*
X170255042Y-119546193D01*
X172701737Y-117099498D01*
X172735659Y-117071659D01*
X172846753Y-116936291D01*
X172929303Y-116781851D01*
X172949296Y-116715942D01*
X172980136Y-116614276D01*
X172983406Y-116581076D01*
X172993000Y-116483667D01*
X172993000Y-116483661D01*
X172997300Y-116440001D01*
X172993000Y-116396341D01*
X172993000Y-94188671D01*
X173115302Y-94138012D01*
X173464983Y-93904363D01*
X173762363Y-93606983D01*
X173996012Y-93257302D01*
X174156953Y-92868756D01*
X174239000Y-92456279D01*
X174239000Y-92035721D01*
X174156953Y-91623244D01*
X173996012Y-91234698D01*
X173762363Y-90885017D01*
X173464983Y-90587637D01*
X173115302Y-90353988D01*
X172726756Y-90193047D01*
X172489533Y-90145860D01*
X174709744Y-87925650D01*
X174743660Y-87897816D01*
X174854754Y-87762448D01*
X174937304Y-87608008D01*
X174988137Y-87440431D01*
X175001001Y-87309824D01*
X175001001Y-87309817D01*
X175005301Y-87266157D01*
X175001001Y-87222497D01*
X175001001Y-64353259D01*
X175005301Y-64309599D01*
X175001001Y-64265939D01*
X175001001Y-64265932D01*
X174988137Y-64135325D01*
X174978656Y-64104068D01*
X174937303Y-63967746D01*
X174854753Y-63813307D01*
X174771496Y-63711858D01*
X174771495Y-63711857D01*
X174743660Y-63677940D01*
X174709743Y-63650105D01*
X171085314Y-60025677D01*
X173450250Y-60023000D01*
X173609000Y-59864250D01*
X173609000Y-56515000D01*
X170259750Y-56515000D01*
X170101000Y-56673750D01*
X170097928Y-59388000D01*
X170110188Y-59512482D01*
X170140922Y-59613800D01*
X163550274Y-59613800D01*
X163548666Y-59609918D01*
X163342375Y-59301182D01*
X163079818Y-59038625D01*
X162771082Y-58832334D01*
X162428034Y-58690239D01*
X162063856Y-58617800D01*
X161692544Y-58617800D01*
X161328366Y-58690239D01*
X160985318Y-58832334D01*
X160676582Y-59038625D01*
X160414025Y-59301182D01*
X160207734Y-59609918D01*
X160065639Y-59952966D01*
X159993200Y-60317144D01*
X159993200Y-60688456D01*
X160065639Y-61052634D01*
X160207734Y-61395682D01*
X160414025Y-61704418D01*
X160676582Y-61966975D01*
X160985318Y-62173266D01*
X161328366Y-62315361D01*
X161692544Y-62387800D01*
X162063856Y-62387800D01*
X162428034Y-62315361D01*
X162771082Y-62173266D01*
X163079818Y-61966975D01*
X163342375Y-61704418D01*
X163548666Y-61395682D01*
X163550274Y-61391800D01*
X169936967Y-61391800D01*
X170049095Y-61503928D01*
X169330000Y-61503928D01*
X169205518Y-61516188D01*
X169085820Y-61552498D01*
X168975506Y-61611463D01*
X168878815Y-61690815D01*
X168799463Y-61787506D01*
X168740498Y-61897820D01*
X168704188Y-62017518D01*
X168691928Y-62142000D01*
X168691928Y-63842000D01*
X168704188Y-63966482D01*
X168740498Y-64086180D01*
X168799463Y-64196494D01*
X168878815Y-64293185D01*
X168975506Y-64372537D01*
X169085820Y-64431502D01*
X169158380Y-64453513D01*
X169026525Y-64585368D01*
X168864010Y-64828589D01*
X168752068Y-65098842D01*
X168695000Y-65385740D01*
X168695000Y-65678260D01*
X168752068Y-65965158D01*
X168864010Y-66235411D01*
X169026525Y-66478632D01*
X169233368Y-66685475D01*
X169407760Y-66802000D01*
X169233368Y-66918525D01*
X169026525Y-67125368D01*
X168864010Y-67368589D01*
X168752068Y-67638842D01*
X168695000Y-67925740D01*
X168695000Y-68218260D01*
X168752068Y-68505158D01*
X168864010Y-68775411D01*
X169026525Y-69018632D01*
X169233368Y-69225475D01*
X169407760Y-69342000D01*
X169233368Y-69458525D01*
X169026525Y-69665368D01*
X168864010Y-69908589D01*
X168752068Y-70178842D01*
X168695000Y-70465740D01*
X168695000Y-70758260D01*
X168752068Y-71045158D01*
X168864010Y-71315411D01*
X169026525Y-71558632D01*
X169233368Y-71765475D01*
X169407760Y-71882000D01*
X169233368Y-71998525D01*
X169026525Y-72205368D01*
X168976802Y-72279784D01*
X168916758Y-72297998D01*
X168822149Y-72326697D01*
X168667709Y-72409247D01*
X168532341Y-72520341D01*
X168504506Y-72554258D01*
X159651765Y-81407000D01*
X157293269Y-81407000D01*
X157238517Y-81352248D01*
X157039518Y-81219281D01*
X156818402Y-81127692D01*
X156583667Y-81081000D01*
X156344333Y-81081000D01*
X156109598Y-81127692D01*
X155888482Y-81219281D01*
X155689483Y-81352248D01*
X155634731Y-81407000D01*
X145331659Y-81407000D01*
X145287999Y-81402700D01*
X145244339Y-81407000D01*
X145244333Y-81407000D01*
X145146924Y-81416594D01*
X145113724Y-81419864D01*
X145012058Y-81450704D01*
X144946149Y-81470697D01*
X144791709Y-81553247D01*
X144656341Y-81664341D01*
X144628506Y-81698258D01*
X142150259Y-84176506D01*
X142116342Y-84204341D01*
X142088507Y-84238258D01*
X142088505Y-84238260D01*
X142005248Y-84339709D01*
X141922698Y-84494148D01*
X141871864Y-84661726D01*
X141854700Y-84836000D01*
X141859001Y-84879670D01*
X141859000Y-93658731D01*
X141804248Y-93713483D01*
X141671281Y-93912482D01*
X141579692Y-94133598D01*
X141533000Y-94368333D01*
X141533000Y-94607667D01*
X141579692Y-94842402D01*
X141671281Y-95063518D01*
X141804248Y-95262517D01*
X141973483Y-95431752D01*
X142172482Y-95564719D01*
X142393598Y-95656308D01*
X142628333Y-95703000D01*
X142867667Y-95703000D01*
X143102402Y-95656308D01*
X143323518Y-95564719D01*
X143522517Y-95431752D01*
X143691752Y-95262517D01*
X143824719Y-95063518D01*
X143916308Y-94842402D01*
X143963000Y-94607667D01*
X143963000Y-94368333D01*
X143916308Y-94133598D01*
X143824719Y-93912482D01*
X143691752Y-93713483D01*
X143637000Y-93658731D01*
X143637000Y-87256333D01*
X145089000Y-87256333D01*
X145089000Y-87495667D01*
X145135692Y-87730402D01*
X145227281Y-87951518D01*
X145360248Y-88150517D01*
X145415000Y-88205269D01*
X145415000Y-88435666D01*
X145415001Y-88435676D01*
X145415000Y-94674731D01*
X145360248Y-94729483D01*
X145227281Y-94928482D01*
X145135692Y-95149598D01*
X145089000Y-95384333D01*
X145089000Y-95623667D01*
X145135692Y-95858402D01*
X145227281Y-96079518D01*
X145360248Y-96278517D01*
X145529483Y-96447752D01*
X145728482Y-96580719D01*
X145949598Y-96672308D01*
X146184333Y-96719000D01*
X146423667Y-96719000D01*
X146658402Y-96672308D01*
X146879518Y-96580719D01*
X147078517Y-96447752D01*
X147247752Y-96278517D01*
X147380719Y-96079518D01*
X147472308Y-95858402D01*
X147519000Y-95623667D01*
X147519000Y-95384333D01*
X147472308Y-95149598D01*
X147380719Y-94928482D01*
X147247752Y-94729483D01*
X147193000Y-94674731D01*
X147193000Y-90812333D01*
X147629000Y-90812333D01*
X147629000Y-91051667D01*
X147675692Y-91286402D01*
X147767281Y-91507518D01*
X147900248Y-91706517D01*
X147955001Y-91761270D01*
X147955000Y-109406731D01*
X147900248Y-109461483D01*
X147767281Y-109660482D01*
X147675692Y-109881598D01*
X147629000Y-110116333D01*
X147629000Y-110355667D01*
X147675692Y-110590402D01*
X147767281Y-110811518D01*
X147900248Y-111010517D01*
X148069483Y-111179752D01*
X148268482Y-111312719D01*
X148489598Y-111404308D01*
X148724333Y-111451000D01*
X148963667Y-111451000D01*
X149198402Y-111404308D01*
X149419518Y-111312719D01*
X149618517Y-111179752D01*
X149787752Y-111010517D01*
X149920719Y-110811518D01*
X150012308Y-110590402D01*
X150059000Y-110355667D01*
X150059000Y-110116333D01*
X150012308Y-109881598D01*
X149920719Y-109660482D01*
X149787752Y-109461483D01*
X149733000Y-109406731D01*
X149733000Y-91761269D01*
X149787752Y-91706517D01*
X149920719Y-91507518D01*
X150012308Y-91286402D01*
X150059000Y-91051667D01*
X150059000Y-90812333D01*
X150012308Y-90577598D01*
X149920719Y-90356482D01*
X149787752Y-90157483D01*
X149618517Y-89988248D01*
X149419518Y-89855281D01*
X149198402Y-89763692D01*
X148963667Y-89717000D01*
X148724333Y-89717000D01*
X148489598Y-89763692D01*
X148268482Y-89855281D01*
X148069483Y-89988248D01*
X147900248Y-90157483D01*
X147767281Y-90356482D01*
X147675692Y-90577598D01*
X147629000Y-90812333D01*
X147193000Y-90812333D01*
X147193000Y-88205269D01*
X147247752Y-88150517D01*
X147380719Y-87951518D01*
X147472308Y-87730402D01*
X147519000Y-87495667D01*
X147519000Y-87256333D01*
X150169000Y-87256333D01*
X150169000Y-87495667D01*
X150215692Y-87730402D01*
X150307281Y-87951518D01*
X150440248Y-88150517D01*
X150495001Y-88205270D01*
X150495000Y-110930731D01*
X150440248Y-110985483D01*
X150307281Y-111184482D01*
X150215692Y-111405598D01*
X150169000Y-111640333D01*
X150169000Y-111879667D01*
X150215692Y-112114402D01*
X150307281Y-112335518D01*
X150440248Y-112534517D01*
X150609483Y-112703752D01*
X150808482Y-112836719D01*
X151029598Y-112928308D01*
X151264333Y-112975000D01*
X151503667Y-112975000D01*
X151738402Y-112928308D01*
X151959518Y-112836719D01*
X152158517Y-112703752D01*
X152327752Y-112534517D01*
X152460719Y-112335518D01*
X152552308Y-112114402D01*
X152599000Y-111879667D01*
X152599000Y-111640333D01*
X152552308Y-111405598D01*
X152460719Y-111184482D01*
X152327752Y-110985483D01*
X152273000Y-110930731D01*
X152273000Y-90812333D01*
X152709000Y-90812333D01*
X152709000Y-91051667D01*
X152755692Y-91286402D01*
X152847281Y-91507518D01*
X152980248Y-91706517D01*
X153035001Y-91761270D01*
X153035000Y-112962731D01*
X152980248Y-113017483D01*
X152847281Y-113216482D01*
X152755692Y-113437598D01*
X152709000Y-113672333D01*
X152709000Y-113911667D01*
X152755692Y-114146402D01*
X152847281Y-114367518D01*
X152980248Y-114566517D01*
X153149483Y-114735752D01*
X153348482Y-114868719D01*
X153569598Y-114960308D01*
X153804333Y-115007000D01*
X154043667Y-115007000D01*
X154278402Y-114960308D01*
X154499518Y-114868719D01*
X154698517Y-114735752D01*
X154867752Y-114566517D01*
X155000719Y-114367518D01*
X155092308Y-114146402D01*
X155139000Y-113911667D01*
X155139000Y-113672333D01*
X155092308Y-113437598D01*
X155000719Y-113216482D01*
X154867752Y-113017483D01*
X154813000Y-112962731D01*
X154813000Y-91761269D01*
X154867752Y-91706517D01*
X155000719Y-91507518D01*
X155092308Y-91286402D01*
X155139000Y-91051667D01*
X155139000Y-90812333D01*
X155092308Y-90577598D01*
X155000719Y-90356482D01*
X154867752Y-90157483D01*
X154698517Y-89988248D01*
X154499518Y-89855281D01*
X154278402Y-89763692D01*
X154043667Y-89717000D01*
X153804333Y-89717000D01*
X153569598Y-89763692D01*
X153348482Y-89855281D01*
X153149483Y-89988248D01*
X152980248Y-90157483D01*
X152847281Y-90356482D01*
X152755692Y-90577598D01*
X152709000Y-90812333D01*
X152273000Y-90812333D01*
X152273000Y-88205269D01*
X152327752Y-88150517D01*
X152460719Y-87951518D01*
X152552308Y-87730402D01*
X152599000Y-87495667D01*
X152599000Y-87256333D01*
X152552308Y-87021598D01*
X152460719Y-86800482D01*
X152327752Y-86601483D01*
X152158517Y-86432248D01*
X151959518Y-86299281D01*
X151738402Y-86207692D01*
X151503667Y-86161000D01*
X151264333Y-86161000D01*
X151029598Y-86207692D01*
X150808482Y-86299281D01*
X150609483Y-86432248D01*
X150440248Y-86601483D01*
X150307281Y-86800482D01*
X150215692Y-87021598D01*
X150169000Y-87256333D01*
X147519000Y-87256333D01*
X147472308Y-87021598D01*
X147380719Y-86800482D01*
X147247752Y-86601483D01*
X147078517Y-86432248D01*
X146879518Y-86299281D01*
X146658402Y-86207692D01*
X146423667Y-86161000D01*
X146184333Y-86161000D01*
X145949598Y-86207692D01*
X145728482Y-86299281D01*
X145529483Y-86432248D01*
X145360248Y-86601483D01*
X145227281Y-86800482D01*
X145135692Y-87021598D01*
X145089000Y-87256333D01*
X143637000Y-87256333D01*
X143637000Y-85204235D01*
X144552411Y-84288824D01*
X169959098Y-84288824D01*
X170008666Y-84706451D01*
X170138757Y-85106383D01*
X170296786Y-85402038D01*
X170612347Y-85558048D01*
X171924395Y-84246000D01*
X170612347Y-82933952D01*
X170296786Y-83089962D01*
X170105980Y-83464745D01*
X169991956Y-83869551D01*
X169959098Y-84288824D01*
X144552411Y-84288824D01*
X145656236Y-83185000D01*
X155634731Y-83185000D01*
X155689483Y-83239752D01*
X155888482Y-83372719D01*
X156109598Y-83464308D01*
X156344333Y-83511000D01*
X156583667Y-83511000D01*
X156818402Y-83464308D01*
X157039518Y-83372719D01*
X157238517Y-83239752D01*
X157293269Y-83185000D01*
X159976340Y-83185000D01*
X160020000Y-83189300D01*
X160063660Y-83185000D01*
X160063667Y-83185000D01*
X160194274Y-83172136D01*
X160361851Y-83121303D01*
X160516291Y-83038753D01*
X160651659Y-82927659D01*
X160679499Y-82893736D01*
X167524345Y-76048890D01*
X168738524Y-76048890D01*
X168783175Y-76196099D01*
X168908359Y-76458920D01*
X169082412Y-76692269D01*
X169298645Y-76887178D01*
X169548748Y-77036157D01*
X169823109Y-77133481D01*
X170053000Y-77012814D01*
X170053000Y-75819000D01*
X170307000Y-75819000D01*
X170307000Y-77012814D01*
X170536891Y-77133481D01*
X170811252Y-77036157D01*
X171061355Y-76887178D01*
X171277588Y-76692269D01*
X171451641Y-76458920D01*
X171576825Y-76196099D01*
X171621476Y-76048890D01*
X171500155Y-75819000D01*
X170307000Y-75819000D01*
X170053000Y-75819000D01*
X168859845Y-75819000D01*
X168738524Y-76048890D01*
X167524345Y-76048890D01*
X169253985Y-74319251D01*
X169415534Y-74427195D01*
X169298645Y-74496822D01*
X169082412Y-74691731D01*
X168908359Y-74925080D01*
X168783175Y-75187901D01*
X168738524Y-75335110D01*
X168859845Y-75565000D01*
X170053000Y-75565000D01*
X170053000Y-75545000D01*
X170307000Y-75545000D01*
X170307000Y-75565000D01*
X171500155Y-75565000D01*
X171621476Y-75335110D01*
X171576825Y-75187901D01*
X171451641Y-74925080D01*
X171277588Y-74691731D01*
X171061355Y-74496822D01*
X170944466Y-74427195D01*
X171126632Y-74305475D01*
X171333475Y-74098632D01*
X171495990Y-73855411D01*
X171607932Y-73585158D01*
X171665000Y-73298260D01*
X171665000Y-73005740D01*
X171607932Y-72718842D01*
X171495990Y-72448589D01*
X171333475Y-72205368D01*
X171126632Y-71998525D01*
X170952240Y-71882000D01*
X171126632Y-71765475D01*
X171333475Y-71558632D01*
X171495990Y-71315411D01*
X171607932Y-71045158D01*
X171665000Y-70758260D01*
X171665000Y-70465740D01*
X171607932Y-70178842D01*
X171495990Y-69908589D01*
X171333475Y-69665368D01*
X171126632Y-69458525D01*
X170952240Y-69342000D01*
X171126632Y-69225475D01*
X171333475Y-69018632D01*
X171495990Y-68775411D01*
X171607932Y-68505158D01*
X171665000Y-68218260D01*
X171665000Y-67925740D01*
X171607932Y-67638842D01*
X171495990Y-67368589D01*
X171333475Y-67125368D01*
X171126632Y-66918525D01*
X170952240Y-66802000D01*
X171126632Y-66685475D01*
X171333475Y-66478632D01*
X171495990Y-66235411D01*
X171607932Y-65965158D01*
X171665000Y-65678260D01*
X171665000Y-65385740D01*
X171607932Y-65098842D01*
X171495990Y-64828589D01*
X171333475Y-64585368D01*
X171201620Y-64453513D01*
X171274180Y-64431502D01*
X171384494Y-64372537D01*
X171481185Y-64293185D01*
X171560537Y-64196494D01*
X171619502Y-64086180D01*
X171655812Y-63966482D01*
X171668072Y-63842000D01*
X171668072Y-63122906D01*
X173223002Y-64677836D01*
X173223001Y-82419930D01*
X172885255Y-82247980D01*
X172480449Y-82133956D01*
X172061176Y-82101098D01*
X171643549Y-82150666D01*
X171243617Y-82280757D01*
X170947962Y-82438786D01*
X170791952Y-82754347D01*
X172104000Y-84066395D01*
X172118143Y-84052253D01*
X172297748Y-84231858D01*
X172283605Y-84246000D01*
X172297748Y-84260143D01*
X172118143Y-84439748D01*
X172104000Y-84425605D01*
X170791952Y-85737653D01*
X170947962Y-86053214D01*
X171322745Y-86244020D01*
X171727551Y-86358044D01*
X172146824Y-86390902D01*
X172564451Y-86341334D01*
X172964383Y-86211243D01*
X173223001Y-86073010D01*
X173223001Y-86897921D01*
X162470259Y-97650664D01*
X162436342Y-97678499D01*
X162408507Y-97712416D01*
X162408505Y-97712418D01*
X162325248Y-97813867D01*
X162242698Y-97968306D01*
X162191864Y-98135884D01*
X162174700Y-98310158D01*
X162179001Y-98353828D01*
X162179000Y-118718761D01*
X162078252Y-118618013D01*
X161810463Y-118439082D01*
X161512912Y-118315832D01*
X161197033Y-118253000D01*
X160874967Y-118253000D01*
X160559088Y-118315832D01*
X160261537Y-118439082D01*
X160051191Y-118579630D01*
X160026537Y-118533506D01*
X159947185Y-118436815D01*
X159850494Y-118357463D01*
X159740180Y-118298498D01*
X159620482Y-118262188D01*
X159496000Y-118249928D01*
X157496000Y-118249928D01*
X157371518Y-118262188D01*
X157251820Y-118298498D01*
X157141506Y-118357463D01*
X157044815Y-118436815D01*
X156965463Y-118533506D01*
X156906498Y-118643820D01*
X156870188Y-118763518D01*
X156857928Y-118888000D01*
X156857928Y-120888000D01*
X156866340Y-120973408D01*
X156631388Y-120621778D01*
X156292222Y-120282612D01*
X155893405Y-120016131D01*
X155450263Y-119832576D01*
X154979827Y-119739000D01*
X154500173Y-119739000D01*
X154029737Y-119832576D01*
X153586595Y-120016131D01*
X153187778Y-120282612D01*
X152848612Y-120621778D01*
X152582131Y-121020595D01*
X152398576Y-121463737D01*
X152305000Y-121934173D01*
X152305000Y-122413827D01*
X152398576Y-122884263D01*
X152582131Y-123327405D01*
X152848612Y-123726222D01*
X153187778Y-124065388D01*
X153586595Y-124331869D01*
X154029737Y-124515424D01*
X154500173Y-124609000D01*
X154979827Y-124609000D01*
X155450263Y-124515424D01*
X155893405Y-124331869D01*
X156292222Y-124065388D01*
X156631388Y-123726222D01*
X156897869Y-123327405D01*
X157081424Y-122884263D01*
X157175000Y-122413827D01*
X157175000Y-121934173D01*
X157081424Y-121463737D01*
X157014565Y-121302326D01*
X157044815Y-121339185D01*
X157141506Y-121418537D01*
X157251820Y-121477502D01*
X157371518Y-121513812D01*
X157496000Y-121526072D01*
X159496000Y-121526072D01*
X159620482Y-121513812D01*
X159740180Y-121477502D01*
X159850494Y-121418537D01*
X159947185Y-121339185D01*
X160026537Y-121242494D01*
X160051191Y-121196370D01*
X160261537Y-121336918D01*
X160559088Y-121460168D01*
X160715487Y-121491278D01*
X158837807Y-123368958D01*
X158657033Y-123333000D01*
X158334967Y-123333000D01*
X158019088Y-123395832D01*
X157721537Y-123519082D01*
X157453748Y-123698013D01*
X157226013Y-123925748D01*
X157047082Y-124193537D01*
X156923832Y-124491088D01*
X156861000Y-124806967D01*
X156861000Y-125129033D01*
X156923832Y-125444912D01*
X157047082Y-125742463D01*
X157115127Y-125844300D01*
X135717393Y-125844300D01*
X135715000Y-123729750D01*
X135556250Y-123571000D01*
X132207000Y-123571000D01*
X132207000Y-123591000D01*
X131953000Y-123591000D01*
X131953000Y-123571000D01*
X131933000Y-123571000D01*
X131933000Y-123317000D01*
X131953000Y-123317000D01*
X131953000Y-119967750D01*
X132207000Y-119967750D01*
X132207000Y-123317000D01*
X135556250Y-123317000D01*
X135715000Y-123158250D01*
X135718072Y-120444000D01*
X135711178Y-120374000D01*
X139801928Y-120374000D01*
X139801928Y-123974000D01*
X139814188Y-124098482D01*
X139850498Y-124218180D01*
X139909463Y-124328494D01*
X139988815Y-124425185D01*
X140085506Y-124504537D01*
X140195820Y-124563502D01*
X140315518Y-124599812D01*
X140440000Y-124612072D01*
X144040000Y-124612072D01*
X144164482Y-124599812D01*
X144284180Y-124563502D01*
X144394494Y-124504537D01*
X144491185Y-124425185D01*
X144570537Y-124328494D01*
X144629502Y-124218180D01*
X144665812Y-124098482D01*
X144678072Y-123974000D01*
X144678072Y-120374000D01*
X144665812Y-120249518D01*
X144629502Y-120129820D01*
X144570537Y-120019506D01*
X144491185Y-119922815D01*
X144394494Y-119843463D01*
X144284180Y-119784498D01*
X144164482Y-119748188D01*
X144040000Y-119735928D01*
X140440000Y-119735928D01*
X140315518Y-119748188D01*
X140195820Y-119784498D01*
X140085506Y-119843463D01*
X139988815Y-119922815D01*
X139909463Y-120019506D01*
X139850498Y-120129820D01*
X139814188Y-120249518D01*
X139801928Y-120374000D01*
X135711178Y-120374000D01*
X135705812Y-120319518D01*
X135669502Y-120199820D01*
X135610537Y-120089506D01*
X135531185Y-119992815D01*
X135434494Y-119913463D01*
X135324180Y-119854498D01*
X135204482Y-119818188D01*
X135080000Y-119805928D01*
X132365750Y-119809000D01*
X132207000Y-119967750D01*
X131953000Y-119967750D01*
X131794250Y-119809000D01*
X129679700Y-119806607D01*
X129679700Y-93496000D01*
X131465928Y-93496000D01*
X131465928Y-96496000D01*
X131478188Y-96620482D01*
X131514498Y-96740180D01*
X131573463Y-96850494D01*
X131652815Y-96947185D01*
X131749506Y-97026537D01*
X131859820Y-97085502D01*
X131979518Y-97121812D01*
X132104000Y-97134072D01*
X135104000Y-97134072D01*
X135228482Y-97121812D01*
X135348180Y-97085502D01*
X135458494Y-97026537D01*
X135555185Y-96947185D01*
X135634537Y-96850494D01*
X135693502Y-96740180D01*
X135729812Y-96620482D01*
X135742072Y-96496000D01*
X135742072Y-93496000D01*
X135729812Y-93371518D01*
X135693502Y-93251820D01*
X135634537Y-93141506D01*
X135555185Y-93044815D01*
X135458494Y-92965463D01*
X135348180Y-92906498D01*
X135228482Y-92870188D01*
X135104000Y-92857928D01*
X132104000Y-92857928D01*
X131979518Y-92870188D01*
X131859820Y-92906498D01*
X131749506Y-92965463D01*
X131652815Y-93044815D01*
X131573463Y-93141506D01*
X131514498Y-93251820D01*
X131478188Y-93371518D01*
X131465928Y-93496000D01*
X129679700Y-93496000D01*
X129679700Y-84035721D01*
X131469000Y-84035721D01*
X131469000Y-84456279D01*
X131551047Y-84868756D01*
X131711988Y-85257302D01*
X131945637Y-85606983D01*
X132243017Y-85904363D01*
X132592698Y-86138012D01*
X132981244Y-86298953D01*
X133393721Y-86381000D01*
X133814279Y-86381000D01*
X134226756Y-86298953D01*
X134615302Y-86138012D01*
X134964983Y-85904363D01*
X135262363Y-85606983D01*
X135496012Y-85257302D01*
X135656953Y-84868756D01*
X135739000Y-84456279D01*
X135739000Y-84035721D01*
X135656953Y-83623244D01*
X135496012Y-83234698D01*
X135262363Y-82885017D01*
X134964983Y-82587637D01*
X134615302Y-82353988D01*
X134226756Y-82193047D01*
X133814279Y-82111000D01*
X133393721Y-82111000D01*
X132981244Y-82193047D01*
X132592698Y-82353988D01*
X132243017Y-82587637D01*
X131945637Y-82885017D01*
X131711988Y-83234698D01*
X131551047Y-83623244D01*
X131469000Y-84035721D01*
X129679700Y-84035721D01*
X129679700Y-74228049D01*
X136533200Y-74228049D01*
X136533200Y-74717551D01*
X136628697Y-75197648D01*
X136816021Y-75649889D01*
X137087974Y-76056895D01*
X137434105Y-76403026D01*
X137841111Y-76674979D01*
X138293352Y-76862303D01*
X138773449Y-76957800D01*
X139262951Y-76957800D01*
X139743048Y-76862303D01*
X140195289Y-76674979D01*
X140602295Y-76403026D01*
X140948426Y-76056895D01*
X141220379Y-75649889D01*
X141407703Y-75197648D01*
X141503200Y-74717551D01*
X141503200Y-74228049D01*
X144153200Y-74228049D01*
X144153200Y-74717551D01*
X144248697Y-75197648D01*
X144436021Y-75649889D01*
X144707974Y-76056895D01*
X145054105Y-76403026D01*
X145461111Y-76674979D01*
X145913352Y-76862303D01*
X146393449Y-76957800D01*
X146882951Y-76957800D01*
X147363048Y-76862303D01*
X147815289Y-76674979D01*
X148222295Y-76403026D01*
X148568426Y-76056895D01*
X148840379Y-75649889D01*
X149027703Y-75197648D01*
X149123200Y-74717551D01*
X149123200Y-74228049D01*
X149027703Y-73747952D01*
X148840379Y-73295711D01*
X148568426Y-72888705D01*
X148222295Y-72542574D01*
X147815289Y-72270621D01*
X147363048Y-72083297D01*
X146882951Y-71987800D01*
X146393449Y-71987800D01*
X145913352Y-72083297D01*
X145461111Y-72270621D01*
X145054105Y-72542574D01*
X144707974Y-72888705D01*
X144436021Y-73295711D01*
X144248697Y-73747952D01*
X144153200Y-74228049D01*
X141503200Y-74228049D01*
X141407703Y-73747952D01*
X141220379Y-73295711D01*
X140948426Y-72888705D01*
X140602295Y-72542574D01*
X140195289Y-72270621D01*
X139743048Y-72083297D01*
X139262951Y-71987800D01*
X138773449Y-71987800D01*
X138293352Y-72083297D01*
X137841111Y-72270621D01*
X137434105Y-72542574D01*
X137087974Y-72888705D01*
X136816021Y-73295711D01*
X136628697Y-73747952D01*
X136533200Y-74228049D01*
X129679700Y-74228049D01*
X129679700Y-71976405D01*
X160744200Y-71976405D01*
X160870114Y-72266377D01*
X161202326Y-72432233D01*
X161560512Y-72530090D01*
X161930906Y-72556189D01*
X162299275Y-72509525D01*
X162651462Y-72391894D01*
X162886286Y-72266377D01*
X163012200Y-71976405D01*
X161878200Y-70842405D01*
X160744200Y-71976405D01*
X129679700Y-71976405D01*
X129679700Y-70715506D01*
X159984811Y-70715506D01*
X160031475Y-71083875D01*
X160149106Y-71436062D01*
X160274623Y-71670886D01*
X160564595Y-71796800D01*
X161698595Y-70662800D01*
X162057805Y-70662800D01*
X163191805Y-71796800D01*
X163481777Y-71670886D01*
X163647633Y-71338674D01*
X163745490Y-70980488D01*
X163771589Y-70610094D01*
X163724925Y-70241725D01*
X163607294Y-69889538D01*
X163481777Y-69654714D01*
X163191805Y-69528800D01*
X162057805Y-70662800D01*
X161698595Y-70662800D01*
X160564595Y-69528800D01*
X160274623Y-69654714D01*
X160108767Y-69986926D01*
X160010910Y-70345112D01*
X159984811Y-70715506D01*
X129679700Y-70715506D01*
X129679700Y-69349195D01*
X160744200Y-69349195D01*
X161878200Y-70483195D01*
X163012200Y-69349195D01*
X162886286Y-69059223D01*
X162554074Y-68893367D01*
X162195888Y-68795510D01*
X161825494Y-68769411D01*
X161457125Y-68816075D01*
X161104938Y-68933706D01*
X160870114Y-69059223D01*
X160744200Y-69349195D01*
X129679700Y-69349195D01*
X129679700Y-60025393D01*
X131794250Y-60023000D01*
X131953000Y-59864250D01*
X131953000Y-56515000D01*
X132207000Y-56515000D01*
X132207000Y-59864250D01*
X132365750Y-60023000D01*
X135080000Y-60026072D01*
X135204482Y-60013812D01*
X135324180Y-59977502D01*
X135434494Y-59918537D01*
X135531185Y-59839185D01*
X135610537Y-59742494D01*
X135669502Y-59632180D01*
X135705812Y-59512482D01*
X135718072Y-59388000D01*
X135715000Y-56673750D01*
X135556250Y-56515000D01*
X132207000Y-56515000D01*
X131953000Y-56515000D01*
X131933000Y-56515000D01*
X131933000Y-56261000D01*
X131953000Y-56261000D01*
X131953000Y-56241000D01*
X132207000Y-56241000D01*
X132207000Y-56261000D01*
X135556250Y-56261000D01*
X135715000Y-56102250D01*
X135716312Y-54942800D01*
X146790128Y-54942800D01*
X146790128Y-58442800D01*
X146802388Y-58567282D01*
X146838698Y-58686980D01*
X146897663Y-58797294D01*
X146977015Y-58893985D01*
X147073706Y-58973337D01*
X147184020Y-59032302D01*
X147303718Y-59068612D01*
X147428200Y-59080872D01*
X150928200Y-59080872D01*
X151052682Y-59068612D01*
X151172380Y-59032302D01*
X151282694Y-58973337D01*
X151379385Y-58893985D01*
X151458737Y-58797294D01*
X151517702Y-58686980D01*
X151554012Y-58567282D01*
X151566272Y-58442800D01*
X151566272Y-54942800D01*
X151554012Y-54818318D01*
X151517702Y-54698620D01*
X151458737Y-54588306D01*
X151379385Y-54491615D01*
X151282694Y-54412263D01*
X151172380Y-54353298D01*
X151052682Y-54316988D01*
X150928200Y-54304728D01*
X147428200Y-54304728D01*
X147303718Y-54316988D01*
X147184020Y-54353298D01*
X147073706Y-54412263D01*
X146977015Y-54491615D01*
X146897663Y-54588306D01*
X146838698Y-54698620D01*
X146802388Y-54818318D01*
X146790128Y-54942800D01*
X135716312Y-54942800D01*
X135717393Y-53987700D01*
X170098607Y-53987700D01*
X170101000Y-56102250D01*
G37*
X170101000Y-56102250D02*
X170259750Y-56261000D01*
X173609000Y-56261000D01*
X173609000Y-56241000D01*
X173863000Y-56241000D01*
X173863000Y-56261000D01*
X173883000Y-56261000D01*
X173883000Y-56515000D01*
X173863000Y-56515000D01*
X173863000Y-59864250D01*
X174021750Y-60023000D01*
X176136300Y-60025393D01*
X176136301Y-119806607D01*
X174021750Y-119809000D01*
X173863000Y-119967750D01*
X173863000Y-123317000D01*
X173883000Y-123317000D01*
X173883000Y-123571000D01*
X173863000Y-123571000D01*
X173863000Y-123591000D01*
X173609000Y-123591000D01*
X173609000Y-123571000D01*
X170259750Y-123571000D01*
X170101000Y-123729750D01*
X170100483Y-124186899D01*
X169925987Y-123925748D01*
X169698252Y-123698013D01*
X169545000Y-123595613D01*
X169545000Y-121260387D01*
X169698252Y-121157987D01*
X169925987Y-120930252D01*
X170098187Y-120672537D01*
X170101000Y-123158250D01*
X170259750Y-123317000D01*
X173609000Y-123317000D01*
X173609000Y-119967750D01*
X173450250Y-119809000D01*
X170736000Y-119805928D01*
X170611518Y-119818188D01*
X170491820Y-119854498D01*
X170381506Y-119913463D01*
X170291000Y-119987739D01*
X170291000Y-119726967D01*
X170255042Y-119546193D01*
X172701737Y-117099498D01*
X172735659Y-117071659D01*
X172846753Y-116936291D01*
X172929303Y-116781851D01*
X172949296Y-116715942D01*
X172980136Y-116614276D01*
X172983406Y-116581076D01*
X172993000Y-116483667D01*
X172993000Y-116483661D01*
X172997300Y-116440001D01*
X172993000Y-116396341D01*
X172993000Y-94188671D01*
X173115302Y-94138012D01*
X173464983Y-93904363D01*
X173762363Y-93606983D01*
X173996012Y-93257302D01*
X174156953Y-92868756D01*
X174239000Y-92456279D01*
X174239000Y-92035721D01*
X174156953Y-91623244D01*
X173996012Y-91234698D01*
X173762363Y-90885017D01*
X173464983Y-90587637D01*
X173115302Y-90353988D01*
X172726756Y-90193047D01*
X172489533Y-90145860D01*
X174709744Y-87925650D01*
X174743660Y-87897816D01*
X174854754Y-87762448D01*
X174937304Y-87608008D01*
X174988137Y-87440431D01*
X175001001Y-87309824D01*
X175001001Y-87309817D01*
X175005301Y-87266157D01*
X175001001Y-87222497D01*
X175001001Y-64353259D01*
X175005301Y-64309599D01*
X175001001Y-64265939D01*
X175001001Y-64265932D01*
X174988137Y-64135325D01*
X174978656Y-64104068D01*
X174937303Y-63967746D01*
X174854753Y-63813307D01*
X174771496Y-63711858D01*
X174771495Y-63711857D01*
X174743660Y-63677940D01*
X174709743Y-63650105D01*
X171085314Y-60025677D01*
X173450250Y-60023000D01*
X173609000Y-59864250D01*
X173609000Y-56515000D01*
X170259750Y-56515000D01*
X170101000Y-56673750D01*
X170097928Y-59388000D01*
X170110188Y-59512482D01*
X170140922Y-59613800D01*
X163550274Y-59613800D01*
X163548666Y-59609918D01*
X163342375Y-59301182D01*
X163079818Y-59038625D01*
X162771082Y-58832334D01*
X162428034Y-58690239D01*
X162063856Y-58617800D01*
X161692544Y-58617800D01*
X161328366Y-58690239D01*
X160985318Y-58832334D01*
X160676582Y-59038625D01*
X160414025Y-59301182D01*
X160207734Y-59609918D01*
X160065639Y-59952966D01*
X159993200Y-60317144D01*
X159993200Y-60688456D01*
X160065639Y-61052634D01*
X160207734Y-61395682D01*
X160414025Y-61704418D01*
X160676582Y-61966975D01*
X160985318Y-62173266D01*
X161328366Y-62315361D01*
X161692544Y-62387800D01*
X162063856Y-62387800D01*
X162428034Y-62315361D01*
X162771082Y-62173266D01*
X163079818Y-61966975D01*
X163342375Y-61704418D01*
X163548666Y-61395682D01*
X163550274Y-61391800D01*
X169936967Y-61391800D01*
X170049095Y-61503928D01*
X169330000Y-61503928D01*
X169205518Y-61516188D01*
X169085820Y-61552498D01*
X168975506Y-61611463D01*
X168878815Y-61690815D01*
X168799463Y-61787506D01*
X168740498Y-61897820D01*
X168704188Y-62017518D01*
X168691928Y-62142000D01*
X168691928Y-63842000D01*
X168704188Y-63966482D01*
X168740498Y-64086180D01*
X168799463Y-64196494D01*
X168878815Y-64293185D01*
X168975506Y-64372537D01*
X169085820Y-64431502D01*
X169158380Y-64453513D01*
X169026525Y-64585368D01*
X168864010Y-64828589D01*
X168752068Y-65098842D01*
X168695000Y-65385740D01*
X168695000Y-65678260D01*
X168752068Y-65965158D01*
X168864010Y-66235411D01*
X169026525Y-66478632D01*
X169233368Y-66685475D01*
X169407760Y-66802000D01*
X169233368Y-66918525D01*
X169026525Y-67125368D01*
X168864010Y-67368589D01*
X168752068Y-67638842D01*
X168695000Y-67925740D01*
X168695000Y-68218260D01*
X168752068Y-68505158D01*
X168864010Y-68775411D01*
X169026525Y-69018632D01*
X169233368Y-69225475D01*
X169407760Y-69342000D01*
X169233368Y-69458525D01*
X169026525Y-69665368D01*
X168864010Y-69908589D01*
X168752068Y-70178842D01*
X168695000Y-70465740D01*
X168695000Y-70758260D01*
X168752068Y-71045158D01*
X168864010Y-71315411D01*
X169026525Y-71558632D01*
X169233368Y-71765475D01*
X169407760Y-71882000D01*
X169233368Y-71998525D01*
X169026525Y-72205368D01*
X168976802Y-72279784D01*
X168916758Y-72297998D01*
X168822149Y-72326697D01*
X168667709Y-72409247D01*
X168532341Y-72520341D01*
X168504506Y-72554258D01*
X159651765Y-81407000D01*
X157293269Y-81407000D01*
X157238517Y-81352248D01*
X157039518Y-81219281D01*
X156818402Y-81127692D01*
X156583667Y-81081000D01*
X156344333Y-81081000D01*
X156109598Y-81127692D01*
X155888482Y-81219281D01*
X155689483Y-81352248D01*
X155634731Y-81407000D01*
X145331659Y-81407000D01*
X145287999Y-81402700D01*
X145244339Y-81407000D01*
X145244333Y-81407000D01*
X145146924Y-81416594D01*
X145113724Y-81419864D01*
X145012058Y-81450704D01*
X144946149Y-81470697D01*
X144791709Y-81553247D01*
X144656341Y-81664341D01*
X144628506Y-81698258D01*
X142150259Y-84176506D01*
X142116342Y-84204341D01*
X142088507Y-84238258D01*
X142088505Y-84238260D01*
X142005248Y-84339709D01*
X141922698Y-84494148D01*
X141871864Y-84661726D01*
X141854700Y-84836000D01*
X141859001Y-84879670D01*
X141859000Y-93658731D01*
X141804248Y-93713483D01*
X141671281Y-93912482D01*
X141579692Y-94133598D01*
X141533000Y-94368333D01*
X141533000Y-94607667D01*
X141579692Y-94842402D01*
X141671281Y-95063518D01*
X141804248Y-95262517D01*
X141973483Y-95431752D01*
X142172482Y-95564719D01*
X142393598Y-95656308D01*
X142628333Y-95703000D01*
X142867667Y-95703000D01*
X143102402Y-95656308D01*
X143323518Y-95564719D01*
X143522517Y-95431752D01*
X143691752Y-95262517D01*
X143824719Y-95063518D01*
X143916308Y-94842402D01*
X143963000Y-94607667D01*
X143963000Y-94368333D01*
X143916308Y-94133598D01*
X143824719Y-93912482D01*
X143691752Y-93713483D01*
X143637000Y-93658731D01*
X143637000Y-87256333D01*
X145089000Y-87256333D01*
X145089000Y-87495667D01*
X145135692Y-87730402D01*
X145227281Y-87951518D01*
X145360248Y-88150517D01*
X145415000Y-88205269D01*
X145415000Y-88435666D01*
X145415001Y-88435676D01*
X145415000Y-94674731D01*
X145360248Y-94729483D01*
X145227281Y-94928482D01*
X145135692Y-95149598D01*
X145089000Y-95384333D01*
X145089000Y-95623667D01*
X145135692Y-95858402D01*
X145227281Y-96079518D01*
X145360248Y-96278517D01*
X145529483Y-96447752D01*
X145728482Y-96580719D01*
X145949598Y-96672308D01*
X146184333Y-96719000D01*
X146423667Y-96719000D01*
X146658402Y-96672308D01*
X146879518Y-96580719D01*
X147078517Y-96447752D01*
X147247752Y-96278517D01*
X147380719Y-96079518D01*
X147472308Y-95858402D01*
X147519000Y-95623667D01*
X147519000Y-95384333D01*
X147472308Y-95149598D01*
X147380719Y-94928482D01*
X147247752Y-94729483D01*
X147193000Y-94674731D01*
X147193000Y-90812333D01*
X147629000Y-90812333D01*
X147629000Y-91051667D01*
X147675692Y-91286402D01*
X147767281Y-91507518D01*
X147900248Y-91706517D01*
X147955001Y-91761270D01*
X147955000Y-109406731D01*
X147900248Y-109461483D01*
X147767281Y-109660482D01*
X147675692Y-109881598D01*
X147629000Y-110116333D01*
X147629000Y-110355667D01*
X147675692Y-110590402D01*
X147767281Y-110811518D01*
X147900248Y-111010517D01*
X148069483Y-111179752D01*
X148268482Y-111312719D01*
X148489598Y-111404308D01*
X148724333Y-111451000D01*
X148963667Y-111451000D01*
X149198402Y-111404308D01*
X149419518Y-111312719D01*
X149618517Y-111179752D01*
X149787752Y-111010517D01*
X149920719Y-110811518D01*
X150012308Y-110590402D01*
X150059000Y-110355667D01*
X150059000Y-110116333D01*
X150012308Y-109881598D01*
X149920719Y-109660482D01*
X149787752Y-109461483D01*
X149733000Y-109406731D01*
X149733000Y-91761269D01*
X149787752Y-91706517D01*
X149920719Y-91507518D01*
X150012308Y-91286402D01*
X150059000Y-91051667D01*
X150059000Y-90812333D01*
X150012308Y-90577598D01*
X149920719Y-90356482D01*
X149787752Y-90157483D01*
X149618517Y-89988248D01*
X149419518Y-89855281D01*
X149198402Y-89763692D01*
X148963667Y-89717000D01*
X148724333Y-89717000D01*
X148489598Y-89763692D01*
X148268482Y-89855281D01*
X148069483Y-89988248D01*
X147900248Y-90157483D01*
X147767281Y-90356482D01*
X147675692Y-90577598D01*
X147629000Y-90812333D01*
X147193000Y-90812333D01*
X147193000Y-88205269D01*
X147247752Y-88150517D01*
X147380719Y-87951518D01*
X147472308Y-87730402D01*
X147519000Y-87495667D01*
X147519000Y-87256333D01*
X150169000Y-87256333D01*
X150169000Y-87495667D01*
X150215692Y-87730402D01*
X150307281Y-87951518D01*
X150440248Y-88150517D01*
X150495001Y-88205270D01*
X150495000Y-110930731D01*
X150440248Y-110985483D01*
X150307281Y-111184482D01*
X150215692Y-111405598D01*
X150169000Y-111640333D01*
X150169000Y-111879667D01*
X150215692Y-112114402D01*
X150307281Y-112335518D01*
X150440248Y-112534517D01*
X150609483Y-112703752D01*
X150808482Y-112836719D01*
X151029598Y-112928308D01*
X151264333Y-112975000D01*
X151503667Y-112975000D01*
X151738402Y-112928308D01*
X151959518Y-112836719D01*
X152158517Y-112703752D01*
X152327752Y-112534517D01*
X152460719Y-112335518D01*
X152552308Y-112114402D01*
X152599000Y-111879667D01*
X152599000Y-111640333D01*
X152552308Y-111405598D01*
X152460719Y-111184482D01*
X152327752Y-110985483D01*
X152273000Y-110930731D01*
X152273000Y-90812333D01*
X152709000Y-90812333D01*
X152709000Y-91051667D01*
X152755692Y-91286402D01*
X152847281Y-91507518D01*
X152980248Y-91706517D01*
X153035001Y-91761270D01*
X153035000Y-112962731D01*
X152980248Y-113017483D01*
X152847281Y-113216482D01*
X152755692Y-113437598D01*
X152709000Y-113672333D01*
X152709000Y-113911667D01*
X152755692Y-114146402D01*
X152847281Y-114367518D01*
X152980248Y-114566517D01*
X153149483Y-114735752D01*
X153348482Y-114868719D01*
X153569598Y-114960308D01*
X153804333Y-115007000D01*
X154043667Y-115007000D01*
X154278402Y-114960308D01*
X154499518Y-114868719D01*
X154698517Y-114735752D01*
X154867752Y-114566517D01*
X155000719Y-114367518D01*
X155092308Y-114146402D01*
X155139000Y-113911667D01*
X155139000Y-113672333D01*
X155092308Y-113437598D01*
X155000719Y-113216482D01*
X154867752Y-113017483D01*
X154813000Y-112962731D01*
X154813000Y-91761269D01*
X154867752Y-91706517D01*
X155000719Y-91507518D01*
X155092308Y-91286402D01*
X155139000Y-91051667D01*
X155139000Y-90812333D01*
X155092308Y-90577598D01*
X155000719Y-90356482D01*
X154867752Y-90157483D01*
X154698517Y-89988248D01*
X154499518Y-89855281D01*
X154278402Y-89763692D01*
X154043667Y-89717000D01*
X153804333Y-89717000D01*
X153569598Y-89763692D01*
X153348482Y-89855281D01*
X153149483Y-89988248D01*
X152980248Y-90157483D01*
X152847281Y-90356482D01*
X152755692Y-90577598D01*
X152709000Y-90812333D01*
X152273000Y-90812333D01*
X152273000Y-88205269D01*
X152327752Y-88150517D01*
X152460719Y-87951518D01*
X152552308Y-87730402D01*
X152599000Y-87495667D01*
X152599000Y-87256333D01*
X152552308Y-87021598D01*
X152460719Y-86800482D01*
X152327752Y-86601483D01*
X152158517Y-86432248D01*
X151959518Y-86299281D01*
X151738402Y-86207692D01*
X151503667Y-86161000D01*
X151264333Y-86161000D01*
X151029598Y-86207692D01*
X150808482Y-86299281D01*
X150609483Y-86432248D01*
X150440248Y-86601483D01*
X150307281Y-86800482D01*
X150215692Y-87021598D01*
X150169000Y-87256333D01*
X147519000Y-87256333D01*
X147472308Y-87021598D01*
X147380719Y-86800482D01*
X147247752Y-86601483D01*
X147078517Y-86432248D01*
X146879518Y-86299281D01*
X146658402Y-86207692D01*
X146423667Y-86161000D01*
X146184333Y-86161000D01*
X145949598Y-86207692D01*
X145728482Y-86299281D01*
X145529483Y-86432248D01*
X145360248Y-86601483D01*
X145227281Y-86800482D01*
X145135692Y-87021598D01*
X145089000Y-87256333D01*
X143637000Y-87256333D01*
X143637000Y-85204235D01*
X144552411Y-84288824D01*
X169959098Y-84288824D01*
X170008666Y-84706451D01*
X170138757Y-85106383D01*
X170296786Y-85402038D01*
X170612347Y-85558048D01*
X171924395Y-84246000D01*
X170612347Y-82933952D01*
X170296786Y-83089962D01*
X170105980Y-83464745D01*
X169991956Y-83869551D01*
X169959098Y-84288824D01*
X144552411Y-84288824D01*
X145656236Y-83185000D01*
X155634731Y-83185000D01*
X155689483Y-83239752D01*
X155888482Y-83372719D01*
X156109598Y-83464308D01*
X156344333Y-83511000D01*
X156583667Y-83511000D01*
X156818402Y-83464308D01*
X157039518Y-83372719D01*
X157238517Y-83239752D01*
X157293269Y-83185000D01*
X159976340Y-83185000D01*
X160020000Y-83189300D01*
X160063660Y-83185000D01*
X160063667Y-83185000D01*
X160194274Y-83172136D01*
X160361851Y-83121303D01*
X160516291Y-83038753D01*
X160651659Y-82927659D01*
X160679499Y-82893736D01*
X167524345Y-76048890D01*
X168738524Y-76048890D01*
X168783175Y-76196099D01*
X168908359Y-76458920D01*
X169082412Y-76692269D01*
X169298645Y-76887178D01*
X169548748Y-77036157D01*
X169823109Y-77133481D01*
X170053000Y-77012814D01*
X170053000Y-75819000D01*
X170307000Y-75819000D01*
X170307000Y-77012814D01*
X170536891Y-77133481D01*
X170811252Y-77036157D01*
X171061355Y-76887178D01*
X171277588Y-76692269D01*
X171451641Y-76458920D01*
X171576825Y-76196099D01*
X171621476Y-76048890D01*
X171500155Y-75819000D01*
X170307000Y-75819000D01*
X170053000Y-75819000D01*
X168859845Y-75819000D01*
X168738524Y-76048890D01*
X167524345Y-76048890D01*
X169253985Y-74319251D01*
X169415534Y-74427195D01*
X169298645Y-74496822D01*
X169082412Y-74691731D01*
X168908359Y-74925080D01*
X168783175Y-75187901D01*
X168738524Y-75335110D01*
X168859845Y-75565000D01*
X170053000Y-75565000D01*
X170053000Y-75545000D01*
X170307000Y-75545000D01*
X170307000Y-75565000D01*
X171500155Y-75565000D01*
X171621476Y-75335110D01*
X171576825Y-75187901D01*
X171451641Y-74925080D01*
X171277588Y-74691731D01*
X171061355Y-74496822D01*
X170944466Y-74427195D01*
X171126632Y-74305475D01*
X171333475Y-74098632D01*
X171495990Y-73855411D01*
X171607932Y-73585158D01*
X171665000Y-73298260D01*
X171665000Y-73005740D01*
X171607932Y-72718842D01*
X171495990Y-72448589D01*
X171333475Y-72205368D01*
X171126632Y-71998525D01*
X170952240Y-71882000D01*
X171126632Y-71765475D01*
X171333475Y-71558632D01*
X171495990Y-71315411D01*
X171607932Y-71045158D01*
X171665000Y-70758260D01*
X171665000Y-70465740D01*
X171607932Y-70178842D01*
X171495990Y-69908589D01*
X171333475Y-69665368D01*
X171126632Y-69458525D01*
X170952240Y-69342000D01*
X171126632Y-69225475D01*
X171333475Y-69018632D01*
X171495990Y-68775411D01*
X171607932Y-68505158D01*
X171665000Y-68218260D01*
X171665000Y-67925740D01*
X171607932Y-67638842D01*
X171495990Y-67368589D01*
X171333475Y-67125368D01*
X171126632Y-66918525D01*
X170952240Y-66802000D01*
X171126632Y-66685475D01*
X171333475Y-66478632D01*
X171495990Y-66235411D01*
X171607932Y-65965158D01*
X171665000Y-65678260D01*
X171665000Y-65385740D01*
X171607932Y-65098842D01*
X171495990Y-64828589D01*
X171333475Y-64585368D01*
X171201620Y-64453513D01*
X171274180Y-64431502D01*
X171384494Y-64372537D01*
X171481185Y-64293185D01*
X171560537Y-64196494D01*
X171619502Y-64086180D01*
X171655812Y-63966482D01*
X171668072Y-63842000D01*
X171668072Y-63122906D01*
X173223002Y-64677836D01*
X173223001Y-82419930D01*
X172885255Y-82247980D01*
X172480449Y-82133956D01*
X172061176Y-82101098D01*
X171643549Y-82150666D01*
X171243617Y-82280757D01*
X170947962Y-82438786D01*
X170791952Y-82754347D01*
X172104000Y-84066395D01*
X172118143Y-84052253D01*
X172297748Y-84231858D01*
X172283605Y-84246000D01*
X172297748Y-84260143D01*
X172118143Y-84439748D01*
X172104000Y-84425605D01*
X170791952Y-85737653D01*
X170947962Y-86053214D01*
X171322745Y-86244020D01*
X171727551Y-86358044D01*
X172146824Y-86390902D01*
X172564451Y-86341334D01*
X172964383Y-86211243D01*
X173223001Y-86073010D01*
X173223001Y-86897921D01*
X162470259Y-97650664D01*
X162436342Y-97678499D01*
X162408507Y-97712416D01*
X162408505Y-97712418D01*
X162325248Y-97813867D01*
X162242698Y-97968306D01*
X162191864Y-98135884D01*
X162174700Y-98310158D01*
X162179001Y-98353828D01*
X162179000Y-118718761D01*
X162078252Y-118618013D01*
X161810463Y-118439082D01*
X161512912Y-118315832D01*
X161197033Y-118253000D01*
X160874967Y-118253000D01*
X160559088Y-118315832D01*
X160261537Y-118439082D01*
X160051191Y-118579630D01*
X160026537Y-118533506D01*
X159947185Y-118436815D01*
X159850494Y-118357463D01*
X159740180Y-118298498D01*
X159620482Y-118262188D01*
X159496000Y-118249928D01*
X157496000Y-118249928D01*
X157371518Y-118262188D01*
X157251820Y-118298498D01*
X157141506Y-118357463D01*
X157044815Y-118436815D01*
X156965463Y-118533506D01*
X156906498Y-118643820D01*
X156870188Y-118763518D01*
X156857928Y-118888000D01*
X156857928Y-120888000D01*
X156866340Y-120973408D01*
X156631388Y-120621778D01*
X156292222Y-120282612D01*
X155893405Y-120016131D01*
X155450263Y-119832576D01*
X154979827Y-119739000D01*
X154500173Y-119739000D01*
X154029737Y-119832576D01*
X153586595Y-120016131D01*
X153187778Y-120282612D01*
X152848612Y-120621778D01*
X152582131Y-121020595D01*
X152398576Y-121463737D01*
X152305000Y-121934173D01*
X152305000Y-122413827D01*
X152398576Y-122884263D01*
X152582131Y-123327405D01*
X152848612Y-123726222D01*
X153187778Y-124065388D01*
X153586595Y-124331869D01*
X154029737Y-124515424D01*
X154500173Y-124609000D01*
X154979827Y-124609000D01*
X155450263Y-124515424D01*
X155893405Y-124331869D01*
X156292222Y-124065388D01*
X156631388Y-123726222D01*
X156897869Y-123327405D01*
X157081424Y-122884263D01*
X157175000Y-122413827D01*
X157175000Y-121934173D01*
X157081424Y-121463737D01*
X157014565Y-121302326D01*
X157044815Y-121339185D01*
X157141506Y-121418537D01*
X157251820Y-121477502D01*
X157371518Y-121513812D01*
X157496000Y-121526072D01*
X159496000Y-121526072D01*
X159620482Y-121513812D01*
X159740180Y-121477502D01*
X159850494Y-121418537D01*
X159947185Y-121339185D01*
X160026537Y-121242494D01*
X160051191Y-121196370D01*
X160261537Y-121336918D01*
X160559088Y-121460168D01*
X160715487Y-121491278D01*
X158837807Y-123368958D01*
X158657033Y-123333000D01*
X158334967Y-123333000D01*
X158019088Y-123395832D01*
X157721537Y-123519082D01*
X157453748Y-123698013D01*
X157226013Y-123925748D01*
X157047082Y-124193537D01*
X156923832Y-124491088D01*
X156861000Y-124806967D01*
X156861000Y-125129033D01*
X156923832Y-125444912D01*
X157047082Y-125742463D01*
X157115127Y-125844300D01*
X135717393Y-125844300D01*
X135715000Y-123729750D01*
X135556250Y-123571000D01*
X132207000Y-123571000D01*
X132207000Y-123591000D01*
X131953000Y-123591000D01*
X131953000Y-123571000D01*
X131933000Y-123571000D01*
X131933000Y-123317000D01*
X131953000Y-123317000D01*
X131953000Y-119967750D01*
X132207000Y-119967750D01*
X132207000Y-123317000D01*
X135556250Y-123317000D01*
X135715000Y-123158250D01*
X135718072Y-120444000D01*
X135711178Y-120374000D01*
X139801928Y-120374000D01*
X139801928Y-123974000D01*
X139814188Y-124098482D01*
X139850498Y-124218180D01*
X139909463Y-124328494D01*
X139988815Y-124425185D01*
X140085506Y-124504537D01*
X140195820Y-124563502D01*
X140315518Y-124599812D01*
X140440000Y-124612072D01*
X144040000Y-124612072D01*
X144164482Y-124599812D01*
X144284180Y-124563502D01*
X144394494Y-124504537D01*
X144491185Y-124425185D01*
X144570537Y-124328494D01*
X144629502Y-124218180D01*
X144665812Y-124098482D01*
X144678072Y-123974000D01*
X144678072Y-120374000D01*
X144665812Y-120249518D01*
X144629502Y-120129820D01*
X144570537Y-120019506D01*
X144491185Y-119922815D01*
X144394494Y-119843463D01*
X144284180Y-119784498D01*
X144164482Y-119748188D01*
X144040000Y-119735928D01*
X140440000Y-119735928D01*
X140315518Y-119748188D01*
X140195820Y-119784498D01*
X140085506Y-119843463D01*
X139988815Y-119922815D01*
X139909463Y-120019506D01*
X139850498Y-120129820D01*
X139814188Y-120249518D01*
X139801928Y-120374000D01*
X135711178Y-120374000D01*
X135705812Y-120319518D01*
X135669502Y-120199820D01*
X135610537Y-120089506D01*
X135531185Y-119992815D01*
X135434494Y-119913463D01*
X135324180Y-119854498D01*
X135204482Y-119818188D01*
X135080000Y-119805928D01*
X132365750Y-119809000D01*
X132207000Y-119967750D01*
X131953000Y-119967750D01*
X131794250Y-119809000D01*
X129679700Y-119806607D01*
X129679700Y-93496000D01*
X131465928Y-93496000D01*
X131465928Y-96496000D01*
X131478188Y-96620482D01*
X131514498Y-96740180D01*
X131573463Y-96850494D01*
X131652815Y-96947185D01*
X131749506Y-97026537D01*
X131859820Y-97085502D01*
X131979518Y-97121812D01*
X132104000Y-97134072D01*
X135104000Y-97134072D01*
X135228482Y-97121812D01*
X135348180Y-97085502D01*
X135458494Y-97026537D01*
X135555185Y-96947185D01*
X135634537Y-96850494D01*
X135693502Y-96740180D01*
X135729812Y-96620482D01*
X135742072Y-96496000D01*
X135742072Y-93496000D01*
X135729812Y-93371518D01*
X135693502Y-93251820D01*
X135634537Y-93141506D01*
X135555185Y-93044815D01*
X135458494Y-92965463D01*
X135348180Y-92906498D01*
X135228482Y-92870188D01*
X135104000Y-92857928D01*
X132104000Y-92857928D01*
X131979518Y-92870188D01*
X131859820Y-92906498D01*
X131749506Y-92965463D01*
X131652815Y-93044815D01*
X131573463Y-93141506D01*
X131514498Y-93251820D01*
X131478188Y-93371518D01*
X131465928Y-93496000D01*
X129679700Y-93496000D01*
X129679700Y-84035721D01*
X131469000Y-84035721D01*
X131469000Y-84456279D01*
X131551047Y-84868756D01*
X131711988Y-85257302D01*
X131945637Y-85606983D01*
X132243017Y-85904363D01*
X132592698Y-86138012D01*
X132981244Y-86298953D01*
X133393721Y-86381000D01*
X133814279Y-86381000D01*
X134226756Y-86298953D01*
X134615302Y-86138012D01*
X134964983Y-85904363D01*
X135262363Y-85606983D01*
X135496012Y-85257302D01*
X135656953Y-84868756D01*
X135739000Y-84456279D01*
X135739000Y-84035721D01*
X135656953Y-83623244D01*
X135496012Y-83234698D01*
X135262363Y-82885017D01*
X134964983Y-82587637D01*
X134615302Y-82353988D01*
X134226756Y-82193047D01*
X133814279Y-82111000D01*
X133393721Y-82111000D01*
X132981244Y-82193047D01*
X132592698Y-82353988D01*
X132243017Y-82587637D01*
X131945637Y-82885017D01*
X131711988Y-83234698D01*
X131551047Y-83623244D01*
X131469000Y-84035721D01*
X129679700Y-84035721D01*
X129679700Y-74228049D01*
X136533200Y-74228049D01*
X136533200Y-74717551D01*
X136628697Y-75197648D01*
X136816021Y-75649889D01*
X137087974Y-76056895D01*
X137434105Y-76403026D01*
X137841111Y-76674979D01*
X138293352Y-76862303D01*
X138773449Y-76957800D01*
X139262951Y-76957800D01*
X139743048Y-76862303D01*
X140195289Y-76674979D01*
X140602295Y-76403026D01*
X140948426Y-76056895D01*
X141220379Y-75649889D01*
X141407703Y-75197648D01*
X141503200Y-74717551D01*
X141503200Y-74228049D01*
X144153200Y-74228049D01*
X144153200Y-74717551D01*
X144248697Y-75197648D01*
X144436021Y-75649889D01*
X144707974Y-76056895D01*
X145054105Y-76403026D01*
X145461111Y-76674979D01*
X145913352Y-76862303D01*
X146393449Y-76957800D01*
X146882951Y-76957800D01*
X147363048Y-76862303D01*
X147815289Y-76674979D01*
X148222295Y-76403026D01*
X148568426Y-76056895D01*
X148840379Y-75649889D01*
X149027703Y-75197648D01*
X149123200Y-74717551D01*
X149123200Y-74228049D01*
X149027703Y-73747952D01*
X148840379Y-73295711D01*
X148568426Y-72888705D01*
X148222295Y-72542574D01*
X147815289Y-72270621D01*
X147363048Y-72083297D01*
X146882951Y-71987800D01*
X146393449Y-71987800D01*
X145913352Y-72083297D01*
X145461111Y-72270621D01*
X145054105Y-72542574D01*
X144707974Y-72888705D01*
X144436021Y-73295711D01*
X144248697Y-73747952D01*
X144153200Y-74228049D01*
X141503200Y-74228049D01*
X141407703Y-73747952D01*
X141220379Y-73295711D01*
X140948426Y-72888705D01*
X140602295Y-72542574D01*
X140195289Y-72270621D01*
X139743048Y-72083297D01*
X139262951Y-71987800D01*
X138773449Y-71987800D01*
X138293352Y-72083297D01*
X137841111Y-72270621D01*
X137434105Y-72542574D01*
X137087974Y-72888705D01*
X136816021Y-73295711D01*
X136628697Y-73747952D01*
X136533200Y-74228049D01*
X129679700Y-74228049D01*
X129679700Y-71976405D01*
X160744200Y-71976405D01*
X160870114Y-72266377D01*
X161202326Y-72432233D01*
X161560512Y-72530090D01*
X161930906Y-72556189D01*
X162299275Y-72509525D01*
X162651462Y-72391894D01*
X162886286Y-72266377D01*
X163012200Y-71976405D01*
X161878200Y-70842405D01*
X160744200Y-71976405D01*
X129679700Y-71976405D01*
X129679700Y-70715506D01*
X159984811Y-70715506D01*
X160031475Y-71083875D01*
X160149106Y-71436062D01*
X160274623Y-71670886D01*
X160564595Y-71796800D01*
X161698595Y-70662800D01*
X162057805Y-70662800D01*
X163191805Y-71796800D01*
X163481777Y-71670886D01*
X163647633Y-71338674D01*
X163745490Y-70980488D01*
X163771589Y-70610094D01*
X163724925Y-70241725D01*
X163607294Y-69889538D01*
X163481777Y-69654714D01*
X163191805Y-69528800D01*
X162057805Y-70662800D01*
X161698595Y-70662800D01*
X160564595Y-69528800D01*
X160274623Y-69654714D01*
X160108767Y-69986926D01*
X160010910Y-70345112D01*
X159984811Y-70715506D01*
X129679700Y-70715506D01*
X129679700Y-69349195D01*
X160744200Y-69349195D01*
X161878200Y-70483195D01*
X163012200Y-69349195D01*
X162886286Y-69059223D01*
X162554074Y-68893367D01*
X162195888Y-68795510D01*
X161825494Y-68769411D01*
X161457125Y-68816075D01*
X161104938Y-68933706D01*
X160870114Y-69059223D01*
X160744200Y-69349195D01*
X129679700Y-69349195D01*
X129679700Y-60025393D01*
X131794250Y-60023000D01*
X131953000Y-59864250D01*
X131953000Y-56515000D01*
X132207000Y-56515000D01*
X132207000Y-59864250D01*
X132365750Y-60023000D01*
X135080000Y-60026072D01*
X135204482Y-60013812D01*
X135324180Y-59977502D01*
X135434494Y-59918537D01*
X135531185Y-59839185D01*
X135610537Y-59742494D01*
X135669502Y-59632180D01*
X135705812Y-59512482D01*
X135718072Y-59388000D01*
X135715000Y-56673750D01*
X135556250Y-56515000D01*
X132207000Y-56515000D01*
X131953000Y-56515000D01*
X131933000Y-56515000D01*
X131933000Y-56261000D01*
X131953000Y-56261000D01*
X131953000Y-56241000D01*
X132207000Y-56241000D01*
X132207000Y-56261000D01*
X135556250Y-56261000D01*
X135715000Y-56102250D01*
X135716312Y-54942800D01*
X146790128Y-54942800D01*
X146790128Y-58442800D01*
X146802388Y-58567282D01*
X146838698Y-58686980D01*
X146897663Y-58797294D01*
X146977015Y-58893985D01*
X147073706Y-58973337D01*
X147184020Y-59032302D01*
X147303718Y-59068612D01*
X147428200Y-59080872D01*
X150928200Y-59080872D01*
X151052682Y-59068612D01*
X151172380Y-59032302D01*
X151282694Y-58973337D01*
X151379385Y-58893985D01*
X151458737Y-58797294D01*
X151517702Y-58686980D01*
X151554012Y-58567282D01*
X151566272Y-58442800D01*
X151566272Y-54942800D01*
X151554012Y-54818318D01*
X151517702Y-54698620D01*
X151458737Y-54588306D01*
X151379385Y-54491615D01*
X151282694Y-54412263D01*
X151172380Y-54353298D01*
X151052682Y-54316988D01*
X150928200Y-54304728D01*
X147428200Y-54304728D01*
X147303718Y-54316988D01*
X147184020Y-54353298D01*
X147073706Y-54412263D01*
X146977015Y-54491615D01*
X146897663Y-54588306D01*
X146838698Y-54698620D01*
X146802388Y-54818318D01*
X146790128Y-54942800D01*
X135716312Y-54942800D01*
X135717393Y-53987700D01*
X170098607Y-53987700D01*
X170101000Y-56102250D01*
G36*
X170051047Y-92868756D02*
G01*
X170211988Y-93257302D01*
X170445637Y-93606983D01*
X170743017Y-93904363D01*
X171092698Y-94138012D01*
X171215001Y-94188672D01*
X171215000Y-116071765D01*
X168997807Y-118288958D01*
X168817033Y-118253000D01*
X168494967Y-118253000D01*
X168179088Y-118315832D01*
X167881537Y-118439082D01*
X167613748Y-118618013D01*
X167386013Y-118845748D01*
X167207082Y-119113537D01*
X167083832Y-119411088D01*
X167021000Y-119726967D01*
X167021000Y-120049033D01*
X167083832Y-120364912D01*
X167207082Y-120662463D01*
X167386013Y-120930252D01*
X167613748Y-121157987D01*
X167767000Y-121260387D01*
X167767001Y-123595613D01*
X167613748Y-123698013D01*
X167386013Y-123925748D01*
X167207082Y-124193537D01*
X167083832Y-124491088D01*
X167021000Y-124806967D01*
X167021000Y-125129033D01*
X167083832Y-125444912D01*
X167207082Y-125742463D01*
X167275127Y-125844300D01*
X162390932Y-125844300D01*
X162435814Y-125828044D01*
X162576704Y-125538429D01*
X162658384Y-125226892D01*
X162677718Y-124905405D01*
X162633961Y-124586325D01*
X162528795Y-124281912D01*
X162435814Y-124107956D01*
X162171413Y-124012192D01*
X161215605Y-124968000D01*
X161229748Y-124982143D01*
X161050143Y-125161748D01*
X161036000Y-125147605D01*
X161021858Y-125161748D01*
X160842253Y-124982143D01*
X160856395Y-124968000D01*
X160842253Y-124953858D01*
X161021858Y-124774253D01*
X161036000Y-124788395D01*
X161991808Y-123832587D01*
X161896044Y-123568186D01*
X161606429Y-123427296D01*
X161358850Y-123362385D01*
X163665737Y-121055498D01*
X163699659Y-121027659D01*
X163810753Y-120892291D01*
X163893303Y-120737851D01*
X163928513Y-120621778D01*
X163944136Y-120570276D01*
X163956573Y-120444000D01*
X163957000Y-120439667D01*
X163957000Y-120439661D01*
X163961300Y-120396001D01*
X163957000Y-120352341D01*
X163957000Y-98678393D01*
X170003860Y-92631533D01*
X170051047Y-92868756D01*
G37*
X170051047Y-92868756D02*
X170211988Y-93257302D01*
X170445637Y-93606983D01*
X170743017Y-93904363D01*
X171092698Y-94138012D01*
X171215001Y-94188672D01*
X171215000Y-116071765D01*
X168997807Y-118288958D01*
X168817033Y-118253000D01*
X168494967Y-118253000D01*
X168179088Y-118315832D01*
X167881537Y-118439082D01*
X167613748Y-118618013D01*
X167386013Y-118845748D01*
X167207082Y-119113537D01*
X167083832Y-119411088D01*
X167021000Y-119726967D01*
X167021000Y-120049033D01*
X167083832Y-120364912D01*
X167207082Y-120662463D01*
X167386013Y-120930252D01*
X167613748Y-121157987D01*
X167767000Y-121260387D01*
X167767001Y-123595613D01*
X167613748Y-123698013D01*
X167386013Y-123925748D01*
X167207082Y-124193537D01*
X167083832Y-124491088D01*
X167021000Y-124806967D01*
X167021000Y-125129033D01*
X167083832Y-125444912D01*
X167207082Y-125742463D01*
X167275127Y-125844300D01*
X162390932Y-125844300D01*
X162435814Y-125828044D01*
X162576704Y-125538429D01*
X162658384Y-125226892D01*
X162677718Y-124905405D01*
X162633961Y-124586325D01*
X162528795Y-124281912D01*
X162435814Y-124107956D01*
X162171413Y-124012192D01*
X161215605Y-124968000D01*
X161229748Y-124982143D01*
X161050143Y-125161748D01*
X161036000Y-125147605D01*
X161021858Y-125161748D01*
X160842253Y-124982143D01*
X160856395Y-124968000D01*
X160842253Y-124953858D01*
X161021858Y-124774253D01*
X161036000Y-124788395D01*
X161991808Y-123832587D01*
X161896044Y-123568186D01*
X161606429Y-123427296D01*
X161358850Y-123362385D01*
X163665737Y-121055498D01*
X163699659Y-121027659D01*
X163810753Y-120892291D01*
X163893303Y-120737851D01*
X163928513Y-120621778D01*
X163944136Y-120570276D01*
X163956573Y-120444000D01*
X163957000Y-120439667D01*
X163957000Y-120439661D01*
X163961300Y-120396001D01*
X163957000Y-120352341D01*
X163957000Y-98678393D01*
X170003860Y-92631533D01*
X170051047Y-92868756D01*
M02*
