G04 #@! TF.GenerationSoftware,KiCad,Pcbnew,(5.1.9)-1*
G04 #@! TF.CreationDate,2021-01-04T11:02:08-08:00*
G04 #@! TF.ProjectId,Plug_Pass,506c7567-5f50-4617-9373-2e6b69636164,v3.1*
G04 #@! TF.SameCoordinates,Original*
G04 #@! TF.FileFunction,Legend,Top*
G04 #@! TF.FilePolarity,Positive*
%FSLAX46Y46*%
G04 Gerber Fmt 4.6, Leading zero omitted, Abs format (unit mm)*
G04 Created by KiCad (PCBNEW (5.1.9)-1) date 2021-01-04 11:02:08*
%MOMM*%
%LPD*%
G01*
G04 APERTURE LIST*
%ADD10C,0.050000*%
%ADD11C,0.200000*%
%ADD12C,0.120000*%
%ADD13C,0.100000*%
%ADD14C,0.203200*%
%ADD15C,0.127000*%
%ADD16C,0.406400*%
%ADD17C,0.304800*%
%ADD18C,0.254000*%
%ADD19C,0.150000*%
%ADD20C,0.025400*%
%ADD21C,0.057912*%
%ADD22C,0.138988*%
%ADD23C,0.038608*%
%ADD24C,0.050800*%
%ADD25C,0.046329*%
%ADD26C,0.061772*%
%ADD27C,0.075000*%
G04 APERTURE END LIST*
D10*
X148349904Y-83329904D02*
X148468952Y-83246571D01*
X148349904Y-83187047D02*
X148599904Y-83187047D01*
X148599904Y-83282285D01*
X148588000Y-83306095D01*
X148576095Y-83318000D01*
X148552285Y-83329904D01*
X148516571Y-83329904D01*
X148492761Y-83318000D01*
X148480857Y-83306095D01*
X148468952Y-83282285D01*
X148468952Y-83187047D01*
X148480857Y-83437047D02*
X148480857Y-83520380D01*
X148349904Y-83556095D02*
X148349904Y-83437047D01*
X148599904Y-83437047D01*
X148599904Y-83556095D01*
X148361809Y-83651333D02*
X148349904Y-83687047D01*
X148349904Y-83746571D01*
X148361809Y-83770380D01*
X148373714Y-83782285D01*
X148397523Y-83794190D01*
X148421333Y-83794190D01*
X148445142Y-83782285D01*
X148457047Y-83770380D01*
X148468952Y-83746571D01*
X148480857Y-83698952D01*
X148492761Y-83675142D01*
X148504666Y-83663238D01*
X148528476Y-83651333D01*
X148552285Y-83651333D01*
X148576095Y-83663238D01*
X148588000Y-83675142D01*
X148599904Y-83698952D01*
X148599904Y-83758476D01*
X148588000Y-83794190D01*
X148480857Y-83901333D02*
X148480857Y-83984666D01*
X148349904Y-84020380D02*
X148349904Y-83901333D01*
X148599904Y-83901333D01*
X148599904Y-84020380D01*
X148599904Y-84091809D02*
X148599904Y-84234666D01*
X148349904Y-84163238D02*
X148599904Y-84163238D01*
X148445142Y-82355571D02*
X148445142Y-82546047D01*
X148349904Y-82450809D02*
X148540380Y-82450809D01*
X148599904Y-82784142D02*
X148599904Y-82665095D01*
X148480857Y-82653190D01*
X148492761Y-82665095D01*
X148504666Y-82688904D01*
X148504666Y-82748428D01*
X148492761Y-82772238D01*
X148480857Y-82784142D01*
X148457047Y-82796047D01*
X148397523Y-82796047D01*
X148373714Y-82784142D01*
X148361809Y-82772238D01*
X148349904Y-82748428D01*
X148349904Y-82688904D01*
X148361809Y-82665095D01*
X148373714Y-82653190D01*
X148599904Y-82867476D02*
X148349904Y-82950809D01*
X148599904Y-83034142D01*
X148588000Y-81470523D02*
X148599904Y-81446714D01*
X148599904Y-81411000D01*
X148588000Y-81375285D01*
X148564190Y-81351476D01*
X148540380Y-81339571D01*
X148492761Y-81327666D01*
X148457047Y-81327666D01*
X148409428Y-81339571D01*
X148385619Y-81351476D01*
X148361809Y-81375285D01*
X148349904Y-81411000D01*
X148349904Y-81434809D01*
X148361809Y-81470523D01*
X148373714Y-81482428D01*
X148457047Y-81482428D01*
X148457047Y-81434809D01*
X148349904Y-81589571D02*
X148599904Y-81589571D01*
X148349904Y-81732428D01*
X148599904Y-81732428D01*
X148349904Y-81851476D02*
X148599904Y-81851476D01*
X148599904Y-81911000D01*
X148588000Y-81946714D01*
X148564190Y-81970523D01*
X148540380Y-81982428D01*
X148492761Y-81994333D01*
X148457047Y-81994333D01*
X148409428Y-81982428D01*
X148385619Y-81970523D01*
X148361809Y-81946714D01*
X148349904Y-81911000D01*
X148349904Y-81851476D01*
X142087190Y-84014428D02*
X142099095Y-83978714D01*
X142099095Y-83919190D01*
X142087190Y-83895380D01*
X142075285Y-83883476D01*
X142051476Y-83871571D01*
X142027666Y-83871571D01*
X142003857Y-83883476D01*
X141991952Y-83895380D01*
X141980047Y-83919190D01*
X141968142Y-83966809D01*
X141956238Y-83990619D01*
X141944333Y-84002523D01*
X141920523Y-84014428D01*
X141896714Y-84014428D01*
X141872904Y-84002523D01*
X141861000Y-83990619D01*
X141849095Y-83966809D01*
X141849095Y-83907285D01*
X141861000Y-83871571D01*
X142075285Y-83621571D02*
X142087190Y-83633476D01*
X142099095Y-83669190D01*
X142099095Y-83693000D01*
X142087190Y-83728714D01*
X142063380Y-83752523D01*
X142039571Y-83764428D01*
X141991952Y-83776333D01*
X141956238Y-83776333D01*
X141908619Y-83764428D01*
X141884809Y-83752523D01*
X141861000Y-83728714D01*
X141849095Y-83693000D01*
X141849095Y-83669190D01*
X141861000Y-83633476D01*
X141872904Y-83621571D01*
X142099095Y-83514428D02*
X141849095Y-83514428D01*
X142099095Y-83371571D02*
X141956238Y-83478714D01*
X141849095Y-83371571D02*
X141991952Y-83514428D01*
X142099095Y-83069857D02*
X141849095Y-83069857D01*
X142027666Y-82986523D01*
X141849095Y-82903190D01*
X142099095Y-82903190D01*
X142099095Y-82784142D02*
X141849095Y-82784142D01*
X142087190Y-82677000D02*
X142099095Y-82641285D01*
X142099095Y-82581761D01*
X142087190Y-82557952D01*
X142075285Y-82546047D01*
X142051476Y-82534142D01*
X142027666Y-82534142D01*
X142003857Y-82546047D01*
X141991952Y-82557952D01*
X141980047Y-82581761D01*
X141968142Y-82629380D01*
X141956238Y-82653190D01*
X141944333Y-82665095D01*
X141920523Y-82677000D01*
X141896714Y-82677000D01*
X141872904Y-82665095D01*
X141861000Y-82653190D01*
X141849095Y-82629380D01*
X141849095Y-82569857D01*
X141861000Y-82534142D01*
X141849095Y-82379380D02*
X141849095Y-82331761D01*
X141861000Y-82307952D01*
X141884809Y-82284142D01*
X141932428Y-82272238D01*
X142015761Y-82272238D01*
X142063380Y-82284142D01*
X142087190Y-82307952D01*
X142099095Y-82331761D01*
X142099095Y-82379380D01*
X142087190Y-82403190D01*
X142063380Y-82427000D01*
X142015761Y-82438904D01*
X141932428Y-82438904D01*
X141884809Y-82427000D01*
X141861000Y-82403190D01*
X141849095Y-82379380D01*
X142099095Y-82053857D02*
X141849095Y-82053857D01*
X142027666Y-81970523D01*
X141849095Y-81887190D01*
X142099095Y-81887190D01*
X141849095Y-81720523D02*
X141849095Y-81672904D01*
X141861000Y-81649095D01*
X141884809Y-81625285D01*
X141932428Y-81613380D01*
X142015761Y-81613380D01*
X142063380Y-81625285D01*
X142087190Y-81649095D01*
X142099095Y-81672904D01*
X142099095Y-81720523D01*
X142087190Y-81744333D01*
X142063380Y-81768142D01*
X142015761Y-81780047D01*
X141932428Y-81780047D01*
X141884809Y-81768142D01*
X141861000Y-81744333D01*
X141849095Y-81720523D01*
X142087190Y-81518142D02*
X142099095Y-81482428D01*
X142099095Y-81422904D01*
X142087190Y-81399095D01*
X142075285Y-81387190D01*
X142051476Y-81375285D01*
X142027666Y-81375285D01*
X142003857Y-81387190D01*
X141991952Y-81399095D01*
X141980047Y-81422904D01*
X141968142Y-81470523D01*
X141956238Y-81494333D01*
X141944333Y-81506238D01*
X141920523Y-81518142D01*
X141896714Y-81518142D01*
X141872904Y-81506238D01*
X141861000Y-81494333D01*
X141849095Y-81470523D01*
X141849095Y-81411000D01*
X141861000Y-81375285D01*
X142099095Y-81268142D02*
X141849095Y-81268142D01*
D11*
X131825000Y-80809000D02*
X133275000Y-80809000D01*
X133625000Y-86564000D02*
X133625000Y-80314000D01*
X139425000Y-86564000D02*
X133625000Y-86564000D01*
X139425000Y-80314000D02*
X139425000Y-86564000D01*
X133625000Y-80314000D02*
X139425000Y-80314000D01*
D12*
X146498000Y-84187000D02*
X146498000Y-84237000D01*
X144078000Y-84187000D02*
X144078000Y-84237000D01*
X146498000Y-81117000D02*
X146498000Y-81167000D01*
X144078000Y-81117000D02*
X144078000Y-81167000D01*
X142698000Y-81167000D02*
X144078000Y-81167000D01*
X144078000Y-84237000D02*
X146498000Y-84237000D01*
X144078000Y-81117000D02*
X146498000Y-81117000D01*
D13*
G36*
X162918000Y-111991000D02*
G01*
X162918000Y-112291000D01*
X163218000Y-112291000D01*
X163218000Y-111991000D01*
X162918000Y-111991000D01*
G37*
D14*
X133096000Y-62865000D02*
X133096000Y-66421000D01*
X136652000Y-62865000D02*
X133096000Y-62865000D01*
X136652000Y-58039000D02*
X136652000Y-62865000D01*
X149860000Y-62865000D02*
X149860000Y-58039000D01*
X153416000Y-62865000D02*
X149860000Y-62865000D01*
X153416000Y-66421000D02*
X153416000Y-62865000D01*
X149860000Y-66421000D02*
X153416000Y-66421000D01*
X149860000Y-68453000D02*
X149860000Y-66421000D01*
X147066000Y-71247000D02*
X149860000Y-68453000D01*
X139446000Y-71247000D02*
X147066000Y-71247000D01*
X136652000Y-68453000D02*
X139446000Y-71247000D01*
X136652000Y-66421000D02*
X136652000Y-68453000D01*
X133096000Y-66421000D02*
X136652000Y-66421000D01*
D11*
X163392000Y-92599000D02*
G75*
G03*
X163392000Y-92599000I-100000J0D01*
G01*
D15*
X168592000Y-96249000D02*
X166012000Y-96249000D01*
X168592000Y-94469000D02*
X168592000Y-96249000D01*
X160592000Y-96249000D02*
X163172000Y-96249000D01*
X160592000Y-94469000D02*
X160592000Y-96249000D01*
D11*
X138110000Y-104721000D02*
X138110000Y-104721000D01*
X138110000Y-104821000D02*
X138110000Y-104821000D01*
D13*
X137560000Y-103621000D02*
X137560000Y-103221000D01*
X135060000Y-103621000D02*
X135060000Y-103221000D01*
D11*
X138110000Y-104821000D02*
G75*
G02*
X138110000Y-104721000I0J50000D01*
G01*
X138110000Y-104721000D02*
G75*
G02*
X138110000Y-104821000I0J-50000D01*
G01*
X143842000Y-72841000D02*
X143842000Y-72841000D01*
X143742000Y-72841000D02*
X143742000Y-72841000D01*
X143842000Y-72841000D02*
X143842000Y-72841000D01*
X143742000Y-72841000D02*
G75*
G02*
X143842000Y-72841000I50000J0D01*
G01*
X143842000Y-72841000D02*
G75*
G02*
X143742000Y-72841000I-50000J0D01*
G01*
X143742000Y-72841000D02*
G75*
G02*
X143842000Y-72841000I50000J0D01*
G01*
X163966000Y-99509000D02*
X163966000Y-102734000D01*
X168266000Y-97634000D02*
X168266000Y-102734000D01*
X153230000Y-88891000D02*
X156455000Y-88891000D01*
X151355000Y-84591000D02*
X156455000Y-84591000D01*
D16*
X171942000Y-94377000D02*
X169942000Y-94377000D01*
D15*
X172042000Y-93377000D02*
X169842000Y-93377000D01*
X172042000Y-97377000D02*
X172042000Y-93377000D01*
X169842000Y-97377000D02*
X172042000Y-97377000D01*
X169842000Y-93377000D02*
X169842000Y-97377000D01*
D14*
X162625000Y-90551000D02*
G75*
G03*
X162625000Y-90551000I-700000J0D01*
G01*
X164657000Y-90551000D02*
G75*
G03*
X164657000Y-90551000I-700000J0D01*
G01*
X147512000Y-106172000D02*
G75*
G03*
X147512000Y-106172000I-700000J0D01*
G01*
X161863000Y-108204000D02*
G75*
G03*
X161863000Y-108204000I-700000J0D01*
G01*
X161863000Y-110998000D02*
G75*
G03*
X161863000Y-110998000I-700000J0D01*
G01*
X161863000Y-113792000D02*
G75*
G03*
X161863000Y-113792000I-700000J0D01*
G01*
X147512000Y-108458000D02*
G75*
G03*
X147512000Y-108458000I-700000J0D01*
G01*
X147512000Y-110998000D02*
G75*
G03*
X147512000Y-110998000I-700000J0D01*
G01*
X147512000Y-113792000D02*
G75*
G03*
X147512000Y-113792000I-700000J0D01*
G01*
D13*
G36*
X162918000Y-108943000D02*
G01*
X162918000Y-109243000D01*
X163218000Y-109243000D01*
X163218000Y-108943000D01*
X162918000Y-108943000D01*
G37*
X166558000Y-111217000D02*
X166558000Y-111217000D01*
X166558000Y-111317000D02*
X166558000Y-111317000D01*
X167208000Y-107742000D02*
X167208000Y-109117000D01*
X168058000Y-107742000D02*
X167208000Y-107742000D01*
X167208000Y-113492000D02*
X167208000Y-112117000D01*
X168058000Y-113492000D02*
X167208000Y-113492000D01*
X171058000Y-113492000D02*
X171058000Y-107742000D01*
X166558000Y-111317000D02*
G75*
G02*
X166558000Y-111217000I0J50000D01*
G01*
X166558000Y-111217000D02*
G75*
G02*
X166558000Y-111317000I0J-50000D01*
G01*
X151340000Y-71838000D02*
X151790000Y-71838000D01*
X151340000Y-71838000D02*
X151340000Y-72288000D01*
X151340000Y-79038000D02*
X151340000Y-78588000D01*
X151340000Y-79038000D02*
X151790000Y-79038000D01*
X158540000Y-79038000D02*
X158090000Y-79038000D01*
X158540000Y-79038000D02*
X158540000Y-78588000D01*
X158090000Y-71838000D02*
X158090000Y-70538000D01*
X158190000Y-71838000D02*
X158090000Y-71838000D01*
X158540000Y-72188000D02*
X158190000Y-71838000D01*
X158540000Y-72288000D02*
X158540000Y-72188000D01*
X162948000Y-81655000D02*
X163448000Y-81655000D01*
X162948000Y-81655000D02*
X162948000Y-82155000D01*
X162948000Y-87255000D02*
X163448000Y-87255000D01*
X162948000Y-87255000D02*
X162948000Y-86755000D01*
X173348000Y-87255000D02*
X172848000Y-87255000D01*
X173348000Y-87255000D02*
X173348000Y-86755000D01*
X172673000Y-81705000D02*
X172673000Y-80030000D01*
X172823000Y-81705000D02*
X172673000Y-81705000D01*
X173348000Y-82230000D02*
X172823000Y-81705000D01*
X173348000Y-82405000D02*
X173348000Y-82230000D01*
D14*
X156064000Y-63974000D02*
X156864000Y-63974000D01*
X158114000Y-64224000D02*
X158114000Y-65824000D01*
X154814000Y-64224000D02*
X154814000Y-65824000D01*
D17*
X139507000Y-114311000D02*
G75*
G03*
X139507000Y-114311000I-127000J0D01*
G01*
D14*
X133252000Y-107921000D02*
X132940000Y-107921000D01*
X132940000Y-107921000D02*
X132940000Y-108233000D01*
X138840000Y-113821000D02*
X138528000Y-113821000D01*
X138840000Y-108233000D02*
X138840000Y-107921000D01*
X138840000Y-107921000D02*
X138528000Y-107921000D01*
X132940000Y-113509000D02*
X132940000Y-113821000D01*
X138840000Y-113821000D02*
X138840000Y-113509000D01*
X133252000Y-113821000D02*
X132940000Y-113821000D01*
D12*
X163016000Y-72567000D02*
X163016000Y-74382000D01*
X162761000Y-72567000D02*
X163016000Y-72567000D01*
X162761000Y-68707000D02*
X162761000Y-72567000D01*
X162761000Y-64847000D02*
X163016000Y-64847000D01*
X162761000Y-68707000D02*
X162761000Y-64847000D01*
X173281000Y-72567000D02*
X173026000Y-72567000D01*
X173281000Y-68707000D02*
X173281000Y-72567000D01*
X173281000Y-64847000D02*
X173026000Y-64847000D01*
X173281000Y-68707000D02*
X173281000Y-64847000D01*
D18*
X133525380Y-79635047D02*
X133706809Y-79695523D01*
X134009190Y-79695523D01*
X134130142Y-79635047D01*
X134190619Y-79574571D01*
X134251095Y-79453619D01*
X134251095Y-79332666D01*
X134190619Y-79211714D01*
X134130142Y-79151238D01*
X134009190Y-79090761D01*
X133767285Y-79030285D01*
X133646333Y-78969809D01*
X133585857Y-78909333D01*
X133525380Y-78788380D01*
X133525380Y-78667428D01*
X133585857Y-78546476D01*
X133646333Y-78486000D01*
X133767285Y-78425523D01*
X134069666Y-78425523D01*
X134251095Y-78486000D01*
X135460619Y-79695523D02*
X134734904Y-79695523D01*
X135097761Y-79695523D02*
X135097761Y-78425523D01*
X134976809Y-78606952D01*
X134855857Y-78727904D01*
X134734904Y-78788380D01*
D19*
X144954666Y-79569380D02*
X144954666Y-80283666D01*
X144907047Y-80426523D01*
X144811809Y-80521761D01*
X144668952Y-80569380D01*
X144573714Y-80569380D01*
X145335619Y-79569380D02*
X145954666Y-79569380D01*
X145621333Y-79950333D01*
X145764190Y-79950333D01*
X145859428Y-79997952D01*
X145907047Y-80045571D01*
X145954666Y-80140809D01*
X145954666Y-80378904D01*
X145907047Y-80474142D01*
X145859428Y-80521761D01*
X145764190Y-80569380D01*
X145478476Y-80569380D01*
X145383238Y-80521761D01*
X145335619Y-80474142D01*
D20*
X162547904Y-112172870D02*
X162426952Y-112257537D01*
X162547904Y-112318013D02*
X162293904Y-112318013D01*
X162293904Y-112221251D01*
X162306000Y-112197061D01*
X162318095Y-112184966D01*
X162342285Y-112172870D01*
X162378571Y-112172870D01*
X162402761Y-112184966D01*
X162414857Y-112197061D01*
X162426952Y-112221251D01*
X162426952Y-112318013D01*
X162293904Y-112088204D02*
X162293904Y-111930966D01*
X162390666Y-112015632D01*
X162390666Y-111979347D01*
X162402761Y-111955156D01*
X162414857Y-111943061D01*
X162439047Y-111930966D01*
X162499523Y-111930966D01*
X162523714Y-111943061D01*
X162535809Y-111955156D01*
X162547904Y-111979347D01*
X162547904Y-112051918D01*
X162535809Y-112076109D01*
X162523714Y-112088204D01*
D21*
X150398480Y-115776828D02*
X150370902Y-115804405D01*
X150288171Y-115831982D01*
X150233017Y-115831982D01*
X150150285Y-115804405D01*
X150095131Y-115749251D01*
X150067554Y-115694097D01*
X150039977Y-115583788D01*
X150039977Y-115501057D01*
X150067554Y-115390748D01*
X150095131Y-115335594D01*
X150150285Y-115280440D01*
X150233017Y-115252862D01*
X150288171Y-115252862D01*
X150370902Y-115280440D01*
X150398480Y-115308017D01*
X150591520Y-115252862D02*
X150977600Y-115252862D01*
X150729405Y-115831982D01*
D22*
X137183576Y-56835765D02*
X137293885Y-56872535D01*
X137330654Y-56909304D01*
X137367424Y-56982843D01*
X137367424Y-57093152D01*
X137330654Y-57166691D01*
X137293885Y-57203460D01*
X137220346Y-57240230D01*
X136926189Y-57240230D01*
X136926189Y-56468070D01*
X137183576Y-56468070D01*
X137257115Y-56504840D01*
X137293885Y-56541609D01*
X137330654Y-56615148D01*
X137330654Y-56688687D01*
X137293885Y-56762226D01*
X137257115Y-56798996D01*
X137183576Y-56835765D01*
X136926189Y-56835765D01*
X138102814Y-57240230D02*
X137661580Y-57240230D01*
X137882197Y-57240230D02*
X137882197Y-56468070D01*
X137808658Y-56578379D01*
X137735119Y-56651918D01*
X137661580Y-56688687D01*
D10*
X167848000Y-91074142D02*
X167848000Y-91717000D01*
X167805142Y-91845571D01*
X167719428Y-91931285D01*
X167590857Y-91974142D01*
X167505142Y-91974142D01*
X168748000Y-91974142D02*
X168233714Y-91974142D01*
X168490857Y-91974142D02*
X168490857Y-91074142D01*
X168405142Y-91202714D01*
X168319428Y-91288428D01*
X168233714Y-91331285D01*
X134516857Y-100058142D02*
X134516857Y-100415285D01*
X134266857Y-99665285D02*
X134516857Y-100058142D01*
X134766857Y-99665285D01*
X135409714Y-100415285D02*
X134981142Y-100415285D01*
X135195428Y-100415285D02*
X135195428Y-99665285D01*
X135124000Y-99772428D01*
X135052571Y-99843857D01*
X134981142Y-99879571D01*
X142228095Y-75803095D02*
X142466190Y-75803095D01*
X141966190Y-75969761D02*
X142228095Y-75803095D01*
X141966190Y-75636428D01*
X142013809Y-75493571D02*
X141990000Y-75469761D01*
X141966190Y-75422142D01*
X141966190Y-75303095D01*
X141990000Y-75255476D01*
X142013809Y-75231666D01*
X142061428Y-75207857D01*
X142109047Y-75207857D01*
X142180476Y-75231666D01*
X142466190Y-75517380D01*
X142466190Y-75207857D01*
D23*
X131644635Y-87238616D02*
X131515941Y-87054768D01*
X131424018Y-87238616D02*
X131424018Y-86852536D01*
X131571096Y-86852536D01*
X131607865Y-86870921D01*
X131626250Y-86889305D01*
X131644635Y-86926075D01*
X131644635Y-86981229D01*
X131626250Y-87017999D01*
X131607865Y-87036383D01*
X131571096Y-87054768D01*
X131424018Y-87054768D01*
X132012330Y-87238616D02*
X131791713Y-87238616D01*
X131902021Y-87238616D02*
X131902021Y-86852536D01*
X131865252Y-86907690D01*
X131828482Y-86944460D01*
X131791713Y-86962844D01*
X132159408Y-86889305D02*
X132177793Y-86870921D01*
X132214562Y-86852536D01*
X132306486Y-86852536D01*
X132343256Y-86870921D01*
X132361640Y-86889305D01*
X132380025Y-86926075D01*
X132380025Y-86962844D01*
X132361640Y-87017999D01*
X132141023Y-87238616D01*
X132380025Y-87238616D01*
X170633635Y-91683616D02*
X170504941Y-91499768D01*
X170413018Y-91683616D02*
X170413018Y-91297536D01*
X170560096Y-91297536D01*
X170596865Y-91315921D01*
X170615250Y-91334305D01*
X170633635Y-91371075D01*
X170633635Y-91426229D01*
X170615250Y-91462999D01*
X170596865Y-91481383D01*
X170560096Y-91499768D01*
X170413018Y-91499768D01*
X171001330Y-91683616D02*
X170780713Y-91683616D01*
X170891021Y-91683616D02*
X170891021Y-91297536D01*
X170854252Y-91352690D01*
X170817482Y-91389460D01*
X170780713Y-91407844D01*
X171369025Y-91683616D02*
X171148408Y-91683616D01*
X171258717Y-91683616D02*
X171258717Y-91297536D01*
X171221947Y-91352690D01*
X171185178Y-91389460D01*
X171148408Y-91407844D01*
X170633635Y-89905616D02*
X170504941Y-89721768D01*
X170413018Y-89905616D02*
X170413018Y-89519536D01*
X170560096Y-89519536D01*
X170596865Y-89537921D01*
X170615250Y-89556305D01*
X170633635Y-89593075D01*
X170633635Y-89648229D01*
X170615250Y-89684999D01*
X170596865Y-89703383D01*
X170560096Y-89721768D01*
X170413018Y-89721768D01*
X171001330Y-89905616D02*
X170780713Y-89905616D01*
X170891021Y-89905616D02*
X170891021Y-89519536D01*
X170854252Y-89574690D01*
X170817482Y-89611460D01*
X170780713Y-89629844D01*
X171240332Y-89519536D02*
X171277101Y-89519536D01*
X171313871Y-89537921D01*
X171332256Y-89556305D01*
X171350640Y-89593075D01*
X171369025Y-89666614D01*
X171369025Y-89758538D01*
X171350640Y-89832077D01*
X171332256Y-89868846D01*
X171313871Y-89887231D01*
X171277101Y-89905616D01*
X171240332Y-89905616D01*
X171203562Y-89887231D01*
X171185178Y-89868846D01*
X171166793Y-89832077D01*
X171148408Y-89758538D01*
X171148408Y-89666614D01*
X171166793Y-89593075D01*
X171185178Y-89556305D01*
X171203562Y-89537921D01*
X171240332Y-89519536D01*
X159807670Y-62973615D02*
X159678977Y-62789767D01*
X159587053Y-62973615D02*
X159587053Y-62587535D01*
X159734131Y-62587535D01*
X159770900Y-62605920D01*
X159789285Y-62624304D01*
X159807670Y-62661074D01*
X159807670Y-62716228D01*
X159789285Y-62752998D01*
X159770900Y-62771382D01*
X159734131Y-62789767D01*
X159587053Y-62789767D01*
X160138596Y-62716228D02*
X160138596Y-62973615D01*
X160046672Y-62569150D02*
X159954748Y-62844921D01*
X160193750Y-62844921D01*
X161585670Y-62973615D02*
X161456977Y-62789767D01*
X161365053Y-62973615D02*
X161365053Y-62587535D01*
X161512131Y-62587535D01*
X161548900Y-62605920D01*
X161567285Y-62624304D01*
X161585670Y-62661074D01*
X161585670Y-62716228D01*
X161567285Y-62752998D01*
X161548900Y-62771382D01*
X161512131Y-62789767D01*
X161365053Y-62789767D01*
X161732748Y-62624304D02*
X161751133Y-62605920D01*
X161787902Y-62587535D01*
X161879826Y-62587535D01*
X161916596Y-62605920D01*
X161934980Y-62624304D01*
X161953365Y-62661074D01*
X161953365Y-62697843D01*
X161934980Y-62752998D01*
X161714363Y-62973615D01*
X161953365Y-62973615D01*
D21*
X133283480Y-119641982D02*
X133007708Y-119641982D01*
X133007708Y-119062862D01*
X133752291Y-119062862D02*
X133476520Y-119062862D01*
X133448942Y-119338634D01*
X133476520Y-119311057D01*
X133531674Y-119283480D01*
X133669560Y-119283480D01*
X133724714Y-119311057D01*
X133752291Y-119338634D01*
X133779868Y-119393788D01*
X133779868Y-119531674D01*
X133752291Y-119586828D01*
X133724714Y-119614405D01*
X133669560Y-119641982D01*
X133531674Y-119641982D01*
X133476520Y-119614405D01*
X133448942Y-119586828D01*
X141993982Y-109667520D02*
X141993982Y-109943291D01*
X141414862Y-109943291D01*
X141607902Y-109226285D02*
X141993982Y-109226285D01*
X141387285Y-109364171D02*
X141800942Y-109502057D01*
X141800942Y-109143554D01*
X141993982Y-112745520D02*
X141993982Y-113021291D01*
X141414862Y-113021291D01*
X141414862Y-112607634D02*
X141414862Y-112249131D01*
X141635480Y-112442171D01*
X141635480Y-112359440D01*
X141663057Y-112304285D01*
X141690634Y-112276708D01*
X141745788Y-112249131D01*
X141883674Y-112249131D01*
X141938828Y-112276708D01*
X141966405Y-112304285D01*
X141993982Y-112359440D01*
X141993982Y-112524902D01*
X141966405Y-112580057D01*
X141938828Y-112607634D01*
X142882982Y-118587520D02*
X142882982Y-118863291D01*
X142303862Y-118863291D01*
X142359017Y-118422057D02*
X142331440Y-118394480D01*
X142303862Y-118339325D01*
X142303862Y-118201440D01*
X142331440Y-118146285D01*
X142359017Y-118118708D01*
X142414171Y-118091131D01*
X142469325Y-118091131D01*
X142552057Y-118118708D01*
X142882982Y-118449634D01*
X142882982Y-118091131D01*
D23*
X135317653Y-89074655D02*
X135133805Y-89074655D01*
X135133805Y-88688575D01*
X135648579Y-89074655D02*
X135427961Y-89074655D01*
X135538270Y-89074655D02*
X135538270Y-88688575D01*
X135501500Y-88743729D01*
X135464731Y-88780499D01*
X135427961Y-88798883D01*
D24*
X133966857Y-88800214D02*
X134257142Y-88800214D01*
X134112000Y-88945357D02*
X134112000Y-88655071D01*
D23*
X162233975Y-99766845D02*
X162215590Y-99785230D01*
X162160436Y-99803615D01*
X162123666Y-99803615D01*
X162068512Y-99785230D01*
X162031742Y-99748460D01*
X162013358Y-99711691D01*
X161994973Y-99638152D01*
X161994973Y-99582998D01*
X162013358Y-99509459D01*
X162031742Y-99472689D01*
X162068512Y-99435920D01*
X162123666Y-99417535D01*
X162160436Y-99417535D01*
X162215590Y-99435920D01*
X162233975Y-99454304D01*
X162362668Y-99417535D02*
X162601670Y-99417535D01*
X162472977Y-99564613D01*
X162528131Y-99564613D01*
X162564900Y-99582998D01*
X162583285Y-99601382D01*
X162601670Y-99638152D01*
X162601670Y-99730076D01*
X162583285Y-99766845D01*
X162564900Y-99785230D01*
X162528131Y-99803615D01*
X162417822Y-99803615D01*
X162381053Y-99785230D01*
X162362668Y-99766845D01*
X162730363Y-99417535D02*
X162969365Y-99417535D01*
X162840672Y-99564613D01*
X162895826Y-99564613D01*
X162932596Y-99582998D01*
X162950980Y-99601382D01*
X162969365Y-99638152D01*
X162969365Y-99730076D01*
X162950980Y-99766845D01*
X162932596Y-99785230D01*
X162895826Y-99803615D01*
X162785518Y-99803615D01*
X162748748Y-99785230D01*
X162730363Y-99766845D01*
D10*
X167953571Y-103556571D02*
X167929761Y-103580380D01*
X167858333Y-103604190D01*
X167810714Y-103604190D01*
X167739285Y-103580380D01*
X167691666Y-103532761D01*
X167667857Y-103485142D01*
X167644047Y-103389904D01*
X167644047Y-103318476D01*
X167667857Y-103223238D01*
X167691666Y-103175619D01*
X167739285Y-103128000D01*
X167810714Y-103104190D01*
X167858333Y-103104190D01*
X167929761Y-103128000D01*
X167953571Y-103151809D01*
X168120238Y-103104190D02*
X168429761Y-103104190D01*
X168263095Y-103294666D01*
X168334523Y-103294666D01*
X168382142Y-103318476D01*
X168405952Y-103342285D01*
X168429761Y-103389904D01*
X168429761Y-103508952D01*
X168405952Y-103556571D01*
X168382142Y-103580380D01*
X168334523Y-103604190D01*
X168191666Y-103604190D01*
X168144047Y-103580380D01*
X168120238Y-103556571D01*
X168905952Y-103604190D02*
X168620238Y-103604190D01*
X168763095Y-103604190D02*
X168763095Y-103104190D01*
X168715476Y-103175619D01*
X168667857Y-103223238D01*
X168620238Y-103247047D01*
D15*
X164374285Y-98237523D02*
X164374285Y-97850476D01*
X164567809Y-98044000D02*
X164180761Y-98044000D01*
D23*
X155248975Y-81224845D02*
X155230590Y-81243230D01*
X155175436Y-81261615D01*
X155138666Y-81261615D01*
X155083512Y-81243230D01*
X155046742Y-81206460D01*
X155028358Y-81169691D01*
X155009973Y-81096152D01*
X155009973Y-81040998D01*
X155028358Y-80967459D01*
X155046742Y-80930689D01*
X155083512Y-80893920D01*
X155138666Y-80875535D01*
X155175436Y-80875535D01*
X155230590Y-80893920D01*
X155248975Y-80912304D01*
X155396053Y-80912304D02*
X155414438Y-80893920D01*
X155451207Y-80875535D01*
X155543131Y-80875535D01*
X155579900Y-80893920D01*
X155598285Y-80912304D01*
X155616670Y-80949074D01*
X155616670Y-80985843D01*
X155598285Y-81040998D01*
X155377668Y-81261615D01*
X155616670Y-81261615D01*
X155800518Y-81261615D02*
X155874057Y-81261615D01*
X155910826Y-81243230D01*
X155929211Y-81224845D01*
X155965980Y-81169691D01*
X155984365Y-81096152D01*
X155984365Y-80949074D01*
X155965980Y-80912304D01*
X155947596Y-80893920D01*
X155910826Y-80875535D01*
X155837287Y-80875535D01*
X155800518Y-80893920D01*
X155782133Y-80912304D01*
X155763748Y-80949074D01*
X155763748Y-81040998D01*
X155782133Y-81077767D01*
X155800518Y-81096152D01*
X155837287Y-81114537D01*
X155910826Y-81114537D01*
X155947596Y-81096152D01*
X155965980Y-81077767D01*
X155984365Y-81040998D01*
D10*
X155507571Y-84252571D02*
X155483761Y-84276380D01*
X155412333Y-84300190D01*
X155364714Y-84300190D01*
X155293285Y-84276380D01*
X155245666Y-84228761D01*
X155221857Y-84181142D01*
X155198047Y-84085904D01*
X155198047Y-84014476D01*
X155221857Y-83919238D01*
X155245666Y-83871619D01*
X155293285Y-83824000D01*
X155364714Y-83800190D01*
X155412333Y-83800190D01*
X155483761Y-83824000D01*
X155507571Y-83847809D01*
X155698047Y-83847809D02*
X155721857Y-83824000D01*
X155769476Y-83800190D01*
X155888523Y-83800190D01*
X155936142Y-83824000D01*
X155959952Y-83847809D01*
X155983761Y-83895428D01*
X155983761Y-83943047D01*
X155959952Y-84014476D01*
X155674238Y-84300190D01*
X155983761Y-84300190D01*
X156150428Y-83800190D02*
X156483761Y-83800190D01*
X156269476Y-84300190D01*
D15*
X151571476Y-88555285D02*
X151958523Y-88555285D01*
X151765000Y-88748809D02*
X151765000Y-88361761D01*
D25*
X132360491Y-102914268D02*
X132332914Y-102941845D01*
X132250183Y-102969422D01*
X132195029Y-102969422D01*
X132112297Y-102941845D01*
X132057143Y-102886691D01*
X132029566Y-102831537D01*
X132001989Y-102721228D01*
X132001989Y-102638497D01*
X132029566Y-102528188D01*
X132057143Y-102473034D01*
X132112297Y-102417880D01*
X132195029Y-102390302D01*
X132250183Y-102390302D01*
X132332914Y-102417880D01*
X132360491Y-102445457D01*
X132581109Y-102445457D02*
X132608686Y-102417880D01*
X132663840Y-102390302D01*
X132801726Y-102390302D01*
X132856880Y-102417880D01*
X132884457Y-102445457D01*
X132912034Y-102500611D01*
X132912034Y-102555765D01*
X132884457Y-102638497D01*
X132553531Y-102969422D01*
X132912034Y-102969422D01*
X133436000Y-102390302D02*
X133160229Y-102390302D01*
X133132651Y-102666074D01*
X133160229Y-102638497D01*
X133215383Y-102610920D01*
X133353269Y-102610920D01*
X133408423Y-102638497D01*
X133436000Y-102666074D01*
X133463577Y-102721228D01*
X133463577Y-102859114D01*
X133436000Y-102914268D01*
X133408423Y-102941845D01*
X133353269Y-102969422D01*
X133215383Y-102969422D01*
X133160229Y-102941845D01*
X133132651Y-102914268D01*
X139726491Y-101644268D02*
X139698914Y-101671845D01*
X139616183Y-101699422D01*
X139561029Y-101699422D01*
X139478297Y-101671845D01*
X139423143Y-101616691D01*
X139395566Y-101561537D01*
X139367989Y-101451228D01*
X139367989Y-101368497D01*
X139395566Y-101258188D01*
X139423143Y-101203034D01*
X139478297Y-101147880D01*
X139561029Y-101120302D01*
X139616183Y-101120302D01*
X139698914Y-101147880D01*
X139726491Y-101175457D01*
X139947109Y-101175457D02*
X139974686Y-101147880D01*
X140029840Y-101120302D01*
X140167726Y-101120302D01*
X140222880Y-101147880D01*
X140250457Y-101175457D01*
X140278034Y-101230611D01*
X140278034Y-101285765D01*
X140250457Y-101368497D01*
X139919531Y-101699422D01*
X140278034Y-101699422D01*
X140774423Y-101313342D02*
X140774423Y-101699422D01*
X140636537Y-101092725D02*
X140498651Y-101506382D01*
X140857154Y-101506382D01*
X143681268Y-100684508D02*
X143708845Y-100712085D01*
X143736422Y-100794816D01*
X143736422Y-100849970D01*
X143708845Y-100932702D01*
X143653691Y-100987856D01*
X143598537Y-101015433D01*
X143488228Y-101043010D01*
X143405497Y-101043010D01*
X143295188Y-101015433D01*
X143240034Y-100987856D01*
X143184880Y-100932702D01*
X143157302Y-100849970D01*
X143157302Y-100794816D01*
X143184880Y-100712085D01*
X143212457Y-100684508D01*
X143212457Y-100463890D02*
X143184880Y-100436313D01*
X143157302Y-100381159D01*
X143157302Y-100243273D01*
X143184880Y-100188119D01*
X143212457Y-100160542D01*
X143267611Y-100132965D01*
X143322765Y-100132965D01*
X143405497Y-100160542D01*
X143736422Y-100491468D01*
X143736422Y-100132965D01*
X143157302Y-99939925D02*
X143157302Y-99581422D01*
X143377920Y-99774462D01*
X143377920Y-99691730D01*
X143405497Y-99636576D01*
X143433074Y-99608999D01*
X143488228Y-99581422D01*
X143626114Y-99581422D01*
X143681268Y-99608999D01*
X143708845Y-99636576D01*
X143736422Y-99691730D01*
X143736422Y-99857193D01*
X143708845Y-99912348D01*
X143681268Y-99939925D01*
X158794268Y-62112074D02*
X158821845Y-62139651D01*
X158849422Y-62222383D01*
X158849422Y-62277537D01*
X158821845Y-62360269D01*
X158766691Y-62415423D01*
X158711537Y-62443000D01*
X158601228Y-62470577D01*
X158518497Y-62470577D01*
X158408188Y-62443000D01*
X158353034Y-62415423D01*
X158297880Y-62360269D01*
X158270302Y-62277537D01*
X158270302Y-62222383D01*
X158297880Y-62139651D01*
X158325457Y-62112074D01*
X158325457Y-61891457D02*
X158297880Y-61863880D01*
X158270302Y-61808726D01*
X158270302Y-61670840D01*
X158297880Y-61615686D01*
X158325457Y-61588109D01*
X158380611Y-61560531D01*
X158435765Y-61560531D01*
X158518497Y-61588109D01*
X158849422Y-61919034D01*
X158849422Y-61560531D01*
X158325457Y-61339914D02*
X158297880Y-61312337D01*
X158270302Y-61257183D01*
X158270302Y-61119297D01*
X158297880Y-61064143D01*
X158325457Y-61036566D01*
X158380611Y-61008989D01*
X158435765Y-61008989D01*
X158518497Y-61036566D01*
X158849422Y-61367491D01*
X158849422Y-61008989D01*
X158794268Y-68462074D02*
X158821845Y-68489651D01*
X158849422Y-68572383D01*
X158849422Y-68627537D01*
X158821845Y-68710269D01*
X158766691Y-68765423D01*
X158711537Y-68793000D01*
X158601228Y-68820577D01*
X158518497Y-68820577D01*
X158408188Y-68793000D01*
X158353034Y-68765423D01*
X158297880Y-68710269D01*
X158270302Y-68627537D01*
X158270302Y-68572383D01*
X158297880Y-68489651D01*
X158325457Y-68462074D01*
X158325457Y-68241457D02*
X158297880Y-68213880D01*
X158270302Y-68158726D01*
X158270302Y-68020840D01*
X158297880Y-67965686D01*
X158325457Y-67938109D01*
X158380611Y-67910531D01*
X158435765Y-67910531D01*
X158518497Y-67938109D01*
X158849422Y-68269034D01*
X158849422Y-67910531D01*
X158849422Y-67358989D02*
X158849422Y-67689914D01*
X158849422Y-67524451D02*
X158270302Y-67524451D01*
X158353034Y-67579606D01*
X158408188Y-67634760D01*
X158435765Y-67689914D01*
X143681268Y-102716508D02*
X143708845Y-102744085D01*
X143736422Y-102826816D01*
X143736422Y-102881970D01*
X143708845Y-102964702D01*
X143653691Y-103019856D01*
X143598537Y-103047433D01*
X143488228Y-103075010D01*
X143405497Y-103075010D01*
X143295188Y-103047433D01*
X143240034Y-103019856D01*
X143184880Y-102964702D01*
X143157302Y-102881970D01*
X143157302Y-102826816D01*
X143184880Y-102744085D01*
X143212457Y-102716508D01*
X143212457Y-102495890D02*
X143184880Y-102468313D01*
X143157302Y-102413159D01*
X143157302Y-102275273D01*
X143184880Y-102220119D01*
X143212457Y-102192542D01*
X143267611Y-102164965D01*
X143322765Y-102164965D01*
X143405497Y-102192542D01*
X143736422Y-102523468D01*
X143736422Y-102164965D01*
X143157302Y-101806462D02*
X143157302Y-101751308D01*
X143184880Y-101696153D01*
X143212457Y-101668576D01*
X143267611Y-101640999D01*
X143377920Y-101613422D01*
X143515805Y-101613422D01*
X143626114Y-101640999D01*
X143681268Y-101668576D01*
X143708845Y-101696153D01*
X143736422Y-101751308D01*
X143736422Y-101806462D01*
X143708845Y-101861616D01*
X143681268Y-101889193D01*
X143626114Y-101916770D01*
X143515805Y-101944348D01*
X143377920Y-101944348D01*
X143267611Y-101916770D01*
X143212457Y-101889193D01*
X143184880Y-101861616D01*
X143157302Y-101806462D01*
X141903268Y-107923508D02*
X141930845Y-107951085D01*
X141958422Y-108033816D01*
X141958422Y-108088970D01*
X141930845Y-108171702D01*
X141875691Y-108226856D01*
X141820537Y-108254433D01*
X141710228Y-108282010D01*
X141627497Y-108282010D01*
X141517188Y-108254433D01*
X141462034Y-108226856D01*
X141406880Y-108171702D01*
X141379302Y-108088970D01*
X141379302Y-108033816D01*
X141406880Y-107951085D01*
X141434457Y-107923508D01*
X141958422Y-107371965D02*
X141958422Y-107702890D01*
X141958422Y-107537428D02*
X141379302Y-107537428D01*
X141462034Y-107592582D01*
X141517188Y-107647736D01*
X141544765Y-107702890D01*
X141958422Y-107096193D02*
X141958422Y-106985885D01*
X141930845Y-106930730D01*
X141903268Y-106903153D01*
X141820537Y-106847999D01*
X141710228Y-106820422D01*
X141489611Y-106820422D01*
X141434457Y-106847999D01*
X141406880Y-106875576D01*
X141379302Y-106930730D01*
X141379302Y-107041039D01*
X141406880Y-107096193D01*
X141434457Y-107123770D01*
X141489611Y-107151348D01*
X141627497Y-107151348D01*
X141682651Y-107123770D01*
X141710228Y-107096193D01*
X141737805Y-107041039D01*
X141737805Y-106930730D01*
X141710228Y-106875576D01*
X141682651Y-106847999D01*
X141627497Y-106820422D01*
X132578925Y-103295268D02*
X132551348Y-103322845D01*
X132468616Y-103350422D01*
X132413462Y-103350422D01*
X132330730Y-103322845D01*
X132275576Y-103267691D01*
X132247999Y-103212537D01*
X132220422Y-103102228D01*
X132220422Y-103019497D01*
X132247999Y-102909188D01*
X132275576Y-102854034D01*
X132330730Y-102798880D01*
X132413462Y-102771302D01*
X132468616Y-102771302D01*
X132551348Y-102798880D01*
X132578925Y-102826457D01*
X133130468Y-103350422D02*
X132799542Y-103350422D01*
X132965005Y-103350422D02*
X132965005Y-102771302D01*
X132909850Y-102854034D01*
X132854696Y-102909188D01*
X132799542Y-102936765D01*
X133461393Y-103019497D02*
X133406239Y-102991920D01*
X133378662Y-102964342D01*
X133351085Y-102909188D01*
X133351085Y-102881611D01*
X133378662Y-102826457D01*
X133406239Y-102798880D01*
X133461393Y-102771302D01*
X133571702Y-102771302D01*
X133626856Y-102798880D01*
X133654433Y-102826457D01*
X133682010Y-102881611D01*
X133682010Y-102909188D01*
X133654433Y-102964342D01*
X133626856Y-102991920D01*
X133571702Y-103019497D01*
X133461393Y-103019497D01*
X133406239Y-103047074D01*
X133378662Y-103074651D01*
X133351085Y-103129805D01*
X133351085Y-103240114D01*
X133378662Y-103295268D01*
X133406239Y-103322845D01*
X133461393Y-103350422D01*
X133571702Y-103350422D01*
X133626856Y-103322845D01*
X133654433Y-103295268D01*
X133682010Y-103240114D01*
X133682010Y-103129805D01*
X133654433Y-103074651D01*
X133626856Y-103047074D01*
X133571702Y-103019497D01*
X141903268Y-105891508D02*
X141930845Y-105919085D01*
X141958422Y-106001816D01*
X141958422Y-106056970D01*
X141930845Y-106139702D01*
X141875691Y-106194856D01*
X141820537Y-106222433D01*
X141710228Y-106250010D01*
X141627497Y-106250010D01*
X141517188Y-106222433D01*
X141462034Y-106194856D01*
X141406880Y-106139702D01*
X141379302Y-106056970D01*
X141379302Y-106001816D01*
X141406880Y-105919085D01*
X141434457Y-105891508D01*
X141958422Y-105339965D02*
X141958422Y-105670890D01*
X141958422Y-105505428D02*
X141379302Y-105505428D01*
X141462034Y-105560582D01*
X141517188Y-105615736D01*
X141544765Y-105670890D01*
X141379302Y-105146925D02*
X141379302Y-104760845D01*
X141958422Y-105009039D01*
D21*
X150122708Y-106759828D02*
X150095131Y-106787405D01*
X150012400Y-106814982D01*
X149957245Y-106814982D01*
X149874514Y-106787405D01*
X149819360Y-106732251D01*
X149791782Y-106677097D01*
X149764205Y-106566788D01*
X149764205Y-106484057D01*
X149791782Y-106373748D01*
X149819360Y-106318594D01*
X149874514Y-106263440D01*
X149957245Y-106235862D01*
X150012400Y-106235862D01*
X150095131Y-106263440D01*
X150122708Y-106291017D01*
X150674251Y-106814982D02*
X150343325Y-106814982D01*
X150508788Y-106814982D02*
X150508788Y-106235862D01*
X150453634Y-106318594D01*
X150398480Y-106373748D01*
X150343325Y-106401325D01*
X151170640Y-106235862D02*
X151060331Y-106235862D01*
X151005177Y-106263440D01*
X150977600Y-106291017D01*
X150922445Y-106373748D01*
X150894868Y-106484057D01*
X150894868Y-106704674D01*
X150922445Y-106759828D01*
X150950022Y-106787405D01*
X151005177Y-106814982D01*
X151115485Y-106814982D01*
X151170640Y-106787405D01*
X151198217Y-106759828D01*
X151225794Y-106704674D01*
X151225794Y-106566788D01*
X151198217Y-106511634D01*
X151170640Y-106484057D01*
X151115485Y-106456480D01*
X151005177Y-106456480D01*
X150950022Y-106484057D01*
X150922445Y-106511634D01*
X150894868Y-106566788D01*
D23*
X152200975Y-108402845D02*
X152182590Y-108421230D01*
X152127436Y-108439615D01*
X152090666Y-108439615D01*
X152035512Y-108421230D01*
X151998742Y-108384460D01*
X151980358Y-108347691D01*
X151961973Y-108274152D01*
X151961973Y-108218998D01*
X151980358Y-108145459D01*
X151998742Y-108108689D01*
X152035512Y-108071920D01*
X152090666Y-108053535D01*
X152127436Y-108053535D01*
X152182590Y-108071920D01*
X152200975Y-108090304D01*
X152568670Y-108439615D02*
X152348053Y-108439615D01*
X152458361Y-108439615D02*
X152458361Y-108053535D01*
X152421592Y-108108689D01*
X152384822Y-108145459D01*
X152348053Y-108163843D01*
X152917980Y-108053535D02*
X152734133Y-108053535D01*
X152715748Y-108237382D01*
X152734133Y-108218998D01*
X152770902Y-108200613D01*
X152862826Y-108200613D01*
X152899596Y-108218998D01*
X152917980Y-108237382D01*
X152936365Y-108274152D01*
X152936365Y-108366076D01*
X152917980Y-108402845D01*
X152899596Y-108421230D01*
X152862826Y-108439615D01*
X152770902Y-108439615D01*
X152734133Y-108421230D01*
X152715748Y-108402845D01*
X147907846Y-110163364D02*
X147926231Y-110181749D01*
X147944616Y-110236903D01*
X147944616Y-110273673D01*
X147926231Y-110328827D01*
X147889461Y-110365597D01*
X147852692Y-110383981D01*
X147779153Y-110402366D01*
X147723999Y-110402366D01*
X147650460Y-110383981D01*
X147613690Y-110365597D01*
X147576921Y-110328827D01*
X147558536Y-110273673D01*
X147558536Y-110236903D01*
X147576921Y-110181749D01*
X147595305Y-110163364D01*
X147944616Y-109795669D02*
X147944616Y-110016286D01*
X147944616Y-109905978D02*
X147558536Y-109905978D01*
X147613690Y-109942747D01*
X147650460Y-109979517D01*
X147668844Y-110016286D01*
X147687229Y-109464743D02*
X147944616Y-109464743D01*
X147540151Y-109556667D02*
X147815922Y-109648591D01*
X147815922Y-109409589D01*
D25*
X154168925Y-107105268D02*
X154141348Y-107132845D01*
X154058616Y-107160422D01*
X154003462Y-107160422D01*
X153920730Y-107132845D01*
X153865576Y-107077691D01*
X153837999Y-107022537D01*
X153810422Y-106912228D01*
X153810422Y-106829497D01*
X153837999Y-106719188D01*
X153865576Y-106664034D01*
X153920730Y-106608880D01*
X154003462Y-106581302D01*
X154058616Y-106581302D01*
X154141348Y-106608880D01*
X154168925Y-106636457D01*
X154720468Y-107160422D02*
X154389542Y-107160422D01*
X154555005Y-107160422D02*
X154555005Y-106581302D01*
X154499850Y-106664034D01*
X154444696Y-106719188D01*
X154389542Y-106746765D01*
X154913508Y-106581302D02*
X155272010Y-106581302D01*
X155078970Y-106801920D01*
X155161702Y-106801920D01*
X155216856Y-106829497D01*
X155244433Y-106857074D01*
X155272010Y-106912228D01*
X155272010Y-107050114D01*
X155244433Y-107105268D01*
X155216856Y-107132845D01*
X155161702Y-107160422D01*
X154996239Y-107160422D01*
X154941085Y-107132845D01*
X154913508Y-107105268D01*
D21*
X156218708Y-106759828D02*
X156191131Y-106787405D01*
X156108400Y-106814982D01*
X156053245Y-106814982D01*
X155970514Y-106787405D01*
X155915360Y-106732251D01*
X155887782Y-106677097D01*
X155860205Y-106566788D01*
X155860205Y-106484057D01*
X155887782Y-106373748D01*
X155915360Y-106318594D01*
X155970514Y-106263440D01*
X156053245Y-106235862D01*
X156108400Y-106235862D01*
X156191131Y-106263440D01*
X156218708Y-106291017D01*
X156770251Y-106814982D02*
X156439325Y-106814982D01*
X156604788Y-106814982D02*
X156604788Y-106235862D01*
X156549634Y-106318594D01*
X156494480Y-106373748D01*
X156439325Y-106401325D01*
X156990868Y-106291017D02*
X157018445Y-106263440D01*
X157073600Y-106235862D01*
X157211485Y-106235862D01*
X157266640Y-106263440D01*
X157294217Y-106291017D01*
X157321794Y-106346171D01*
X157321794Y-106401325D01*
X157294217Y-106484057D01*
X156963291Y-106814982D01*
X157321794Y-106814982D01*
D23*
X147907846Y-113084364D02*
X147926231Y-113102749D01*
X147944616Y-113157903D01*
X147944616Y-113194673D01*
X147926231Y-113249827D01*
X147889461Y-113286597D01*
X147852692Y-113304981D01*
X147779153Y-113323366D01*
X147723999Y-113323366D01*
X147650460Y-113304981D01*
X147613690Y-113286597D01*
X147576921Y-113249827D01*
X147558536Y-113194673D01*
X147558536Y-113157903D01*
X147576921Y-113102749D01*
X147595305Y-113084364D01*
X147944616Y-112716669D02*
X147944616Y-112937286D01*
X147944616Y-112826978D02*
X147558536Y-112826978D01*
X147613690Y-112863747D01*
X147650460Y-112900517D01*
X147668844Y-112937286D01*
X147944616Y-112348974D02*
X147944616Y-112569591D01*
X147944616Y-112459282D02*
X147558536Y-112459282D01*
X147613690Y-112496052D01*
X147650460Y-112532821D01*
X147668844Y-112569591D01*
D25*
X154168925Y-115487268D02*
X154141348Y-115514845D01*
X154058616Y-115542422D01*
X154003462Y-115542422D01*
X153920730Y-115514845D01*
X153865576Y-115459691D01*
X153837999Y-115404537D01*
X153810422Y-115294228D01*
X153810422Y-115211497D01*
X153837999Y-115101188D01*
X153865576Y-115046034D01*
X153920730Y-114990880D01*
X154003462Y-114963302D01*
X154058616Y-114963302D01*
X154141348Y-114990880D01*
X154168925Y-115018457D01*
X154720468Y-115542422D02*
X154389542Y-115542422D01*
X154555005Y-115542422D02*
X154555005Y-114963302D01*
X154499850Y-115046034D01*
X154444696Y-115101188D01*
X154389542Y-115128765D01*
X155078970Y-114963302D02*
X155134125Y-114963302D01*
X155189279Y-114990880D01*
X155216856Y-115018457D01*
X155244433Y-115073611D01*
X155272010Y-115183920D01*
X155272010Y-115321805D01*
X155244433Y-115432114D01*
X155216856Y-115487268D01*
X155189279Y-115514845D01*
X155134125Y-115542422D01*
X155078970Y-115542422D01*
X155023816Y-115514845D01*
X154996239Y-115487268D01*
X154968662Y-115432114D01*
X154941085Y-115321805D01*
X154941085Y-115183920D01*
X154968662Y-115073611D01*
X154996239Y-115018457D01*
X155023816Y-114990880D01*
X155078970Y-114963302D01*
D21*
X156494480Y-115649828D02*
X156466902Y-115677405D01*
X156384171Y-115704982D01*
X156329017Y-115704982D01*
X156246285Y-115677405D01*
X156191131Y-115622251D01*
X156163554Y-115567097D01*
X156135977Y-115456788D01*
X156135977Y-115374057D01*
X156163554Y-115263748D01*
X156191131Y-115208594D01*
X156246285Y-115153440D01*
X156329017Y-115125862D01*
X156384171Y-115125862D01*
X156466902Y-115153440D01*
X156494480Y-115181017D01*
X156770251Y-115704982D02*
X156880560Y-115704982D01*
X156935714Y-115677405D01*
X156963291Y-115649828D01*
X157018445Y-115567097D01*
X157046022Y-115456788D01*
X157046022Y-115236171D01*
X157018445Y-115181017D01*
X156990868Y-115153440D01*
X156935714Y-115125862D01*
X156825405Y-115125862D01*
X156770251Y-115153440D01*
X156742674Y-115181017D01*
X156715097Y-115236171D01*
X156715097Y-115374057D01*
X156742674Y-115429211D01*
X156770251Y-115456788D01*
X156825405Y-115484365D01*
X156935714Y-115484365D01*
X156990868Y-115456788D01*
X157018445Y-115429211D01*
X157046022Y-115374057D01*
D25*
X143326034Y-124123268D02*
X143298457Y-124150845D01*
X143215726Y-124178422D01*
X143160571Y-124178422D01*
X143077840Y-124150845D01*
X143022686Y-124095691D01*
X142995109Y-124040537D01*
X142967531Y-123930228D01*
X142967531Y-123847497D01*
X142995109Y-123737188D01*
X143022686Y-123682034D01*
X143077840Y-123626880D01*
X143160571Y-123599302D01*
X143215726Y-123599302D01*
X143298457Y-123626880D01*
X143326034Y-123654457D01*
X143656960Y-123847497D02*
X143601806Y-123819920D01*
X143574229Y-123792342D01*
X143546651Y-123737188D01*
X143546651Y-123709611D01*
X143574229Y-123654457D01*
X143601806Y-123626880D01*
X143656960Y-123599302D01*
X143767269Y-123599302D01*
X143822423Y-123626880D01*
X143850000Y-123654457D01*
X143877577Y-123709611D01*
X143877577Y-123737188D01*
X143850000Y-123792342D01*
X143822423Y-123819920D01*
X143767269Y-123847497D01*
X143656960Y-123847497D01*
X143601806Y-123875074D01*
X143574229Y-123902651D01*
X143546651Y-123957805D01*
X143546651Y-124068114D01*
X143574229Y-124123268D01*
X143601806Y-124150845D01*
X143656960Y-124178422D01*
X143767269Y-124178422D01*
X143822423Y-124150845D01*
X143850000Y-124123268D01*
X143877577Y-124068114D01*
X143877577Y-123957805D01*
X143850000Y-123902651D01*
X143822423Y-123875074D01*
X143767269Y-123847497D01*
D23*
X152441670Y-113990845D02*
X152423285Y-114009230D01*
X152368131Y-114027615D01*
X152331361Y-114027615D01*
X152276207Y-114009230D01*
X152239438Y-113972460D01*
X152221053Y-113935691D01*
X152202668Y-113862152D01*
X152202668Y-113806998D01*
X152221053Y-113733459D01*
X152239438Y-113696689D01*
X152276207Y-113659920D01*
X152331361Y-113641535D01*
X152368131Y-113641535D01*
X152423285Y-113659920D01*
X152441670Y-113678304D01*
X152772596Y-113641535D02*
X152699057Y-113641535D01*
X152662287Y-113659920D01*
X152643902Y-113678304D01*
X152607133Y-113733459D01*
X152588748Y-113806998D01*
X152588748Y-113954076D01*
X152607133Y-113990845D01*
X152625518Y-114009230D01*
X152662287Y-114027615D01*
X152735826Y-114027615D01*
X152772596Y-114009230D01*
X152790980Y-113990845D01*
X152809365Y-113954076D01*
X152809365Y-113862152D01*
X152790980Y-113825382D01*
X152772596Y-113806998D01*
X152735826Y-113788613D01*
X152662287Y-113788613D01*
X152625518Y-113806998D01*
X152607133Y-113825382D01*
X152588748Y-113862152D01*
D25*
X135753925Y-119424268D02*
X135726348Y-119451845D01*
X135643616Y-119479422D01*
X135588462Y-119479422D01*
X135505730Y-119451845D01*
X135450576Y-119396691D01*
X135422999Y-119341537D01*
X135395422Y-119231228D01*
X135395422Y-119148497D01*
X135422999Y-119038188D01*
X135450576Y-118983034D01*
X135505730Y-118927880D01*
X135588462Y-118900302D01*
X135643616Y-118900302D01*
X135726348Y-118927880D01*
X135753925Y-118955457D01*
X136277890Y-118900302D02*
X136002119Y-118900302D01*
X135974542Y-119176074D01*
X136002119Y-119148497D01*
X136057273Y-119120920D01*
X136195159Y-119120920D01*
X136250313Y-119148497D01*
X136277890Y-119176074D01*
X136305468Y-119231228D01*
X136305468Y-119369114D01*
X136277890Y-119424268D01*
X136250313Y-119451845D01*
X136195159Y-119479422D01*
X136057273Y-119479422D01*
X136002119Y-119451845D01*
X135974542Y-119424268D01*
X141421034Y-124123268D02*
X141393457Y-124150845D01*
X141310726Y-124178422D01*
X141255571Y-124178422D01*
X141172840Y-124150845D01*
X141117686Y-124095691D01*
X141090109Y-124040537D01*
X141062531Y-123930228D01*
X141062531Y-123847497D01*
X141090109Y-123737188D01*
X141117686Y-123682034D01*
X141172840Y-123626880D01*
X141255571Y-123599302D01*
X141310726Y-123599302D01*
X141393457Y-123626880D01*
X141421034Y-123654457D01*
X141917423Y-123792342D02*
X141917423Y-124178422D01*
X141779537Y-123571725D02*
X141641651Y-123985382D01*
X142000154Y-123985382D01*
X139262034Y-124123268D02*
X139234457Y-124150845D01*
X139151726Y-124178422D01*
X139096571Y-124178422D01*
X139013840Y-124150845D01*
X138958686Y-124095691D01*
X138931109Y-124040537D01*
X138903531Y-123930228D01*
X138903531Y-123847497D01*
X138931109Y-123737188D01*
X138958686Y-123682034D01*
X139013840Y-123626880D01*
X139096571Y-123599302D01*
X139151726Y-123599302D01*
X139234457Y-123626880D01*
X139262034Y-123654457D01*
X139455074Y-123599302D02*
X139813577Y-123599302D01*
X139620537Y-123819920D01*
X139703269Y-123819920D01*
X139758423Y-123847497D01*
X139786000Y-123875074D01*
X139813577Y-123930228D01*
X139813577Y-124068114D01*
X139786000Y-124123268D01*
X139758423Y-124150845D01*
X139703269Y-124178422D01*
X139537806Y-124178422D01*
X139482651Y-124150845D01*
X139455074Y-124123268D01*
X142665268Y-116261965D02*
X142692845Y-116289542D01*
X142720422Y-116372273D01*
X142720422Y-116427428D01*
X142692845Y-116510159D01*
X142637691Y-116565313D01*
X142582537Y-116592890D01*
X142472228Y-116620468D01*
X142389497Y-116620468D01*
X142279188Y-116592890D01*
X142224034Y-116565313D01*
X142168880Y-116510159D01*
X142141302Y-116427428D01*
X142141302Y-116372273D01*
X142168880Y-116289542D01*
X142196457Y-116261965D01*
X142196457Y-116041348D02*
X142168880Y-116013770D01*
X142141302Y-115958616D01*
X142141302Y-115820730D01*
X142168880Y-115765576D01*
X142196457Y-115737999D01*
X142251611Y-115710422D01*
X142306765Y-115710422D01*
X142389497Y-115737999D01*
X142720422Y-116068925D01*
X142720422Y-115710422D01*
X137277925Y-124123268D02*
X137250348Y-124150845D01*
X137167616Y-124178422D01*
X137112462Y-124178422D01*
X137029730Y-124150845D01*
X136974576Y-124095691D01*
X136946999Y-124040537D01*
X136919422Y-123930228D01*
X136919422Y-123847497D01*
X136946999Y-123737188D01*
X136974576Y-123682034D01*
X137029730Y-123626880D01*
X137112462Y-123599302D01*
X137167616Y-123599302D01*
X137250348Y-123626880D01*
X137277925Y-123654457D01*
X137829468Y-124178422D02*
X137498542Y-124178422D01*
X137664005Y-124178422D02*
X137664005Y-123599302D01*
X137608850Y-123682034D01*
X137553696Y-123737188D01*
X137498542Y-123764765D01*
D26*
X173572230Y-94327854D02*
X172800070Y-94327854D01*
X172800070Y-94144007D01*
X172836840Y-94033698D01*
X172910379Y-93960159D01*
X172983918Y-93923389D01*
X173130996Y-93886620D01*
X173241304Y-93886620D01*
X173388382Y-93923389D01*
X173461921Y-93960159D01*
X173535460Y-94033698D01*
X173572230Y-94144007D01*
X173572230Y-94327854D01*
X173572230Y-93151229D02*
X173572230Y-93592464D01*
X173572230Y-93371847D02*
X172800070Y-93371847D01*
X172910379Y-93445386D01*
X172983918Y-93518925D01*
X173020687Y-93592464D01*
D22*
X158923333Y-90123070D02*
X159364568Y-90123070D01*
X159143951Y-90895230D02*
X159143951Y-90123070D01*
X159621954Y-90895230D02*
X159621954Y-90123070D01*
X159916111Y-90123070D01*
X159989650Y-90159840D01*
X160026419Y-90196609D01*
X160063189Y-90270148D01*
X160063189Y-90380457D01*
X160026419Y-90453996D01*
X159989650Y-90490765D01*
X159916111Y-90527535D01*
X159621954Y-90527535D01*
X160430884Y-90895230D02*
X160577962Y-90895230D01*
X160651501Y-90858460D01*
X160688271Y-90821691D01*
X160761810Y-90711382D01*
X160798579Y-90564304D01*
X160798579Y-90270148D01*
X160761810Y-90196609D01*
X160725040Y-90159840D01*
X160651501Y-90123070D01*
X160504423Y-90123070D01*
X160430884Y-90159840D01*
X160394114Y-90196609D01*
X160357345Y-90270148D01*
X160357345Y-90453996D01*
X160394114Y-90527535D01*
X160430884Y-90564304D01*
X160504423Y-90601074D01*
X160651501Y-90601074D01*
X160725040Y-90564304D01*
X160761810Y-90527535D01*
X160798579Y-90453996D01*
X164892333Y-90123070D02*
X165333568Y-90123070D01*
X165112951Y-90895230D02*
X165112951Y-90123070D01*
X165590954Y-90895230D02*
X165590954Y-90123070D01*
X165885111Y-90123070D01*
X165958650Y-90159840D01*
X165995419Y-90196609D01*
X166032189Y-90270148D01*
X166032189Y-90380457D01*
X165995419Y-90453996D01*
X165958650Y-90490765D01*
X165885111Y-90527535D01*
X165590954Y-90527535D01*
X166473423Y-90453996D02*
X166399884Y-90417226D01*
X166363114Y-90380457D01*
X166326345Y-90306918D01*
X166326345Y-90270148D01*
X166363114Y-90196609D01*
X166399884Y-90159840D01*
X166473423Y-90123070D01*
X166620501Y-90123070D01*
X166694040Y-90159840D01*
X166730810Y-90196609D01*
X166767579Y-90270148D01*
X166767579Y-90306918D01*
X166730810Y-90380457D01*
X166694040Y-90417226D01*
X166620501Y-90453996D01*
X166473423Y-90453996D01*
X166399884Y-90490765D01*
X166363114Y-90527535D01*
X166326345Y-90601074D01*
X166326345Y-90748152D01*
X166363114Y-90821691D01*
X166399884Y-90858460D01*
X166473423Y-90895230D01*
X166620501Y-90895230D01*
X166694040Y-90858460D01*
X166730810Y-90821691D01*
X166767579Y-90748152D01*
X166767579Y-90601074D01*
X166730810Y-90527535D01*
X166694040Y-90490765D01*
X166620501Y-90453996D01*
D27*
X145526190Y-107911273D02*
X145526190Y-107625559D01*
X146026190Y-107768416D02*
X145526190Y-107768416D01*
X146026190Y-107458892D02*
X145526190Y-107458892D01*
X145526190Y-107268416D01*
X145550000Y-107220797D01*
X145573809Y-107196988D01*
X145621428Y-107173178D01*
X145692857Y-107173178D01*
X145740476Y-107196988D01*
X145764285Y-107220797D01*
X145788095Y-107268416D01*
X145788095Y-107458892D01*
X145526190Y-107006511D02*
X145526190Y-106673178D01*
X146026190Y-106887464D01*
D22*
X160735070Y-107024118D02*
X160735070Y-106582884D01*
X161507230Y-106803501D02*
X160735070Y-106803501D01*
X161507230Y-106325497D02*
X160735070Y-106325497D01*
X160735070Y-106031341D01*
X160771840Y-105957802D01*
X160808609Y-105921033D01*
X160882148Y-105884263D01*
X160992457Y-105884263D01*
X161065996Y-105921033D01*
X161102765Y-105957802D01*
X161139535Y-106031341D01*
X161139535Y-106325497D01*
X160735070Y-105222412D02*
X160735070Y-105369490D01*
X160771840Y-105443029D01*
X160808609Y-105479798D01*
X160918918Y-105553337D01*
X161065996Y-105590107D01*
X161360152Y-105590107D01*
X161433691Y-105553337D01*
X161470460Y-105516568D01*
X161507230Y-105443029D01*
X161507230Y-105295951D01*
X161470460Y-105222412D01*
X161433691Y-105185642D01*
X161360152Y-105148873D01*
X161176304Y-105148873D01*
X161102765Y-105185642D01*
X161065996Y-105222412D01*
X161029226Y-105295951D01*
X161029226Y-105443029D01*
X161065996Y-105516568D01*
X161102765Y-105553337D01*
X161176304Y-105590107D01*
X159465070Y-111977118D02*
X159465070Y-111535884D01*
X160237230Y-111756501D02*
X159465070Y-111756501D01*
X160237230Y-111278497D02*
X159465070Y-111278497D01*
X159465070Y-110984341D01*
X159501840Y-110910802D01*
X159538609Y-110874033D01*
X159612148Y-110837263D01*
X159722457Y-110837263D01*
X159795996Y-110874033D01*
X159832765Y-110910802D01*
X159869535Y-110984341D01*
X159869535Y-111278497D01*
X159465070Y-110138642D02*
X159465070Y-110506337D01*
X159832765Y-110543107D01*
X159795996Y-110506337D01*
X159759226Y-110432798D01*
X159759226Y-110248951D01*
X159795996Y-110175412D01*
X159832765Y-110138642D01*
X159906304Y-110101873D01*
X160090152Y-110101873D01*
X160163691Y-110138642D01*
X160200460Y-110175412D01*
X160237230Y-110248951D01*
X160237230Y-110432798D01*
X160200460Y-110506337D01*
X160163691Y-110543107D01*
X160862070Y-116803118D02*
X160862070Y-116361884D01*
X161634230Y-116582501D02*
X160862070Y-116582501D01*
X161634230Y-116104497D02*
X160862070Y-116104497D01*
X160862070Y-115810341D01*
X160898840Y-115736802D01*
X160935609Y-115700033D01*
X161009148Y-115663263D01*
X161119457Y-115663263D01*
X161192996Y-115700033D01*
X161229765Y-115736802D01*
X161266535Y-115810341D01*
X161266535Y-116104497D01*
X161119457Y-115001412D02*
X161634230Y-115001412D01*
X160825300Y-115185259D02*
X161376843Y-115369107D01*
X161376843Y-114891103D01*
D27*
X145653190Y-110139630D02*
X145653190Y-109853916D01*
X146153190Y-109996773D02*
X145653190Y-109996773D01*
X146153190Y-109687250D02*
X145653190Y-109687250D01*
X145653190Y-109496773D01*
X145677000Y-109449154D01*
X145700809Y-109425345D01*
X145748428Y-109401535D01*
X145819857Y-109401535D01*
X145867476Y-109425345D01*
X145891285Y-109449154D01*
X145915095Y-109496773D01*
X145915095Y-109687250D01*
X145653190Y-109234869D02*
X145653190Y-108925345D01*
X145843666Y-109092011D01*
X145843666Y-109020583D01*
X145867476Y-108972964D01*
X145891285Y-108949154D01*
X145938904Y-108925345D01*
X146057952Y-108925345D01*
X146105571Y-108949154D01*
X146129380Y-108972964D01*
X146153190Y-109020583D01*
X146153190Y-109163440D01*
X146129380Y-109211059D01*
X146105571Y-109234869D01*
X145653190Y-112806630D02*
X145653190Y-112520916D01*
X146153190Y-112663773D02*
X145653190Y-112663773D01*
X146153190Y-112354250D02*
X145653190Y-112354250D01*
X145653190Y-112163773D01*
X145677000Y-112116154D01*
X145700809Y-112092345D01*
X145748428Y-112068535D01*
X145819857Y-112068535D01*
X145867476Y-112092345D01*
X145891285Y-112116154D01*
X145915095Y-112163773D01*
X145915095Y-112354250D01*
X145700809Y-111878059D02*
X145677000Y-111854250D01*
X145653190Y-111806630D01*
X145653190Y-111687583D01*
X145677000Y-111639964D01*
X145700809Y-111616154D01*
X145748428Y-111592345D01*
X145796047Y-111592345D01*
X145867476Y-111616154D01*
X146153190Y-111901869D01*
X146153190Y-111592345D01*
X146542190Y-115854630D02*
X146542190Y-115568916D01*
X147042190Y-115711773D02*
X146542190Y-115711773D01*
X147042190Y-115402250D02*
X146542190Y-115402250D01*
X146542190Y-115211773D01*
X146566000Y-115164154D01*
X146589809Y-115140345D01*
X146637428Y-115116535D01*
X146708857Y-115116535D01*
X146756476Y-115140345D01*
X146780285Y-115164154D01*
X146804095Y-115211773D01*
X146804095Y-115402250D01*
X147042190Y-114640345D02*
X147042190Y-114926059D01*
X147042190Y-114783202D02*
X146542190Y-114783202D01*
X146613619Y-114830821D01*
X146661238Y-114878440D01*
X146685047Y-114926059D01*
D25*
X170152422Y-77352074D02*
X169876651Y-77545114D01*
X170152422Y-77683000D02*
X169573302Y-77683000D01*
X169573302Y-77462383D01*
X169600880Y-77407229D01*
X169628457Y-77379651D01*
X169683611Y-77352074D01*
X169766342Y-77352074D01*
X169821497Y-77379651D01*
X169849074Y-77407229D01*
X169876651Y-77462383D01*
X169876651Y-77683000D01*
X170152422Y-77103880D02*
X169573302Y-77103880D01*
X169573302Y-76883263D01*
X169600880Y-76828109D01*
X169628457Y-76800531D01*
X169683611Y-76772954D01*
X169766342Y-76772954D01*
X169821497Y-76800531D01*
X169849074Y-76828109D01*
X169876651Y-76883263D01*
X169876651Y-77103880D01*
X170152422Y-76221411D02*
X170152422Y-76552337D01*
X170152422Y-76386874D02*
X169573302Y-76386874D01*
X169656034Y-76442029D01*
X169711188Y-76497183D01*
X169738765Y-76552337D01*
D24*
X162547904Y-109162305D02*
X162426952Y-109246972D01*
X162547904Y-109307448D02*
X162293904Y-109307448D01*
X162293904Y-109210686D01*
X162306000Y-109186496D01*
X162318095Y-109174400D01*
X162342285Y-109162305D01*
X162378571Y-109162305D01*
X162402761Y-109174400D01*
X162414857Y-109186496D01*
X162426952Y-109210686D01*
X162426952Y-109307448D01*
X162293904Y-108932496D02*
X162293904Y-109053448D01*
X162414857Y-109065543D01*
X162402761Y-109053448D01*
X162390666Y-109029258D01*
X162390666Y-108968781D01*
X162402761Y-108944591D01*
X162414857Y-108932496D01*
X162439047Y-108920400D01*
X162499523Y-108920400D01*
X162523714Y-108932496D01*
X162535809Y-108944591D01*
X162547904Y-108968781D01*
X162547904Y-109029258D01*
X162535809Y-109053448D01*
X162523714Y-109065543D01*
D18*
X166309523Y-116374333D02*
X167216666Y-116374333D01*
X167398095Y-116434809D01*
X167519047Y-116555761D01*
X167579523Y-116737190D01*
X167579523Y-116858142D01*
X166430476Y-115830047D02*
X166370000Y-115769571D01*
X166309523Y-115648619D01*
X166309523Y-115346238D01*
X166370000Y-115225285D01*
X166430476Y-115164809D01*
X166551428Y-115104333D01*
X166672380Y-115104333D01*
X166853809Y-115164809D01*
X167579523Y-115890523D01*
X167579523Y-115104333D01*
D19*
X150534809Y-69921380D02*
X150534809Y-68921380D01*
X151582428Y-69826142D02*
X151534809Y-69873761D01*
X151391952Y-69921380D01*
X151296714Y-69921380D01*
X151153857Y-69873761D01*
X151058619Y-69778523D01*
X151011000Y-69683285D01*
X150963380Y-69492809D01*
X150963380Y-69349952D01*
X151011000Y-69159476D01*
X151058619Y-69064238D01*
X151153857Y-68969000D01*
X151296714Y-68921380D01*
X151391952Y-68921380D01*
X151534809Y-68969000D01*
X151582428Y-69016619D01*
X152487190Y-68921380D02*
X152011000Y-68921380D01*
X151963380Y-69397571D01*
X152011000Y-69349952D01*
X152106238Y-69302333D01*
X152344333Y-69302333D01*
X152439571Y-69349952D01*
X152487190Y-69397571D01*
X152534809Y-69492809D01*
X152534809Y-69730904D01*
X152487190Y-69826142D01*
X152439571Y-69873761D01*
X152344333Y-69921380D01*
X152106238Y-69921380D01*
X152011000Y-69873761D01*
X151963380Y-69826142D01*
X162980809Y-79319380D02*
X162980809Y-78319380D01*
X164028428Y-79224142D02*
X163980809Y-79271761D01*
X163837952Y-79319380D01*
X163742714Y-79319380D01*
X163599857Y-79271761D01*
X163504619Y-79176523D01*
X163457000Y-79081285D01*
X163409380Y-78890809D01*
X163409380Y-78747952D01*
X163457000Y-78557476D01*
X163504619Y-78462238D01*
X163599857Y-78367000D01*
X163742714Y-78319380D01*
X163837952Y-78319380D01*
X163980809Y-78367000D01*
X164028428Y-78414619D01*
X164885571Y-78652714D02*
X164885571Y-79319380D01*
X164647476Y-78271761D02*
X164409380Y-78986047D01*
X165028428Y-78986047D01*
D10*
X154408190Y-65516738D02*
X153908190Y-65516738D01*
X154360571Y-64992928D02*
X154384380Y-65016738D01*
X154408190Y-65088166D01*
X154408190Y-65135785D01*
X154384380Y-65207214D01*
X154336761Y-65254833D01*
X154289142Y-65278642D01*
X154193904Y-65302452D01*
X154122476Y-65302452D01*
X154027238Y-65278642D01*
X153979619Y-65254833D01*
X153932000Y-65207214D01*
X153908190Y-65135785D01*
X153908190Y-65088166D01*
X153932000Y-65016738D01*
X153955809Y-64992928D01*
X153908190Y-64826261D02*
X153908190Y-64516738D01*
X154098666Y-64683404D01*
X154098666Y-64611976D01*
X154122476Y-64564357D01*
X154146285Y-64540547D01*
X154193904Y-64516738D01*
X154312952Y-64516738D01*
X154360571Y-64540547D01*
X154384380Y-64564357D01*
X154408190Y-64611976D01*
X154408190Y-64754833D01*
X154384380Y-64802452D01*
X154360571Y-64826261D01*
D22*
X132043230Y-114152810D02*
X131271070Y-114152810D01*
X131969691Y-113343880D02*
X132006460Y-113380650D01*
X132043230Y-113490958D01*
X132043230Y-113564497D01*
X132006460Y-113674806D01*
X131932921Y-113748345D01*
X131859382Y-113785114D01*
X131712304Y-113821884D01*
X131601996Y-113821884D01*
X131454918Y-113785114D01*
X131381379Y-113748345D01*
X131307840Y-113674806D01*
X131271070Y-113564497D01*
X131271070Y-113490958D01*
X131307840Y-113380650D01*
X131344609Y-113343880D01*
X131344609Y-113049724D02*
X131307840Y-113012954D01*
X131271070Y-112939415D01*
X131271070Y-112755568D01*
X131307840Y-112682029D01*
X131344609Y-112645259D01*
X131418148Y-112608490D01*
X131491687Y-112608490D01*
X131601996Y-112645259D01*
X132043230Y-113086493D01*
X132043230Y-112608490D01*
D19*
X162373380Y-69683190D02*
X161373380Y-69683190D01*
X162278142Y-68635571D02*
X162325761Y-68683190D01*
X162373380Y-68826047D01*
X162373380Y-68921285D01*
X162325761Y-69064142D01*
X162230523Y-69159380D01*
X162135285Y-69207000D01*
X161944809Y-69254619D01*
X161801952Y-69254619D01*
X161611476Y-69207000D01*
X161516238Y-69159380D01*
X161421000Y-69064142D01*
X161373380Y-68921285D01*
X161373380Y-68826047D01*
X161421000Y-68683190D01*
X161468619Y-68635571D01*
X162373380Y-67683190D02*
X162373380Y-68254619D01*
X162373380Y-67968904D02*
X161373380Y-67968904D01*
X161516238Y-68064142D01*
X161611476Y-68159380D01*
X161659095Y-68254619D01*
D25*
X160415880Y-101015074D02*
X160222840Y-101015074D01*
X160222840Y-101318422D02*
X160222840Y-100739302D01*
X160498611Y-100739302D01*
X161022577Y-101318422D02*
X160691651Y-101318422D01*
X160857114Y-101318422D02*
X160857114Y-100739302D01*
X160801960Y-100822034D01*
X160746806Y-100877188D01*
X160691651Y-100904765D01*
M02*
