G04 #@! TF.GenerationSoftware,KiCad,Pcbnew,(5.1.5)-3*
G04 #@! TF.CreationDate,2020-05-07T10:05:27-07:00*
G04 #@! TF.ProjectId,Plug_Pass_AC_shield,506c7567-5f50-4617-9373-5f41435f7368,rev?*
G04 #@! TF.SameCoordinates,Original*
G04 #@! TF.FileFunction,Legend,Top*
G04 #@! TF.FilePolarity,Positive*
%FSLAX46Y46*%
G04 Gerber Fmt 4.6, Leading zero omitted, Abs format (unit mm)*
G04 Created by KiCad (PCBNEW (5.1.5)-3) date 2020-05-07 10:05:27*
%MOMM*%
%LPD*%
G04 APERTURE LIST*
%ADD10C,0.150000*%
G04 APERTURE END LIST*
D10*
X186555645Y-54603922D02*
X186508026Y-54651541D01*
X186365169Y-54699160D01*
X186269931Y-54699160D01*
X186127074Y-54651541D01*
X186031836Y-54556303D01*
X185984217Y-54461065D01*
X185936598Y-54270589D01*
X185936598Y-54127732D01*
X185984217Y-53937256D01*
X186031836Y-53842018D01*
X186127074Y-53746780D01*
X186269931Y-53699160D01*
X186365169Y-53699160D01*
X186508026Y-53746780D01*
X186555645Y-53794399D01*
X187127074Y-54699160D02*
X187031836Y-54651541D01*
X186984217Y-54556303D01*
X186984217Y-53699160D01*
X187936598Y-54699160D02*
X187936598Y-54175351D01*
X187888979Y-54080113D01*
X187793740Y-54032494D01*
X187603264Y-54032494D01*
X187508026Y-54080113D01*
X187936598Y-54651541D02*
X187841360Y-54699160D01*
X187603264Y-54699160D01*
X187508026Y-54651541D01*
X187460407Y-54556303D01*
X187460407Y-54461065D01*
X187508026Y-54365827D01*
X187603264Y-54318208D01*
X187841360Y-54318208D01*
X187936598Y-54270589D01*
X188269931Y-54032494D02*
X188650883Y-54032494D01*
X188412788Y-53699160D02*
X188412788Y-54556303D01*
X188460407Y-54651541D01*
X188555645Y-54699160D01*
X188650883Y-54699160D01*
X188936598Y-54651541D02*
X189031836Y-54699160D01*
X189222312Y-54699160D01*
X189317550Y-54651541D01*
X189365169Y-54556303D01*
X189365169Y-54508684D01*
X189317550Y-54413446D01*
X189222312Y-54365827D01*
X189079455Y-54365827D01*
X188984217Y-54318208D01*
X188936598Y-54222970D01*
X188936598Y-54175351D01*
X188984217Y-54080113D01*
X189079455Y-54032494D01*
X189222312Y-54032494D01*
X189317550Y-54080113D01*
X189793740Y-54699160D02*
X189793740Y-53699160D01*
X189888979Y-54318208D02*
X190174693Y-54699160D01*
X190174693Y-54032494D02*
X189793740Y-54413446D01*
X191031836Y-54699160D02*
X191031836Y-54175351D01*
X190984217Y-54080113D01*
X190888979Y-54032494D01*
X190698502Y-54032494D01*
X190603264Y-54080113D01*
X191031836Y-54651541D02*
X190936598Y-54699160D01*
X190698502Y-54699160D01*
X190603264Y-54651541D01*
X190555645Y-54556303D01*
X190555645Y-54461065D01*
X190603264Y-54365827D01*
X190698502Y-54318208D01*
X190936598Y-54318208D01*
X191031836Y-54270589D01*
X191508026Y-54032494D02*
X191508026Y-54699160D01*
X191508026Y-54127732D02*
X191555645Y-54080113D01*
X191650883Y-54032494D01*
X191793740Y-54032494D01*
X191888979Y-54080113D01*
X191936598Y-54175351D01*
X191936598Y-54699160D01*
X192412788Y-54699160D02*
X192412788Y-54032494D01*
X192412788Y-53699160D02*
X192365169Y-53746780D01*
X192412788Y-53794399D01*
X192460407Y-53746780D01*
X192412788Y-53699160D01*
X192412788Y-53794399D01*
X193269931Y-54651541D02*
X193174693Y-54699160D01*
X192984217Y-54699160D01*
X192888979Y-54651541D01*
X192841360Y-54556303D01*
X192841360Y-54175351D01*
X192888979Y-54080113D01*
X192984217Y-54032494D01*
X193174693Y-54032494D01*
X193269931Y-54080113D01*
X193317550Y-54175351D01*
X193317550Y-54270589D01*
X192841360Y-54365827D01*
X194508026Y-54699160D02*
X194508026Y-53699160D01*
X194888979Y-53699160D01*
X194984217Y-53746780D01*
X195031836Y-53794399D01*
X195079455Y-53889637D01*
X195079455Y-54032494D01*
X195031836Y-54127732D01*
X194984217Y-54175351D01*
X194888979Y-54222970D01*
X194508026Y-54222970D01*
X195888979Y-54651541D02*
X195793740Y-54699160D01*
X195603264Y-54699160D01*
X195508026Y-54651541D01*
X195460407Y-54556303D01*
X195460407Y-54175351D01*
X195508026Y-54080113D01*
X195603264Y-54032494D01*
X195793740Y-54032494D01*
X195888979Y-54080113D01*
X195936598Y-54175351D01*
X195936598Y-54270589D01*
X195460407Y-54365827D01*
X196508026Y-54699160D02*
X196412788Y-54651541D01*
X196365169Y-54603922D01*
X196317550Y-54508684D01*
X196317550Y-54222970D01*
X196365169Y-54127732D01*
X196412788Y-54080113D01*
X196508026Y-54032494D01*
X196650883Y-54032494D01*
X196746121Y-54080113D01*
X196793740Y-54127732D01*
X196841360Y-54222970D01*
X196841360Y-54508684D01*
X196793740Y-54603922D01*
X196746121Y-54651541D01*
X196650883Y-54699160D01*
X196508026Y-54699160D01*
X197269931Y-54032494D02*
X197269931Y-55032494D01*
X197269931Y-54080113D02*
X197365169Y-54032494D01*
X197555645Y-54032494D01*
X197650883Y-54080113D01*
X197698502Y-54127732D01*
X197746121Y-54222970D01*
X197746121Y-54508684D01*
X197698502Y-54603922D01*
X197650883Y-54651541D01*
X197555645Y-54699160D01*
X197365169Y-54699160D01*
X197269931Y-54651541D01*
X198317550Y-54699160D02*
X198222312Y-54651541D01*
X198174693Y-54556303D01*
X198174693Y-53699160D01*
X199079455Y-54651541D02*
X198984217Y-54699160D01*
X198793740Y-54699160D01*
X198698502Y-54651541D01*
X198650883Y-54556303D01*
X198650883Y-54175351D01*
X198698502Y-54080113D01*
X198793740Y-54032494D01*
X198984217Y-54032494D01*
X199079455Y-54080113D01*
X199127074Y-54175351D01*
X199127074Y-54270589D01*
X198650883Y-54365827D01*
X199603264Y-53699160D02*
X199508026Y-53889637D01*
X199984217Y-54651541D02*
X200079455Y-54699160D01*
X200269931Y-54699160D01*
X200365169Y-54651541D01*
X200412788Y-54556303D01*
X200412788Y-54508684D01*
X200365169Y-54413446D01*
X200269931Y-54365827D01*
X200127074Y-54365827D01*
X200031836Y-54318208D01*
X199984217Y-54222970D01*
X199984217Y-54175351D01*
X200031836Y-54080113D01*
X200127074Y-54032494D01*
X200269931Y-54032494D01*
X200365169Y-54080113D01*
X201603264Y-53699160D02*
X201603264Y-54508684D01*
X201650883Y-54603922D01*
X201698502Y-54651541D01*
X201793740Y-54699160D01*
X201984217Y-54699160D01*
X202079455Y-54651541D01*
X202127074Y-54603922D01*
X202174693Y-54508684D01*
X202174693Y-53699160D01*
X202508026Y-54032494D02*
X202888979Y-54032494D01*
X202650883Y-53699160D02*
X202650883Y-54556303D01*
X202698502Y-54651541D01*
X202793740Y-54699160D01*
X202888979Y-54699160D01*
X203222312Y-54699160D02*
X203222312Y-54032494D01*
X203222312Y-53699160D02*
X203174693Y-53746780D01*
X203222312Y-53794399D01*
X203269931Y-53746780D01*
X203222312Y-53699160D01*
X203222312Y-53794399D01*
X203841360Y-54699160D02*
X203746121Y-54651541D01*
X203698502Y-54556303D01*
X203698502Y-53699160D01*
X204222312Y-54699160D02*
X204222312Y-54032494D01*
X204222312Y-53699160D02*
X204174693Y-53746780D01*
X204222312Y-53794399D01*
X204269931Y-53746780D01*
X204222312Y-53699160D01*
X204222312Y-53794399D01*
X204555645Y-54032494D02*
X204936598Y-54032494D01*
X204698502Y-53699160D02*
X204698502Y-54556303D01*
X204746121Y-54651541D01*
X204841360Y-54699160D01*
X204936598Y-54699160D01*
X205174693Y-54032494D02*
X205412788Y-54699160D01*
X205650883Y-54032494D02*
X205412788Y-54699160D01*
X205317550Y-54937256D01*
X205269931Y-54984875D01*
X205174693Y-55032494D01*
X206793740Y-54699160D02*
X206793740Y-53699160D01*
X207031836Y-53699160D01*
X207174693Y-53746780D01*
X207269931Y-53842018D01*
X207317550Y-53937256D01*
X207365169Y-54127732D01*
X207365169Y-54270589D01*
X207317550Y-54461065D01*
X207269931Y-54556303D01*
X207174693Y-54651541D01*
X207031836Y-54699160D01*
X206793740Y-54699160D01*
X207793740Y-54699160D02*
X207793740Y-54032494D01*
X207793740Y-53699160D02*
X207746121Y-53746780D01*
X207793740Y-53794399D01*
X207841360Y-53746780D01*
X207793740Y-53699160D01*
X207793740Y-53794399D01*
X208222312Y-54651541D02*
X208317550Y-54699160D01*
X208508026Y-54699160D01*
X208603264Y-54651541D01*
X208650883Y-54556303D01*
X208650883Y-54508684D01*
X208603264Y-54413446D01*
X208508026Y-54365827D01*
X208365169Y-54365827D01*
X208269931Y-54318208D01*
X208222312Y-54222970D01*
X208222312Y-54175351D01*
X208269931Y-54080113D01*
X208365169Y-54032494D01*
X208508026Y-54032494D01*
X208603264Y-54080113D01*
X208936598Y-54032494D02*
X209317550Y-54032494D01*
X209079455Y-53699160D02*
X209079455Y-54556303D01*
X209127074Y-54651541D01*
X209222312Y-54699160D01*
X209317550Y-54699160D01*
X209650883Y-54699160D02*
X209650883Y-54032494D01*
X209650883Y-54222970D02*
X209698502Y-54127732D01*
X209746121Y-54080113D01*
X209841360Y-54032494D01*
X209936598Y-54032494D01*
X210269931Y-54699160D02*
X210269931Y-54032494D01*
X210269931Y-53699160D02*
X210222312Y-53746780D01*
X210269931Y-53794399D01*
X210317550Y-53746780D01*
X210269931Y-53699160D01*
X210269931Y-53794399D01*
X211174693Y-54651541D02*
X211079455Y-54699160D01*
X210888979Y-54699160D01*
X210793740Y-54651541D01*
X210746121Y-54603922D01*
X210698502Y-54508684D01*
X210698502Y-54222970D01*
X210746121Y-54127732D01*
X210793740Y-54080113D01*
X210888979Y-54032494D01*
X211079455Y-54032494D01*
X211174693Y-54080113D01*
X211460407Y-54032494D02*
X211841360Y-54032494D01*
X211603264Y-53699160D02*
X211603264Y-54556303D01*
X211650883Y-54651541D01*
X211746121Y-54699160D01*
X211841360Y-54699160D01*
X195122611Y-137587980D02*
X195122611Y-136587980D01*
X195503563Y-136587980D01*
X195598801Y-136635600D01*
X195646420Y-136683219D01*
X195694040Y-136778457D01*
X195694040Y-136921314D01*
X195646420Y-137016552D01*
X195598801Y-137064171D01*
X195503563Y-137111790D01*
X195122611Y-137111790D01*
X196265468Y-137587980D02*
X196170230Y-137540361D01*
X196122611Y-137445123D01*
X196122611Y-136587980D01*
X197074992Y-136921314D02*
X197074992Y-137587980D01*
X196646420Y-136921314D02*
X196646420Y-137445123D01*
X196694040Y-137540361D01*
X196789278Y-137587980D01*
X196932135Y-137587980D01*
X197027373Y-137540361D01*
X197074992Y-137492742D01*
X197979754Y-136921314D02*
X197979754Y-137730838D01*
X197932135Y-137826076D01*
X197884516Y-137873695D01*
X197789278Y-137921314D01*
X197646420Y-137921314D01*
X197551182Y-137873695D01*
X197979754Y-137540361D02*
X197884516Y-137587980D01*
X197694040Y-137587980D01*
X197598801Y-137540361D01*
X197551182Y-137492742D01*
X197503563Y-137397504D01*
X197503563Y-137111790D01*
X197551182Y-137016552D01*
X197598801Y-136968933D01*
X197694040Y-136921314D01*
X197884516Y-136921314D01*
X197979754Y-136968933D01*
X199217849Y-137587980D02*
X199217849Y-136587980D01*
X199598801Y-136587980D01*
X199694040Y-136635600D01*
X199741659Y-136683219D01*
X199789278Y-136778457D01*
X199789278Y-136921314D01*
X199741659Y-137016552D01*
X199694040Y-137064171D01*
X199598801Y-137111790D01*
X199217849Y-137111790D01*
X200646420Y-137587980D02*
X200646420Y-137064171D01*
X200598801Y-136968933D01*
X200503563Y-136921314D01*
X200313087Y-136921314D01*
X200217849Y-136968933D01*
X200646420Y-137540361D02*
X200551182Y-137587980D01*
X200313087Y-137587980D01*
X200217849Y-137540361D01*
X200170230Y-137445123D01*
X200170230Y-137349885D01*
X200217849Y-137254647D01*
X200313087Y-137207028D01*
X200551182Y-137207028D01*
X200646420Y-137159409D01*
X201074992Y-137540361D02*
X201170230Y-137587980D01*
X201360706Y-137587980D01*
X201455944Y-137540361D01*
X201503563Y-137445123D01*
X201503563Y-137397504D01*
X201455944Y-137302266D01*
X201360706Y-137254647D01*
X201217849Y-137254647D01*
X201122611Y-137207028D01*
X201074992Y-137111790D01*
X201074992Y-137064171D01*
X201122611Y-136968933D01*
X201217849Y-136921314D01*
X201360706Y-136921314D01*
X201455944Y-136968933D01*
X201884516Y-137540361D02*
X201979754Y-137587980D01*
X202170230Y-137587980D01*
X202265468Y-137540361D01*
X202313087Y-137445123D01*
X202313087Y-137397504D01*
X202265468Y-137302266D01*
X202170230Y-137254647D01*
X202027373Y-137254647D01*
X201932135Y-137207028D01*
X201884516Y-137111790D01*
X201884516Y-137064171D01*
X201932135Y-136968933D01*
X202027373Y-136921314D01*
X202170230Y-136921314D01*
X202265468Y-136968933D01*
X190646420Y-138952266D02*
X191122611Y-138952266D01*
X190551182Y-139237980D02*
X190884516Y-138237980D01*
X191217849Y-139237980D01*
X192122611Y-139142742D02*
X192074992Y-139190361D01*
X191932135Y-139237980D01*
X191836897Y-139237980D01*
X191694040Y-139190361D01*
X191598801Y-139095123D01*
X191551182Y-138999885D01*
X191503563Y-138809409D01*
X191503563Y-138666552D01*
X191551182Y-138476076D01*
X191598801Y-138380838D01*
X191694040Y-138285600D01*
X191836897Y-138237980D01*
X191932135Y-138237980D01*
X192074992Y-138285600D01*
X192122611Y-138333219D01*
X193265468Y-139190361D02*
X193408325Y-139237980D01*
X193646420Y-139237980D01*
X193741659Y-139190361D01*
X193789278Y-139142742D01*
X193836897Y-139047504D01*
X193836897Y-138952266D01*
X193789278Y-138857028D01*
X193741659Y-138809409D01*
X193646420Y-138761790D01*
X193455944Y-138714171D01*
X193360706Y-138666552D01*
X193313087Y-138618933D01*
X193265468Y-138523695D01*
X193265468Y-138428457D01*
X193313087Y-138333219D01*
X193360706Y-138285600D01*
X193455944Y-138237980D01*
X193694040Y-138237980D01*
X193836897Y-138285600D01*
X194265468Y-139237980D02*
X194265468Y-138237980D01*
X194694040Y-139237980D02*
X194694040Y-138714171D01*
X194646420Y-138618933D01*
X194551182Y-138571314D01*
X194408325Y-138571314D01*
X194313087Y-138618933D01*
X194265468Y-138666552D01*
X195170230Y-139237980D02*
X195170230Y-138571314D01*
X195170230Y-138237980D02*
X195122611Y-138285600D01*
X195170230Y-138333219D01*
X195217849Y-138285600D01*
X195170230Y-138237980D01*
X195170230Y-138333219D01*
X196027373Y-139190361D02*
X195932135Y-139237980D01*
X195741659Y-139237980D01*
X195646420Y-139190361D01*
X195598801Y-139095123D01*
X195598801Y-138714171D01*
X195646420Y-138618933D01*
X195741659Y-138571314D01*
X195932135Y-138571314D01*
X196027373Y-138618933D01*
X196074992Y-138714171D01*
X196074992Y-138809409D01*
X195598801Y-138904647D01*
X196646420Y-139237980D02*
X196551182Y-139190361D01*
X196503563Y-139095123D01*
X196503563Y-138237980D01*
X197455944Y-139237980D02*
X197455944Y-138237980D01*
X197455944Y-139190361D02*
X197360706Y-139237980D01*
X197170230Y-139237980D01*
X197074992Y-139190361D01*
X197027373Y-139142742D01*
X196979754Y-139047504D01*
X196979754Y-138761790D01*
X197027373Y-138666552D01*
X197074992Y-138618933D01*
X197170230Y-138571314D01*
X197360706Y-138571314D01*
X197455944Y-138618933D01*
X198598801Y-138571314D02*
X198836897Y-139237980D01*
X199074992Y-138571314D01*
X199836897Y-139190361D02*
X199741659Y-139237980D01*
X199551182Y-139237980D01*
X199455944Y-139190361D01*
X199408325Y-139095123D01*
X199408325Y-138714171D01*
X199455944Y-138618933D01*
X199551182Y-138571314D01*
X199741659Y-138571314D01*
X199836897Y-138618933D01*
X199884516Y-138714171D01*
X199884516Y-138809409D01*
X199408325Y-138904647D01*
X200313087Y-139237980D02*
X200313087Y-138571314D01*
X200313087Y-138761790D02*
X200360706Y-138666552D01*
X200408325Y-138618933D01*
X200503563Y-138571314D01*
X200598801Y-138571314D01*
X200884516Y-139190361D02*
X200979754Y-139237980D01*
X201170230Y-139237980D01*
X201265468Y-139190361D01*
X201313087Y-139095123D01*
X201313087Y-139047504D01*
X201265468Y-138952266D01*
X201170230Y-138904647D01*
X201027373Y-138904647D01*
X200932135Y-138857028D01*
X200884516Y-138761790D01*
X200884516Y-138714171D01*
X200932135Y-138618933D01*
X201027373Y-138571314D01*
X201170230Y-138571314D01*
X201265468Y-138618933D01*
X201741659Y-139237980D02*
X201741659Y-138571314D01*
X201741659Y-138237980D02*
X201694040Y-138285600D01*
X201741659Y-138333219D01*
X201789278Y-138285600D01*
X201741659Y-138237980D01*
X201741659Y-138333219D01*
X202360706Y-139237980D02*
X202265468Y-139190361D01*
X202217849Y-139142742D01*
X202170230Y-139047504D01*
X202170230Y-138761790D01*
X202217849Y-138666552D01*
X202265468Y-138618933D01*
X202360706Y-138571314D01*
X202503563Y-138571314D01*
X202598801Y-138618933D01*
X202646420Y-138666552D01*
X202694040Y-138761790D01*
X202694040Y-139047504D01*
X202646420Y-139142742D01*
X202598801Y-139190361D01*
X202503563Y-139237980D01*
X202360706Y-139237980D01*
X203122611Y-138571314D02*
X203122611Y-139237980D01*
X203122611Y-138666552D02*
X203170230Y-138618933D01*
X203265468Y-138571314D01*
X203408325Y-138571314D01*
X203503563Y-138618933D01*
X203551182Y-138714171D01*
X203551182Y-139237980D01*
X205313087Y-139237980D02*
X204741659Y-139237980D01*
X205027373Y-139237980D02*
X205027373Y-138237980D01*
X204932135Y-138380838D01*
X204836897Y-138476076D01*
X204741659Y-138523695D01*
X205741659Y-139142742D02*
X205789278Y-139190361D01*
X205741659Y-139237980D01*
X205694040Y-139190361D01*
X205741659Y-139142742D01*
X205741659Y-139237980D01*
X206741659Y-139237980D02*
X206170230Y-139237980D01*
X206455944Y-139237980D02*
X206455944Y-138237980D01*
X206360706Y-138380838D01*
X206265468Y-138476076D01*
X206170230Y-138523695D01*
X186813087Y-140887980D02*
X186241659Y-140887980D01*
X186527373Y-140887980D02*
X186527373Y-139887980D01*
X186432135Y-140030838D01*
X186336897Y-140126076D01*
X186241659Y-140173695D01*
X187194040Y-139983219D02*
X187241659Y-139935600D01*
X187336897Y-139887980D01*
X187574992Y-139887980D01*
X187670230Y-139935600D01*
X187717849Y-139983219D01*
X187765468Y-140078457D01*
X187765468Y-140173695D01*
X187717849Y-140316552D01*
X187146420Y-140887980D01*
X187765468Y-140887980D01*
X188384516Y-139887980D02*
X188479754Y-139887980D01*
X188574992Y-139935600D01*
X188622611Y-139983219D01*
X188670230Y-140078457D01*
X188717849Y-140268933D01*
X188717849Y-140507028D01*
X188670230Y-140697504D01*
X188622611Y-140792742D01*
X188574992Y-140840361D01*
X188479754Y-140887980D01*
X188384516Y-140887980D01*
X188289278Y-140840361D01*
X188241659Y-140792742D01*
X188194040Y-140697504D01*
X188146420Y-140507028D01*
X188146420Y-140268933D01*
X188194040Y-140078457D01*
X188241659Y-139983219D01*
X188289278Y-139935600D01*
X188384516Y-139887980D01*
X189003563Y-139887980D02*
X189336897Y-140887980D01*
X189670230Y-139887980D01*
X190955944Y-139887980D02*
X191146420Y-139887980D01*
X191241659Y-139935600D01*
X191336897Y-140030838D01*
X191384516Y-140221314D01*
X191384516Y-140554647D01*
X191336897Y-140745123D01*
X191241659Y-140840361D01*
X191146420Y-140887980D01*
X190955944Y-140887980D01*
X190860706Y-140840361D01*
X190765468Y-140745123D01*
X190717849Y-140554647D01*
X190717849Y-140221314D01*
X190765468Y-140030838D01*
X190860706Y-139935600D01*
X190955944Y-139887980D01*
X192241659Y-140221314D02*
X192241659Y-140887980D01*
X191813087Y-140221314D02*
X191813087Y-140745123D01*
X191860706Y-140840361D01*
X191955944Y-140887980D01*
X192098801Y-140887980D01*
X192194040Y-140840361D01*
X192241659Y-140792742D01*
X192574992Y-140221314D02*
X192955944Y-140221314D01*
X192717849Y-139887980D02*
X192717849Y-140745123D01*
X192765468Y-140840361D01*
X192860706Y-140887980D01*
X192955944Y-140887980D01*
X193432135Y-140887980D02*
X193336897Y-140840361D01*
X193289278Y-140745123D01*
X193289278Y-139887980D01*
X194194040Y-140840361D02*
X194098801Y-140887980D01*
X193908325Y-140887980D01*
X193813087Y-140840361D01*
X193765468Y-140745123D01*
X193765468Y-140364171D01*
X193813087Y-140268933D01*
X193908325Y-140221314D01*
X194098801Y-140221314D01*
X194194040Y-140268933D01*
X194241659Y-140364171D01*
X194241659Y-140459409D01*
X193765468Y-140554647D01*
X194527373Y-140221314D02*
X194908325Y-140221314D01*
X194670230Y-139887980D02*
X194670230Y-140745123D01*
X194717849Y-140840361D01*
X194813087Y-140887980D01*
X194908325Y-140887980D01*
X196574992Y-140887980D02*
X196241659Y-140411790D01*
X196003563Y-140887980D02*
X196003563Y-139887980D01*
X196384516Y-139887980D01*
X196479754Y-139935600D01*
X196527373Y-139983219D01*
X196574992Y-140078457D01*
X196574992Y-140221314D01*
X196527373Y-140316552D01*
X196479754Y-140364171D01*
X196384516Y-140411790D01*
X196003563Y-140411790D01*
X197336897Y-140364171D02*
X197003563Y-140364171D01*
X197003563Y-140887980D02*
X197003563Y-139887980D01*
X197479754Y-139887980D01*
X197860706Y-140887980D02*
X197860706Y-139887980D01*
X198336897Y-140887980D02*
X198336897Y-139887980D01*
X198574992Y-139887980D01*
X198717849Y-139935600D01*
X198813087Y-140030838D01*
X198860706Y-140126076D01*
X198908325Y-140316552D01*
X198908325Y-140459409D01*
X198860706Y-140649885D01*
X198813087Y-140745123D01*
X198717849Y-140840361D01*
X198574992Y-140887980D01*
X198336897Y-140887980D01*
X200527373Y-140840361D02*
X200432135Y-140887980D01*
X200241659Y-140887980D01*
X200146420Y-140840361D01*
X200098801Y-140792742D01*
X200051182Y-140697504D01*
X200051182Y-140411790D01*
X200098801Y-140316552D01*
X200146420Y-140268933D01*
X200241659Y-140221314D01*
X200432135Y-140221314D01*
X200527373Y-140268933D01*
X201098801Y-140887980D02*
X201003563Y-140840361D01*
X200955944Y-140792742D01*
X200908325Y-140697504D01*
X200908325Y-140411790D01*
X200955944Y-140316552D01*
X201003563Y-140268933D01*
X201098801Y-140221314D01*
X201241659Y-140221314D01*
X201336897Y-140268933D01*
X201384516Y-140316552D01*
X201432135Y-140411790D01*
X201432135Y-140697504D01*
X201384516Y-140792742D01*
X201336897Y-140840361D01*
X201241659Y-140887980D01*
X201098801Y-140887980D01*
X201860706Y-140221314D02*
X201860706Y-140887980D01*
X201860706Y-140316552D02*
X201908325Y-140268933D01*
X202003563Y-140221314D01*
X202146420Y-140221314D01*
X202241659Y-140268933D01*
X202289278Y-140364171D01*
X202289278Y-140887980D01*
X202622611Y-140221314D02*
X203003563Y-140221314D01*
X202765468Y-139887980D02*
X202765468Y-140745123D01*
X202813087Y-140840361D01*
X202908325Y-140887980D01*
X203003563Y-140887980D01*
X203336897Y-140887980D02*
X203336897Y-140221314D01*
X203336897Y-140411790D02*
X203384516Y-140316552D01*
X203432135Y-140268933D01*
X203527373Y-140221314D01*
X203622611Y-140221314D01*
X204098801Y-140887980D02*
X204003563Y-140840361D01*
X203955944Y-140792742D01*
X203908325Y-140697504D01*
X203908325Y-140411790D01*
X203955944Y-140316552D01*
X204003563Y-140268933D01*
X204098801Y-140221314D01*
X204241659Y-140221314D01*
X204336897Y-140268933D01*
X204384516Y-140316552D01*
X204432135Y-140411790D01*
X204432135Y-140697504D01*
X204384516Y-140792742D01*
X204336897Y-140840361D01*
X204241659Y-140887980D01*
X204098801Y-140887980D01*
X205003563Y-140887980D02*
X204908325Y-140840361D01*
X204860706Y-140745123D01*
X204860706Y-139887980D01*
X206146420Y-140887980D02*
X206146420Y-140221314D01*
X206146420Y-140316552D02*
X206194040Y-140268933D01*
X206289278Y-140221314D01*
X206432135Y-140221314D01*
X206527373Y-140268933D01*
X206574992Y-140364171D01*
X206574992Y-140887980D01*
X206574992Y-140364171D02*
X206622611Y-140268933D01*
X206717849Y-140221314D01*
X206860706Y-140221314D01*
X206955944Y-140268933D01*
X207003563Y-140364171D01*
X207003563Y-140887980D01*
X207622611Y-140887980D02*
X207527373Y-140840361D01*
X207479754Y-140792742D01*
X207432135Y-140697504D01*
X207432135Y-140411790D01*
X207479754Y-140316552D01*
X207527373Y-140268933D01*
X207622611Y-140221314D01*
X207765468Y-140221314D01*
X207860706Y-140268933D01*
X207908325Y-140316552D01*
X207955944Y-140411790D01*
X207955944Y-140697504D01*
X207908325Y-140792742D01*
X207860706Y-140840361D01*
X207765468Y-140887980D01*
X207622611Y-140887980D01*
X208813087Y-140887980D02*
X208813087Y-139887980D01*
X208813087Y-140840361D02*
X208717849Y-140887980D01*
X208527373Y-140887980D01*
X208432135Y-140840361D01*
X208384516Y-140792742D01*
X208336897Y-140697504D01*
X208336897Y-140411790D01*
X208384516Y-140316552D01*
X208432135Y-140268933D01*
X208527373Y-140221314D01*
X208717849Y-140221314D01*
X208813087Y-140268933D01*
X209717849Y-140221314D02*
X209717849Y-140887980D01*
X209289278Y-140221314D02*
X209289278Y-140745123D01*
X209336897Y-140840361D01*
X209432135Y-140887980D01*
X209574992Y-140887980D01*
X209670230Y-140840361D01*
X209717849Y-140792742D01*
X210336897Y-140887980D02*
X210241659Y-140840361D01*
X210194040Y-140745123D01*
X210194040Y-139887980D01*
X211098801Y-140840361D02*
X211003563Y-140887980D01*
X210813087Y-140887980D01*
X210717849Y-140840361D01*
X210670230Y-140745123D01*
X210670230Y-140364171D01*
X210717849Y-140268933D01*
X210813087Y-140221314D01*
X211003563Y-140221314D01*
X211098801Y-140268933D01*
X211146420Y-140364171D01*
X211146420Y-140459409D01*
X210670230Y-140554647D01*
M02*
