G04 #@! TF.GenerationSoftware,KiCad,Pcbnew,(5.1.10)-1*
G04 #@! TF.CreationDate,2021-06-08T22:52:37-07:00*
G04 #@! TF.ProjectId,Plug_Pass,506c7567-5f50-4617-9373-2e6b69636164,v3.1*
G04 #@! TF.SameCoordinates,Original*
G04 #@! TF.FileFunction,Soldermask,Bot*
G04 #@! TF.FilePolarity,Negative*
%FSLAX46Y46*%
G04 Gerber Fmt 4.6, Leading zero omitted, Abs format (unit mm)*
G04 Created by KiCad (PCBNEW (5.1.10)-1) date 2021-06-08 22:52:37*
%MOMM*%
%LPD*%
G01*
G04 APERTURE LIST*
%ADD10C,1.131600*%
%ADD11O,2.181600X1.141600*%
%ADD12C,1.752600*%
%ADD13O,1.801600X1.801600*%
%ADD14O,2.301600X1.201600*%
%ADD15C,2.601600*%
%ADD16C,4.101600*%
%ADD17C,2.101600*%
%ADD18C,0.100000*%
G04 APERTURE END LIST*
D10*
X154078000Y-57150000D03*
X149198000Y-57150000D03*
D11*
X132080000Y-73914000D03*
X132080000Y-75184000D03*
X132080000Y-76454000D03*
D12*
X172212000Y-104140000D03*
X172212000Y-101600000D03*
G36*
G01*
X171386500Y-98183700D02*
X173037500Y-98183700D01*
G75*
G02*
X173088300Y-98234500I0J-50800D01*
G01*
X173088300Y-99885500D01*
G75*
G02*
X173037500Y-99936300I-50800J0D01*
G01*
X171386500Y-99936300D01*
G75*
G02*
X171335700Y-99885500I0J50800D01*
G01*
X171335700Y-98234500D01*
G75*
G02*
X171386500Y-98183700I50800J0D01*
G01*
G37*
D13*
X131572000Y-62230000D03*
G36*
G01*
X132472800Y-63920000D02*
X132472800Y-65620000D01*
G75*
G02*
X132422000Y-65670800I-50800J0D01*
G01*
X130722000Y-65670800D01*
G75*
G02*
X130671200Y-65620000I0J50800D01*
G01*
X130671200Y-63920000D01*
G75*
G02*
X130722000Y-63869200I50800J0D01*
G01*
X132422000Y-63869200D01*
G75*
G02*
X132472800Y-63920000I0J-50800D01*
G01*
G37*
G36*
G01*
X138468800Y-85979000D02*
X138468800Y-88009000D01*
G75*
G02*
X138418000Y-88059800I-50800J0D01*
G01*
X136918000Y-88059800D01*
G75*
G02*
X136867200Y-88009000I0J50800D01*
G01*
X136867200Y-85979000D01*
G75*
G02*
X136918000Y-85928200I50800J0D01*
G01*
X138418000Y-85928200D01*
G75*
G02*
X138468800Y-85979000I0J-50800D01*
G01*
G37*
G36*
G01*
X141008800Y-85979000D02*
X141008800Y-88009000D01*
G75*
G02*
X140958000Y-88059800I-50800J0D01*
G01*
X139458000Y-88059800D01*
G75*
G02*
X139407200Y-88009000I0J50800D01*
G01*
X139407200Y-85979000D01*
G75*
G02*
X139458000Y-85928200I50800J0D01*
G01*
X140958000Y-85928200D01*
G75*
G02*
X141008800Y-85979000I0J-50800D01*
G01*
G37*
G36*
G01*
X143548800Y-85979000D02*
X143548800Y-88009000D01*
G75*
G02*
X143498000Y-88059800I-50800J0D01*
G01*
X141998000Y-88059800D01*
G75*
G02*
X141947200Y-88009000I0J50800D01*
G01*
X141947200Y-85979000D01*
G75*
G02*
X141998000Y-85928200I50800J0D01*
G01*
X143498000Y-85928200D01*
G75*
G02*
X143548800Y-85979000I0J-50800D01*
G01*
G37*
G36*
G01*
X146088800Y-85979000D02*
X146088800Y-88009000D01*
G75*
G02*
X146038000Y-88059800I-50800J0D01*
G01*
X144538000Y-88059800D01*
G75*
G02*
X144487200Y-88009000I0J50800D01*
G01*
X144487200Y-85979000D01*
G75*
G02*
X144538000Y-85928200I50800J0D01*
G01*
X146038000Y-85928200D01*
G75*
G02*
X146088800Y-85979000I0J-50800D01*
G01*
G37*
G36*
G01*
X158788800Y-85979000D02*
X158788800Y-88009000D01*
G75*
G02*
X158738000Y-88059800I-50800J0D01*
G01*
X157238000Y-88059800D01*
G75*
G02*
X157187200Y-88009000I0J50800D01*
G01*
X157187200Y-85979000D01*
G75*
G02*
X157238000Y-85928200I50800J0D01*
G01*
X158738000Y-85928200D01*
G75*
G02*
X158788800Y-85979000I0J-50800D01*
G01*
G37*
G36*
G01*
X163868800Y-85979000D02*
X163868800Y-88009000D01*
G75*
G02*
X163818000Y-88059800I-50800J0D01*
G01*
X162318000Y-88059800D01*
G75*
G02*
X162267200Y-88009000I0J50800D01*
G01*
X162267200Y-85979000D01*
G75*
G02*
X162318000Y-85928200I50800J0D01*
G01*
X163818000Y-85928200D01*
G75*
G02*
X163868800Y-85979000I0J-50800D01*
G01*
G37*
G36*
G01*
X168948800Y-85979000D02*
X168948800Y-88009000D01*
G75*
G02*
X168898000Y-88059800I-50800J0D01*
G01*
X167398000Y-88059800D01*
G75*
G02*
X167347200Y-88009000I0J50800D01*
G01*
X167347200Y-85979000D01*
G75*
G02*
X167398000Y-85928200I50800J0D01*
G01*
X168898000Y-85928200D01*
G75*
G02*
X168948800Y-85979000I0J-50800D01*
G01*
G37*
G36*
G01*
X138468800Y-57279000D02*
X138468800Y-59309000D01*
G75*
G02*
X138418000Y-59359800I-50800J0D01*
G01*
X136918000Y-59359800D01*
G75*
G02*
X136867200Y-59309000I0J50800D01*
G01*
X136867200Y-57279000D01*
G75*
G02*
X136918000Y-57228200I50800J0D01*
G01*
X138418000Y-57228200D01*
G75*
G02*
X138468800Y-57279000I0J-50800D01*
G01*
G37*
G36*
G01*
X141008800Y-57279000D02*
X141008800Y-59309000D01*
G75*
G02*
X140958000Y-59359800I-50800J0D01*
G01*
X139458000Y-59359800D01*
G75*
G02*
X139407200Y-59309000I0J50800D01*
G01*
X139407200Y-57279000D01*
G75*
G02*
X139458000Y-57228200I50800J0D01*
G01*
X140958000Y-57228200D01*
G75*
G02*
X141008800Y-57279000I0J-50800D01*
G01*
G37*
G36*
G01*
X143548800Y-57279000D02*
X143548800Y-59309000D01*
G75*
G02*
X143498000Y-59359800I-50800J0D01*
G01*
X141998000Y-59359800D01*
G75*
G02*
X141947200Y-59309000I0J50800D01*
G01*
X141947200Y-57279000D01*
G75*
G02*
X141998000Y-57228200I50800J0D01*
G01*
X143498000Y-57228200D01*
G75*
G02*
X143548800Y-57279000I0J-50800D01*
G01*
G37*
G36*
G01*
X146088800Y-57279000D02*
X146088800Y-59309000D01*
G75*
G02*
X146038000Y-59359800I-50800J0D01*
G01*
X144538000Y-59359800D01*
G75*
G02*
X144487200Y-59309000I0J50800D01*
G01*
X144487200Y-57279000D01*
G75*
G02*
X144538000Y-57228200I50800J0D01*
G01*
X146038000Y-57228200D01*
G75*
G02*
X146088800Y-57279000I0J-50800D01*
G01*
G37*
G36*
G01*
X158788800Y-57279000D02*
X158788800Y-59309000D01*
G75*
G02*
X158738000Y-59359800I-50800J0D01*
G01*
X157238000Y-59359800D01*
G75*
G02*
X157187200Y-59309000I0J50800D01*
G01*
X157187200Y-57279000D01*
G75*
G02*
X157238000Y-57228200I50800J0D01*
G01*
X158738000Y-57228200D01*
G75*
G02*
X158788800Y-57279000I0J-50800D01*
G01*
G37*
G36*
G01*
X163868800Y-57279000D02*
X163868800Y-59309000D01*
G75*
G02*
X163818000Y-59359800I-50800J0D01*
G01*
X162318000Y-59359800D01*
G75*
G02*
X162267200Y-59309000I0J50800D01*
G01*
X162267200Y-57279000D01*
G75*
G02*
X162318000Y-57228200I50800J0D01*
G01*
X163818000Y-57228200D01*
G75*
G02*
X163868800Y-57279000I0J-50800D01*
G01*
G37*
G36*
G01*
X168948800Y-57279000D02*
X168948800Y-59309000D01*
G75*
G02*
X168898000Y-59359800I-50800J0D01*
G01*
X167398000Y-59359800D01*
G75*
G02*
X167347200Y-59309000I0J50800D01*
G01*
X167347200Y-57279000D01*
G75*
G02*
X167398000Y-57228200I50800J0D01*
G01*
X168898000Y-57228200D01*
G75*
G02*
X168948800Y-57279000I0J-50800D01*
G01*
G37*
G36*
G01*
X170685200Y-126444000D02*
X170685200Y-120444000D01*
G75*
G02*
X170736000Y-120393200I50800J0D01*
G01*
X176736000Y-120393200D01*
G75*
G02*
X176786800Y-120444000I0J-50800D01*
G01*
X176786800Y-126444000D01*
G75*
G02*
X176736000Y-126494800I-50800J0D01*
G01*
X170736000Y-126494800D01*
G75*
G02*
X170685200Y-126444000I0J50800D01*
G01*
G37*
G36*
G01*
X170685200Y-59388000D02*
X170685200Y-53388000D01*
G75*
G02*
X170736000Y-53337200I50800J0D01*
G01*
X176736000Y-53337200D01*
G75*
G02*
X176786800Y-53388000I0J-50800D01*
G01*
X176786800Y-59388000D01*
G75*
G02*
X176736000Y-59438800I-50800J0D01*
G01*
X170736000Y-59438800D01*
G75*
G02*
X170685200Y-59388000I0J50800D01*
G01*
G37*
G36*
G01*
X129029200Y-126444000D02*
X129029200Y-120444000D01*
G75*
G02*
X129080000Y-120393200I50800J0D01*
G01*
X135080000Y-120393200D01*
G75*
G02*
X135130800Y-120444000I0J-50800D01*
G01*
X135130800Y-126444000D01*
G75*
G02*
X135080000Y-126494800I-50800J0D01*
G01*
X129080000Y-126494800D01*
G75*
G02*
X129029200Y-126444000I0J50800D01*
G01*
G37*
G36*
G01*
X129029200Y-59388000D02*
X129029200Y-53388000D01*
G75*
G02*
X129080000Y-53337200I50800J0D01*
G01*
X135080000Y-53337200D01*
G75*
G02*
X135130800Y-53388000I0J-50800D01*
G01*
X135130800Y-59388000D01*
G75*
G02*
X135080000Y-59438800I-50800J0D01*
G01*
X129080000Y-59438800D01*
G75*
G02*
X129029200Y-59388000I0J50800D01*
G01*
G37*
D14*
X167392000Y-93599000D03*
X161792000Y-93599000D03*
X164592000Y-95749000D03*
G36*
G01*
X172547600Y-91641948D02*
X172547600Y-92762052D01*
G75*
G02*
X172531052Y-92778600I-16548J0D01*
G01*
X171460948Y-92778600D01*
G75*
G02*
X171444400Y-92762052I0J16548D01*
G01*
X171444400Y-91641948D01*
G75*
G02*
X171460948Y-91625400I16548J0D01*
G01*
X172531052Y-91625400D01*
G75*
G02*
X172547600Y-91641948I0J-16548D01*
G01*
G37*
G36*
G01*
X170947600Y-91641948D02*
X170947600Y-92762052D01*
G75*
G02*
X170931052Y-92778600I-16548J0D01*
G01*
X169860948Y-92778600D01*
G75*
G02*
X169844400Y-92762052I0J16548D01*
G01*
X169844400Y-91641948D01*
G75*
G02*
X169860948Y-91625400I16548J0D01*
G01*
X170931052Y-91625400D01*
G75*
G02*
X170947600Y-91641948I0J-16548D01*
G01*
G37*
G36*
G01*
X171410400Y-108933000D02*
X171410400Y-107983000D01*
G75*
G02*
X171512000Y-107881400I101600J0D01*
G01*
X172912000Y-107881400D01*
G75*
G02*
X173013600Y-107983000I0J-101600D01*
G01*
X173013600Y-108933000D01*
G75*
G02*
X172912000Y-109034600I-101600J0D01*
G01*
X171512000Y-109034600D01*
G75*
G02*
X171410400Y-108933000I0J101600D01*
G01*
G37*
G36*
G01*
X171410400Y-113083000D02*
X171410400Y-112133000D01*
G75*
G02*
X171512000Y-112031400I101600J0D01*
G01*
X172912000Y-112031400D01*
G75*
G02*
X173013600Y-112133000I0J-101600D01*
G01*
X173013600Y-113083000D01*
G75*
G02*
X172912000Y-113184600I-101600J0D01*
G01*
X171512000Y-113184600D01*
G75*
G02*
X171410400Y-113083000I0J101600D01*
G01*
G37*
G36*
G01*
X170312000Y-108281400D02*
X171062000Y-108281400D01*
G75*
G02*
X171163600Y-108383000I0J-101600D01*
G01*
X171163600Y-109533000D01*
G75*
G02*
X171062000Y-109634600I-101600J0D01*
G01*
X170312000Y-109634600D01*
G75*
G02*
X170210400Y-109533000I0J101600D01*
G01*
X170210400Y-108383000D01*
G75*
G02*
X170312000Y-108281400I101600J0D01*
G01*
G37*
G36*
G01*
X173362000Y-108281400D02*
X174112000Y-108281400D01*
G75*
G02*
X174213600Y-108383000I0J-101600D01*
G01*
X174213600Y-109533000D01*
G75*
G02*
X174112000Y-109634600I-101600J0D01*
G01*
X173362000Y-109634600D01*
G75*
G02*
X173260400Y-109533000I0J101600D01*
G01*
X173260400Y-108383000D01*
G75*
G02*
X173362000Y-108281400I101600J0D01*
G01*
G37*
G36*
G01*
X170312000Y-111431400D02*
X171062000Y-111431400D01*
G75*
G02*
X171163600Y-111533000I0J-101600D01*
G01*
X171163600Y-112683000D01*
G75*
G02*
X171062000Y-112784600I-101600J0D01*
G01*
X170312000Y-112784600D01*
G75*
G02*
X170210400Y-112683000I0J101600D01*
G01*
X170210400Y-111533000D01*
G75*
G02*
X170312000Y-111431400I101600J0D01*
G01*
G37*
G36*
G01*
X173362000Y-111431400D02*
X174112000Y-111431400D01*
G75*
G02*
X174213600Y-111533000I0J-101600D01*
G01*
X174213600Y-112683000D01*
G75*
G02*
X174112000Y-112784600I-101600J0D01*
G01*
X173362000Y-112784600D01*
G75*
G02*
X173260400Y-112683000I0J101600D01*
G01*
X173260400Y-111533000D01*
G75*
G02*
X173362000Y-111431400I101600J0D01*
G01*
G37*
G36*
G01*
X172547600Y-89863948D02*
X172547600Y-90984052D01*
G75*
G02*
X172531052Y-91000600I-16548J0D01*
G01*
X171460948Y-91000600D01*
G75*
G02*
X171444400Y-90984052I0J16548D01*
G01*
X171444400Y-89863948D01*
G75*
G02*
X171460948Y-89847400I16548J0D01*
G01*
X172531052Y-89847400D01*
G75*
G02*
X172547600Y-89863948I0J-16548D01*
G01*
G37*
G36*
G01*
X170947600Y-89863948D02*
X170947600Y-90984052D01*
G75*
G02*
X170931052Y-91000600I-16548J0D01*
G01*
X169860948Y-91000600D01*
G75*
G02*
X169844400Y-90984052I0J16548D01*
G01*
X169844400Y-89863948D01*
G75*
G02*
X169860948Y-89847400I16548J0D01*
G01*
X170931052Y-89847400D01*
G75*
G02*
X170947600Y-89863948I0J-16548D01*
G01*
G37*
G36*
G01*
X150025400Y-59708252D02*
X150025400Y-58909748D01*
G75*
G02*
X150037748Y-58897400I12348J0D01*
G01*
X150836252Y-58897400D01*
G75*
G02*
X150848600Y-58909748I0J-12348D01*
G01*
X150848600Y-59708252D01*
G75*
G02*
X150836252Y-59720600I-12348J0D01*
G01*
X150037748Y-59720600D01*
G75*
G02*
X150025400Y-59708252I0J12348D01*
G01*
G37*
G36*
G01*
X149125400Y-59708252D02*
X149125400Y-58909748D01*
G75*
G02*
X149137748Y-58897400I12348J0D01*
G01*
X149936252Y-58897400D01*
G75*
G02*
X149948600Y-58909748I0J-12348D01*
G01*
X149948600Y-59708252D01*
G75*
G02*
X149936252Y-59720600I-12348J0D01*
G01*
X149137748Y-59720600D01*
G75*
G02*
X149125400Y-59708252I0J12348D01*
G01*
G37*
G36*
G01*
X154386600Y-59129948D02*
X154386600Y-60250052D01*
G75*
G02*
X154370052Y-60266600I-16548J0D01*
G01*
X153299948Y-60266600D01*
G75*
G02*
X153283400Y-60250052I0J16548D01*
G01*
X153283400Y-59129948D01*
G75*
G02*
X153299948Y-59113400I16548J0D01*
G01*
X154370052Y-59113400D01*
G75*
G02*
X154386600Y-59129948I0J-16548D01*
G01*
G37*
G36*
G01*
X152786600Y-59129948D02*
X152786600Y-60250052D01*
G75*
G02*
X152770052Y-60266600I-16548J0D01*
G01*
X151699948Y-60266600D01*
G75*
G02*
X151683400Y-60250052I0J16548D01*
G01*
X151683400Y-59129948D01*
G75*
G02*
X151699948Y-59113400I16548J0D01*
G01*
X152770052Y-59113400D01*
G75*
G02*
X152786600Y-59129948I0J-16548D01*
G01*
G37*
G36*
G01*
X173717748Y-77323400D02*
X174516252Y-77323400D01*
G75*
G02*
X174528600Y-77335748I0J-12348D01*
G01*
X174528600Y-78134252D01*
G75*
G02*
X174516252Y-78146600I-12348J0D01*
G01*
X173717748Y-78146600D01*
G75*
G02*
X173705400Y-78134252I0J12348D01*
G01*
X173705400Y-77335748D01*
G75*
G02*
X173717748Y-77323400I12348J0D01*
G01*
G37*
G36*
G01*
X173717748Y-76423400D02*
X174516252Y-76423400D01*
G75*
G02*
X174528600Y-76435748I0J-12348D01*
G01*
X174528600Y-77234252D01*
G75*
G02*
X174516252Y-77246600I-12348J0D01*
G01*
X173717748Y-77246600D01*
G75*
G02*
X173705400Y-77234252I0J12348D01*
G01*
X173705400Y-76435748D01*
G75*
G02*
X173717748Y-76423400I12348J0D01*
G01*
G37*
G36*
G01*
X150025400Y-60978252D02*
X150025400Y-60179748D01*
G75*
G02*
X150037748Y-60167400I12348J0D01*
G01*
X150836252Y-60167400D01*
G75*
G02*
X150848600Y-60179748I0J-12348D01*
G01*
X150848600Y-60978252D01*
G75*
G02*
X150836252Y-60990600I-12348J0D01*
G01*
X150037748Y-60990600D01*
G75*
G02*
X150025400Y-60978252I0J12348D01*
G01*
G37*
G36*
G01*
X149125400Y-60978252D02*
X149125400Y-60179748D01*
G75*
G02*
X149137748Y-60167400I12348J0D01*
G01*
X149936252Y-60167400D01*
G75*
G02*
X149948600Y-60179748I0J-12348D01*
G01*
X149948600Y-60978252D01*
G75*
G02*
X149936252Y-60990600I-12348J0D01*
G01*
X149137748Y-60990600D01*
G75*
G02*
X149125400Y-60978252I0J12348D01*
G01*
G37*
D15*
X163275200Y-105841800D03*
X163275200Y-116001800D03*
G36*
G01*
X148575200Y-99981000D02*
X152575200Y-99981000D01*
G75*
G02*
X152626000Y-100031800I0J-50800D01*
G01*
X152626000Y-104031800D01*
G75*
G02*
X152575200Y-104082600I-50800J0D01*
G01*
X148575200Y-104082600D01*
G75*
G02*
X148524400Y-104031800I0J50800D01*
G01*
X148524400Y-100031800D01*
G75*
G02*
X148575200Y-99981000I50800J0D01*
G01*
G37*
D16*
X148035200Y-119811800D03*
G36*
G01*
X146225000Y-90294200D02*
X152225000Y-90294200D01*
G75*
G02*
X152275800Y-90345000I0J-50800D01*
G01*
X152275800Y-96345000D01*
G75*
G02*
X152225000Y-96395800I-50800J0D01*
G01*
X146225000Y-96395800D01*
G75*
G02*
X146174200Y-96345000I0J50800D01*
G01*
X146174200Y-90345000D01*
G75*
G02*
X146225000Y-90294200I50800J0D01*
G01*
G37*
G36*
G01*
X152956000Y-90294200D02*
X158956000Y-90294200D01*
G75*
G02*
X159006800Y-90345000I0J-50800D01*
G01*
X159006800Y-96345000D01*
G75*
G02*
X158956000Y-96395800I-50800J0D01*
G01*
X152956000Y-96395800D01*
G75*
G02*
X152905200Y-96345000I0J50800D01*
G01*
X152905200Y-90345000D01*
G75*
G02*
X152956000Y-90294200I50800J0D01*
G01*
G37*
D17*
X133604000Y-91567000D03*
X141224000Y-91567000D03*
X133604000Y-96647000D03*
X141224000Y-96647000D03*
X143764000Y-91567000D03*
G36*
G01*
X144814800Y-95647000D02*
X144814800Y-97647000D01*
G75*
G02*
X144764000Y-97697800I-50800J0D01*
G01*
X142764000Y-97697800D01*
G75*
G02*
X142713200Y-97647000I0J50800D01*
G01*
X142713200Y-95647000D01*
G75*
G02*
X142764000Y-95596200I50800J0D01*
G01*
X144764000Y-95596200D01*
G75*
G02*
X144814800Y-95647000I0J-50800D01*
G01*
G37*
D18*
G36*
X174529765Y-77232626D02*
G01*
X174530600Y-77234252D01*
X174530600Y-77282983D01*
X174530668Y-77283237D01*
X174530668Y-77286763D01*
X174530600Y-77286881D01*
X174530600Y-77335748D01*
X174529600Y-77337480D01*
X174527600Y-77337480D01*
X174526610Y-77335944D01*
X174526393Y-77333734D01*
X174525803Y-77331792D01*
X174524848Y-77330004D01*
X174523562Y-77328438D01*
X174521996Y-77327152D01*
X174520208Y-77326197D01*
X174518266Y-77325607D01*
X174516158Y-77325400D01*
X173717842Y-77325400D01*
X173715734Y-77325607D01*
X173713792Y-77326197D01*
X173712004Y-77327152D01*
X173710438Y-77328438D01*
X173709152Y-77330004D01*
X173708197Y-77331792D01*
X173707607Y-77333734D01*
X173707390Y-77335944D01*
X173706226Y-77337570D01*
X173704235Y-77337374D01*
X173703400Y-77335748D01*
X173703400Y-77287017D01*
X173703332Y-77286763D01*
X173703332Y-77283237D01*
X173703400Y-77283119D01*
X173703400Y-77234252D01*
X173704400Y-77232520D01*
X173706400Y-77232520D01*
X173707390Y-77234056D01*
X173707607Y-77236266D01*
X173708197Y-77238208D01*
X173709152Y-77239996D01*
X173710438Y-77241562D01*
X173712004Y-77242848D01*
X173713792Y-77243803D01*
X173715734Y-77244393D01*
X173717842Y-77244600D01*
X174516158Y-77244600D01*
X174518266Y-77244393D01*
X174520208Y-77243803D01*
X174521996Y-77242848D01*
X174523562Y-77241562D01*
X174524848Y-77239996D01*
X174525803Y-77238208D01*
X174526393Y-77236266D01*
X174526610Y-77234056D01*
X174527774Y-77232430D01*
X174529765Y-77232626D01*
G37*
G36*
X149988881Y-60165400D02*
G01*
X150037748Y-60165400D01*
X150039480Y-60166400D01*
X150039480Y-60168400D01*
X150037944Y-60169390D01*
X150035734Y-60169607D01*
X150033792Y-60170197D01*
X150032004Y-60171152D01*
X150030438Y-60172438D01*
X150029152Y-60174004D01*
X150028197Y-60175792D01*
X150027607Y-60177734D01*
X150027400Y-60179842D01*
X150027400Y-60978158D01*
X150027607Y-60980266D01*
X150028197Y-60982208D01*
X150029152Y-60983996D01*
X150030438Y-60985562D01*
X150032004Y-60986848D01*
X150033792Y-60987803D01*
X150035734Y-60988393D01*
X150037944Y-60988610D01*
X150039570Y-60989774D01*
X150039374Y-60991765D01*
X150037748Y-60992600D01*
X149989017Y-60992600D01*
X149988763Y-60992668D01*
X149985237Y-60992668D01*
X149985119Y-60992600D01*
X149936252Y-60992600D01*
X149934520Y-60991600D01*
X149934520Y-60989600D01*
X149936056Y-60988610D01*
X149938266Y-60988393D01*
X149940208Y-60987803D01*
X149941996Y-60986848D01*
X149943562Y-60985562D01*
X149944848Y-60983996D01*
X149945803Y-60982208D01*
X149946393Y-60980266D01*
X149946600Y-60978158D01*
X149946600Y-60179842D01*
X149946393Y-60177734D01*
X149945803Y-60175792D01*
X149944848Y-60174004D01*
X149943562Y-60172438D01*
X149941996Y-60171152D01*
X149940208Y-60170197D01*
X149938266Y-60169607D01*
X149936056Y-60169390D01*
X149934430Y-60168226D01*
X149934626Y-60166235D01*
X149936252Y-60165400D01*
X149984983Y-60165400D01*
X149985237Y-60165332D01*
X149988763Y-60165332D01*
X149988881Y-60165400D01*
G37*
G36*
X149988881Y-58895400D02*
G01*
X150037748Y-58895400D01*
X150039480Y-58896400D01*
X150039480Y-58898400D01*
X150037944Y-58899390D01*
X150035734Y-58899607D01*
X150033792Y-58900197D01*
X150032004Y-58901152D01*
X150030438Y-58902438D01*
X150029152Y-58904004D01*
X150028197Y-58905792D01*
X150027607Y-58907734D01*
X150027400Y-58909842D01*
X150027400Y-59708158D01*
X150027607Y-59710266D01*
X150028197Y-59712208D01*
X150029152Y-59713996D01*
X150030438Y-59715562D01*
X150032004Y-59716848D01*
X150033792Y-59717803D01*
X150035734Y-59718393D01*
X150037944Y-59718610D01*
X150039570Y-59719774D01*
X150039374Y-59721765D01*
X150037748Y-59722600D01*
X149989017Y-59722600D01*
X149988763Y-59722668D01*
X149985237Y-59722668D01*
X149985119Y-59722600D01*
X149936252Y-59722600D01*
X149934520Y-59721600D01*
X149934520Y-59719600D01*
X149936056Y-59718610D01*
X149938266Y-59718393D01*
X149940208Y-59717803D01*
X149941996Y-59716848D01*
X149943562Y-59715562D01*
X149944848Y-59713996D01*
X149945803Y-59712208D01*
X149946393Y-59710266D01*
X149946600Y-59708158D01*
X149946600Y-58909842D01*
X149946393Y-58907734D01*
X149945803Y-58905792D01*
X149944848Y-58904004D01*
X149943562Y-58902438D01*
X149941996Y-58901152D01*
X149940208Y-58900197D01*
X149938266Y-58899607D01*
X149936056Y-58899390D01*
X149934430Y-58898226D01*
X149934626Y-58896235D01*
X149936252Y-58895400D01*
X149984983Y-58895400D01*
X149985237Y-58895332D01*
X149988763Y-58895332D01*
X149988881Y-58895400D01*
G37*
M02*
