M48
; DRILL file {KiCad (5.1.5)-3} date 2020-05-07 10:18:42 AM
; FORMAT={-:-/ absolute / inch / decimal}
; #@! TF.CreationDate,2020-05-07T10:18:42-07:00
; #@! TF.GenerationSoftware,Kicad,Pcbnew,(5.1.5)-3
FMAT,2
INCH
T1C0.0315
T2C0.0394
T3C0.0400
T4C0.0701
%
G90
G05
T1
X3.8249Y-3.025
X3.8249Y-3.125
X3.8249Y-3.225
X3.8249Y-3.325
X3.8249Y-3.425
X3.8249Y-3.525
X3.8249Y-3.625
X3.8249Y-3.725
X3.8249Y-3.825
X3.8249Y-3.925
X3.8249Y-4.025
X3.8249Y-4.125
X3.8249Y-4.225
X3.8249Y-4.325
X3.8249Y-4.425
X4.4249Y-3.025
X4.4249Y-3.125
X4.4249Y-3.225
X4.4249Y-3.325
X4.4249Y-3.425
X4.4249Y-3.525
X4.4249Y-3.625
X4.4249Y-3.725
X4.4249Y-3.825
X4.4249Y-3.925
X4.4249Y-4.025
X4.4249Y-4.125
X4.4249Y-4.225
X4.4249Y-4.325
X4.4249Y-4.425
T2
X4.7436Y-2.845
X4.7436Y-2.945
X4.7436Y-3.045
X4.7436Y-3.145
X4.7436Y-3.245
X4.7436Y-3.345
X4.0219Y-4.0825
X4.0219Y-4.3825
X4.0219Y-4.4825
X4.2219Y-4.0825
X4.2219Y-4.3825
X4.2219Y-4.4825
X3.5248Y-4.0311
X3.5248Y-4.1311
X3.5248Y-4.2311
X3.5248Y-4.3311
X3.5248Y-4.4311
X3.5248Y-4.5311
X3.5248Y-4.6311
X3.5248Y-4.7311
T3
X4.0716Y-3.4411
X4.0716Y-3.5411
X4.0716Y-3.6411
X4.0716Y-3.7411
X4.1716Y-3.4411
X4.1716Y-3.5411
X4.1716Y-3.6411
X4.1716Y-3.7411
T4
X3.8249Y-2.925
X3.8249Y-4.525
X4.4249Y-2.925
X4.4249Y-4.525
T0
M30
