M48
; DRILL file {KiCad (5.1.5)-3} date 2020-05-28 10:51:22 AM
; FORMAT={-:-/ absolute / inch / decimal}
; #@! TF.CreationDate,2020-05-28T10:51:22-07:00
; #@! TF.GenerationSoftware,Kicad,Pcbnew,(5.1.5)-3
FMAT,2
INCH
T1C0.0394
T2C0.0400
T3C0.0472
T4C0.0591
T5C0.0669
T6C0.0819
T7C0.0866
%
G90
G05
T1
X8.13Y-3.22
X8.13Y-3.42
X8.23Y-3.22
X8.23Y-3.42
X8.53Y-3.22
X8.53Y-3.42
T2
X8.31Y-3.72
X8.31Y-3.82
X8.31Y-3.92
X8.31Y-4.02
X8.41Y-3.72
X8.41Y-3.82
X8.41Y-3.92
X8.41Y-4.02
T3
X8.1908Y-4.5452
X8.1908Y-4.9452
T4
X7.1668Y-2.4759
X7.1668Y-3.9916
X7.4817Y-2.4759
X7.59Y-3.9916
T5
X8.2006Y-3.0377
X8.4506Y-2.6637
T6
X7.6908Y-4.3952
T7
X7.2908Y-5.0952
X7.5908Y-5.0952
T0
M30
