G04 #@! TF.GenerationSoftware,KiCad,Pcbnew,(5.1.9)-1*
G04 #@! TF.CreationDate,2021-01-04T11:02:08-08:00*
G04 #@! TF.ProjectId,Plug_Pass,506c7567-5f50-4617-9373-2e6b69636164,v3.1*
G04 #@! TF.SameCoordinates,Original*
G04 #@! TF.FileFunction,Other,Fab,Bot*
%FSLAX46Y46*%
G04 Gerber Fmt 4.6, Leading zero omitted, Abs format (unit mm)*
G04 Created by KiCad (PCBNEW (5.1.9)-1) date 2021-01-04 11:02:08*
%MOMM*%
%LPD*%
G01*
G04 APERTURE LIST*
%ADD10C,0.100000*%
%ADD11C,0.050000*%
%ADD12C,0.025000*%
%ADD13C,0.200000*%
%ADD14C,0.010000*%
%ADD15C,0.120000*%
%ADD16C,0.150000*%
%ADD17C,0.038608*%
G04 APERTURE END LIST*
D10*
X170662000Y-85914000D02*
X171662000Y-84914000D01*
X171662000Y-61914000D02*
X171662000Y-84914000D01*
X134662000Y-61914000D02*
X171662000Y-61914000D01*
X134662000Y-85914000D02*
X134662000Y-61914000D01*
X170662000Y-85914000D02*
X134662000Y-85914000D01*
D11*
X171801000Y-91847000D02*
X171801000Y-92557000D01*
X171591000Y-91847000D02*
X171801000Y-91847000D01*
X171591000Y-92557000D02*
X171591000Y-91847000D01*
X171801000Y-92557000D02*
X171591000Y-92557000D01*
D12*
X171814000Y-91834000D02*
X171814000Y-92569000D01*
X171579000Y-91834000D02*
X171814000Y-91834000D01*
X171579000Y-92569000D02*
X171579000Y-91834000D01*
X171814000Y-92569000D02*
X171579000Y-92569000D01*
X171826000Y-91822000D02*
X171826000Y-92582000D01*
X171566000Y-91822000D02*
X171826000Y-91822000D01*
X171566000Y-92582000D02*
X171566000Y-91822000D01*
X171826000Y-92582000D02*
X171566000Y-92582000D01*
X171996000Y-91802000D02*
X171996000Y-92602000D01*
X170396000Y-91802000D02*
X171996000Y-91802000D01*
X170396000Y-92602000D02*
X170396000Y-91802000D01*
X171996000Y-92602000D02*
X170396000Y-92602000D01*
D10*
X171776000Y-91872000D02*
X171776000Y-92532000D01*
X171616000Y-91872000D02*
X171776000Y-91872000D01*
X171616000Y-92532000D02*
X171616000Y-91872000D01*
X171776000Y-92532000D02*
X171616000Y-92532000D01*
D13*
X171726000Y-91922000D02*
X171726000Y-92482000D01*
X171666000Y-91922000D02*
X171726000Y-91922000D01*
X171666000Y-92482000D02*
X171666000Y-91922000D01*
X171726000Y-92482000D02*
X171666000Y-92482000D01*
D14*
X171836000Y-91812000D02*
X171836000Y-92592000D01*
X171556000Y-91812000D02*
X171836000Y-91812000D01*
X171556000Y-92592000D02*
X171556000Y-91812000D01*
X171836000Y-92592000D02*
X171556000Y-92592000D01*
X171841000Y-91807000D02*
X171841000Y-92597000D01*
X171551000Y-91807000D02*
X171841000Y-91807000D01*
X171551000Y-92597000D02*
X171551000Y-91807000D01*
X171841000Y-92597000D02*
X171551000Y-92597000D01*
D11*
X171801000Y-90069000D02*
X171801000Y-90779000D01*
X171591000Y-90069000D02*
X171801000Y-90069000D01*
X171591000Y-90779000D02*
X171591000Y-90069000D01*
X171801000Y-90779000D02*
X171591000Y-90779000D01*
D12*
X171814000Y-90056000D02*
X171814000Y-90791000D01*
X171579000Y-90056000D02*
X171814000Y-90056000D01*
X171579000Y-90791000D02*
X171579000Y-90056000D01*
X171814000Y-90791000D02*
X171579000Y-90791000D01*
X171826000Y-90044000D02*
X171826000Y-90804000D01*
X171566000Y-90044000D02*
X171826000Y-90044000D01*
X171566000Y-90804000D02*
X171566000Y-90044000D01*
X171826000Y-90804000D02*
X171566000Y-90804000D01*
X171996000Y-90024000D02*
X171996000Y-90824000D01*
X170396000Y-90024000D02*
X171996000Y-90024000D01*
X170396000Y-90824000D02*
X170396000Y-90024000D01*
X171996000Y-90824000D02*
X170396000Y-90824000D01*
D10*
X171776000Y-90094000D02*
X171776000Y-90754000D01*
X171616000Y-90094000D02*
X171776000Y-90094000D01*
X171616000Y-90754000D02*
X171616000Y-90094000D01*
X171776000Y-90754000D02*
X171616000Y-90754000D01*
D13*
X171726000Y-90144000D02*
X171726000Y-90704000D01*
X171666000Y-90144000D02*
X171726000Y-90144000D01*
X171666000Y-90704000D02*
X171666000Y-90144000D01*
X171726000Y-90704000D02*
X171666000Y-90704000D01*
D14*
X171836000Y-90034000D02*
X171836000Y-90814000D01*
X171556000Y-90034000D02*
X171836000Y-90034000D01*
X171556000Y-90814000D02*
X171556000Y-90034000D01*
X171836000Y-90814000D02*
X171556000Y-90814000D01*
X171841000Y-90029000D02*
X171841000Y-90819000D01*
X171551000Y-90029000D02*
X171841000Y-90029000D01*
X171551000Y-90819000D02*
X171551000Y-90029000D01*
X171841000Y-90819000D02*
X171551000Y-90819000D01*
D12*
X149487000Y-59559000D02*
X149487000Y-59059000D01*
X150487000Y-59559000D02*
X149487000Y-59559000D01*
X150487000Y-59059000D02*
X150487000Y-59559000D01*
X149487000Y-59059000D02*
X150487000Y-59059000D01*
D11*
X153640000Y-59335000D02*
X153640000Y-60045000D01*
X153430000Y-59335000D02*
X153640000Y-59335000D01*
X153430000Y-60045000D02*
X153430000Y-59335000D01*
X153640000Y-60045000D02*
X153430000Y-60045000D01*
D12*
X153653000Y-59322000D02*
X153653000Y-60057000D01*
X153418000Y-59322000D02*
X153653000Y-59322000D01*
X153418000Y-60057000D02*
X153418000Y-59322000D01*
X153653000Y-60057000D02*
X153418000Y-60057000D01*
X153665000Y-59310000D02*
X153665000Y-60070000D01*
X153405000Y-59310000D02*
X153665000Y-59310000D01*
X153405000Y-60070000D02*
X153405000Y-59310000D01*
X153665000Y-60070000D02*
X153405000Y-60070000D01*
X153835000Y-59290000D02*
X153835000Y-60090000D01*
X152235000Y-59290000D02*
X153835000Y-59290000D01*
X152235000Y-60090000D02*
X152235000Y-59290000D01*
X153835000Y-60090000D02*
X152235000Y-60090000D01*
D10*
X153615000Y-59360000D02*
X153615000Y-60020000D01*
X153455000Y-59360000D02*
X153615000Y-59360000D01*
X153455000Y-60020000D02*
X153455000Y-59360000D01*
X153615000Y-60020000D02*
X153455000Y-60020000D01*
D13*
X153565000Y-59410000D02*
X153565000Y-59970000D01*
X153505000Y-59410000D02*
X153565000Y-59410000D01*
X153505000Y-59970000D02*
X153505000Y-59410000D01*
X153565000Y-59970000D02*
X153505000Y-59970000D01*
D14*
X153675000Y-59300000D02*
X153675000Y-60080000D01*
X153395000Y-59300000D02*
X153675000Y-59300000D01*
X153395000Y-60080000D02*
X153395000Y-59300000D01*
X153675000Y-60080000D02*
X153395000Y-60080000D01*
X153680000Y-59295000D02*
X153680000Y-60085000D01*
X153390000Y-59295000D02*
X153680000Y-59295000D01*
X153390000Y-60085000D02*
X153390000Y-59295000D01*
X153680000Y-60085000D02*
X153390000Y-60085000D01*
D12*
X173867000Y-76785000D02*
X174367000Y-76785000D01*
X173867000Y-77785000D02*
X173867000Y-76785000D01*
X174367000Y-77785000D02*
X173867000Y-77785000D01*
X174367000Y-76785000D02*
X174367000Y-77785000D01*
X149487000Y-60829000D02*
X149487000Y-60329000D01*
X150487000Y-60829000D02*
X149487000Y-60829000D01*
X150487000Y-60329000D02*
X150487000Y-60829000D01*
X149487000Y-60329000D02*
X150487000Y-60329000D01*
D15*
X169365200Y-126161800D02*
X169365200Y-98731800D01*
X136855200Y-126161800D02*
X136855200Y-98731800D01*
X136855200Y-98731800D02*
X169365200Y-98731800D01*
X136855200Y-126161800D02*
X169365200Y-126161800D01*
D10*
X145014000Y-90397000D02*
X132514000Y-90397000D01*
X132514000Y-97897000D02*
X132514000Y-90397000D01*
X145014000Y-97672000D02*
X144789000Y-97897000D01*
X144789000Y-97897000D02*
X132514000Y-97897000D01*
X145014000Y-97672000D02*
X145014000Y-90397000D01*
D16*
X153614380Y-72699714D02*
X152614380Y-72699714D01*
X152614380Y-73080666D01*
X152662000Y-73175904D01*
X152709619Y-73223523D01*
X152804857Y-73271142D01*
X152947714Y-73271142D01*
X153042952Y-73223523D01*
X153090571Y-73175904D01*
X153138190Y-73080666D01*
X153138190Y-72699714D01*
X153566761Y-73652095D02*
X153614380Y-73794952D01*
X153614380Y-74033047D01*
X153566761Y-74128285D01*
X153519142Y-74175904D01*
X153423904Y-74223523D01*
X153328666Y-74223523D01*
X153233428Y-74175904D01*
X153185809Y-74128285D01*
X153138190Y-74033047D01*
X153090571Y-73842571D01*
X153042952Y-73747333D01*
X152995333Y-73699714D01*
X152900095Y-73652095D01*
X152804857Y-73652095D01*
X152709619Y-73699714D01*
X152662000Y-73747333D01*
X152614380Y-73842571D01*
X152614380Y-74080666D01*
X152662000Y-74223523D01*
X153614380Y-75175904D02*
X153614380Y-74604476D01*
X153614380Y-74890190D02*
X152614380Y-74890190D01*
X152757238Y-74794952D01*
X152852476Y-74699714D01*
X152900095Y-74604476D01*
D17*
X175204845Y-77114636D02*
X175223230Y-77096251D01*
X175241615Y-77041097D01*
X175241615Y-77004327D01*
X175223230Y-76949173D01*
X175186460Y-76912403D01*
X175149691Y-76894019D01*
X175076152Y-76875634D01*
X175020998Y-76875634D01*
X174947459Y-76894019D01*
X174910689Y-76912403D01*
X174873920Y-76949173D01*
X174855535Y-77004327D01*
X174855535Y-77041097D01*
X174873920Y-77096251D01*
X174892304Y-77114636D01*
X174855535Y-77243329D02*
X174855535Y-77482331D01*
X175002613Y-77353638D01*
X175002613Y-77408792D01*
X175020998Y-77445561D01*
X175039382Y-77463946D01*
X175076152Y-77482331D01*
X175168076Y-77482331D01*
X175204845Y-77463946D01*
X175223230Y-77445561D01*
X175241615Y-77408792D01*
X175241615Y-77298483D01*
X175223230Y-77261714D01*
X175204845Y-77243329D01*
X174855535Y-77721333D02*
X174855535Y-77758102D01*
X174873920Y-77794872D01*
X174892304Y-77813257D01*
X174929074Y-77831641D01*
X175002613Y-77850026D01*
X175094537Y-77850026D01*
X175168076Y-77831641D01*
X175204845Y-77813257D01*
X175223230Y-77794872D01*
X175241615Y-77758102D01*
X175241615Y-77721333D01*
X175223230Y-77684563D01*
X175204845Y-77666179D01*
X175168076Y-77647794D01*
X175094537Y-77629409D01*
X175002613Y-77629409D01*
X174929074Y-77647794D01*
X174892304Y-77666179D01*
X174873920Y-77684563D01*
X174855535Y-77721333D01*
X148661845Y-60379975D02*
X148680230Y-60361590D01*
X148698615Y-60306436D01*
X148698615Y-60269666D01*
X148680230Y-60214512D01*
X148643460Y-60177742D01*
X148606691Y-60159358D01*
X148533152Y-60140973D01*
X148477998Y-60140973D01*
X148404459Y-60159358D01*
X148367689Y-60177742D01*
X148330920Y-60214512D01*
X148312535Y-60269666D01*
X148312535Y-60306436D01*
X148330920Y-60361590D01*
X148349304Y-60379975D01*
X148312535Y-60508668D02*
X148312535Y-60747670D01*
X148459613Y-60618977D01*
X148459613Y-60674131D01*
X148477998Y-60710900D01*
X148496382Y-60729285D01*
X148533152Y-60747670D01*
X148625076Y-60747670D01*
X148661845Y-60729285D01*
X148680230Y-60710900D01*
X148698615Y-60674131D01*
X148698615Y-60563822D01*
X148680230Y-60527053D01*
X148661845Y-60508668D01*
X148349304Y-60894748D02*
X148330920Y-60913133D01*
X148312535Y-60949902D01*
X148312535Y-61041826D01*
X148330920Y-61078596D01*
X148349304Y-61096980D01*
X148386074Y-61115365D01*
X148422843Y-61115365D01*
X148477998Y-61096980D01*
X148698615Y-60876363D01*
X148698615Y-61115365D01*
D16*
X131897380Y-90821000D02*
X131421190Y-90487666D01*
X131897380Y-90249571D02*
X130897380Y-90249571D01*
X130897380Y-90630523D01*
X130945000Y-90725761D01*
X130992619Y-90773380D01*
X131087857Y-90821000D01*
X131230714Y-90821000D01*
X131325952Y-90773380D01*
X131373571Y-90725761D01*
X131421190Y-90630523D01*
X131421190Y-90249571D01*
X131897380Y-91725761D02*
X131897380Y-91249571D01*
X130897380Y-91249571D01*
X131421190Y-92249571D02*
X131897380Y-92249571D01*
X130897380Y-91916238D02*
X131421190Y-92249571D01*
X130897380Y-92582904D01*
X130992619Y-92868619D02*
X130945000Y-92916238D01*
X130897380Y-93011476D01*
X130897380Y-93249571D01*
X130945000Y-93344809D01*
X130992619Y-93392428D01*
X131087857Y-93440047D01*
X131183095Y-93440047D01*
X131325952Y-93392428D01*
X131897380Y-92821000D01*
X131897380Y-93440047D01*
M02*
