G04 #@! TF.GenerationSoftware,KiCad,Pcbnew,(5.1.5)-3*
G04 #@! TF.CreationDate,2020-09-30T13:58:30-07:00*
G04 #@! TF.ProjectId,Plug_Pass,506c7567-5f50-4617-9373-2e6b69636164,v2.2*
G04 #@! TF.SameCoordinates,Original*
G04 #@! TF.FileFunction,Legend,Bot*
G04 #@! TF.FilePolarity,Positive*
%FSLAX46Y46*%
G04 Gerber Fmt 4.6, Leading zero omitted, Abs format (unit mm)*
G04 Created by KiCad (PCBNEW (5.1.5)-3) date 2020-09-30 13:58:30*
%MOMM*%
%LPD*%
G04 APERTURE LIST*
%ADD10C,0.150000*%
%ADD11C,0.120000*%
%ADD12C,0.200000*%
%ADD13C,0.127000*%
%ADD14C,0.250000*%
%ADD15C,0.100000*%
%ADD16C,0.015000*%
G04 APERTURE END LIST*
D10*
X165701714Y-56428142D02*
X165749333Y-56475761D01*
X165892190Y-56523380D01*
X165987428Y-56523380D01*
X166130285Y-56475761D01*
X166225523Y-56380523D01*
X166273142Y-56285285D01*
X166320761Y-56094809D01*
X166320761Y-55951952D01*
X166273142Y-55761476D01*
X166225523Y-55666238D01*
X166130285Y-55571000D01*
X165987428Y-55523380D01*
X165892190Y-55523380D01*
X165749333Y-55571000D01*
X165701714Y-55618619D01*
X165130285Y-56523380D02*
X165225523Y-56475761D01*
X165273142Y-56380523D01*
X165273142Y-55523380D01*
X164320761Y-56523380D02*
X164320761Y-55999571D01*
X164368380Y-55904333D01*
X164463619Y-55856714D01*
X164654095Y-55856714D01*
X164749333Y-55904333D01*
X164320761Y-56475761D02*
X164416000Y-56523380D01*
X164654095Y-56523380D01*
X164749333Y-56475761D01*
X164796952Y-56380523D01*
X164796952Y-56285285D01*
X164749333Y-56190047D01*
X164654095Y-56142428D01*
X164416000Y-56142428D01*
X164320761Y-56094809D01*
X163987428Y-55856714D02*
X163606476Y-55856714D01*
X163844571Y-55523380D02*
X163844571Y-56380523D01*
X163796952Y-56475761D01*
X163701714Y-56523380D01*
X163606476Y-56523380D01*
X163320761Y-56475761D02*
X163225523Y-56523380D01*
X163035047Y-56523380D01*
X162939809Y-56475761D01*
X162892190Y-56380523D01*
X162892190Y-56332904D01*
X162939809Y-56237666D01*
X163035047Y-56190047D01*
X163177904Y-56190047D01*
X163273142Y-56142428D01*
X163320761Y-56047190D01*
X163320761Y-55999571D01*
X163273142Y-55904333D01*
X163177904Y-55856714D01*
X163035047Y-55856714D01*
X162939809Y-55904333D01*
X162463619Y-56523380D02*
X162463619Y-55523380D01*
X162368380Y-56142428D02*
X162082666Y-56523380D01*
X162082666Y-55856714D02*
X162463619Y-56237666D01*
X161225523Y-56523380D02*
X161225523Y-55999571D01*
X161273142Y-55904333D01*
X161368380Y-55856714D01*
X161558857Y-55856714D01*
X161654095Y-55904333D01*
X161225523Y-56475761D02*
X161320761Y-56523380D01*
X161558857Y-56523380D01*
X161654095Y-56475761D01*
X161701714Y-56380523D01*
X161701714Y-56285285D01*
X161654095Y-56190047D01*
X161558857Y-56142428D01*
X161320761Y-56142428D01*
X161225523Y-56094809D01*
X160749333Y-55856714D02*
X160749333Y-56523380D01*
X160749333Y-55951952D02*
X160701714Y-55904333D01*
X160606476Y-55856714D01*
X160463619Y-55856714D01*
X160368380Y-55904333D01*
X160320761Y-55999571D01*
X160320761Y-56523380D01*
X159844571Y-56523380D02*
X159844571Y-55856714D01*
X159844571Y-55523380D02*
X159892190Y-55571000D01*
X159844571Y-55618619D01*
X159796952Y-55571000D01*
X159844571Y-55523380D01*
X159844571Y-55618619D01*
X158987428Y-56475761D02*
X159082666Y-56523380D01*
X159273142Y-56523380D01*
X159368380Y-56475761D01*
X159416000Y-56380523D01*
X159416000Y-55999571D01*
X159368380Y-55904333D01*
X159273142Y-55856714D01*
X159082666Y-55856714D01*
X158987428Y-55904333D01*
X158939809Y-55999571D01*
X158939809Y-56094809D01*
X159416000Y-56190047D01*
X157749333Y-56523380D02*
X157749333Y-55523380D01*
X157368380Y-55523380D01*
X157273142Y-55571000D01*
X157225523Y-55618619D01*
X157177904Y-55713857D01*
X157177904Y-55856714D01*
X157225523Y-55951952D01*
X157273142Y-55999571D01*
X157368380Y-56047190D01*
X157749333Y-56047190D01*
X156368380Y-56475761D02*
X156463619Y-56523380D01*
X156654095Y-56523380D01*
X156749333Y-56475761D01*
X156796952Y-56380523D01*
X156796952Y-55999571D01*
X156749333Y-55904333D01*
X156654095Y-55856714D01*
X156463619Y-55856714D01*
X156368380Y-55904333D01*
X156320761Y-55999571D01*
X156320761Y-56094809D01*
X156796952Y-56190047D01*
X155749333Y-56523380D02*
X155844571Y-56475761D01*
X155892190Y-56428142D01*
X155939809Y-56332904D01*
X155939809Y-56047190D01*
X155892190Y-55951952D01*
X155844571Y-55904333D01*
X155749333Y-55856714D01*
X155606476Y-55856714D01*
X155511238Y-55904333D01*
X155463619Y-55951952D01*
X155416000Y-56047190D01*
X155416000Y-56332904D01*
X155463619Y-56428142D01*
X155511238Y-56475761D01*
X155606476Y-56523380D01*
X155749333Y-56523380D01*
X154987428Y-55856714D02*
X154987428Y-56856714D01*
X154987428Y-55904333D02*
X154892190Y-55856714D01*
X154701714Y-55856714D01*
X154606476Y-55904333D01*
X154558857Y-55951952D01*
X154511238Y-56047190D01*
X154511238Y-56332904D01*
X154558857Y-56428142D01*
X154606476Y-56475761D01*
X154701714Y-56523380D01*
X154892190Y-56523380D01*
X154987428Y-56475761D01*
X153939809Y-56523380D02*
X154035047Y-56475761D01*
X154082666Y-56380523D01*
X154082666Y-55523380D01*
X153177904Y-56475761D02*
X153273142Y-56523380D01*
X153463619Y-56523380D01*
X153558857Y-56475761D01*
X153606476Y-56380523D01*
X153606476Y-55999571D01*
X153558857Y-55904333D01*
X153463619Y-55856714D01*
X153273142Y-55856714D01*
X153177904Y-55904333D01*
X153130285Y-55999571D01*
X153130285Y-56094809D01*
X153606476Y-56190047D01*
X152654095Y-55523380D02*
X152749333Y-55713857D01*
X152273142Y-56475761D02*
X152177904Y-56523380D01*
X151987428Y-56523380D01*
X151892190Y-56475761D01*
X151844571Y-56380523D01*
X151844571Y-56332904D01*
X151892190Y-56237666D01*
X151987428Y-56190047D01*
X152130285Y-56190047D01*
X152225523Y-56142428D01*
X152273142Y-56047190D01*
X152273142Y-55999571D01*
X152225523Y-55904333D01*
X152130285Y-55856714D01*
X151987428Y-55856714D01*
X151892190Y-55904333D01*
X150654095Y-55523380D02*
X150654095Y-56332904D01*
X150606476Y-56428142D01*
X150558857Y-56475761D01*
X150463619Y-56523380D01*
X150273142Y-56523380D01*
X150177904Y-56475761D01*
X150130285Y-56428142D01*
X150082666Y-56332904D01*
X150082666Y-55523380D01*
X149749333Y-55856714D02*
X149368380Y-55856714D01*
X149606476Y-55523380D02*
X149606476Y-56380523D01*
X149558857Y-56475761D01*
X149463619Y-56523380D01*
X149368380Y-56523380D01*
X149035047Y-56523380D02*
X149035047Y-55856714D01*
X149035047Y-55523380D02*
X149082666Y-55571000D01*
X149035047Y-55618619D01*
X148987428Y-55571000D01*
X149035047Y-55523380D01*
X149035047Y-55618619D01*
X148416000Y-56523380D02*
X148511238Y-56475761D01*
X148558857Y-56380523D01*
X148558857Y-55523380D01*
X148035047Y-56523380D02*
X148035047Y-55856714D01*
X148035047Y-55523380D02*
X148082666Y-55571000D01*
X148035047Y-55618619D01*
X147987428Y-55571000D01*
X148035047Y-55523380D01*
X148035047Y-55618619D01*
X147701714Y-55856714D02*
X147320761Y-55856714D01*
X147558857Y-55523380D02*
X147558857Y-56380523D01*
X147511238Y-56475761D01*
X147416000Y-56523380D01*
X147320761Y-56523380D01*
X147082666Y-55856714D02*
X146844571Y-56523380D01*
X146606476Y-55856714D02*
X146844571Y-56523380D01*
X146939809Y-56761476D01*
X146987428Y-56809095D01*
X147082666Y-56856714D01*
X145463619Y-56523380D02*
X145463619Y-55523380D01*
X145225523Y-55523380D01*
X145082666Y-55571000D01*
X144987428Y-55666238D01*
X144939809Y-55761476D01*
X144892190Y-55951952D01*
X144892190Y-56094809D01*
X144939809Y-56285285D01*
X144987428Y-56380523D01*
X145082666Y-56475761D01*
X145225523Y-56523380D01*
X145463619Y-56523380D01*
X144463619Y-56523380D02*
X144463619Y-55856714D01*
X144463619Y-55523380D02*
X144511238Y-55571000D01*
X144463619Y-55618619D01*
X144416000Y-55571000D01*
X144463619Y-55523380D01*
X144463619Y-55618619D01*
X144035047Y-56475761D02*
X143939809Y-56523380D01*
X143749333Y-56523380D01*
X143654095Y-56475761D01*
X143606476Y-56380523D01*
X143606476Y-56332904D01*
X143654095Y-56237666D01*
X143749333Y-56190047D01*
X143892190Y-56190047D01*
X143987428Y-56142428D01*
X144035047Y-56047190D01*
X144035047Y-55999571D01*
X143987428Y-55904333D01*
X143892190Y-55856714D01*
X143749333Y-55856714D01*
X143654095Y-55904333D01*
X143320761Y-55856714D02*
X142939809Y-55856714D01*
X143177904Y-55523380D02*
X143177904Y-56380523D01*
X143130285Y-56475761D01*
X143035047Y-56523380D01*
X142939809Y-56523380D01*
X142606476Y-56523380D02*
X142606476Y-55856714D01*
X142606476Y-56047190D02*
X142558857Y-55951952D01*
X142511238Y-55904333D01*
X142416000Y-55856714D01*
X142320761Y-55856714D01*
X141987428Y-56523380D02*
X141987428Y-55856714D01*
X141987428Y-55523380D02*
X142035047Y-55571000D01*
X141987428Y-55618619D01*
X141939809Y-55571000D01*
X141987428Y-55523380D01*
X141987428Y-55618619D01*
X141082666Y-56475761D02*
X141177904Y-56523380D01*
X141368380Y-56523380D01*
X141463619Y-56475761D01*
X141511238Y-56428142D01*
X141558857Y-56332904D01*
X141558857Y-56047190D01*
X141511238Y-55951952D01*
X141463619Y-55904333D01*
X141368380Y-55856714D01*
X141177904Y-55856714D01*
X141082666Y-55904333D01*
X140796952Y-55856714D02*
X140416000Y-55856714D01*
X140654095Y-55523380D02*
X140654095Y-56380523D01*
X140606476Y-56475761D01*
X140511238Y-56523380D01*
X140416000Y-56523380D01*
X164963619Y-58173380D02*
X164963619Y-57173380D01*
X164582666Y-57173380D01*
X164487428Y-57221000D01*
X164439809Y-57268619D01*
X164392190Y-57363857D01*
X164392190Y-57506714D01*
X164439809Y-57601952D01*
X164487428Y-57649571D01*
X164582666Y-57697190D01*
X164963619Y-57697190D01*
X163820761Y-58173380D02*
X163916000Y-58125761D01*
X163963619Y-58030523D01*
X163963619Y-57173380D01*
X163011238Y-57506714D02*
X163011238Y-58173380D01*
X163439809Y-57506714D02*
X163439809Y-58030523D01*
X163392190Y-58125761D01*
X163296952Y-58173380D01*
X163154095Y-58173380D01*
X163058857Y-58125761D01*
X163011238Y-58078142D01*
X162106476Y-57506714D02*
X162106476Y-58316238D01*
X162154095Y-58411476D01*
X162201714Y-58459095D01*
X162296952Y-58506714D01*
X162439809Y-58506714D01*
X162535047Y-58459095D01*
X162106476Y-58125761D02*
X162201714Y-58173380D01*
X162392190Y-58173380D01*
X162487428Y-58125761D01*
X162535047Y-58078142D01*
X162582666Y-57982904D01*
X162582666Y-57697190D01*
X162535047Y-57601952D01*
X162487428Y-57554333D01*
X162392190Y-57506714D01*
X162201714Y-57506714D01*
X162106476Y-57554333D01*
X160868380Y-58173380D02*
X160868380Y-57173380D01*
X160487428Y-57173380D01*
X160392190Y-57221000D01*
X160344571Y-57268619D01*
X160296952Y-57363857D01*
X160296952Y-57506714D01*
X160344571Y-57601952D01*
X160392190Y-57649571D01*
X160487428Y-57697190D01*
X160868380Y-57697190D01*
X159439809Y-58173380D02*
X159439809Y-57649571D01*
X159487428Y-57554333D01*
X159582666Y-57506714D01*
X159773142Y-57506714D01*
X159868380Y-57554333D01*
X159439809Y-58125761D02*
X159535047Y-58173380D01*
X159773142Y-58173380D01*
X159868380Y-58125761D01*
X159916000Y-58030523D01*
X159916000Y-57935285D01*
X159868380Y-57840047D01*
X159773142Y-57792428D01*
X159535047Y-57792428D01*
X159439809Y-57744809D01*
X159011238Y-58125761D02*
X158916000Y-58173380D01*
X158725523Y-58173380D01*
X158630285Y-58125761D01*
X158582666Y-58030523D01*
X158582666Y-57982904D01*
X158630285Y-57887666D01*
X158725523Y-57840047D01*
X158868380Y-57840047D01*
X158963619Y-57792428D01*
X159011238Y-57697190D01*
X159011238Y-57649571D01*
X158963619Y-57554333D01*
X158868380Y-57506714D01*
X158725523Y-57506714D01*
X158630285Y-57554333D01*
X158201714Y-58125761D02*
X158106476Y-58173380D01*
X157916000Y-58173380D01*
X157820761Y-58125761D01*
X157773142Y-58030523D01*
X157773142Y-57982904D01*
X157820761Y-57887666D01*
X157916000Y-57840047D01*
X158058857Y-57840047D01*
X158154095Y-57792428D01*
X158201714Y-57697190D01*
X158201714Y-57649571D01*
X158154095Y-57554333D01*
X158058857Y-57506714D01*
X157916000Y-57506714D01*
X157820761Y-57554333D01*
X156582666Y-57792428D02*
X155820761Y-57792428D01*
X154058857Y-58173380D02*
X154630285Y-58173380D01*
X154344571Y-58173380D02*
X154344571Y-57173380D01*
X154439809Y-57316238D01*
X154535047Y-57411476D01*
X154630285Y-57459095D01*
X153677904Y-57268619D02*
X153630285Y-57221000D01*
X153535047Y-57173380D01*
X153296952Y-57173380D01*
X153201714Y-57221000D01*
X153154095Y-57268619D01*
X153106476Y-57363857D01*
X153106476Y-57459095D01*
X153154095Y-57601952D01*
X153725523Y-58173380D01*
X153106476Y-58173380D01*
X152487428Y-57173380D02*
X152392190Y-57173380D01*
X152296952Y-57221000D01*
X152249333Y-57268619D01*
X152201714Y-57363857D01*
X152154095Y-57554333D01*
X152154095Y-57792428D01*
X152201714Y-57982904D01*
X152249333Y-58078142D01*
X152296952Y-58125761D01*
X152392190Y-58173380D01*
X152487428Y-58173380D01*
X152582666Y-58125761D01*
X152630285Y-58078142D01*
X152677904Y-57982904D01*
X152725523Y-57792428D01*
X152725523Y-57554333D01*
X152677904Y-57363857D01*
X152630285Y-57268619D01*
X152582666Y-57221000D01*
X152487428Y-57173380D01*
X151868380Y-57173380D02*
X151535047Y-58173380D01*
X151201714Y-57173380D01*
X150154095Y-58125761D02*
X150011238Y-58173380D01*
X149773142Y-58173380D01*
X149677904Y-58125761D01*
X149630285Y-58078142D01*
X149582666Y-57982904D01*
X149582666Y-57887666D01*
X149630285Y-57792428D01*
X149677904Y-57744809D01*
X149773142Y-57697190D01*
X149963619Y-57649571D01*
X150058857Y-57601952D01*
X150106476Y-57554333D01*
X150154095Y-57459095D01*
X150154095Y-57363857D01*
X150106476Y-57268619D01*
X150058857Y-57221000D01*
X149963619Y-57173380D01*
X149725523Y-57173380D01*
X149582666Y-57221000D01*
X149249333Y-57506714D02*
X149058857Y-58173380D01*
X148868380Y-57697190D01*
X148677904Y-58173380D01*
X148487428Y-57506714D01*
X148106476Y-58173380D02*
X148106476Y-57506714D01*
X148106476Y-57173380D02*
X148154095Y-57221000D01*
X148106476Y-57268619D01*
X148058857Y-57221000D01*
X148106476Y-57173380D01*
X148106476Y-57268619D01*
X147773142Y-57506714D02*
X147392190Y-57506714D01*
X147630285Y-57173380D02*
X147630285Y-58030523D01*
X147582666Y-58125761D01*
X147487428Y-58173380D01*
X147392190Y-58173380D01*
X146630285Y-58125761D02*
X146725523Y-58173380D01*
X146916000Y-58173380D01*
X147011238Y-58125761D01*
X147058857Y-58078142D01*
X147106476Y-57982904D01*
X147106476Y-57697190D01*
X147058857Y-57601952D01*
X147011238Y-57554333D01*
X146916000Y-57506714D01*
X146725523Y-57506714D01*
X146630285Y-57554333D01*
X146201714Y-58173380D02*
X146201714Y-57173380D01*
X145773142Y-58173380D02*
X145773142Y-57649571D01*
X145820761Y-57554333D01*
X145916000Y-57506714D01*
X146058857Y-57506714D01*
X146154095Y-57554333D01*
X146201714Y-57601952D01*
X144630285Y-57506714D02*
X144392190Y-58173380D01*
X144154095Y-57506714D01*
X143868380Y-57173380D02*
X143249333Y-57173380D01*
X143582666Y-57554333D01*
X143439809Y-57554333D01*
X143344571Y-57601952D01*
X143296952Y-57649571D01*
X143249333Y-57744809D01*
X143249333Y-57982904D01*
X143296952Y-58078142D01*
X143344571Y-58125761D01*
X143439809Y-58173380D01*
X143725523Y-58173380D01*
X143820761Y-58125761D01*
X143868380Y-58078142D01*
X142820761Y-58078142D02*
X142773142Y-58125761D01*
X142820761Y-58173380D01*
X142868380Y-58125761D01*
X142820761Y-58078142D01*
X142820761Y-58173380D01*
X142154095Y-57173380D02*
X142058857Y-57173380D01*
X141963619Y-57221000D01*
X141916000Y-57268619D01*
X141868380Y-57363857D01*
X141820761Y-57554333D01*
X141820761Y-57792428D01*
X141868380Y-57982904D01*
X141916000Y-58078142D01*
X141963619Y-58125761D01*
X142058857Y-58173380D01*
X142154095Y-58173380D01*
X142249333Y-58125761D01*
X142296952Y-58078142D01*
X142344571Y-57982904D01*
X142392190Y-57792428D01*
X142392190Y-57554333D01*
X142344571Y-57363857D01*
X142296952Y-57268619D01*
X142249333Y-57221000D01*
X142154095Y-57173380D01*
D11*
X172544000Y-86288000D02*
X172544000Y-62048000D01*
X135304000Y-86288000D02*
X172544000Y-86288000D01*
X135304000Y-62048000D02*
X135304000Y-86288000D01*
X172544000Y-62048000D02*
X135304000Y-62048000D01*
D12*
X165865000Y-120412000D02*
G75*
G03X165865000Y-120412000I-100000J0D01*
G01*
D13*
X160465000Y-124062000D02*
X163045000Y-124062000D01*
X160465000Y-122282000D02*
X160465000Y-124062000D01*
X168465000Y-124062000D02*
X165885000Y-124062000D01*
X168465000Y-122282000D02*
X168465000Y-124062000D01*
D14*
X172643800Y-118057200D02*
X140133800Y-118057200D01*
X172643800Y-90627200D02*
X140133800Y-90627200D01*
D15*
X139471000Y-90733000D02*
X139021000Y-90733000D01*
X139471000Y-91358000D02*
X139471000Y-90733000D01*
X131721000Y-90733000D02*
X131721000Y-91333000D01*
X132146000Y-90733000D02*
X131721000Y-90733000D01*
X132096000Y-90733000D02*
X132196000Y-90733000D01*
X139471000Y-103483000D02*
X138796000Y-103483000D01*
X139471000Y-102608000D02*
X139471000Y-103483000D01*
X131996000Y-103483000D02*
X132671000Y-103483000D01*
X131721000Y-103208000D02*
X131996000Y-103483000D01*
X131721000Y-102608000D02*
X131721000Y-103208000D01*
D10*
X171648285Y-57983380D02*
X171648285Y-56983380D01*
X171267333Y-56983380D01*
X171172095Y-57031000D01*
X171124476Y-57078619D01*
X171076857Y-57173857D01*
X171076857Y-57316714D01*
X171124476Y-57411952D01*
X171172095Y-57459571D01*
X171267333Y-57507190D01*
X171648285Y-57507190D01*
X170695904Y-57935761D02*
X170553047Y-57983380D01*
X170314952Y-57983380D01*
X170219714Y-57935761D01*
X170172095Y-57888142D01*
X170124476Y-57792904D01*
X170124476Y-57697666D01*
X170172095Y-57602428D01*
X170219714Y-57554809D01*
X170314952Y-57507190D01*
X170505428Y-57459571D01*
X170600666Y-57411952D01*
X170648285Y-57364333D01*
X170695904Y-57269095D01*
X170695904Y-57173857D01*
X170648285Y-57078619D01*
X170600666Y-57031000D01*
X170505428Y-56983380D01*
X170267333Y-56983380D01*
X170124476Y-57031000D01*
X169172095Y-57983380D02*
X169743523Y-57983380D01*
X169457809Y-57983380D02*
X169457809Y-56983380D01*
X169553047Y-57126238D01*
X169648285Y-57221476D01*
X169743523Y-57269095D01*
D16*
X164686666Y-118156333D02*
X164686666Y-119156333D01*
X164753333Y-119356333D01*
X164886666Y-119489666D01*
X165086666Y-119556333D01*
X165220000Y-119556333D01*
X163286666Y-119556333D02*
X164086666Y-119556333D01*
X163686666Y-119556333D02*
X163686666Y-118156333D01*
X163820000Y-118356333D01*
X163953333Y-118489666D01*
X164086666Y-118556333D01*
D10*
X174366180Y-108677200D02*
X173889990Y-108343866D01*
X174366180Y-108105771D02*
X173366180Y-108105771D01*
X173366180Y-108486723D01*
X173413800Y-108581961D01*
X173461419Y-108629580D01*
X173556657Y-108677200D01*
X173699514Y-108677200D01*
X173794752Y-108629580D01*
X173842371Y-108581961D01*
X173889990Y-108486723D01*
X173889990Y-108105771D01*
X174366180Y-109581961D02*
X174366180Y-109105771D01*
X173366180Y-109105771D01*
X173889990Y-110105771D02*
X174366180Y-110105771D01*
X173366180Y-109772438D02*
X173889990Y-110105771D01*
X173366180Y-110439104D01*
X174366180Y-111296247D02*
X174366180Y-110724819D01*
X174366180Y-111010533D02*
X173366180Y-111010533D01*
X173509038Y-110915295D01*
X173604276Y-110820057D01*
X173651895Y-110724819D01*
X131326000Y-113315904D02*
X131278380Y-113220666D01*
X131278380Y-113077809D01*
X131326000Y-112934952D01*
X131421238Y-112839714D01*
X131516476Y-112792095D01*
X131706952Y-112744476D01*
X131849809Y-112744476D01*
X132040285Y-112792095D01*
X132135523Y-112839714D01*
X132230761Y-112934952D01*
X132278380Y-113077809D01*
X132278380Y-113173047D01*
X132230761Y-113315904D01*
X132183142Y-113363523D01*
X131849809Y-113363523D01*
X131849809Y-113173047D01*
X132278380Y-113792095D02*
X131278380Y-113792095D01*
X132278380Y-114363523D01*
X131278380Y-114363523D01*
X132278380Y-114839714D02*
X131278380Y-114839714D01*
X131278380Y-115077809D01*
X131326000Y-115220666D01*
X131421238Y-115315904D01*
X131516476Y-115363523D01*
X131706952Y-115411142D01*
X131849809Y-115411142D01*
X132040285Y-115363523D01*
X132135523Y-115315904D01*
X132230761Y-115220666D01*
X132278380Y-115077809D01*
X132278380Y-114839714D01*
X132278380Y-116363523D02*
X132278380Y-115792095D01*
X132278380Y-116077809D02*
X131278380Y-116077809D01*
X131421238Y-115982571D01*
X131516476Y-115887333D01*
X131564095Y-115792095D01*
X132278380Y-105322952D02*
X131278380Y-105322952D01*
X132278380Y-105894380D01*
X131278380Y-105894380D01*
X131754571Y-106370571D02*
X131754571Y-106703904D01*
X132278380Y-106846761D02*
X132278380Y-106370571D01*
X131278380Y-106370571D01*
X131278380Y-106846761D01*
X131278380Y-107275333D02*
X132087904Y-107275333D01*
X132183142Y-107322952D01*
X132230761Y-107370571D01*
X132278380Y-107465809D01*
X132278380Y-107656285D01*
X132230761Y-107751523D01*
X132183142Y-107799142D01*
X132087904Y-107846761D01*
X131278380Y-107846761D01*
X131278380Y-108180095D02*
X131278380Y-108751523D01*
X132278380Y-108465809D02*
X131278380Y-108465809D01*
X132278380Y-109608666D02*
X132278380Y-109037238D01*
X132278380Y-109322952D02*
X131278380Y-109322952D01*
X131421238Y-109227714D01*
X131516476Y-109132476D01*
X131564095Y-109037238D01*
X131008380Y-91456000D02*
X130532190Y-91122666D01*
X131008380Y-90884571D02*
X130008380Y-90884571D01*
X130008380Y-91265523D01*
X130056000Y-91360761D01*
X130103619Y-91408380D01*
X130198857Y-91456000D01*
X130341714Y-91456000D01*
X130436952Y-91408380D01*
X130484571Y-91360761D01*
X130532190Y-91265523D01*
X130532190Y-90884571D01*
X131008380Y-92360761D02*
X131008380Y-91884571D01*
X130008380Y-91884571D01*
X130532190Y-92884571D02*
X131008380Y-92884571D01*
X130008380Y-92551238D02*
X130532190Y-92884571D01*
X130008380Y-93217904D01*
X130103619Y-93503619D02*
X130056000Y-93551238D01*
X130008380Y-93646476D01*
X130008380Y-93884571D01*
X130056000Y-93979809D01*
X130103619Y-94027428D01*
X130198857Y-94075047D01*
X130294095Y-94075047D01*
X130436952Y-94027428D01*
X131008380Y-93456000D01*
X131008380Y-94075047D01*
M02*
