G04 #@! TF.GenerationSoftware,KiCad,Pcbnew,(5.1.5)-3*
G04 #@! TF.CreationDate,2020-05-28T10:53:55-07:00*
G04 #@! TF.ProjectId,Plug_Pass_arduino_shield,506c7567-5f50-4617-9373-5f6172647569,v1.2*
G04 #@! TF.SameCoordinates,Original*
G04 #@! TF.FileFunction,Legend,Bot*
G04 #@! TF.FilePolarity,Positive*
%FSLAX46Y46*%
G04 Gerber Fmt 4.6, Leading zero omitted, Abs format (unit mm)*
G04 Created by KiCad (PCBNEW (5.1.5)-3) date 2020-05-28 10:53:55*
%MOMM*%
%LPD*%
G04 APERTURE LIST*
%ADD10C,0.150000*%
G04 APERTURE END LIST*
D10*
X116425714Y-58777142D02*
X116473333Y-58824761D01*
X116616190Y-58872380D01*
X116711428Y-58872380D01*
X116854285Y-58824761D01*
X116949523Y-58729523D01*
X116997142Y-58634285D01*
X117044761Y-58443809D01*
X117044761Y-58300952D01*
X116997142Y-58110476D01*
X116949523Y-58015238D01*
X116854285Y-57920000D01*
X116711428Y-57872380D01*
X116616190Y-57872380D01*
X116473333Y-57920000D01*
X116425714Y-57967619D01*
X115854285Y-58872380D02*
X115949523Y-58824761D01*
X115997142Y-58729523D01*
X115997142Y-57872380D01*
X115044761Y-58872380D02*
X115044761Y-58348571D01*
X115092380Y-58253333D01*
X115187619Y-58205714D01*
X115378095Y-58205714D01*
X115473333Y-58253333D01*
X115044761Y-58824761D02*
X115140000Y-58872380D01*
X115378095Y-58872380D01*
X115473333Y-58824761D01*
X115520952Y-58729523D01*
X115520952Y-58634285D01*
X115473333Y-58539047D01*
X115378095Y-58491428D01*
X115140000Y-58491428D01*
X115044761Y-58443809D01*
X114711428Y-58205714D02*
X114330476Y-58205714D01*
X114568571Y-57872380D02*
X114568571Y-58729523D01*
X114520952Y-58824761D01*
X114425714Y-58872380D01*
X114330476Y-58872380D01*
X114044761Y-58824761D02*
X113949523Y-58872380D01*
X113759047Y-58872380D01*
X113663809Y-58824761D01*
X113616190Y-58729523D01*
X113616190Y-58681904D01*
X113663809Y-58586666D01*
X113759047Y-58539047D01*
X113901904Y-58539047D01*
X113997142Y-58491428D01*
X114044761Y-58396190D01*
X114044761Y-58348571D01*
X113997142Y-58253333D01*
X113901904Y-58205714D01*
X113759047Y-58205714D01*
X113663809Y-58253333D01*
X113187619Y-58872380D02*
X113187619Y-57872380D01*
X113092380Y-58491428D02*
X112806666Y-58872380D01*
X112806666Y-58205714D02*
X113187619Y-58586666D01*
X111949523Y-58872380D02*
X111949523Y-58348571D01*
X111997142Y-58253333D01*
X112092380Y-58205714D01*
X112282857Y-58205714D01*
X112378095Y-58253333D01*
X111949523Y-58824761D02*
X112044761Y-58872380D01*
X112282857Y-58872380D01*
X112378095Y-58824761D01*
X112425714Y-58729523D01*
X112425714Y-58634285D01*
X112378095Y-58539047D01*
X112282857Y-58491428D01*
X112044761Y-58491428D01*
X111949523Y-58443809D01*
X111473333Y-58205714D02*
X111473333Y-58872380D01*
X111473333Y-58300952D02*
X111425714Y-58253333D01*
X111330476Y-58205714D01*
X111187619Y-58205714D01*
X111092380Y-58253333D01*
X111044761Y-58348571D01*
X111044761Y-58872380D01*
X110568571Y-58872380D02*
X110568571Y-58205714D01*
X110568571Y-57872380D02*
X110616190Y-57920000D01*
X110568571Y-57967619D01*
X110520952Y-57920000D01*
X110568571Y-57872380D01*
X110568571Y-57967619D01*
X109711428Y-58824761D02*
X109806666Y-58872380D01*
X109997142Y-58872380D01*
X110092380Y-58824761D01*
X110140000Y-58729523D01*
X110140000Y-58348571D01*
X110092380Y-58253333D01*
X109997142Y-58205714D01*
X109806666Y-58205714D01*
X109711428Y-58253333D01*
X109663809Y-58348571D01*
X109663809Y-58443809D01*
X110140000Y-58539047D01*
X108473333Y-58872380D02*
X108473333Y-57872380D01*
X108092380Y-57872380D01*
X107997142Y-57920000D01*
X107949523Y-57967619D01*
X107901904Y-58062857D01*
X107901904Y-58205714D01*
X107949523Y-58300952D01*
X107997142Y-58348571D01*
X108092380Y-58396190D01*
X108473333Y-58396190D01*
X107092380Y-58824761D02*
X107187619Y-58872380D01*
X107378095Y-58872380D01*
X107473333Y-58824761D01*
X107520952Y-58729523D01*
X107520952Y-58348571D01*
X107473333Y-58253333D01*
X107378095Y-58205714D01*
X107187619Y-58205714D01*
X107092380Y-58253333D01*
X107044761Y-58348571D01*
X107044761Y-58443809D01*
X107520952Y-58539047D01*
X106473333Y-58872380D02*
X106568571Y-58824761D01*
X106616190Y-58777142D01*
X106663809Y-58681904D01*
X106663809Y-58396190D01*
X106616190Y-58300952D01*
X106568571Y-58253333D01*
X106473333Y-58205714D01*
X106330476Y-58205714D01*
X106235238Y-58253333D01*
X106187619Y-58300952D01*
X106140000Y-58396190D01*
X106140000Y-58681904D01*
X106187619Y-58777142D01*
X106235238Y-58824761D01*
X106330476Y-58872380D01*
X106473333Y-58872380D01*
X105711428Y-58205714D02*
X105711428Y-59205714D01*
X105711428Y-58253333D02*
X105616190Y-58205714D01*
X105425714Y-58205714D01*
X105330476Y-58253333D01*
X105282857Y-58300952D01*
X105235238Y-58396190D01*
X105235238Y-58681904D01*
X105282857Y-58777142D01*
X105330476Y-58824761D01*
X105425714Y-58872380D01*
X105616190Y-58872380D01*
X105711428Y-58824761D01*
X104663809Y-58872380D02*
X104759047Y-58824761D01*
X104806666Y-58729523D01*
X104806666Y-57872380D01*
X103901904Y-58824761D02*
X103997142Y-58872380D01*
X104187619Y-58872380D01*
X104282857Y-58824761D01*
X104330476Y-58729523D01*
X104330476Y-58348571D01*
X104282857Y-58253333D01*
X104187619Y-58205714D01*
X103997142Y-58205714D01*
X103901904Y-58253333D01*
X103854285Y-58348571D01*
X103854285Y-58443809D01*
X104330476Y-58539047D01*
X103378095Y-57872380D02*
X103473333Y-58062857D01*
X102997142Y-58824761D02*
X102901904Y-58872380D01*
X102711428Y-58872380D01*
X102616190Y-58824761D01*
X102568571Y-58729523D01*
X102568571Y-58681904D01*
X102616190Y-58586666D01*
X102711428Y-58539047D01*
X102854285Y-58539047D01*
X102949523Y-58491428D01*
X102997142Y-58396190D01*
X102997142Y-58348571D01*
X102949523Y-58253333D01*
X102854285Y-58205714D01*
X102711428Y-58205714D01*
X102616190Y-58253333D01*
X101378095Y-57872380D02*
X101378095Y-58681904D01*
X101330476Y-58777142D01*
X101282857Y-58824761D01*
X101187619Y-58872380D01*
X100997142Y-58872380D01*
X100901904Y-58824761D01*
X100854285Y-58777142D01*
X100806666Y-58681904D01*
X100806666Y-57872380D01*
X100473333Y-58205714D02*
X100092380Y-58205714D01*
X100330476Y-57872380D02*
X100330476Y-58729523D01*
X100282857Y-58824761D01*
X100187619Y-58872380D01*
X100092380Y-58872380D01*
X99759047Y-58872380D02*
X99759047Y-58205714D01*
X99759047Y-57872380D02*
X99806666Y-57920000D01*
X99759047Y-57967619D01*
X99711428Y-57920000D01*
X99759047Y-57872380D01*
X99759047Y-57967619D01*
X99140000Y-58872380D02*
X99235238Y-58824761D01*
X99282857Y-58729523D01*
X99282857Y-57872380D01*
X98759047Y-58872380D02*
X98759047Y-58205714D01*
X98759047Y-57872380D02*
X98806666Y-57920000D01*
X98759047Y-57967619D01*
X98711428Y-57920000D01*
X98759047Y-57872380D01*
X98759047Y-57967619D01*
X98425714Y-58205714D02*
X98044761Y-58205714D01*
X98282857Y-57872380D02*
X98282857Y-58729523D01*
X98235238Y-58824761D01*
X98140000Y-58872380D01*
X98044761Y-58872380D01*
X97806666Y-58205714D02*
X97568571Y-58872380D01*
X97330476Y-58205714D02*
X97568571Y-58872380D01*
X97663809Y-59110476D01*
X97711428Y-59158095D01*
X97806666Y-59205714D01*
X96187619Y-58872380D02*
X96187619Y-57872380D01*
X95949523Y-57872380D01*
X95806666Y-57920000D01*
X95711428Y-58015238D01*
X95663809Y-58110476D01*
X95616190Y-58300952D01*
X95616190Y-58443809D01*
X95663809Y-58634285D01*
X95711428Y-58729523D01*
X95806666Y-58824761D01*
X95949523Y-58872380D01*
X96187619Y-58872380D01*
X95187619Y-58872380D02*
X95187619Y-58205714D01*
X95187619Y-57872380D02*
X95235238Y-57920000D01*
X95187619Y-57967619D01*
X95140000Y-57920000D01*
X95187619Y-57872380D01*
X95187619Y-57967619D01*
X94759047Y-58824761D02*
X94663809Y-58872380D01*
X94473333Y-58872380D01*
X94378095Y-58824761D01*
X94330476Y-58729523D01*
X94330476Y-58681904D01*
X94378095Y-58586666D01*
X94473333Y-58539047D01*
X94616190Y-58539047D01*
X94711428Y-58491428D01*
X94759047Y-58396190D01*
X94759047Y-58348571D01*
X94711428Y-58253333D01*
X94616190Y-58205714D01*
X94473333Y-58205714D01*
X94378095Y-58253333D01*
X94044761Y-58205714D02*
X93663809Y-58205714D01*
X93901904Y-57872380D02*
X93901904Y-58729523D01*
X93854285Y-58824761D01*
X93759047Y-58872380D01*
X93663809Y-58872380D01*
X93330476Y-58872380D02*
X93330476Y-58205714D01*
X93330476Y-58396190D02*
X93282857Y-58300952D01*
X93235238Y-58253333D01*
X93140000Y-58205714D01*
X93044761Y-58205714D01*
X92711428Y-58872380D02*
X92711428Y-58205714D01*
X92711428Y-57872380D02*
X92759047Y-57920000D01*
X92711428Y-57967619D01*
X92663809Y-57920000D01*
X92711428Y-57872380D01*
X92711428Y-57967619D01*
X91806666Y-58824761D02*
X91901904Y-58872380D01*
X92092380Y-58872380D01*
X92187619Y-58824761D01*
X92235238Y-58777142D01*
X92282857Y-58681904D01*
X92282857Y-58396190D01*
X92235238Y-58300952D01*
X92187619Y-58253333D01*
X92092380Y-58205714D01*
X91901904Y-58205714D01*
X91806666Y-58253333D01*
X91520952Y-58205714D02*
X91140000Y-58205714D01*
X91378095Y-57872380D02*
X91378095Y-58729523D01*
X91330476Y-58824761D01*
X91235238Y-58872380D01*
X91140000Y-58872380D01*
X107711428Y-130882380D02*
X107711428Y-129882380D01*
X107330476Y-129882380D01*
X107235238Y-129930000D01*
X107187619Y-129977619D01*
X107140000Y-130072857D01*
X107140000Y-130215714D01*
X107187619Y-130310952D01*
X107235238Y-130358571D01*
X107330476Y-130406190D01*
X107711428Y-130406190D01*
X106568571Y-130882380D02*
X106663809Y-130834761D01*
X106711428Y-130739523D01*
X106711428Y-129882380D01*
X105759047Y-130215714D02*
X105759047Y-130882380D01*
X106187619Y-130215714D02*
X106187619Y-130739523D01*
X106140000Y-130834761D01*
X106044761Y-130882380D01*
X105901904Y-130882380D01*
X105806666Y-130834761D01*
X105759047Y-130787142D01*
X104854285Y-130215714D02*
X104854285Y-131025238D01*
X104901904Y-131120476D01*
X104949523Y-131168095D01*
X105044761Y-131215714D01*
X105187619Y-131215714D01*
X105282857Y-131168095D01*
X104854285Y-130834761D02*
X104949523Y-130882380D01*
X105140000Y-130882380D01*
X105235238Y-130834761D01*
X105282857Y-130787142D01*
X105330476Y-130691904D01*
X105330476Y-130406190D01*
X105282857Y-130310952D01*
X105235238Y-130263333D01*
X105140000Y-130215714D01*
X104949523Y-130215714D01*
X104854285Y-130263333D01*
X103616190Y-130882380D02*
X103616190Y-129882380D01*
X103235238Y-129882380D01*
X103140000Y-129930000D01*
X103092380Y-129977619D01*
X103044761Y-130072857D01*
X103044761Y-130215714D01*
X103092380Y-130310952D01*
X103140000Y-130358571D01*
X103235238Y-130406190D01*
X103616190Y-130406190D01*
X102187619Y-130882380D02*
X102187619Y-130358571D01*
X102235238Y-130263333D01*
X102330476Y-130215714D01*
X102520952Y-130215714D01*
X102616190Y-130263333D01*
X102187619Y-130834761D02*
X102282857Y-130882380D01*
X102520952Y-130882380D01*
X102616190Y-130834761D01*
X102663809Y-130739523D01*
X102663809Y-130644285D01*
X102616190Y-130549047D01*
X102520952Y-130501428D01*
X102282857Y-130501428D01*
X102187619Y-130453809D01*
X101759047Y-130834761D02*
X101663809Y-130882380D01*
X101473333Y-130882380D01*
X101378095Y-130834761D01*
X101330476Y-130739523D01*
X101330476Y-130691904D01*
X101378095Y-130596666D01*
X101473333Y-130549047D01*
X101616190Y-130549047D01*
X101711428Y-130501428D01*
X101759047Y-130406190D01*
X101759047Y-130358571D01*
X101711428Y-130263333D01*
X101616190Y-130215714D01*
X101473333Y-130215714D01*
X101378095Y-130263333D01*
X100949523Y-130834761D02*
X100854285Y-130882380D01*
X100663809Y-130882380D01*
X100568571Y-130834761D01*
X100520952Y-130739523D01*
X100520952Y-130691904D01*
X100568571Y-130596666D01*
X100663809Y-130549047D01*
X100806666Y-130549047D01*
X100901904Y-130501428D01*
X100949523Y-130406190D01*
X100949523Y-130358571D01*
X100901904Y-130263333D01*
X100806666Y-130215714D01*
X100663809Y-130215714D01*
X100568571Y-130263333D01*
X108235238Y-131865714D02*
X107997142Y-132532380D01*
X107759047Y-131865714D01*
X106997142Y-132484761D02*
X107092380Y-132532380D01*
X107282857Y-132532380D01*
X107378095Y-132484761D01*
X107425714Y-132389523D01*
X107425714Y-132008571D01*
X107378095Y-131913333D01*
X107282857Y-131865714D01*
X107092380Y-131865714D01*
X106997142Y-131913333D01*
X106949523Y-132008571D01*
X106949523Y-132103809D01*
X107425714Y-132199047D01*
X106520952Y-132532380D02*
X106520952Y-131865714D01*
X106520952Y-132056190D02*
X106473333Y-131960952D01*
X106425714Y-131913333D01*
X106330476Y-131865714D01*
X106235238Y-131865714D01*
X105949523Y-132484761D02*
X105854285Y-132532380D01*
X105663809Y-132532380D01*
X105568571Y-132484761D01*
X105520952Y-132389523D01*
X105520952Y-132341904D01*
X105568571Y-132246666D01*
X105663809Y-132199047D01*
X105806666Y-132199047D01*
X105901904Y-132151428D01*
X105949523Y-132056190D01*
X105949523Y-132008571D01*
X105901904Y-131913333D01*
X105806666Y-131865714D01*
X105663809Y-131865714D01*
X105568571Y-131913333D01*
X105092380Y-132532380D02*
X105092380Y-131865714D01*
X105092380Y-131532380D02*
X105140000Y-131580000D01*
X105092380Y-131627619D01*
X105044761Y-131580000D01*
X105092380Y-131532380D01*
X105092380Y-131627619D01*
X104473333Y-132532380D02*
X104568571Y-132484761D01*
X104616190Y-132437142D01*
X104663809Y-132341904D01*
X104663809Y-132056190D01*
X104616190Y-131960952D01*
X104568571Y-131913333D01*
X104473333Y-131865714D01*
X104330476Y-131865714D01*
X104235238Y-131913333D01*
X104187619Y-131960952D01*
X104140000Y-132056190D01*
X104140000Y-132341904D01*
X104187619Y-132437142D01*
X104235238Y-132484761D01*
X104330476Y-132532380D01*
X104473333Y-132532380D01*
X103711428Y-131865714D02*
X103711428Y-132532380D01*
X103711428Y-131960952D02*
X103663809Y-131913333D01*
X103568571Y-131865714D01*
X103425714Y-131865714D01*
X103330476Y-131913333D01*
X103282857Y-132008571D01*
X103282857Y-132532380D01*
X101520952Y-132532380D02*
X102092380Y-132532380D01*
X101806666Y-132532380D02*
X101806666Y-131532380D01*
X101901904Y-131675238D01*
X101997142Y-131770476D01*
X102092380Y-131818095D01*
X101092380Y-132437142D02*
X101044761Y-132484761D01*
X101092380Y-132532380D01*
X101140000Y-132484761D01*
X101092380Y-132437142D01*
X101092380Y-132532380D01*
X100663809Y-131627619D02*
X100616190Y-131580000D01*
X100520952Y-131532380D01*
X100282857Y-131532380D01*
X100187619Y-131580000D01*
X100140000Y-131627619D01*
X100092380Y-131722857D01*
X100092380Y-131818095D01*
X100140000Y-131960952D01*
X100711428Y-132532380D01*
X100092380Y-132532380D01*
X108901904Y-134182380D02*
X108901904Y-133658571D01*
X108949523Y-133563333D01*
X109044761Y-133515714D01*
X109235238Y-133515714D01*
X109330476Y-133563333D01*
X108901904Y-134134761D02*
X108997142Y-134182380D01*
X109235238Y-134182380D01*
X109330476Y-134134761D01*
X109378095Y-134039523D01*
X109378095Y-133944285D01*
X109330476Y-133849047D01*
X109235238Y-133801428D01*
X108997142Y-133801428D01*
X108901904Y-133753809D01*
X108425714Y-134182380D02*
X108425714Y-133515714D01*
X108425714Y-133706190D02*
X108378095Y-133610952D01*
X108330476Y-133563333D01*
X108235238Y-133515714D01*
X108140000Y-133515714D01*
X107378095Y-134182380D02*
X107378095Y-133182380D01*
X107378095Y-134134761D02*
X107473333Y-134182380D01*
X107663809Y-134182380D01*
X107759047Y-134134761D01*
X107806666Y-134087142D01*
X107854285Y-133991904D01*
X107854285Y-133706190D01*
X107806666Y-133610952D01*
X107759047Y-133563333D01*
X107663809Y-133515714D01*
X107473333Y-133515714D01*
X107378095Y-133563333D01*
X106473333Y-133515714D02*
X106473333Y-134182380D01*
X106901904Y-133515714D02*
X106901904Y-134039523D01*
X106854285Y-134134761D01*
X106759047Y-134182380D01*
X106616190Y-134182380D01*
X106520952Y-134134761D01*
X106473333Y-134087142D01*
X105997142Y-134182380D02*
X105997142Y-133515714D01*
X105997142Y-133182380D02*
X106044761Y-133230000D01*
X105997142Y-133277619D01*
X105949523Y-133230000D01*
X105997142Y-133182380D01*
X105997142Y-133277619D01*
X105520952Y-133515714D02*
X105520952Y-134182380D01*
X105520952Y-133610952D02*
X105473333Y-133563333D01*
X105378095Y-133515714D01*
X105235238Y-133515714D01*
X105140000Y-133563333D01*
X105092380Y-133658571D01*
X105092380Y-134182380D01*
X104473333Y-134182380D02*
X104568571Y-134134761D01*
X104616190Y-134087142D01*
X104663809Y-133991904D01*
X104663809Y-133706190D01*
X104616190Y-133610952D01*
X104568571Y-133563333D01*
X104473333Y-133515714D01*
X104330476Y-133515714D01*
X104235238Y-133563333D01*
X104187619Y-133610952D01*
X104140000Y-133706190D01*
X104140000Y-133991904D01*
X104187619Y-134087142D01*
X104235238Y-134134761D01*
X104330476Y-134182380D01*
X104473333Y-134182380D01*
X102997142Y-134134761D02*
X102901904Y-134182380D01*
X102711428Y-134182380D01*
X102616190Y-134134761D01*
X102568571Y-134039523D01*
X102568571Y-133991904D01*
X102616190Y-133896666D01*
X102711428Y-133849047D01*
X102854285Y-133849047D01*
X102949523Y-133801428D01*
X102997142Y-133706190D01*
X102997142Y-133658571D01*
X102949523Y-133563333D01*
X102854285Y-133515714D01*
X102711428Y-133515714D01*
X102616190Y-133563333D01*
X102140000Y-134182380D02*
X102140000Y-133182380D01*
X101711428Y-134182380D02*
X101711428Y-133658571D01*
X101759047Y-133563333D01*
X101854285Y-133515714D01*
X101997142Y-133515714D01*
X102092380Y-133563333D01*
X102140000Y-133610952D01*
X101235238Y-134182380D02*
X101235238Y-133515714D01*
X101235238Y-133182380D02*
X101282857Y-133230000D01*
X101235238Y-133277619D01*
X101187619Y-133230000D01*
X101235238Y-133182380D01*
X101235238Y-133277619D01*
X100378095Y-134134761D02*
X100473333Y-134182380D01*
X100663809Y-134182380D01*
X100759047Y-134134761D01*
X100806666Y-134039523D01*
X100806666Y-133658571D01*
X100759047Y-133563333D01*
X100663809Y-133515714D01*
X100473333Y-133515714D01*
X100378095Y-133563333D01*
X100330476Y-133658571D01*
X100330476Y-133753809D01*
X100806666Y-133849047D01*
X99759047Y-134182380D02*
X99854285Y-134134761D01*
X99901904Y-134039523D01*
X99901904Y-133182380D01*
X98949523Y-134182380D02*
X98949523Y-133182380D01*
X98949523Y-134134761D02*
X99044761Y-134182380D01*
X99235238Y-134182380D01*
X99330476Y-134134761D01*
X99378095Y-134087142D01*
X99425714Y-133991904D01*
X99425714Y-133706190D01*
X99378095Y-133610952D01*
X99330476Y-133563333D01*
X99235238Y-133515714D01*
X99044761Y-133515714D01*
X98949523Y-133563333D01*
M02*
