M48
; DRILL file {KiCad (5.1.5)-3} date 2020-09-30 1:58:20 PM
; FORMAT={-:-/ absolute / inch / decimal}
; #@! TF.CreationDate,2020-09-30T13:58:20-07:00
; #@! TF.GenerationSoftware,Kicad,Pcbnew,(5.1.5)-3
FMAT,2
INCH
T1C0.0100
T2C0.0150
T3C0.0197
T4C0.0394
T5C0.0472
T6C0.0819
T7C0.0866
T8C0.1260
%
G90
G05
T1
X5.49Y-3.3
X5.52Y-3.29
X5.55Y-3.27
X5.62Y-3.27
X5.66Y-3.27
X5.66Y-3.31
X5.84Y-3.54
X5.87Y-3.16
X5.915Y-3.425
X6.5Y-3.02
X6.54Y-4.61
X6.56Y-4.69
X6.78Y-4.44
T2
X5.19Y-3.47
X5.24Y-2.55
X5.335Y-3.35
X5.41Y-3.55
X5.415Y-2.975
X5.46Y-3.05
X5.66Y-3.79
X5.78Y-2.8379
X5.79Y-2.75
X5.79Y-3.27
X5.84Y-3.84
X5.845Y-3.355
X5.86Y-3.26
X5.86Y-3.78
X5.87Y-2.265
X5.92Y-4.0288
X5.95Y-2.75
X6.0Y-2.73
X6.01Y-2.68
X6.04Y-2.54
X6.055Y-3.425
X6.11Y-2.265
X6.11Y-3.64
X6.14Y-2.94
X6.155Y-2.825
X6.16Y-2.53
X6.17Y-3.83
X6.2369Y-3.93
X6.24Y-2.99
X6.2674Y-2.4926
X6.31Y-2.97
X6.31Y-3.15
X6.37Y-3.13
X6.4Y-3.4
X6.4037Y-3.3037
X6.66Y-2.73
X6.695Y-4.425
X6.845Y-3.365
T4
X5.24Y-3.62
X5.24Y-3.92
X5.24Y-4.02
X5.44Y-3.62
X5.44Y-3.92
X5.44Y-4.02
T5
X5.7568Y-3.968
X5.7568Y-4.368
T6
X6.2568Y-4.518
T7
X6.3568Y-3.818
T8
X5.2Y-2.22
X5.35Y-4.23
X5.2Y-4.86
X6.84Y-4.86
X5.35Y-4.5156
X6.84Y-2.22
T3
G00X6.3785Y-4.78
M15
G01X6.351Y-4.78
M16
G05
G00X6.4967Y-4.8646
M15
G01X6.4533Y-4.8646
M16
G05
G00X6.599Y-4.78
M15
G01X6.5715Y-4.78
M16
G05
T0
M30
