G04 #@! TF.GenerationSoftware,KiCad,Pcbnew,(5.1.9)-1*
G04 #@! TF.CreationDate,2021-01-04T11:02:08-08:00*
G04 #@! TF.ProjectId,Plug_Pass,506c7567-5f50-4617-9373-2e6b69636164,v3.1*
G04 #@! TF.SameCoordinates,Original*
G04 #@! TF.FileFunction,Paste,Bot*
G04 #@! TF.FilePolarity,Positive*
%FSLAX46Y46*%
G04 Gerber Fmt 4.6, Leading zero omitted, Abs format (unit mm)*
G04 Created by KiCad (PCBNEW (5.1.9)-1) date 2021-01-04 11:02:08*
%MOMM*%
%LPD*%
G01*
G04 APERTURE LIST*
%ADD10R,1.500000X2.030000*%
%ADD11R,1.400000X0.950000*%
%ADD12R,0.750000X1.150000*%
G04 APERTURE END LIST*
D10*
X137922000Y-88264000D03*
X140462000Y-88264000D03*
X143002000Y-88264000D03*
X145542000Y-88264000D03*
X158242000Y-88264000D03*
X163322000Y-88264000D03*
X168402000Y-88264000D03*
X137922000Y-59564000D03*
X140462000Y-59564000D03*
X143002000Y-59564000D03*
X145542000Y-59564000D03*
X158242000Y-59564000D03*
X163322000Y-59564000D03*
X168402000Y-59564000D03*
G36*
G01*
X172446000Y-91740500D02*
X172446000Y-92663500D01*
G75*
G02*
X172432500Y-92677000I-13500J0D01*
G01*
X171559500Y-92677000D01*
G75*
G02*
X171546000Y-92663500I0J13500D01*
G01*
X171546000Y-91740500D01*
G75*
G02*
X171559500Y-91727000I13500J0D01*
G01*
X172432500Y-91727000D01*
G75*
G02*
X172446000Y-91740500I0J-13500D01*
G01*
G37*
G36*
G01*
X170846000Y-91740500D02*
X170846000Y-92663500D01*
G75*
G02*
X170832500Y-92677000I-13500J0D01*
G01*
X169959500Y-92677000D01*
G75*
G02*
X169946000Y-92663500I0J13500D01*
G01*
X169946000Y-91740500D01*
G75*
G02*
X169959500Y-91727000I13500J0D01*
G01*
X170832500Y-91727000D01*
G75*
G02*
X170846000Y-91740500I0J-13500D01*
G01*
G37*
D11*
X172339000Y-99398000D03*
X172339000Y-103548000D03*
D12*
X170814000Y-99898000D03*
X173864000Y-99898000D03*
X170814000Y-103048000D03*
X173864000Y-103048000D03*
G36*
G01*
X172446000Y-89962500D02*
X172446000Y-90885500D01*
G75*
G02*
X172432500Y-90899000I-13500J0D01*
G01*
X171559500Y-90899000D01*
G75*
G02*
X171546000Y-90885500I0J13500D01*
G01*
X171546000Y-89962500D01*
G75*
G02*
X171559500Y-89949000I13500J0D01*
G01*
X172432500Y-89949000D01*
G75*
G02*
X172446000Y-89962500I0J-13500D01*
G01*
G37*
G36*
G01*
X170846000Y-89962500D02*
X170846000Y-90885500D01*
G75*
G02*
X170832500Y-90899000I-13500J0D01*
G01*
X169959500Y-90899000D01*
G75*
G02*
X169946000Y-90885500I0J13500D01*
G01*
X169946000Y-89962500D01*
G75*
G02*
X169959500Y-89949000I13500J0D01*
G01*
X170832500Y-89949000D01*
G75*
G02*
X170846000Y-89962500I0J-13500D01*
G01*
G37*
G36*
G01*
X150127000Y-59609700D02*
X150127000Y-59008300D01*
G75*
G02*
X150136300Y-58999000I9300J0D01*
G01*
X150737700Y-58999000D01*
G75*
G02*
X150747000Y-59008300I0J-9300D01*
G01*
X150747000Y-59609700D01*
G75*
G02*
X150737700Y-59619000I-9300J0D01*
G01*
X150136300Y-59619000D01*
G75*
G02*
X150127000Y-59609700I0J9300D01*
G01*
G37*
G36*
G01*
X149227000Y-59609700D02*
X149227000Y-59008300D01*
G75*
G02*
X149236300Y-58999000I9300J0D01*
G01*
X149837700Y-58999000D01*
G75*
G02*
X149847000Y-59008300I0J-9300D01*
G01*
X149847000Y-59609700D01*
G75*
G02*
X149837700Y-59619000I-9300J0D01*
G01*
X149236300Y-59619000D01*
G75*
G02*
X149227000Y-59609700I0J9300D01*
G01*
G37*
G36*
G01*
X154285000Y-59228500D02*
X154285000Y-60151500D01*
G75*
G02*
X154271500Y-60165000I-13500J0D01*
G01*
X153398500Y-60165000D01*
G75*
G02*
X153385000Y-60151500I0J13500D01*
G01*
X153385000Y-59228500D01*
G75*
G02*
X153398500Y-59215000I13500J0D01*
G01*
X154271500Y-59215000D01*
G75*
G02*
X154285000Y-59228500I0J-13500D01*
G01*
G37*
G36*
G01*
X152685000Y-59228500D02*
X152685000Y-60151500D01*
G75*
G02*
X152671500Y-60165000I-13500J0D01*
G01*
X151798500Y-60165000D01*
G75*
G02*
X151785000Y-60151500I0J13500D01*
G01*
X151785000Y-59228500D01*
G75*
G02*
X151798500Y-59215000I13500J0D01*
G01*
X152671500Y-59215000D01*
G75*
G02*
X152685000Y-59228500I0J-13500D01*
G01*
G37*
G36*
G01*
X173816300Y-77425000D02*
X174417700Y-77425000D01*
G75*
G02*
X174427000Y-77434300I0J-9300D01*
G01*
X174427000Y-78035700D01*
G75*
G02*
X174417700Y-78045000I-9300J0D01*
G01*
X173816300Y-78045000D01*
G75*
G02*
X173807000Y-78035700I0J9300D01*
G01*
X173807000Y-77434300D01*
G75*
G02*
X173816300Y-77425000I9300J0D01*
G01*
G37*
G36*
G01*
X173816300Y-76525000D02*
X174417700Y-76525000D01*
G75*
G02*
X174427000Y-76534300I0J-9300D01*
G01*
X174427000Y-77135700D01*
G75*
G02*
X174417700Y-77145000I-9300J0D01*
G01*
X173816300Y-77145000D01*
G75*
G02*
X173807000Y-77135700I0J9300D01*
G01*
X173807000Y-76534300D01*
G75*
G02*
X173816300Y-76525000I9300J0D01*
G01*
G37*
G36*
G01*
X150127000Y-60879700D02*
X150127000Y-60278300D01*
G75*
G02*
X150136300Y-60269000I9300J0D01*
G01*
X150737700Y-60269000D01*
G75*
G02*
X150747000Y-60278300I0J-9300D01*
G01*
X150747000Y-60879700D01*
G75*
G02*
X150737700Y-60889000I-9300J0D01*
G01*
X150136300Y-60889000D01*
G75*
G02*
X150127000Y-60879700I0J9300D01*
G01*
G37*
G36*
G01*
X149227000Y-60879700D02*
X149227000Y-60278300D01*
G75*
G02*
X149236300Y-60269000I9300J0D01*
G01*
X149837700Y-60269000D01*
G75*
G02*
X149847000Y-60278300I0J-9300D01*
G01*
X149847000Y-60879700D01*
G75*
G02*
X149837700Y-60889000I-9300J0D01*
G01*
X149236300Y-60889000D01*
G75*
G02*
X149227000Y-60879700I0J9300D01*
G01*
G37*
M02*
