G04 #@! TF.GenerationSoftware,KiCad,Pcbnew,(5.1.9)-1*
G04 #@! TF.CreationDate,2021-01-04T11:02:08-08:00*
G04 #@! TF.ProjectId,Plug_Pass,506c7567-5f50-4617-9373-2e6b69636164,v3.1*
G04 #@! TF.SameCoordinates,Original*
G04 #@! TF.FileFunction,Paste,Top*
G04 #@! TF.FilePolarity,Positive*
%FSLAX46Y46*%
G04 Gerber Fmt 4.6, Leading zero omitted, Abs format (unit mm)*
G04 Created by KiCad (PCBNEW (5.1.9)-1) date 2021-01-04 11:02:08*
%MOMM*%
%LPD*%
G01*
G04 APERTURE LIST*
%ADD10C,0.100000*%
%ADD11R,1.450000X0.750000*%
%ADD12R,2.000000X0.500000*%
%ADD13R,0.430000X0.280000*%
%ADD14R,3.200000X3.200000*%
%ADD15R,0.450000X1.500000*%
%ADD16R,1.200000X1.400000*%
%ADD17R,1.900000X0.400000*%
%ADD18R,1.800000X2.600000*%
%ADD19R,2.600000X1.800000*%
%ADD20R,2.150000X1.300000*%
%ADD21R,1.200000X0.800000*%
%ADD22R,1.500000X0.550000*%
%ADD23R,0.550000X1.500000*%
%ADD24R,0.450000X1.750000*%
%ADD25R,0.550000X1.200000*%
G04 APERTURE END LIST*
D10*
G36*
X135090000Y-110371000D02*
G01*
X134090000Y-110371000D01*
X134090000Y-111371000D01*
X135090000Y-111371000D01*
X135090000Y-110371000D01*
G37*
G36*
X135090000Y-109071000D02*
G01*
X134090000Y-109071000D01*
X134090000Y-110071000D01*
X135090000Y-110071000D01*
X135090000Y-109071000D01*
G37*
G36*
X136390000Y-109071000D02*
G01*
X135390000Y-109071000D01*
X135390000Y-110071000D01*
X136390000Y-110071000D01*
X136390000Y-109071000D01*
G37*
G36*
X136390000Y-110371000D02*
G01*
X135390000Y-110371000D01*
X135390000Y-111371000D01*
X136390000Y-111371000D01*
X136390000Y-110371000D01*
G37*
G36*
X137690000Y-109071000D02*
G01*
X136690000Y-109071000D01*
X136690000Y-110071000D01*
X137690000Y-110071000D01*
X137690000Y-109071000D01*
G37*
G36*
X137690000Y-110371000D02*
G01*
X136690000Y-110371000D01*
X136690000Y-111371000D01*
X137690000Y-111371000D01*
X137690000Y-110371000D01*
G37*
G36*
X135090000Y-111671000D02*
G01*
X134090000Y-111671000D01*
X134090000Y-112671000D01*
X135090000Y-112671000D01*
X135090000Y-111671000D01*
G37*
G36*
X136390000Y-111671000D02*
G01*
X135390000Y-111671000D01*
X135390000Y-112671000D01*
X136390000Y-112671000D01*
X136390000Y-111671000D01*
G37*
G36*
X137690000Y-111671000D02*
G01*
X136690000Y-111671000D01*
X136690000Y-112671000D01*
X137690000Y-112671000D01*
X137690000Y-111671000D01*
G37*
D11*
X140500000Y-81534000D03*
X140500000Y-82804000D03*
X140500000Y-84074000D03*
X140500000Y-85344000D03*
X132550000Y-85344000D03*
X132550000Y-84074000D03*
X132550000Y-82804000D03*
X132550000Y-81534000D03*
D12*
X146938000Y-83677000D03*
X143638000Y-83677000D03*
X146938000Y-82677000D03*
X143638000Y-82677000D03*
X146938000Y-81677000D03*
X143638000Y-81677000D03*
D13*
X163068000Y-112396000D03*
X163068000Y-111886000D03*
G36*
G01*
X149784250Y-113809000D02*
X151205750Y-113809000D01*
G75*
G02*
X151220000Y-113823250I0J-14250D01*
G01*
X151220000Y-114744750D01*
G75*
G02*
X151205750Y-114759000I-14250J0D01*
G01*
X149784250Y-114759000D01*
G75*
G02*
X149770000Y-114744750I0J14250D01*
G01*
X149770000Y-113823250D01*
G75*
G02*
X149784250Y-113809000I14250J0D01*
G01*
G37*
G36*
G01*
X149784250Y-111809000D02*
X151205750Y-111809000D01*
G75*
G02*
X151220000Y-111823250I0J-14250D01*
G01*
X151220000Y-112744750D01*
G75*
G02*
X151205750Y-112759000I-14250J0D01*
G01*
X149784250Y-112759000D01*
G75*
G02*
X149770000Y-112744750I0J14250D01*
G01*
X149770000Y-111823250D01*
G75*
G02*
X149784250Y-111809000I14250J0D01*
G01*
G37*
G36*
G01*
X158923700Y-112382000D02*
X158322300Y-112382000D01*
G75*
G02*
X158313000Y-112372700I0J9300D01*
G01*
X158313000Y-111771300D01*
G75*
G02*
X158322300Y-111762000I9300J0D01*
G01*
X158923700Y-111762000D01*
G75*
G02*
X158933000Y-111771300I0J-9300D01*
G01*
X158933000Y-112372700D01*
G75*
G02*
X158923700Y-112382000I-9300J0D01*
G01*
G37*
G36*
G01*
X158923700Y-113282000D02*
X158322300Y-113282000D01*
G75*
G02*
X158313000Y-113272700I0J9300D01*
G01*
X158313000Y-112671300D01*
G75*
G02*
X158322300Y-112662000I9300J0D01*
G01*
X158923700Y-112662000D01*
G75*
G02*
X158933000Y-112671300I0J-9300D01*
G01*
X158933000Y-113272700D01*
G75*
G02*
X158923700Y-113282000I-9300J0D01*
G01*
G37*
D14*
X151481400Y-64643000D03*
X135030600Y-64643000D03*
D15*
X165892000Y-93849000D03*
X165242000Y-93849000D03*
X164592000Y-93849000D03*
X163942000Y-93849000D03*
X163292000Y-93849000D03*
D16*
X135460000Y-104521000D03*
X135460000Y-102321000D03*
X137160000Y-102321000D03*
X137160000Y-104521000D03*
G36*
G01*
X153877300Y-82563000D02*
X154478700Y-82563000D01*
G75*
G02*
X154488000Y-82572300I0J-9300D01*
G01*
X154488000Y-83173700D01*
G75*
G02*
X154478700Y-83183000I-9300J0D01*
G01*
X153877300Y-83183000D01*
G75*
G02*
X153868000Y-83173700I0J9300D01*
G01*
X153868000Y-82572300D01*
G75*
G02*
X153877300Y-82563000I9300J0D01*
G01*
G37*
G36*
G01*
X153877300Y-81663000D02*
X154478700Y-81663000D01*
G75*
G02*
X154488000Y-81672300I0J-9300D01*
G01*
X154488000Y-82273700D01*
G75*
G02*
X154478700Y-82283000I-9300J0D01*
G01*
X153877300Y-82283000D01*
G75*
G02*
X153868000Y-82273700I0J9300D01*
G01*
X153868000Y-81672300D01*
G75*
G02*
X153877300Y-81663000I9300J0D01*
G01*
G37*
D17*
X145542000Y-75241000D03*
X145542000Y-74041000D03*
X145542000Y-72841000D03*
G36*
G01*
X132347000Y-88057700D02*
X132347000Y-87456300D01*
G75*
G02*
X132356300Y-87447000I9300J0D01*
G01*
X132957700Y-87447000D01*
G75*
G02*
X132967000Y-87456300I0J-9300D01*
G01*
X132967000Y-88057700D01*
G75*
G02*
X132957700Y-88067000I-9300J0D01*
G01*
X132356300Y-88067000D01*
G75*
G02*
X132347000Y-88057700I0J9300D01*
G01*
G37*
G36*
G01*
X131447000Y-88057700D02*
X131447000Y-87456300D01*
G75*
G02*
X131456300Y-87447000I9300J0D01*
G01*
X132057700Y-87447000D01*
G75*
G02*
X132067000Y-87456300I0J-9300D01*
G01*
X132067000Y-88057700D01*
G75*
G02*
X132057700Y-88067000I-9300J0D01*
G01*
X131456300Y-88067000D01*
G75*
G02*
X131447000Y-88057700I0J9300D01*
G01*
G37*
G36*
G01*
X171336000Y-92502700D02*
X171336000Y-91901300D01*
G75*
G02*
X171345300Y-91892000I9300J0D01*
G01*
X171946700Y-91892000D01*
G75*
G02*
X171956000Y-91901300I0J-9300D01*
G01*
X171956000Y-92502700D01*
G75*
G02*
X171946700Y-92512000I-9300J0D01*
G01*
X171345300Y-92512000D01*
G75*
G02*
X171336000Y-92502700I0J9300D01*
G01*
G37*
G36*
G01*
X170436000Y-92502700D02*
X170436000Y-91901300D01*
G75*
G02*
X170445300Y-91892000I9300J0D01*
G01*
X171046700Y-91892000D01*
G75*
G02*
X171056000Y-91901300I0J-9300D01*
G01*
X171056000Y-92502700D01*
G75*
G02*
X171046700Y-92512000I-9300J0D01*
G01*
X170445300Y-92512000D01*
G75*
G02*
X170436000Y-92502700I0J9300D01*
G01*
G37*
G36*
G01*
X171336000Y-90724700D02*
X171336000Y-90123300D01*
G75*
G02*
X171345300Y-90114000I9300J0D01*
G01*
X171946700Y-90114000D01*
G75*
G02*
X171956000Y-90123300I0J-9300D01*
G01*
X171956000Y-90724700D01*
G75*
G02*
X171946700Y-90734000I-9300J0D01*
G01*
X171345300Y-90734000D01*
G75*
G02*
X171336000Y-90724700I0J9300D01*
G01*
G37*
G36*
G01*
X170436000Y-90724700D02*
X170436000Y-90123300D01*
G75*
G02*
X170445300Y-90114000I9300J0D01*
G01*
X171046700Y-90114000D01*
G75*
G02*
X171056000Y-90123300I0J-9300D01*
G01*
X171056000Y-90724700D01*
G75*
G02*
X171046700Y-90734000I-9300J0D01*
G01*
X170445300Y-90734000D01*
G75*
G02*
X170436000Y-90724700I0J9300D01*
G01*
G37*
G36*
G01*
X146511300Y-104280000D02*
X147112700Y-104280000D01*
G75*
G02*
X147122000Y-104289300I0J-9300D01*
G01*
X147122000Y-104890700D01*
G75*
G02*
X147112700Y-104900000I-9300J0D01*
G01*
X146511300Y-104900000D01*
G75*
G02*
X146502000Y-104890700I0J9300D01*
G01*
X146502000Y-104289300D01*
G75*
G02*
X146511300Y-104280000I9300J0D01*
G01*
G37*
G36*
G01*
X146511300Y-103380000D02*
X147112700Y-103380000D01*
G75*
G02*
X147122000Y-103389300I0J-9300D01*
G01*
X147122000Y-103990700D01*
G75*
G02*
X147112700Y-104000000I-9300J0D01*
G01*
X146511300Y-104000000D01*
G75*
G02*
X146502000Y-103990700I0J9300D01*
G01*
X146502000Y-103389300D01*
G75*
G02*
X146511300Y-103380000I9300J0D01*
G01*
G37*
G36*
G01*
X142193300Y-101359000D02*
X142794700Y-101359000D01*
G75*
G02*
X142804000Y-101368300I0J-9300D01*
G01*
X142804000Y-101969700D01*
G75*
G02*
X142794700Y-101979000I-9300J0D01*
G01*
X142193300Y-101979000D01*
G75*
G02*
X142184000Y-101969700I0J9300D01*
G01*
X142184000Y-101368300D01*
G75*
G02*
X142193300Y-101359000I9300J0D01*
G01*
G37*
G36*
G01*
X142193300Y-100459000D02*
X142794700Y-100459000D01*
G75*
G02*
X142804000Y-100468300I0J-9300D01*
G01*
X142804000Y-101069700D01*
G75*
G02*
X142794700Y-101079000I-9300J0D01*
G01*
X142193300Y-101079000D01*
G75*
G02*
X142184000Y-101069700I0J9300D01*
G01*
X142184000Y-100468300D01*
G75*
G02*
X142193300Y-100459000I9300J0D01*
G01*
G37*
G36*
G01*
X158923700Y-109334000D02*
X158322300Y-109334000D01*
G75*
G02*
X158313000Y-109324700I0J9300D01*
G01*
X158313000Y-108723300D01*
G75*
G02*
X158322300Y-108714000I9300J0D01*
G01*
X158923700Y-108714000D01*
G75*
G02*
X158933000Y-108723300I0J-9300D01*
G01*
X158933000Y-109324700D01*
G75*
G02*
X158923700Y-109334000I-9300J0D01*
G01*
G37*
G36*
G01*
X158923700Y-110234000D02*
X158322300Y-110234000D01*
G75*
G02*
X158313000Y-110224700I0J9300D01*
G01*
X158313000Y-109623300D01*
G75*
G02*
X158322300Y-109614000I9300J0D01*
G01*
X158923700Y-109614000D01*
G75*
G02*
X158933000Y-109623300I0J-9300D01*
G01*
X158933000Y-110224700D01*
G75*
G02*
X158923700Y-110234000I-9300J0D01*
G01*
G37*
G36*
G01*
X159592300Y-64275000D02*
X160193700Y-64275000D01*
G75*
G02*
X160203000Y-64284300I0J-9300D01*
G01*
X160203000Y-64885700D01*
G75*
G02*
X160193700Y-64895000I-9300J0D01*
G01*
X159592300Y-64895000D01*
G75*
G02*
X159583000Y-64885700I0J9300D01*
G01*
X159583000Y-64284300D01*
G75*
G02*
X159592300Y-64275000I9300J0D01*
G01*
G37*
G36*
G01*
X159592300Y-63375000D02*
X160193700Y-63375000D01*
G75*
G02*
X160203000Y-63384300I0J-9300D01*
G01*
X160203000Y-63985700D01*
G75*
G02*
X160193700Y-63995000I-9300J0D01*
G01*
X159592300Y-63995000D01*
G75*
G02*
X159583000Y-63985700I0J9300D01*
G01*
X159583000Y-63384300D01*
G75*
G02*
X159592300Y-63375000I9300J0D01*
G01*
G37*
G36*
G01*
X161370300Y-64275000D02*
X161971700Y-64275000D01*
G75*
G02*
X161981000Y-64284300I0J-9300D01*
G01*
X161981000Y-64885700D01*
G75*
G02*
X161971700Y-64895000I-9300J0D01*
G01*
X161370300Y-64895000D01*
G75*
G02*
X161361000Y-64885700I0J9300D01*
G01*
X161361000Y-64284300D01*
G75*
G02*
X161370300Y-64275000I9300J0D01*
G01*
G37*
G36*
G01*
X161370300Y-63375000D02*
X161971700Y-63375000D01*
G75*
G02*
X161981000Y-63384300I0J-9300D01*
G01*
X161981000Y-63985700D01*
G75*
G02*
X161971700Y-63995000I-9300J0D01*
G01*
X161370300Y-63995000D01*
G75*
G02*
X161361000Y-63985700I0J9300D01*
G01*
X161361000Y-63384300D01*
G75*
G02*
X161370300Y-63375000I9300J0D01*
G01*
G37*
G36*
G01*
X134060750Y-116696000D02*
X132639250Y-116696000D01*
G75*
G02*
X132625000Y-116681750I0J14250D01*
G01*
X132625000Y-115760250D01*
G75*
G02*
X132639250Y-115746000I14250J0D01*
G01*
X134060750Y-115746000D01*
G75*
G02*
X134075000Y-115760250I0J-14250D01*
G01*
X134075000Y-116681750D01*
G75*
G02*
X134060750Y-116696000I-14250J0D01*
G01*
G37*
G36*
G01*
X134060750Y-118696000D02*
X132639250Y-118696000D01*
G75*
G02*
X132625000Y-118681750I0J14250D01*
G01*
X132625000Y-117760250D01*
G75*
G02*
X132639250Y-117746000I14250J0D01*
G01*
X134060750Y-117746000D01*
G75*
G02*
X134075000Y-117760250I0J-14250D01*
G01*
X134075000Y-118681750D01*
G75*
G02*
X134060750Y-118696000I-14250J0D01*
G01*
G37*
G36*
G01*
X143239000Y-108890250D02*
X143239000Y-110311750D01*
G75*
G02*
X143224750Y-110326000I-14250J0D01*
G01*
X142303250Y-110326000D01*
G75*
G02*
X142289000Y-110311750I0J14250D01*
G01*
X142289000Y-108890250D01*
G75*
G02*
X142303250Y-108876000I14250J0D01*
G01*
X143224750Y-108876000D01*
G75*
G02*
X143239000Y-108890250I0J-14250D01*
G01*
G37*
G36*
G01*
X145239000Y-108890250D02*
X145239000Y-110311750D01*
G75*
G02*
X145224750Y-110326000I-14250J0D01*
G01*
X144303250Y-110326000D01*
G75*
G02*
X144289000Y-110311750I0J14250D01*
G01*
X144289000Y-108890250D01*
G75*
G02*
X144303250Y-108876000I14250J0D01*
G01*
X145224750Y-108876000D01*
G75*
G02*
X145239000Y-108890250I0J-14250D01*
G01*
G37*
G36*
G01*
X143239000Y-111938250D02*
X143239000Y-113359750D01*
G75*
G02*
X143224750Y-113374000I-14250J0D01*
G01*
X142303250Y-113374000D01*
G75*
G02*
X142289000Y-113359750I0J14250D01*
G01*
X142289000Y-111938250D01*
G75*
G02*
X142303250Y-111924000I14250J0D01*
G01*
X143224750Y-111924000D01*
G75*
G02*
X143239000Y-111938250I0J-14250D01*
G01*
G37*
G36*
G01*
X145239000Y-111938250D02*
X145239000Y-113359750D01*
G75*
G02*
X145224750Y-113374000I-14250J0D01*
G01*
X144303250Y-113374000D01*
G75*
G02*
X144289000Y-113359750I0J14250D01*
G01*
X144289000Y-111938250D01*
G75*
G02*
X144303250Y-111924000I14250J0D01*
G01*
X145224750Y-111924000D01*
G75*
G02*
X145239000Y-111938250I0J-14250D01*
G01*
G37*
G36*
G01*
X139937000Y-117780250D02*
X139937000Y-119201750D01*
G75*
G02*
X139922750Y-119216000I-14250J0D01*
G01*
X139001250Y-119216000D01*
G75*
G02*
X138987000Y-119201750I0J14250D01*
G01*
X138987000Y-117780250D01*
G75*
G02*
X139001250Y-117766000I14250J0D01*
G01*
X139922750Y-117766000D01*
G75*
G02*
X139937000Y-117780250I0J-14250D01*
G01*
G37*
G36*
G01*
X141937000Y-117780250D02*
X141937000Y-119201750D01*
G75*
G02*
X141922750Y-119216000I-14250J0D01*
G01*
X141001250Y-119216000D01*
G75*
G02*
X140987000Y-119201750I0J14250D01*
G01*
X140987000Y-117780250D01*
G75*
G02*
X141001250Y-117766000I14250J0D01*
G01*
X141922750Y-117766000D01*
G75*
G02*
X141937000Y-117780250I0J-14250D01*
G01*
G37*
G36*
G01*
X136632000Y-87295500D02*
X136632000Y-88218500D01*
G75*
G02*
X136618500Y-88232000I-13500J0D01*
G01*
X135745500Y-88232000D01*
G75*
G02*
X135732000Y-88218500I0J13500D01*
G01*
X135732000Y-87295500D01*
G75*
G02*
X135745500Y-87282000I13500J0D01*
G01*
X136618500Y-87282000D01*
G75*
G02*
X136632000Y-87295500I0J-13500D01*
G01*
G37*
G36*
G01*
X135032000Y-87295500D02*
X135032000Y-88218500D01*
G75*
G02*
X135018500Y-88232000I-13500J0D01*
G01*
X134145500Y-88232000D01*
G75*
G02*
X134132000Y-88218500I0J13500D01*
G01*
X134132000Y-87295500D01*
G75*
G02*
X134145500Y-87282000I13500J0D01*
G01*
X135018500Y-87282000D01*
G75*
G02*
X135032000Y-87295500I0J-13500D01*
G01*
G37*
G36*
G01*
X162132300Y-97411000D02*
X162733700Y-97411000D01*
G75*
G02*
X162743000Y-97420300I0J-9300D01*
G01*
X162743000Y-98021700D01*
G75*
G02*
X162733700Y-98031000I-9300J0D01*
G01*
X162132300Y-98031000D01*
G75*
G02*
X162123000Y-98021700I0J9300D01*
G01*
X162123000Y-97420300D01*
G75*
G02*
X162132300Y-97411000I9300J0D01*
G01*
G37*
G36*
G01*
X162132300Y-98311000D02*
X162733700Y-98311000D01*
G75*
G02*
X162743000Y-98320300I0J-9300D01*
G01*
X162743000Y-98921700D01*
G75*
G02*
X162733700Y-98931000I-9300J0D01*
G01*
X162132300Y-98931000D01*
G75*
G02*
X162123000Y-98921700I0J9300D01*
G01*
X162123000Y-98320300D01*
G75*
G02*
X162132300Y-98311000I9300J0D01*
G01*
G37*
D18*
X166116000Y-102234000D03*
X166116000Y-98934000D03*
G36*
G01*
X155274300Y-81663000D02*
X155875700Y-81663000D01*
G75*
G02*
X155885000Y-81672300I0J-9300D01*
G01*
X155885000Y-82273700D01*
G75*
G02*
X155875700Y-82283000I-9300J0D01*
G01*
X155274300Y-82283000D01*
G75*
G02*
X155265000Y-82273700I0J9300D01*
G01*
X155265000Y-81672300D01*
G75*
G02*
X155274300Y-81663000I9300J0D01*
G01*
G37*
G36*
G01*
X155274300Y-82563000D02*
X155875700Y-82563000D01*
G75*
G02*
X155885000Y-82572300I0J-9300D01*
G01*
X155885000Y-83173700D01*
G75*
G02*
X155875700Y-83183000I-9300J0D01*
G01*
X155274300Y-83183000D01*
G75*
G02*
X155265000Y-83173700I0J9300D01*
G01*
X155265000Y-82572300D01*
G75*
G02*
X155274300Y-82563000I9300J0D01*
G01*
G37*
D19*
X155955000Y-86741000D03*
X152655000Y-86741000D03*
G36*
G01*
X133146160Y-100817800D02*
X132537840Y-100817800D01*
G75*
G02*
X132418200Y-100698160I0J119640D01*
G01*
X132418200Y-100139840D01*
G75*
G02*
X132537840Y-100020200I119640J0D01*
G01*
X133146160Y-100020200D01*
G75*
G02*
X133265800Y-100139840I0J-119640D01*
G01*
X133265800Y-100698160D01*
G75*
G02*
X133146160Y-100817800I-119640J0D01*
G01*
G37*
G36*
G01*
X133146160Y-102417800D02*
X132537840Y-102417800D01*
G75*
G02*
X132418200Y-102298160I0J119640D01*
G01*
X132418200Y-101739840D01*
G75*
G02*
X132537840Y-101620200I119640J0D01*
G01*
X133146160Y-101620200D01*
G75*
G02*
X133265800Y-101739840I0J-119640D01*
G01*
X133265800Y-102298160D01*
G75*
G02*
X133146160Y-102417800I-119640J0D01*
G01*
G37*
G36*
G01*
X140512160Y-103103800D02*
X139903840Y-103103800D01*
G75*
G02*
X139784200Y-102984160I0J119640D01*
G01*
X139784200Y-102425840D01*
G75*
G02*
X139903840Y-102306200I119640J0D01*
G01*
X140512160Y-102306200D01*
G75*
G02*
X140631800Y-102425840I0J-119640D01*
G01*
X140631800Y-102984160D01*
G75*
G02*
X140512160Y-103103800I-119640J0D01*
G01*
G37*
G36*
G01*
X140512160Y-104703800D02*
X139903840Y-104703800D01*
G75*
G02*
X139784200Y-104584160I0J119640D01*
G01*
X139784200Y-104025840D01*
G75*
G02*
X139903840Y-103906200I119640J0D01*
G01*
X140512160Y-103906200D01*
G75*
G02*
X140631800Y-104025840I0J-119640D01*
G01*
X140631800Y-104584160D01*
G75*
G02*
X140512160Y-104703800I-119640J0D01*
G01*
G37*
G36*
G01*
X145140800Y-99898840D02*
X145140800Y-100507160D01*
G75*
G02*
X145021160Y-100626800I-119640J0D01*
G01*
X144462840Y-100626800D01*
G75*
G02*
X144343200Y-100507160I0J119640D01*
G01*
X144343200Y-99898840D01*
G75*
G02*
X144462840Y-99779200I119640J0D01*
G01*
X145021160Y-99779200D01*
G75*
G02*
X145140800Y-99898840I0J-119640D01*
G01*
G37*
G36*
G01*
X146740800Y-99898840D02*
X146740800Y-100507160D01*
G75*
G02*
X146621160Y-100626800I-119640J0D01*
G01*
X146062840Y-100626800D01*
G75*
G02*
X145943200Y-100507160I0J119640D01*
G01*
X145943200Y-99898840D01*
G75*
G02*
X146062840Y-99779200I119640J0D01*
G01*
X146621160Y-99779200D01*
G75*
G02*
X146740800Y-99898840I0J-119640D01*
G01*
G37*
G36*
G01*
X156865200Y-62153160D02*
X156865200Y-61544840D01*
G75*
G02*
X156984840Y-61425200I119640J0D01*
G01*
X157543160Y-61425200D01*
G75*
G02*
X157662800Y-61544840I0J-119640D01*
G01*
X157662800Y-62153160D01*
G75*
G02*
X157543160Y-62272800I-119640J0D01*
G01*
X156984840Y-62272800D01*
G75*
G02*
X156865200Y-62153160I0J119640D01*
G01*
G37*
G36*
G01*
X155265200Y-62153160D02*
X155265200Y-61544840D01*
G75*
G02*
X155384840Y-61425200I119640J0D01*
G01*
X155943160Y-61425200D01*
G75*
G02*
X156062800Y-61544840I0J-119640D01*
G01*
X156062800Y-62153160D01*
G75*
G02*
X155943160Y-62272800I-119640J0D01*
G01*
X155384840Y-62272800D01*
G75*
G02*
X155265200Y-62153160I0J119640D01*
G01*
G37*
G36*
G01*
X156865200Y-68503160D02*
X156865200Y-67894840D01*
G75*
G02*
X156984840Y-67775200I119640J0D01*
G01*
X157543160Y-67775200D01*
G75*
G02*
X157662800Y-67894840I0J-119640D01*
G01*
X157662800Y-68503160D01*
G75*
G02*
X157543160Y-68622800I-119640J0D01*
G01*
X156984840Y-68622800D01*
G75*
G02*
X156865200Y-68503160I0J119640D01*
G01*
G37*
G36*
G01*
X155265200Y-68503160D02*
X155265200Y-67894840D01*
G75*
G02*
X155384840Y-67775200I119640J0D01*
G01*
X155943160Y-67775200D01*
G75*
G02*
X156062800Y-67894840I0J-119640D01*
G01*
X156062800Y-68503160D01*
G75*
G02*
X155943160Y-68622800I-119640J0D01*
G01*
X155384840Y-68622800D01*
G75*
G02*
X155265200Y-68503160I0J119640D01*
G01*
G37*
G36*
G01*
X145140800Y-101930840D02*
X145140800Y-102539160D01*
G75*
G02*
X145021160Y-102658800I-119640J0D01*
G01*
X144462840Y-102658800D01*
G75*
G02*
X144343200Y-102539160I0J119640D01*
G01*
X144343200Y-101930840D01*
G75*
G02*
X144462840Y-101811200I119640J0D01*
G01*
X145021160Y-101811200D01*
G75*
G02*
X145140800Y-101930840I0J-119640D01*
G01*
G37*
G36*
G01*
X146740800Y-101930840D02*
X146740800Y-102539160D01*
G75*
G02*
X146621160Y-102658800I-119640J0D01*
G01*
X146062840Y-102658800D01*
G75*
G02*
X145943200Y-102539160I0J119640D01*
G01*
X145943200Y-101930840D01*
G75*
G02*
X146062840Y-101811200I119640J0D01*
G01*
X146621160Y-101811200D01*
G75*
G02*
X146740800Y-101930840I0J-119640D01*
G01*
G37*
G36*
G01*
X143362800Y-107137840D02*
X143362800Y-107746160D01*
G75*
G02*
X143243160Y-107865800I-119640J0D01*
G01*
X142684840Y-107865800D01*
G75*
G02*
X142565200Y-107746160I0J119640D01*
G01*
X142565200Y-107137840D01*
G75*
G02*
X142684840Y-107018200I119640J0D01*
G01*
X143243160Y-107018200D01*
G75*
G02*
X143362800Y-107137840I0J-119640D01*
G01*
G37*
G36*
G01*
X144962800Y-107137840D02*
X144962800Y-107746160D01*
G75*
G02*
X144843160Y-107865800I-119640J0D01*
G01*
X144284840Y-107865800D01*
G75*
G02*
X144165200Y-107746160I0J119640D01*
G01*
X144165200Y-107137840D01*
G75*
G02*
X144284840Y-107018200I119640J0D01*
G01*
X144843160Y-107018200D01*
G75*
G02*
X144962800Y-107137840I0J-119640D01*
G01*
G37*
G36*
G01*
X132537840Y-105430200D02*
X133146160Y-105430200D01*
G75*
G02*
X133265800Y-105549840I0J-119640D01*
G01*
X133265800Y-106108160D01*
G75*
G02*
X133146160Y-106227800I-119640J0D01*
G01*
X132537840Y-106227800D01*
G75*
G02*
X132418200Y-106108160I0J119640D01*
G01*
X132418200Y-105549840D01*
G75*
G02*
X132537840Y-105430200I119640J0D01*
G01*
G37*
G36*
G01*
X132537840Y-103830200D02*
X133146160Y-103830200D01*
G75*
G02*
X133265800Y-103949840I0J-119640D01*
G01*
X133265800Y-104508160D01*
G75*
G02*
X133146160Y-104627800I-119640J0D01*
G01*
X132537840Y-104627800D01*
G75*
G02*
X132418200Y-104508160I0J119640D01*
G01*
X132418200Y-103949840D01*
G75*
G02*
X132537840Y-103830200I119640J0D01*
G01*
G37*
G36*
G01*
X143362800Y-105105840D02*
X143362800Y-105714160D01*
G75*
G02*
X143243160Y-105833800I-119640J0D01*
G01*
X142684840Y-105833800D01*
G75*
G02*
X142565200Y-105714160I0J119640D01*
G01*
X142565200Y-105105840D01*
G75*
G02*
X142684840Y-104986200I119640J0D01*
G01*
X143243160Y-104986200D01*
G75*
G02*
X143362800Y-105105840I0J-119640D01*
G01*
G37*
G36*
G01*
X144962800Y-105105840D02*
X144962800Y-105714160D01*
G75*
G02*
X144843160Y-105833800I-119640J0D01*
G01*
X144284840Y-105833800D01*
G75*
G02*
X144165200Y-105714160I0J119640D01*
G01*
X144165200Y-105105840D01*
G75*
G02*
X144284840Y-104986200I119640J0D01*
G01*
X144843160Y-104986200D01*
G75*
G02*
X144962800Y-105105840I0J-119640D01*
G01*
G37*
G36*
G01*
X149784250Y-109364000D02*
X151205750Y-109364000D01*
G75*
G02*
X151220000Y-109378250I0J-14250D01*
G01*
X151220000Y-110299750D01*
G75*
G02*
X151205750Y-110314000I-14250J0D01*
G01*
X149784250Y-110314000D01*
G75*
G02*
X149770000Y-110299750I0J14250D01*
G01*
X149770000Y-109378250D01*
G75*
G02*
X149784250Y-109364000I14250J0D01*
G01*
G37*
G36*
G01*
X149784250Y-107364000D02*
X151205750Y-107364000D01*
G75*
G02*
X151220000Y-107378250I0J-14250D01*
G01*
X151220000Y-108299750D01*
G75*
G02*
X151205750Y-108314000I-14250J0D01*
G01*
X149784250Y-108314000D01*
G75*
G02*
X149770000Y-108299750I0J14250D01*
G01*
X149770000Y-107378250D01*
G75*
G02*
X149784250Y-107364000I14250J0D01*
G01*
G37*
G36*
G01*
X152226300Y-109741000D02*
X152827700Y-109741000D01*
G75*
G02*
X152837000Y-109750300I0J-9300D01*
G01*
X152837000Y-110351700D01*
G75*
G02*
X152827700Y-110361000I-9300J0D01*
G01*
X152226300Y-110361000D01*
G75*
G02*
X152217000Y-110351700I0J9300D01*
G01*
X152217000Y-109750300D01*
G75*
G02*
X152226300Y-109741000I9300J0D01*
G01*
G37*
G36*
G01*
X152226300Y-108841000D02*
X152827700Y-108841000D01*
G75*
G02*
X152837000Y-108850300I0J-9300D01*
G01*
X152837000Y-109451700D01*
G75*
G02*
X152827700Y-109461000I-9300J0D01*
G01*
X152226300Y-109461000D01*
G75*
G02*
X152217000Y-109451700I0J9300D01*
G01*
X152217000Y-108850300D01*
G75*
G02*
X152226300Y-108841000I9300J0D01*
G01*
G37*
G36*
G01*
X148763700Y-109461000D02*
X148162300Y-109461000D01*
G75*
G02*
X148153000Y-109451700I0J9300D01*
G01*
X148153000Y-108850300D01*
G75*
G02*
X148162300Y-108841000I9300J0D01*
G01*
X148763700Y-108841000D01*
G75*
G02*
X148773000Y-108850300I0J-9300D01*
G01*
X148773000Y-109451700D01*
G75*
G02*
X148763700Y-109461000I-9300J0D01*
G01*
G37*
G36*
G01*
X148763700Y-110361000D02*
X148162300Y-110361000D01*
G75*
G02*
X148153000Y-110351700I0J9300D01*
G01*
X148153000Y-109750300D01*
G75*
G02*
X148162300Y-109741000I9300J0D01*
G01*
X148763700Y-109741000D01*
G75*
G02*
X148773000Y-109750300I0J-9300D01*
G01*
X148773000Y-110351700D01*
G75*
G02*
X148763700Y-110361000I-9300J0D01*
G01*
G37*
G36*
G01*
X154127840Y-109367200D02*
X154736160Y-109367200D01*
G75*
G02*
X154855800Y-109486840I0J-119640D01*
G01*
X154855800Y-110045160D01*
G75*
G02*
X154736160Y-110164800I-119640J0D01*
G01*
X154127840Y-110164800D01*
G75*
G02*
X154008200Y-110045160I0J119640D01*
G01*
X154008200Y-109486840D01*
G75*
G02*
X154127840Y-109367200I119640J0D01*
G01*
G37*
G36*
G01*
X154127840Y-107767200D02*
X154736160Y-107767200D01*
G75*
G02*
X154855800Y-107886840I0J-119640D01*
G01*
X154855800Y-108445160D01*
G75*
G02*
X154736160Y-108564800I-119640J0D01*
G01*
X154127840Y-108564800D01*
G75*
G02*
X154008200Y-108445160I0J119640D01*
G01*
X154008200Y-107886840D01*
G75*
G02*
X154127840Y-107767200I119640J0D01*
G01*
G37*
G36*
G01*
X155880250Y-109237000D02*
X157301750Y-109237000D01*
G75*
G02*
X157316000Y-109251250I0J-14250D01*
G01*
X157316000Y-110172750D01*
G75*
G02*
X157301750Y-110187000I-14250J0D01*
G01*
X155880250Y-110187000D01*
G75*
G02*
X155866000Y-110172750I0J14250D01*
G01*
X155866000Y-109251250D01*
G75*
G02*
X155880250Y-109237000I14250J0D01*
G01*
G37*
G36*
G01*
X155880250Y-107237000D02*
X157301750Y-107237000D01*
G75*
G02*
X157316000Y-107251250I0J-14250D01*
G01*
X157316000Y-108172750D01*
G75*
G02*
X157301750Y-108187000I-14250J0D01*
G01*
X155880250Y-108187000D01*
G75*
G02*
X155866000Y-108172750I0J14250D01*
G01*
X155866000Y-107251250D01*
G75*
G02*
X155880250Y-107237000I14250J0D01*
G01*
G37*
G36*
G01*
X148763700Y-112382000D02*
X148162300Y-112382000D01*
G75*
G02*
X148153000Y-112372700I0J9300D01*
G01*
X148153000Y-111771300D01*
G75*
G02*
X148162300Y-111762000I9300J0D01*
G01*
X148763700Y-111762000D01*
G75*
G02*
X148773000Y-111771300I0J-9300D01*
G01*
X148773000Y-112372700D01*
G75*
G02*
X148763700Y-112382000I-9300J0D01*
G01*
G37*
G36*
G01*
X148763700Y-113282000D02*
X148162300Y-113282000D01*
G75*
G02*
X148153000Y-113272700I0J9300D01*
G01*
X148153000Y-112671300D01*
G75*
G02*
X148162300Y-112662000I9300J0D01*
G01*
X148763700Y-112662000D01*
G75*
G02*
X148773000Y-112671300I0J-9300D01*
G01*
X148773000Y-113272700D01*
G75*
G02*
X148763700Y-113282000I-9300J0D01*
G01*
G37*
G36*
G01*
X154127840Y-113558200D02*
X154736160Y-113558200D01*
G75*
G02*
X154855800Y-113677840I0J-119640D01*
G01*
X154855800Y-114236160D01*
G75*
G02*
X154736160Y-114355800I-119640J0D01*
G01*
X154127840Y-114355800D01*
G75*
G02*
X154008200Y-114236160I0J119640D01*
G01*
X154008200Y-113677840D01*
G75*
G02*
X154127840Y-113558200I119640J0D01*
G01*
G37*
G36*
G01*
X154127840Y-111958200D02*
X154736160Y-111958200D01*
G75*
G02*
X154855800Y-112077840I0J-119640D01*
G01*
X154855800Y-112636160D01*
G75*
G02*
X154736160Y-112755800I-119640J0D01*
G01*
X154127840Y-112755800D01*
G75*
G02*
X154008200Y-112636160I0J119640D01*
G01*
X154008200Y-112077840D01*
G75*
G02*
X154127840Y-111958200I119640J0D01*
G01*
G37*
G36*
G01*
X155880250Y-113809000D02*
X157301750Y-113809000D01*
G75*
G02*
X157316000Y-113823250I0J-14250D01*
G01*
X157316000Y-114744750D01*
G75*
G02*
X157301750Y-114759000I-14250J0D01*
G01*
X155880250Y-114759000D01*
G75*
G02*
X155866000Y-114744750I0J14250D01*
G01*
X155866000Y-113823250D01*
G75*
G02*
X155880250Y-113809000I14250J0D01*
G01*
G37*
G36*
G01*
X155880250Y-111809000D02*
X157301750Y-111809000D01*
G75*
G02*
X157316000Y-111823250I0J-14250D01*
G01*
X157316000Y-112744750D01*
G75*
G02*
X157301750Y-112759000I-14250J0D01*
G01*
X155880250Y-112759000D01*
G75*
G02*
X155866000Y-112744750I0J14250D01*
G01*
X155866000Y-111823250D01*
G75*
G02*
X155880250Y-111809000I14250J0D01*
G01*
G37*
G36*
G01*
X143814160Y-121391800D02*
X143205840Y-121391800D01*
G75*
G02*
X143086200Y-121272160I0J119640D01*
G01*
X143086200Y-120713840D01*
G75*
G02*
X143205840Y-120594200I119640J0D01*
G01*
X143814160Y-120594200D01*
G75*
G02*
X143933800Y-120713840I0J-119640D01*
G01*
X143933800Y-121272160D01*
G75*
G02*
X143814160Y-121391800I-119640J0D01*
G01*
G37*
G36*
G01*
X143814160Y-122991800D02*
X143205840Y-122991800D01*
G75*
G02*
X143086200Y-122872160I0J119640D01*
G01*
X143086200Y-122313840D01*
G75*
G02*
X143205840Y-122194200I119640J0D01*
G01*
X143814160Y-122194200D01*
G75*
G02*
X143933800Y-122313840I0J-119640D01*
G01*
X143933800Y-122872160D01*
G75*
G02*
X143814160Y-122991800I-119640J0D01*
G01*
G37*
G36*
G01*
X152226300Y-112662000D02*
X152827700Y-112662000D01*
G75*
G02*
X152837000Y-112671300I0J-9300D01*
G01*
X152837000Y-113272700D01*
G75*
G02*
X152827700Y-113282000I-9300J0D01*
G01*
X152226300Y-113282000D01*
G75*
G02*
X152217000Y-113272700I0J9300D01*
G01*
X152217000Y-112671300D01*
G75*
G02*
X152226300Y-112662000I9300J0D01*
G01*
G37*
G36*
G01*
X152226300Y-111762000D02*
X152827700Y-111762000D01*
G75*
G02*
X152837000Y-111771300I0J-9300D01*
G01*
X152837000Y-112372700D01*
G75*
G02*
X152827700Y-112382000I-9300J0D01*
G01*
X152226300Y-112382000D01*
G75*
G02*
X152217000Y-112372700I0J9300D01*
G01*
X152217000Y-111771300D01*
G75*
G02*
X152226300Y-111762000I9300J0D01*
G01*
G37*
G36*
G01*
X135585840Y-117495200D02*
X136194160Y-117495200D01*
G75*
G02*
X136313800Y-117614840I0J-119640D01*
G01*
X136313800Y-118173160D01*
G75*
G02*
X136194160Y-118292800I-119640J0D01*
G01*
X135585840Y-118292800D01*
G75*
G02*
X135466200Y-118173160I0J119640D01*
G01*
X135466200Y-117614840D01*
G75*
G02*
X135585840Y-117495200I119640J0D01*
G01*
G37*
G36*
G01*
X135585840Y-115895200D02*
X136194160Y-115895200D01*
G75*
G02*
X136313800Y-116014840I0J-119640D01*
G01*
X136313800Y-116573160D01*
G75*
G02*
X136194160Y-116692800I-119640J0D01*
G01*
X135585840Y-116692800D01*
G75*
G02*
X135466200Y-116573160I0J119640D01*
G01*
X135466200Y-116014840D01*
G75*
G02*
X135585840Y-115895200I119640J0D01*
G01*
G37*
G36*
G01*
X141909160Y-121391800D02*
X141300840Y-121391800D01*
G75*
G02*
X141181200Y-121272160I0J119640D01*
G01*
X141181200Y-120713840D01*
G75*
G02*
X141300840Y-120594200I119640J0D01*
G01*
X141909160Y-120594200D01*
G75*
G02*
X142028800Y-120713840I0J-119640D01*
G01*
X142028800Y-121272160D01*
G75*
G02*
X141909160Y-121391800I-119640J0D01*
G01*
G37*
G36*
G01*
X141909160Y-122991800D02*
X141300840Y-122991800D01*
G75*
G02*
X141181200Y-122872160I0J119640D01*
G01*
X141181200Y-122313840D01*
G75*
G02*
X141300840Y-122194200I119640J0D01*
G01*
X141909160Y-122194200D01*
G75*
G02*
X142028800Y-122313840I0J-119640D01*
G01*
X142028800Y-122872160D01*
G75*
G02*
X141909160Y-122991800I-119640J0D01*
G01*
G37*
G36*
G01*
X139750160Y-121391800D02*
X139141840Y-121391800D01*
G75*
G02*
X139022200Y-121272160I0J119640D01*
G01*
X139022200Y-120713840D01*
G75*
G02*
X139141840Y-120594200I119640J0D01*
G01*
X139750160Y-120594200D01*
G75*
G02*
X139869800Y-120713840I0J-119640D01*
G01*
X139869800Y-121272160D01*
G75*
G02*
X139750160Y-121391800I-119640J0D01*
G01*
G37*
G36*
G01*
X139750160Y-122991800D02*
X139141840Y-122991800D01*
G75*
G02*
X139022200Y-122872160I0J119640D01*
G01*
X139022200Y-122313840D01*
G75*
G02*
X139141840Y-122194200I119640J0D01*
G01*
X139750160Y-122194200D01*
G75*
G02*
X139869800Y-122313840I0J-119640D01*
G01*
X139869800Y-122872160D01*
G75*
G02*
X139750160Y-122991800I-119640J0D01*
G01*
G37*
G36*
G01*
X139933800Y-115773840D02*
X139933800Y-116382160D01*
G75*
G02*
X139814160Y-116501800I-119640J0D01*
G01*
X139255840Y-116501800D01*
G75*
G02*
X139136200Y-116382160I0J119640D01*
G01*
X139136200Y-115773840D01*
G75*
G02*
X139255840Y-115654200I119640J0D01*
G01*
X139814160Y-115654200D01*
G75*
G02*
X139933800Y-115773840I0J-119640D01*
G01*
G37*
G36*
G01*
X141533800Y-115773840D02*
X141533800Y-116382160D01*
G75*
G02*
X141414160Y-116501800I-119640J0D01*
G01*
X140855840Y-116501800D01*
G75*
G02*
X140736200Y-116382160I0J119640D01*
G01*
X140736200Y-115773840D01*
G75*
G02*
X140855840Y-115654200I119640J0D01*
G01*
X141414160Y-115654200D01*
G75*
G02*
X141533800Y-115773840I0J-119640D01*
G01*
G37*
G36*
G01*
X137109840Y-122194200D02*
X137718160Y-122194200D01*
G75*
G02*
X137837800Y-122313840I0J-119640D01*
G01*
X137837800Y-122872160D01*
G75*
G02*
X137718160Y-122991800I-119640J0D01*
G01*
X137109840Y-122991800D01*
G75*
G02*
X136990200Y-122872160I0J119640D01*
G01*
X136990200Y-122313840D01*
G75*
G02*
X137109840Y-122194200I119640J0D01*
G01*
G37*
G36*
G01*
X137109840Y-120594200D02*
X137718160Y-120594200D01*
G75*
G02*
X137837800Y-120713840I0J-119640D01*
G01*
X137837800Y-121272160D01*
G75*
G02*
X137718160Y-121391800I-119640J0D01*
G01*
X137109840Y-121391800D01*
G75*
G02*
X136990200Y-121272160I0J119640D01*
G01*
X136990200Y-120713840D01*
G75*
G02*
X137109840Y-120594200I119640J0D01*
G01*
G37*
G36*
G01*
X152549300Y-82563000D02*
X153150700Y-82563000D01*
G75*
G02*
X153160000Y-82572300I0J-9300D01*
G01*
X153160000Y-83173700D01*
G75*
G02*
X153150700Y-83183000I-9300J0D01*
G01*
X152549300Y-83183000D01*
G75*
G02*
X152540000Y-83173700I0J9300D01*
G01*
X152540000Y-82572300D01*
G75*
G02*
X152549300Y-82563000I9300J0D01*
G01*
G37*
G36*
G01*
X152549300Y-81663000D02*
X153150700Y-81663000D01*
G75*
G02*
X153160000Y-81672300I0J-9300D01*
G01*
X153160000Y-82273700D01*
G75*
G02*
X153150700Y-82283000I-9300J0D01*
G01*
X152549300Y-82283000D01*
G75*
G02*
X152540000Y-82273700I0J9300D01*
G01*
X152540000Y-81672300D01*
G75*
G02*
X152549300Y-81663000I9300J0D01*
G01*
G37*
G36*
G01*
X171409360Y-97331800D02*
X170474640Y-97331800D01*
G75*
G02*
X170383200Y-97240360I0J91440D01*
G01*
X170383200Y-96813640D01*
G75*
G02*
X170474640Y-96722200I91440J0D01*
G01*
X171409360Y-96722200D01*
G75*
G02*
X171500800Y-96813640I0J-91440D01*
G01*
X171500800Y-97240360D01*
G75*
G02*
X171409360Y-97331800I-91440J0D01*
G01*
G37*
G36*
G01*
X169748200Y-95576160D02*
X169748200Y-93777840D01*
G75*
G02*
X170106340Y-93419700I358140J0D01*
G01*
X171777660Y-93419700D01*
G75*
G02*
X172135800Y-93777840I0J-358140D01*
G01*
X172135800Y-95576160D01*
G75*
G02*
X171777660Y-95934300I-358140J0D01*
G01*
X170106340Y-95934300D01*
G75*
G02*
X169748200Y-95576160I0J358140D01*
G01*
G37*
G36*
G01*
X173331800Y-77822174D02*
X173331800Y-78213826D01*
G75*
G02*
X173278826Y-78266800I-52974J0D01*
G01*
X173037174Y-78266800D01*
G75*
G02*
X172984200Y-78213826I0J52974D01*
G01*
X172984200Y-77822174D01*
G75*
G02*
X173037174Y-77769200I52974J0D01*
G01*
X173278826Y-77769200D01*
G75*
G02*
X173331800Y-77822174I0J-52974D01*
G01*
G37*
G36*
G01*
X172531800Y-77822174D02*
X172531800Y-78213826D01*
G75*
G02*
X172478826Y-78266800I-52974J0D01*
G01*
X172237174Y-78266800D01*
G75*
G02*
X172184200Y-78213826I0J52974D01*
G01*
X172184200Y-77822174D01*
G75*
G02*
X172237174Y-77769200I52974J0D01*
G01*
X172478826Y-77769200D01*
G75*
G02*
X172531800Y-77822174I0J-52974D01*
G01*
G37*
G36*
G01*
X171731800Y-77822174D02*
X171731800Y-78213826D01*
G75*
G02*
X171678826Y-78266800I-52974J0D01*
G01*
X171437174Y-78266800D01*
G75*
G02*
X171384200Y-78213826I0J52974D01*
G01*
X171384200Y-77822174D01*
G75*
G02*
X171437174Y-77769200I52974J0D01*
G01*
X171678826Y-77769200D01*
G75*
G02*
X171731800Y-77822174I0J-52974D01*
G01*
G37*
G36*
G01*
X170931800Y-77822174D02*
X170931800Y-78213826D01*
G75*
G02*
X170878826Y-78266800I-52974J0D01*
G01*
X170637174Y-78266800D01*
G75*
G02*
X170584200Y-78213826I0J52974D01*
G01*
X170584200Y-77822174D01*
G75*
G02*
X170637174Y-77769200I52974J0D01*
G01*
X170878826Y-77769200D01*
G75*
G02*
X170931800Y-77822174I0J-52974D01*
G01*
G37*
G36*
G01*
X170931800Y-76472174D02*
X170931800Y-76863826D01*
G75*
G02*
X170878826Y-76916800I-52974J0D01*
G01*
X170637174Y-76916800D01*
G75*
G02*
X170584200Y-76863826I0J52974D01*
G01*
X170584200Y-76472174D01*
G75*
G02*
X170637174Y-76419200I52974J0D01*
G01*
X170878826Y-76419200D01*
G75*
G02*
X170931800Y-76472174I0J-52974D01*
G01*
G37*
G36*
G01*
X171731800Y-76472174D02*
X171731800Y-76863826D01*
G75*
G02*
X171678826Y-76916800I-52974J0D01*
G01*
X171437174Y-76916800D01*
G75*
G02*
X171384200Y-76863826I0J52974D01*
G01*
X171384200Y-76472174D01*
G75*
G02*
X171437174Y-76419200I52974J0D01*
G01*
X171678826Y-76419200D01*
G75*
G02*
X171731800Y-76472174I0J-52974D01*
G01*
G37*
G36*
G01*
X172531800Y-76472174D02*
X172531800Y-76863826D01*
G75*
G02*
X172478826Y-76916800I-52974J0D01*
G01*
X172237174Y-76916800D01*
G75*
G02*
X172184200Y-76863826I0J52974D01*
G01*
X172184200Y-76472174D01*
G75*
G02*
X172237174Y-76419200I52974J0D01*
G01*
X172478826Y-76419200D01*
G75*
G02*
X172531800Y-76472174I0J-52974D01*
G01*
G37*
G36*
G01*
X173331800Y-76472174D02*
X173331800Y-76863826D01*
G75*
G02*
X173278826Y-76916800I-52974J0D01*
G01*
X173037174Y-76916800D01*
G75*
G02*
X172984200Y-76863826I0J52974D01*
G01*
X172984200Y-76472174D01*
G75*
G02*
X173037174Y-76419200I52974J0D01*
G01*
X173278826Y-76419200D01*
G75*
G02*
X173331800Y-76472174I0J-52974D01*
G01*
G37*
D13*
X163068000Y-109348000D03*
X163068000Y-108838000D03*
D20*
X169703000Y-108092000D03*
X169703000Y-113142000D03*
D21*
X167408000Y-109992000D03*
X167408000Y-111242000D03*
D22*
X159140000Y-72638000D03*
X159140000Y-73438000D03*
X159140000Y-74238000D03*
X159140000Y-75038000D03*
X159140000Y-75838000D03*
X159140000Y-76638000D03*
X159140000Y-77438000D03*
X159140000Y-78238000D03*
D23*
X157740000Y-79638000D03*
X156940000Y-79638000D03*
X156140000Y-79638000D03*
X155340000Y-79638000D03*
X154540000Y-79638000D03*
X153740000Y-79638000D03*
X152940000Y-79638000D03*
X152140000Y-79638000D03*
D22*
X150740000Y-78238000D03*
X150740000Y-77438000D03*
X150740000Y-76638000D03*
X150740000Y-75838000D03*
X150740000Y-75038000D03*
X150740000Y-74238000D03*
X150740000Y-73438000D03*
D23*
X152140000Y-71238000D03*
X152940000Y-71238000D03*
X153740000Y-71238000D03*
X154540000Y-71238000D03*
X155340000Y-71238000D03*
X156140000Y-71238000D03*
X156940000Y-71238000D03*
X157740000Y-71238000D03*
D22*
X150740000Y-72638000D03*
D24*
X172373000Y-88055000D03*
X171723000Y-88055000D03*
X171073000Y-88055000D03*
X170423000Y-88055000D03*
X169773000Y-88055000D03*
X169123000Y-88055000D03*
X168473000Y-88055000D03*
X167823000Y-88055000D03*
X167173000Y-88055000D03*
X166523000Y-88055000D03*
X165873000Y-88055000D03*
X165223000Y-88055000D03*
X164573000Y-88055000D03*
X163923000Y-88055000D03*
X163923000Y-80855000D03*
X164573000Y-80855000D03*
X165223000Y-80855000D03*
X165873000Y-80855000D03*
X166523000Y-80855000D03*
X167173000Y-80855000D03*
X167823000Y-80855000D03*
X168473000Y-80855000D03*
X169123000Y-80855000D03*
X169773000Y-80855000D03*
X170423000Y-80855000D03*
X171073000Y-80855000D03*
X171723000Y-80855000D03*
X172373000Y-80855000D03*
D25*
X155514000Y-63723900D03*
X157414000Y-63723900D03*
X157414000Y-66324100D03*
X156464000Y-66324100D03*
X155514000Y-66324100D03*
G36*
G01*
X138265000Y-113486000D02*
X138265000Y-114236000D01*
G75*
G02*
X138140000Y-114361000I-125000J0D01*
G01*
X138140000Y-114361000D01*
G75*
G02*
X138015000Y-114236000I0J125000D01*
G01*
X138015000Y-113486000D01*
G75*
G02*
X138140000Y-113361000I125000J0D01*
G01*
X138140000Y-113361000D01*
G75*
G02*
X138265000Y-113486000I0J-125000D01*
G01*
G37*
G36*
G01*
X137765000Y-113486000D02*
X137765000Y-114236000D01*
G75*
G02*
X137640000Y-114361000I-125000J0D01*
G01*
X137640000Y-114361000D01*
G75*
G02*
X137515000Y-114236000I0J125000D01*
G01*
X137515000Y-113486000D01*
G75*
G02*
X137640000Y-113361000I125000J0D01*
G01*
X137640000Y-113361000D01*
G75*
G02*
X137765000Y-113486000I0J-125000D01*
G01*
G37*
G36*
G01*
X137265000Y-113486000D02*
X137265000Y-114236000D01*
G75*
G02*
X137140000Y-114361000I-125000J0D01*
G01*
X137140000Y-114361000D01*
G75*
G02*
X137015000Y-114236000I0J125000D01*
G01*
X137015000Y-113486000D01*
G75*
G02*
X137140000Y-113361000I125000J0D01*
G01*
X137140000Y-113361000D01*
G75*
G02*
X137265000Y-113486000I0J-125000D01*
G01*
G37*
G36*
G01*
X136765000Y-113486000D02*
X136765000Y-114236000D01*
G75*
G02*
X136640000Y-114361000I-125000J0D01*
G01*
X136640000Y-114361000D01*
G75*
G02*
X136515000Y-114236000I0J125000D01*
G01*
X136515000Y-113486000D01*
G75*
G02*
X136640000Y-113361000I125000J0D01*
G01*
X136640000Y-113361000D01*
G75*
G02*
X136765000Y-113486000I0J-125000D01*
G01*
G37*
G36*
G01*
X136265000Y-113486000D02*
X136265000Y-114236000D01*
G75*
G02*
X136140000Y-114361000I-125000J0D01*
G01*
X136140000Y-114361000D01*
G75*
G02*
X136015000Y-114236000I0J125000D01*
G01*
X136015000Y-113486000D01*
G75*
G02*
X136140000Y-113361000I125000J0D01*
G01*
X136140000Y-113361000D01*
G75*
G02*
X136265000Y-113486000I0J-125000D01*
G01*
G37*
G36*
G01*
X135765000Y-113486000D02*
X135765000Y-114236000D01*
G75*
G02*
X135640000Y-114361000I-125000J0D01*
G01*
X135640000Y-114361000D01*
G75*
G02*
X135515000Y-114236000I0J125000D01*
G01*
X135515000Y-113486000D01*
G75*
G02*
X135640000Y-113361000I125000J0D01*
G01*
X135640000Y-113361000D01*
G75*
G02*
X135765000Y-113486000I0J-125000D01*
G01*
G37*
G36*
G01*
X135265000Y-113486000D02*
X135265000Y-114236000D01*
G75*
G02*
X135140000Y-114361000I-125000J0D01*
G01*
X135140000Y-114361000D01*
G75*
G02*
X135015000Y-114236000I0J125000D01*
G01*
X135015000Y-113486000D01*
G75*
G02*
X135140000Y-113361000I125000J0D01*
G01*
X135140000Y-113361000D01*
G75*
G02*
X135265000Y-113486000I0J-125000D01*
G01*
G37*
G36*
G01*
X134765000Y-113486000D02*
X134765000Y-114236000D01*
G75*
G02*
X134640000Y-114361000I-125000J0D01*
G01*
X134640000Y-114361000D01*
G75*
G02*
X134515000Y-114236000I0J125000D01*
G01*
X134515000Y-113486000D01*
G75*
G02*
X134640000Y-113361000I125000J0D01*
G01*
X134640000Y-113361000D01*
G75*
G02*
X134765000Y-113486000I0J-125000D01*
G01*
G37*
G36*
G01*
X138505000Y-112996000D02*
X139255000Y-112996000D01*
G75*
G02*
X139380000Y-113121000I0J-125000D01*
G01*
X139380000Y-113121000D01*
G75*
G02*
X139255000Y-113246000I-125000J0D01*
G01*
X138505000Y-113246000D01*
G75*
G02*
X138380000Y-113121000I0J125000D01*
G01*
X138380000Y-113121000D01*
G75*
G02*
X138505000Y-112996000I125000J0D01*
G01*
G37*
G36*
G01*
X138505000Y-112496000D02*
X139255000Y-112496000D01*
G75*
G02*
X139380000Y-112621000I0J-125000D01*
G01*
X139380000Y-112621000D01*
G75*
G02*
X139255000Y-112746000I-125000J0D01*
G01*
X138505000Y-112746000D01*
G75*
G02*
X138380000Y-112621000I0J125000D01*
G01*
X138380000Y-112621000D01*
G75*
G02*
X138505000Y-112496000I125000J0D01*
G01*
G37*
G36*
G01*
X138505000Y-111996000D02*
X139255000Y-111996000D01*
G75*
G02*
X139380000Y-112121000I0J-125000D01*
G01*
X139380000Y-112121000D01*
G75*
G02*
X139255000Y-112246000I-125000J0D01*
G01*
X138505000Y-112246000D01*
G75*
G02*
X138380000Y-112121000I0J125000D01*
G01*
X138380000Y-112121000D01*
G75*
G02*
X138505000Y-111996000I125000J0D01*
G01*
G37*
G36*
G01*
X138505000Y-111496000D02*
X139255000Y-111496000D01*
G75*
G02*
X139380000Y-111621000I0J-125000D01*
G01*
X139380000Y-111621000D01*
G75*
G02*
X139255000Y-111746000I-125000J0D01*
G01*
X138505000Y-111746000D01*
G75*
G02*
X138380000Y-111621000I0J125000D01*
G01*
X138380000Y-111621000D01*
G75*
G02*
X138505000Y-111496000I125000J0D01*
G01*
G37*
G36*
G01*
X138505000Y-110996000D02*
X139255000Y-110996000D01*
G75*
G02*
X139380000Y-111121000I0J-125000D01*
G01*
X139380000Y-111121000D01*
G75*
G02*
X139255000Y-111246000I-125000J0D01*
G01*
X138505000Y-111246000D01*
G75*
G02*
X138380000Y-111121000I0J125000D01*
G01*
X138380000Y-111121000D01*
G75*
G02*
X138505000Y-110996000I125000J0D01*
G01*
G37*
G36*
G01*
X138505000Y-110496000D02*
X139255000Y-110496000D01*
G75*
G02*
X139380000Y-110621000I0J-125000D01*
G01*
X139380000Y-110621000D01*
G75*
G02*
X139255000Y-110746000I-125000J0D01*
G01*
X138505000Y-110746000D01*
G75*
G02*
X138380000Y-110621000I0J125000D01*
G01*
X138380000Y-110621000D01*
G75*
G02*
X138505000Y-110496000I125000J0D01*
G01*
G37*
G36*
G01*
X138505000Y-109996000D02*
X139255000Y-109996000D01*
G75*
G02*
X139380000Y-110121000I0J-125000D01*
G01*
X139380000Y-110121000D01*
G75*
G02*
X139255000Y-110246000I-125000J0D01*
G01*
X138505000Y-110246000D01*
G75*
G02*
X138380000Y-110121000I0J125000D01*
G01*
X138380000Y-110121000D01*
G75*
G02*
X138505000Y-109996000I125000J0D01*
G01*
G37*
G36*
G01*
X138505000Y-109496000D02*
X139255000Y-109496000D01*
G75*
G02*
X139380000Y-109621000I0J-125000D01*
G01*
X139380000Y-109621000D01*
G75*
G02*
X139255000Y-109746000I-125000J0D01*
G01*
X138505000Y-109746000D01*
G75*
G02*
X138380000Y-109621000I0J125000D01*
G01*
X138380000Y-109621000D01*
G75*
G02*
X138505000Y-109496000I125000J0D01*
G01*
G37*
G36*
G01*
X138505000Y-108996000D02*
X139255000Y-108996000D01*
G75*
G02*
X139380000Y-109121000I0J-125000D01*
G01*
X139380000Y-109121000D01*
G75*
G02*
X139255000Y-109246000I-125000J0D01*
G01*
X138505000Y-109246000D01*
G75*
G02*
X138380000Y-109121000I0J125000D01*
G01*
X138380000Y-109121000D01*
G75*
G02*
X138505000Y-108996000I125000J0D01*
G01*
G37*
G36*
G01*
X138505000Y-108496000D02*
X139255000Y-108496000D01*
G75*
G02*
X139380000Y-108621000I0J-125000D01*
G01*
X139380000Y-108621000D01*
G75*
G02*
X139255000Y-108746000I-125000J0D01*
G01*
X138505000Y-108746000D01*
G75*
G02*
X138380000Y-108621000I0J125000D01*
G01*
X138380000Y-108621000D01*
G75*
G02*
X138505000Y-108496000I125000J0D01*
G01*
G37*
G36*
G01*
X138015000Y-108256000D02*
X138015000Y-107506000D01*
G75*
G02*
X138140000Y-107381000I125000J0D01*
G01*
X138140000Y-107381000D01*
G75*
G02*
X138265000Y-107506000I0J-125000D01*
G01*
X138265000Y-108256000D01*
G75*
G02*
X138140000Y-108381000I-125000J0D01*
G01*
X138140000Y-108381000D01*
G75*
G02*
X138015000Y-108256000I0J125000D01*
G01*
G37*
G36*
G01*
X137515000Y-108256000D02*
X137515000Y-107506000D01*
G75*
G02*
X137640000Y-107381000I125000J0D01*
G01*
X137640000Y-107381000D01*
G75*
G02*
X137765000Y-107506000I0J-125000D01*
G01*
X137765000Y-108256000D01*
G75*
G02*
X137640000Y-108381000I-125000J0D01*
G01*
X137640000Y-108381000D01*
G75*
G02*
X137515000Y-108256000I0J125000D01*
G01*
G37*
G36*
G01*
X137015000Y-108256000D02*
X137015000Y-107506000D01*
G75*
G02*
X137140000Y-107381000I125000J0D01*
G01*
X137140000Y-107381000D01*
G75*
G02*
X137265000Y-107506000I0J-125000D01*
G01*
X137265000Y-108256000D01*
G75*
G02*
X137140000Y-108381000I-125000J0D01*
G01*
X137140000Y-108381000D01*
G75*
G02*
X137015000Y-108256000I0J125000D01*
G01*
G37*
G36*
G01*
X136515000Y-108256000D02*
X136515000Y-107506000D01*
G75*
G02*
X136640000Y-107381000I125000J0D01*
G01*
X136640000Y-107381000D01*
G75*
G02*
X136765000Y-107506000I0J-125000D01*
G01*
X136765000Y-108256000D01*
G75*
G02*
X136640000Y-108381000I-125000J0D01*
G01*
X136640000Y-108381000D01*
G75*
G02*
X136515000Y-108256000I0J125000D01*
G01*
G37*
G36*
G01*
X136015000Y-108256000D02*
X136015000Y-107506000D01*
G75*
G02*
X136140000Y-107381000I125000J0D01*
G01*
X136140000Y-107381000D01*
G75*
G02*
X136265000Y-107506000I0J-125000D01*
G01*
X136265000Y-108256000D01*
G75*
G02*
X136140000Y-108381000I-125000J0D01*
G01*
X136140000Y-108381000D01*
G75*
G02*
X136015000Y-108256000I0J125000D01*
G01*
G37*
G36*
G01*
X135515000Y-108256000D02*
X135515000Y-107506000D01*
G75*
G02*
X135640000Y-107381000I125000J0D01*
G01*
X135640000Y-107381000D01*
G75*
G02*
X135765000Y-107506000I0J-125000D01*
G01*
X135765000Y-108256000D01*
G75*
G02*
X135640000Y-108381000I-125000J0D01*
G01*
X135640000Y-108381000D01*
G75*
G02*
X135515000Y-108256000I0J125000D01*
G01*
G37*
G36*
G01*
X135015000Y-108256000D02*
X135015000Y-107506000D01*
G75*
G02*
X135140000Y-107381000I125000J0D01*
G01*
X135140000Y-107381000D01*
G75*
G02*
X135265000Y-107506000I0J-125000D01*
G01*
X135265000Y-108256000D01*
G75*
G02*
X135140000Y-108381000I-125000J0D01*
G01*
X135140000Y-108381000D01*
G75*
G02*
X135015000Y-108256000I0J125000D01*
G01*
G37*
G36*
G01*
X134515000Y-108256000D02*
X134515000Y-107506000D01*
G75*
G02*
X134640000Y-107381000I125000J0D01*
G01*
X134640000Y-107381000D01*
G75*
G02*
X134765000Y-107506000I0J-125000D01*
G01*
X134765000Y-108256000D01*
G75*
G02*
X134640000Y-108381000I-125000J0D01*
G01*
X134640000Y-108381000D01*
G75*
G02*
X134515000Y-108256000I0J125000D01*
G01*
G37*
G36*
G01*
X134015000Y-108256000D02*
X134015000Y-107506000D01*
G75*
G02*
X134140000Y-107381000I125000J0D01*
G01*
X134140000Y-107381000D01*
G75*
G02*
X134265000Y-107506000I0J-125000D01*
G01*
X134265000Y-108256000D01*
G75*
G02*
X134140000Y-108381000I-125000J0D01*
G01*
X134140000Y-108381000D01*
G75*
G02*
X134015000Y-108256000I0J125000D01*
G01*
G37*
G36*
G01*
X133515000Y-108256000D02*
X133515000Y-107506000D01*
G75*
G02*
X133640000Y-107381000I125000J0D01*
G01*
X133640000Y-107381000D01*
G75*
G02*
X133765000Y-107506000I0J-125000D01*
G01*
X133765000Y-108256000D01*
G75*
G02*
X133640000Y-108381000I-125000J0D01*
G01*
X133640000Y-108381000D01*
G75*
G02*
X133515000Y-108256000I0J125000D01*
G01*
G37*
G36*
G01*
X133275000Y-108746000D02*
X132525000Y-108746000D01*
G75*
G02*
X132400000Y-108621000I0J125000D01*
G01*
X132400000Y-108621000D01*
G75*
G02*
X132525000Y-108496000I125000J0D01*
G01*
X133275000Y-108496000D01*
G75*
G02*
X133400000Y-108621000I0J-125000D01*
G01*
X133400000Y-108621000D01*
G75*
G02*
X133275000Y-108746000I-125000J0D01*
G01*
G37*
G36*
G01*
X133275000Y-109246000D02*
X132525000Y-109246000D01*
G75*
G02*
X132400000Y-109121000I0J125000D01*
G01*
X132400000Y-109121000D01*
G75*
G02*
X132525000Y-108996000I125000J0D01*
G01*
X133275000Y-108996000D01*
G75*
G02*
X133400000Y-109121000I0J-125000D01*
G01*
X133400000Y-109121000D01*
G75*
G02*
X133275000Y-109246000I-125000J0D01*
G01*
G37*
G36*
G01*
X133275000Y-109746000D02*
X132525000Y-109746000D01*
G75*
G02*
X132400000Y-109621000I0J125000D01*
G01*
X132400000Y-109621000D01*
G75*
G02*
X132525000Y-109496000I125000J0D01*
G01*
X133275000Y-109496000D01*
G75*
G02*
X133400000Y-109621000I0J-125000D01*
G01*
X133400000Y-109621000D01*
G75*
G02*
X133275000Y-109746000I-125000J0D01*
G01*
G37*
G36*
G01*
X133275000Y-110246000D02*
X132525000Y-110246000D01*
G75*
G02*
X132400000Y-110121000I0J125000D01*
G01*
X132400000Y-110121000D01*
G75*
G02*
X132525000Y-109996000I125000J0D01*
G01*
X133275000Y-109996000D01*
G75*
G02*
X133400000Y-110121000I0J-125000D01*
G01*
X133400000Y-110121000D01*
G75*
G02*
X133275000Y-110246000I-125000J0D01*
G01*
G37*
G36*
G01*
X133275000Y-110746000D02*
X132525000Y-110746000D01*
G75*
G02*
X132400000Y-110621000I0J125000D01*
G01*
X132400000Y-110621000D01*
G75*
G02*
X132525000Y-110496000I125000J0D01*
G01*
X133275000Y-110496000D01*
G75*
G02*
X133400000Y-110621000I0J-125000D01*
G01*
X133400000Y-110621000D01*
G75*
G02*
X133275000Y-110746000I-125000J0D01*
G01*
G37*
G36*
G01*
X133275000Y-111246000D02*
X132525000Y-111246000D01*
G75*
G02*
X132400000Y-111121000I0J125000D01*
G01*
X132400000Y-111121000D01*
G75*
G02*
X132525000Y-110996000I125000J0D01*
G01*
X133275000Y-110996000D01*
G75*
G02*
X133400000Y-111121000I0J-125000D01*
G01*
X133400000Y-111121000D01*
G75*
G02*
X133275000Y-111246000I-125000J0D01*
G01*
G37*
G36*
G01*
X133275000Y-111746000D02*
X132525000Y-111746000D01*
G75*
G02*
X132400000Y-111621000I0J125000D01*
G01*
X132400000Y-111621000D01*
G75*
G02*
X132525000Y-111496000I125000J0D01*
G01*
X133275000Y-111496000D01*
G75*
G02*
X133400000Y-111621000I0J-125000D01*
G01*
X133400000Y-111621000D01*
G75*
G02*
X133275000Y-111746000I-125000J0D01*
G01*
G37*
G36*
G01*
X133275000Y-112246000D02*
X132525000Y-112246000D01*
G75*
G02*
X132400000Y-112121000I0J125000D01*
G01*
X132400000Y-112121000D01*
G75*
G02*
X132525000Y-111996000I125000J0D01*
G01*
X133275000Y-111996000D01*
G75*
G02*
X133400000Y-112121000I0J-125000D01*
G01*
X133400000Y-112121000D01*
G75*
G02*
X133275000Y-112246000I-125000J0D01*
G01*
G37*
G36*
G01*
X133275000Y-112746000D02*
X132525000Y-112746000D01*
G75*
G02*
X132400000Y-112621000I0J125000D01*
G01*
X132400000Y-112621000D01*
G75*
G02*
X132525000Y-112496000I125000J0D01*
G01*
X133275000Y-112496000D01*
G75*
G02*
X133400000Y-112621000I0J-125000D01*
G01*
X133400000Y-112621000D01*
G75*
G02*
X133275000Y-112746000I-125000J0D01*
G01*
G37*
G36*
G01*
X133275000Y-113246000D02*
X132525000Y-113246000D01*
G75*
G02*
X132400000Y-113121000I0J125000D01*
G01*
X132400000Y-113121000D01*
G75*
G02*
X132525000Y-112996000I125000J0D01*
G01*
X133275000Y-112996000D01*
G75*
G02*
X133400000Y-113121000I0J-125000D01*
G01*
X133400000Y-113121000D01*
G75*
G02*
X133275000Y-113246000I-125000J0D01*
G01*
G37*
G36*
G01*
X133765000Y-113486000D02*
X133765000Y-114236000D01*
G75*
G02*
X133640000Y-114361000I-125000J0D01*
G01*
X133640000Y-114361000D01*
G75*
G02*
X133515000Y-114236000I0J125000D01*
G01*
X133515000Y-113486000D01*
G75*
G02*
X133640000Y-113361000I125000J0D01*
G01*
X133640000Y-113361000D01*
G75*
G02*
X133765000Y-113486000I0J-125000D01*
G01*
G37*
G36*
G01*
X134265000Y-113486000D02*
X134265000Y-114236000D01*
G75*
G02*
X134140000Y-114361000I-125000J0D01*
G01*
X134140000Y-114361000D01*
G75*
G02*
X134015000Y-114236000I0J125000D01*
G01*
X134015000Y-113486000D01*
G75*
G02*
X134140000Y-113361000I125000J0D01*
G01*
X134140000Y-113361000D01*
G75*
G02*
X134265000Y-113486000I0J-125000D01*
G01*
G37*
G36*
G01*
X163726000Y-65082000D02*
X163426000Y-65082000D01*
G75*
G02*
X163276000Y-64932000I0J150000D01*
G01*
X163276000Y-63182000D01*
G75*
G02*
X163426000Y-63032000I150000J0D01*
G01*
X163726000Y-63032000D01*
G75*
G02*
X163876000Y-63182000I0J-150000D01*
G01*
X163876000Y-64932000D01*
G75*
G02*
X163726000Y-65082000I-150000J0D01*
G01*
G37*
G36*
G01*
X164996000Y-65082000D02*
X164696000Y-65082000D01*
G75*
G02*
X164546000Y-64932000I0J150000D01*
G01*
X164546000Y-63182000D01*
G75*
G02*
X164696000Y-63032000I150000J0D01*
G01*
X164996000Y-63032000D01*
G75*
G02*
X165146000Y-63182000I0J-150000D01*
G01*
X165146000Y-64932000D01*
G75*
G02*
X164996000Y-65082000I-150000J0D01*
G01*
G37*
G36*
G01*
X166266000Y-65082000D02*
X165966000Y-65082000D01*
G75*
G02*
X165816000Y-64932000I0J150000D01*
G01*
X165816000Y-63182000D01*
G75*
G02*
X165966000Y-63032000I150000J0D01*
G01*
X166266000Y-63032000D01*
G75*
G02*
X166416000Y-63182000I0J-150000D01*
G01*
X166416000Y-64932000D01*
G75*
G02*
X166266000Y-65082000I-150000J0D01*
G01*
G37*
G36*
G01*
X167536000Y-65082000D02*
X167236000Y-65082000D01*
G75*
G02*
X167086000Y-64932000I0J150000D01*
G01*
X167086000Y-63182000D01*
G75*
G02*
X167236000Y-63032000I150000J0D01*
G01*
X167536000Y-63032000D01*
G75*
G02*
X167686000Y-63182000I0J-150000D01*
G01*
X167686000Y-64932000D01*
G75*
G02*
X167536000Y-65082000I-150000J0D01*
G01*
G37*
G36*
G01*
X168806000Y-65082000D02*
X168506000Y-65082000D01*
G75*
G02*
X168356000Y-64932000I0J150000D01*
G01*
X168356000Y-63182000D01*
G75*
G02*
X168506000Y-63032000I150000J0D01*
G01*
X168806000Y-63032000D01*
G75*
G02*
X168956000Y-63182000I0J-150000D01*
G01*
X168956000Y-64932000D01*
G75*
G02*
X168806000Y-65082000I-150000J0D01*
G01*
G37*
G36*
G01*
X170076000Y-65082000D02*
X169776000Y-65082000D01*
G75*
G02*
X169626000Y-64932000I0J150000D01*
G01*
X169626000Y-63182000D01*
G75*
G02*
X169776000Y-63032000I150000J0D01*
G01*
X170076000Y-63032000D01*
G75*
G02*
X170226000Y-63182000I0J-150000D01*
G01*
X170226000Y-64932000D01*
G75*
G02*
X170076000Y-65082000I-150000J0D01*
G01*
G37*
G36*
G01*
X171346000Y-65082000D02*
X171046000Y-65082000D01*
G75*
G02*
X170896000Y-64932000I0J150000D01*
G01*
X170896000Y-63182000D01*
G75*
G02*
X171046000Y-63032000I150000J0D01*
G01*
X171346000Y-63032000D01*
G75*
G02*
X171496000Y-63182000I0J-150000D01*
G01*
X171496000Y-64932000D01*
G75*
G02*
X171346000Y-65082000I-150000J0D01*
G01*
G37*
G36*
G01*
X172616000Y-65082000D02*
X172316000Y-65082000D01*
G75*
G02*
X172166000Y-64932000I0J150000D01*
G01*
X172166000Y-63182000D01*
G75*
G02*
X172316000Y-63032000I150000J0D01*
G01*
X172616000Y-63032000D01*
G75*
G02*
X172766000Y-63182000I0J-150000D01*
G01*
X172766000Y-64932000D01*
G75*
G02*
X172616000Y-65082000I-150000J0D01*
G01*
G37*
G36*
G01*
X172616000Y-74382000D02*
X172316000Y-74382000D01*
G75*
G02*
X172166000Y-74232000I0J150000D01*
G01*
X172166000Y-72482000D01*
G75*
G02*
X172316000Y-72332000I150000J0D01*
G01*
X172616000Y-72332000D01*
G75*
G02*
X172766000Y-72482000I0J-150000D01*
G01*
X172766000Y-74232000D01*
G75*
G02*
X172616000Y-74382000I-150000J0D01*
G01*
G37*
G36*
G01*
X171346000Y-74382000D02*
X171046000Y-74382000D01*
G75*
G02*
X170896000Y-74232000I0J150000D01*
G01*
X170896000Y-72482000D01*
G75*
G02*
X171046000Y-72332000I150000J0D01*
G01*
X171346000Y-72332000D01*
G75*
G02*
X171496000Y-72482000I0J-150000D01*
G01*
X171496000Y-74232000D01*
G75*
G02*
X171346000Y-74382000I-150000J0D01*
G01*
G37*
G36*
G01*
X170076000Y-74382000D02*
X169776000Y-74382000D01*
G75*
G02*
X169626000Y-74232000I0J150000D01*
G01*
X169626000Y-72482000D01*
G75*
G02*
X169776000Y-72332000I150000J0D01*
G01*
X170076000Y-72332000D01*
G75*
G02*
X170226000Y-72482000I0J-150000D01*
G01*
X170226000Y-74232000D01*
G75*
G02*
X170076000Y-74382000I-150000J0D01*
G01*
G37*
G36*
G01*
X168806000Y-74382000D02*
X168506000Y-74382000D01*
G75*
G02*
X168356000Y-74232000I0J150000D01*
G01*
X168356000Y-72482000D01*
G75*
G02*
X168506000Y-72332000I150000J0D01*
G01*
X168806000Y-72332000D01*
G75*
G02*
X168956000Y-72482000I0J-150000D01*
G01*
X168956000Y-74232000D01*
G75*
G02*
X168806000Y-74382000I-150000J0D01*
G01*
G37*
G36*
G01*
X167536000Y-74382000D02*
X167236000Y-74382000D01*
G75*
G02*
X167086000Y-74232000I0J150000D01*
G01*
X167086000Y-72482000D01*
G75*
G02*
X167236000Y-72332000I150000J0D01*
G01*
X167536000Y-72332000D01*
G75*
G02*
X167686000Y-72482000I0J-150000D01*
G01*
X167686000Y-74232000D01*
G75*
G02*
X167536000Y-74382000I-150000J0D01*
G01*
G37*
G36*
G01*
X166266000Y-74382000D02*
X165966000Y-74382000D01*
G75*
G02*
X165816000Y-74232000I0J150000D01*
G01*
X165816000Y-72482000D01*
G75*
G02*
X165966000Y-72332000I150000J0D01*
G01*
X166266000Y-72332000D01*
G75*
G02*
X166416000Y-72482000I0J-150000D01*
G01*
X166416000Y-74232000D01*
G75*
G02*
X166266000Y-74382000I-150000J0D01*
G01*
G37*
G36*
G01*
X164996000Y-74382000D02*
X164696000Y-74382000D01*
G75*
G02*
X164546000Y-74232000I0J150000D01*
G01*
X164546000Y-72482000D01*
G75*
G02*
X164696000Y-72332000I150000J0D01*
G01*
X164996000Y-72332000D01*
G75*
G02*
X165146000Y-72482000I0J-150000D01*
G01*
X165146000Y-74232000D01*
G75*
G02*
X164996000Y-74382000I-150000J0D01*
G01*
G37*
G36*
G01*
X163726000Y-74382000D02*
X163426000Y-74382000D01*
G75*
G02*
X163276000Y-74232000I0J150000D01*
G01*
X163276000Y-72482000D01*
G75*
G02*
X163426000Y-72332000I150000J0D01*
G01*
X163726000Y-72332000D01*
G75*
G02*
X163876000Y-72482000I0J-150000D01*
G01*
X163876000Y-74232000D01*
G75*
G02*
X163726000Y-74382000I-150000J0D01*
G01*
G37*
G36*
G01*
X160959160Y-98531800D02*
X160350840Y-98531800D01*
G75*
G02*
X160231200Y-98412160I0J119640D01*
G01*
X160231200Y-97853840D01*
G75*
G02*
X160350840Y-97734200I119640J0D01*
G01*
X160959160Y-97734200D01*
G75*
G02*
X161078800Y-97853840I0J-119640D01*
G01*
X161078800Y-98412160D01*
G75*
G02*
X160959160Y-98531800I-119640J0D01*
G01*
G37*
G36*
G01*
X160959160Y-100131800D02*
X160350840Y-100131800D01*
G75*
G02*
X160231200Y-100012160I0J119640D01*
G01*
X160231200Y-99453840D01*
G75*
G02*
X160350840Y-99334200I119640J0D01*
G01*
X160959160Y-99334200D01*
G75*
G02*
X161078800Y-99453840I0J-119640D01*
G01*
X161078800Y-100012160D01*
G75*
G02*
X160959160Y-100131800I-119640J0D01*
G01*
G37*
M02*
