G04 #@! TF.GenerationSoftware,KiCad,Pcbnew,(5.1.5)-3*
G04 #@! TF.CreationDate,2020-06-18T13:30:01-07:00*
G04 #@! TF.ProjectId,Plug_Pass_arduino_shield,506c7567-5f50-4617-9373-5f6172647569,v2.0*
G04 #@! TF.SameCoordinates,Original*
G04 #@! TF.FileFunction,Copper,L2,Bot*
G04 #@! TF.FilePolarity,Positive*
%FSLAX46Y46*%
G04 Gerber Fmt 4.6, Leading zero omitted, Abs format (unit mm)*
G04 Created by KiCad (PCBNEW (5.1.5)-3) date 2020-06-18 13:30:01*
%MOMM*%
%LPD*%
G04 APERTURE LIST*
%ADD10O,1.727200X1.727200*%
%ADD11R,1.727200X1.727200*%
%ADD12R,1.700000X1.700000*%
%ADD13O,1.700000X1.700000*%
%ADD14C,1.160000*%
%ADD15C,0.508000*%
%ADD16C,0.254000*%
G04 APERTURE END LIST*
D10*
X122428000Y-101092000D03*
X119888000Y-101092000D03*
X122428000Y-98552000D03*
X119888000Y-98552000D03*
X122428000Y-96012000D03*
X119888000Y-96012000D03*
X122428000Y-93472000D03*
D11*
X119888000Y-93472000D03*
D12*
X97536000Y-92964000D03*
D13*
X100076000Y-92964000D03*
X102616000Y-92964000D03*
X105156000Y-92964000D03*
X107696000Y-92964000D03*
X110236000Y-92964000D03*
X112776000Y-92964000D03*
X115316000Y-92964000D03*
X121412000Y-81788000D03*
X121412000Y-79248000D03*
X121412000Y-76708000D03*
X121412000Y-74168000D03*
X121412000Y-71628000D03*
D12*
X121412000Y-69088000D03*
D14*
X96520000Y-121920000D03*
X99060000Y-121920000D03*
X101600000Y-121920000D03*
X125984000Y-76708000D03*
X104140000Y-121920000D03*
X93980000Y-100584000D03*
X121920000Y-121920000D03*
D15*
X97536000Y-94322000D02*
X96520000Y-95338000D01*
X97536000Y-92964000D02*
X97536000Y-94322000D01*
X96520000Y-95338000D02*
X96520000Y-121920000D01*
X96520000Y-121920000D02*
X96520000Y-121920000D01*
X100076000Y-92964000D02*
X100076000Y-94488000D01*
X100076000Y-94488000D02*
X99060000Y-95504000D01*
X99060000Y-95504000D02*
X99060000Y-121920000D01*
X99060000Y-121920000D02*
X99060000Y-121920000D01*
X102616000Y-92964000D02*
X102616000Y-94488000D01*
X102616000Y-94488000D02*
X101600000Y-95504000D01*
X101600000Y-95504000D02*
X101600000Y-121920000D01*
X101600000Y-121920000D02*
X101600000Y-121920000D01*
X125984000Y-76708000D02*
X125984000Y-76708000D01*
X125984000Y-76708000D02*
X121412000Y-76708000D01*
X105156000Y-92964000D02*
X105156000Y-94488000D01*
X105156000Y-94488000D02*
X104140000Y-95504000D01*
X104140000Y-95504000D02*
X104140000Y-121920000D01*
X104140000Y-121920000D02*
X104140000Y-121920000D01*
X116840000Y-79248000D02*
X121412000Y-79248000D01*
X107696000Y-92964000D02*
X107696000Y-88392000D01*
X107696000Y-88392000D02*
X116840000Y-79248000D01*
X96520000Y-88392000D02*
X107696000Y-88392000D01*
X93980000Y-100584000D02*
X93980000Y-90932000D01*
X93980000Y-90932000D02*
X96520000Y-88392000D01*
X121920000Y-106680000D02*
X117348000Y-102108000D01*
X118516400Y-93472000D02*
X119888000Y-93472000D01*
X117348000Y-94640400D02*
X118516400Y-93472000D01*
X117348000Y-102108000D02*
X117348000Y-94640400D01*
X121920000Y-121920000D02*
X121920000Y-106680000D01*
D16*
G36*
X127368301Y-131940300D02*
G01*
X80911700Y-131940300D01*
X80911700Y-129321520D01*
X81093733Y-129321520D01*
X81093733Y-129758480D01*
X81178980Y-130187045D01*
X81346198Y-130590743D01*
X81588960Y-130954063D01*
X81897937Y-131263040D01*
X82261257Y-131505802D01*
X82664955Y-131673020D01*
X83093520Y-131758267D01*
X83530480Y-131758267D01*
X83959045Y-131673020D01*
X84362743Y-131505802D01*
X84726063Y-131263040D01*
X85035040Y-130954063D01*
X85277802Y-130590743D01*
X85445020Y-130187045D01*
X85530267Y-129758480D01*
X85530267Y-129321520D01*
X122749733Y-129321520D01*
X122749733Y-129758480D01*
X122834980Y-130187045D01*
X123002198Y-130590743D01*
X123244960Y-130954063D01*
X123553937Y-131263040D01*
X123917257Y-131505802D01*
X124320955Y-131673020D01*
X124749520Y-131758267D01*
X125186480Y-131758267D01*
X125615045Y-131673020D01*
X126018743Y-131505802D01*
X126382063Y-131263040D01*
X126691040Y-130954063D01*
X126933802Y-130590743D01*
X127101020Y-130187045D01*
X127186267Y-129758480D01*
X127186267Y-129321520D01*
X127101020Y-128892955D01*
X126933802Y-128489257D01*
X126691040Y-128125937D01*
X126382063Y-127816960D01*
X126018743Y-127574198D01*
X125615045Y-127406980D01*
X125186480Y-127321733D01*
X124749520Y-127321733D01*
X124320955Y-127406980D01*
X123917257Y-127574198D01*
X123553937Y-127816960D01*
X123244960Y-128125937D01*
X123002198Y-128489257D01*
X122834980Y-128892955D01*
X122749733Y-129321520D01*
X85530267Y-129321520D01*
X85445020Y-128892955D01*
X85277802Y-128489257D01*
X85035040Y-128125937D01*
X84726063Y-127816960D01*
X84362743Y-127574198D01*
X83959045Y-127406980D01*
X83530480Y-127321733D01*
X83093520Y-127321733D01*
X82664955Y-127406980D01*
X82261257Y-127574198D01*
X81897937Y-127816960D01*
X81588960Y-128125937D01*
X81346198Y-128489257D01*
X81178980Y-128892955D01*
X81093733Y-129321520D01*
X80911700Y-129321520D01*
X80911700Y-100464333D01*
X92765000Y-100464333D01*
X92765000Y-100703667D01*
X92811692Y-100938402D01*
X92903281Y-101159518D01*
X93036248Y-101358517D01*
X93205483Y-101527752D01*
X93404482Y-101660719D01*
X93625598Y-101752308D01*
X93860333Y-101799000D01*
X94099667Y-101799000D01*
X94334402Y-101752308D01*
X94555518Y-101660719D01*
X94754517Y-101527752D01*
X94923752Y-101358517D01*
X95056719Y-101159518D01*
X95148308Y-100938402D01*
X95195000Y-100703667D01*
X95195000Y-100464333D01*
X95148308Y-100229598D01*
X95056719Y-100008482D01*
X94923752Y-99809483D01*
X94869000Y-99754731D01*
X94869000Y-91300235D01*
X96888236Y-89281000D01*
X106807001Y-89281000D01*
X106807000Y-91772016D01*
X106749368Y-91810525D01*
X106542525Y-92017368D01*
X106426000Y-92191760D01*
X106309475Y-92017368D01*
X106102632Y-91810525D01*
X105859411Y-91648010D01*
X105589158Y-91536068D01*
X105302260Y-91479000D01*
X105009740Y-91479000D01*
X104722842Y-91536068D01*
X104452589Y-91648010D01*
X104209368Y-91810525D01*
X104002525Y-92017368D01*
X103886000Y-92191760D01*
X103769475Y-92017368D01*
X103562632Y-91810525D01*
X103319411Y-91648010D01*
X103049158Y-91536068D01*
X102762260Y-91479000D01*
X102469740Y-91479000D01*
X102182842Y-91536068D01*
X101912589Y-91648010D01*
X101669368Y-91810525D01*
X101462525Y-92017368D01*
X101346000Y-92191760D01*
X101229475Y-92017368D01*
X101022632Y-91810525D01*
X100779411Y-91648010D01*
X100509158Y-91536068D01*
X100222260Y-91479000D01*
X99929740Y-91479000D01*
X99642842Y-91536068D01*
X99372589Y-91648010D01*
X99129368Y-91810525D01*
X98997513Y-91942380D01*
X98975502Y-91869820D01*
X98916537Y-91759506D01*
X98837185Y-91662815D01*
X98740494Y-91583463D01*
X98630180Y-91524498D01*
X98510482Y-91488188D01*
X98386000Y-91475928D01*
X96686000Y-91475928D01*
X96561518Y-91488188D01*
X96441820Y-91524498D01*
X96331506Y-91583463D01*
X96234815Y-91662815D01*
X96155463Y-91759506D01*
X96096498Y-91869820D01*
X96060188Y-91989518D01*
X96047928Y-92114000D01*
X96047928Y-93814000D01*
X96060188Y-93938482D01*
X96096498Y-94058180D01*
X96155463Y-94168494D01*
X96234815Y-94265185D01*
X96290160Y-94310605D01*
X95922264Y-94678501D01*
X95888341Y-94706341D01*
X95777247Y-94841710D01*
X95694697Y-94996150D01*
X95676330Y-95056698D01*
X95644343Y-95162149D01*
X95643864Y-95163727D01*
X95631000Y-95294334D01*
X95631000Y-95294340D01*
X95626700Y-95338000D01*
X95631000Y-95381660D01*
X95631001Y-121090730D01*
X95576248Y-121145483D01*
X95443281Y-121344482D01*
X95351692Y-121565598D01*
X95305000Y-121800333D01*
X95305000Y-122039667D01*
X95351692Y-122274402D01*
X95443281Y-122495518D01*
X95576248Y-122694517D01*
X95745483Y-122863752D01*
X95944482Y-122996719D01*
X96165598Y-123088308D01*
X96400333Y-123135000D01*
X96639667Y-123135000D01*
X96874402Y-123088308D01*
X97095518Y-122996719D01*
X97294517Y-122863752D01*
X97463752Y-122694517D01*
X97596719Y-122495518D01*
X97688308Y-122274402D01*
X97735000Y-122039667D01*
X97735000Y-121800333D01*
X97688308Y-121565598D01*
X97596719Y-121344482D01*
X97463752Y-121145483D01*
X97409000Y-121090731D01*
X97409000Y-95706235D01*
X98133741Y-94981495D01*
X98167659Y-94953659D01*
X98206559Y-94906260D01*
X98278752Y-94818292D01*
X98285075Y-94806464D01*
X98350642Y-94683796D01*
X98361302Y-94663853D01*
X98368417Y-94640400D01*
X98412136Y-94496274D01*
X98416788Y-94449040D01*
X98510482Y-94439812D01*
X98630180Y-94403502D01*
X98740494Y-94344537D01*
X98837185Y-94265185D01*
X98916537Y-94168494D01*
X98975502Y-94058180D01*
X98997513Y-93985620D01*
X99129368Y-94117475D01*
X99165288Y-94141476D01*
X98462264Y-94844501D01*
X98428341Y-94872341D01*
X98317247Y-95007710D01*
X98234697Y-95162150D01*
X98183864Y-95329727D01*
X98171000Y-95460334D01*
X98171000Y-95460340D01*
X98166700Y-95504000D01*
X98171000Y-95547660D01*
X98171001Y-121090730D01*
X98116248Y-121145483D01*
X97983281Y-121344482D01*
X97891692Y-121565598D01*
X97845000Y-121800333D01*
X97845000Y-122039667D01*
X97891692Y-122274402D01*
X97983281Y-122495518D01*
X98116248Y-122694517D01*
X98285483Y-122863752D01*
X98484482Y-122996719D01*
X98705598Y-123088308D01*
X98940333Y-123135000D01*
X99179667Y-123135000D01*
X99414402Y-123088308D01*
X99635518Y-122996719D01*
X99834517Y-122863752D01*
X100003752Y-122694517D01*
X100136719Y-122495518D01*
X100228308Y-122274402D01*
X100275000Y-122039667D01*
X100275000Y-121800333D01*
X100228308Y-121565598D01*
X100136719Y-121344482D01*
X100003752Y-121145483D01*
X99949000Y-121090731D01*
X99949000Y-95872235D01*
X100673741Y-95147495D01*
X100707659Y-95119659D01*
X100818753Y-94984291D01*
X100901303Y-94829851D01*
X100943697Y-94690094D01*
X100952136Y-94662275D01*
X100958591Y-94596733D01*
X100965000Y-94531667D01*
X100965000Y-94531660D01*
X100969300Y-94488000D01*
X100965000Y-94444340D01*
X100965000Y-94155983D01*
X101022632Y-94117475D01*
X101229475Y-93910632D01*
X101346000Y-93736240D01*
X101462525Y-93910632D01*
X101669368Y-94117475D01*
X101705288Y-94141476D01*
X101002264Y-94844501D01*
X100968341Y-94872341D01*
X100857247Y-95007710D01*
X100774697Y-95162150D01*
X100723864Y-95329727D01*
X100711000Y-95460334D01*
X100711000Y-95460340D01*
X100706700Y-95504000D01*
X100711000Y-95547660D01*
X100711001Y-121090730D01*
X100656248Y-121145483D01*
X100523281Y-121344482D01*
X100431692Y-121565598D01*
X100385000Y-121800333D01*
X100385000Y-122039667D01*
X100431692Y-122274402D01*
X100523281Y-122495518D01*
X100656248Y-122694517D01*
X100825483Y-122863752D01*
X101024482Y-122996719D01*
X101245598Y-123088308D01*
X101480333Y-123135000D01*
X101719667Y-123135000D01*
X101954402Y-123088308D01*
X102175518Y-122996719D01*
X102374517Y-122863752D01*
X102543752Y-122694517D01*
X102676719Y-122495518D01*
X102768308Y-122274402D01*
X102815000Y-122039667D01*
X102815000Y-121800333D01*
X102768308Y-121565598D01*
X102676719Y-121344482D01*
X102543752Y-121145483D01*
X102489000Y-121090731D01*
X102489000Y-95872235D01*
X103213741Y-95147495D01*
X103247659Y-95119659D01*
X103358753Y-94984291D01*
X103441303Y-94829851D01*
X103483697Y-94690094D01*
X103492136Y-94662275D01*
X103498591Y-94596733D01*
X103505000Y-94531667D01*
X103505000Y-94531660D01*
X103509300Y-94488000D01*
X103505000Y-94444340D01*
X103505000Y-94155983D01*
X103562632Y-94117475D01*
X103769475Y-93910632D01*
X103886000Y-93736240D01*
X104002525Y-93910632D01*
X104209368Y-94117475D01*
X104245288Y-94141476D01*
X103542264Y-94844501D01*
X103508341Y-94872341D01*
X103397247Y-95007710D01*
X103314697Y-95162150D01*
X103263864Y-95329727D01*
X103251000Y-95460334D01*
X103251000Y-95460340D01*
X103246700Y-95504000D01*
X103251000Y-95547660D01*
X103251001Y-121090730D01*
X103196248Y-121145483D01*
X103063281Y-121344482D01*
X102971692Y-121565598D01*
X102925000Y-121800333D01*
X102925000Y-122039667D01*
X102971692Y-122274402D01*
X103063281Y-122495518D01*
X103196248Y-122694517D01*
X103365483Y-122863752D01*
X103564482Y-122996719D01*
X103785598Y-123088308D01*
X104020333Y-123135000D01*
X104259667Y-123135000D01*
X104494402Y-123088308D01*
X104715518Y-122996719D01*
X104914517Y-122863752D01*
X105083752Y-122694517D01*
X105216719Y-122495518D01*
X105308308Y-122274402D01*
X105355000Y-122039667D01*
X105355000Y-121800333D01*
X105308308Y-121565598D01*
X105216719Y-121344482D01*
X105083752Y-121145483D01*
X105029000Y-121090731D01*
X105029000Y-95872235D01*
X105753741Y-95147495D01*
X105787659Y-95119659D01*
X105898753Y-94984291D01*
X105981303Y-94829851D01*
X106023697Y-94690094D01*
X106032136Y-94662275D01*
X106034290Y-94640400D01*
X116454700Y-94640400D01*
X116459001Y-94684070D01*
X116459000Y-102064340D01*
X116454700Y-102108000D01*
X116459000Y-102151660D01*
X116459000Y-102151666D01*
X116471864Y-102282273D01*
X116522697Y-102449850D01*
X116605247Y-102604290D01*
X116716341Y-102739659D01*
X116750264Y-102767499D01*
X121031001Y-107048236D01*
X121031000Y-121090731D01*
X120976248Y-121145483D01*
X120843281Y-121344482D01*
X120751692Y-121565598D01*
X120705000Y-121800333D01*
X120705000Y-122039667D01*
X120751692Y-122274402D01*
X120843281Y-122495518D01*
X120976248Y-122694517D01*
X121145483Y-122863752D01*
X121344482Y-122996719D01*
X121565598Y-123088308D01*
X121800333Y-123135000D01*
X122039667Y-123135000D01*
X122274402Y-123088308D01*
X122495518Y-122996719D01*
X122694517Y-122863752D01*
X122863752Y-122694517D01*
X122996719Y-122495518D01*
X123088308Y-122274402D01*
X123135000Y-122039667D01*
X123135000Y-121800333D01*
X123088308Y-121565598D01*
X122996719Y-121344482D01*
X122863752Y-121145483D01*
X122809000Y-121090731D01*
X122809000Y-106723659D01*
X122813300Y-106679999D01*
X122809000Y-106636339D01*
X122809000Y-106636333D01*
X122796136Y-106505726D01*
X122796136Y-106505724D01*
X122745302Y-106338147D01*
X122741589Y-106331200D01*
X122662753Y-106183709D01*
X122551659Y-106048341D01*
X122517736Y-106020501D01*
X118237000Y-101739765D01*
X118237000Y-101451026D01*
X118433042Y-101451026D01*
X118478778Y-101601814D01*
X118605316Y-101866944D01*
X118781146Y-102102293D01*
X118999512Y-102298817D01*
X119252022Y-102448964D01*
X119528973Y-102546963D01*
X119761000Y-102426464D01*
X119761000Y-101219000D01*
X120015000Y-101219000D01*
X120015000Y-102426464D01*
X120247027Y-102546963D01*
X120523978Y-102448964D01*
X120776488Y-102298817D01*
X120994854Y-102102293D01*
X121158000Y-101883922D01*
X121321146Y-102102293D01*
X121539512Y-102298817D01*
X121792022Y-102448964D01*
X122068973Y-102546963D01*
X122301000Y-102426464D01*
X122301000Y-101219000D01*
X122555000Y-101219000D01*
X122555000Y-102426464D01*
X122787027Y-102546963D01*
X123063978Y-102448964D01*
X123316488Y-102298817D01*
X123534854Y-102102293D01*
X123710684Y-101866944D01*
X123837222Y-101601814D01*
X123882958Y-101451026D01*
X123761817Y-101219000D01*
X122555000Y-101219000D01*
X122301000Y-101219000D01*
X120015000Y-101219000D01*
X119761000Y-101219000D01*
X118554183Y-101219000D01*
X118433042Y-101451026D01*
X118237000Y-101451026D01*
X118237000Y-95008635D01*
X118521665Y-94723971D01*
X118573215Y-94786785D01*
X118669906Y-94866137D01*
X118780220Y-94925102D01*
X118838023Y-94942636D01*
X118723961Y-95056698D01*
X118559958Y-95302147D01*
X118446990Y-95574875D01*
X118389400Y-95864401D01*
X118389400Y-96159599D01*
X118446990Y-96449125D01*
X118559958Y-96721853D01*
X118723961Y-96967302D01*
X118932698Y-97176039D01*
X119091281Y-97282000D01*
X118932698Y-97387961D01*
X118723961Y-97596698D01*
X118559958Y-97842147D01*
X118446990Y-98114875D01*
X118389400Y-98404401D01*
X118389400Y-98699599D01*
X118446990Y-98989125D01*
X118559958Y-99261853D01*
X118723961Y-99507302D01*
X118932698Y-99716039D01*
X119098103Y-99826559D01*
X118999512Y-99885183D01*
X118781146Y-100081707D01*
X118605316Y-100317056D01*
X118478778Y-100582186D01*
X118433042Y-100732974D01*
X118554183Y-100965000D01*
X119761000Y-100965000D01*
X119761000Y-100945000D01*
X120015000Y-100945000D01*
X120015000Y-100965000D01*
X122301000Y-100965000D01*
X122301000Y-98679000D01*
X122555000Y-98679000D01*
X122555000Y-100965000D01*
X123761817Y-100965000D01*
X123882958Y-100732974D01*
X123837222Y-100582186D01*
X123710684Y-100317056D01*
X123534854Y-100081707D01*
X123316488Y-99885183D01*
X123210230Y-99822000D01*
X123316488Y-99758817D01*
X123534854Y-99562293D01*
X123710684Y-99326944D01*
X123837222Y-99061814D01*
X123882958Y-98911026D01*
X123761817Y-98679000D01*
X122555000Y-98679000D01*
X122301000Y-98679000D01*
X122281000Y-98679000D01*
X122281000Y-98425000D01*
X122301000Y-98425000D01*
X122301000Y-96139000D01*
X122555000Y-96139000D01*
X122555000Y-98425000D01*
X123761817Y-98425000D01*
X123882958Y-98192974D01*
X123837222Y-98042186D01*
X123710684Y-97777056D01*
X123534854Y-97541707D01*
X123316488Y-97345183D01*
X123210230Y-97282000D01*
X123316488Y-97218817D01*
X123534854Y-97022293D01*
X123710684Y-96786944D01*
X123837222Y-96521814D01*
X123882958Y-96371026D01*
X123761817Y-96139000D01*
X122555000Y-96139000D01*
X122301000Y-96139000D01*
X122281000Y-96139000D01*
X122281000Y-95885000D01*
X122301000Y-95885000D01*
X122301000Y-93599000D01*
X122555000Y-93599000D01*
X122555000Y-95885000D01*
X123761817Y-95885000D01*
X123882958Y-95652974D01*
X123837222Y-95502186D01*
X123710684Y-95237056D01*
X123534854Y-95001707D01*
X123316488Y-94805183D01*
X123210230Y-94742000D01*
X123316488Y-94678817D01*
X123534854Y-94482293D01*
X123710684Y-94246944D01*
X123837222Y-93981814D01*
X123882958Y-93831026D01*
X123761817Y-93599000D01*
X122555000Y-93599000D01*
X122301000Y-93599000D01*
X122281000Y-93599000D01*
X122281000Y-93345000D01*
X122301000Y-93345000D01*
X122301000Y-92137536D01*
X122555000Y-92137536D01*
X122555000Y-93345000D01*
X123761817Y-93345000D01*
X123882958Y-93112974D01*
X123837222Y-92962186D01*
X123710684Y-92697056D01*
X123534854Y-92461707D01*
X123316488Y-92265183D01*
X123063978Y-92115036D01*
X122787027Y-92017037D01*
X122555000Y-92137536D01*
X122301000Y-92137536D01*
X122068973Y-92017037D01*
X121792022Y-92115036D01*
X121539512Y-92265183D01*
X121360053Y-92426692D01*
X121341102Y-92364220D01*
X121282137Y-92253906D01*
X121202785Y-92157215D01*
X121106094Y-92077863D01*
X120995780Y-92018898D01*
X120876082Y-91982588D01*
X120751600Y-91970328D01*
X119024400Y-91970328D01*
X118899918Y-91982588D01*
X118780220Y-92018898D01*
X118669906Y-92077863D01*
X118573215Y-92157215D01*
X118493863Y-92253906D01*
X118434898Y-92364220D01*
X118398588Y-92483918D01*
X118388008Y-92591345D01*
X118375324Y-92592594D01*
X118342124Y-92595864D01*
X118255474Y-92622149D01*
X118174549Y-92646697D01*
X118020109Y-92729247D01*
X117884741Y-92840341D01*
X117856905Y-92874259D01*
X116750259Y-93980906D01*
X116716342Y-94008741D01*
X116688507Y-94042658D01*
X116688505Y-94042660D01*
X116605248Y-94144109D01*
X116522698Y-94298548D01*
X116471864Y-94466126D01*
X116454700Y-94640400D01*
X106034290Y-94640400D01*
X106038591Y-94596733D01*
X106045000Y-94531667D01*
X106045000Y-94531660D01*
X106049300Y-94488000D01*
X106045000Y-94444340D01*
X106045000Y-94155983D01*
X106102632Y-94117475D01*
X106309475Y-93910632D01*
X106426000Y-93736240D01*
X106542525Y-93910632D01*
X106749368Y-94117475D01*
X106992589Y-94279990D01*
X107262842Y-94391932D01*
X107549740Y-94449000D01*
X107842260Y-94449000D01*
X108129158Y-94391932D01*
X108399411Y-94279990D01*
X108642632Y-94117475D01*
X108849475Y-93910632D01*
X108971195Y-93728466D01*
X109040822Y-93845355D01*
X109235731Y-94061588D01*
X109469080Y-94235641D01*
X109731901Y-94360825D01*
X109879110Y-94405476D01*
X110109000Y-94284155D01*
X110109000Y-93091000D01*
X110089000Y-93091000D01*
X110089000Y-92837000D01*
X110109000Y-92837000D01*
X110109000Y-91643845D01*
X110363000Y-91643845D01*
X110363000Y-92837000D01*
X110383000Y-92837000D01*
X110383000Y-93091000D01*
X110363000Y-93091000D01*
X110363000Y-94284155D01*
X110592890Y-94405476D01*
X110740099Y-94360825D01*
X111002920Y-94235641D01*
X111236269Y-94061588D01*
X111431178Y-93845355D01*
X111500805Y-93728466D01*
X111622525Y-93910632D01*
X111829368Y-94117475D01*
X112072589Y-94279990D01*
X112342842Y-94391932D01*
X112629740Y-94449000D01*
X112922260Y-94449000D01*
X113209158Y-94391932D01*
X113479411Y-94279990D01*
X113722632Y-94117475D01*
X113929475Y-93910632D01*
X114046000Y-93736240D01*
X114162525Y-93910632D01*
X114369368Y-94117475D01*
X114612589Y-94279990D01*
X114882842Y-94391932D01*
X115169740Y-94449000D01*
X115462260Y-94449000D01*
X115749158Y-94391932D01*
X116019411Y-94279990D01*
X116262632Y-94117475D01*
X116469475Y-93910632D01*
X116631990Y-93667411D01*
X116743932Y-93397158D01*
X116801000Y-93110260D01*
X116801000Y-92817740D01*
X116743932Y-92530842D01*
X116631990Y-92260589D01*
X116469475Y-92017368D01*
X116262632Y-91810525D01*
X116019411Y-91648010D01*
X115749158Y-91536068D01*
X115462260Y-91479000D01*
X115169740Y-91479000D01*
X114882842Y-91536068D01*
X114612589Y-91648010D01*
X114369368Y-91810525D01*
X114162525Y-92017368D01*
X114046000Y-92191760D01*
X113929475Y-92017368D01*
X113722632Y-91810525D01*
X113479411Y-91648010D01*
X113209158Y-91536068D01*
X112922260Y-91479000D01*
X112629740Y-91479000D01*
X112342842Y-91536068D01*
X112072589Y-91648010D01*
X111829368Y-91810525D01*
X111622525Y-92017368D01*
X111500805Y-92199534D01*
X111431178Y-92082645D01*
X111236269Y-91866412D01*
X111002920Y-91692359D01*
X110740099Y-91567175D01*
X110592890Y-91522524D01*
X110363000Y-91643845D01*
X110109000Y-91643845D01*
X109879110Y-91522524D01*
X109731901Y-91567175D01*
X109469080Y-91692359D01*
X109235731Y-91866412D01*
X109040822Y-92082645D01*
X108971195Y-92199534D01*
X108849475Y-92017368D01*
X108642632Y-91810525D01*
X108585000Y-91772017D01*
X108585000Y-88760235D01*
X115200345Y-82144890D01*
X119970524Y-82144890D01*
X120015175Y-82292099D01*
X120140359Y-82554920D01*
X120314412Y-82788269D01*
X120530645Y-82983178D01*
X120780748Y-83132157D01*
X121055109Y-83229481D01*
X121285000Y-83108814D01*
X121285000Y-81915000D01*
X121539000Y-81915000D01*
X121539000Y-83108814D01*
X121768891Y-83229481D01*
X122043252Y-83132157D01*
X122293355Y-82983178D01*
X122509588Y-82788269D01*
X122683641Y-82554920D01*
X122808825Y-82292099D01*
X122853476Y-82144890D01*
X122732155Y-81915000D01*
X121539000Y-81915000D01*
X121285000Y-81915000D01*
X120091845Y-81915000D01*
X119970524Y-82144890D01*
X115200345Y-82144890D01*
X117208236Y-80137000D01*
X120220017Y-80137000D01*
X120258525Y-80194632D01*
X120465368Y-80401475D01*
X120647534Y-80523195D01*
X120530645Y-80592822D01*
X120314412Y-80787731D01*
X120140359Y-81021080D01*
X120015175Y-81283901D01*
X119970524Y-81431110D01*
X120091845Y-81661000D01*
X121285000Y-81661000D01*
X121285000Y-81641000D01*
X121539000Y-81641000D01*
X121539000Y-81661000D01*
X122732155Y-81661000D01*
X122853476Y-81431110D01*
X122808825Y-81283901D01*
X122683641Y-81021080D01*
X122509588Y-80787731D01*
X122293355Y-80592822D01*
X122176466Y-80523195D01*
X122358632Y-80401475D01*
X122565475Y-80194632D01*
X122727990Y-79951411D01*
X122839932Y-79681158D01*
X122897000Y-79394260D01*
X122897000Y-79101740D01*
X122839932Y-78814842D01*
X122727990Y-78544589D01*
X122565475Y-78301368D01*
X122358632Y-78094525D01*
X122184240Y-77978000D01*
X122358632Y-77861475D01*
X122565475Y-77654632D01*
X122603983Y-77597000D01*
X125154731Y-77597000D01*
X125209483Y-77651752D01*
X125408482Y-77784719D01*
X125629598Y-77876308D01*
X125864333Y-77923000D01*
X126103667Y-77923000D01*
X126338402Y-77876308D01*
X126559518Y-77784719D01*
X126758517Y-77651752D01*
X126927752Y-77482517D01*
X127060719Y-77283518D01*
X127152308Y-77062402D01*
X127199000Y-76827667D01*
X127199000Y-76588333D01*
X127152308Y-76353598D01*
X127060719Y-76132482D01*
X126927752Y-75933483D01*
X126758517Y-75764248D01*
X126559518Y-75631281D01*
X126338402Y-75539692D01*
X126103667Y-75493000D01*
X125864333Y-75493000D01*
X125629598Y-75539692D01*
X125408482Y-75631281D01*
X125209483Y-75764248D01*
X125154731Y-75819000D01*
X122603983Y-75819000D01*
X122565475Y-75761368D01*
X122358632Y-75554525D01*
X122184240Y-75438000D01*
X122358632Y-75321475D01*
X122565475Y-75114632D01*
X122727990Y-74871411D01*
X122839932Y-74601158D01*
X122897000Y-74314260D01*
X122897000Y-74021740D01*
X122839932Y-73734842D01*
X122727990Y-73464589D01*
X122565475Y-73221368D01*
X122358632Y-73014525D01*
X122184240Y-72898000D01*
X122358632Y-72781475D01*
X122565475Y-72574632D01*
X122727990Y-72331411D01*
X122839932Y-72061158D01*
X122897000Y-71774260D01*
X122897000Y-71481740D01*
X122839932Y-71194842D01*
X122727990Y-70924589D01*
X122565475Y-70681368D01*
X122433620Y-70549513D01*
X122506180Y-70527502D01*
X122616494Y-70468537D01*
X122713185Y-70389185D01*
X122792537Y-70292494D01*
X122851502Y-70182180D01*
X122887812Y-70062482D01*
X122900072Y-69938000D01*
X122900072Y-68238000D01*
X122887812Y-68113518D01*
X122851502Y-67993820D01*
X122792537Y-67883506D01*
X122713185Y-67786815D01*
X122616494Y-67707463D01*
X122506180Y-67648498D01*
X122386482Y-67612188D01*
X122262000Y-67599928D01*
X120562000Y-67599928D01*
X120437518Y-67612188D01*
X120317820Y-67648498D01*
X120207506Y-67707463D01*
X120110815Y-67786815D01*
X120031463Y-67883506D01*
X119972498Y-67993820D01*
X119936188Y-68113518D01*
X119923928Y-68238000D01*
X119923928Y-69938000D01*
X119936188Y-70062482D01*
X119972498Y-70182180D01*
X120031463Y-70292494D01*
X120110815Y-70389185D01*
X120207506Y-70468537D01*
X120317820Y-70527502D01*
X120390380Y-70549513D01*
X120258525Y-70681368D01*
X120096010Y-70924589D01*
X119984068Y-71194842D01*
X119927000Y-71481740D01*
X119927000Y-71774260D01*
X119984068Y-72061158D01*
X120096010Y-72331411D01*
X120258525Y-72574632D01*
X120465368Y-72781475D01*
X120639760Y-72898000D01*
X120465368Y-73014525D01*
X120258525Y-73221368D01*
X120096010Y-73464589D01*
X119984068Y-73734842D01*
X119927000Y-74021740D01*
X119927000Y-74314260D01*
X119984068Y-74601158D01*
X120096010Y-74871411D01*
X120258525Y-75114632D01*
X120465368Y-75321475D01*
X120639760Y-75438000D01*
X120465368Y-75554525D01*
X120258525Y-75761368D01*
X120096010Y-76004589D01*
X119984068Y-76274842D01*
X119927000Y-76561740D01*
X119927000Y-76854260D01*
X119984068Y-77141158D01*
X120096010Y-77411411D01*
X120258525Y-77654632D01*
X120465368Y-77861475D01*
X120639760Y-77978000D01*
X120465368Y-78094525D01*
X120258525Y-78301368D01*
X120220017Y-78359000D01*
X116883660Y-78359000D01*
X116840000Y-78354700D01*
X116796340Y-78359000D01*
X116796333Y-78359000D01*
X116682325Y-78370229D01*
X116665725Y-78371864D01*
X116592758Y-78393998D01*
X116498149Y-78422697D01*
X116343709Y-78505247D01*
X116208341Y-78616341D01*
X116180506Y-78650258D01*
X107327765Y-87503000D01*
X96563659Y-87503000D01*
X96519999Y-87498700D01*
X96476339Y-87503000D01*
X96476333Y-87503000D01*
X96378924Y-87512594D01*
X96345724Y-87515864D01*
X96244058Y-87546704D01*
X96178149Y-87566697D01*
X96023709Y-87649247D01*
X95888341Y-87760341D01*
X95860506Y-87794258D01*
X93382259Y-90272506D01*
X93348342Y-90300341D01*
X93320507Y-90334258D01*
X93320505Y-90334260D01*
X93237248Y-90435709D01*
X93154698Y-90590148D01*
X93103864Y-90757726D01*
X93086700Y-90932000D01*
X93091001Y-90975670D01*
X93091000Y-99754731D01*
X93036248Y-99809483D01*
X92903281Y-100008482D01*
X92811692Y-100229598D01*
X92765000Y-100464333D01*
X80911700Y-100464333D01*
X80911700Y-62265520D01*
X81093733Y-62265520D01*
X81093733Y-62702480D01*
X81178980Y-63131045D01*
X81346198Y-63534743D01*
X81588960Y-63898063D01*
X81897937Y-64207040D01*
X82261257Y-64449802D01*
X82664955Y-64617020D01*
X83093520Y-64702267D01*
X83530480Y-64702267D01*
X83959045Y-64617020D01*
X84362743Y-64449802D01*
X84726063Y-64207040D01*
X85035040Y-63898063D01*
X85277802Y-63534743D01*
X85445020Y-63131045D01*
X85530267Y-62702480D01*
X85530267Y-62265520D01*
X122749733Y-62265520D01*
X122749733Y-62702480D01*
X122834980Y-63131045D01*
X123002198Y-63534743D01*
X123244960Y-63898063D01*
X123553937Y-64207040D01*
X123917257Y-64449802D01*
X124320955Y-64617020D01*
X124749520Y-64702267D01*
X125186480Y-64702267D01*
X125615045Y-64617020D01*
X126018743Y-64449802D01*
X126382063Y-64207040D01*
X126691040Y-63898063D01*
X126933802Y-63534743D01*
X127101020Y-63131045D01*
X127186267Y-62702480D01*
X127186267Y-62265520D01*
X127101020Y-61836955D01*
X126933802Y-61433257D01*
X126691040Y-61069937D01*
X126382063Y-60760960D01*
X126018743Y-60518198D01*
X125615045Y-60350980D01*
X125186480Y-60265733D01*
X124749520Y-60265733D01*
X124320955Y-60350980D01*
X123917257Y-60518198D01*
X123553937Y-60760960D01*
X123244960Y-61069937D01*
X123002198Y-61433257D01*
X122834980Y-61836955D01*
X122749733Y-62265520D01*
X85530267Y-62265520D01*
X85445020Y-61836955D01*
X85277802Y-61433257D01*
X85035040Y-61069937D01*
X84726063Y-60760960D01*
X84362743Y-60518198D01*
X83959045Y-60350980D01*
X83530480Y-60265733D01*
X83093520Y-60265733D01*
X82664955Y-60350980D01*
X82261257Y-60518198D01*
X81897937Y-60760960D01*
X81588960Y-61069937D01*
X81346198Y-61433257D01*
X81178980Y-61836955D01*
X81093733Y-62265520D01*
X80911700Y-62265520D01*
X80911700Y-60083700D01*
X127368300Y-60083700D01*
X127368301Y-131940300D01*
G37*
X127368301Y-131940300D02*
X80911700Y-131940300D01*
X80911700Y-129321520D01*
X81093733Y-129321520D01*
X81093733Y-129758480D01*
X81178980Y-130187045D01*
X81346198Y-130590743D01*
X81588960Y-130954063D01*
X81897937Y-131263040D01*
X82261257Y-131505802D01*
X82664955Y-131673020D01*
X83093520Y-131758267D01*
X83530480Y-131758267D01*
X83959045Y-131673020D01*
X84362743Y-131505802D01*
X84726063Y-131263040D01*
X85035040Y-130954063D01*
X85277802Y-130590743D01*
X85445020Y-130187045D01*
X85530267Y-129758480D01*
X85530267Y-129321520D01*
X122749733Y-129321520D01*
X122749733Y-129758480D01*
X122834980Y-130187045D01*
X123002198Y-130590743D01*
X123244960Y-130954063D01*
X123553937Y-131263040D01*
X123917257Y-131505802D01*
X124320955Y-131673020D01*
X124749520Y-131758267D01*
X125186480Y-131758267D01*
X125615045Y-131673020D01*
X126018743Y-131505802D01*
X126382063Y-131263040D01*
X126691040Y-130954063D01*
X126933802Y-130590743D01*
X127101020Y-130187045D01*
X127186267Y-129758480D01*
X127186267Y-129321520D01*
X127101020Y-128892955D01*
X126933802Y-128489257D01*
X126691040Y-128125937D01*
X126382063Y-127816960D01*
X126018743Y-127574198D01*
X125615045Y-127406980D01*
X125186480Y-127321733D01*
X124749520Y-127321733D01*
X124320955Y-127406980D01*
X123917257Y-127574198D01*
X123553937Y-127816960D01*
X123244960Y-128125937D01*
X123002198Y-128489257D01*
X122834980Y-128892955D01*
X122749733Y-129321520D01*
X85530267Y-129321520D01*
X85445020Y-128892955D01*
X85277802Y-128489257D01*
X85035040Y-128125937D01*
X84726063Y-127816960D01*
X84362743Y-127574198D01*
X83959045Y-127406980D01*
X83530480Y-127321733D01*
X83093520Y-127321733D01*
X82664955Y-127406980D01*
X82261257Y-127574198D01*
X81897937Y-127816960D01*
X81588960Y-128125937D01*
X81346198Y-128489257D01*
X81178980Y-128892955D01*
X81093733Y-129321520D01*
X80911700Y-129321520D01*
X80911700Y-100464333D01*
X92765000Y-100464333D01*
X92765000Y-100703667D01*
X92811692Y-100938402D01*
X92903281Y-101159518D01*
X93036248Y-101358517D01*
X93205483Y-101527752D01*
X93404482Y-101660719D01*
X93625598Y-101752308D01*
X93860333Y-101799000D01*
X94099667Y-101799000D01*
X94334402Y-101752308D01*
X94555518Y-101660719D01*
X94754517Y-101527752D01*
X94923752Y-101358517D01*
X95056719Y-101159518D01*
X95148308Y-100938402D01*
X95195000Y-100703667D01*
X95195000Y-100464333D01*
X95148308Y-100229598D01*
X95056719Y-100008482D01*
X94923752Y-99809483D01*
X94869000Y-99754731D01*
X94869000Y-91300235D01*
X96888236Y-89281000D01*
X106807001Y-89281000D01*
X106807000Y-91772016D01*
X106749368Y-91810525D01*
X106542525Y-92017368D01*
X106426000Y-92191760D01*
X106309475Y-92017368D01*
X106102632Y-91810525D01*
X105859411Y-91648010D01*
X105589158Y-91536068D01*
X105302260Y-91479000D01*
X105009740Y-91479000D01*
X104722842Y-91536068D01*
X104452589Y-91648010D01*
X104209368Y-91810525D01*
X104002525Y-92017368D01*
X103886000Y-92191760D01*
X103769475Y-92017368D01*
X103562632Y-91810525D01*
X103319411Y-91648010D01*
X103049158Y-91536068D01*
X102762260Y-91479000D01*
X102469740Y-91479000D01*
X102182842Y-91536068D01*
X101912589Y-91648010D01*
X101669368Y-91810525D01*
X101462525Y-92017368D01*
X101346000Y-92191760D01*
X101229475Y-92017368D01*
X101022632Y-91810525D01*
X100779411Y-91648010D01*
X100509158Y-91536068D01*
X100222260Y-91479000D01*
X99929740Y-91479000D01*
X99642842Y-91536068D01*
X99372589Y-91648010D01*
X99129368Y-91810525D01*
X98997513Y-91942380D01*
X98975502Y-91869820D01*
X98916537Y-91759506D01*
X98837185Y-91662815D01*
X98740494Y-91583463D01*
X98630180Y-91524498D01*
X98510482Y-91488188D01*
X98386000Y-91475928D01*
X96686000Y-91475928D01*
X96561518Y-91488188D01*
X96441820Y-91524498D01*
X96331506Y-91583463D01*
X96234815Y-91662815D01*
X96155463Y-91759506D01*
X96096498Y-91869820D01*
X96060188Y-91989518D01*
X96047928Y-92114000D01*
X96047928Y-93814000D01*
X96060188Y-93938482D01*
X96096498Y-94058180D01*
X96155463Y-94168494D01*
X96234815Y-94265185D01*
X96290160Y-94310605D01*
X95922264Y-94678501D01*
X95888341Y-94706341D01*
X95777247Y-94841710D01*
X95694697Y-94996150D01*
X95676330Y-95056698D01*
X95644343Y-95162149D01*
X95643864Y-95163727D01*
X95631000Y-95294334D01*
X95631000Y-95294340D01*
X95626700Y-95338000D01*
X95631000Y-95381660D01*
X95631001Y-121090730D01*
X95576248Y-121145483D01*
X95443281Y-121344482D01*
X95351692Y-121565598D01*
X95305000Y-121800333D01*
X95305000Y-122039667D01*
X95351692Y-122274402D01*
X95443281Y-122495518D01*
X95576248Y-122694517D01*
X95745483Y-122863752D01*
X95944482Y-122996719D01*
X96165598Y-123088308D01*
X96400333Y-123135000D01*
X96639667Y-123135000D01*
X96874402Y-123088308D01*
X97095518Y-122996719D01*
X97294517Y-122863752D01*
X97463752Y-122694517D01*
X97596719Y-122495518D01*
X97688308Y-122274402D01*
X97735000Y-122039667D01*
X97735000Y-121800333D01*
X97688308Y-121565598D01*
X97596719Y-121344482D01*
X97463752Y-121145483D01*
X97409000Y-121090731D01*
X97409000Y-95706235D01*
X98133741Y-94981495D01*
X98167659Y-94953659D01*
X98206559Y-94906260D01*
X98278752Y-94818292D01*
X98285075Y-94806464D01*
X98350642Y-94683796D01*
X98361302Y-94663853D01*
X98368417Y-94640400D01*
X98412136Y-94496274D01*
X98416788Y-94449040D01*
X98510482Y-94439812D01*
X98630180Y-94403502D01*
X98740494Y-94344537D01*
X98837185Y-94265185D01*
X98916537Y-94168494D01*
X98975502Y-94058180D01*
X98997513Y-93985620D01*
X99129368Y-94117475D01*
X99165288Y-94141476D01*
X98462264Y-94844501D01*
X98428341Y-94872341D01*
X98317247Y-95007710D01*
X98234697Y-95162150D01*
X98183864Y-95329727D01*
X98171000Y-95460334D01*
X98171000Y-95460340D01*
X98166700Y-95504000D01*
X98171000Y-95547660D01*
X98171001Y-121090730D01*
X98116248Y-121145483D01*
X97983281Y-121344482D01*
X97891692Y-121565598D01*
X97845000Y-121800333D01*
X97845000Y-122039667D01*
X97891692Y-122274402D01*
X97983281Y-122495518D01*
X98116248Y-122694517D01*
X98285483Y-122863752D01*
X98484482Y-122996719D01*
X98705598Y-123088308D01*
X98940333Y-123135000D01*
X99179667Y-123135000D01*
X99414402Y-123088308D01*
X99635518Y-122996719D01*
X99834517Y-122863752D01*
X100003752Y-122694517D01*
X100136719Y-122495518D01*
X100228308Y-122274402D01*
X100275000Y-122039667D01*
X100275000Y-121800333D01*
X100228308Y-121565598D01*
X100136719Y-121344482D01*
X100003752Y-121145483D01*
X99949000Y-121090731D01*
X99949000Y-95872235D01*
X100673741Y-95147495D01*
X100707659Y-95119659D01*
X100818753Y-94984291D01*
X100901303Y-94829851D01*
X100943697Y-94690094D01*
X100952136Y-94662275D01*
X100958591Y-94596733D01*
X100965000Y-94531667D01*
X100965000Y-94531660D01*
X100969300Y-94488000D01*
X100965000Y-94444340D01*
X100965000Y-94155983D01*
X101022632Y-94117475D01*
X101229475Y-93910632D01*
X101346000Y-93736240D01*
X101462525Y-93910632D01*
X101669368Y-94117475D01*
X101705288Y-94141476D01*
X101002264Y-94844501D01*
X100968341Y-94872341D01*
X100857247Y-95007710D01*
X100774697Y-95162150D01*
X100723864Y-95329727D01*
X100711000Y-95460334D01*
X100711000Y-95460340D01*
X100706700Y-95504000D01*
X100711000Y-95547660D01*
X100711001Y-121090730D01*
X100656248Y-121145483D01*
X100523281Y-121344482D01*
X100431692Y-121565598D01*
X100385000Y-121800333D01*
X100385000Y-122039667D01*
X100431692Y-122274402D01*
X100523281Y-122495518D01*
X100656248Y-122694517D01*
X100825483Y-122863752D01*
X101024482Y-122996719D01*
X101245598Y-123088308D01*
X101480333Y-123135000D01*
X101719667Y-123135000D01*
X101954402Y-123088308D01*
X102175518Y-122996719D01*
X102374517Y-122863752D01*
X102543752Y-122694517D01*
X102676719Y-122495518D01*
X102768308Y-122274402D01*
X102815000Y-122039667D01*
X102815000Y-121800333D01*
X102768308Y-121565598D01*
X102676719Y-121344482D01*
X102543752Y-121145483D01*
X102489000Y-121090731D01*
X102489000Y-95872235D01*
X103213741Y-95147495D01*
X103247659Y-95119659D01*
X103358753Y-94984291D01*
X103441303Y-94829851D01*
X103483697Y-94690094D01*
X103492136Y-94662275D01*
X103498591Y-94596733D01*
X103505000Y-94531667D01*
X103505000Y-94531660D01*
X103509300Y-94488000D01*
X103505000Y-94444340D01*
X103505000Y-94155983D01*
X103562632Y-94117475D01*
X103769475Y-93910632D01*
X103886000Y-93736240D01*
X104002525Y-93910632D01*
X104209368Y-94117475D01*
X104245288Y-94141476D01*
X103542264Y-94844501D01*
X103508341Y-94872341D01*
X103397247Y-95007710D01*
X103314697Y-95162150D01*
X103263864Y-95329727D01*
X103251000Y-95460334D01*
X103251000Y-95460340D01*
X103246700Y-95504000D01*
X103251000Y-95547660D01*
X103251001Y-121090730D01*
X103196248Y-121145483D01*
X103063281Y-121344482D01*
X102971692Y-121565598D01*
X102925000Y-121800333D01*
X102925000Y-122039667D01*
X102971692Y-122274402D01*
X103063281Y-122495518D01*
X103196248Y-122694517D01*
X103365483Y-122863752D01*
X103564482Y-122996719D01*
X103785598Y-123088308D01*
X104020333Y-123135000D01*
X104259667Y-123135000D01*
X104494402Y-123088308D01*
X104715518Y-122996719D01*
X104914517Y-122863752D01*
X105083752Y-122694517D01*
X105216719Y-122495518D01*
X105308308Y-122274402D01*
X105355000Y-122039667D01*
X105355000Y-121800333D01*
X105308308Y-121565598D01*
X105216719Y-121344482D01*
X105083752Y-121145483D01*
X105029000Y-121090731D01*
X105029000Y-95872235D01*
X105753741Y-95147495D01*
X105787659Y-95119659D01*
X105898753Y-94984291D01*
X105981303Y-94829851D01*
X106023697Y-94690094D01*
X106032136Y-94662275D01*
X106034290Y-94640400D01*
X116454700Y-94640400D01*
X116459001Y-94684070D01*
X116459000Y-102064340D01*
X116454700Y-102108000D01*
X116459000Y-102151660D01*
X116459000Y-102151666D01*
X116471864Y-102282273D01*
X116522697Y-102449850D01*
X116605247Y-102604290D01*
X116716341Y-102739659D01*
X116750264Y-102767499D01*
X121031001Y-107048236D01*
X121031000Y-121090731D01*
X120976248Y-121145483D01*
X120843281Y-121344482D01*
X120751692Y-121565598D01*
X120705000Y-121800333D01*
X120705000Y-122039667D01*
X120751692Y-122274402D01*
X120843281Y-122495518D01*
X120976248Y-122694517D01*
X121145483Y-122863752D01*
X121344482Y-122996719D01*
X121565598Y-123088308D01*
X121800333Y-123135000D01*
X122039667Y-123135000D01*
X122274402Y-123088308D01*
X122495518Y-122996719D01*
X122694517Y-122863752D01*
X122863752Y-122694517D01*
X122996719Y-122495518D01*
X123088308Y-122274402D01*
X123135000Y-122039667D01*
X123135000Y-121800333D01*
X123088308Y-121565598D01*
X122996719Y-121344482D01*
X122863752Y-121145483D01*
X122809000Y-121090731D01*
X122809000Y-106723659D01*
X122813300Y-106679999D01*
X122809000Y-106636339D01*
X122809000Y-106636333D01*
X122796136Y-106505726D01*
X122796136Y-106505724D01*
X122745302Y-106338147D01*
X122741589Y-106331200D01*
X122662753Y-106183709D01*
X122551659Y-106048341D01*
X122517736Y-106020501D01*
X118237000Y-101739765D01*
X118237000Y-101451026D01*
X118433042Y-101451026D01*
X118478778Y-101601814D01*
X118605316Y-101866944D01*
X118781146Y-102102293D01*
X118999512Y-102298817D01*
X119252022Y-102448964D01*
X119528973Y-102546963D01*
X119761000Y-102426464D01*
X119761000Y-101219000D01*
X120015000Y-101219000D01*
X120015000Y-102426464D01*
X120247027Y-102546963D01*
X120523978Y-102448964D01*
X120776488Y-102298817D01*
X120994854Y-102102293D01*
X121158000Y-101883922D01*
X121321146Y-102102293D01*
X121539512Y-102298817D01*
X121792022Y-102448964D01*
X122068973Y-102546963D01*
X122301000Y-102426464D01*
X122301000Y-101219000D01*
X122555000Y-101219000D01*
X122555000Y-102426464D01*
X122787027Y-102546963D01*
X123063978Y-102448964D01*
X123316488Y-102298817D01*
X123534854Y-102102293D01*
X123710684Y-101866944D01*
X123837222Y-101601814D01*
X123882958Y-101451026D01*
X123761817Y-101219000D01*
X122555000Y-101219000D01*
X122301000Y-101219000D01*
X120015000Y-101219000D01*
X119761000Y-101219000D01*
X118554183Y-101219000D01*
X118433042Y-101451026D01*
X118237000Y-101451026D01*
X118237000Y-95008635D01*
X118521665Y-94723971D01*
X118573215Y-94786785D01*
X118669906Y-94866137D01*
X118780220Y-94925102D01*
X118838023Y-94942636D01*
X118723961Y-95056698D01*
X118559958Y-95302147D01*
X118446990Y-95574875D01*
X118389400Y-95864401D01*
X118389400Y-96159599D01*
X118446990Y-96449125D01*
X118559958Y-96721853D01*
X118723961Y-96967302D01*
X118932698Y-97176039D01*
X119091281Y-97282000D01*
X118932698Y-97387961D01*
X118723961Y-97596698D01*
X118559958Y-97842147D01*
X118446990Y-98114875D01*
X118389400Y-98404401D01*
X118389400Y-98699599D01*
X118446990Y-98989125D01*
X118559958Y-99261853D01*
X118723961Y-99507302D01*
X118932698Y-99716039D01*
X119098103Y-99826559D01*
X118999512Y-99885183D01*
X118781146Y-100081707D01*
X118605316Y-100317056D01*
X118478778Y-100582186D01*
X118433042Y-100732974D01*
X118554183Y-100965000D01*
X119761000Y-100965000D01*
X119761000Y-100945000D01*
X120015000Y-100945000D01*
X120015000Y-100965000D01*
X122301000Y-100965000D01*
X122301000Y-98679000D01*
X122555000Y-98679000D01*
X122555000Y-100965000D01*
X123761817Y-100965000D01*
X123882958Y-100732974D01*
X123837222Y-100582186D01*
X123710684Y-100317056D01*
X123534854Y-100081707D01*
X123316488Y-99885183D01*
X123210230Y-99822000D01*
X123316488Y-99758817D01*
X123534854Y-99562293D01*
X123710684Y-99326944D01*
X123837222Y-99061814D01*
X123882958Y-98911026D01*
X123761817Y-98679000D01*
X122555000Y-98679000D01*
X122301000Y-98679000D01*
X122281000Y-98679000D01*
X122281000Y-98425000D01*
X122301000Y-98425000D01*
X122301000Y-96139000D01*
X122555000Y-96139000D01*
X122555000Y-98425000D01*
X123761817Y-98425000D01*
X123882958Y-98192974D01*
X123837222Y-98042186D01*
X123710684Y-97777056D01*
X123534854Y-97541707D01*
X123316488Y-97345183D01*
X123210230Y-97282000D01*
X123316488Y-97218817D01*
X123534854Y-97022293D01*
X123710684Y-96786944D01*
X123837222Y-96521814D01*
X123882958Y-96371026D01*
X123761817Y-96139000D01*
X122555000Y-96139000D01*
X122301000Y-96139000D01*
X122281000Y-96139000D01*
X122281000Y-95885000D01*
X122301000Y-95885000D01*
X122301000Y-93599000D01*
X122555000Y-93599000D01*
X122555000Y-95885000D01*
X123761817Y-95885000D01*
X123882958Y-95652974D01*
X123837222Y-95502186D01*
X123710684Y-95237056D01*
X123534854Y-95001707D01*
X123316488Y-94805183D01*
X123210230Y-94742000D01*
X123316488Y-94678817D01*
X123534854Y-94482293D01*
X123710684Y-94246944D01*
X123837222Y-93981814D01*
X123882958Y-93831026D01*
X123761817Y-93599000D01*
X122555000Y-93599000D01*
X122301000Y-93599000D01*
X122281000Y-93599000D01*
X122281000Y-93345000D01*
X122301000Y-93345000D01*
X122301000Y-92137536D01*
X122555000Y-92137536D01*
X122555000Y-93345000D01*
X123761817Y-93345000D01*
X123882958Y-93112974D01*
X123837222Y-92962186D01*
X123710684Y-92697056D01*
X123534854Y-92461707D01*
X123316488Y-92265183D01*
X123063978Y-92115036D01*
X122787027Y-92017037D01*
X122555000Y-92137536D01*
X122301000Y-92137536D01*
X122068973Y-92017037D01*
X121792022Y-92115036D01*
X121539512Y-92265183D01*
X121360053Y-92426692D01*
X121341102Y-92364220D01*
X121282137Y-92253906D01*
X121202785Y-92157215D01*
X121106094Y-92077863D01*
X120995780Y-92018898D01*
X120876082Y-91982588D01*
X120751600Y-91970328D01*
X119024400Y-91970328D01*
X118899918Y-91982588D01*
X118780220Y-92018898D01*
X118669906Y-92077863D01*
X118573215Y-92157215D01*
X118493863Y-92253906D01*
X118434898Y-92364220D01*
X118398588Y-92483918D01*
X118388008Y-92591345D01*
X118375324Y-92592594D01*
X118342124Y-92595864D01*
X118255474Y-92622149D01*
X118174549Y-92646697D01*
X118020109Y-92729247D01*
X117884741Y-92840341D01*
X117856905Y-92874259D01*
X116750259Y-93980906D01*
X116716342Y-94008741D01*
X116688507Y-94042658D01*
X116688505Y-94042660D01*
X116605248Y-94144109D01*
X116522698Y-94298548D01*
X116471864Y-94466126D01*
X116454700Y-94640400D01*
X106034290Y-94640400D01*
X106038591Y-94596733D01*
X106045000Y-94531667D01*
X106045000Y-94531660D01*
X106049300Y-94488000D01*
X106045000Y-94444340D01*
X106045000Y-94155983D01*
X106102632Y-94117475D01*
X106309475Y-93910632D01*
X106426000Y-93736240D01*
X106542525Y-93910632D01*
X106749368Y-94117475D01*
X106992589Y-94279990D01*
X107262842Y-94391932D01*
X107549740Y-94449000D01*
X107842260Y-94449000D01*
X108129158Y-94391932D01*
X108399411Y-94279990D01*
X108642632Y-94117475D01*
X108849475Y-93910632D01*
X108971195Y-93728466D01*
X109040822Y-93845355D01*
X109235731Y-94061588D01*
X109469080Y-94235641D01*
X109731901Y-94360825D01*
X109879110Y-94405476D01*
X110109000Y-94284155D01*
X110109000Y-93091000D01*
X110089000Y-93091000D01*
X110089000Y-92837000D01*
X110109000Y-92837000D01*
X110109000Y-91643845D01*
X110363000Y-91643845D01*
X110363000Y-92837000D01*
X110383000Y-92837000D01*
X110383000Y-93091000D01*
X110363000Y-93091000D01*
X110363000Y-94284155D01*
X110592890Y-94405476D01*
X110740099Y-94360825D01*
X111002920Y-94235641D01*
X111236269Y-94061588D01*
X111431178Y-93845355D01*
X111500805Y-93728466D01*
X111622525Y-93910632D01*
X111829368Y-94117475D01*
X112072589Y-94279990D01*
X112342842Y-94391932D01*
X112629740Y-94449000D01*
X112922260Y-94449000D01*
X113209158Y-94391932D01*
X113479411Y-94279990D01*
X113722632Y-94117475D01*
X113929475Y-93910632D01*
X114046000Y-93736240D01*
X114162525Y-93910632D01*
X114369368Y-94117475D01*
X114612589Y-94279990D01*
X114882842Y-94391932D01*
X115169740Y-94449000D01*
X115462260Y-94449000D01*
X115749158Y-94391932D01*
X116019411Y-94279990D01*
X116262632Y-94117475D01*
X116469475Y-93910632D01*
X116631990Y-93667411D01*
X116743932Y-93397158D01*
X116801000Y-93110260D01*
X116801000Y-92817740D01*
X116743932Y-92530842D01*
X116631990Y-92260589D01*
X116469475Y-92017368D01*
X116262632Y-91810525D01*
X116019411Y-91648010D01*
X115749158Y-91536068D01*
X115462260Y-91479000D01*
X115169740Y-91479000D01*
X114882842Y-91536068D01*
X114612589Y-91648010D01*
X114369368Y-91810525D01*
X114162525Y-92017368D01*
X114046000Y-92191760D01*
X113929475Y-92017368D01*
X113722632Y-91810525D01*
X113479411Y-91648010D01*
X113209158Y-91536068D01*
X112922260Y-91479000D01*
X112629740Y-91479000D01*
X112342842Y-91536068D01*
X112072589Y-91648010D01*
X111829368Y-91810525D01*
X111622525Y-92017368D01*
X111500805Y-92199534D01*
X111431178Y-92082645D01*
X111236269Y-91866412D01*
X111002920Y-91692359D01*
X110740099Y-91567175D01*
X110592890Y-91522524D01*
X110363000Y-91643845D01*
X110109000Y-91643845D01*
X109879110Y-91522524D01*
X109731901Y-91567175D01*
X109469080Y-91692359D01*
X109235731Y-91866412D01*
X109040822Y-92082645D01*
X108971195Y-92199534D01*
X108849475Y-92017368D01*
X108642632Y-91810525D01*
X108585000Y-91772017D01*
X108585000Y-88760235D01*
X115200345Y-82144890D01*
X119970524Y-82144890D01*
X120015175Y-82292099D01*
X120140359Y-82554920D01*
X120314412Y-82788269D01*
X120530645Y-82983178D01*
X120780748Y-83132157D01*
X121055109Y-83229481D01*
X121285000Y-83108814D01*
X121285000Y-81915000D01*
X121539000Y-81915000D01*
X121539000Y-83108814D01*
X121768891Y-83229481D01*
X122043252Y-83132157D01*
X122293355Y-82983178D01*
X122509588Y-82788269D01*
X122683641Y-82554920D01*
X122808825Y-82292099D01*
X122853476Y-82144890D01*
X122732155Y-81915000D01*
X121539000Y-81915000D01*
X121285000Y-81915000D01*
X120091845Y-81915000D01*
X119970524Y-82144890D01*
X115200345Y-82144890D01*
X117208236Y-80137000D01*
X120220017Y-80137000D01*
X120258525Y-80194632D01*
X120465368Y-80401475D01*
X120647534Y-80523195D01*
X120530645Y-80592822D01*
X120314412Y-80787731D01*
X120140359Y-81021080D01*
X120015175Y-81283901D01*
X119970524Y-81431110D01*
X120091845Y-81661000D01*
X121285000Y-81661000D01*
X121285000Y-81641000D01*
X121539000Y-81641000D01*
X121539000Y-81661000D01*
X122732155Y-81661000D01*
X122853476Y-81431110D01*
X122808825Y-81283901D01*
X122683641Y-81021080D01*
X122509588Y-80787731D01*
X122293355Y-80592822D01*
X122176466Y-80523195D01*
X122358632Y-80401475D01*
X122565475Y-80194632D01*
X122727990Y-79951411D01*
X122839932Y-79681158D01*
X122897000Y-79394260D01*
X122897000Y-79101740D01*
X122839932Y-78814842D01*
X122727990Y-78544589D01*
X122565475Y-78301368D01*
X122358632Y-78094525D01*
X122184240Y-77978000D01*
X122358632Y-77861475D01*
X122565475Y-77654632D01*
X122603983Y-77597000D01*
X125154731Y-77597000D01*
X125209483Y-77651752D01*
X125408482Y-77784719D01*
X125629598Y-77876308D01*
X125864333Y-77923000D01*
X126103667Y-77923000D01*
X126338402Y-77876308D01*
X126559518Y-77784719D01*
X126758517Y-77651752D01*
X126927752Y-77482517D01*
X127060719Y-77283518D01*
X127152308Y-77062402D01*
X127199000Y-76827667D01*
X127199000Y-76588333D01*
X127152308Y-76353598D01*
X127060719Y-76132482D01*
X126927752Y-75933483D01*
X126758517Y-75764248D01*
X126559518Y-75631281D01*
X126338402Y-75539692D01*
X126103667Y-75493000D01*
X125864333Y-75493000D01*
X125629598Y-75539692D01*
X125408482Y-75631281D01*
X125209483Y-75764248D01*
X125154731Y-75819000D01*
X122603983Y-75819000D01*
X122565475Y-75761368D01*
X122358632Y-75554525D01*
X122184240Y-75438000D01*
X122358632Y-75321475D01*
X122565475Y-75114632D01*
X122727990Y-74871411D01*
X122839932Y-74601158D01*
X122897000Y-74314260D01*
X122897000Y-74021740D01*
X122839932Y-73734842D01*
X122727990Y-73464589D01*
X122565475Y-73221368D01*
X122358632Y-73014525D01*
X122184240Y-72898000D01*
X122358632Y-72781475D01*
X122565475Y-72574632D01*
X122727990Y-72331411D01*
X122839932Y-72061158D01*
X122897000Y-71774260D01*
X122897000Y-71481740D01*
X122839932Y-71194842D01*
X122727990Y-70924589D01*
X122565475Y-70681368D01*
X122433620Y-70549513D01*
X122506180Y-70527502D01*
X122616494Y-70468537D01*
X122713185Y-70389185D01*
X122792537Y-70292494D01*
X122851502Y-70182180D01*
X122887812Y-70062482D01*
X122900072Y-69938000D01*
X122900072Y-68238000D01*
X122887812Y-68113518D01*
X122851502Y-67993820D01*
X122792537Y-67883506D01*
X122713185Y-67786815D01*
X122616494Y-67707463D01*
X122506180Y-67648498D01*
X122386482Y-67612188D01*
X122262000Y-67599928D01*
X120562000Y-67599928D01*
X120437518Y-67612188D01*
X120317820Y-67648498D01*
X120207506Y-67707463D01*
X120110815Y-67786815D01*
X120031463Y-67883506D01*
X119972498Y-67993820D01*
X119936188Y-68113518D01*
X119923928Y-68238000D01*
X119923928Y-69938000D01*
X119936188Y-70062482D01*
X119972498Y-70182180D01*
X120031463Y-70292494D01*
X120110815Y-70389185D01*
X120207506Y-70468537D01*
X120317820Y-70527502D01*
X120390380Y-70549513D01*
X120258525Y-70681368D01*
X120096010Y-70924589D01*
X119984068Y-71194842D01*
X119927000Y-71481740D01*
X119927000Y-71774260D01*
X119984068Y-72061158D01*
X120096010Y-72331411D01*
X120258525Y-72574632D01*
X120465368Y-72781475D01*
X120639760Y-72898000D01*
X120465368Y-73014525D01*
X120258525Y-73221368D01*
X120096010Y-73464589D01*
X119984068Y-73734842D01*
X119927000Y-74021740D01*
X119927000Y-74314260D01*
X119984068Y-74601158D01*
X120096010Y-74871411D01*
X120258525Y-75114632D01*
X120465368Y-75321475D01*
X120639760Y-75438000D01*
X120465368Y-75554525D01*
X120258525Y-75761368D01*
X120096010Y-76004589D01*
X119984068Y-76274842D01*
X119927000Y-76561740D01*
X119927000Y-76854260D01*
X119984068Y-77141158D01*
X120096010Y-77411411D01*
X120258525Y-77654632D01*
X120465368Y-77861475D01*
X120639760Y-77978000D01*
X120465368Y-78094525D01*
X120258525Y-78301368D01*
X120220017Y-78359000D01*
X116883660Y-78359000D01*
X116840000Y-78354700D01*
X116796340Y-78359000D01*
X116796333Y-78359000D01*
X116682325Y-78370229D01*
X116665725Y-78371864D01*
X116592758Y-78393998D01*
X116498149Y-78422697D01*
X116343709Y-78505247D01*
X116208341Y-78616341D01*
X116180506Y-78650258D01*
X107327765Y-87503000D01*
X96563659Y-87503000D01*
X96519999Y-87498700D01*
X96476339Y-87503000D01*
X96476333Y-87503000D01*
X96378924Y-87512594D01*
X96345724Y-87515864D01*
X96244058Y-87546704D01*
X96178149Y-87566697D01*
X96023709Y-87649247D01*
X95888341Y-87760341D01*
X95860506Y-87794258D01*
X93382259Y-90272506D01*
X93348342Y-90300341D01*
X93320507Y-90334258D01*
X93320505Y-90334260D01*
X93237248Y-90435709D01*
X93154698Y-90590148D01*
X93103864Y-90757726D01*
X93086700Y-90932000D01*
X93091001Y-90975670D01*
X93091000Y-99754731D01*
X93036248Y-99809483D01*
X92903281Y-100008482D01*
X92811692Y-100229598D01*
X92765000Y-100464333D01*
X80911700Y-100464333D01*
X80911700Y-62265520D01*
X81093733Y-62265520D01*
X81093733Y-62702480D01*
X81178980Y-63131045D01*
X81346198Y-63534743D01*
X81588960Y-63898063D01*
X81897937Y-64207040D01*
X82261257Y-64449802D01*
X82664955Y-64617020D01*
X83093520Y-64702267D01*
X83530480Y-64702267D01*
X83959045Y-64617020D01*
X84362743Y-64449802D01*
X84726063Y-64207040D01*
X85035040Y-63898063D01*
X85277802Y-63534743D01*
X85445020Y-63131045D01*
X85530267Y-62702480D01*
X85530267Y-62265520D01*
X122749733Y-62265520D01*
X122749733Y-62702480D01*
X122834980Y-63131045D01*
X123002198Y-63534743D01*
X123244960Y-63898063D01*
X123553937Y-64207040D01*
X123917257Y-64449802D01*
X124320955Y-64617020D01*
X124749520Y-64702267D01*
X125186480Y-64702267D01*
X125615045Y-64617020D01*
X126018743Y-64449802D01*
X126382063Y-64207040D01*
X126691040Y-63898063D01*
X126933802Y-63534743D01*
X127101020Y-63131045D01*
X127186267Y-62702480D01*
X127186267Y-62265520D01*
X127101020Y-61836955D01*
X126933802Y-61433257D01*
X126691040Y-61069937D01*
X126382063Y-60760960D01*
X126018743Y-60518198D01*
X125615045Y-60350980D01*
X125186480Y-60265733D01*
X124749520Y-60265733D01*
X124320955Y-60350980D01*
X123917257Y-60518198D01*
X123553937Y-60760960D01*
X123244960Y-61069937D01*
X123002198Y-61433257D01*
X122834980Y-61836955D01*
X122749733Y-62265520D01*
X85530267Y-62265520D01*
X85445020Y-61836955D01*
X85277802Y-61433257D01*
X85035040Y-61069937D01*
X84726063Y-60760960D01*
X84362743Y-60518198D01*
X83959045Y-60350980D01*
X83530480Y-60265733D01*
X83093520Y-60265733D01*
X82664955Y-60350980D01*
X82261257Y-60518198D01*
X81897937Y-60760960D01*
X81588960Y-61069937D01*
X81346198Y-61433257D01*
X81178980Y-61836955D01*
X81093733Y-62265520D01*
X80911700Y-62265520D01*
X80911700Y-60083700D01*
X127368300Y-60083700D01*
X127368301Y-131940300D01*
M02*
