G04 #@! TF.GenerationSoftware,KiCad,Pcbnew,(5.1.5)-3*
G04 #@! TF.CreationDate,2020-06-18T13:30:01-07:00*
G04 #@! TF.ProjectId,Plug_Pass_arduino_shield,506c7567-5f50-4617-9373-5f6172647569,v2.0*
G04 #@! TF.SameCoordinates,Original*
G04 #@! TF.FileFunction,Legend,Bot*
G04 #@! TF.FilePolarity,Positive*
%FSLAX46Y46*%
G04 Gerber Fmt 4.6, Leading zero omitted, Abs format (unit mm)*
G04 Created by KiCad (PCBNEW (5.1.5)-3) date 2020-06-18 13:30:01*
%MOMM*%
%LPD*%
G04 APERTURE LIST*
%ADD10C,0.150000*%
G04 APERTURE END LIST*
D10*
X116933714Y-62016142D02*
X116981333Y-62063761D01*
X117124190Y-62111380D01*
X117219428Y-62111380D01*
X117362285Y-62063761D01*
X117457523Y-61968523D01*
X117505142Y-61873285D01*
X117552761Y-61682809D01*
X117552761Y-61539952D01*
X117505142Y-61349476D01*
X117457523Y-61254238D01*
X117362285Y-61159000D01*
X117219428Y-61111380D01*
X117124190Y-61111380D01*
X116981333Y-61159000D01*
X116933714Y-61206619D01*
X116362285Y-62111380D02*
X116457523Y-62063761D01*
X116505142Y-61968523D01*
X116505142Y-61111380D01*
X115552761Y-62111380D02*
X115552761Y-61587571D01*
X115600380Y-61492333D01*
X115695619Y-61444714D01*
X115886095Y-61444714D01*
X115981333Y-61492333D01*
X115552761Y-62063761D02*
X115648000Y-62111380D01*
X115886095Y-62111380D01*
X115981333Y-62063761D01*
X116028952Y-61968523D01*
X116028952Y-61873285D01*
X115981333Y-61778047D01*
X115886095Y-61730428D01*
X115648000Y-61730428D01*
X115552761Y-61682809D01*
X115219428Y-61444714D02*
X114838476Y-61444714D01*
X115076571Y-61111380D02*
X115076571Y-61968523D01*
X115028952Y-62063761D01*
X114933714Y-62111380D01*
X114838476Y-62111380D01*
X114552761Y-62063761D02*
X114457523Y-62111380D01*
X114267047Y-62111380D01*
X114171809Y-62063761D01*
X114124190Y-61968523D01*
X114124190Y-61920904D01*
X114171809Y-61825666D01*
X114267047Y-61778047D01*
X114409904Y-61778047D01*
X114505142Y-61730428D01*
X114552761Y-61635190D01*
X114552761Y-61587571D01*
X114505142Y-61492333D01*
X114409904Y-61444714D01*
X114267047Y-61444714D01*
X114171809Y-61492333D01*
X113695619Y-62111380D02*
X113695619Y-61111380D01*
X113600380Y-61730428D02*
X113314666Y-62111380D01*
X113314666Y-61444714D02*
X113695619Y-61825666D01*
X112457523Y-62111380D02*
X112457523Y-61587571D01*
X112505142Y-61492333D01*
X112600380Y-61444714D01*
X112790857Y-61444714D01*
X112886095Y-61492333D01*
X112457523Y-62063761D02*
X112552761Y-62111380D01*
X112790857Y-62111380D01*
X112886095Y-62063761D01*
X112933714Y-61968523D01*
X112933714Y-61873285D01*
X112886095Y-61778047D01*
X112790857Y-61730428D01*
X112552761Y-61730428D01*
X112457523Y-61682809D01*
X111981333Y-61444714D02*
X111981333Y-62111380D01*
X111981333Y-61539952D02*
X111933714Y-61492333D01*
X111838476Y-61444714D01*
X111695619Y-61444714D01*
X111600380Y-61492333D01*
X111552761Y-61587571D01*
X111552761Y-62111380D01*
X111076571Y-62111380D02*
X111076571Y-61444714D01*
X111076571Y-61111380D02*
X111124190Y-61159000D01*
X111076571Y-61206619D01*
X111028952Y-61159000D01*
X111076571Y-61111380D01*
X111076571Y-61206619D01*
X110219428Y-62063761D02*
X110314666Y-62111380D01*
X110505142Y-62111380D01*
X110600380Y-62063761D01*
X110648000Y-61968523D01*
X110648000Y-61587571D01*
X110600380Y-61492333D01*
X110505142Y-61444714D01*
X110314666Y-61444714D01*
X110219428Y-61492333D01*
X110171809Y-61587571D01*
X110171809Y-61682809D01*
X110648000Y-61778047D01*
X108981333Y-62111380D02*
X108981333Y-61111380D01*
X108600380Y-61111380D01*
X108505142Y-61159000D01*
X108457523Y-61206619D01*
X108409904Y-61301857D01*
X108409904Y-61444714D01*
X108457523Y-61539952D01*
X108505142Y-61587571D01*
X108600380Y-61635190D01*
X108981333Y-61635190D01*
X107600380Y-62063761D02*
X107695619Y-62111380D01*
X107886095Y-62111380D01*
X107981333Y-62063761D01*
X108028952Y-61968523D01*
X108028952Y-61587571D01*
X107981333Y-61492333D01*
X107886095Y-61444714D01*
X107695619Y-61444714D01*
X107600380Y-61492333D01*
X107552761Y-61587571D01*
X107552761Y-61682809D01*
X108028952Y-61778047D01*
X106981333Y-62111380D02*
X107076571Y-62063761D01*
X107124190Y-62016142D01*
X107171809Y-61920904D01*
X107171809Y-61635190D01*
X107124190Y-61539952D01*
X107076571Y-61492333D01*
X106981333Y-61444714D01*
X106838476Y-61444714D01*
X106743238Y-61492333D01*
X106695619Y-61539952D01*
X106648000Y-61635190D01*
X106648000Y-61920904D01*
X106695619Y-62016142D01*
X106743238Y-62063761D01*
X106838476Y-62111380D01*
X106981333Y-62111380D01*
X106219428Y-61444714D02*
X106219428Y-62444714D01*
X106219428Y-61492333D02*
X106124190Y-61444714D01*
X105933714Y-61444714D01*
X105838476Y-61492333D01*
X105790857Y-61539952D01*
X105743238Y-61635190D01*
X105743238Y-61920904D01*
X105790857Y-62016142D01*
X105838476Y-62063761D01*
X105933714Y-62111380D01*
X106124190Y-62111380D01*
X106219428Y-62063761D01*
X105171809Y-62111380D02*
X105267047Y-62063761D01*
X105314666Y-61968523D01*
X105314666Y-61111380D01*
X104409904Y-62063761D02*
X104505142Y-62111380D01*
X104695619Y-62111380D01*
X104790857Y-62063761D01*
X104838476Y-61968523D01*
X104838476Y-61587571D01*
X104790857Y-61492333D01*
X104695619Y-61444714D01*
X104505142Y-61444714D01*
X104409904Y-61492333D01*
X104362285Y-61587571D01*
X104362285Y-61682809D01*
X104838476Y-61778047D01*
X103886095Y-61111380D02*
X103981333Y-61301857D01*
X103505142Y-62063761D02*
X103409904Y-62111380D01*
X103219428Y-62111380D01*
X103124190Y-62063761D01*
X103076571Y-61968523D01*
X103076571Y-61920904D01*
X103124190Y-61825666D01*
X103219428Y-61778047D01*
X103362285Y-61778047D01*
X103457523Y-61730428D01*
X103505142Y-61635190D01*
X103505142Y-61587571D01*
X103457523Y-61492333D01*
X103362285Y-61444714D01*
X103219428Y-61444714D01*
X103124190Y-61492333D01*
X101886095Y-61111380D02*
X101886095Y-61920904D01*
X101838476Y-62016142D01*
X101790857Y-62063761D01*
X101695619Y-62111380D01*
X101505142Y-62111380D01*
X101409904Y-62063761D01*
X101362285Y-62016142D01*
X101314666Y-61920904D01*
X101314666Y-61111380D01*
X100981333Y-61444714D02*
X100600380Y-61444714D01*
X100838476Y-61111380D02*
X100838476Y-61968523D01*
X100790857Y-62063761D01*
X100695619Y-62111380D01*
X100600380Y-62111380D01*
X100267047Y-62111380D02*
X100267047Y-61444714D01*
X100267047Y-61111380D02*
X100314666Y-61159000D01*
X100267047Y-61206619D01*
X100219428Y-61159000D01*
X100267047Y-61111380D01*
X100267047Y-61206619D01*
X99648000Y-62111380D02*
X99743238Y-62063761D01*
X99790857Y-61968523D01*
X99790857Y-61111380D01*
X99267047Y-62111380D02*
X99267047Y-61444714D01*
X99267047Y-61111380D02*
X99314666Y-61159000D01*
X99267047Y-61206619D01*
X99219428Y-61159000D01*
X99267047Y-61111380D01*
X99267047Y-61206619D01*
X98933714Y-61444714D02*
X98552761Y-61444714D01*
X98790857Y-61111380D02*
X98790857Y-61968523D01*
X98743238Y-62063761D01*
X98648000Y-62111380D01*
X98552761Y-62111380D01*
X98314666Y-61444714D02*
X98076571Y-62111380D01*
X97838476Y-61444714D02*
X98076571Y-62111380D01*
X98171809Y-62349476D01*
X98219428Y-62397095D01*
X98314666Y-62444714D01*
X96695619Y-62111380D02*
X96695619Y-61111380D01*
X96457523Y-61111380D01*
X96314666Y-61159000D01*
X96219428Y-61254238D01*
X96171809Y-61349476D01*
X96124190Y-61539952D01*
X96124190Y-61682809D01*
X96171809Y-61873285D01*
X96219428Y-61968523D01*
X96314666Y-62063761D01*
X96457523Y-62111380D01*
X96695619Y-62111380D01*
X95695619Y-62111380D02*
X95695619Y-61444714D01*
X95695619Y-61111380D02*
X95743238Y-61159000D01*
X95695619Y-61206619D01*
X95648000Y-61159000D01*
X95695619Y-61111380D01*
X95695619Y-61206619D01*
X95267047Y-62063761D02*
X95171809Y-62111380D01*
X94981333Y-62111380D01*
X94886095Y-62063761D01*
X94838476Y-61968523D01*
X94838476Y-61920904D01*
X94886095Y-61825666D01*
X94981333Y-61778047D01*
X95124190Y-61778047D01*
X95219428Y-61730428D01*
X95267047Y-61635190D01*
X95267047Y-61587571D01*
X95219428Y-61492333D01*
X95124190Y-61444714D01*
X94981333Y-61444714D01*
X94886095Y-61492333D01*
X94552761Y-61444714D02*
X94171809Y-61444714D01*
X94409904Y-61111380D02*
X94409904Y-61968523D01*
X94362285Y-62063761D01*
X94267047Y-62111380D01*
X94171809Y-62111380D01*
X93838476Y-62111380D02*
X93838476Y-61444714D01*
X93838476Y-61635190D02*
X93790857Y-61539952D01*
X93743238Y-61492333D01*
X93648000Y-61444714D01*
X93552761Y-61444714D01*
X93219428Y-62111380D02*
X93219428Y-61444714D01*
X93219428Y-61111380D02*
X93267047Y-61159000D01*
X93219428Y-61206619D01*
X93171809Y-61159000D01*
X93219428Y-61111380D01*
X93219428Y-61206619D01*
X92314666Y-62063761D02*
X92409904Y-62111380D01*
X92600380Y-62111380D01*
X92695619Y-62063761D01*
X92743238Y-62016142D01*
X92790857Y-61920904D01*
X92790857Y-61635190D01*
X92743238Y-61539952D01*
X92695619Y-61492333D01*
X92600380Y-61444714D01*
X92409904Y-61444714D01*
X92314666Y-61492333D01*
X92028952Y-61444714D02*
X91648000Y-61444714D01*
X91886095Y-61111380D02*
X91886095Y-61968523D01*
X91838476Y-62063761D01*
X91743238Y-62111380D01*
X91648000Y-62111380D01*
X117981333Y-63761380D02*
X117981333Y-62761380D01*
X117600380Y-62761380D01*
X117505142Y-62809000D01*
X117457523Y-62856619D01*
X117409904Y-62951857D01*
X117409904Y-63094714D01*
X117457523Y-63189952D01*
X117505142Y-63237571D01*
X117600380Y-63285190D01*
X117981333Y-63285190D01*
X116838476Y-63761380D02*
X116933714Y-63713761D01*
X116981333Y-63618523D01*
X116981333Y-62761380D01*
X116028952Y-63094714D02*
X116028952Y-63761380D01*
X116457523Y-63094714D02*
X116457523Y-63618523D01*
X116409904Y-63713761D01*
X116314666Y-63761380D01*
X116171809Y-63761380D01*
X116076571Y-63713761D01*
X116028952Y-63666142D01*
X115124190Y-63094714D02*
X115124190Y-63904238D01*
X115171809Y-63999476D01*
X115219428Y-64047095D01*
X115314666Y-64094714D01*
X115457523Y-64094714D01*
X115552761Y-64047095D01*
X115124190Y-63713761D02*
X115219428Y-63761380D01*
X115409904Y-63761380D01*
X115505142Y-63713761D01*
X115552761Y-63666142D01*
X115600380Y-63570904D01*
X115600380Y-63285190D01*
X115552761Y-63189952D01*
X115505142Y-63142333D01*
X115409904Y-63094714D01*
X115219428Y-63094714D01*
X115124190Y-63142333D01*
X113886095Y-63761380D02*
X113886095Y-62761380D01*
X113505142Y-62761380D01*
X113409904Y-62809000D01*
X113362285Y-62856619D01*
X113314666Y-62951857D01*
X113314666Y-63094714D01*
X113362285Y-63189952D01*
X113409904Y-63237571D01*
X113505142Y-63285190D01*
X113886095Y-63285190D01*
X112457523Y-63761380D02*
X112457523Y-63237571D01*
X112505142Y-63142333D01*
X112600380Y-63094714D01*
X112790857Y-63094714D01*
X112886095Y-63142333D01*
X112457523Y-63713761D02*
X112552761Y-63761380D01*
X112790857Y-63761380D01*
X112886095Y-63713761D01*
X112933714Y-63618523D01*
X112933714Y-63523285D01*
X112886095Y-63428047D01*
X112790857Y-63380428D01*
X112552761Y-63380428D01*
X112457523Y-63332809D01*
X112028952Y-63713761D02*
X111933714Y-63761380D01*
X111743238Y-63761380D01*
X111648000Y-63713761D01*
X111600380Y-63618523D01*
X111600380Y-63570904D01*
X111648000Y-63475666D01*
X111743238Y-63428047D01*
X111886095Y-63428047D01*
X111981333Y-63380428D01*
X112028952Y-63285190D01*
X112028952Y-63237571D01*
X111981333Y-63142333D01*
X111886095Y-63094714D01*
X111743238Y-63094714D01*
X111648000Y-63142333D01*
X111219428Y-63713761D02*
X111124190Y-63761380D01*
X110933714Y-63761380D01*
X110838476Y-63713761D01*
X110790857Y-63618523D01*
X110790857Y-63570904D01*
X110838476Y-63475666D01*
X110933714Y-63428047D01*
X111076571Y-63428047D01*
X111171809Y-63380428D01*
X111219428Y-63285190D01*
X111219428Y-63237571D01*
X111171809Y-63142333D01*
X111076571Y-63094714D01*
X110933714Y-63094714D01*
X110838476Y-63142333D01*
X109600380Y-63380428D02*
X108838476Y-63380428D01*
X107695619Y-63094714D02*
X107457523Y-63761380D01*
X107219428Y-63094714D01*
X106886095Y-62856619D02*
X106838476Y-62809000D01*
X106743238Y-62761380D01*
X106505142Y-62761380D01*
X106409904Y-62809000D01*
X106362285Y-62856619D01*
X106314666Y-62951857D01*
X106314666Y-63047095D01*
X106362285Y-63189952D01*
X106933714Y-63761380D01*
X106314666Y-63761380D01*
X105886095Y-63666142D02*
X105838476Y-63713761D01*
X105886095Y-63761380D01*
X105933714Y-63713761D01*
X105886095Y-63666142D01*
X105886095Y-63761380D01*
X105219428Y-62761380D02*
X105124190Y-62761380D01*
X105028952Y-62809000D01*
X104981333Y-62856619D01*
X104933714Y-62951857D01*
X104886095Y-63142333D01*
X104886095Y-63380428D01*
X104933714Y-63570904D01*
X104981333Y-63666142D01*
X105028952Y-63713761D01*
X105124190Y-63761380D01*
X105219428Y-63761380D01*
X105314666Y-63713761D01*
X105362285Y-63666142D01*
X105409904Y-63570904D01*
X105457523Y-63380428D01*
X105457523Y-63142333D01*
X105409904Y-62951857D01*
X105362285Y-62856619D01*
X105314666Y-62809000D01*
X105219428Y-62761380D01*
X103695619Y-63380428D02*
X102933714Y-63380428D01*
X101267047Y-63761380D02*
X101267047Y-63237571D01*
X101314666Y-63142333D01*
X101409904Y-63094714D01*
X101600380Y-63094714D01*
X101695619Y-63142333D01*
X101267047Y-63713761D02*
X101362285Y-63761380D01*
X101600380Y-63761380D01*
X101695619Y-63713761D01*
X101743238Y-63618523D01*
X101743238Y-63523285D01*
X101695619Y-63428047D01*
X101600380Y-63380428D01*
X101362285Y-63380428D01*
X101267047Y-63332809D01*
X100790857Y-63761380D02*
X100790857Y-63094714D01*
X100790857Y-63285190D02*
X100743238Y-63189952D01*
X100695619Y-63142333D01*
X100600380Y-63094714D01*
X100505142Y-63094714D01*
X99743238Y-63761380D02*
X99743238Y-62761380D01*
X99743238Y-63713761D02*
X99838476Y-63761380D01*
X100028952Y-63761380D01*
X100124190Y-63713761D01*
X100171809Y-63666142D01*
X100219428Y-63570904D01*
X100219428Y-63285190D01*
X100171809Y-63189952D01*
X100124190Y-63142333D01*
X100028952Y-63094714D01*
X99838476Y-63094714D01*
X99743238Y-63142333D01*
X98838476Y-63094714D02*
X98838476Y-63761380D01*
X99267047Y-63094714D02*
X99267047Y-63618523D01*
X99219428Y-63713761D01*
X99124190Y-63761380D01*
X98981333Y-63761380D01*
X98886095Y-63713761D01*
X98838476Y-63666142D01*
X98362285Y-63761380D02*
X98362285Y-63094714D01*
X98362285Y-62761380D02*
X98409904Y-62809000D01*
X98362285Y-62856619D01*
X98314666Y-62809000D01*
X98362285Y-62761380D01*
X98362285Y-62856619D01*
X97886095Y-63094714D02*
X97886095Y-63761380D01*
X97886095Y-63189952D02*
X97838476Y-63142333D01*
X97743238Y-63094714D01*
X97600380Y-63094714D01*
X97505142Y-63142333D01*
X97457523Y-63237571D01*
X97457523Y-63761380D01*
X96838476Y-63761380D02*
X96933714Y-63713761D01*
X96981333Y-63666142D01*
X97028952Y-63570904D01*
X97028952Y-63285190D01*
X96981333Y-63189952D01*
X96933714Y-63142333D01*
X96838476Y-63094714D01*
X96695619Y-63094714D01*
X96600380Y-63142333D01*
X96552761Y-63189952D01*
X96505142Y-63285190D01*
X96505142Y-63570904D01*
X96552761Y-63666142D01*
X96600380Y-63713761D01*
X96695619Y-63761380D01*
X96838476Y-63761380D01*
X95362285Y-63713761D02*
X95267047Y-63761380D01*
X95076571Y-63761380D01*
X94981333Y-63713761D01*
X94933714Y-63618523D01*
X94933714Y-63570904D01*
X94981333Y-63475666D01*
X95076571Y-63428047D01*
X95219428Y-63428047D01*
X95314666Y-63380428D01*
X95362285Y-63285190D01*
X95362285Y-63237571D01*
X95314666Y-63142333D01*
X95219428Y-63094714D01*
X95076571Y-63094714D01*
X94981333Y-63142333D01*
X94505142Y-63761380D02*
X94505142Y-62761380D01*
X94076571Y-63761380D02*
X94076571Y-63237571D01*
X94124190Y-63142333D01*
X94219428Y-63094714D01*
X94362285Y-63094714D01*
X94457523Y-63142333D01*
X94505142Y-63189952D01*
X93600380Y-63761380D02*
X93600380Y-63094714D01*
X93600380Y-62761380D02*
X93648000Y-62809000D01*
X93600380Y-62856619D01*
X93552761Y-62809000D01*
X93600380Y-62761380D01*
X93600380Y-62856619D01*
X92743238Y-63713761D02*
X92838476Y-63761380D01*
X93028952Y-63761380D01*
X93124190Y-63713761D01*
X93171809Y-63618523D01*
X93171809Y-63237571D01*
X93124190Y-63142333D01*
X93028952Y-63094714D01*
X92838476Y-63094714D01*
X92743238Y-63142333D01*
X92695619Y-63237571D01*
X92695619Y-63332809D01*
X93171809Y-63428047D01*
X92124190Y-63761380D02*
X92219428Y-63713761D01*
X92267047Y-63618523D01*
X92267047Y-62761380D01*
X91314666Y-63761380D02*
X91314666Y-62761380D01*
X91314666Y-63713761D02*
X91409904Y-63761380D01*
X91600380Y-63761380D01*
X91695619Y-63713761D01*
X91743238Y-63666142D01*
X91790857Y-63570904D01*
X91790857Y-63285190D01*
X91743238Y-63189952D01*
X91695619Y-63142333D01*
X91600380Y-63094714D01*
X91409904Y-63094714D01*
X91314666Y-63142333D01*
M02*
