G04 #@! TF.GenerationSoftware,KiCad,Pcbnew,(5.1.5)-3*
G04 #@! TF.CreationDate,2020-05-07T10:05:27-07:00*
G04 #@! TF.ProjectId,Plug_Pass_AC_shield,506c7567-5f50-4617-9373-5f41435f7368,rev?*
G04 #@! TF.SameCoordinates,Original*
G04 #@! TF.FileFunction,Soldermask,Top*
G04 #@! TF.FilePolarity,Negative*
%FSLAX46Y46*%
G04 Gerber Fmt 4.6, Leading zero omitted, Abs format (unit mm)*
G04 Created by KiCad (PCBNEW (5.1.5)-3) date 2020-05-07 10:05:27*
%MOMM*%
%LPD*%
G04 APERTURE LIST*
%ADD10C,0.100000*%
G04 APERTURE END LIST*
D10*
G36*
X193114862Y-126540869D02*
G01*
X193359685Y-126589567D01*
X193705607Y-126732853D01*
X194016930Y-126940872D01*
X194281688Y-127205630D01*
X194489707Y-127516953D01*
X194632993Y-127862875D01*
X194706040Y-128230109D01*
X194706040Y-128604531D01*
X194632993Y-128971765D01*
X194489707Y-129317687D01*
X194281688Y-129629010D01*
X194016930Y-129893768D01*
X193705607Y-130101787D01*
X193359685Y-130245073D01*
X193114862Y-130293771D01*
X192992452Y-130318120D01*
X192618028Y-130318120D01*
X192495618Y-130293771D01*
X192250795Y-130245073D01*
X191904873Y-130101787D01*
X191593550Y-129893768D01*
X191328792Y-129629010D01*
X191120773Y-129317687D01*
X190977487Y-128971765D01*
X190904440Y-128604531D01*
X190904440Y-128230109D01*
X190977487Y-127862875D01*
X191120773Y-127516953D01*
X191328792Y-127205630D01*
X191593550Y-126940872D01*
X191904873Y-126732853D01*
X192250795Y-126589567D01*
X192495618Y-126540869D01*
X192618028Y-126516520D01*
X192992452Y-126516520D01*
X193114862Y-126540869D01*
G37*
G36*
X185494862Y-126540869D02*
G01*
X185739685Y-126589567D01*
X186085607Y-126732853D01*
X186396930Y-126940872D01*
X186661688Y-127205630D01*
X186869707Y-127516953D01*
X187012993Y-127862875D01*
X187086040Y-128230109D01*
X187086040Y-128604531D01*
X187012993Y-128971765D01*
X186869707Y-129317687D01*
X186661688Y-129629010D01*
X186396930Y-129893768D01*
X186085607Y-130101787D01*
X185739685Y-130245073D01*
X185494862Y-130293771D01*
X185372452Y-130318120D01*
X184998028Y-130318120D01*
X184875618Y-130293771D01*
X184630795Y-130245073D01*
X184284873Y-130101787D01*
X183973550Y-129893768D01*
X183708792Y-129629010D01*
X183500773Y-129317687D01*
X183357487Y-128971765D01*
X183284440Y-128604531D01*
X183284440Y-128230109D01*
X183357487Y-127862875D01*
X183500773Y-127516953D01*
X183708792Y-127205630D01*
X183973550Y-126940872D01*
X184284873Y-126732853D01*
X184630795Y-126589567D01*
X184875618Y-126540869D01*
X184998028Y-126516520D01*
X185372452Y-126516520D01*
X185494862Y-126540869D01*
G37*
G36*
X208424669Y-123356509D02*
G01*
X208661400Y-123454566D01*
X208874452Y-123596923D01*
X209055637Y-123778108D01*
X209197994Y-123991160D01*
X209296051Y-124227891D01*
X209346040Y-124479202D01*
X209346040Y-124735438D01*
X209296051Y-124986749D01*
X209197994Y-125223480D01*
X209055637Y-125436532D01*
X208874452Y-125617717D01*
X208661400Y-125760074D01*
X208424669Y-125858131D01*
X208173358Y-125908120D01*
X207917122Y-125908120D01*
X207665811Y-125858131D01*
X207429080Y-125760074D01*
X207216028Y-125617717D01*
X207034843Y-125436532D01*
X206892486Y-125223480D01*
X206794429Y-124986749D01*
X206744440Y-124735438D01*
X206744440Y-124479202D01*
X206794429Y-124227891D01*
X206892486Y-123991160D01*
X207034843Y-123778108D01*
X207216028Y-123596923D01*
X207429080Y-123454566D01*
X207665811Y-123356509D01*
X207917122Y-123306520D01*
X208173358Y-123306520D01*
X208424669Y-123356509D01*
G37*
G36*
X208424669Y-113196509D02*
G01*
X208661400Y-113294566D01*
X208874452Y-113436923D01*
X209055637Y-113618108D01*
X209197994Y-113831160D01*
X209296051Y-114067891D01*
X209346040Y-114319202D01*
X209346040Y-114575438D01*
X209296051Y-114826749D01*
X209197994Y-115063480D01*
X209055637Y-115276532D01*
X208874452Y-115457717D01*
X208661400Y-115600074D01*
X208424669Y-115698131D01*
X208173358Y-115748120D01*
X207917122Y-115748120D01*
X207665811Y-115698131D01*
X207429080Y-115600074D01*
X207216028Y-115457717D01*
X207034843Y-115276532D01*
X206892486Y-115063480D01*
X206794429Y-114826749D01*
X206744440Y-114575438D01*
X206744440Y-114319202D01*
X206794429Y-114067891D01*
X206892486Y-113831160D01*
X207034843Y-113618108D01*
X207216028Y-113436923D01*
X207429080Y-113294566D01*
X207665811Y-113196509D01*
X207917122Y-113146520D01*
X208173358Y-113146520D01*
X208424669Y-113196509D01*
G37*
G36*
X197146040Y-112438120D02*
G01*
X193544440Y-112438120D01*
X193544440Y-108836520D01*
X197146040Y-108836520D01*
X197146040Y-112438120D01*
G37*
G36*
X194336800Y-102937440D02*
G01*
X191235200Y-102937440D01*
X191235200Y-99835840D01*
X194336800Y-99835840D01*
X194336800Y-102937440D01*
G37*
G36*
X182488352Y-99895436D02*
G01*
X182488355Y-99895437D01*
X182488354Y-99895437D01*
X182770580Y-100012339D01*
X183024578Y-100182055D01*
X183240585Y-100398062D01*
X183410301Y-100652060D01*
X183410301Y-100652061D01*
X183527204Y-100934288D01*
X183586800Y-101233899D01*
X183586800Y-101539381D01*
X183527204Y-101838992D01*
X183527203Y-101838994D01*
X183410301Y-102121220D01*
X183240585Y-102375218D01*
X183024578Y-102591225D01*
X182770580Y-102760941D01*
X182571014Y-102843604D01*
X182488352Y-102877844D01*
X182188741Y-102937440D01*
X181883259Y-102937440D01*
X181583648Y-102877844D01*
X181500986Y-102843604D01*
X181301420Y-102760941D01*
X181047422Y-102591225D01*
X180831415Y-102375218D01*
X180661699Y-102121220D01*
X180544797Y-101838994D01*
X180544796Y-101838992D01*
X180485200Y-101539381D01*
X180485200Y-101233899D01*
X180544796Y-100934288D01*
X180661699Y-100652061D01*
X180661699Y-100652060D01*
X180831415Y-100398062D01*
X181047422Y-100182055D01*
X181301420Y-100012339D01*
X181583646Y-99895437D01*
X181583645Y-99895437D01*
X181583648Y-99895436D01*
X181883259Y-99835840D01*
X182188741Y-99835840D01*
X182488352Y-99895436D01*
G37*
G36*
X212308440Y-95938340D02*
G01*
X210479640Y-95938340D01*
X210479640Y-94109540D01*
X212308440Y-94109540D01*
X212308440Y-95938340D01*
G37*
G36*
X214112431Y-94127110D02*
G01*
X214200763Y-94144680D01*
X214367171Y-94213609D01*
X214516936Y-94313679D01*
X214644301Y-94441044D01*
X214744371Y-94590809D01*
X214813300Y-94757217D01*
X214848440Y-94933881D01*
X214848440Y-95113999D01*
X214813300Y-95290663D01*
X214744371Y-95457071D01*
X214644301Y-95606836D01*
X214516936Y-95734201D01*
X214367171Y-95834271D01*
X214200763Y-95903200D01*
X214112431Y-95920770D01*
X214024101Y-95938340D01*
X213843979Y-95938340D01*
X213755649Y-95920770D01*
X213667317Y-95903200D01*
X213500909Y-95834271D01*
X213351144Y-95734201D01*
X213223779Y-95606836D01*
X213123709Y-95457071D01*
X213054780Y-95290663D01*
X213019640Y-95113999D01*
X213019640Y-94933881D01*
X213054780Y-94757217D01*
X213123709Y-94590809D01*
X213223779Y-94441044D01*
X213351144Y-94313679D01*
X213500909Y-94213609D01*
X213667317Y-94144680D01*
X213755649Y-94127110D01*
X213843979Y-94109540D01*
X214024101Y-94109540D01*
X214112431Y-94127110D01*
G37*
G36*
X214112431Y-91587110D02*
G01*
X214200763Y-91604680D01*
X214367171Y-91673609D01*
X214516936Y-91773679D01*
X214644301Y-91901044D01*
X214744371Y-92050809D01*
X214813300Y-92217217D01*
X214848440Y-92393881D01*
X214848440Y-92573999D01*
X214813300Y-92750663D01*
X214744371Y-92917071D01*
X214644301Y-93066836D01*
X214516936Y-93194201D01*
X214367171Y-93294271D01*
X214200763Y-93363200D01*
X214112431Y-93380770D01*
X214024101Y-93398340D01*
X213843979Y-93398340D01*
X213755649Y-93380770D01*
X213667317Y-93363200D01*
X213500909Y-93294271D01*
X213351144Y-93194201D01*
X213223779Y-93066836D01*
X213123709Y-92917071D01*
X213054780Y-92750663D01*
X213019640Y-92573999D01*
X213019640Y-92393881D01*
X213054780Y-92217217D01*
X213123709Y-92050809D01*
X213223779Y-91901044D01*
X213351144Y-91773679D01*
X213500909Y-91673609D01*
X213667317Y-91604680D01*
X213755649Y-91587110D01*
X213843979Y-91569540D01*
X214024101Y-91569540D01*
X214112431Y-91587110D01*
G37*
G36*
X211572431Y-91587110D02*
G01*
X211660763Y-91604680D01*
X211827171Y-91673609D01*
X211976936Y-91773679D01*
X212104301Y-91901044D01*
X212204371Y-92050809D01*
X212273300Y-92217217D01*
X212308440Y-92393881D01*
X212308440Y-92573999D01*
X212273300Y-92750663D01*
X212204371Y-92917071D01*
X212104301Y-93066836D01*
X211976936Y-93194201D01*
X211827171Y-93294271D01*
X211660763Y-93363200D01*
X211572431Y-93380770D01*
X211484101Y-93398340D01*
X211303979Y-93398340D01*
X211215649Y-93380770D01*
X211127317Y-93363200D01*
X210960909Y-93294271D01*
X210811144Y-93194201D01*
X210683779Y-93066836D01*
X210583709Y-92917071D01*
X210514780Y-92750663D01*
X210479640Y-92573999D01*
X210479640Y-92393881D01*
X210514780Y-92217217D01*
X210583709Y-92050809D01*
X210683779Y-91901044D01*
X210811144Y-91773679D01*
X210960909Y-91673609D01*
X211127317Y-91604680D01*
X211215649Y-91587110D01*
X211303979Y-91569540D01*
X211484101Y-91569540D01*
X211572431Y-91587110D01*
G37*
G36*
X211572431Y-89047110D02*
G01*
X211660763Y-89064680D01*
X211827171Y-89133609D01*
X211976936Y-89233679D01*
X212104301Y-89361044D01*
X212204371Y-89510809D01*
X212273300Y-89677217D01*
X212308440Y-89853881D01*
X212308440Y-90033999D01*
X212273300Y-90210663D01*
X212204371Y-90377071D01*
X212104301Y-90526836D01*
X211976936Y-90654201D01*
X211827171Y-90754271D01*
X211660763Y-90823200D01*
X211572431Y-90840770D01*
X211484101Y-90858340D01*
X211303979Y-90858340D01*
X211215649Y-90840770D01*
X211127317Y-90823200D01*
X210960909Y-90754271D01*
X210811144Y-90654201D01*
X210683779Y-90526836D01*
X210583709Y-90377071D01*
X210514780Y-90210663D01*
X210479640Y-90033999D01*
X210479640Y-89853881D01*
X210514780Y-89677217D01*
X210583709Y-89510809D01*
X210683779Y-89361044D01*
X210811144Y-89233679D01*
X210960909Y-89133609D01*
X211127317Y-89064680D01*
X211215649Y-89047110D01*
X211303979Y-89029540D01*
X211484101Y-89029540D01*
X211572431Y-89047110D01*
G37*
G36*
X214112431Y-89047110D02*
G01*
X214200763Y-89064680D01*
X214367171Y-89133609D01*
X214516936Y-89233679D01*
X214644301Y-89361044D01*
X214744371Y-89510809D01*
X214813300Y-89677217D01*
X214848440Y-89853881D01*
X214848440Y-90033999D01*
X214813300Y-90210663D01*
X214744371Y-90377071D01*
X214644301Y-90526836D01*
X214516936Y-90654201D01*
X214367171Y-90754271D01*
X214200763Y-90823200D01*
X214112431Y-90840770D01*
X214024101Y-90858340D01*
X213843979Y-90858340D01*
X213755649Y-90840770D01*
X213667317Y-90823200D01*
X213500909Y-90754271D01*
X213351144Y-90654201D01*
X213223779Y-90526836D01*
X213123709Y-90377071D01*
X213054780Y-90210663D01*
X213019640Y-90033999D01*
X213019640Y-89853881D01*
X213054780Y-89677217D01*
X213123709Y-89510809D01*
X213223779Y-89361044D01*
X213351144Y-89233679D01*
X213500909Y-89133609D01*
X213667317Y-89064680D01*
X213755649Y-89047110D01*
X213843979Y-89029540D01*
X214024101Y-89029540D01*
X214112431Y-89047110D01*
G37*
G36*
X211572431Y-86507110D02*
G01*
X211660763Y-86524680D01*
X211827171Y-86593609D01*
X211976936Y-86693679D01*
X212104301Y-86821044D01*
X212204371Y-86970809D01*
X212273300Y-87137217D01*
X212308440Y-87313881D01*
X212308440Y-87493999D01*
X212273300Y-87670663D01*
X212204371Y-87837071D01*
X212104301Y-87986836D01*
X211976936Y-88114201D01*
X211827171Y-88214271D01*
X211660763Y-88283200D01*
X211572431Y-88300770D01*
X211484101Y-88318340D01*
X211303979Y-88318340D01*
X211215649Y-88300770D01*
X211127317Y-88283200D01*
X210960909Y-88214271D01*
X210811144Y-88114201D01*
X210683779Y-87986836D01*
X210583709Y-87837071D01*
X210514780Y-87670663D01*
X210479640Y-87493999D01*
X210479640Y-87313881D01*
X210514780Y-87137217D01*
X210583709Y-86970809D01*
X210683779Y-86821044D01*
X210811144Y-86693679D01*
X210960909Y-86593609D01*
X211127317Y-86524680D01*
X211215649Y-86507110D01*
X211303979Y-86489540D01*
X211484101Y-86489540D01*
X211572431Y-86507110D01*
G37*
G36*
X214112431Y-86507110D02*
G01*
X214200763Y-86524680D01*
X214367171Y-86593609D01*
X214516936Y-86693679D01*
X214644301Y-86821044D01*
X214744371Y-86970809D01*
X214813300Y-87137217D01*
X214848440Y-87313881D01*
X214848440Y-87493999D01*
X214813300Y-87670663D01*
X214744371Y-87837071D01*
X214644301Y-87986836D01*
X214516936Y-88114201D01*
X214367171Y-88214271D01*
X214200763Y-88283200D01*
X214112431Y-88300770D01*
X214024101Y-88318340D01*
X213843979Y-88318340D01*
X213755649Y-88300770D01*
X213667317Y-88283200D01*
X213500909Y-88214271D01*
X213351144Y-88114201D01*
X213223779Y-87986836D01*
X213123709Y-87837071D01*
X213054780Y-87670663D01*
X213019640Y-87493999D01*
X213019640Y-87313881D01*
X213054780Y-87137217D01*
X213123709Y-86970809D01*
X213223779Y-86821044D01*
X213351144Y-86693679D01*
X213500909Y-86593609D01*
X213667317Y-86524680D01*
X213755649Y-86507110D01*
X213843979Y-86489540D01*
X214024101Y-86489540D01*
X214112431Y-86507110D01*
G37*
G36*
X209846040Y-78708380D02*
G01*
X206744440Y-78708380D01*
X206744440Y-75606780D01*
X209846040Y-75606780D01*
X209846040Y-78708380D01*
G37*
G36*
X215097592Y-66166376D02*
G01*
X215097595Y-66166377D01*
X215097594Y-66166377D01*
X215379820Y-66283279D01*
X215633818Y-66452995D01*
X215849825Y-66669002D01*
X216019541Y-66923000D01*
X216019541Y-66923001D01*
X216136444Y-67205228D01*
X216196040Y-67504839D01*
X216196040Y-67810321D01*
X216136444Y-68109932D01*
X216136443Y-68109934D01*
X216019541Y-68392160D01*
X215849825Y-68646158D01*
X215633818Y-68862165D01*
X215379820Y-69031881D01*
X215180254Y-69114544D01*
X215097592Y-69148784D01*
X214797981Y-69208380D01*
X214492499Y-69208380D01*
X214192888Y-69148784D01*
X214110226Y-69114544D01*
X213910660Y-69031881D01*
X213656662Y-68862165D01*
X213440655Y-68646158D01*
X213270939Y-68392160D01*
X213154037Y-68109934D01*
X213154036Y-68109932D01*
X213094440Y-67810321D01*
X213094440Y-67504839D01*
X213154036Y-67205228D01*
X213270939Y-66923001D01*
X213270939Y-66923000D01*
X213440655Y-66669002D01*
X213656662Y-66452995D01*
X213910660Y-66283279D01*
X214192886Y-66166377D01*
X214192885Y-66166377D01*
X214192888Y-66166376D01*
X214492499Y-66106780D01*
X214797981Y-66106780D01*
X215097592Y-66166376D01*
G37*
G36*
X190488352Y-61395436D02*
G01*
X190488355Y-61395437D01*
X190488354Y-61395437D01*
X190770580Y-61512339D01*
X191024578Y-61682055D01*
X191240585Y-61898062D01*
X191410301Y-62152060D01*
X191410301Y-62152061D01*
X191527204Y-62434288D01*
X191586800Y-62733899D01*
X191586800Y-63039381D01*
X191527204Y-63338992D01*
X191527203Y-63338994D01*
X191410301Y-63621220D01*
X191240585Y-63875218D01*
X191024578Y-64091225D01*
X190770580Y-64260941D01*
X190571014Y-64343604D01*
X190488352Y-64377844D01*
X190188741Y-64437440D01*
X189883259Y-64437440D01*
X189583648Y-64377844D01*
X189500986Y-64343604D01*
X189301420Y-64260941D01*
X189047422Y-64091225D01*
X188831415Y-63875218D01*
X188661699Y-63621220D01*
X188544797Y-63338994D01*
X188544796Y-63338992D01*
X188485200Y-63039381D01*
X188485200Y-62733899D01*
X188544796Y-62434288D01*
X188661699Y-62152061D01*
X188661699Y-62152060D01*
X188831415Y-61898062D01*
X189047422Y-61682055D01*
X189301420Y-61512339D01*
X189583646Y-61395437D01*
X189583645Y-61395437D01*
X189583648Y-61395436D01*
X189883259Y-61335840D01*
X190188741Y-61335840D01*
X190488352Y-61395436D01*
G37*
G36*
X182488352Y-61395436D02*
G01*
X182488355Y-61395437D01*
X182488354Y-61395437D01*
X182770580Y-61512339D01*
X183024578Y-61682055D01*
X183240585Y-61898062D01*
X183410301Y-62152060D01*
X183410301Y-62152061D01*
X183527204Y-62434288D01*
X183586800Y-62733899D01*
X183586800Y-63039381D01*
X183527204Y-63338992D01*
X183527203Y-63338994D01*
X183410301Y-63621220D01*
X183240585Y-63875218D01*
X183024578Y-64091225D01*
X182770580Y-64260941D01*
X182571014Y-64343604D01*
X182488352Y-64377844D01*
X182188741Y-64437440D01*
X181883259Y-64437440D01*
X181583648Y-64377844D01*
X181500986Y-64343604D01*
X181301420Y-64260941D01*
X181047422Y-64091225D01*
X180831415Y-63875218D01*
X180661699Y-63621220D01*
X180544797Y-63338994D01*
X180544796Y-63338992D01*
X180485200Y-63039381D01*
X180485200Y-62733899D01*
X180544796Y-62434288D01*
X180661699Y-62152061D01*
X180661699Y-62152060D01*
X180831415Y-61898062D01*
X181047422Y-61682055D01*
X181301420Y-61512339D01*
X181583646Y-61395437D01*
X181583645Y-61395437D01*
X181583648Y-61395436D01*
X181883259Y-61335840D01*
X182188741Y-61335840D01*
X182488352Y-61395436D01*
G37*
M02*
