G04 #@! TF.GenerationSoftware,KiCad,Pcbnew,(5.1.5)-3*
G04 #@! TF.CreationDate,2020-06-18T13:30:01-07:00*
G04 #@! TF.ProjectId,Plug_Pass_arduino_shield,506c7567-5f50-4617-9373-5f6172647569,v2.0*
G04 #@! TF.SameCoordinates,Original*
G04 #@! TF.FileFunction,Soldermask,Top*
G04 #@! TF.FilePolarity,Negative*
%FSLAX46Y46*%
G04 Gerber Fmt 4.6, Leading zero omitted, Abs format (unit mm)*
G04 Created by KiCad (PCBNEW (5.1.5)-3) date 2020-06-18 13:30:01*
%MOMM*%
%LPD*%
G04 APERTURE LIST*
%ADD10C,0.100000*%
G04 APERTURE END LIST*
D10*
G36*
X122096587Y-123049234D02*
G01*
X122266388Y-123100743D01*
X122344633Y-123142566D01*
X122422880Y-123184389D01*
X122560043Y-123296957D01*
X122672611Y-123434121D01*
X122756257Y-123590611D01*
X122807766Y-123760412D01*
X122820800Y-123892751D01*
X122820800Y-125281249D01*
X122807766Y-125413588D01*
X122756257Y-125583389D01*
X122672611Y-125739879D01*
X122560043Y-125877043D01*
X122422879Y-125989611D01*
X122266389Y-126073257D01*
X122096588Y-126124766D01*
X121920000Y-126142158D01*
X121743413Y-126124766D01*
X121573612Y-126073257D01*
X121417122Y-125989611D01*
X121279958Y-125877043D01*
X121167390Y-125739879D01*
X121083744Y-125583389D01*
X121032235Y-125413588D01*
X121019201Y-125281249D01*
X121019200Y-123892752D01*
X121032234Y-123760413D01*
X121083743Y-123590612D01*
X121125566Y-123512367D01*
X121167389Y-123434120D01*
X121279957Y-123296957D01*
X121417121Y-123184389D01*
X121573611Y-123100743D01*
X121743412Y-123049234D01*
X121920000Y-123031842D01*
X122096587Y-123049234D01*
G37*
G36*
X89076587Y-123049234D02*
G01*
X89246388Y-123100743D01*
X89324633Y-123142566D01*
X89402880Y-123184389D01*
X89540043Y-123296957D01*
X89652611Y-123434121D01*
X89736257Y-123590611D01*
X89787766Y-123760412D01*
X89800800Y-123892751D01*
X89800800Y-125281249D01*
X89787766Y-125413588D01*
X89736257Y-125583389D01*
X89652611Y-125739879D01*
X89540043Y-125877043D01*
X89402879Y-125989611D01*
X89246389Y-126073257D01*
X89076588Y-126124766D01*
X88900000Y-126142158D01*
X88723413Y-126124766D01*
X88553612Y-126073257D01*
X88397122Y-125989611D01*
X88259958Y-125877043D01*
X88147390Y-125739879D01*
X88063744Y-125583389D01*
X88012235Y-125413588D01*
X87999201Y-125281249D01*
X87999200Y-123892752D01*
X88012234Y-123760413D01*
X88063743Y-123590612D01*
X88105566Y-123512367D01*
X88147389Y-123434120D01*
X88259957Y-123296957D01*
X88397121Y-123184389D01*
X88553611Y-123100743D01*
X88723412Y-123049234D01*
X88900000Y-123031842D01*
X89076587Y-123049234D01*
G37*
G36*
X111936587Y-123049234D02*
G01*
X112106388Y-123100743D01*
X112184633Y-123142566D01*
X112262880Y-123184389D01*
X112400043Y-123296957D01*
X112512611Y-123434121D01*
X112596257Y-123590611D01*
X112647766Y-123760412D01*
X112660800Y-123892751D01*
X112660800Y-125281249D01*
X112647766Y-125413588D01*
X112596257Y-125583389D01*
X112512611Y-125739879D01*
X112400043Y-125877043D01*
X112262879Y-125989611D01*
X112106389Y-126073257D01*
X111936588Y-126124766D01*
X111760000Y-126142158D01*
X111583413Y-126124766D01*
X111413612Y-126073257D01*
X111257122Y-125989611D01*
X111119958Y-125877043D01*
X111007390Y-125739879D01*
X110923744Y-125583389D01*
X110872235Y-125413588D01*
X110859201Y-125281249D01*
X110859200Y-123892752D01*
X110872234Y-123760413D01*
X110923743Y-123590612D01*
X110965566Y-123512367D01*
X111007389Y-123434120D01*
X111119957Y-123296957D01*
X111257121Y-123184389D01*
X111413611Y-123100743D01*
X111583412Y-123049234D01*
X111760000Y-123031842D01*
X111936587Y-123049234D01*
G37*
G36*
X91616587Y-123049234D02*
G01*
X91786388Y-123100743D01*
X91864633Y-123142566D01*
X91942880Y-123184389D01*
X92080043Y-123296957D01*
X92192611Y-123434121D01*
X92276257Y-123590611D01*
X92327766Y-123760412D01*
X92340800Y-123892751D01*
X92340800Y-125281249D01*
X92327766Y-125413588D01*
X92276257Y-125583389D01*
X92192611Y-125739879D01*
X92080043Y-125877043D01*
X91942879Y-125989611D01*
X91786389Y-126073257D01*
X91616588Y-126124766D01*
X91440000Y-126142158D01*
X91263413Y-126124766D01*
X91093612Y-126073257D01*
X90937122Y-125989611D01*
X90799958Y-125877043D01*
X90687390Y-125739879D01*
X90603744Y-125583389D01*
X90552235Y-125413588D01*
X90539201Y-125281249D01*
X90539200Y-123892752D01*
X90552234Y-123760413D01*
X90603743Y-123590612D01*
X90645566Y-123512367D01*
X90687389Y-123434120D01*
X90799957Y-123296957D01*
X90937121Y-123184389D01*
X91093611Y-123100743D01*
X91263412Y-123049234D01*
X91440000Y-123031842D01*
X91616587Y-123049234D01*
G37*
G36*
X96696587Y-123049234D02*
G01*
X96866388Y-123100743D01*
X96944633Y-123142566D01*
X97022880Y-123184389D01*
X97160043Y-123296957D01*
X97272611Y-123434121D01*
X97356257Y-123590611D01*
X97407766Y-123760412D01*
X97420800Y-123892751D01*
X97420800Y-125281249D01*
X97407766Y-125413588D01*
X97356257Y-125583389D01*
X97272611Y-125739879D01*
X97160043Y-125877043D01*
X97022879Y-125989611D01*
X96866389Y-126073257D01*
X96696588Y-126124766D01*
X96520000Y-126142158D01*
X96343413Y-126124766D01*
X96173612Y-126073257D01*
X96017122Y-125989611D01*
X95879958Y-125877043D01*
X95767390Y-125739879D01*
X95683744Y-125583389D01*
X95632235Y-125413588D01*
X95619201Y-125281249D01*
X95619200Y-123892752D01*
X95632234Y-123760413D01*
X95683743Y-123590612D01*
X95725566Y-123512367D01*
X95767389Y-123434120D01*
X95879957Y-123296957D01*
X96017121Y-123184389D01*
X96173611Y-123100743D01*
X96343412Y-123049234D01*
X96520000Y-123031842D01*
X96696587Y-123049234D01*
G37*
G36*
X117016587Y-123049234D02*
G01*
X117186388Y-123100743D01*
X117264633Y-123142566D01*
X117342880Y-123184389D01*
X117480043Y-123296957D01*
X117592611Y-123434121D01*
X117676257Y-123590611D01*
X117727766Y-123760412D01*
X117740800Y-123892751D01*
X117740800Y-125281249D01*
X117727766Y-125413588D01*
X117676257Y-125583389D01*
X117592611Y-125739879D01*
X117480043Y-125877043D01*
X117342879Y-125989611D01*
X117186389Y-126073257D01*
X117016588Y-126124766D01*
X116840000Y-126142158D01*
X116663413Y-126124766D01*
X116493612Y-126073257D01*
X116337122Y-125989611D01*
X116199958Y-125877043D01*
X116087390Y-125739879D01*
X116003744Y-125583389D01*
X115952235Y-125413588D01*
X115939201Y-125281249D01*
X115939200Y-123892752D01*
X115952234Y-123760413D01*
X116003743Y-123590612D01*
X116045566Y-123512367D01*
X116087389Y-123434120D01*
X116199957Y-123296957D01*
X116337121Y-123184389D01*
X116493611Y-123100743D01*
X116663412Y-123049234D01*
X116840000Y-123031842D01*
X117016587Y-123049234D01*
G37*
G36*
X114476587Y-123049234D02*
G01*
X114646388Y-123100743D01*
X114724633Y-123142566D01*
X114802880Y-123184389D01*
X114940043Y-123296957D01*
X115052611Y-123434121D01*
X115136257Y-123590611D01*
X115187766Y-123760412D01*
X115200800Y-123892751D01*
X115200800Y-125281249D01*
X115187766Y-125413588D01*
X115136257Y-125583389D01*
X115052611Y-125739879D01*
X114940043Y-125877043D01*
X114802879Y-125989611D01*
X114646389Y-126073257D01*
X114476588Y-126124766D01*
X114300000Y-126142158D01*
X114123413Y-126124766D01*
X113953612Y-126073257D01*
X113797122Y-125989611D01*
X113659958Y-125877043D01*
X113547390Y-125739879D01*
X113463744Y-125583389D01*
X113412235Y-125413588D01*
X113399201Y-125281249D01*
X113399200Y-123892752D01*
X113412234Y-123760413D01*
X113463743Y-123590612D01*
X113505566Y-123512367D01*
X113547389Y-123434120D01*
X113659957Y-123296957D01*
X113797121Y-123184389D01*
X113953611Y-123100743D01*
X114123412Y-123049234D01*
X114300000Y-123031842D01*
X114476587Y-123049234D01*
G37*
G36*
X86536587Y-123049234D02*
G01*
X86706388Y-123100743D01*
X86784633Y-123142566D01*
X86862880Y-123184389D01*
X87000043Y-123296957D01*
X87112611Y-123434121D01*
X87196257Y-123590611D01*
X87247766Y-123760412D01*
X87260800Y-123892751D01*
X87260800Y-125281249D01*
X87247766Y-125413588D01*
X87196257Y-125583389D01*
X87112611Y-125739879D01*
X87000043Y-125877043D01*
X86862879Y-125989611D01*
X86706389Y-126073257D01*
X86536588Y-126124766D01*
X86360000Y-126142158D01*
X86183413Y-126124766D01*
X86013612Y-126073257D01*
X85857122Y-125989611D01*
X85719958Y-125877043D01*
X85607390Y-125739879D01*
X85523744Y-125583389D01*
X85472235Y-125413588D01*
X85459201Y-125281249D01*
X85459200Y-123892752D01*
X85472234Y-123760413D01*
X85523743Y-123590612D01*
X85565566Y-123512367D01*
X85607389Y-123434120D01*
X85719957Y-123296957D01*
X85857121Y-123184389D01*
X86013611Y-123100743D01*
X86183412Y-123049234D01*
X86360000Y-123031842D01*
X86536587Y-123049234D01*
G37*
G36*
X119556587Y-123049234D02*
G01*
X119726388Y-123100743D01*
X119804633Y-123142566D01*
X119882880Y-123184389D01*
X120020043Y-123296957D01*
X120132611Y-123434121D01*
X120216257Y-123590611D01*
X120267766Y-123760412D01*
X120280800Y-123892751D01*
X120280800Y-125281249D01*
X120267766Y-125413588D01*
X120216257Y-125583389D01*
X120132611Y-125739879D01*
X120020043Y-125877043D01*
X119882879Y-125989611D01*
X119726389Y-126073257D01*
X119556588Y-126124766D01*
X119380000Y-126142158D01*
X119203413Y-126124766D01*
X119033612Y-126073257D01*
X118877122Y-125989611D01*
X118739958Y-125877043D01*
X118627390Y-125739879D01*
X118543744Y-125583389D01*
X118492235Y-125413588D01*
X118479201Y-125281249D01*
X118479200Y-123892752D01*
X118492234Y-123760413D01*
X118543743Y-123590612D01*
X118585566Y-123512367D01*
X118627389Y-123434120D01*
X118739957Y-123296957D01*
X118877121Y-123184389D01*
X119033611Y-123100743D01*
X119203412Y-123049234D01*
X119380000Y-123031842D01*
X119556587Y-123049234D01*
G37*
G36*
X94156587Y-123049234D02*
G01*
X94326388Y-123100743D01*
X94404633Y-123142566D01*
X94482880Y-123184389D01*
X94620043Y-123296957D01*
X94732611Y-123434121D01*
X94816257Y-123590611D01*
X94867766Y-123760412D01*
X94880800Y-123892751D01*
X94880800Y-125281249D01*
X94867766Y-125413588D01*
X94816257Y-125583389D01*
X94732611Y-125739879D01*
X94620043Y-125877043D01*
X94482879Y-125989611D01*
X94326389Y-126073257D01*
X94156588Y-126124766D01*
X93980000Y-126142158D01*
X93803413Y-126124766D01*
X93633612Y-126073257D01*
X93477122Y-125989611D01*
X93339958Y-125877043D01*
X93227390Y-125739879D01*
X93143744Y-125583389D01*
X93092235Y-125413588D01*
X93079201Y-125281249D01*
X93079200Y-123892752D01*
X93092234Y-123760413D01*
X93143743Y-123590612D01*
X93185566Y-123512367D01*
X93227389Y-123434120D01*
X93339957Y-123296957D01*
X93477121Y-123184389D01*
X93633611Y-123100743D01*
X93803412Y-123049234D01*
X93980000Y-123031842D01*
X94156587Y-123049234D01*
G37*
G36*
X109396587Y-123049234D02*
G01*
X109566388Y-123100743D01*
X109644633Y-123142566D01*
X109722880Y-123184389D01*
X109860043Y-123296957D01*
X109972611Y-123434121D01*
X110056257Y-123590611D01*
X110107766Y-123760412D01*
X110120800Y-123892751D01*
X110120800Y-125281249D01*
X110107766Y-125413588D01*
X110056257Y-125583389D01*
X109972611Y-125739879D01*
X109860043Y-125877043D01*
X109722879Y-125989611D01*
X109566389Y-126073257D01*
X109396588Y-126124766D01*
X109220000Y-126142158D01*
X109043413Y-126124766D01*
X108873612Y-126073257D01*
X108717122Y-125989611D01*
X108579958Y-125877043D01*
X108467390Y-125739879D01*
X108383744Y-125583389D01*
X108332235Y-125413588D01*
X108319201Y-125281249D01*
X108319200Y-123892752D01*
X108332234Y-123760413D01*
X108383743Y-123590612D01*
X108425566Y-123512367D01*
X108467389Y-123434120D01*
X108579957Y-123296957D01*
X108717121Y-123184389D01*
X108873611Y-123100743D01*
X109043412Y-123049234D01*
X109220000Y-123031842D01*
X109396587Y-123049234D01*
G37*
G36*
X106856587Y-123049234D02*
G01*
X107026388Y-123100743D01*
X107104633Y-123142566D01*
X107182880Y-123184389D01*
X107320043Y-123296957D01*
X107432611Y-123434121D01*
X107516257Y-123590611D01*
X107567766Y-123760412D01*
X107580800Y-123892751D01*
X107580800Y-125281249D01*
X107567766Y-125413588D01*
X107516257Y-125583389D01*
X107432611Y-125739879D01*
X107320043Y-125877043D01*
X107182879Y-125989611D01*
X107026389Y-126073257D01*
X106856588Y-126124766D01*
X106680000Y-126142158D01*
X106503413Y-126124766D01*
X106333612Y-126073257D01*
X106177122Y-125989611D01*
X106039958Y-125877043D01*
X105927390Y-125739879D01*
X105843744Y-125583389D01*
X105792235Y-125413588D01*
X105779201Y-125281249D01*
X105779200Y-123892752D01*
X105792234Y-123760413D01*
X105843743Y-123590612D01*
X105885566Y-123512367D01*
X105927389Y-123434120D01*
X106039957Y-123296957D01*
X106177121Y-123184389D01*
X106333611Y-123100743D01*
X106503412Y-123049234D01*
X106680000Y-123031842D01*
X106856587Y-123049234D01*
G37*
G36*
X101776587Y-123049234D02*
G01*
X101946388Y-123100743D01*
X102024633Y-123142566D01*
X102102880Y-123184389D01*
X102240043Y-123296957D01*
X102352611Y-123434121D01*
X102436257Y-123590611D01*
X102487766Y-123760412D01*
X102500800Y-123892751D01*
X102500800Y-125281249D01*
X102487766Y-125413588D01*
X102436257Y-125583389D01*
X102352611Y-125739879D01*
X102240043Y-125877043D01*
X102102879Y-125989611D01*
X101946389Y-126073257D01*
X101776588Y-126124766D01*
X101600000Y-126142158D01*
X101423413Y-126124766D01*
X101253612Y-126073257D01*
X101097122Y-125989611D01*
X100959958Y-125877043D01*
X100847390Y-125739879D01*
X100763744Y-125583389D01*
X100712235Y-125413588D01*
X100699201Y-125281249D01*
X100699200Y-123892752D01*
X100712234Y-123760413D01*
X100763743Y-123590612D01*
X100805566Y-123512367D01*
X100847389Y-123434120D01*
X100959957Y-123296957D01*
X101097121Y-123184389D01*
X101253611Y-123100743D01*
X101423412Y-123049234D01*
X101600000Y-123031842D01*
X101776587Y-123049234D01*
G37*
G36*
X99236587Y-123049234D02*
G01*
X99406388Y-123100743D01*
X99484633Y-123142566D01*
X99562880Y-123184389D01*
X99700043Y-123296957D01*
X99812611Y-123434121D01*
X99896257Y-123590611D01*
X99947766Y-123760412D01*
X99960800Y-123892751D01*
X99960800Y-125281249D01*
X99947766Y-125413588D01*
X99896257Y-125583389D01*
X99812611Y-125739879D01*
X99700043Y-125877043D01*
X99562879Y-125989611D01*
X99406389Y-126073257D01*
X99236588Y-126124766D01*
X99060000Y-126142158D01*
X98883413Y-126124766D01*
X98713612Y-126073257D01*
X98557122Y-125989611D01*
X98419958Y-125877043D01*
X98307390Y-125739879D01*
X98223744Y-125583389D01*
X98172235Y-125413588D01*
X98159201Y-125281249D01*
X98159200Y-123892752D01*
X98172234Y-123760413D01*
X98223743Y-123590612D01*
X98265566Y-123512367D01*
X98307389Y-123434120D01*
X98419957Y-123296957D01*
X98557121Y-123184389D01*
X98713611Y-123100743D01*
X98883412Y-123049234D01*
X99060000Y-123031842D01*
X99236587Y-123049234D01*
G37*
G36*
X104316587Y-123049234D02*
G01*
X104486388Y-123100743D01*
X104564633Y-123142566D01*
X104642880Y-123184389D01*
X104780043Y-123296957D01*
X104892611Y-123434121D01*
X104976257Y-123590611D01*
X105027766Y-123760412D01*
X105040800Y-123892751D01*
X105040800Y-125281249D01*
X105027766Y-125413588D01*
X104976257Y-125583389D01*
X104892611Y-125739879D01*
X104780043Y-125877043D01*
X104642879Y-125989611D01*
X104486389Y-126073257D01*
X104316588Y-126124766D01*
X104140000Y-126142158D01*
X103963413Y-126124766D01*
X103793612Y-126073257D01*
X103637122Y-125989611D01*
X103499958Y-125877043D01*
X103387390Y-125739879D01*
X103303744Y-125583389D01*
X103252235Y-125413588D01*
X103239201Y-125281249D01*
X103239200Y-123892752D01*
X103252234Y-123760413D01*
X103303743Y-123590612D01*
X103345566Y-123512367D01*
X103387389Y-123434120D01*
X103499957Y-123296957D01*
X103637121Y-123184389D01*
X103793611Y-123100743D01*
X103963412Y-123049234D01*
X104140000Y-123031842D01*
X104316587Y-123049234D01*
G37*
G36*
X119556588Y-106539234D02*
G01*
X119726389Y-106590743D01*
X119882879Y-106674389D01*
X120020043Y-106786957D01*
X120132611Y-106924121D01*
X120216257Y-107080611D01*
X120267766Y-107250412D01*
X120280800Y-107382751D01*
X120280800Y-108771249D01*
X120267766Y-108903588D01*
X120216257Y-109073389D01*
X120132612Y-109229878D01*
X120132611Y-109229879D01*
X120020043Y-109367043D01*
X119882880Y-109479611D01*
X119804633Y-109521434D01*
X119726388Y-109563257D01*
X119556587Y-109614766D01*
X119380000Y-109632158D01*
X119203412Y-109614766D01*
X119033611Y-109563257D01*
X118877121Y-109479611D01*
X118739957Y-109367043D01*
X118627389Y-109229880D01*
X118585566Y-109151633D01*
X118543743Y-109073388D01*
X118492234Y-108903587D01*
X118479200Y-108771248D01*
X118479201Y-107382751D01*
X118492235Y-107250412D01*
X118543744Y-107080611D01*
X118627390Y-106924121D01*
X118739958Y-106786957D01*
X118877122Y-106674389D01*
X119033612Y-106590743D01*
X119203413Y-106539234D01*
X119380000Y-106521842D01*
X119556588Y-106539234D01*
G37*
G36*
X117016588Y-106539234D02*
G01*
X117186389Y-106590743D01*
X117342879Y-106674389D01*
X117480043Y-106786957D01*
X117592611Y-106924121D01*
X117676257Y-107080611D01*
X117727766Y-107250412D01*
X117740800Y-107382751D01*
X117740800Y-108771249D01*
X117727766Y-108903588D01*
X117676257Y-109073389D01*
X117592612Y-109229878D01*
X117592611Y-109229879D01*
X117480043Y-109367043D01*
X117342880Y-109479611D01*
X117264633Y-109521434D01*
X117186388Y-109563257D01*
X117016587Y-109614766D01*
X116840000Y-109632158D01*
X116663412Y-109614766D01*
X116493611Y-109563257D01*
X116337121Y-109479611D01*
X116199957Y-109367043D01*
X116087389Y-109229880D01*
X116045566Y-109151633D01*
X116003743Y-109073388D01*
X115952234Y-108903587D01*
X115939200Y-108771248D01*
X115939201Y-107382751D01*
X115952235Y-107250412D01*
X116003744Y-107080611D01*
X116087390Y-106924121D01*
X116199958Y-106786957D01*
X116337122Y-106674389D01*
X116493612Y-106590743D01*
X116663413Y-106539234D01*
X116840000Y-106521842D01*
X117016588Y-106539234D01*
G37*
G36*
X114476588Y-106539234D02*
G01*
X114646389Y-106590743D01*
X114802879Y-106674389D01*
X114940043Y-106786957D01*
X115052611Y-106924121D01*
X115136257Y-107080611D01*
X115187766Y-107250412D01*
X115200800Y-107382751D01*
X115200800Y-108771249D01*
X115187766Y-108903588D01*
X115136257Y-109073389D01*
X115052612Y-109229878D01*
X115052611Y-109229879D01*
X114940043Y-109367043D01*
X114802880Y-109479611D01*
X114724633Y-109521434D01*
X114646388Y-109563257D01*
X114476587Y-109614766D01*
X114300000Y-109632158D01*
X114123412Y-109614766D01*
X113953611Y-109563257D01*
X113797121Y-109479611D01*
X113659957Y-109367043D01*
X113547389Y-109229880D01*
X113505566Y-109151633D01*
X113463743Y-109073388D01*
X113412234Y-108903587D01*
X113399200Y-108771248D01*
X113399201Y-107382751D01*
X113412235Y-107250412D01*
X113463744Y-107080611D01*
X113547390Y-106924121D01*
X113659958Y-106786957D01*
X113797122Y-106674389D01*
X113953612Y-106590743D01*
X114123413Y-106539234D01*
X114300000Y-106521842D01*
X114476588Y-106539234D01*
G37*
G36*
X111936588Y-106539234D02*
G01*
X112106389Y-106590743D01*
X112262879Y-106674389D01*
X112400043Y-106786957D01*
X112512611Y-106924121D01*
X112596257Y-107080611D01*
X112647766Y-107250412D01*
X112660800Y-107382751D01*
X112660800Y-108771249D01*
X112647766Y-108903588D01*
X112596257Y-109073389D01*
X112512612Y-109229878D01*
X112512611Y-109229879D01*
X112400043Y-109367043D01*
X112262880Y-109479611D01*
X112184633Y-109521434D01*
X112106388Y-109563257D01*
X111936587Y-109614766D01*
X111760000Y-109632158D01*
X111583412Y-109614766D01*
X111413611Y-109563257D01*
X111257121Y-109479611D01*
X111119957Y-109367043D01*
X111007389Y-109229880D01*
X110965566Y-109151633D01*
X110923743Y-109073388D01*
X110872234Y-108903587D01*
X110859200Y-108771248D01*
X110859201Y-107382751D01*
X110872235Y-107250412D01*
X110923744Y-107080611D01*
X111007390Y-106924121D01*
X111119958Y-106786957D01*
X111257122Y-106674389D01*
X111413612Y-106590743D01*
X111583413Y-106539234D01*
X111760000Y-106521842D01*
X111936588Y-106539234D01*
G37*
G36*
X109396588Y-106539234D02*
G01*
X109566389Y-106590743D01*
X109722879Y-106674389D01*
X109860043Y-106786957D01*
X109972611Y-106924121D01*
X110056257Y-107080611D01*
X110107766Y-107250412D01*
X110120800Y-107382751D01*
X110120800Y-108771249D01*
X110107766Y-108903588D01*
X110056257Y-109073389D01*
X109972612Y-109229878D01*
X109972611Y-109229879D01*
X109860043Y-109367043D01*
X109722880Y-109479611D01*
X109644633Y-109521434D01*
X109566388Y-109563257D01*
X109396587Y-109614766D01*
X109220000Y-109632158D01*
X109043412Y-109614766D01*
X108873611Y-109563257D01*
X108717121Y-109479611D01*
X108579957Y-109367043D01*
X108467389Y-109229880D01*
X108425566Y-109151633D01*
X108383743Y-109073388D01*
X108332234Y-108903587D01*
X108319200Y-108771248D01*
X108319201Y-107382751D01*
X108332235Y-107250412D01*
X108383744Y-107080611D01*
X108467390Y-106924121D01*
X108579958Y-106786957D01*
X108717122Y-106674389D01*
X108873612Y-106590743D01*
X109043413Y-106539234D01*
X109220000Y-106521842D01*
X109396588Y-106539234D01*
G37*
G36*
X106856588Y-106539234D02*
G01*
X107026389Y-106590743D01*
X107182879Y-106674389D01*
X107320043Y-106786957D01*
X107432611Y-106924121D01*
X107516257Y-107080611D01*
X107567766Y-107250412D01*
X107580800Y-107382751D01*
X107580800Y-108771249D01*
X107567766Y-108903588D01*
X107516257Y-109073389D01*
X107432612Y-109229878D01*
X107432611Y-109229879D01*
X107320043Y-109367043D01*
X107182880Y-109479611D01*
X107104633Y-109521434D01*
X107026388Y-109563257D01*
X106856587Y-109614766D01*
X106680000Y-109632158D01*
X106503412Y-109614766D01*
X106333611Y-109563257D01*
X106177121Y-109479611D01*
X106039957Y-109367043D01*
X105927389Y-109229880D01*
X105885566Y-109151633D01*
X105843743Y-109073388D01*
X105792234Y-108903587D01*
X105779200Y-108771248D01*
X105779201Y-107382751D01*
X105792235Y-107250412D01*
X105843744Y-107080611D01*
X105927390Y-106924121D01*
X106039958Y-106786957D01*
X106177122Y-106674389D01*
X106333612Y-106590743D01*
X106503413Y-106539234D01*
X106680000Y-106521842D01*
X106856588Y-106539234D01*
G37*
G36*
X104316588Y-106539234D02*
G01*
X104486389Y-106590743D01*
X104642879Y-106674389D01*
X104780043Y-106786957D01*
X104892611Y-106924121D01*
X104976257Y-107080611D01*
X105027766Y-107250412D01*
X105040800Y-107382751D01*
X105040800Y-108771249D01*
X105027766Y-108903588D01*
X104976257Y-109073389D01*
X104892612Y-109229878D01*
X104892611Y-109229879D01*
X104780043Y-109367043D01*
X104642880Y-109479611D01*
X104564633Y-109521434D01*
X104486388Y-109563257D01*
X104316587Y-109614766D01*
X104140000Y-109632158D01*
X103963412Y-109614766D01*
X103793611Y-109563257D01*
X103637121Y-109479611D01*
X103499957Y-109367043D01*
X103387389Y-109229880D01*
X103345566Y-109151633D01*
X103303743Y-109073388D01*
X103252234Y-108903587D01*
X103239200Y-108771248D01*
X103239201Y-107382751D01*
X103252235Y-107250412D01*
X103303744Y-107080611D01*
X103387390Y-106924121D01*
X103499958Y-106786957D01*
X103637122Y-106674389D01*
X103793612Y-106590743D01*
X103963413Y-106539234D01*
X104140000Y-106521842D01*
X104316588Y-106539234D01*
G37*
G36*
X99236588Y-106539234D02*
G01*
X99406389Y-106590743D01*
X99562879Y-106674389D01*
X99700043Y-106786957D01*
X99812611Y-106924121D01*
X99896257Y-107080611D01*
X99947766Y-107250412D01*
X99960800Y-107382751D01*
X99960800Y-108771249D01*
X99947766Y-108903588D01*
X99896257Y-109073389D01*
X99812612Y-109229878D01*
X99812611Y-109229879D01*
X99700043Y-109367043D01*
X99562880Y-109479611D01*
X99484633Y-109521434D01*
X99406388Y-109563257D01*
X99236587Y-109614766D01*
X99060000Y-109632158D01*
X98883412Y-109614766D01*
X98713611Y-109563257D01*
X98557121Y-109479611D01*
X98419957Y-109367043D01*
X98307389Y-109229880D01*
X98265566Y-109151633D01*
X98223743Y-109073388D01*
X98172234Y-108903587D01*
X98159200Y-108771248D01*
X98159201Y-107382751D01*
X98172235Y-107250412D01*
X98223744Y-107080611D01*
X98307390Y-106924121D01*
X98419958Y-106786957D01*
X98557122Y-106674389D01*
X98713612Y-106590743D01*
X98883413Y-106539234D01*
X99060000Y-106521842D01*
X99236588Y-106539234D01*
G37*
G36*
X96696588Y-106539234D02*
G01*
X96866389Y-106590743D01*
X97022879Y-106674389D01*
X97160043Y-106786957D01*
X97272611Y-106924121D01*
X97356257Y-107080611D01*
X97407766Y-107250412D01*
X97420800Y-107382751D01*
X97420800Y-108771249D01*
X97407766Y-108903588D01*
X97356257Y-109073389D01*
X97272612Y-109229878D01*
X97272611Y-109229879D01*
X97160043Y-109367043D01*
X97022880Y-109479611D01*
X96944633Y-109521434D01*
X96866388Y-109563257D01*
X96696587Y-109614766D01*
X96520000Y-109632158D01*
X96343412Y-109614766D01*
X96173611Y-109563257D01*
X96017121Y-109479611D01*
X95879957Y-109367043D01*
X95767389Y-109229880D01*
X95725566Y-109151633D01*
X95683743Y-109073388D01*
X95632234Y-108903587D01*
X95619200Y-108771248D01*
X95619201Y-107382751D01*
X95632235Y-107250412D01*
X95683744Y-107080611D01*
X95767390Y-106924121D01*
X95879958Y-106786957D01*
X96017122Y-106674389D01*
X96173612Y-106590743D01*
X96343413Y-106539234D01*
X96520000Y-106521842D01*
X96696588Y-106539234D01*
G37*
G36*
X94156588Y-106539234D02*
G01*
X94326389Y-106590743D01*
X94482879Y-106674389D01*
X94620043Y-106786957D01*
X94732611Y-106924121D01*
X94816257Y-107080611D01*
X94867766Y-107250412D01*
X94880800Y-107382751D01*
X94880800Y-108771249D01*
X94867766Y-108903588D01*
X94816257Y-109073389D01*
X94732612Y-109229878D01*
X94732611Y-109229879D01*
X94620043Y-109367043D01*
X94482880Y-109479611D01*
X94404633Y-109521434D01*
X94326388Y-109563257D01*
X94156587Y-109614766D01*
X93980000Y-109632158D01*
X93803412Y-109614766D01*
X93633611Y-109563257D01*
X93477121Y-109479611D01*
X93339957Y-109367043D01*
X93227389Y-109229880D01*
X93185566Y-109151633D01*
X93143743Y-109073388D01*
X93092234Y-108903587D01*
X93079200Y-108771248D01*
X93079201Y-107382751D01*
X93092235Y-107250412D01*
X93143744Y-107080611D01*
X93227390Y-106924121D01*
X93339958Y-106786957D01*
X93477122Y-106674389D01*
X93633612Y-106590743D01*
X93803413Y-106539234D01*
X93980000Y-106521842D01*
X94156588Y-106539234D01*
G37*
G36*
X91616588Y-106539234D02*
G01*
X91786389Y-106590743D01*
X91942879Y-106674389D01*
X92080043Y-106786957D01*
X92192611Y-106924121D01*
X92276257Y-107080611D01*
X92327766Y-107250412D01*
X92340800Y-107382751D01*
X92340800Y-108771249D01*
X92327766Y-108903588D01*
X92276257Y-109073389D01*
X92192612Y-109229878D01*
X92192611Y-109229879D01*
X92080043Y-109367043D01*
X91942880Y-109479611D01*
X91864633Y-109521434D01*
X91786388Y-109563257D01*
X91616587Y-109614766D01*
X91440000Y-109632158D01*
X91263412Y-109614766D01*
X91093611Y-109563257D01*
X90937121Y-109479611D01*
X90799957Y-109367043D01*
X90687389Y-109229880D01*
X90645566Y-109151633D01*
X90603743Y-109073388D01*
X90552234Y-108903587D01*
X90539200Y-108771248D01*
X90539201Y-107382751D01*
X90552235Y-107250412D01*
X90603744Y-107080611D01*
X90687390Y-106924121D01*
X90799958Y-106786957D01*
X90937122Y-106674389D01*
X91093612Y-106590743D01*
X91263413Y-106539234D01*
X91440000Y-106521842D01*
X91616588Y-106539234D01*
G37*
G36*
X89076588Y-106539234D02*
G01*
X89246389Y-106590743D01*
X89402879Y-106674389D01*
X89540043Y-106786957D01*
X89652611Y-106924121D01*
X89736257Y-107080611D01*
X89787766Y-107250412D01*
X89800800Y-107382751D01*
X89800800Y-108771249D01*
X89787766Y-108903588D01*
X89736257Y-109073389D01*
X89652612Y-109229878D01*
X89652611Y-109229879D01*
X89540043Y-109367043D01*
X89402880Y-109479611D01*
X89324633Y-109521434D01*
X89246388Y-109563257D01*
X89076587Y-109614766D01*
X88900000Y-109632158D01*
X88723412Y-109614766D01*
X88553611Y-109563257D01*
X88397121Y-109479611D01*
X88259957Y-109367043D01*
X88147389Y-109229880D01*
X88105566Y-109151633D01*
X88063743Y-109073388D01*
X88012234Y-108903587D01*
X87999200Y-108771248D01*
X87999201Y-107382751D01*
X88012235Y-107250412D01*
X88063744Y-107080611D01*
X88147390Y-106924121D01*
X88259958Y-106786957D01*
X88397122Y-106674389D01*
X88553612Y-106590743D01*
X88723413Y-106539234D01*
X88900000Y-106521842D01*
X89076588Y-106539234D01*
G37*
G36*
X86536588Y-106539234D02*
G01*
X86706389Y-106590743D01*
X86862879Y-106674389D01*
X87000043Y-106786957D01*
X87112611Y-106924121D01*
X87196257Y-107080611D01*
X87247766Y-107250412D01*
X87260800Y-107382751D01*
X87260800Y-108771249D01*
X87247766Y-108903588D01*
X87196257Y-109073389D01*
X87112612Y-109229878D01*
X87112611Y-109229879D01*
X87000043Y-109367043D01*
X86862880Y-109479611D01*
X86784633Y-109521434D01*
X86706388Y-109563257D01*
X86536587Y-109614766D01*
X86360000Y-109632158D01*
X86183412Y-109614766D01*
X86013611Y-109563257D01*
X85857121Y-109479611D01*
X85719957Y-109367043D01*
X85607389Y-109229880D01*
X85565566Y-109151633D01*
X85523743Y-109073388D01*
X85472234Y-108903587D01*
X85459200Y-108771248D01*
X85459201Y-107382751D01*
X85472235Y-107250412D01*
X85523744Y-107080611D01*
X85607390Y-106924121D01*
X85719958Y-106786957D01*
X85857122Y-106674389D01*
X86013612Y-106590743D01*
X86183413Y-106539234D01*
X86360000Y-106521842D01*
X86536588Y-106539234D01*
G37*
G36*
X122096588Y-106539234D02*
G01*
X122266389Y-106590743D01*
X122422879Y-106674389D01*
X122560043Y-106786957D01*
X122672611Y-106924121D01*
X122756257Y-107080611D01*
X122807766Y-107250412D01*
X122820800Y-107382751D01*
X122820800Y-108771249D01*
X122807766Y-108903588D01*
X122756257Y-109073389D01*
X122672612Y-109229878D01*
X122672611Y-109229879D01*
X122560043Y-109367043D01*
X122422880Y-109479611D01*
X122344633Y-109521434D01*
X122266388Y-109563257D01*
X122096587Y-109614766D01*
X121920000Y-109632158D01*
X121743412Y-109614766D01*
X121573611Y-109563257D01*
X121417121Y-109479611D01*
X121279957Y-109367043D01*
X121167389Y-109229880D01*
X121125566Y-109151633D01*
X121083743Y-109073388D01*
X121032234Y-108903587D01*
X121019200Y-108771248D01*
X121019201Y-107382751D01*
X121032235Y-107250412D01*
X121083744Y-107080611D01*
X121167390Y-106924121D01*
X121279958Y-106786957D01*
X121417122Y-106674389D01*
X121573612Y-106590743D01*
X121743413Y-106539234D01*
X121920000Y-106521842D01*
X122096588Y-106539234D01*
G37*
G36*
X101776588Y-106539234D02*
G01*
X101946389Y-106590743D01*
X102102879Y-106674389D01*
X102240043Y-106786957D01*
X102352611Y-106924121D01*
X102436257Y-107080611D01*
X102487766Y-107250412D01*
X102500800Y-107382751D01*
X102500800Y-108771249D01*
X102487766Y-108903588D01*
X102436257Y-109073389D01*
X102352612Y-109229878D01*
X102352611Y-109229879D01*
X102240043Y-109367043D01*
X102102880Y-109479611D01*
X102024633Y-109521434D01*
X101946388Y-109563257D01*
X101776587Y-109614766D01*
X101600000Y-109632158D01*
X101423412Y-109614766D01*
X101253611Y-109563257D01*
X101097121Y-109479611D01*
X100959957Y-109367043D01*
X100847389Y-109229880D01*
X100805566Y-109151633D01*
X100763743Y-109073388D01*
X100712234Y-108903587D01*
X100699200Y-108771248D01*
X100699201Y-107382751D01*
X100712235Y-107250412D01*
X100763744Y-107080611D01*
X100847390Y-106924121D01*
X100959958Y-106786957D01*
X101097122Y-106674389D01*
X101253612Y-106590743D01*
X101423413Y-106539234D01*
X101600000Y-106521842D01*
X101776588Y-106539234D01*
G37*
G36*
X120066391Y-100195170D02*
G01*
X120154723Y-100212740D01*
X120321131Y-100281669D01*
X120470896Y-100381739D01*
X120598261Y-100509104D01*
X120698331Y-100658869D01*
X120767260Y-100825277D01*
X120802400Y-101001941D01*
X120802400Y-101182059D01*
X120767260Y-101358723D01*
X120698331Y-101525131D01*
X120598261Y-101674896D01*
X120470896Y-101802261D01*
X120321131Y-101902331D01*
X120154723Y-101971260D01*
X120066391Y-101988830D01*
X119978061Y-102006400D01*
X119797939Y-102006400D01*
X119709609Y-101988830D01*
X119621277Y-101971260D01*
X119454869Y-101902331D01*
X119305104Y-101802261D01*
X119177739Y-101674896D01*
X119077669Y-101525131D01*
X119008740Y-101358723D01*
X118973600Y-101182059D01*
X118973600Y-101001941D01*
X119008740Y-100825277D01*
X119077669Y-100658869D01*
X119177739Y-100509104D01*
X119305104Y-100381739D01*
X119454869Y-100281669D01*
X119621277Y-100212740D01*
X119709609Y-100195170D01*
X119797939Y-100177600D01*
X119978061Y-100177600D01*
X120066391Y-100195170D01*
G37*
G36*
X122606391Y-100195170D02*
G01*
X122694723Y-100212740D01*
X122861131Y-100281669D01*
X123010896Y-100381739D01*
X123138261Y-100509104D01*
X123238331Y-100658869D01*
X123307260Y-100825277D01*
X123342400Y-101001941D01*
X123342400Y-101182059D01*
X123307260Y-101358723D01*
X123238331Y-101525131D01*
X123138261Y-101674896D01*
X123010896Y-101802261D01*
X122861131Y-101902331D01*
X122694723Y-101971260D01*
X122606391Y-101988830D01*
X122518061Y-102006400D01*
X122337939Y-102006400D01*
X122249609Y-101988830D01*
X122161277Y-101971260D01*
X121994869Y-101902331D01*
X121845104Y-101802261D01*
X121717739Y-101674896D01*
X121617669Y-101525131D01*
X121548740Y-101358723D01*
X121513600Y-101182059D01*
X121513600Y-101001941D01*
X121548740Y-100825277D01*
X121617669Y-100658869D01*
X121717739Y-100509104D01*
X121845104Y-100381739D01*
X121994869Y-100281669D01*
X122161277Y-100212740D01*
X122249609Y-100195170D01*
X122337939Y-100177600D01*
X122518061Y-100177600D01*
X122606391Y-100195170D01*
G37*
G36*
X120066391Y-97655170D02*
G01*
X120154723Y-97672740D01*
X120321131Y-97741669D01*
X120470896Y-97841739D01*
X120598261Y-97969104D01*
X120698331Y-98118869D01*
X120767260Y-98285277D01*
X120802400Y-98461941D01*
X120802400Y-98642059D01*
X120767260Y-98818723D01*
X120698331Y-98985131D01*
X120598261Y-99134896D01*
X120470896Y-99262261D01*
X120321131Y-99362331D01*
X120154723Y-99431260D01*
X120066391Y-99448830D01*
X119978061Y-99466400D01*
X119797939Y-99466400D01*
X119709609Y-99448830D01*
X119621277Y-99431260D01*
X119454869Y-99362331D01*
X119305104Y-99262261D01*
X119177739Y-99134896D01*
X119077669Y-98985131D01*
X119008740Y-98818723D01*
X118973600Y-98642059D01*
X118973600Y-98461941D01*
X119008740Y-98285277D01*
X119077669Y-98118869D01*
X119177739Y-97969104D01*
X119305104Y-97841739D01*
X119454869Y-97741669D01*
X119621277Y-97672740D01*
X119709609Y-97655170D01*
X119797939Y-97637600D01*
X119978061Y-97637600D01*
X120066391Y-97655170D01*
G37*
G36*
X122606391Y-97655170D02*
G01*
X122694723Y-97672740D01*
X122861131Y-97741669D01*
X123010896Y-97841739D01*
X123138261Y-97969104D01*
X123238331Y-98118869D01*
X123307260Y-98285277D01*
X123342400Y-98461941D01*
X123342400Y-98642059D01*
X123307260Y-98818723D01*
X123238331Y-98985131D01*
X123138261Y-99134896D01*
X123010896Y-99262261D01*
X122861131Y-99362331D01*
X122694723Y-99431260D01*
X122606391Y-99448830D01*
X122518061Y-99466400D01*
X122337939Y-99466400D01*
X122249609Y-99448830D01*
X122161277Y-99431260D01*
X121994869Y-99362331D01*
X121845104Y-99262261D01*
X121717739Y-99134896D01*
X121617669Y-98985131D01*
X121548740Y-98818723D01*
X121513600Y-98642059D01*
X121513600Y-98461941D01*
X121548740Y-98285277D01*
X121617669Y-98118869D01*
X121717739Y-97969104D01*
X121845104Y-97841739D01*
X121994869Y-97741669D01*
X122161277Y-97672740D01*
X122249609Y-97655170D01*
X122337939Y-97637600D01*
X122518061Y-97637600D01*
X122606391Y-97655170D01*
G37*
G36*
X122606391Y-95115170D02*
G01*
X122694723Y-95132740D01*
X122861131Y-95201669D01*
X123010896Y-95301739D01*
X123138261Y-95429104D01*
X123238331Y-95578869D01*
X123307260Y-95745277D01*
X123342400Y-95921941D01*
X123342400Y-96102059D01*
X123307260Y-96278723D01*
X123238331Y-96445131D01*
X123138261Y-96594896D01*
X123010896Y-96722261D01*
X122861131Y-96822331D01*
X122694723Y-96891260D01*
X122606391Y-96908830D01*
X122518061Y-96926400D01*
X122337939Y-96926400D01*
X122249609Y-96908830D01*
X122161277Y-96891260D01*
X121994869Y-96822331D01*
X121845104Y-96722261D01*
X121717739Y-96594896D01*
X121617669Y-96445131D01*
X121548740Y-96278723D01*
X121513600Y-96102059D01*
X121513600Y-95921941D01*
X121548740Y-95745277D01*
X121617669Y-95578869D01*
X121717739Y-95429104D01*
X121845104Y-95301739D01*
X121994869Y-95201669D01*
X122161277Y-95132740D01*
X122249609Y-95115170D01*
X122337939Y-95097600D01*
X122518061Y-95097600D01*
X122606391Y-95115170D01*
G37*
G36*
X120066391Y-95115170D02*
G01*
X120154723Y-95132740D01*
X120321131Y-95201669D01*
X120470896Y-95301739D01*
X120598261Y-95429104D01*
X120698331Y-95578869D01*
X120767260Y-95745277D01*
X120802400Y-95921941D01*
X120802400Y-96102059D01*
X120767260Y-96278723D01*
X120698331Y-96445131D01*
X120598261Y-96594896D01*
X120470896Y-96722261D01*
X120321131Y-96822331D01*
X120154723Y-96891260D01*
X120066391Y-96908830D01*
X119978061Y-96926400D01*
X119797939Y-96926400D01*
X119709609Y-96908830D01*
X119621277Y-96891260D01*
X119454869Y-96822331D01*
X119305104Y-96722261D01*
X119177739Y-96594896D01*
X119077669Y-96445131D01*
X119008740Y-96278723D01*
X118973600Y-96102059D01*
X118973600Y-95921941D01*
X119008740Y-95745277D01*
X119077669Y-95578869D01*
X119177739Y-95429104D01*
X119305104Y-95301739D01*
X119454869Y-95201669D01*
X119621277Y-95132740D01*
X119709609Y-95115170D01*
X119797939Y-95097600D01*
X119978061Y-95097600D01*
X120066391Y-95115170D01*
G37*
G36*
X120802400Y-94386400D02*
G01*
X118973600Y-94386400D01*
X118973600Y-92557600D01*
X120802400Y-92557600D01*
X120802400Y-94386400D01*
G37*
G36*
X122606391Y-92575170D02*
G01*
X122694723Y-92592740D01*
X122861131Y-92661669D01*
X123010896Y-92761739D01*
X123138261Y-92889104D01*
X123238331Y-93038869D01*
X123307260Y-93205277D01*
X123342400Y-93381941D01*
X123342400Y-93562059D01*
X123307260Y-93738723D01*
X123238331Y-93905131D01*
X123138261Y-94054896D01*
X123010896Y-94182261D01*
X122861131Y-94282331D01*
X122694723Y-94351260D01*
X122606391Y-94368830D01*
X122518061Y-94386400D01*
X122337939Y-94386400D01*
X122249609Y-94368830D01*
X122161277Y-94351260D01*
X121994869Y-94282331D01*
X121845104Y-94182261D01*
X121717739Y-94054896D01*
X121617669Y-93905131D01*
X121548740Y-93738723D01*
X121513600Y-93562059D01*
X121513600Y-93381941D01*
X121548740Y-93205277D01*
X121617669Y-93038869D01*
X121717739Y-92889104D01*
X121845104Y-92761739D01*
X121994869Y-92661669D01*
X122161277Y-92592740D01*
X122249609Y-92575170D01*
X122337939Y-92557600D01*
X122518061Y-92557600D01*
X122606391Y-92575170D01*
G37*
G36*
X115578754Y-92097817D02*
G01*
X115742689Y-92165721D01*
X115890227Y-92264303D01*
X116015697Y-92389773D01*
X116114279Y-92537311D01*
X116182183Y-92701246D01*
X116216800Y-92875279D01*
X116216800Y-93052721D01*
X116182183Y-93226754D01*
X116114279Y-93390689D01*
X116015697Y-93538227D01*
X115890227Y-93663697D01*
X115742689Y-93762279D01*
X115578754Y-93830183D01*
X115404721Y-93864800D01*
X115227279Y-93864800D01*
X115053246Y-93830183D01*
X114889311Y-93762279D01*
X114741773Y-93663697D01*
X114616303Y-93538227D01*
X114517721Y-93390689D01*
X114449817Y-93226754D01*
X114415200Y-93052721D01*
X114415200Y-92875279D01*
X114449817Y-92701246D01*
X114517721Y-92537311D01*
X114616303Y-92389773D01*
X114741773Y-92264303D01*
X114889311Y-92165721D01*
X115053246Y-92097817D01*
X115227279Y-92063200D01*
X115404721Y-92063200D01*
X115578754Y-92097817D01*
G37*
G36*
X98436800Y-93864800D02*
G01*
X96635200Y-93864800D01*
X96635200Y-92063200D01*
X98436800Y-92063200D01*
X98436800Y-93864800D01*
G37*
G36*
X100338754Y-92097817D02*
G01*
X100502689Y-92165721D01*
X100650227Y-92264303D01*
X100775697Y-92389773D01*
X100874279Y-92537311D01*
X100942183Y-92701246D01*
X100976800Y-92875279D01*
X100976800Y-93052721D01*
X100942183Y-93226754D01*
X100874279Y-93390689D01*
X100775697Y-93538227D01*
X100650227Y-93663697D01*
X100502689Y-93762279D01*
X100338754Y-93830183D01*
X100164721Y-93864800D01*
X99987279Y-93864800D01*
X99813246Y-93830183D01*
X99649311Y-93762279D01*
X99501773Y-93663697D01*
X99376303Y-93538227D01*
X99277721Y-93390689D01*
X99209817Y-93226754D01*
X99175200Y-93052721D01*
X99175200Y-92875279D01*
X99209817Y-92701246D01*
X99277721Y-92537311D01*
X99376303Y-92389773D01*
X99501773Y-92264303D01*
X99649311Y-92165721D01*
X99813246Y-92097817D01*
X99987279Y-92063200D01*
X100164721Y-92063200D01*
X100338754Y-92097817D01*
G37*
G36*
X102878754Y-92097817D02*
G01*
X103042689Y-92165721D01*
X103190227Y-92264303D01*
X103315697Y-92389773D01*
X103414279Y-92537311D01*
X103482183Y-92701246D01*
X103516800Y-92875279D01*
X103516800Y-93052721D01*
X103482183Y-93226754D01*
X103414279Y-93390689D01*
X103315697Y-93538227D01*
X103190227Y-93663697D01*
X103042689Y-93762279D01*
X102878754Y-93830183D01*
X102704721Y-93864800D01*
X102527279Y-93864800D01*
X102353246Y-93830183D01*
X102189311Y-93762279D01*
X102041773Y-93663697D01*
X101916303Y-93538227D01*
X101817721Y-93390689D01*
X101749817Y-93226754D01*
X101715200Y-93052721D01*
X101715200Y-92875279D01*
X101749817Y-92701246D01*
X101817721Y-92537311D01*
X101916303Y-92389773D01*
X102041773Y-92264303D01*
X102189311Y-92165721D01*
X102353246Y-92097817D01*
X102527279Y-92063200D01*
X102704721Y-92063200D01*
X102878754Y-92097817D01*
G37*
G36*
X105418754Y-92097817D02*
G01*
X105582689Y-92165721D01*
X105730227Y-92264303D01*
X105855697Y-92389773D01*
X105954279Y-92537311D01*
X106022183Y-92701246D01*
X106056800Y-92875279D01*
X106056800Y-93052721D01*
X106022183Y-93226754D01*
X105954279Y-93390689D01*
X105855697Y-93538227D01*
X105730227Y-93663697D01*
X105582689Y-93762279D01*
X105418754Y-93830183D01*
X105244721Y-93864800D01*
X105067279Y-93864800D01*
X104893246Y-93830183D01*
X104729311Y-93762279D01*
X104581773Y-93663697D01*
X104456303Y-93538227D01*
X104357721Y-93390689D01*
X104289817Y-93226754D01*
X104255200Y-93052721D01*
X104255200Y-92875279D01*
X104289817Y-92701246D01*
X104357721Y-92537311D01*
X104456303Y-92389773D01*
X104581773Y-92264303D01*
X104729311Y-92165721D01*
X104893246Y-92097817D01*
X105067279Y-92063200D01*
X105244721Y-92063200D01*
X105418754Y-92097817D01*
G37*
G36*
X107958754Y-92097817D02*
G01*
X108122689Y-92165721D01*
X108270227Y-92264303D01*
X108395697Y-92389773D01*
X108494279Y-92537311D01*
X108562183Y-92701246D01*
X108596800Y-92875279D01*
X108596800Y-93052721D01*
X108562183Y-93226754D01*
X108494279Y-93390689D01*
X108395697Y-93538227D01*
X108270227Y-93663697D01*
X108122689Y-93762279D01*
X107958754Y-93830183D01*
X107784721Y-93864800D01*
X107607279Y-93864800D01*
X107433246Y-93830183D01*
X107269311Y-93762279D01*
X107121773Y-93663697D01*
X106996303Y-93538227D01*
X106897721Y-93390689D01*
X106829817Y-93226754D01*
X106795200Y-93052721D01*
X106795200Y-92875279D01*
X106829817Y-92701246D01*
X106897721Y-92537311D01*
X106996303Y-92389773D01*
X107121773Y-92264303D01*
X107269311Y-92165721D01*
X107433246Y-92097817D01*
X107607279Y-92063200D01*
X107784721Y-92063200D01*
X107958754Y-92097817D01*
G37*
G36*
X110498754Y-92097817D02*
G01*
X110662689Y-92165721D01*
X110810227Y-92264303D01*
X110935697Y-92389773D01*
X111034279Y-92537311D01*
X111102183Y-92701246D01*
X111136800Y-92875279D01*
X111136800Y-93052721D01*
X111102183Y-93226754D01*
X111034279Y-93390689D01*
X110935697Y-93538227D01*
X110810227Y-93663697D01*
X110662689Y-93762279D01*
X110498754Y-93830183D01*
X110324721Y-93864800D01*
X110147279Y-93864800D01*
X109973246Y-93830183D01*
X109809311Y-93762279D01*
X109661773Y-93663697D01*
X109536303Y-93538227D01*
X109437721Y-93390689D01*
X109369817Y-93226754D01*
X109335200Y-93052721D01*
X109335200Y-92875279D01*
X109369817Y-92701246D01*
X109437721Y-92537311D01*
X109536303Y-92389773D01*
X109661773Y-92264303D01*
X109809311Y-92165721D01*
X109973246Y-92097817D01*
X110147279Y-92063200D01*
X110324721Y-92063200D01*
X110498754Y-92097817D01*
G37*
G36*
X113038754Y-92097817D02*
G01*
X113202689Y-92165721D01*
X113350227Y-92264303D01*
X113475697Y-92389773D01*
X113574279Y-92537311D01*
X113642183Y-92701246D01*
X113676800Y-92875279D01*
X113676800Y-93052721D01*
X113642183Y-93226754D01*
X113574279Y-93390689D01*
X113475697Y-93538227D01*
X113350227Y-93663697D01*
X113202689Y-93762279D01*
X113038754Y-93830183D01*
X112864721Y-93864800D01*
X112687279Y-93864800D01*
X112513246Y-93830183D01*
X112349311Y-93762279D01*
X112201773Y-93663697D01*
X112076303Y-93538227D01*
X111977721Y-93390689D01*
X111909817Y-93226754D01*
X111875200Y-93052721D01*
X111875200Y-92875279D01*
X111909817Y-92701246D01*
X111977721Y-92537311D01*
X112076303Y-92389773D01*
X112201773Y-92264303D01*
X112349311Y-92165721D01*
X112513246Y-92097817D01*
X112687279Y-92063200D01*
X112864721Y-92063200D01*
X113038754Y-92097817D01*
G37*
G36*
X121674754Y-80921817D02*
G01*
X121838689Y-80989721D01*
X121986227Y-81088303D01*
X122111697Y-81213773D01*
X122210279Y-81361311D01*
X122278183Y-81525246D01*
X122312800Y-81699279D01*
X122312800Y-81876721D01*
X122278183Y-82050754D01*
X122210279Y-82214689D01*
X122111697Y-82362227D01*
X121986227Y-82487697D01*
X121838689Y-82586279D01*
X121674754Y-82654183D01*
X121500721Y-82688800D01*
X121323279Y-82688800D01*
X121149246Y-82654183D01*
X120985311Y-82586279D01*
X120837773Y-82487697D01*
X120712303Y-82362227D01*
X120613721Y-82214689D01*
X120545817Y-82050754D01*
X120511200Y-81876721D01*
X120511200Y-81699279D01*
X120545817Y-81525246D01*
X120613721Y-81361311D01*
X120712303Y-81213773D01*
X120837773Y-81088303D01*
X120985311Y-80989721D01*
X121149246Y-80921817D01*
X121323279Y-80887200D01*
X121500721Y-80887200D01*
X121674754Y-80921817D01*
G37*
G36*
X121674754Y-78381817D02*
G01*
X121838689Y-78449721D01*
X121986227Y-78548303D01*
X122111697Y-78673773D01*
X122210279Y-78821311D01*
X122278183Y-78985246D01*
X122312800Y-79159279D01*
X122312800Y-79336721D01*
X122278183Y-79510754D01*
X122210279Y-79674689D01*
X122111697Y-79822227D01*
X121986227Y-79947697D01*
X121838689Y-80046279D01*
X121674754Y-80114183D01*
X121500721Y-80148800D01*
X121323279Y-80148800D01*
X121149246Y-80114183D01*
X120985311Y-80046279D01*
X120837773Y-79947697D01*
X120712303Y-79822227D01*
X120613721Y-79674689D01*
X120545817Y-79510754D01*
X120511200Y-79336721D01*
X120511200Y-79159279D01*
X120545817Y-78985246D01*
X120613721Y-78821311D01*
X120712303Y-78673773D01*
X120837773Y-78548303D01*
X120985311Y-78449721D01*
X121149246Y-78381817D01*
X121323279Y-78347200D01*
X121500721Y-78347200D01*
X121674754Y-78381817D01*
G37*
G36*
X121674754Y-75841817D02*
G01*
X121838689Y-75909721D01*
X121986227Y-76008303D01*
X122111697Y-76133773D01*
X122210279Y-76281311D01*
X122278183Y-76445246D01*
X122312800Y-76619279D01*
X122312800Y-76796721D01*
X122278183Y-76970754D01*
X122210279Y-77134689D01*
X122111697Y-77282227D01*
X121986227Y-77407697D01*
X121838689Y-77506279D01*
X121674754Y-77574183D01*
X121500721Y-77608800D01*
X121323279Y-77608800D01*
X121149246Y-77574183D01*
X120985311Y-77506279D01*
X120837773Y-77407697D01*
X120712303Y-77282227D01*
X120613721Y-77134689D01*
X120545817Y-76970754D01*
X120511200Y-76796721D01*
X120511200Y-76619279D01*
X120545817Y-76445246D01*
X120613721Y-76281311D01*
X120712303Y-76133773D01*
X120837773Y-76008303D01*
X120985311Y-75909721D01*
X121149246Y-75841817D01*
X121323279Y-75807200D01*
X121500721Y-75807200D01*
X121674754Y-75841817D01*
G37*
G36*
X121674754Y-73301817D02*
G01*
X121838689Y-73369721D01*
X121986227Y-73468303D01*
X122111697Y-73593773D01*
X122210279Y-73741311D01*
X122278183Y-73905246D01*
X122312800Y-74079279D01*
X122312800Y-74256721D01*
X122278183Y-74430754D01*
X122210279Y-74594689D01*
X122111697Y-74742227D01*
X121986227Y-74867697D01*
X121838689Y-74966279D01*
X121674754Y-75034183D01*
X121500721Y-75068800D01*
X121323279Y-75068800D01*
X121149246Y-75034183D01*
X120985311Y-74966279D01*
X120837773Y-74867697D01*
X120712303Y-74742227D01*
X120613721Y-74594689D01*
X120545817Y-74430754D01*
X120511200Y-74256721D01*
X120511200Y-74079279D01*
X120545817Y-73905246D01*
X120613721Y-73741311D01*
X120712303Y-73593773D01*
X120837773Y-73468303D01*
X120985311Y-73369721D01*
X121149246Y-73301817D01*
X121323279Y-73267200D01*
X121500721Y-73267200D01*
X121674754Y-73301817D01*
G37*
G36*
X121674754Y-70761817D02*
G01*
X121838689Y-70829721D01*
X121986227Y-70928303D01*
X122111697Y-71053773D01*
X122210279Y-71201311D01*
X122278183Y-71365246D01*
X122312800Y-71539279D01*
X122312800Y-71716721D01*
X122278183Y-71890754D01*
X122210279Y-72054689D01*
X122111697Y-72202227D01*
X121986227Y-72327697D01*
X121838689Y-72426279D01*
X121674754Y-72494183D01*
X121500721Y-72528800D01*
X121323279Y-72528800D01*
X121149246Y-72494183D01*
X120985311Y-72426279D01*
X120837773Y-72327697D01*
X120712303Y-72202227D01*
X120613721Y-72054689D01*
X120545817Y-71890754D01*
X120511200Y-71716721D01*
X120511200Y-71539279D01*
X120545817Y-71365246D01*
X120613721Y-71201311D01*
X120712303Y-71053773D01*
X120837773Y-70928303D01*
X120985311Y-70829721D01*
X121149246Y-70761817D01*
X121323279Y-70727200D01*
X121500721Y-70727200D01*
X121674754Y-70761817D01*
G37*
G36*
X122312800Y-69988800D02*
G01*
X120511200Y-69988800D01*
X120511200Y-68187200D01*
X122312800Y-68187200D01*
X122312800Y-69988800D01*
G37*
M02*
