G04 #@! TF.GenerationSoftware,KiCad,Pcbnew,(5.1.5)-3*
G04 #@! TF.CreationDate,2020-09-30T13:58:30-07:00*
G04 #@! TF.ProjectId,Plug_Pass,506c7567-5f50-4617-9373-2e6b69636164,v2.2*
G04 #@! TF.SameCoordinates,Original*
G04 #@! TF.FileFunction,Other,Fab,Top*
%FSLAX46Y46*%
G04 Gerber Fmt 4.6, Leading zero omitted, Abs format (unit mm)*
G04 Created by KiCad (PCBNEW (5.1.5)-3) date 2020-09-30 13:58:30*
%MOMM*%
%LPD*%
G04 APERTURE LIST*
%ADD10C,0.100000*%
%ADD11C,0.025000*%
%ADD12C,0.203200*%
%ADD13C,0.200000*%
%ADD14C,0.050000*%
%ADD15C,0.010000*%
%ADD16C,0.101600*%
%ADD17C,0.038608*%
%ADD18C,0.254000*%
%ADD19C,0.150000*%
G04 APERTURE END LIST*
D10*
G36*
X147424000Y-115547000D02*
G01*
X147274000Y-115547000D01*
X147274000Y-115847000D01*
X147424000Y-115847000D01*
X147424000Y-115547000D01*
G37*
G36*
X147874000Y-115547000D02*
G01*
X147724000Y-115547000D01*
X147724000Y-115847000D01*
X147874000Y-115847000D01*
X147874000Y-115547000D01*
G37*
D11*
X143240000Y-106309000D02*
X141240000Y-106309000D01*
X143240000Y-107559000D02*
X143240000Y-106309000D01*
X141240000Y-107559000D02*
X143240000Y-107559000D01*
X141240000Y-106309000D02*
X141240000Y-107559000D01*
X146169000Y-113788000D02*
X146169000Y-113288000D01*
X145169000Y-113788000D02*
X146169000Y-113788000D01*
X145169000Y-113288000D02*
X145169000Y-113788000D01*
X146169000Y-113288000D02*
X145169000Y-113288000D01*
D12*
X149352000Y-60198000D02*
X149352000Y-55372000D01*
X152908000Y-60198000D02*
X149352000Y-60198000D01*
X152908000Y-63754000D02*
X152908000Y-60198000D01*
X149352000Y-63754000D02*
X152908000Y-63754000D01*
X149352000Y-65786000D02*
X149352000Y-63754000D01*
X146558000Y-68580000D02*
X149352000Y-65786000D01*
X138938000Y-68580000D02*
X146558000Y-68580000D01*
X136144000Y-65786000D02*
X138938000Y-68580000D01*
X136144000Y-63754000D02*
X136144000Y-65786000D01*
X132588000Y-63754000D02*
X136144000Y-63754000D01*
X132588000Y-60198000D02*
X132588000Y-63754000D01*
X136144000Y-60198000D02*
X132588000Y-60198000D01*
X136144000Y-55372000D02*
X136144000Y-60198000D01*
X152089200Y-61822000D02*
G75*
G03X152089200Y-61822000I-915800J0D01*
G01*
X135384400Y-61976000D02*
G75*
G03X135384400Y-61976000I-915800J0D01*
G01*
X137414000Y-55372000D02*
X136144000Y-55372000D01*
X139700000Y-57658000D02*
X137414000Y-55372000D01*
X145796000Y-57658000D02*
X139700000Y-57658000D01*
X148082000Y-55372000D02*
X145796000Y-57658000D01*
X149352000Y-55372000D02*
X148082000Y-55372000D01*
D13*
X153142000Y-82880000D02*
X150642000Y-82880000D01*
X153142000Y-79680000D02*
X153142000Y-82880000D01*
X150642000Y-79680000D02*
X153142000Y-79680000D01*
X150642000Y-82880000D02*
X150642000Y-79680000D01*
D11*
X151261000Y-58539000D02*
X151761000Y-58539000D01*
X151261000Y-57539000D02*
X151261000Y-58539000D01*
X151761000Y-57539000D02*
X151261000Y-57539000D01*
X151761000Y-58539000D02*
X151761000Y-57539000D01*
D13*
X134696000Y-85994000D02*
X134696000Y-84694000D01*
X131496000Y-85994000D02*
X134696000Y-85994000D01*
X131496000Y-84694000D02*
X131496000Y-85994000D01*
X134696000Y-84694000D02*
X131496000Y-84694000D01*
D14*
X170337000Y-73305000D02*
X170337000Y-74015000D01*
X170547000Y-73305000D02*
X170337000Y-73305000D01*
X170547000Y-74015000D02*
X170547000Y-73305000D01*
X170337000Y-74015000D02*
X170547000Y-74015000D01*
D11*
X170324000Y-73292000D02*
X170324000Y-74027000D01*
X170559000Y-73292000D02*
X170324000Y-73292000D01*
X170559000Y-74027000D02*
X170559000Y-73292000D01*
X170324000Y-74027000D02*
X170559000Y-74027000D01*
X170312000Y-73280000D02*
X170312000Y-74040000D01*
X170572000Y-73280000D02*
X170312000Y-73280000D01*
X170572000Y-74040000D02*
X170572000Y-73280000D01*
X170312000Y-74040000D02*
X170572000Y-74040000D01*
X170142000Y-73260000D02*
X170142000Y-74060000D01*
X171742000Y-73260000D02*
X170142000Y-73260000D01*
X171742000Y-74060000D02*
X171742000Y-73260000D01*
X170142000Y-74060000D02*
X171742000Y-74060000D01*
D10*
X170362000Y-73330000D02*
X170362000Y-73990000D01*
X170522000Y-73330000D02*
X170362000Y-73330000D01*
X170522000Y-73990000D02*
X170522000Y-73330000D01*
X170362000Y-73990000D02*
X170522000Y-73990000D01*
D13*
X170412000Y-73380000D02*
X170412000Y-73940000D01*
X170472000Y-73380000D02*
X170412000Y-73380000D01*
X170472000Y-73940000D02*
X170472000Y-73380000D01*
X170412000Y-73940000D02*
X170472000Y-73940000D01*
D15*
X170302000Y-73270000D02*
X170302000Y-74050000D01*
X170582000Y-73270000D02*
X170302000Y-73270000D01*
X170582000Y-74050000D02*
X170582000Y-73270000D01*
X170302000Y-74050000D02*
X170582000Y-74050000D01*
X170297000Y-73265000D02*
X170297000Y-74055000D01*
X170587000Y-73265000D02*
X170297000Y-73265000D01*
X170587000Y-74055000D02*
X170587000Y-73265000D01*
X170297000Y-74055000D02*
X170587000Y-74055000D01*
D14*
X170337000Y-75591000D02*
X170337000Y-76301000D01*
X170547000Y-75591000D02*
X170337000Y-75591000D01*
X170547000Y-76301000D02*
X170547000Y-75591000D01*
X170337000Y-76301000D02*
X170547000Y-76301000D01*
D11*
X170324000Y-75578000D02*
X170324000Y-76313000D01*
X170559000Y-75578000D02*
X170324000Y-75578000D01*
X170559000Y-76313000D02*
X170559000Y-75578000D01*
X170324000Y-76313000D02*
X170559000Y-76313000D01*
X170312000Y-75566000D02*
X170312000Y-76326000D01*
X170572000Y-75566000D02*
X170312000Y-75566000D01*
X170572000Y-76326000D02*
X170572000Y-75566000D01*
X170312000Y-76326000D02*
X170572000Y-76326000D01*
X170142000Y-75546000D02*
X170142000Y-76346000D01*
X171742000Y-75546000D02*
X170142000Y-75546000D01*
X171742000Y-76346000D02*
X171742000Y-75546000D01*
X170142000Y-76346000D02*
X171742000Y-76346000D01*
D10*
X170362000Y-75616000D02*
X170362000Y-76276000D01*
X170522000Y-75616000D02*
X170362000Y-75616000D01*
X170522000Y-76276000D02*
X170522000Y-75616000D01*
X170362000Y-76276000D02*
X170522000Y-76276000D01*
D13*
X170412000Y-75666000D02*
X170412000Y-76226000D01*
X170472000Y-75666000D02*
X170412000Y-75666000D01*
X170472000Y-76226000D02*
X170472000Y-75666000D01*
X170412000Y-76226000D02*
X170472000Y-76226000D01*
D15*
X170302000Y-75556000D02*
X170302000Y-76336000D01*
X170582000Y-75556000D02*
X170302000Y-75556000D01*
X170582000Y-76336000D02*
X170582000Y-75556000D01*
X170302000Y-76336000D02*
X170582000Y-76336000D01*
X170297000Y-75551000D02*
X170297000Y-76341000D01*
X170587000Y-75551000D02*
X170297000Y-75551000D01*
X170587000Y-76341000D02*
X170587000Y-75551000D01*
X170297000Y-76341000D02*
X170587000Y-76341000D01*
D11*
X166632000Y-77220000D02*
X166632000Y-77720000D01*
X167632000Y-77220000D02*
X166632000Y-77220000D01*
X167632000Y-77720000D02*
X167632000Y-77220000D01*
X166632000Y-77720000D02*
X167632000Y-77720000D01*
X166632000Y-73918000D02*
X166632000Y-74418000D01*
X167632000Y-73918000D02*
X166632000Y-73918000D01*
X167632000Y-74418000D02*
X167632000Y-73918000D01*
X166632000Y-74418000D02*
X167632000Y-74418000D01*
X166632000Y-75696000D02*
X166632000Y-76196000D01*
X167632000Y-75696000D02*
X166632000Y-75696000D01*
X167632000Y-76196000D02*
X167632000Y-75696000D01*
X166632000Y-76196000D02*
X167632000Y-76196000D01*
X148090000Y-72648000D02*
X148090000Y-73148000D01*
X149090000Y-72648000D02*
X148090000Y-72648000D01*
X149090000Y-73148000D02*
X149090000Y-72648000D01*
X148090000Y-73148000D02*
X149090000Y-73148000D01*
X157234000Y-88650000D02*
X157234000Y-89150000D01*
X158234000Y-88650000D02*
X157234000Y-88650000D01*
X158234000Y-89150000D02*
X158234000Y-88650000D01*
X157234000Y-89150000D02*
X158234000Y-89150000D01*
X151380000Y-89416000D02*
X150880000Y-89416000D01*
X151380000Y-90416000D02*
X151380000Y-89416000D01*
X150880000Y-90416000D02*
X151380000Y-90416000D01*
X150880000Y-89416000D02*
X150880000Y-90416000D01*
X152662000Y-113288000D02*
X152662000Y-113788000D01*
X153662000Y-113288000D02*
X152662000Y-113288000D01*
X153662000Y-113788000D02*
X153662000Y-113288000D01*
X152662000Y-113788000D02*
X153662000Y-113788000D01*
X155444000Y-68842000D02*
X154944000Y-68842000D01*
X155444000Y-69842000D02*
X155444000Y-68842000D01*
X154944000Y-69842000D02*
X155444000Y-69842000D01*
X154944000Y-68842000D02*
X154944000Y-69842000D01*
X157984000Y-68842000D02*
X157484000Y-68842000D01*
X157984000Y-69842000D02*
X157984000Y-68842000D01*
X157484000Y-69842000D02*
X157984000Y-69842000D01*
X157484000Y-68842000D02*
X157484000Y-69842000D01*
D14*
X152751000Y-73253000D02*
X152751000Y-72543000D01*
X152541000Y-73253000D02*
X152751000Y-73253000D01*
X152541000Y-72543000D02*
X152541000Y-73253000D01*
X152751000Y-72543000D02*
X152541000Y-72543000D01*
D11*
X152764000Y-73266000D02*
X152764000Y-72531000D01*
X152529000Y-73266000D02*
X152764000Y-73266000D01*
X152529000Y-72531000D02*
X152529000Y-73266000D01*
X152764000Y-72531000D02*
X152529000Y-72531000D01*
X152776000Y-73278000D02*
X152776000Y-72518000D01*
X152516000Y-73278000D02*
X152776000Y-73278000D01*
X152516000Y-72518000D02*
X152516000Y-73278000D01*
X152776000Y-72518000D02*
X152516000Y-72518000D01*
X152946000Y-73298000D02*
X152946000Y-72498000D01*
X151346000Y-73298000D02*
X152946000Y-73298000D01*
X151346000Y-72498000D02*
X151346000Y-73298000D01*
X152946000Y-72498000D02*
X151346000Y-72498000D01*
D10*
X152726000Y-73228000D02*
X152726000Y-72568000D01*
X152566000Y-73228000D02*
X152726000Y-73228000D01*
X152566000Y-72568000D02*
X152566000Y-73228000D01*
X152726000Y-72568000D02*
X152566000Y-72568000D01*
D13*
X152676000Y-73178000D02*
X152676000Y-72618000D01*
X152616000Y-73178000D02*
X152676000Y-73178000D01*
X152616000Y-72618000D02*
X152616000Y-73178000D01*
X152676000Y-72618000D02*
X152616000Y-72618000D01*
D15*
X152786000Y-73288000D02*
X152786000Y-72508000D01*
X152506000Y-73288000D02*
X152786000Y-73288000D01*
X152506000Y-72508000D02*
X152506000Y-73288000D01*
X152786000Y-72508000D02*
X152506000Y-72508000D01*
X152791000Y-73293000D02*
X152791000Y-72503000D01*
X152501000Y-73293000D02*
X152791000Y-73293000D01*
X152501000Y-72503000D02*
X152501000Y-73293000D01*
X152791000Y-72503000D02*
X152501000Y-72503000D01*
D11*
X155565000Y-95996000D02*
X155565000Y-93996000D01*
X154315000Y-95996000D02*
X155565000Y-95996000D01*
X154315000Y-93996000D02*
X154315000Y-95996000D01*
X155565000Y-93996000D02*
X154315000Y-93996000D01*
X147183000Y-95996000D02*
X147183000Y-93996000D01*
X145933000Y-95996000D02*
X147183000Y-95996000D01*
X145933000Y-93996000D02*
X145933000Y-95996000D01*
X147183000Y-93996000D02*
X145933000Y-93996000D01*
X141849000Y-95996000D02*
X141849000Y-93996000D01*
X140599000Y-95996000D02*
X141849000Y-95996000D01*
X140599000Y-93996000D02*
X140599000Y-95996000D01*
X141849000Y-93996000D02*
X140599000Y-93996000D01*
X155057000Y-100822000D02*
X155057000Y-98822000D01*
X153807000Y-100822000D02*
X155057000Y-100822000D01*
X153807000Y-98822000D02*
X153807000Y-100822000D01*
X155057000Y-98822000D02*
X153807000Y-98822000D01*
D14*
X171547000Y-78587000D02*
X171547000Y-77877000D01*
X171337000Y-78587000D02*
X171547000Y-78587000D01*
X171337000Y-77877000D02*
X171337000Y-78587000D01*
X171547000Y-77877000D02*
X171337000Y-77877000D01*
D11*
X171560000Y-78600000D02*
X171560000Y-77865000D01*
X171325000Y-78600000D02*
X171560000Y-78600000D01*
X171325000Y-77865000D02*
X171325000Y-78600000D01*
X171560000Y-77865000D02*
X171325000Y-77865000D01*
X171572000Y-78612000D02*
X171572000Y-77852000D01*
X171312000Y-78612000D02*
X171572000Y-78612000D01*
X171312000Y-77852000D02*
X171312000Y-78612000D01*
X171572000Y-77852000D02*
X171312000Y-77852000D01*
X171742000Y-78632000D02*
X171742000Y-77832000D01*
X170142000Y-78632000D02*
X171742000Y-78632000D01*
X170142000Y-77832000D02*
X170142000Y-78632000D01*
X171742000Y-77832000D02*
X170142000Y-77832000D01*
D10*
X171522000Y-78562000D02*
X171522000Y-77902000D01*
X171362000Y-78562000D02*
X171522000Y-78562000D01*
X171362000Y-77902000D02*
X171362000Y-78562000D01*
X171522000Y-77902000D02*
X171362000Y-77902000D01*
D13*
X171472000Y-78512000D02*
X171472000Y-77952000D01*
X171412000Y-78512000D02*
X171472000Y-78512000D01*
X171412000Y-77952000D02*
X171412000Y-78512000D01*
X171472000Y-77952000D02*
X171412000Y-77952000D01*
D15*
X171582000Y-78622000D02*
X171582000Y-77842000D01*
X171302000Y-78622000D02*
X171582000Y-78622000D01*
X171302000Y-77842000D02*
X171302000Y-78622000D01*
X171582000Y-77842000D02*
X171302000Y-77842000D01*
X171587000Y-78627000D02*
X171587000Y-77837000D01*
X171297000Y-78627000D02*
X171587000Y-78627000D01*
X171297000Y-77837000D02*
X171297000Y-78627000D01*
X171587000Y-77837000D02*
X171297000Y-77837000D01*
D11*
X167898000Y-112784000D02*
X167898000Y-113784000D01*
X167898000Y-113784000D02*
X168398000Y-113784000D01*
X168398000Y-113784000D02*
X168398000Y-112784000D01*
X168398000Y-112784000D02*
X167898000Y-112784000D01*
D10*
X165236000Y-107070000D02*
X165236000Y-111370000D01*
X168461000Y-107070000D02*
X165236000Y-107070000D01*
X169536000Y-108145000D02*
X168461000Y-107070000D01*
X169536000Y-110295000D02*
X169536000Y-108145000D01*
X168461000Y-111370000D02*
X169536000Y-110295000D01*
X165236000Y-111370000D02*
X168461000Y-111370000D01*
D11*
X164092000Y-81284000D02*
X164092000Y-81784000D01*
X165092000Y-81284000D02*
X164092000Y-81284000D01*
X165092000Y-81784000D02*
X165092000Y-81284000D01*
X164092000Y-81784000D02*
X165092000Y-81784000D01*
X151392000Y-75696000D02*
X151392000Y-76196000D01*
X152392000Y-75696000D02*
X151392000Y-75696000D01*
X152392000Y-76196000D02*
X152392000Y-75696000D01*
X151392000Y-76196000D02*
X152392000Y-76196000D01*
D10*
X130946000Y-70730000D02*
X135246000Y-70730000D01*
X130946000Y-67505000D02*
X130946000Y-70730000D01*
X132021000Y-66430000D02*
X130946000Y-67505000D01*
X134171000Y-66430000D02*
X132021000Y-66430000D01*
X135246000Y-67505000D02*
X134171000Y-66430000D01*
X135246000Y-70730000D02*
X135246000Y-67505000D01*
D11*
X151078000Y-77070000D02*
X151078000Y-77870000D01*
X152678000Y-77070000D02*
X151078000Y-77070000D01*
X152678000Y-77870000D02*
X152678000Y-77070000D01*
X151078000Y-77870000D02*
X152678000Y-77870000D01*
X152706000Y-85744000D02*
X152706000Y-84944000D01*
X151106000Y-85744000D02*
X152706000Y-85744000D01*
X151106000Y-84944000D02*
X151106000Y-85744000D01*
X152706000Y-84944000D02*
X151106000Y-84944000D01*
X154992000Y-89300000D02*
X154992000Y-88500000D01*
X153392000Y-89300000D02*
X154992000Y-89300000D01*
X153392000Y-88500000D02*
X153392000Y-89300000D01*
X154992000Y-88500000D02*
X153392000Y-88500000D01*
X157080000Y-61012000D02*
X157880000Y-61012000D01*
X157080000Y-59412000D02*
X157080000Y-61012000D01*
X157880000Y-59412000D02*
X157080000Y-59412000D01*
X157880000Y-61012000D02*
X157880000Y-59412000D01*
X154794000Y-61012000D02*
X155594000Y-61012000D01*
X154794000Y-59412000D02*
X154794000Y-61012000D01*
X155594000Y-59412000D02*
X154794000Y-59412000D01*
X155594000Y-61012000D02*
X155594000Y-59412000D01*
X154992000Y-91332000D02*
X154992000Y-90532000D01*
X153392000Y-91332000D02*
X154992000Y-91332000D01*
X153392000Y-90532000D02*
X153392000Y-91332000D01*
X154992000Y-90532000D02*
X153392000Y-90532000D01*
X150476000Y-95810000D02*
X151276000Y-95810000D01*
X150476000Y-94210000D02*
X150476000Y-95810000D01*
X151276000Y-94210000D02*
X150476000Y-94210000D01*
X151276000Y-95810000D02*
X151276000Y-94210000D01*
X145688000Y-81482000D02*
X144888000Y-81482000D01*
X145688000Y-83082000D02*
X145688000Y-81482000D01*
X144888000Y-83082000D02*
X145688000Y-83082000D01*
X144888000Y-81482000D02*
X144888000Y-83082000D01*
X152508000Y-95810000D02*
X153308000Y-95810000D01*
X152508000Y-94210000D02*
X152508000Y-95810000D01*
X153308000Y-94210000D02*
X152508000Y-94210000D01*
X153308000Y-95810000D02*
X153308000Y-94210000D01*
X148860000Y-107559000D02*
X150860000Y-107559000D01*
X148860000Y-106309000D02*
X148860000Y-107559000D01*
X150860000Y-106309000D02*
X148860000Y-106309000D01*
X150860000Y-107559000D02*
X150860000Y-106309000D01*
X149614000Y-108716000D02*
X149614000Y-109216000D01*
X150614000Y-108716000D02*
X149614000Y-108716000D01*
X150614000Y-109216000D02*
X150614000Y-108716000D01*
X149614000Y-109216000D02*
X150614000Y-109216000D01*
X149725000Y-105025000D02*
X149725000Y-104525000D01*
X148725000Y-105025000D02*
X149725000Y-105025000D01*
X148725000Y-104525000D02*
X148725000Y-105025000D01*
X149725000Y-104525000D02*
X148725000Y-104525000D01*
X149173000Y-110471000D02*
X149173000Y-111271000D01*
X150773000Y-110471000D02*
X149173000Y-110471000D01*
X150773000Y-111271000D02*
X150773000Y-110471000D01*
X149173000Y-111271000D02*
X150773000Y-111271000D01*
X148987000Y-113655000D02*
X150987000Y-113655000D01*
X148987000Y-112405000D02*
X148987000Y-113655000D01*
X150987000Y-112405000D02*
X148987000Y-112405000D01*
X150987000Y-113655000D02*
X150987000Y-112405000D01*
X141105000Y-104525000D02*
X141105000Y-105025000D01*
X142105000Y-104525000D02*
X141105000Y-104525000D01*
X142105000Y-105025000D02*
X142105000Y-104525000D01*
X141105000Y-105025000D02*
X142105000Y-105025000D01*
X143054000Y-111271000D02*
X143054000Y-110471000D01*
X141454000Y-111271000D02*
X143054000Y-111271000D01*
X141454000Y-110471000D02*
X141454000Y-111271000D01*
X143054000Y-110471000D02*
X141454000Y-110471000D01*
X143240000Y-112405000D02*
X141240000Y-112405000D01*
X143240000Y-113655000D02*
X143240000Y-112405000D01*
X141240000Y-113655000D02*
X143240000Y-113655000D01*
X141240000Y-112405000D02*
X141240000Y-113655000D01*
X150768000Y-99008000D02*
X149968000Y-99008000D01*
X150768000Y-100608000D02*
X150768000Y-99008000D01*
X149968000Y-100608000D02*
X150768000Y-100608000D01*
X149968000Y-99008000D02*
X149968000Y-100608000D01*
X142740000Y-109216000D02*
X142740000Y-108716000D01*
X141740000Y-109216000D02*
X142740000Y-109216000D01*
X141740000Y-108716000D02*
X141740000Y-109216000D01*
X142740000Y-108716000D02*
X141740000Y-108716000D01*
X139244000Y-85744000D02*
X139244000Y-84944000D01*
X137644000Y-85744000D02*
X139244000Y-85744000D01*
X137644000Y-84944000D02*
X137644000Y-85744000D01*
X139244000Y-84944000D02*
X137644000Y-84944000D01*
X152800000Y-99008000D02*
X152000000Y-99008000D01*
X152800000Y-100608000D02*
X152800000Y-99008000D01*
X152000000Y-100608000D02*
X152800000Y-100608000D01*
X152000000Y-99008000D02*
X152000000Y-100608000D01*
X156064000Y-100636000D02*
X156864000Y-100636000D01*
X156064000Y-99036000D02*
X156064000Y-100636000D01*
X156864000Y-99036000D02*
X156064000Y-99036000D01*
X156864000Y-100636000D02*
X156864000Y-99036000D01*
X133298000Y-89008000D02*
X133298000Y-89808000D01*
X134898000Y-89008000D02*
X133298000Y-89008000D01*
X134898000Y-89808000D02*
X134898000Y-89008000D01*
X133298000Y-89808000D02*
X134898000Y-89808000D01*
X138228000Y-87776000D02*
X138228000Y-86976000D01*
X136628000Y-87776000D02*
X138228000Y-87776000D01*
X136628000Y-86976000D02*
X136628000Y-87776000D01*
X138228000Y-86976000D02*
X136628000Y-86976000D01*
X153039000Y-58539000D02*
X153539000Y-58539000D01*
X153039000Y-57539000D02*
X153039000Y-58539000D01*
X153539000Y-57539000D02*
X153039000Y-57539000D01*
X153539000Y-58539000D02*
X153539000Y-57539000D01*
X171950000Y-81784000D02*
X171950000Y-81284000D01*
X170950000Y-81784000D02*
X171950000Y-81784000D01*
X170950000Y-81284000D02*
X170950000Y-81784000D01*
X171950000Y-81284000D02*
X170950000Y-81284000D01*
D16*
X149848000Y-70342000D02*
G75*
G02X149848000Y-69942000I0J200000D01*
G01*
X149848000Y-69542000D02*
G75*
G02X149848000Y-69142000I0J200000D01*
G01*
X149848000Y-68742000D02*
G75*
G02X149848000Y-68342000I0J200000D01*
G01*
X149848000Y-70342000D02*
X149848000Y-70892000D01*
X149848000Y-69542000D02*
X149848000Y-69942000D01*
X149848000Y-68742000D02*
X149848000Y-69142000D01*
X149848000Y-67792000D02*
X149848000Y-68342000D01*
X148348000Y-68342000D02*
G75*
G02X148348000Y-68742000I0J-200000D01*
G01*
X148348000Y-69142000D02*
G75*
G02X148348000Y-69542000I0J-200000D01*
G01*
X148348000Y-69942000D02*
G75*
G02X148348000Y-70342000I0J-200000D01*
G01*
X149848000Y-70892000D02*
X148348000Y-70892000D01*
X148348000Y-67792000D02*
X149848000Y-67792000D01*
X148348000Y-68342000D02*
X148348000Y-67792000D01*
X148348000Y-69142000D02*
X148348000Y-68742000D01*
X148348000Y-69942000D02*
X148348000Y-69542000D01*
X148348000Y-70892000D02*
X148348000Y-70342000D01*
D10*
G36*
X151107000Y-115547000D02*
G01*
X150957000Y-115547000D01*
X150957000Y-115847000D01*
X151107000Y-115847000D01*
X151107000Y-115547000D01*
G37*
G36*
X151557000Y-115547000D02*
G01*
X151407000Y-115547000D01*
X151407000Y-115847000D01*
X151557000Y-115847000D01*
X151557000Y-115547000D01*
G37*
D13*
X146477000Y-118059000D02*
X146477000Y-121909000D01*
X152227000Y-118059000D02*
X146477000Y-118059000D01*
X152227000Y-121909000D02*
X152227000Y-118059000D01*
X146477000Y-121909000D02*
X152227000Y-121909000D01*
D10*
X141676000Y-73970000D02*
X141676000Y-80970000D01*
X134676000Y-80970000D02*
X141676000Y-80970000D01*
X134676000Y-74270000D02*
X134976000Y-73970000D01*
X134976000Y-73970000D02*
X141676000Y-73970000D01*
X134676000Y-74270000D02*
X134676000Y-80970000D01*
X170798000Y-83038000D02*
X170798000Y-93238000D01*
X170798000Y-93238000D02*
X165498000Y-93238000D01*
X165973000Y-83038000D02*
X165498000Y-83513000D01*
X165973000Y-83038000D02*
X170798000Y-83038000D01*
X165498000Y-83513000D02*
X165498000Y-93238000D01*
G36*
X157314000Y-63062000D02*
G01*
X157314000Y-63562000D01*
X157964000Y-63562000D01*
X157964000Y-63062000D01*
X157314000Y-63062000D01*
G37*
G36*
X157314000Y-64962000D02*
G01*
X157314000Y-65462000D01*
X157964000Y-65462000D01*
X157964000Y-64962000D01*
X157314000Y-64962000D01*
G37*
G36*
X154964000Y-64962000D02*
G01*
X154964000Y-65462000D01*
X155614000Y-65462000D01*
X155614000Y-64962000D01*
X154964000Y-64962000D01*
G37*
G36*
X154964000Y-64012000D02*
G01*
X154964000Y-64512000D01*
X155614000Y-64512000D01*
X155614000Y-64012000D01*
X154964000Y-64012000D01*
G37*
G36*
X154964000Y-63062000D02*
G01*
X154964000Y-63562000D01*
X155614000Y-63562000D01*
X155614000Y-63062000D01*
X154964000Y-63062000D01*
G37*
D12*
X157274400Y-62839600D02*
X157274400Y-65684400D01*
X155653600Y-62839600D02*
X157274400Y-62839600D01*
X155653600Y-65684400D02*
X155653600Y-62839600D01*
X157274400Y-65684400D02*
X155653600Y-65684400D01*
X146968000Y-85442000D02*
X141068000Y-85442000D01*
X146968000Y-91342000D02*
X146968000Y-85442000D01*
X141068000Y-91342000D02*
X146968000Y-91342000D01*
X141068000Y-91342000D02*
X141068000Y-85442000D01*
D10*
X170628000Y-70444000D02*
X169628000Y-71444000D01*
X170628000Y-61144000D02*
X170628000Y-70444000D01*
X163128000Y-61144000D02*
X170628000Y-61144000D01*
X163128000Y-71444000D02*
X163128000Y-61144000D01*
X169628000Y-71444000D02*
X163128000Y-71444000D01*
D11*
X165716000Y-114606000D02*
X166516000Y-114606000D01*
X165716000Y-113006000D02*
X165716000Y-114606000D01*
X166516000Y-113006000D02*
X165716000Y-113006000D01*
X166516000Y-114606000D02*
X166516000Y-113006000D01*
D17*
X146102671Y-114019614D02*
X145973978Y-113835766D01*
X145882054Y-114019614D02*
X145882054Y-113633534D01*
X146029132Y-113633534D01*
X146065901Y-113651919D01*
X146084286Y-113670303D01*
X146102671Y-113707073D01*
X146102671Y-113762227D01*
X146084286Y-113798997D01*
X146065901Y-113817381D01*
X146029132Y-113835766D01*
X145882054Y-113835766D01*
X146470366Y-114019614D02*
X146249749Y-114019614D01*
X146360058Y-114019614D02*
X146360058Y-113633534D01*
X146323288Y-113688688D01*
X146286519Y-113725458D01*
X146249749Y-113743842D01*
D18*
X152061761Y-81884761D02*
X152666523Y-81884761D01*
X151396523Y-82308095D02*
X152061761Y-81884761D01*
X151396523Y-81461428D01*
X152666523Y-80372857D02*
X152666523Y-81098571D01*
X152666523Y-80735714D02*
X151396523Y-80735714D01*
X151577952Y-80856666D01*
X151698904Y-80977619D01*
X151759380Y-81098571D01*
D17*
X150955846Y-58601364D02*
X150974231Y-58619749D01*
X150992616Y-58674903D01*
X150992616Y-58711673D01*
X150974231Y-58766827D01*
X150937461Y-58803597D01*
X150900692Y-58821981D01*
X150827153Y-58840366D01*
X150771999Y-58840366D01*
X150698460Y-58821981D01*
X150661690Y-58803597D01*
X150624921Y-58766827D01*
X150606536Y-58711673D01*
X150606536Y-58674903D01*
X150624921Y-58619749D01*
X150643305Y-58601364D01*
X150643305Y-58454286D02*
X150624921Y-58435901D01*
X150606536Y-58399132D01*
X150606536Y-58307208D01*
X150624921Y-58270439D01*
X150643305Y-58252054D01*
X150680075Y-58233669D01*
X150716844Y-58233669D01*
X150771999Y-58252054D01*
X150992616Y-58472671D01*
X150992616Y-58233669D01*
X150771999Y-58013052D02*
X150753614Y-58049821D01*
X150735229Y-58068206D01*
X150698460Y-58086591D01*
X150680075Y-58086591D01*
X150643305Y-58068206D01*
X150624921Y-58049821D01*
X150606536Y-58013052D01*
X150606536Y-57939513D01*
X150624921Y-57902743D01*
X150643305Y-57884359D01*
X150680075Y-57865974D01*
X150698460Y-57865974D01*
X150735229Y-57884359D01*
X150753614Y-57902743D01*
X150771999Y-57939513D01*
X150771999Y-58013052D01*
X150790383Y-58049821D01*
X150808768Y-58068206D01*
X150845538Y-58086591D01*
X150919077Y-58086591D01*
X150955846Y-58068206D01*
X150974231Y-58049821D01*
X150992616Y-58013052D01*
X150992616Y-57939513D01*
X150974231Y-57902743D01*
X150955846Y-57884359D01*
X150919077Y-57865974D01*
X150845538Y-57865974D01*
X150808768Y-57884359D01*
X150790383Y-57902743D01*
X150771999Y-57939513D01*
D18*
X132491238Y-85738761D02*
X132491238Y-86343523D01*
X132067904Y-85073523D02*
X132491238Y-85738761D01*
X132914571Y-85073523D01*
X133277428Y-85194476D02*
X133337904Y-85134000D01*
X133458857Y-85073523D01*
X133761238Y-85073523D01*
X133882190Y-85134000D01*
X133942666Y-85194476D01*
X134003142Y-85315428D01*
X134003142Y-85436380D01*
X133942666Y-85617809D01*
X133216952Y-86343523D01*
X134003142Y-86343523D01*
D17*
X157171635Y-88381616D02*
X157042941Y-88197768D01*
X156951018Y-88381616D02*
X156951018Y-87995536D01*
X157098096Y-87995536D01*
X157134865Y-88013921D01*
X157153250Y-88032305D01*
X157171635Y-88069075D01*
X157171635Y-88124229D01*
X157153250Y-88160999D01*
X157134865Y-88179383D01*
X157098096Y-88197768D01*
X156951018Y-88197768D01*
X157392252Y-88160999D02*
X157355482Y-88142614D01*
X157337098Y-88124229D01*
X157318713Y-88087460D01*
X157318713Y-88069075D01*
X157337098Y-88032305D01*
X157355482Y-88013921D01*
X157392252Y-87995536D01*
X157465791Y-87995536D01*
X157502560Y-88013921D01*
X157520945Y-88032305D01*
X157539330Y-88069075D01*
X157539330Y-88087460D01*
X157520945Y-88124229D01*
X157502560Y-88142614D01*
X157465791Y-88160999D01*
X157392252Y-88160999D01*
X157355482Y-88179383D01*
X157337098Y-88197768D01*
X157318713Y-88234538D01*
X157318713Y-88308077D01*
X157337098Y-88344846D01*
X157355482Y-88363231D01*
X157392252Y-88381616D01*
X157465791Y-88381616D01*
X157502560Y-88363231D01*
X157520945Y-88344846D01*
X157539330Y-88308077D01*
X157539330Y-88234538D01*
X157520945Y-88197768D01*
X157502560Y-88179383D01*
X157465791Y-88160999D01*
X151611614Y-89482328D02*
X151427766Y-89611021D01*
X151611614Y-89702945D02*
X151225534Y-89702945D01*
X151225534Y-89555867D01*
X151243919Y-89519098D01*
X151262303Y-89500713D01*
X151299073Y-89482328D01*
X151354227Y-89482328D01*
X151390997Y-89500713D01*
X151409381Y-89519098D01*
X151427766Y-89555867D01*
X151427766Y-89702945D01*
X151225534Y-89353635D02*
X151225534Y-89096248D01*
X151611614Y-89261711D01*
X152599635Y-113019616D02*
X152470941Y-112835768D01*
X152379018Y-113019616D02*
X152379018Y-112633536D01*
X152526096Y-112633536D01*
X152562865Y-112651921D01*
X152581250Y-112670305D01*
X152599635Y-112707075D01*
X152599635Y-112762229D01*
X152581250Y-112798999D01*
X152562865Y-112817383D01*
X152526096Y-112835768D01*
X152379018Y-112835768D01*
X152930560Y-112633536D02*
X152857021Y-112633536D01*
X152820252Y-112651921D01*
X152801867Y-112670305D01*
X152765098Y-112725460D01*
X152746713Y-112798999D01*
X152746713Y-112946077D01*
X152765098Y-112982846D01*
X152783482Y-113001231D01*
X152820252Y-113019616D01*
X152893791Y-113019616D01*
X152930560Y-113001231D01*
X152948945Y-112982846D01*
X152967330Y-112946077D01*
X152967330Y-112854153D01*
X152948945Y-112817383D01*
X152930560Y-112798999D01*
X152893791Y-112780614D01*
X152820252Y-112780614D01*
X152783482Y-112798999D01*
X152765098Y-112817383D01*
X152746713Y-112854153D01*
D18*
X166569571Y-109673571D02*
X166509095Y-109734047D01*
X166327666Y-109794523D01*
X166206714Y-109794523D01*
X166025285Y-109734047D01*
X165904333Y-109613095D01*
X165843857Y-109492142D01*
X165783380Y-109250238D01*
X165783380Y-109068809D01*
X165843857Y-108826904D01*
X165904333Y-108705952D01*
X166025285Y-108585000D01*
X166206714Y-108524523D01*
X166327666Y-108524523D01*
X166509095Y-108585000D01*
X166569571Y-108645476D01*
X166992904Y-108524523D02*
X167779095Y-108524523D01*
X167355761Y-109008333D01*
X167537190Y-109008333D01*
X167658142Y-109068809D01*
X167718619Y-109129285D01*
X167779095Y-109250238D01*
X167779095Y-109552619D01*
X167718619Y-109673571D01*
X167658142Y-109734047D01*
X167537190Y-109794523D01*
X167174333Y-109794523D01*
X167053380Y-109734047D01*
X166992904Y-109673571D01*
X168988619Y-109794523D02*
X168262904Y-109794523D01*
X168625761Y-109794523D02*
X168625761Y-108524523D01*
X168504809Y-108705952D01*
X168383857Y-108826904D01*
X168262904Y-108887380D01*
D17*
X164029635Y-80978846D02*
X164011250Y-80997231D01*
X163956096Y-81015616D01*
X163919326Y-81015616D01*
X163864172Y-80997231D01*
X163827402Y-80960461D01*
X163809018Y-80923692D01*
X163790633Y-80850153D01*
X163790633Y-80794999D01*
X163809018Y-80721460D01*
X163827402Y-80684690D01*
X163864172Y-80647921D01*
X163919326Y-80629536D01*
X163956096Y-80629536D01*
X164011250Y-80647921D01*
X164029635Y-80666305D01*
X164158328Y-80629536D02*
X164397330Y-80629536D01*
X164268637Y-80776614D01*
X164323791Y-80776614D01*
X164360560Y-80794999D01*
X164378945Y-80813383D01*
X164397330Y-80850153D01*
X164397330Y-80942077D01*
X164378945Y-80978846D01*
X164360560Y-80997231D01*
X164323791Y-81015616D01*
X164213482Y-81015616D01*
X164176713Y-80997231D01*
X164158328Y-80978846D01*
X164636332Y-80629536D02*
X164673101Y-80629536D01*
X164709871Y-80647921D01*
X164728256Y-80666305D01*
X164746640Y-80703075D01*
X164765025Y-80776614D01*
X164765025Y-80868538D01*
X164746640Y-80942077D01*
X164728256Y-80978846D01*
X164709871Y-80997231D01*
X164673101Y-81015616D01*
X164636332Y-81015616D01*
X164599562Y-80997231D01*
X164581178Y-80978846D01*
X164562793Y-80942077D01*
X164544408Y-80868538D01*
X164544408Y-80776614D01*
X164562793Y-80703075D01*
X164581178Y-80666305D01*
X164599562Y-80647921D01*
X164636332Y-80629536D01*
D18*
X133549571Y-69396428D02*
X133610047Y-69456904D01*
X133670523Y-69638333D01*
X133670523Y-69759285D01*
X133610047Y-69940714D01*
X133489095Y-70061666D01*
X133368142Y-70122142D01*
X133126238Y-70182619D01*
X132944809Y-70182619D01*
X132702904Y-70122142D01*
X132581952Y-70061666D01*
X132461000Y-69940714D01*
X132400523Y-69759285D01*
X132400523Y-69638333D01*
X132461000Y-69456904D01*
X132521476Y-69396428D01*
X132521476Y-68912619D02*
X132461000Y-68852142D01*
X132400523Y-68731190D01*
X132400523Y-68428809D01*
X132461000Y-68307857D01*
X132521476Y-68247380D01*
X132642428Y-68186904D01*
X132763380Y-68186904D01*
X132944809Y-68247380D01*
X133670523Y-68973095D01*
X133670523Y-68186904D01*
X132400523Y-67763571D02*
X132400523Y-66916904D01*
X133670523Y-67461190D01*
D17*
X149551635Y-108410846D02*
X149533250Y-108429231D01*
X149478096Y-108447616D01*
X149441326Y-108447616D01*
X149386172Y-108429231D01*
X149349402Y-108392461D01*
X149331018Y-108355692D01*
X149312633Y-108282153D01*
X149312633Y-108226999D01*
X149331018Y-108153460D01*
X149349402Y-108116690D01*
X149386172Y-108079921D01*
X149441326Y-108061536D01*
X149478096Y-108061536D01*
X149533250Y-108079921D01*
X149551635Y-108098305D01*
X149919330Y-108447616D02*
X149698713Y-108447616D01*
X149809021Y-108447616D02*
X149809021Y-108061536D01*
X149772252Y-108116690D01*
X149735482Y-108153460D01*
X149698713Y-108171844D01*
X150268640Y-108061536D02*
X150084793Y-108061536D01*
X150066408Y-108245383D01*
X150084793Y-108226999D01*
X150121562Y-108208614D01*
X150213486Y-108208614D01*
X150250256Y-108226999D01*
X150268640Y-108245383D01*
X150287025Y-108282153D01*
X150287025Y-108374077D01*
X150268640Y-108410846D01*
X150250256Y-108429231D01*
X150213486Y-108447616D01*
X150121562Y-108447616D01*
X150084793Y-108429231D01*
X150066408Y-108410846D01*
X149290976Y-105219844D02*
X149272591Y-105238229D01*
X149217437Y-105256614D01*
X149180667Y-105256614D01*
X149125513Y-105238229D01*
X149088743Y-105201459D01*
X149070359Y-105164690D01*
X149051974Y-105091151D01*
X149051974Y-105035997D01*
X149070359Y-104962458D01*
X149088743Y-104925688D01*
X149125513Y-104888919D01*
X149180667Y-104870534D01*
X149217437Y-104870534D01*
X149272591Y-104888919D01*
X149290976Y-104907303D01*
X149658671Y-105256614D02*
X149438054Y-105256614D01*
X149548362Y-105256614D02*
X149548362Y-104870534D01*
X149511593Y-104925688D01*
X149474823Y-104962458D01*
X149438054Y-104980842D01*
X149989597Y-104999227D02*
X149989597Y-105256614D01*
X149897673Y-104852149D02*
X149805749Y-105127920D01*
X150044751Y-105127920D01*
X141042635Y-104219846D02*
X141024250Y-104238231D01*
X140969096Y-104256616D01*
X140932326Y-104256616D01*
X140877172Y-104238231D01*
X140840402Y-104201461D01*
X140822018Y-104164692D01*
X140803633Y-104091153D01*
X140803633Y-104035999D01*
X140822018Y-103962460D01*
X140840402Y-103925690D01*
X140877172Y-103888921D01*
X140932326Y-103870536D01*
X140969096Y-103870536D01*
X141024250Y-103888921D01*
X141042635Y-103907305D01*
X141410330Y-104256616D02*
X141189713Y-104256616D01*
X141300021Y-104256616D02*
X141300021Y-103870536D01*
X141263252Y-103925690D01*
X141226482Y-103962460D01*
X141189713Y-103980844D01*
X141778025Y-104256616D02*
X141557408Y-104256616D01*
X141667717Y-104256616D02*
X141667717Y-103870536D01*
X141630947Y-103925690D01*
X141594178Y-103962460D01*
X141557408Y-103980844D01*
X142673671Y-109410844D02*
X142655286Y-109429229D01*
X142600132Y-109447614D01*
X142563362Y-109447614D01*
X142508208Y-109429229D01*
X142471439Y-109392459D01*
X142453054Y-109355690D01*
X142434669Y-109282151D01*
X142434669Y-109226997D01*
X142453054Y-109153458D01*
X142471439Y-109116688D01*
X142508208Y-109079919D01*
X142563362Y-109061534D01*
X142600132Y-109061534D01*
X142655286Y-109079919D01*
X142673671Y-109098303D01*
X143004597Y-109061534D02*
X142931058Y-109061534D01*
X142894288Y-109079919D01*
X142875903Y-109098303D01*
X142839134Y-109153458D01*
X142820749Y-109226997D01*
X142820749Y-109374075D01*
X142839134Y-109410844D01*
X142857519Y-109429229D01*
X142894288Y-109447614D01*
X142967827Y-109447614D01*
X143004597Y-109429229D01*
X143022981Y-109410844D01*
X143041366Y-109374075D01*
X143041366Y-109282151D01*
X143022981Y-109245381D01*
X143004597Y-109226997D01*
X142967827Y-109208612D01*
X142894288Y-109208612D01*
X142857519Y-109226997D01*
X142839134Y-109245381D01*
X142820749Y-109282151D01*
X152733846Y-58601364D02*
X152752231Y-58619749D01*
X152770616Y-58674903D01*
X152770616Y-58711673D01*
X152752231Y-58766827D01*
X152715461Y-58803597D01*
X152678692Y-58821981D01*
X152605153Y-58840366D01*
X152549999Y-58840366D01*
X152476460Y-58821981D01*
X152439690Y-58803597D01*
X152402921Y-58766827D01*
X152384536Y-58711673D01*
X152384536Y-58674903D01*
X152402921Y-58619749D01*
X152421305Y-58601364D01*
X152421305Y-58454286D02*
X152402921Y-58435901D01*
X152384536Y-58399132D01*
X152384536Y-58307208D01*
X152402921Y-58270439D01*
X152421305Y-58252054D01*
X152458075Y-58233669D01*
X152494844Y-58233669D01*
X152549999Y-58252054D01*
X152770616Y-58472671D01*
X152770616Y-58233669D01*
X152384536Y-57902743D02*
X152384536Y-57976282D01*
X152402921Y-58013052D01*
X152421305Y-58031437D01*
X152476460Y-58068206D01*
X152549999Y-58086591D01*
X152697077Y-58086591D01*
X152733846Y-58068206D01*
X152752231Y-58049821D01*
X152770616Y-58013052D01*
X152770616Y-57939513D01*
X152752231Y-57902743D01*
X152733846Y-57884359D01*
X152697077Y-57865974D01*
X152605153Y-57865974D01*
X152568383Y-57884359D01*
X152549999Y-57902743D01*
X152531614Y-57939513D01*
X152531614Y-58013052D01*
X152549999Y-58049821D01*
X152568383Y-58068206D01*
X152605153Y-58086591D01*
X171515976Y-81978844D02*
X171497591Y-81997229D01*
X171442437Y-82015614D01*
X171405667Y-82015614D01*
X171350513Y-81997229D01*
X171313743Y-81960459D01*
X171295359Y-81923690D01*
X171276974Y-81850151D01*
X171276974Y-81794997D01*
X171295359Y-81721458D01*
X171313743Y-81684688D01*
X171350513Y-81647919D01*
X171405667Y-81629534D01*
X171442437Y-81629534D01*
X171497591Y-81647919D01*
X171515976Y-81666303D01*
X171644669Y-81629534D02*
X171883671Y-81629534D01*
X171754978Y-81776612D01*
X171810132Y-81776612D01*
X171846901Y-81794997D01*
X171865286Y-81813381D01*
X171883671Y-81850151D01*
X171883671Y-81942075D01*
X171865286Y-81978844D01*
X171846901Y-81997229D01*
X171810132Y-82015614D01*
X171699823Y-82015614D01*
X171663054Y-81997229D01*
X171644669Y-81978844D01*
X172030749Y-81666303D02*
X172049134Y-81647919D01*
X172085903Y-81629534D01*
X172177827Y-81629534D01*
X172214597Y-81647919D01*
X172232981Y-81666303D01*
X172251366Y-81703073D01*
X172251366Y-81739842D01*
X172232981Y-81794997D01*
X172012364Y-82015614D01*
X172251366Y-82015614D01*
D18*
X148928666Y-118938523D02*
X148928666Y-119845666D01*
X148868190Y-120027095D01*
X148747238Y-120148047D01*
X148565809Y-120208523D01*
X148444857Y-120208523D01*
X149472952Y-119059476D02*
X149533428Y-118999000D01*
X149654380Y-118938523D01*
X149956761Y-118938523D01*
X150077714Y-118999000D01*
X150138190Y-119059476D01*
X150198666Y-119180428D01*
X150198666Y-119301380D01*
X150138190Y-119482809D01*
X149412476Y-120208523D01*
X150198666Y-120208523D01*
D19*
X137199809Y-77922380D02*
X137199809Y-76922380D01*
X138247428Y-77827142D02*
X138199809Y-77874761D01*
X138056952Y-77922380D01*
X137961714Y-77922380D01*
X137818857Y-77874761D01*
X137723619Y-77779523D01*
X137676000Y-77684285D01*
X137628380Y-77493809D01*
X137628380Y-77350952D01*
X137676000Y-77160476D01*
X137723619Y-77065238D01*
X137818857Y-76970000D01*
X137961714Y-76922380D01*
X138056952Y-76922380D01*
X138199809Y-76970000D01*
X138247428Y-77017619D01*
X139152190Y-76922380D02*
X138676000Y-76922380D01*
X138628380Y-77398571D01*
X138676000Y-77350952D01*
X138771238Y-77303333D01*
X139009333Y-77303333D01*
X139104571Y-77350952D01*
X139152190Y-77398571D01*
X139199809Y-77493809D01*
X139199809Y-77731904D01*
X139152190Y-77827142D01*
X139104571Y-77874761D01*
X139009333Y-77922380D01*
X138771238Y-77922380D01*
X138676000Y-77874761D01*
X138628380Y-77827142D01*
X168600380Y-89114190D02*
X167600380Y-89114190D01*
X168505142Y-88066571D02*
X168552761Y-88114190D01*
X168600380Y-88257047D01*
X168600380Y-88352285D01*
X168552761Y-88495142D01*
X168457523Y-88590380D01*
X168362285Y-88638000D01*
X168171809Y-88685619D01*
X168028952Y-88685619D01*
X167838476Y-88638000D01*
X167743238Y-88590380D01*
X167648000Y-88495142D01*
X167600380Y-88352285D01*
X167600380Y-88257047D01*
X167648000Y-88114190D01*
X167695619Y-88066571D01*
X167933714Y-87209428D02*
X168600380Y-87209428D01*
X167552761Y-87447523D02*
X168267047Y-87685619D01*
X168267047Y-87066571D01*
X165901809Y-66746380D02*
X165901809Y-65746380D01*
X166949428Y-66651142D02*
X166901809Y-66698761D01*
X166758952Y-66746380D01*
X166663714Y-66746380D01*
X166520857Y-66698761D01*
X166425619Y-66603523D01*
X166378000Y-66508285D01*
X166330380Y-66317809D01*
X166330380Y-66174952D01*
X166378000Y-65984476D01*
X166425619Y-65889238D01*
X166520857Y-65794000D01*
X166663714Y-65746380D01*
X166758952Y-65746380D01*
X166901809Y-65794000D01*
X166949428Y-65841619D01*
X167901809Y-66746380D02*
X167330380Y-66746380D01*
X167616095Y-66746380D02*
X167616095Y-65746380D01*
X167520857Y-65889238D01*
X167425619Y-65984476D01*
X167330380Y-66032095D01*
M02*
