M48
; DRILL file {KiCad (5.1.5)-3} date 2020-05-28 10:53:58 AM
; FORMAT={-:-/ absolute / inch / decimal}
; #@! TF.CreationDate,2020-05-28T10:53:58-07:00
; #@! TF.GenerationSoftware,Kicad,Pcbnew,(5.1.5)-3
FMAT,2
INCH
T1C0.0315
T2C0.0394
T3C0.0400
T4C0.0701
%
G90
G05
T1
X3.4014Y-3.1687
X3.4014Y-3.7687
X3.5014Y-3.1687
X3.5014Y-3.7687
X3.6014Y-3.1687
X3.6014Y-3.7687
X3.7014Y-3.1687
X3.7014Y-3.7687
X3.8014Y-3.1687
X3.8014Y-3.7687
X3.9014Y-3.1687
X3.9014Y-3.7687
X4.0014Y-3.1687
X4.0014Y-3.7687
X4.1014Y-3.1687
X4.1014Y-3.7687
X4.2014Y-3.1687
X4.2014Y-3.7687
X4.3014Y-3.1687
X4.3014Y-3.7687
X4.4014Y-3.1687
X4.4014Y-3.7687
X4.5014Y-3.1687
X4.5014Y-3.7687
X4.6014Y-3.1687
X4.6014Y-3.7687
X4.7014Y-3.1687
X4.7014Y-3.7687
X4.8014Y-3.1687
X4.8014Y-3.7687
T2
X3.8555Y-4.0687
X3.9555Y-4.0687
X4.0555Y-4.0687
X4.1555Y-4.0687
X4.2555Y-4.0687
X4.3555Y-4.0687
X4.4555Y-4.0687
X4.5555Y-4.0687
X4.7436Y-2.4119
X4.7436Y-2.5119
X4.7436Y-2.6119
X4.7436Y-2.7119
X4.7436Y-2.8119
X4.7436Y-2.9119
T3
X4.8Y-4.06
X4.8Y-4.16
X4.8Y-4.26
X4.8Y-4.36
X4.9Y-4.06
X4.9Y-4.16
X4.9Y-4.26
X4.9Y-4.36
T4
X3.3014Y-3.1687
X3.3014Y-3.7687
X4.9014Y-3.1687
X4.9014Y-3.7687
T0
M30
