G04 #@! TF.GenerationSoftware,KiCad,Pcbnew,(5.1.5)-3*
G04 #@! TF.CreationDate,2020-05-07T10:05:27-07:00*
G04 #@! TF.ProjectId,Plug_Pass_AC_shield,506c7567-5f50-4617-9373-5f41435f7368,rev?*
G04 #@! TF.SameCoordinates,Original*
G04 #@! TF.FileFunction,Copper,L2,Bot*
G04 #@! TF.FilePolarity,Positive*
%FSLAX46Y46*%
G04 Gerber Fmt 4.6, Leading zero omitted, Abs format (unit mm)*
G04 Created by KiCad (PCBNEW (5.1.5)-3) date 2020-05-07 10:05:27*
%MOMM*%
%LPD*%
G04 APERTURE LIST*
%ADD10C,3.000000*%
%ADD11R,3.000000X3.000000*%
%ADD12C,2.500000*%
%ADD13R,3.500000X3.500000*%
%ADD14C,3.700000*%
%ADD15O,1.727200X1.727200*%
%ADD16R,1.727200X1.727200*%
%ADD17C,0.508000*%
%ADD18C,0.254000*%
G04 APERTURE END LIST*
D10*
X214645240Y-67657580D03*
D11*
X208295240Y-77157580D03*
D12*
X208045240Y-114447320D03*
X208045240Y-124607320D03*
D13*
X195345240Y-110637320D03*
D14*
X192805240Y-128417320D03*
X185185240Y-128417320D03*
D11*
X192786000Y-101386640D03*
D10*
X190036000Y-62886640D03*
X182036000Y-101386640D03*
X182036000Y-62886640D03*
D15*
X213934040Y-87403940D03*
X211394040Y-87403940D03*
X213934040Y-89943940D03*
X211394040Y-89943940D03*
X213934040Y-92483940D03*
X211394040Y-92483940D03*
X213934040Y-95023940D03*
D16*
X211394040Y-95023940D03*
D17*
X190036000Y-62886640D02*
X190036000Y-65090860D01*
X189999620Y-69770834D02*
X189999620Y-68407280D01*
X210172726Y-89943940D02*
X189999620Y-69770834D01*
X211394040Y-89943940D02*
X210172726Y-89943940D01*
X189999620Y-68407280D02*
X190036000Y-65090860D01*
D18*
G36*
X217792301Y-141592300D02*
G01*
X178447700Y-141592300D01*
X178447700Y-138205296D01*
X179328539Y-138205296D01*
X179328539Y-138654704D01*
X179416214Y-139095478D01*
X179588196Y-139510677D01*
X179837874Y-139884347D01*
X180155653Y-140202126D01*
X180529323Y-140451804D01*
X180944522Y-140623786D01*
X181385296Y-140711461D01*
X181834704Y-140711461D01*
X182275478Y-140623786D01*
X182690677Y-140451804D01*
X183064347Y-140202126D01*
X183382126Y-139884347D01*
X183631804Y-139510677D01*
X183803786Y-139095478D01*
X183891461Y-138654704D01*
X183891461Y-138205296D01*
X212348539Y-138205296D01*
X212348539Y-138654704D01*
X212436214Y-139095478D01*
X212608196Y-139510677D01*
X212857874Y-139884347D01*
X213175653Y-140202126D01*
X213549323Y-140451804D01*
X213964522Y-140623786D01*
X214405296Y-140711461D01*
X214854704Y-140711461D01*
X215295478Y-140623786D01*
X215710677Y-140451804D01*
X216084347Y-140202126D01*
X216402126Y-139884347D01*
X216651804Y-139510677D01*
X216823786Y-139095478D01*
X216911461Y-138654704D01*
X216911461Y-138205296D01*
X216823786Y-137764522D01*
X216651804Y-137349323D01*
X216402126Y-136975653D01*
X216084347Y-136657874D01*
X215710677Y-136408196D01*
X215295478Y-136236214D01*
X214854704Y-136148539D01*
X214405296Y-136148539D01*
X213964522Y-136236214D01*
X213549323Y-136408196D01*
X213175653Y-136657874D01*
X212857874Y-136975653D01*
X212608196Y-137349323D01*
X212436214Y-137764522D01*
X212348539Y-138205296D01*
X183891461Y-138205296D01*
X183803786Y-137764522D01*
X183631804Y-137349323D01*
X183382126Y-136975653D01*
X183064347Y-136657874D01*
X182690677Y-136408196D01*
X182275478Y-136236214D01*
X181834704Y-136148539D01*
X181385296Y-136148539D01*
X180944522Y-136236214D01*
X180529323Y-136408196D01*
X180155653Y-136657874D01*
X179837874Y-136975653D01*
X179588196Y-137349323D01*
X179416214Y-137764522D01*
X179328539Y-138205296D01*
X178447700Y-138205296D01*
X178447700Y-128172569D01*
X182700240Y-128172569D01*
X182700240Y-128662071D01*
X182795737Y-129142168D01*
X182983061Y-129594409D01*
X183255014Y-130001415D01*
X183601145Y-130347546D01*
X184008151Y-130619499D01*
X184460392Y-130806823D01*
X184940489Y-130902320D01*
X185429991Y-130902320D01*
X185910088Y-130806823D01*
X186362329Y-130619499D01*
X186769335Y-130347546D01*
X187115466Y-130001415D01*
X187387419Y-129594409D01*
X187574743Y-129142168D01*
X187670240Y-128662071D01*
X187670240Y-128172569D01*
X190320240Y-128172569D01*
X190320240Y-128662071D01*
X190415737Y-129142168D01*
X190603061Y-129594409D01*
X190875014Y-130001415D01*
X191221145Y-130347546D01*
X191628151Y-130619499D01*
X192080392Y-130806823D01*
X192560489Y-130902320D01*
X193049991Y-130902320D01*
X193530088Y-130806823D01*
X193982329Y-130619499D01*
X194389335Y-130347546D01*
X194735466Y-130001415D01*
X195007419Y-129594409D01*
X195194743Y-129142168D01*
X195290240Y-128662071D01*
X195290240Y-128172569D01*
X195194743Y-127692472D01*
X195007419Y-127240231D01*
X194735466Y-126833225D01*
X194389335Y-126487094D01*
X193982329Y-126215141D01*
X193530088Y-126027817D01*
X193049991Y-125932320D01*
X192560489Y-125932320D01*
X192080392Y-126027817D01*
X191628151Y-126215141D01*
X191221145Y-126487094D01*
X190875014Y-126833225D01*
X190603061Y-127240231D01*
X190415737Y-127692472D01*
X190320240Y-128172569D01*
X187670240Y-128172569D01*
X187574743Y-127692472D01*
X187387419Y-127240231D01*
X187115466Y-126833225D01*
X186769335Y-126487094D01*
X186362329Y-126215141D01*
X185910088Y-126027817D01*
X185429991Y-125932320D01*
X184940489Y-125932320D01*
X184460392Y-126027817D01*
X184008151Y-126215141D01*
X183601145Y-126487094D01*
X183255014Y-126833225D01*
X182983061Y-127240231D01*
X182795737Y-127692472D01*
X182700240Y-128172569D01*
X178447700Y-128172569D01*
X178447700Y-125920925D01*
X206911240Y-125920925D01*
X207037154Y-126210897D01*
X207369366Y-126376753D01*
X207727552Y-126474610D01*
X208097946Y-126500709D01*
X208466315Y-126454045D01*
X208818502Y-126336414D01*
X209053326Y-126210897D01*
X209179240Y-125920925D01*
X208045240Y-124786925D01*
X206911240Y-125920925D01*
X178447700Y-125920925D01*
X178447700Y-124660026D01*
X206151851Y-124660026D01*
X206198515Y-125028395D01*
X206316146Y-125380582D01*
X206441663Y-125615406D01*
X206731635Y-125741320D01*
X207865635Y-124607320D01*
X208224845Y-124607320D01*
X209358845Y-125741320D01*
X209648817Y-125615406D01*
X209814673Y-125283194D01*
X209912530Y-124925008D01*
X209938629Y-124554614D01*
X209891965Y-124186245D01*
X209774334Y-123834058D01*
X209648817Y-123599234D01*
X209358845Y-123473320D01*
X208224845Y-124607320D01*
X207865635Y-124607320D01*
X206731635Y-123473320D01*
X206441663Y-123599234D01*
X206275807Y-123931446D01*
X206177950Y-124289632D01*
X206151851Y-124660026D01*
X178447700Y-124660026D01*
X178447700Y-123293715D01*
X206911240Y-123293715D01*
X208045240Y-124427715D01*
X209179240Y-123293715D01*
X209053326Y-123003743D01*
X208721114Y-122837887D01*
X208362928Y-122740030D01*
X207992534Y-122713931D01*
X207624165Y-122760595D01*
X207271978Y-122878226D01*
X207037154Y-123003743D01*
X206911240Y-123293715D01*
X178447700Y-123293715D01*
X178447700Y-114261664D01*
X206160240Y-114261664D01*
X206160240Y-114632976D01*
X206232679Y-114997154D01*
X206374774Y-115340202D01*
X206581065Y-115648938D01*
X206843622Y-115911495D01*
X207152358Y-116117786D01*
X207495406Y-116259881D01*
X207859584Y-116332320D01*
X208230896Y-116332320D01*
X208595074Y-116259881D01*
X208938122Y-116117786D01*
X209246858Y-115911495D01*
X209509415Y-115648938D01*
X209715706Y-115340202D01*
X209857801Y-114997154D01*
X209930240Y-114632976D01*
X209930240Y-114261664D01*
X209857801Y-113897486D01*
X209715706Y-113554438D01*
X209509415Y-113245702D01*
X209246858Y-112983145D01*
X208938122Y-112776854D01*
X208595074Y-112634759D01*
X208230896Y-112562320D01*
X207859584Y-112562320D01*
X207495406Y-112634759D01*
X207152358Y-112776854D01*
X206843622Y-112983145D01*
X206581065Y-113245702D01*
X206374774Y-113554438D01*
X206232679Y-113897486D01*
X206160240Y-114261664D01*
X178447700Y-114261664D01*
X178447700Y-108887320D01*
X192957168Y-108887320D01*
X192957168Y-112387320D01*
X192969428Y-112511802D01*
X193005738Y-112631500D01*
X193064703Y-112741814D01*
X193144055Y-112838505D01*
X193240746Y-112917857D01*
X193351060Y-112976822D01*
X193470758Y-113013132D01*
X193595240Y-113025392D01*
X197095240Y-113025392D01*
X197219722Y-113013132D01*
X197339420Y-112976822D01*
X197449734Y-112917857D01*
X197546425Y-112838505D01*
X197625777Y-112741814D01*
X197684742Y-112631500D01*
X197721052Y-112511802D01*
X197733312Y-112387320D01*
X197733312Y-108887320D01*
X197721052Y-108762838D01*
X197684742Y-108643140D01*
X197625777Y-108532826D01*
X197546425Y-108436135D01*
X197449734Y-108356783D01*
X197339420Y-108297818D01*
X197219722Y-108261508D01*
X197095240Y-108249248D01*
X193595240Y-108249248D01*
X193470758Y-108261508D01*
X193351060Y-108297818D01*
X193240746Y-108356783D01*
X193144055Y-108436135D01*
X193064703Y-108532826D01*
X193005738Y-108643140D01*
X192969428Y-108762838D01*
X192957168Y-108887320D01*
X178447700Y-108887320D01*
X178447700Y-101176361D01*
X179901000Y-101176361D01*
X179901000Y-101596919D01*
X179983047Y-102009396D01*
X180143988Y-102397942D01*
X180377637Y-102747623D01*
X180675017Y-103045003D01*
X181024698Y-103278652D01*
X181413244Y-103439593D01*
X181825721Y-103521640D01*
X182246279Y-103521640D01*
X182658756Y-103439593D01*
X183047302Y-103278652D01*
X183396983Y-103045003D01*
X183694363Y-102747623D01*
X183928012Y-102397942D01*
X184088953Y-102009396D01*
X184171000Y-101596919D01*
X184171000Y-101176361D01*
X184088953Y-100763884D01*
X183928012Y-100375338D01*
X183694363Y-100025657D01*
X183555346Y-99886640D01*
X190647928Y-99886640D01*
X190647928Y-102886640D01*
X190660188Y-103011122D01*
X190696498Y-103130820D01*
X190755463Y-103241134D01*
X190834815Y-103337825D01*
X190931506Y-103417177D01*
X191041820Y-103476142D01*
X191161518Y-103512452D01*
X191286000Y-103524712D01*
X194286000Y-103524712D01*
X194410482Y-103512452D01*
X194530180Y-103476142D01*
X194640494Y-103417177D01*
X194737185Y-103337825D01*
X194816537Y-103241134D01*
X194875502Y-103130820D01*
X194911812Y-103011122D01*
X194924072Y-102886640D01*
X194924072Y-99886640D01*
X194911812Y-99762158D01*
X194875502Y-99642460D01*
X194816537Y-99532146D01*
X194737185Y-99435455D01*
X194640494Y-99356103D01*
X194530180Y-99297138D01*
X194410482Y-99260828D01*
X194286000Y-99248568D01*
X191286000Y-99248568D01*
X191161518Y-99260828D01*
X191041820Y-99297138D01*
X190931506Y-99356103D01*
X190834815Y-99435455D01*
X190755463Y-99532146D01*
X190696498Y-99642460D01*
X190660188Y-99762158D01*
X190647928Y-99886640D01*
X183555346Y-99886640D01*
X183396983Y-99728277D01*
X183047302Y-99494628D01*
X182658756Y-99333687D01*
X182246279Y-99251640D01*
X181825721Y-99251640D01*
X181413244Y-99333687D01*
X181024698Y-99494628D01*
X180675017Y-99728277D01*
X180377637Y-100025657D01*
X180143988Y-100375338D01*
X179983047Y-100763884D01*
X179901000Y-101176361D01*
X178447700Y-101176361D01*
X178447700Y-64378293D01*
X180723952Y-64378293D01*
X180879962Y-64693854D01*
X181254745Y-64884660D01*
X181659551Y-64998684D01*
X182078824Y-65031542D01*
X182496451Y-64981974D01*
X182896383Y-64851883D01*
X183192038Y-64693854D01*
X183348048Y-64378293D01*
X182036000Y-63066245D01*
X180723952Y-64378293D01*
X178447700Y-64378293D01*
X178447700Y-62929464D01*
X179891098Y-62929464D01*
X179940666Y-63347091D01*
X180070757Y-63747023D01*
X180228786Y-64042678D01*
X180544347Y-64198688D01*
X181856395Y-62886640D01*
X182215605Y-62886640D01*
X183527653Y-64198688D01*
X183843214Y-64042678D01*
X184034020Y-63667895D01*
X184148044Y-63263089D01*
X184180902Y-62843816D01*
X184161027Y-62676361D01*
X187901000Y-62676361D01*
X187901000Y-63096919D01*
X187983047Y-63509396D01*
X188143988Y-63897942D01*
X188377637Y-64247623D01*
X188675017Y-64545003D01*
X189024698Y-64778652D01*
X189147001Y-64829311D01*
X189147001Y-65085943D01*
X189111099Y-68358757D01*
X189110621Y-68363613D01*
X189110621Y-68402360D01*
X189110195Y-68441192D01*
X189110621Y-68446064D01*
X189110620Y-69727174D01*
X189106320Y-69770834D01*
X189110620Y-69814494D01*
X189110620Y-69814500D01*
X189123484Y-69945107D01*
X189174317Y-70112684D01*
X189256867Y-70267124D01*
X189367961Y-70402493D01*
X189401884Y-70430333D01*
X209513232Y-90541682D01*
X209541067Y-90575599D01*
X209676435Y-90686693D01*
X209830875Y-90769243D01*
X209896784Y-90789236D01*
X209998450Y-90820076D01*
X210031650Y-90823346D01*
X210129059Y-90832940D01*
X210129065Y-90832940D01*
X210172725Y-90837240D01*
X210187594Y-90835776D01*
X210230001Y-90899242D01*
X210438738Y-91107979D01*
X210597321Y-91213940D01*
X210438738Y-91319901D01*
X210230001Y-91528638D01*
X210065998Y-91774087D01*
X209953030Y-92046815D01*
X209895440Y-92336341D01*
X209895440Y-92631539D01*
X209953030Y-92921065D01*
X210065998Y-93193793D01*
X210230001Y-93439242D01*
X210344063Y-93553304D01*
X210286260Y-93570838D01*
X210175946Y-93629803D01*
X210079255Y-93709155D01*
X209999903Y-93805846D01*
X209940938Y-93916160D01*
X209904628Y-94035858D01*
X209892368Y-94160340D01*
X209892368Y-95887540D01*
X209904628Y-96012022D01*
X209940938Y-96131720D01*
X209999903Y-96242034D01*
X210079255Y-96338725D01*
X210175946Y-96418077D01*
X210286260Y-96477042D01*
X210405958Y-96513352D01*
X210530440Y-96525612D01*
X212257640Y-96525612D01*
X212382122Y-96513352D01*
X212501820Y-96477042D01*
X212612134Y-96418077D01*
X212708825Y-96338725D01*
X212788177Y-96242034D01*
X212847142Y-96131720D01*
X212864676Y-96073917D01*
X212978738Y-96187979D01*
X213224187Y-96351982D01*
X213496915Y-96464950D01*
X213786441Y-96522540D01*
X214081639Y-96522540D01*
X214371165Y-96464950D01*
X214643893Y-96351982D01*
X214889342Y-96187979D01*
X215098079Y-95979242D01*
X215262082Y-95733793D01*
X215375050Y-95461065D01*
X215432640Y-95171539D01*
X215432640Y-94876341D01*
X215375050Y-94586815D01*
X215262082Y-94314087D01*
X215098079Y-94068638D01*
X214889342Y-93859901D01*
X214730759Y-93753940D01*
X214889342Y-93647979D01*
X215098079Y-93439242D01*
X215262082Y-93193793D01*
X215375050Y-92921065D01*
X215432640Y-92631539D01*
X215432640Y-92336341D01*
X215375050Y-92046815D01*
X215262082Y-91774087D01*
X215098079Y-91528638D01*
X214889342Y-91319901D01*
X214730759Y-91213940D01*
X214889342Y-91107979D01*
X215098079Y-90899242D01*
X215262082Y-90653793D01*
X215375050Y-90381065D01*
X215432640Y-90091539D01*
X215432640Y-89796341D01*
X215375050Y-89506815D01*
X215262082Y-89234087D01*
X215098079Y-88988638D01*
X214889342Y-88779901D01*
X214730759Y-88673940D01*
X214889342Y-88567979D01*
X215098079Y-88359242D01*
X215262082Y-88113793D01*
X215375050Y-87841065D01*
X215432640Y-87551539D01*
X215432640Y-87256341D01*
X215375050Y-86966815D01*
X215262082Y-86694087D01*
X215098079Y-86448638D01*
X214889342Y-86239901D01*
X214643893Y-86075898D01*
X214371165Y-85962930D01*
X214081639Y-85905340D01*
X213786441Y-85905340D01*
X213496915Y-85962930D01*
X213224187Y-86075898D01*
X212978738Y-86239901D01*
X212770001Y-86448638D01*
X212662348Y-86609753D01*
X212500894Y-86393647D01*
X212282528Y-86197123D01*
X212030018Y-86046976D01*
X211753067Y-85948977D01*
X211521040Y-86069476D01*
X211521040Y-87276940D01*
X211541040Y-87276940D01*
X211541040Y-87530940D01*
X211521040Y-87530940D01*
X211521040Y-87550940D01*
X211267040Y-87550940D01*
X211267040Y-87530940D01*
X210060223Y-87530940D01*
X209939082Y-87762966D01*
X209984818Y-87913754D01*
X210111356Y-88178884D01*
X210287186Y-88414233D01*
X210505552Y-88610757D01*
X210604143Y-88669381D01*
X210438738Y-88779901D01*
X210352330Y-88866309D01*
X208530935Y-87044914D01*
X209939082Y-87044914D01*
X210060223Y-87276940D01*
X211267040Y-87276940D01*
X211267040Y-86069476D01*
X211035013Y-85948977D01*
X210758062Y-86046976D01*
X210505552Y-86197123D01*
X210287186Y-86393647D01*
X210111356Y-86628996D01*
X209984818Y-86894126D01*
X209939082Y-87044914D01*
X208530935Y-87044914D01*
X197143601Y-75657580D01*
X206157168Y-75657580D01*
X206157168Y-78657580D01*
X206169428Y-78782062D01*
X206205738Y-78901760D01*
X206264703Y-79012074D01*
X206344055Y-79108765D01*
X206440746Y-79188117D01*
X206551060Y-79247082D01*
X206670758Y-79283392D01*
X206795240Y-79295652D01*
X209795240Y-79295652D01*
X209919722Y-79283392D01*
X210039420Y-79247082D01*
X210149734Y-79188117D01*
X210246425Y-79108765D01*
X210325777Y-79012074D01*
X210384742Y-78901760D01*
X210421052Y-78782062D01*
X210433312Y-78657580D01*
X210433312Y-75657580D01*
X210421052Y-75533098D01*
X210384742Y-75413400D01*
X210325777Y-75303086D01*
X210246425Y-75206395D01*
X210149734Y-75127043D01*
X210039420Y-75068078D01*
X209919722Y-75031768D01*
X209795240Y-75019508D01*
X206795240Y-75019508D01*
X206670758Y-75031768D01*
X206551060Y-75068078D01*
X206440746Y-75127043D01*
X206344055Y-75206395D01*
X206264703Y-75303086D01*
X206205738Y-75413400D01*
X206169428Y-75533098D01*
X206157168Y-75657580D01*
X197143601Y-75657580D01*
X190888620Y-69402599D01*
X190888620Y-69149233D01*
X213333192Y-69149233D01*
X213489202Y-69464794D01*
X213863985Y-69655600D01*
X214268791Y-69769624D01*
X214688064Y-69802482D01*
X215105691Y-69752914D01*
X215505623Y-69622823D01*
X215801278Y-69464794D01*
X215957288Y-69149233D01*
X214645240Y-67837185D01*
X213333192Y-69149233D01*
X190888620Y-69149233D01*
X190888620Y-68412106D01*
X190896427Y-67700404D01*
X212500338Y-67700404D01*
X212549906Y-68118031D01*
X212679997Y-68517963D01*
X212838026Y-68813618D01*
X213153587Y-68969628D01*
X214465635Y-67657580D01*
X214824845Y-67657580D01*
X216136893Y-68969628D01*
X216452454Y-68813618D01*
X216643260Y-68438835D01*
X216757284Y-68034029D01*
X216790142Y-67614756D01*
X216740574Y-67197129D01*
X216610483Y-66797197D01*
X216452454Y-66501542D01*
X216136893Y-66345532D01*
X214824845Y-67657580D01*
X214465635Y-67657580D01*
X213153587Y-66345532D01*
X212838026Y-66501542D01*
X212647220Y-66876325D01*
X212533196Y-67281131D01*
X212500338Y-67700404D01*
X190896427Y-67700404D01*
X190913260Y-66165927D01*
X213333192Y-66165927D01*
X214645240Y-67477975D01*
X215957288Y-66165927D01*
X215801278Y-65850366D01*
X215426495Y-65659560D01*
X215021689Y-65545536D01*
X214602416Y-65512678D01*
X214184789Y-65562246D01*
X213784857Y-65692337D01*
X213489202Y-65850366D01*
X213333192Y-66165927D01*
X190913260Y-66165927D01*
X190924521Y-65139395D01*
X190925000Y-65134527D01*
X190925000Y-65095690D01*
X190925425Y-65056947D01*
X190925000Y-65052086D01*
X190925000Y-64829311D01*
X191047302Y-64778652D01*
X191396983Y-64545003D01*
X191694363Y-64247623D01*
X191928012Y-63897942D01*
X192088953Y-63509396D01*
X192171000Y-63096919D01*
X192171000Y-62676361D01*
X192088953Y-62263884D01*
X191928012Y-61875338D01*
X191694363Y-61525657D01*
X191396983Y-61228277D01*
X191047302Y-60994628D01*
X190658756Y-60833687D01*
X190246279Y-60751640D01*
X189825721Y-60751640D01*
X189413244Y-60833687D01*
X189024698Y-60994628D01*
X188675017Y-61228277D01*
X188377637Y-61525657D01*
X188143988Y-61875338D01*
X187983047Y-62263884D01*
X187901000Y-62676361D01*
X184161027Y-62676361D01*
X184131334Y-62426189D01*
X184001243Y-62026257D01*
X183843214Y-61730602D01*
X183527653Y-61574592D01*
X182215605Y-62886640D01*
X181856395Y-62886640D01*
X180544347Y-61574592D01*
X180228786Y-61730602D01*
X180037980Y-62105385D01*
X179923956Y-62510191D01*
X179891098Y-62929464D01*
X178447700Y-62929464D01*
X178447700Y-61394987D01*
X180723952Y-61394987D01*
X182036000Y-62707035D01*
X183348048Y-61394987D01*
X183192038Y-61079426D01*
X182817255Y-60888620D01*
X182412449Y-60774596D01*
X181993176Y-60741738D01*
X181575549Y-60791306D01*
X181175617Y-60921397D01*
X180879962Y-61079426D01*
X180723952Y-61394987D01*
X178447700Y-61394987D01*
X178447700Y-54385296D01*
X179328539Y-54385296D01*
X179328539Y-54834704D01*
X179416214Y-55275478D01*
X179588196Y-55690677D01*
X179837874Y-56064347D01*
X180155653Y-56382126D01*
X180529323Y-56631804D01*
X180944522Y-56803786D01*
X181385296Y-56891461D01*
X181834704Y-56891461D01*
X182275478Y-56803786D01*
X182690677Y-56631804D01*
X183064347Y-56382126D01*
X183382126Y-56064347D01*
X183631804Y-55690677D01*
X183803786Y-55275478D01*
X183891461Y-54834704D01*
X183891461Y-54385296D01*
X212348539Y-54385296D01*
X212348539Y-54834704D01*
X212436214Y-55275478D01*
X212608196Y-55690677D01*
X212857874Y-56064347D01*
X213175653Y-56382126D01*
X213549323Y-56631804D01*
X213964522Y-56803786D01*
X214405296Y-56891461D01*
X214854704Y-56891461D01*
X215295478Y-56803786D01*
X215710677Y-56631804D01*
X216084347Y-56382126D01*
X216402126Y-56064347D01*
X216651804Y-55690677D01*
X216823786Y-55275478D01*
X216911461Y-54834704D01*
X216911461Y-54385296D01*
X216823786Y-53944522D01*
X216651804Y-53529323D01*
X216402126Y-53155653D01*
X216084347Y-52837874D01*
X215710677Y-52588196D01*
X215295478Y-52416214D01*
X214854704Y-52328539D01*
X214405296Y-52328539D01*
X213964522Y-52416214D01*
X213549323Y-52588196D01*
X213175653Y-52837874D01*
X212857874Y-53155653D01*
X212608196Y-53529323D01*
X212436214Y-53944522D01*
X212348539Y-54385296D01*
X183891461Y-54385296D01*
X183803786Y-53944522D01*
X183631804Y-53529323D01*
X183382126Y-53155653D01*
X183064347Y-52837874D01*
X182690677Y-52588196D01*
X182275478Y-52416214D01*
X181834704Y-52328539D01*
X181385296Y-52328539D01*
X180944522Y-52416214D01*
X180529323Y-52588196D01*
X180155653Y-52837874D01*
X179837874Y-53155653D01*
X179588196Y-53529323D01*
X179416214Y-53944522D01*
X179328539Y-54385296D01*
X178447700Y-54385296D01*
X178447700Y-51447700D01*
X217792300Y-51447700D01*
X217792301Y-141592300D01*
G37*
X217792301Y-141592300D02*
X178447700Y-141592300D01*
X178447700Y-138205296D01*
X179328539Y-138205296D01*
X179328539Y-138654704D01*
X179416214Y-139095478D01*
X179588196Y-139510677D01*
X179837874Y-139884347D01*
X180155653Y-140202126D01*
X180529323Y-140451804D01*
X180944522Y-140623786D01*
X181385296Y-140711461D01*
X181834704Y-140711461D01*
X182275478Y-140623786D01*
X182690677Y-140451804D01*
X183064347Y-140202126D01*
X183382126Y-139884347D01*
X183631804Y-139510677D01*
X183803786Y-139095478D01*
X183891461Y-138654704D01*
X183891461Y-138205296D01*
X212348539Y-138205296D01*
X212348539Y-138654704D01*
X212436214Y-139095478D01*
X212608196Y-139510677D01*
X212857874Y-139884347D01*
X213175653Y-140202126D01*
X213549323Y-140451804D01*
X213964522Y-140623786D01*
X214405296Y-140711461D01*
X214854704Y-140711461D01*
X215295478Y-140623786D01*
X215710677Y-140451804D01*
X216084347Y-140202126D01*
X216402126Y-139884347D01*
X216651804Y-139510677D01*
X216823786Y-139095478D01*
X216911461Y-138654704D01*
X216911461Y-138205296D01*
X216823786Y-137764522D01*
X216651804Y-137349323D01*
X216402126Y-136975653D01*
X216084347Y-136657874D01*
X215710677Y-136408196D01*
X215295478Y-136236214D01*
X214854704Y-136148539D01*
X214405296Y-136148539D01*
X213964522Y-136236214D01*
X213549323Y-136408196D01*
X213175653Y-136657874D01*
X212857874Y-136975653D01*
X212608196Y-137349323D01*
X212436214Y-137764522D01*
X212348539Y-138205296D01*
X183891461Y-138205296D01*
X183803786Y-137764522D01*
X183631804Y-137349323D01*
X183382126Y-136975653D01*
X183064347Y-136657874D01*
X182690677Y-136408196D01*
X182275478Y-136236214D01*
X181834704Y-136148539D01*
X181385296Y-136148539D01*
X180944522Y-136236214D01*
X180529323Y-136408196D01*
X180155653Y-136657874D01*
X179837874Y-136975653D01*
X179588196Y-137349323D01*
X179416214Y-137764522D01*
X179328539Y-138205296D01*
X178447700Y-138205296D01*
X178447700Y-128172569D01*
X182700240Y-128172569D01*
X182700240Y-128662071D01*
X182795737Y-129142168D01*
X182983061Y-129594409D01*
X183255014Y-130001415D01*
X183601145Y-130347546D01*
X184008151Y-130619499D01*
X184460392Y-130806823D01*
X184940489Y-130902320D01*
X185429991Y-130902320D01*
X185910088Y-130806823D01*
X186362329Y-130619499D01*
X186769335Y-130347546D01*
X187115466Y-130001415D01*
X187387419Y-129594409D01*
X187574743Y-129142168D01*
X187670240Y-128662071D01*
X187670240Y-128172569D01*
X190320240Y-128172569D01*
X190320240Y-128662071D01*
X190415737Y-129142168D01*
X190603061Y-129594409D01*
X190875014Y-130001415D01*
X191221145Y-130347546D01*
X191628151Y-130619499D01*
X192080392Y-130806823D01*
X192560489Y-130902320D01*
X193049991Y-130902320D01*
X193530088Y-130806823D01*
X193982329Y-130619499D01*
X194389335Y-130347546D01*
X194735466Y-130001415D01*
X195007419Y-129594409D01*
X195194743Y-129142168D01*
X195290240Y-128662071D01*
X195290240Y-128172569D01*
X195194743Y-127692472D01*
X195007419Y-127240231D01*
X194735466Y-126833225D01*
X194389335Y-126487094D01*
X193982329Y-126215141D01*
X193530088Y-126027817D01*
X193049991Y-125932320D01*
X192560489Y-125932320D01*
X192080392Y-126027817D01*
X191628151Y-126215141D01*
X191221145Y-126487094D01*
X190875014Y-126833225D01*
X190603061Y-127240231D01*
X190415737Y-127692472D01*
X190320240Y-128172569D01*
X187670240Y-128172569D01*
X187574743Y-127692472D01*
X187387419Y-127240231D01*
X187115466Y-126833225D01*
X186769335Y-126487094D01*
X186362329Y-126215141D01*
X185910088Y-126027817D01*
X185429991Y-125932320D01*
X184940489Y-125932320D01*
X184460392Y-126027817D01*
X184008151Y-126215141D01*
X183601145Y-126487094D01*
X183255014Y-126833225D01*
X182983061Y-127240231D01*
X182795737Y-127692472D01*
X182700240Y-128172569D01*
X178447700Y-128172569D01*
X178447700Y-125920925D01*
X206911240Y-125920925D01*
X207037154Y-126210897D01*
X207369366Y-126376753D01*
X207727552Y-126474610D01*
X208097946Y-126500709D01*
X208466315Y-126454045D01*
X208818502Y-126336414D01*
X209053326Y-126210897D01*
X209179240Y-125920925D01*
X208045240Y-124786925D01*
X206911240Y-125920925D01*
X178447700Y-125920925D01*
X178447700Y-124660026D01*
X206151851Y-124660026D01*
X206198515Y-125028395D01*
X206316146Y-125380582D01*
X206441663Y-125615406D01*
X206731635Y-125741320D01*
X207865635Y-124607320D01*
X208224845Y-124607320D01*
X209358845Y-125741320D01*
X209648817Y-125615406D01*
X209814673Y-125283194D01*
X209912530Y-124925008D01*
X209938629Y-124554614D01*
X209891965Y-124186245D01*
X209774334Y-123834058D01*
X209648817Y-123599234D01*
X209358845Y-123473320D01*
X208224845Y-124607320D01*
X207865635Y-124607320D01*
X206731635Y-123473320D01*
X206441663Y-123599234D01*
X206275807Y-123931446D01*
X206177950Y-124289632D01*
X206151851Y-124660026D01*
X178447700Y-124660026D01*
X178447700Y-123293715D01*
X206911240Y-123293715D01*
X208045240Y-124427715D01*
X209179240Y-123293715D01*
X209053326Y-123003743D01*
X208721114Y-122837887D01*
X208362928Y-122740030D01*
X207992534Y-122713931D01*
X207624165Y-122760595D01*
X207271978Y-122878226D01*
X207037154Y-123003743D01*
X206911240Y-123293715D01*
X178447700Y-123293715D01*
X178447700Y-114261664D01*
X206160240Y-114261664D01*
X206160240Y-114632976D01*
X206232679Y-114997154D01*
X206374774Y-115340202D01*
X206581065Y-115648938D01*
X206843622Y-115911495D01*
X207152358Y-116117786D01*
X207495406Y-116259881D01*
X207859584Y-116332320D01*
X208230896Y-116332320D01*
X208595074Y-116259881D01*
X208938122Y-116117786D01*
X209246858Y-115911495D01*
X209509415Y-115648938D01*
X209715706Y-115340202D01*
X209857801Y-114997154D01*
X209930240Y-114632976D01*
X209930240Y-114261664D01*
X209857801Y-113897486D01*
X209715706Y-113554438D01*
X209509415Y-113245702D01*
X209246858Y-112983145D01*
X208938122Y-112776854D01*
X208595074Y-112634759D01*
X208230896Y-112562320D01*
X207859584Y-112562320D01*
X207495406Y-112634759D01*
X207152358Y-112776854D01*
X206843622Y-112983145D01*
X206581065Y-113245702D01*
X206374774Y-113554438D01*
X206232679Y-113897486D01*
X206160240Y-114261664D01*
X178447700Y-114261664D01*
X178447700Y-108887320D01*
X192957168Y-108887320D01*
X192957168Y-112387320D01*
X192969428Y-112511802D01*
X193005738Y-112631500D01*
X193064703Y-112741814D01*
X193144055Y-112838505D01*
X193240746Y-112917857D01*
X193351060Y-112976822D01*
X193470758Y-113013132D01*
X193595240Y-113025392D01*
X197095240Y-113025392D01*
X197219722Y-113013132D01*
X197339420Y-112976822D01*
X197449734Y-112917857D01*
X197546425Y-112838505D01*
X197625777Y-112741814D01*
X197684742Y-112631500D01*
X197721052Y-112511802D01*
X197733312Y-112387320D01*
X197733312Y-108887320D01*
X197721052Y-108762838D01*
X197684742Y-108643140D01*
X197625777Y-108532826D01*
X197546425Y-108436135D01*
X197449734Y-108356783D01*
X197339420Y-108297818D01*
X197219722Y-108261508D01*
X197095240Y-108249248D01*
X193595240Y-108249248D01*
X193470758Y-108261508D01*
X193351060Y-108297818D01*
X193240746Y-108356783D01*
X193144055Y-108436135D01*
X193064703Y-108532826D01*
X193005738Y-108643140D01*
X192969428Y-108762838D01*
X192957168Y-108887320D01*
X178447700Y-108887320D01*
X178447700Y-101176361D01*
X179901000Y-101176361D01*
X179901000Y-101596919D01*
X179983047Y-102009396D01*
X180143988Y-102397942D01*
X180377637Y-102747623D01*
X180675017Y-103045003D01*
X181024698Y-103278652D01*
X181413244Y-103439593D01*
X181825721Y-103521640D01*
X182246279Y-103521640D01*
X182658756Y-103439593D01*
X183047302Y-103278652D01*
X183396983Y-103045003D01*
X183694363Y-102747623D01*
X183928012Y-102397942D01*
X184088953Y-102009396D01*
X184171000Y-101596919D01*
X184171000Y-101176361D01*
X184088953Y-100763884D01*
X183928012Y-100375338D01*
X183694363Y-100025657D01*
X183555346Y-99886640D01*
X190647928Y-99886640D01*
X190647928Y-102886640D01*
X190660188Y-103011122D01*
X190696498Y-103130820D01*
X190755463Y-103241134D01*
X190834815Y-103337825D01*
X190931506Y-103417177D01*
X191041820Y-103476142D01*
X191161518Y-103512452D01*
X191286000Y-103524712D01*
X194286000Y-103524712D01*
X194410482Y-103512452D01*
X194530180Y-103476142D01*
X194640494Y-103417177D01*
X194737185Y-103337825D01*
X194816537Y-103241134D01*
X194875502Y-103130820D01*
X194911812Y-103011122D01*
X194924072Y-102886640D01*
X194924072Y-99886640D01*
X194911812Y-99762158D01*
X194875502Y-99642460D01*
X194816537Y-99532146D01*
X194737185Y-99435455D01*
X194640494Y-99356103D01*
X194530180Y-99297138D01*
X194410482Y-99260828D01*
X194286000Y-99248568D01*
X191286000Y-99248568D01*
X191161518Y-99260828D01*
X191041820Y-99297138D01*
X190931506Y-99356103D01*
X190834815Y-99435455D01*
X190755463Y-99532146D01*
X190696498Y-99642460D01*
X190660188Y-99762158D01*
X190647928Y-99886640D01*
X183555346Y-99886640D01*
X183396983Y-99728277D01*
X183047302Y-99494628D01*
X182658756Y-99333687D01*
X182246279Y-99251640D01*
X181825721Y-99251640D01*
X181413244Y-99333687D01*
X181024698Y-99494628D01*
X180675017Y-99728277D01*
X180377637Y-100025657D01*
X180143988Y-100375338D01*
X179983047Y-100763884D01*
X179901000Y-101176361D01*
X178447700Y-101176361D01*
X178447700Y-64378293D01*
X180723952Y-64378293D01*
X180879962Y-64693854D01*
X181254745Y-64884660D01*
X181659551Y-64998684D01*
X182078824Y-65031542D01*
X182496451Y-64981974D01*
X182896383Y-64851883D01*
X183192038Y-64693854D01*
X183348048Y-64378293D01*
X182036000Y-63066245D01*
X180723952Y-64378293D01*
X178447700Y-64378293D01*
X178447700Y-62929464D01*
X179891098Y-62929464D01*
X179940666Y-63347091D01*
X180070757Y-63747023D01*
X180228786Y-64042678D01*
X180544347Y-64198688D01*
X181856395Y-62886640D01*
X182215605Y-62886640D01*
X183527653Y-64198688D01*
X183843214Y-64042678D01*
X184034020Y-63667895D01*
X184148044Y-63263089D01*
X184180902Y-62843816D01*
X184161027Y-62676361D01*
X187901000Y-62676361D01*
X187901000Y-63096919D01*
X187983047Y-63509396D01*
X188143988Y-63897942D01*
X188377637Y-64247623D01*
X188675017Y-64545003D01*
X189024698Y-64778652D01*
X189147001Y-64829311D01*
X189147001Y-65085943D01*
X189111099Y-68358757D01*
X189110621Y-68363613D01*
X189110621Y-68402360D01*
X189110195Y-68441192D01*
X189110621Y-68446064D01*
X189110620Y-69727174D01*
X189106320Y-69770834D01*
X189110620Y-69814494D01*
X189110620Y-69814500D01*
X189123484Y-69945107D01*
X189174317Y-70112684D01*
X189256867Y-70267124D01*
X189367961Y-70402493D01*
X189401884Y-70430333D01*
X209513232Y-90541682D01*
X209541067Y-90575599D01*
X209676435Y-90686693D01*
X209830875Y-90769243D01*
X209896784Y-90789236D01*
X209998450Y-90820076D01*
X210031650Y-90823346D01*
X210129059Y-90832940D01*
X210129065Y-90832940D01*
X210172725Y-90837240D01*
X210187594Y-90835776D01*
X210230001Y-90899242D01*
X210438738Y-91107979D01*
X210597321Y-91213940D01*
X210438738Y-91319901D01*
X210230001Y-91528638D01*
X210065998Y-91774087D01*
X209953030Y-92046815D01*
X209895440Y-92336341D01*
X209895440Y-92631539D01*
X209953030Y-92921065D01*
X210065998Y-93193793D01*
X210230001Y-93439242D01*
X210344063Y-93553304D01*
X210286260Y-93570838D01*
X210175946Y-93629803D01*
X210079255Y-93709155D01*
X209999903Y-93805846D01*
X209940938Y-93916160D01*
X209904628Y-94035858D01*
X209892368Y-94160340D01*
X209892368Y-95887540D01*
X209904628Y-96012022D01*
X209940938Y-96131720D01*
X209999903Y-96242034D01*
X210079255Y-96338725D01*
X210175946Y-96418077D01*
X210286260Y-96477042D01*
X210405958Y-96513352D01*
X210530440Y-96525612D01*
X212257640Y-96525612D01*
X212382122Y-96513352D01*
X212501820Y-96477042D01*
X212612134Y-96418077D01*
X212708825Y-96338725D01*
X212788177Y-96242034D01*
X212847142Y-96131720D01*
X212864676Y-96073917D01*
X212978738Y-96187979D01*
X213224187Y-96351982D01*
X213496915Y-96464950D01*
X213786441Y-96522540D01*
X214081639Y-96522540D01*
X214371165Y-96464950D01*
X214643893Y-96351982D01*
X214889342Y-96187979D01*
X215098079Y-95979242D01*
X215262082Y-95733793D01*
X215375050Y-95461065D01*
X215432640Y-95171539D01*
X215432640Y-94876341D01*
X215375050Y-94586815D01*
X215262082Y-94314087D01*
X215098079Y-94068638D01*
X214889342Y-93859901D01*
X214730759Y-93753940D01*
X214889342Y-93647979D01*
X215098079Y-93439242D01*
X215262082Y-93193793D01*
X215375050Y-92921065D01*
X215432640Y-92631539D01*
X215432640Y-92336341D01*
X215375050Y-92046815D01*
X215262082Y-91774087D01*
X215098079Y-91528638D01*
X214889342Y-91319901D01*
X214730759Y-91213940D01*
X214889342Y-91107979D01*
X215098079Y-90899242D01*
X215262082Y-90653793D01*
X215375050Y-90381065D01*
X215432640Y-90091539D01*
X215432640Y-89796341D01*
X215375050Y-89506815D01*
X215262082Y-89234087D01*
X215098079Y-88988638D01*
X214889342Y-88779901D01*
X214730759Y-88673940D01*
X214889342Y-88567979D01*
X215098079Y-88359242D01*
X215262082Y-88113793D01*
X215375050Y-87841065D01*
X215432640Y-87551539D01*
X215432640Y-87256341D01*
X215375050Y-86966815D01*
X215262082Y-86694087D01*
X215098079Y-86448638D01*
X214889342Y-86239901D01*
X214643893Y-86075898D01*
X214371165Y-85962930D01*
X214081639Y-85905340D01*
X213786441Y-85905340D01*
X213496915Y-85962930D01*
X213224187Y-86075898D01*
X212978738Y-86239901D01*
X212770001Y-86448638D01*
X212662348Y-86609753D01*
X212500894Y-86393647D01*
X212282528Y-86197123D01*
X212030018Y-86046976D01*
X211753067Y-85948977D01*
X211521040Y-86069476D01*
X211521040Y-87276940D01*
X211541040Y-87276940D01*
X211541040Y-87530940D01*
X211521040Y-87530940D01*
X211521040Y-87550940D01*
X211267040Y-87550940D01*
X211267040Y-87530940D01*
X210060223Y-87530940D01*
X209939082Y-87762966D01*
X209984818Y-87913754D01*
X210111356Y-88178884D01*
X210287186Y-88414233D01*
X210505552Y-88610757D01*
X210604143Y-88669381D01*
X210438738Y-88779901D01*
X210352330Y-88866309D01*
X208530935Y-87044914D01*
X209939082Y-87044914D01*
X210060223Y-87276940D01*
X211267040Y-87276940D01*
X211267040Y-86069476D01*
X211035013Y-85948977D01*
X210758062Y-86046976D01*
X210505552Y-86197123D01*
X210287186Y-86393647D01*
X210111356Y-86628996D01*
X209984818Y-86894126D01*
X209939082Y-87044914D01*
X208530935Y-87044914D01*
X197143601Y-75657580D01*
X206157168Y-75657580D01*
X206157168Y-78657580D01*
X206169428Y-78782062D01*
X206205738Y-78901760D01*
X206264703Y-79012074D01*
X206344055Y-79108765D01*
X206440746Y-79188117D01*
X206551060Y-79247082D01*
X206670758Y-79283392D01*
X206795240Y-79295652D01*
X209795240Y-79295652D01*
X209919722Y-79283392D01*
X210039420Y-79247082D01*
X210149734Y-79188117D01*
X210246425Y-79108765D01*
X210325777Y-79012074D01*
X210384742Y-78901760D01*
X210421052Y-78782062D01*
X210433312Y-78657580D01*
X210433312Y-75657580D01*
X210421052Y-75533098D01*
X210384742Y-75413400D01*
X210325777Y-75303086D01*
X210246425Y-75206395D01*
X210149734Y-75127043D01*
X210039420Y-75068078D01*
X209919722Y-75031768D01*
X209795240Y-75019508D01*
X206795240Y-75019508D01*
X206670758Y-75031768D01*
X206551060Y-75068078D01*
X206440746Y-75127043D01*
X206344055Y-75206395D01*
X206264703Y-75303086D01*
X206205738Y-75413400D01*
X206169428Y-75533098D01*
X206157168Y-75657580D01*
X197143601Y-75657580D01*
X190888620Y-69402599D01*
X190888620Y-69149233D01*
X213333192Y-69149233D01*
X213489202Y-69464794D01*
X213863985Y-69655600D01*
X214268791Y-69769624D01*
X214688064Y-69802482D01*
X215105691Y-69752914D01*
X215505623Y-69622823D01*
X215801278Y-69464794D01*
X215957288Y-69149233D01*
X214645240Y-67837185D01*
X213333192Y-69149233D01*
X190888620Y-69149233D01*
X190888620Y-68412106D01*
X190896427Y-67700404D01*
X212500338Y-67700404D01*
X212549906Y-68118031D01*
X212679997Y-68517963D01*
X212838026Y-68813618D01*
X213153587Y-68969628D01*
X214465635Y-67657580D01*
X214824845Y-67657580D01*
X216136893Y-68969628D01*
X216452454Y-68813618D01*
X216643260Y-68438835D01*
X216757284Y-68034029D01*
X216790142Y-67614756D01*
X216740574Y-67197129D01*
X216610483Y-66797197D01*
X216452454Y-66501542D01*
X216136893Y-66345532D01*
X214824845Y-67657580D01*
X214465635Y-67657580D01*
X213153587Y-66345532D01*
X212838026Y-66501542D01*
X212647220Y-66876325D01*
X212533196Y-67281131D01*
X212500338Y-67700404D01*
X190896427Y-67700404D01*
X190913260Y-66165927D01*
X213333192Y-66165927D01*
X214645240Y-67477975D01*
X215957288Y-66165927D01*
X215801278Y-65850366D01*
X215426495Y-65659560D01*
X215021689Y-65545536D01*
X214602416Y-65512678D01*
X214184789Y-65562246D01*
X213784857Y-65692337D01*
X213489202Y-65850366D01*
X213333192Y-66165927D01*
X190913260Y-66165927D01*
X190924521Y-65139395D01*
X190925000Y-65134527D01*
X190925000Y-65095690D01*
X190925425Y-65056947D01*
X190925000Y-65052086D01*
X190925000Y-64829311D01*
X191047302Y-64778652D01*
X191396983Y-64545003D01*
X191694363Y-64247623D01*
X191928012Y-63897942D01*
X192088953Y-63509396D01*
X192171000Y-63096919D01*
X192171000Y-62676361D01*
X192088953Y-62263884D01*
X191928012Y-61875338D01*
X191694363Y-61525657D01*
X191396983Y-61228277D01*
X191047302Y-60994628D01*
X190658756Y-60833687D01*
X190246279Y-60751640D01*
X189825721Y-60751640D01*
X189413244Y-60833687D01*
X189024698Y-60994628D01*
X188675017Y-61228277D01*
X188377637Y-61525657D01*
X188143988Y-61875338D01*
X187983047Y-62263884D01*
X187901000Y-62676361D01*
X184161027Y-62676361D01*
X184131334Y-62426189D01*
X184001243Y-62026257D01*
X183843214Y-61730602D01*
X183527653Y-61574592D01*
X182215605Y-62886640D01*
X181856395Y-62886640D01*
X180544347Y-61574592D01*
X180228786Y-61730602D01*
X180037980Y-62105385D01*
X179923956Y-62510191D01*
X179891098Y-62929464D01*
X178447700Y-62929464D01*
X178447700Y-61394987D01*
X180723952Y-61394987D01*
X182036000Y-62707035D01*
X183348048Y-61394987D01*
X183192038Y-61079426D01*
X182817255Y-60888620D01*
X182412449Y-60774596D01*
X181993176Y-60741738D01*
X181575549Y-60791306D01*
X181175617Y-60921397D01*
X180879962Y-61079426D01*
X180723952Y-61394987D01*
X178447700Y-61394987D01*
X178447700Y-54385296D01*
X179328539Y-54385296D01*
X179328539Y-54834704D01*
X179416214Y-55275478D01*
X179588196Y-55690677D01*
X179837874Y-56064347D01*
X180155653Y-56382126D01*
X180529323Y-56631804D01*
X180944522Y-56803786D01*
X181385296Y-56891461D01*
X181834704Y-56891461D01*
X182275478Y-56803786D01*
X182690677Y-56631804D01*
X183064347Y-56382126D01*
X183382126Y-56064347D01*
X183631804Y-55690677D01*
X183803786Y-55275478D01*
X183891461Y-54834704D01*
X183891461Y-54385296D01*
X212348539Y-54385296D01*
X212348539Y-54834704D01*
X212436214Y-55275478D01*
X212608196Y-55690677D01*
X212857874Y-56064347D01*
X213175653Y-56382126D01*
X213549323Y-56631804D01*
X213964522Y-56803786D01*
X214405296Y-56891461D01*
X214854704Y-56891461D01*
X215295478Y-56803786D01*
X215710677Y-56631804D01*
X216084347Y-56382126D01*
X216402126Y-56064347D01*
X216651804Y-55690677D01*
X216823786Y-55275478D01*
X216911461Y-54834704D01*
X216911461Y-54385296D01*
X216823786Y-53944522D01*
X216651804Y-53529323D01*
X216402126Y-53155653D01*
X216084347Y-52837874D01*
X215710677Y-52588196D01*
X215295478Y-52416214D01*
X214854704Y-52328539D01*
X214405296Y-52328539D01*
X213964522Y-52416214D01*
X213549323Y-52588196D01*
X213175653Y-52837874D01*
X212857874Y-53155653D01*
X212608196Y-53529323D01*
X212436214Y-53944522D01*
X212348539Y-54385296D01*
X183891461Y-54385296D01*
X183803786Y-53944522D01*
X183631804Y-53529323D01*
X183382126Y-53155653D01*
X183064347Y-52837874D01*
X182690677Y-52588196D01*
X182275478Y-52416214D01*
X181834704Y-52328539D01*
X181385296Y-52328539D01*
X180944522Y-52416214D01*
X180529323Y-52588196D01*
X180155653Y-52837874D01*
X179837874Y-53155653D01*
X179588196Y-53529323D01*
X179416214Y-53944522D01*
X179328539Y-54385296D01*
X178447700Y-54385296D01*
X178447700Y-51447700D01*
X217792300Y-51447700D01*
X217792301Y-141592300D01*
M02*
