G04 #@! TF.GenerationSoftware,KiCad,Pcbnew,(5.1.5)-3*
G04 #@! TF.CreationDate,2020-09-30T13:58:30-07:00*
G04 #@! TF.ProjectId,Plug_Pass,506c7567-5f50-4617-9373-2e6b69636164,v2.2*
G04 #@! TF.SameCoordinates,Original*
G04 #@! TF.FileFunction,Soldermask,Top*
G04 #@! TF.FilePolarity,Negative*
%FSLAX46Y46*%
G04 Gerber Fmt 4.6, Leading zero omitted, Abs format (unit mm)*
G04 Created by KiCad (PCBNEW (5.1.5)-3) date 2020-09-30 13:58:30*
%MOMM*%
%LPD*%
G04 APERTURE LIST*
%ADD10C,6.282115*%
%ADD11C,0.100000*%
G04 APERTURE END LIST*
D10*
X145889057Y-61976000D02*
G75*
G03X145889057Y-61976000I-3141057J0D01*
G01*
D11*
G36*
X176786800Y-126494800D02*
G01*
X170685200Y-126494800D01*
X170685200Y-120393200D01*
X176786800Y-120393200D01*
X176786800Y-126494800D01*
G37*
G36*
X135130800Y-126494800D02*
G01*
X129029200Y-126494800D01*
X129029200Y-120393200D01*
X135130800Y-120393200D01*
X135130800Y-126494800D01*
G37*
G36*
X165132777Y-122969893D02*
G01*
X165246029Y-123004247D01*
X165350402Y-123060036D01*
X165441885Y-123135115D01*
X165516964Y-123226598D01*
X165572753Y-123330971D01*
X165607107Y-123444223D01*
X165618707Y-123562000D01*
X165607107Y-123679777D01*
X165572753Y-123793029D01*
X165516964Y-123897402D01*
X165441885Y-123988885D01*
X165350402Y-124063964D01*
X165246029Y-124119753D01*
X165132777Y-124154107D01*
X165044515Y-124162800D01*
X163885485Y-124162800D01*
X163797223Y-124154107D01*
X163683971Y-124119753D01*
X163579598Y-124063964D01*
X163488115Y-123988885D01*
X163413036Y-123897402D01*
X163357247Y-123793029D01*
X163322893Y-123679777D01*
X163311293Y-123562000D01*
X163322893Y-123444223D01*
X163357247Y-123330971D01*
X163413036Y-123226598D01*
X163488115Y-123135115D01*
X163579598Y-123060036D01*
X163683971Y-123004247D01*
X163797223Y-122969893D01*
X163885485Y-122961200D01*
X165044515Y-122961200D01*
X165132777Y-122969893D01*
G37*
G36*
X167932777Y-120819893D02*
G01*
X168046029Y-120854247D01*
X168150402Y-120910036D01*
X168241885Y-120985115D01*
X168316964Y-121076598D01*
X168372753Y-121180971D01*
X168407107Y-121294223D01*
X168418707Y-121412000D01*
X168407107Y-121529777D01*
X168372753Y-121643029D01*
X168316964Y-121747402D01*
X168241885Y-121838885D01*
X168150402Y-121913964D01*
X168046029Y-121969753D01*
X167932777Y-122004107D01*
X167844515Y-122012800D01*
X166685485Y-122012800D01*
X166597223Y-122004107D01*
X166483971Y-121969753D01*
X166379598Y-121913964D01*
X166288115Y-121838885D01*
X166213036Y-121747402D01*
X166157247Y-121643029D01*
X166122893Y-121529777D01*
X166111293Y-121412000D01*
X166122893Y-121294223D01*
X166157247Y-121180971D01*
X166213036Y-121076598D01*
X166288115Y-120985115D01*
X166379598Y-120910036D01*
X166483971Y-120854247D01*
X166597223Y-120819893D01*
X166685485Y-120811200D01*
X167844515Y-120811200D01*
X167932777Y-120819893D01*
G37*
G36*
X162332777Y-120819893D02*
G01*
X162446029Y-120854247D01*
X162550402Y-120910036D01*
X162641885Y-120985115D01*
X162716964Y-121076598D01*
X162772753Y-121180971D01*
X162807107Y-121294223D01*
X162818707Y-121412000D01*
X162807107Y-121529777D01*
X162772753Y-121643029D01*
X162716964Y-121747402D01*
X162641885Y-121838885D01*
X162550402Y-121913964D01*
X162446029Y-121969753D01*
X162332777Y-122004107D01*
X162244515Y-122012800D01*
X161085485Y-122012800D01*
X160997223Y-122004107D01*
X160883971Y-121969753D01*
X160779598Y-121913964D01*
X160688115Y-121838885D01*
X160613036Y-121747402D01*
X160557247Y-121643029D01*
X160522893Y-121529777D01*
X160511293Y-121412000D01*
X160522893Y-121294223D01*
X160557247Y-121180971D01*
X160613036Y-121076598D01*
X160688115Y-120985115D01*
X160779598Y-120910036D01*
X160883971Y-120854247D01*
X160997223Y-120819893D01*
X161085485Y-120811200D01*
X162244515Y-120811200D01*
X162332777Y-120819893D01*
G37*
G36*
X152577800Y-121679800D02*
G01*
X151176200Y-121679800D01*
X151176200Y-119428200D01*
X152577800Y-119428200D01*
X152577800Y-121679800D01*
G37*
G36*
X147527800Y-121679800D02*
G01*
X146126200Y-121679800D01*
X146126200Y-119428200D01*
X147527800Y-119428200D01*
X147527800Y-121679800D01*
G37*
G36*
X149177800Y-118909800D02*
G01*
X148276200Y-118909800D01*
X148276200Y-117608200D01*
X149177800Y-117608200D01*
X149177800Y-118909800D01*
G37*
G36*
X150427800Y-118909800D02*
G01*
X149526200Y-118909800D01*
X149526200Y-117608200D01*
X150427800Y-117608200D01*
X150427800Y-118909800D01*
G37*
G36*
X138940800Y-117746800D02*
G01*
X132839200Y-117746800D01*
X132839200Y-111645200D01*
X138940800Y-111645200D01*
X138940800Y-117746800D01*
G37*
G36*
X160974600Y-116808000D02*
G01*
X156873000Y-116808000D01*
X156873000Y-112706400D01*
X160974600Y-112706400D01*
X160974600Y-116808000D01*
G37*
G36*
X147509800Y-115962800D02*
G01*
X147128200Y-115962800D01*
X147128200Y-115431200D01*
X147509800Y-115431200D01*
X147509800Y-115962800D01*
G37*
G36*
X148019800Y-115962800D02*
G01*
X147638200Y-115962800D01*
X147638200Y-115431200D01*
X148019800Y-115431200D01*
X148019800Y-115962800D01*
G37*
G36*
X151192800Y-115962800D02*
G01*
X150811200Y-115962800D01*
X150811200Y-115431200D01*
X151192800Y-115431200D01*
X151192800Y-115962800D01*
G37*
G36*
X151702800Y-115962800D02*
G01*
X151321200Y-115962800D01*
X151321200Y-115431200D01*
X151702800Y-115431200D01*
X151702800Y-115962800D01*
G37*
G36*
X145776457Y-114775782D02*
G01*
X145879783Y-114807126D01*
X145975009Y-114858026D01*
X146058475Y-114926525D01*
X146126974Y-115009991D01*
X146177874Y-115105217D01*
X146209218Y-115208543D01*
X146219801Y-115315999D01*
X146219801Y-115316001D01*
X146209218Y-115423457D01*
X146177874Y-115526783D01*
X146126974Y-115622009D01*
X146058475Y-115705475D01*
X145975009Y-115773974D01*
X145879783Y-115824874D01*
X145776457Y-115856218D01*
X145669001Y-115866801D01*
X145668999Y-115866801D01*
X145561543Y-115856218D01*
X145458217Y-115824874D01*
X145362991Y-115773974D01*
X145279525Y-115705475D01*
X145211026Y-115622009D01*
X145160126Y-115526783D01*
X145128782Y-115423457D01*
X145118199Y-115316001D01*
X145118199Y-115315999D01*
X145128782Y-115208543D01*
X145160126Y-115105217D01*
X145211026Y-115009991D01*
X145279525Y-114926525D01*
X145362991Y-114858026D01*
X145458217Y-114807126D01*
X145561543Y-114775782D01*
X145668999Y-114765199D01*
X145669001Y-114765199D01*
X145776457Y-114775782D01*
G37*
G36*
X149459457Y-114648782D02*
G01*
X149562783Y-114680126D01*
X149658009Y-114731026D01*
X149741475Y-114799525D01*
X149809974Y-114882991D01*
X149860874Y-114978217D01*
X149892218Y-115081543D01*
X149902801Y-115188999D01*
X149902801Y-115189001D01*
X149892218Y-115296457D01*
X149860874Y-115399783D01*
X149809974Y-115495009D01*
X149741475Y-115578475D01*
X149658009Y-115646974D01*
X149562783Y-115697874D01*
X149459457Y-115729218D01*
X149352001Y-115739801D01*
X149351999Y-115739801D01*
X149244543Y-115729218D01*
X149141217Y-115697874D01*
X149045991Y-115646974D01*
X148962525Y-115578475D01*
X148894026Y-115495009D01*
X148843126Y-115399783D01*
X148811782Y-115296457D01*
X148801199Y-115189001D01*
X148801199Y-115188999D01*
X148811782Y-115081543D01*
X148843126Y-114978217D01*
X148894026Y-114882991D01*
X148962525Y-114799525D01*
X149045991Y-114731026D01*
X149141217Y-114680126D01*
X149244543Y-114648782D01*
X149351999Y-114638199D01*
X149352001Y-114638199D01*
X149459457Y-114648782D01*
G37*
G36*
X153269457Y-114648782D02*
G01*
X153372783Y-114680126D01*
X153468009Y-114731026D01*
X153551475Y-114799525D01*
X153619974Y-114882991D01*
X153670874Y-114978217D01*
X153702218Y-115081543D01*
X153712801Y-115188999D01*
X153712801Y-115189001D01*
X153702218Y-115296457D01*
X153670874Y-115399783D01*
X153619974Y-115495009D01*
X153551475Y-115578475D01*
X153468009Y-115646974D01*
X153372783Y-115697874D01*
X153269457Y-115729218D01*
X153162001Y-115739801D01*
X153161999Y-115739801D01*
X153054543Y-115729218D01*
X152951217Y-115697874D01*
X152855991Y-115646974D01*
X152772525Y-115578475D01*
X152704026Y-115495009D01*
X152653126Y-115399783D01*
X152621782Y-115296457D01*
X152611199Y-115189001D01*
X152611199Y-115188999D01*
X152621782Y-115081543D01*
X152653126Y-114978217D01*
X152704026Y-114882991D01*
X152772525Y-114799525D01*
X152855991Y-114731026D01*
X152951217Y-114680126D01*
X153054543Y-114648782D01*
X153161999Y-114638199D01*
X153162001Y-114638199D01*
X153269457Y-114648782D01*
G37*
G36*
X166568240Y-114068792D02*
G01*
X166591152Y-114075742D01*
X166612273Y-114087031D01*
X166630780Y-114102220D01*
X166645969Y-114120727D01*
X166657258Y-114141848D01*
X166664208Y-114164760D01*
X166666800Y-114191073D01*
X166666800Y-114992927D01*
X166664208Y-115019240D01*
X166657258Y-115042152D01*
X166645969Y-115063273D01*
X166630780Y-115081780D01*
X166612273Y-115096969D01*
X166591152Y-115108258D01*
X166568240Y-115115208D01*
X166541927Y-115117800D01*
X165690073Y-115117800D01*
X165663760Y-115115208D01*
X165640848Y-115108258D01*
X165619727Y-115096969D01*
X165601220Y-115081780D01*
X165586031Y-115063273D01*
X165574742Y-115042152D01*
X165567792Y-115019240D01*
X165565200Y-114992927D01*
X165565200Y-114191073D01*
X165567792Y-114164760D01*
X165574742Y-114141848D01*
X165586031Y-114120727D01*
X165601220Y-114102220D01*
X165619727Y-114087031D01*
X165640848Y-114075742D01*
X165663760Y-114068792D01*
X165690073Y-114066200D01*
X166541927Y-114066200D01*
X166568240Y-114068792D01*
G37*
G36*
X168559600Y-113282237D02*
G01*
X168559668Y-113282237D01*
X168559668Y-113285763D01*
X168559600Y-113285763D01*
X168559600Y-114145600D01*
X167736400Y-114145600D01*
X167736400Y-113285763D01*
X167736332Y-113285763D01*
X167736332Y-113282237D01*
X167736400Y-113282237D01*
X167736400Y-112422400D01*
X168559600Y-112422400D01*
X168559600Y-113282237D01*
G37*
G36*
X153163763Y-113126400D02*
G01*
X154023600Y-113126400D01*
X154023600Y-113949600D01*
X153163763Y-113949600D01*
X153163763Y-113949668D01*
X153160237Y-113949668D01*
X153160237Y-113949600D01*
X152300400Y-113949600D01*
X152300400Y-113126400D01*
X153160237Y-113126400D01*
X153160237Y-113126332D01*
X153163763Y-113126332D01*
X153163763Y-113126400D01*
G37*
G36*
X145670763Y-113126400D02*
G01*
X146530600Y-113126400D01*
X146530600Y-113949600D01*
X145670763Y-113949600D01*
X145670763Y-113949668D01*
X145667237Y-113949668D01*
X145667237Y-113949600D01*
X144807400Y-113949600D01*
X144807400Y-113126400D01*
X145667237Y-113126400D01*
X145667237Y-113126332D01*
X145670763Y-113126332D01*
X145670763Y-113126400D01*
G37*
G36*
X151563600Y-113856600D02*
G01*
X150410400Y-113856600D01*
X150410400Y-112203400D01*
X151563600Y-112203400D01*
X151563600Y-113856600D01*
G37*
G36*
X149563600Y-113856600D02*
G01*
X148410400Y-113856600D01*
X148410400Y-112203400D01*
X149563600Y-112203400D01*
X149563600Y-113856600D01*
G37*
G36*
X143816600Y-113856600D02*
G01*
X142663400Y-113856600D01*
X142663400Y-112203400D01*
X143816600Y-112203400D01*
X143816600Y-113856600D01*
G37*
G36*
X141816600Y-113856600D02*
G01*
X140663400Y-113856600D01*
X140663400Y-112203400D01*
X141816600Y-112203400D01*
X141816600Y-113856600D01*
G37*
G36*
X166568240Y-112468792D02*
G01*
X166591152Y-112475742D01*
X166612273Y-112487031D01*
X166630780Y-112502220D01*
X166645969Y-112520727D01*
X166657258Y-112541848D01*
X166664208Y-112564760D01*
X166666800Y-112591073D01*
X166666800Y-113392927D01*
X166664208Y-113419240D01*
X166657258Y-113442152D01*
X166645969Y-113463273D01*
X166630780Y-113481780D01*
X166612273Y-113496969D01*
X166591152Y-113508258D01*
X166568240Y-113515208D01*
X166541927Y-113517800D01*
X165690073Y-113517800D01*
X165663760Y-113515208D01*
X165640848Y-113508258D01*
X165619727Y-113496969D01*
X165601220Y-113481780D01*
X165586031Y-113463273D01*
X165574742Y-113442152D01*
X165567792Y-113419240D01*
X165565200Y-113392927D01*
X165565200Y-112591073D01*
X165567792Y-112564760D01*
X165574742Y-112541848D01*
X165586031Y-112520727D01*
X165601220Y-112502220D01*
X165619727Y-112487031D01*
X165640848Y-112475742D01*
X165663760Y-112468792D01*
X165690073Y-112466200D01*
X166541927Y-112466200D01*
X166568240Y-112468792D01*
G37*
G36*
X146603229Y-109696389D02*
G01*
X146839960Y-109794446D01*
X147053012Y-109936803D01*
X147234197Y-110117988D01*
X147376554Y-110331040D01*
X147474611Y-110567771D01*
X147524600Y-110819082D01*
X147524600Y-111075318D01*
X147474611Y-111326629D01*
X147376554Y-111563360D01*
X147234197Y-111776412D01*
X147053012Y-111957597D01*
X146839960Y-112099954D01*
X146603229Y-112198011D01*
X146351918Y-112248000D01*
X146095682Y-112248000D01*
X145844371Y-112198011D01*
X145607640Y-112099954D01*
X145394588Y-111957597D01*
X145213403Y-111776412D01*
X145071046Y-111563360D01*
X144972989Y-111326629D01*
X144923000Y-111075318D01*
X144923000Y-110819082D01*
X144972989Y-110567771D01*
X145071046Y-110331040D01*
X145213403Y-110117988D01*
X145394588Y-109936803D01*
X145607640Y-109794446D01*
X145844371Y-109696389D01*
X146095682Y-109646400D01*
X146351918Y-109646400D01*
X146603229Y-109696389D01*
G37*
G36*
X151214240Y-110322792D02*
G01*
X151237152Y-110329742D01*
X151258273Y-110341031D01*
X151276780Y-110356220D01*
X151291969Y-110374727D01*
X151303258Y-110395848D01*
X151310208Y-110418760D01*
X151312800Y-110445073D01*
X151312800Y-111296927D01*
X151310208Y-111323240D01*
X151303258Y-111346152D01*
X151291969Y-111367273D01*
X151276780Y-111385780D01*
X151258273Y-111400969D01*
X151237152Y-111412258D01*
X151214240Y-111419208D01*
X151187927Y-111421800D01*
X150386073Y-111421800D01*
X150359760Y-111419208D01*
X150336848Y-111412258D01*
X150315727Y-111400969D01*
X150297220Y-111385780D01*
X150282031Y-111367273D01*
X150270742Y-111346152D01*
X150263792Y-111323240D01*
X150261200Y-111296927D01*
X150261200Y-110445073D01*
X150263792Y-110418760D01*
X150270742Y-110395848D01*
X150282031Y-110374727D01*
X150297220Y-110356220D01*
X150315727Y-110341031D01*
X150336848Y-110329742D01*
X150359760Y-110322792D01*
X150386073Y-110320200D01*
X151187927Y-110320200D01*
X151214240Y-110322792D01*
G37*
G36*
X149614240Y-110322792D02*
G01*
X149637152Y-110329742D01*
X149658273Y-110341031D01*
X149676780Y-110356220D01*
X149691969Y-110374727D01*
X149703258Y-110395848D01*
X149710208Y-110418760D01*
X149712800Y-110445073D01*
X149712800Y-111296927D01*
X149710208Y-111323240D01*
X149703258Y-111346152D01*
X149691969Y-111367273D01*
X149676780Y-111385780D01*
X149658273Y-111400969D01*
X149637152Y-111412258D01*
X149614240Y-111419208D01*
X149587927Y-111421800D01*
X148786073Y-111421800D01*
X148759760Y-111419208D01*
X148736848Y-111412258D01*
X148715727Y-111400969D01*
X148697220Y-111385780D01*
X148682031Y-111367273D01*
X148670742Y-111346152D01*
X148663792Y-111323240D01*
X148661200Y-111296927D01*
X148661200Y-110445073D01*
X148663792Y-110418760D01*
X148670742Y-110395848D01*
X148682031Y-110374727D01*
X148697220Y-110356220D01*
X148715727Y-110341031D01*
X148736848Y-110329742D01*
X148759760Y-110322792D01*
X148786073Y-110320200D01*
X149587927Y-110320200D01*
X149614240Y-110322792D01*
G37*
G36*
X141867240Y-110322792D02*
G01*
X141890152Y-110329742D01*
X141911273Y-110341031D01*
X141929780Y-110356220D01*
X141944969Y-110374727D01*
X141956258Y-110395848D01*
X141963208Y-110418760D01*
X141965800Y-110445073D01*
X141965800Y-111296927D01*
X141963208Y-111323240D01*
X141956258Y-111346152D01*
X141944969Y-111367273D01*
X141929780Y-111385780D01*
X141911273Y-111400969D01*
X141890152Y-111412258D01*
X141867240Y-111419208D01*
X141840927Y-111421800D01*
X141039073Y-111421800D01*
X141012760Y-111419208D01*
X140989848Y-111412258D01*
X140968727Y-111400969D01*
X140950220Y-111385780D01*
X140935031Y-111367273D01*
X140923742Y-111346152D01*
X140916792Y-111323240D01*
X140914200Y-111296927D01*
X140914200Y-110445073D01*
X140916792Y-110418760D01*
X140923742Y-110395848D01*
X140935031Y-110374727D01*
X140950220Y-110356220D01*
X140968727Y-110341031D01*
X140989848Y-110329742D01*
X141012760Y-110322792D01*
X141039073Y-110320200D01*
X141840927Y-110320200D01*
X141867240Y-110322792D01*
G37*
G36*
X143467240Y-110322792D02*
G01*
X143490152Y-110329742D01*
X143511273Y-110341031D01*
X143529780Y-110356220D01*
X143544969Y-110374727D01*
X143556258Y-110395848D01*
X143563208Y-110418760D01*
X143565800Y-110445073D01*
X143565800Y-111296927D01*
X143563208Y-111323240D01*
X143556258Y-111346152D01*
X143544969Y-111367273D01*
X143529780Y-111385780D01*
X143511273Y-111400969D01*
X143490152Y-111412258D01*
X143467240Y-111419208D01*
X143440927Y-111421800D01*
X142639073Y-111421800D01*
X142612760Y-111419208D01*
X142589848Y-111412258D01*
X142568727Y-111400969D01*
X142550220Y-111385780D01*
X142535031Y-111367273D01*
X142523742Y-111346152D01*
X142516792Y-111323240D01*
X142514200Y-111296927D01*
X142514200Y-110445073D01*
X142516792Y-110418760D01*
X142523742Y-110395848D01*
X142535031Y-110374727D01*
X142550220Y-110356220D01*
X142568727Y-110341031D01*
X142589848Y-110329742D01*
X142612760Y-110322792D01*
X142639073Y-110320200D01*
X143440927Y-110320200D01*
X143467240Y-110322792D01*
G37*
G36*
X138940800Y-110492800D02*
G01*
X132839200Y-110492800D01*
X132839200Y-104391200D01*
X138940800Y-104391200D01*
X138940800Y-110492800D01*
G37*
G36*
X170386800Y-110170800D02*
G01*
X167685200Y-110170800D01*
X167685200Y-108269200D01*
X170386800Y-108269200D01*
X170386800Y-110170800D01*
G37*
G36*
X167086800Y-110170800D02*
G01*
X164385200Y-110170800D01*
X164385200Y-108269200D01*
X167086800Y-108269200D01*
X167086800Y-110170800D01*
G37*
G36*
X150115763Y-108554400D02*
G01*
X150975600Y-108554400D01*
X150975600Y-109377600D01*
X150115763Y-109377600D01*
X150115763Y-109377668D01*
X150112237Y-109377668D01*
X150112237Y-109377600D01*
X149252400Y-109377600D01*
X149252400Y-108554400D01*
X150112237Y-108554400D01*
X150112237Y-108554332D01*
X150115763Y-108554332D01*
X150115763Y-108554400D01*
G37*
G36*
X142241763Y-108554400D02*
G01*
X143101600Y-108554400D01*
X143101600Y-109377600D01*
X142241763Y-109377600D01*
X142241763Y-109377668D01*
X142238237Y-109377668D01*
X142238237Y-109377600D01*
X141378400Y-109377600D01*
X141378400Y-108554400D01*
X142238237Y-108554400D01*
X142238237Y-108554332D01*
X142241763Y-108554332D01*
X142241763Y-108554400D01*
G37*
G36*
X151436600Y-107760600D02*
G01*
X150283400Y-107760600D01*
X150283400Y-106107400D01*
X151436600Y-106107400D01*
X151436600Y-107760600D01*
G37*
G36*
X141816600Y-107760600D02*
G01*
X140663400Y-107760600D01*
X140663400Y-106107400D01*
X141816600Y-106107400D01*
X141816600Y-107760600D01*
G37*
G36*
X143816600Y-107760600D02*
G01*
X142663400Y-107760600D01*
X142663400Y-106107400D01*
X143816600Y-106107400D01*
X143816600Y-107760600D01*
G37*
G36*
X149436600Y-107760600D02*
G01*
X148283400Y-107760600D01*
X148283400Y-106107400D01*
X149436600Y-106107400D01*
X149436600Y-107760600D01*
G37*
G36*
X174351457Y-106393782D02*
G01*
X174454783Y-106425126D01*
X174550009Y-106476026D01*
X174633475Y-106544525D01*
X174701974Y-106627991D01*
X174752874Y-106723217D01*
X174784218Y-106826543D01*
X174794801Y-106933999D01*
X174794801Y-106934001D01*
X174784218Y-107041457D01*
X174752874Y-107144783D01*
X174701974Y-107240009D01*
X174633475Y-107323475D01*
X174550009Y-107391974D01*
X174454783Y-107442874D01*
X174351457Y-107474218D01*
X174244001Y-107484801D01*
X174243999Y-107484801D01*
X174136543Y-107474218D01*
X174033217Y-107442874D01*
X173937991Y-107391974D01*
X173854525Y-107323475D01*
X173786026Y-107240009D01*
X173735126Y-107144783D01*
X173703782Y-107041457D01*
X173693199Y-106934001D01*
X173693199Y-106933999D01*
X173703782Y-106826543D01*
X173735126Y-106723217D01*
X173786026Y-106627991D01*
X173854525Y-106544525D01*
X173937991Y-106476026D01*
X174033217Y-106425126D01*
X174136543Y-106393782D01*
X174243999Y-106383199D01*
X174244001Y-106383199D01*
X174351457Y-106393782D01*
G37*
G36*
X172319457Y-106393782D02*
G01*
X172422783Y-106425126D01*
X172518009Y-106476026D01*
X172601475Y-106544525D01*
X172669974Y-106627991D01*
X172720874Y-106723217D01*
X172752218Y-106826543D01*
X172762801Y-106933999D01*
X172762801Y-106934001D01*
X172752218Y-107041457D01*
X172720874Y-107144783D01*
X172669974Y-107240009D01*
X172601475Y-107323475D01*
X172518009Y-107391974D01*
X172422783Y-107442874D01*
X172319457Y-107474218D01*
X172212001Y-107484801D01*
X172211999Y-107484801D01*
X172104543Y-107474218D01*
X172001217Y-107442874D01*
X171905991Y-107391974D01*
X171822525Y-107323475D01*
X171754026Y-107240009D01*
X171703126Y-107144783D01*
X171671782Y-107041457D01*
X171661199Y-106934001D01*
X171661199Y-106933999D01*
X171671782Y-106826543D01*
X171703126Y-106723217D01*
X171754026Y-106627991D01*
X171822525Y-106544525D01*
X171905991Y-106476026D01*
X172001217Y-106425126D01*
X172104543Y-106393782D01*
X172211999Y-106383199D01*
X172212001Y-106383199D01*
X172319457Y-106393782D01*
G37*
G36*
X169773939Y-105106250D02*
G01*
X169791559Y-105111595D01*
X169807807Y-105120279D01*
X169822040Y-105131960D01*
X169833721Y-105146193D01*
X169842405Y-105162441D01*
X169847750Y-105180061D01*
X169849800Y-105200873D01*
X169849800Y-105871127D01*
X169847750Y-105891939D01*
X169842405Y-105909559D01*
X169833721Y-105925807D01*
X169822040Y-105940040D01*
X169807807Y-105951721D01*
X169791559Y-105960405D01*
X169773939Y-105965750D01*
X169753127Y-105967800D01*
X168574873Y-105967800D01*
X168554061Y-105965750D01*
X168536441Y-105960405D01*
X168520193Y-105951721D01*
X168505960Y-105940040D01*
X168494279Y-105925807D01*
X168485595Y-105909559D01*
X168480250Y-105891939D01*
X168478200Y-105871127D01*
X168478200Y-105200873D01*
X168480250Y-105180061D01*
X168485595Y-105162441D01*
X168494279Y-105146193D01*
X168505960Y-105131960D01*
X168520193Y-105120279D01*
X168536441Y-105111595D01*
X168554061Y-105106250D01*
X168574873Y-105104200D01*
X169753127Y-105104200D01*
X169773939Y-105106250D01*
G37*
G36*
X141606763Y-104363400D02*
G01*
X142466600Y-104363400D01*
X142466600Y-105186600D01*
X141606763Y-105186600D01*
X141606763Y-105186668D01*
X141603237Y-105186668D01*
X141603237Y-105186600D01*
X140743400Y-105186600D01*
X140743400Y-104363400D01*
X141603237Y-104363400D01*
X141603237Y-104363332D01*
X141606763Y-104363332D01*
X141606763Y-104363400D01*
G37*
G36*
X149226763Y-104363400D02*
G01*
X150086600Y-104363400D01*
X150086600Y-105186600D01*
X149226763Y-105186600D01*
X149226763Y-105186668D01*
X149223237Y-105186668D01*
X149223237Y-105186600D01*
X148363400Y-105186600D01*
X148363400Y-104363400D01*
X149223237Y-104363400D01*
X149223237Y-104363332D01*
X149226763Y-104363332D01*
X149226763Y-104363400D01*
G37*
G36*
X170194267Y-101808874D02*
G01*
X170261924Y-101829397D01*
X170324273Y-101862724D01*
X170378925Y-101907575D01*
X170423776Y-101962227D01*
X170457103Y-102024576D01*
X170477626Y-102092233D01*
X170484800Y-102165073D01*
X170484800Y-104206927D01*
X170477626Y-104279767D01*
X170457103Y-104347424D01*
X170423776Y-104409773D01*
X170378925Y-104464425D01*
X170324273Y-104509276D01*
X170261924Y-104542603D01*
X170194267Y-104563126D01*
X170121427Y-104570300D01*
X168206573Y-104570300D01*
X168133733Y-104563126D01*
X168066076Y-104542603D01*
X168003727Y-104509276D01*
X167949075Y-104464425D01*
X167904224Y-104409773D01*
X167870897Y-104347424D01*
X167850374Y-104279767D01*
X167843200Y-104206927D01*
X167843200Y-102165073D01*
X167850374Y-102092233D01*
X167870897Y-102024576D01*
X167904224Y-101962227D01*
X167949075Y-101907575D01*
X168003727Y-101862724D01*
X168066076Y-101829397D01*
X168133733Y-101808874D01*
X168206573Y-101801700D01*
X170121427Y-101801700D01*
X170194267Y-101808874D01*
G37*
G36*
X138347166Y-101070661D02*
G01*
X138482509Y-101097582D01*
X138673741Y-101176793D01*
X138845846Y-101291790D01*
X138992210Y-101438154D01*
X139107207Y-101610259D01*
X139186418Y-101801491D01*
X139226800Y-102004506D01*
X139226800Y-102211494D01*
X139186418Y-102414509D01*
X139107207Y-102605741D01*
X138992210Y-102777846D01*
X138845846Y-102924210D01*
X138673741Y-103039207D01*
X138482509Y-103118418D01*
X138347166Y-103145339D01*
X138279495Y-103158800D01*
X138072505Y-103158800D01*
X138004834Y-103145339D01*
X137869491Y-103118418D01*
X137678259Y-103039207D01*
X137506154Y-102924210D01*
X137359790Y-102777846D01*
X137244793Y-102605741D01*
X137165582Y-102414509D01*
X137125200Y-102211494D01*
X137125200Y-102004506D01*
X137165582Y-101801491D01*
X137244793Y-101610259D01*
X137359790Y-101438154D01*
X137506154Y-101291790D01*
X137678259Y-101176793D01*
X137869491Y-101097582D01*
X138004834Y-101070661D01*
X138072505Y-101057200D01*
X138279495Y-101057200D01*
X138347166Y-101070661D01*
G37*
G36*
X134146800Y-103158800D02*
G01*
X132045200Y-103158800D01*
X132045200Y-101057200D01*
X134146800Y-101057200D01*
X134146800Y-103158800D01*
G37*
G36*
X146603229Y-99536389D02*
G01*
X146839960Y-99634446D01*
X147053012Y-99776803D01*
X147234197Y-99957988D01*
X147376554Y-100171040D01*
X147474611Y-100407771D01*
X147524600Y-100659082D01*
X147524600Y-100915318D01*
X147474611Y-101166629D01*
X147376554Y-101403360D01*
X147234197Y-101616412D01*
X147053012Y-101797597D01*
X146839960Y-101939954D01*
X146603229Y-102038011D01*
X146351918Y-102088000D01*
X146095682Y-102088000D01*
X145844371Y-102038011D01*
X145607640Y-101939954D01*
X145394588Y-101797597D01*
X145213403Y-101616412D01*
X145071046Y-101403360D01*
X144972989Y-101166629D01*
X144923000Y-100915318D01*
X144923000Y-100659082D01*
X144972989Y-100407771D01*
X145071046Y-100171040D01*
X145213403Y-99957988D01*
X145394588Y-99776803D01*
X145607640Y-99634446D01*
X145844371Y-99536389D01*
X146095682Y-99486400D01*
X146351918Y-99486400D01*
X146603229Y-99536389D01*
G37*
G36*
X155258600Y-101398600D02*
G01*
X153605400Y-101398600D01*
X153605400Y-100245400D01*
X155258600Y-100245400D01*
X155258600Y-101398600D01*
G37*
G36*
X152852240Y-100098792D02*
G01*
X152875152Y-100105742D01*
X152896273Y-100117031D01*
X152914780Y-100132220D01*
X152929969Y-100150727D01*
X152941258Y-100171848D01*
X152948208Y-100194760D01*
X152950800Y-100221073D01*
X152950800Y-101022927D01*
X152948208Y-101049240D01*
X152941258Y-101072152D01*
X152929969Y-101093273D01*
X152914780Y-101111780D01*
X152896273Y-101126969D01*
X152875152Y-101138258D01*
X152852240Y-101145208D01*
X152825927Y-101147800D01*
X151974073Y-101147800D01*
X151947760Y-101145208D01*
X151924848Y-101138258D01*
X151903727Y-101126969D01*
X151885220Y-101111780D01*
X151870031Y-101093273D01*
X151858742Y-101072152D01*
X151851792Y-101049240D01*
X151849200Y-101022927D01*
X151849200Y-100221073D01*
X151851792Y-100194760D01*
X151858742Y-100171848D01*
X151870031Y-100150727D01*
X151885220Y-100132220D01*
X151903727Y-100117031D01*
X151924848Y-100105742D01*
X151947760Y-100098792D01*
X151974073Y-100096200D01*
X152825927Y-100096200D01*
X152852240Y-100098792D01*
G37*
G36*
X156916240Y-100098792D02*
G01*
X156939152Y-100105742D01*
X156960273Y-100117031D01*
X156978780Y-100132220D01*
X156993969Y-100150727D01*
X157005258Y-100171848D01*
X157012208Y-100194760D01*
X157014800Y-100221073D01*
X157014800Y-101022927D01*
X157012208Y-101049240D01*
X157005258Y-101072152D01*
X156993969Y-101093273D01*
X156978780Y-101111780D01*
X156960273Y-101126969D01*
X156939152Y-101138258D01*
X156916240Y-101145208D01*
X156889927Y-101147800D01*
X156038073Y-101147800D01*
X156011760Y-101145208D01*
X155988848Y-101138258D01*
X155967727Y-101126969D01*
X155949220Y-101111780D01*
X155934031Y-101093273D01*
X155922742Y-101072152D01*
X155915792Y-101049240D01*
X155913200Y-101022927D01*
X155913200Y-100221073D01*
X155915792Y-100194760D01*
X155922742Y-100171848D01*
X155934031Y-100150727D01*
X155949220Y-100132220D01*
X155967727Y-100117031D01*
X155988848Y-100105742D01*
X156011760Y-100098792D01*
X156038073Y-100096200D01*
X156889927Y-100096200D01*
X156916240Y-100098792D01*
G37*
G36*
X150820240Y-100098792D02*
G01*
X150843152Y-100105742D01*
X150864273Y-100117031D01*
X150882780Y-100132220D01*
X150897969Y-100150727D01*
X150909258Y-100171848D01*
X150916208Y-100194760D01*
X150918800Y-100221073D01*
X150918800Y-101022927D01*
X150916208Y-101049240D01*
X150909258Y-101072152D01*
X150897969Y-101093273D01*
X150882780Y-101111780D01*
X150864273Y-101126969D01*
X150843152Y-101138258D01*
X150820240Y-101145208D01*
X150793927Y-101147800D01*
X149942073Y-101147800D01*
X149915760Y-101145208D01*
X149892848Y-101138258D01*
X149871727Y-101126969D01*
X149853220Y-101111780D01*
X149838031Y-101093273D01*
X149826742Y-101072152D01*
X149819792Y-101049240D01*
X149817200Y-101022927D01*
X149817200Y-100221073D01*
X149819792Y-100194760D01*
X149826742Y-100171848D01*
X149838031Y-100150727D01*
X149853220Y-100132220D01*
X149871727Y-100117031D01*
X149892848Y-100105742D01*
X149915760Y-100098792D01*
X149942073Y-100096200D01*
X150793927Y-100096200D01*
X150820240Y-100098792D01*
G37*
G36*
X138307567Y-98522784D02*
G01*
X138482509Y-98557582D01*
X138673741Y-98636793D01*
X138845846Y-98751790D01*
X138992210Y-98898154D01*
X139107207Y-99070259D01*
X139186418Y-99261491D01*
X139186418Y-99261493D01*
X139223764Y-99449240D01*
X139226800Y-99464506D01*
X139226800Y-99671494D01*
X139186418Y-99874509D01*
X139107207Y-100065741D01*
X138992210Y-100237846D01*
X138845846Y-100384210D01*
X138673741Y-100499207D01*
X138482509Y-100578418D01*
X138347166Y-100605339D01*
X138279495Y-100618800D01*
X138072505Y-100618800D01*
X138004834Y-100605339D01*
X137869491Y-100578418D01*
X137678259Y-100499207D01*
X137506154Y-100384210D01*
X137359790Y-100237846D01*
X137244793Y-100065741D01*
X137165582Y-99874509D01*
X137125200Y-99671494D01*
X137125200Y-99464506D01*
X137128237Y-99449240D01*
X137165582Y-99261493D01*
X137165582Y-99261491D01*
X137244793Y-99070259D01*
X137359790Y-98898154D01*
X137506154Y-98751790D01*
X137678259Y-98636793D01*
X137869491Y-98557582D01*
X138044433Y-98522784D01*
X138072505Y-98517200D01*
X138279495Y-98517200D01*
X138307567Y-98522784D01*
G37*
G36*
X133227567Y-98522784D02*
G01*
X133402509Y-98557582D01*
X133593741Y-98636793D01*
X133765846Y-98751790D01*
X133912210Y-98898154D01*
X134027207Y-99070259D01*
X134106418Y-99261491D01*
X134106418Y-99261493D01*
X134143764Y-99449240D01*
X134146800Y-99464506D01*
X134146800Y-99671494D01*
X134106418Y-99874509D01*
X134027207Y-100065741D01*
X133912210Y-100237846D01*
X133765846Y-100384210D01*
X133593741Y-100499207D01*
X133402509Y-100578418D01*
X133267166Y-100605339D01*
X133199495Y-100618800D01*
X132992505Y-100618800D01*
X132924834Y-100605339D01*
X132789491Y-100578418D01*
X132598259Y-100499207D01*
X132426154Y-100384210D01*
X132279790Y-100237846D01*
X132164793Y-100065741D01*
X132085582Y-99874509D01*
X132045200Y-99671494D01*
X132045200Y-99464506D01*
X132048237Y-99449240D01*
X132085582Y-99261493D01*
X132085582Y-99261491D01*
X132164793Y-99070259D01*
X132279790Y-98898154D01*
X132426154Y-98751790D01*
X132598259Y-98636793D01*
X132789491Y-98557582D01*
X132964433Y-98522784D01*
X132992505Y-98517200D01*
X133199495Y-98517200D01*
X133227567Y-98522784D01*
G37*
G36*
X150820240Y-98498792D02*
G01*
X150843152Y-98505742D01*
X150864273Y-98517031D01*
X150882780Y-98532220D01*
X150897969Y-98550727D01*
X150909258Y-98571848D01*
X150916208Y-98594760D01*
X150918800Y-98621073D01*
X150918800Y-99422927D01*
X150916208Y-99449240D01*
X150909258Y-99472152D01*
X150897969Y-99493273D01*
X150882780Y-99511780D01*
X150864273Y-99526969D01*
X150843152Y-99538258D01*
X150820240Y-99545208D01*
X150793927Y-99547800D01*
X149942073Y-99547800D01*
X149915760Y-99545208D01*
X149892848Y-99538258D01*
X149871727Y-99526969D01*
X149853220Y-99511780D01*
X149838031Y-99493273D01*
X149826742Y-99472152D01*
X149819792Y-99449240D01*
X149817200Y-99422927D01*
X149817200Y-98621073D01*
X149819792Y-98594760D01*
X149826742Y-98571848D01*
X149838031Y-98550727D01*
X149853220Y-98532220D01*
X149871727Y-98517031D01*
X149892848Y-98505742D01*
X149915760Y-98498792D01*
X149942073Y-98496200D01*
X150793927Y-98496200D01*
X150820240Y-98498792D01*
G37*
G36*
X152852240Y-98498792D02*
G01*
X152875152Y-98505742D01*
X152896273Y-98517031D01*
X152914780Y-98532220D01*
X152929969Y-98550727D01*
X152941258Y-98571848D01*
X152948208Y-98594760D01*
X152950800Y-98621073D01*
X152950800Y-99422927D01*
X152948208Y-99449240D01*
X152941258Y-99472152D01*
X152929969Y-99493273D01*
X152914780Y-99511780D01*
X152896273Y-99526969D01*
X152875152Y-99538258D01*
X152852240Y-99545208D01*
X152825927Y-99547800D01*
X151974073Y-99547800D01*
X151947760Y-99545208D01*
X151924848Y-99538258D01*
X151903727Y-99526969D01*
X151885220Y-99511780D01*
X151870031Y-99493273D01*
X151858742Y-99472152D01*
X151851792Y-99449240D01*
X151849200Y-99422927D01*
X151849200Y-98621073D01*
X151851792Y-98594760D01*
X151858742Y-98571848D01*
X151870031Y-98550727D01*
X151885220Y-98532220D01*
X151903727Y-98517031D01*
X151924848Y-98505742D01*
X151947760Y-98498792D01*
X151974073Y-98496200D01*
X152825927Y-98496200D01*
X152852240Y-98498792D01*
G37*
G36*
X156916240Y-98498792D02*
G01*
X156939152Y-98505742D01*
X156960273Y-98517031D01*
X156978780Y-98532220D01*
X156993969Y-98550727D01*
X157005258Y-98571848D01*
X157012208Y-98594760D01*
X157014800Y-98621073D01*
X157014800Y-99422927D01*
X157012208Y-99449240D01*
X157005258Y-99472152D01*
X156993969Y-99493273D01*
X156978780Y-99511780D01*
X156960273Y-99526969D01*
X156939152Y-99538258D01*
X156916240Y-99545208D01*
X156889927Y-99547800D01*
X156038073Y-99547800D01*
X156011760Y-99545208D01*
X155988848Y-99538258D01*
X155967727Y-99526969D01*
X155949220Y-99511780D01*
X155934031Y-99493273D01*
X155922742Y-99472152D01*
X155915792Y-99449240D01*
X155913200Y-99422927D01*
X155913200Y-98621073D01*
X155915792Y-98594760D01*
X155922742Y-98571848D01*
X155934031Y-98550727D01*
X155949220Y-98532220D01*
X155967727Y-98517031D01*
X155988848Y-98505742D01*
X156011760Y-98498792D01*
X156038073Y-98496200D01*
X156889927Y-98496200D01*
X156916240Y-98498792D01*
G37*
G36*
X155258600Y-99398600D02*
G01*
X153605400Y-99398600D01*
X153605400Y-98245400D01*
X155258600Y-98245400D01*
X155258600Y-99398600D01*
G37*
G36*
X162061996Y-95005211D02*
G01*
X162435218Y-95159805D01*
X162771109Y-95384240D01*
X163056760Y-95669891D01*
X163281195Y-96005782D01*
X163435789Y-96379004D01*
X163514600Y-96775214D01*
X163514600Y-97179186D01*
X163435789Y-97575396D01*
X163281195Y-97948618D01*
X163056760Y-98284509D01*
X162771109Y-98570160D01*
X162435218Y-98794595D01*
X162061996Y-98949189D01*
X161665786Y-99028000D01*
X161261814Y-99028000D01*
X160865604Y-98949189D01*
X160492382Y-98794595D01*
X160156491Y-98570160D01*
X159870840Y-98284509D01*
X159646405Y-97948618D01*
X159491811Y-97575396D01*
X159413000Y-97179186D01*
X159413000Y-96775214D01*
X159491811Y-96379004D01*
X159646405Y-96005782D01*
X159870840Y-95669891D01*
X160156491Y-95384240D01*
X160492382Y-95159805D01*
X160865604Y-95005211D01*
X161261814Y-94926400D01*
X161665786Y-94926400D01*
X162061996Y-95005211D01*
G37*
G36*
X141331457Y-97503782D02*
G01*
X141434783Y-97535126D01*
X141530009Y-97586026D01*
X141613475Y-97654525D01*
X141681974Y-97737991D01*
X141732874Y-97833217D01*
X141764218Y-97936543D01*
X141774801Y-98043999D01*
X141774801Y-98044001D01*
X141764218Y-98151457D01*
X141732874Y-98254783D01*
X141681974Y-98350009D01*
X141613475Y-98433475D01*
X141530009Y-98501974D01*
X141434783Y-98552874D01*
X141331457Y-98584218D01*
X141224001Y-98594801D01*
X141223999Y-98594801D01*
X141116543Y-98584218D01*
X141013217Y-98552874D01*
X140917991Y-98501974D01*
X140834525Y-98433475D01*
X140766026Y-98350009D01*
X140715126Y-98254783D01*
X140683782Y-98151457D01*
X140673199Y-98044001D01*
X140673199Y-98043999D01*
X140683782Y-97936543D01*
X140715126Y-97833217D01*
X140766026Y-97737991D01*
X140834525Y-97654525D01*
X140917991Y-97586026D01*
X141013217Y-97535126D01*
X141116543Y-97503782D01*
X141223999Y-97493199D01*
X141224001Y-97493199D01*
X141331457Y-97503782D01*
G37*
G36*
X144125457Y-97503782D02*
G01*
X144228783Y-97535126D01*
X144324009Y-97586026D01*
X144407475Y-97654525D01*
X144475974Y-97737991D01*
X144526874Y-97833217D01*
X144558218Y-97936543D01*
X144568801Y-98043999D01*
X144568801Y-98044001D01*
X144558218Y-98151457D01*
X144526874Y-98254783D01*
X144475974Y-98350009D01*
X144407475Y-98433475D01*
X144324009Y-98501974D01*
X144228783Y-98552874D01*
X144125457Y-98584218D01*
X144018001Y-98594801D01*
X144017999Y-98594801D01*
X143910543Y-98584218D01*
X143807217Y-98552874D01*
X143711991Y-98501974D01*
X143628525Y-98433475D01*
X143560026Y-98350009D01*
X143509126Y-98254783D01*
X143477782Y-98151457D01*
X143467199Y-98044001D01*
X143467199Y-98043999D01*
X143477782Y-97936543D01*
X143509126Y-97833217D01*
X143560026Y-97737991D01*
X143628525Y-97654525D01*
X143711991Y-97586026D01*
X143807217Y-97535126D01*
X143910543Y-97503782D01*
X144017999Y-97493199D01*
X144018001Y-97493199D01*
X144125457Y-97503782D01*
G37*
G36*
X146665457Y-97503782D02*
G01*
X146768783Y-97535126D01*
X146864009Y-97586026D01*
X146947475Y-97654525D01*
X147015974Y-97737991D01*
X147066874Y-97833217D01*
X147098218Y-97936543D01*
X147108801Y-98043999D01*
X147108801Y-98044001D01*
X147098218Y-98151457D01*
X147066874Y-98254783D01*
X147015974Y-98350009D01*
X146947475Y-98433475D01*
X146864009Y-98501974D01*
X146768783Y-98552874D01*
X146665457Y-98584218D01*
X146558001Y-98594801D01*
X146557999Y-98594801D01*
X146450543Y-98584218D01*
X146347217Y-98552874D01*
X146251991Y-98501974D01*
X146168525Y-98433475D01*
X146100026Y-98350009D01*
X146049126Y-98254783D01*
X146017782Y-98151457D01*
X146007199Y-98044001D01*
X146007199Y-98043999D01*
X146017782Y-97936543D01*
X146049126Y-97833217D01*
X146100026Y-97737991D01*
X146168525Y-97654525D01*
X146251991Y-97586026D01*
X146347217Y-97535126D01*
X146450543Y-97503782D01*
X146557999Y-97493199D01*
X146558001Y-97493199D01*
X146665457Y-97503782D01*
G37*
G36*
X142050600Y-96572600D02*
G01*
X140397400Y-96572600D01*
X140397400Y-95419400D01*
X142050600Y-95419400D01*
X142050600Y-96572600D01*
G37*
G36*
X155766600Y-96572600D02*
G01*
X154113400Y-96572600D01*
X154113400Y-95419400D01*
X155766600Y-95419400D01*
X155766600Y-96572600D01*
G37*
G36*
X147384600Y-96572600D02*
G01*
X145731400Y-96572600D01*
X145731400Y-95419400D01*
X147384600Y-95419400D01*
X147384600Y-96572600D01*
G37*
G36*
X153360240Y-95272792D02*
G01*
X153383152Y-95279742D01*
X153404273Y-95291031D01*
X153422780Y-95306220D01*
X153437969Y-95324727D01*
X153449258Y-95345848D01*
X153456208Y-95368760D01*
X153458800Y-95395073D01*
X153458800Y-96196927D01*
X153456208Y-96223240D01*
X153449258Y-96246152D01*
X153437969Y-96267273D01*
X153422780Y-96285780D01*
X153404273Y-96300969D01*
X153383152Y-96312258D01*
X153360240Y-96319208D01*
X153333927Y-96321800D01*
X152482073Y-96321800D01*
X152455760Y-96319208D01*
X152432848Y-96312258D01*
X152411727Y-96300969D01*
X152393220Y-96285780D01*
X152378031Y-96267273D01*
X152366742Y-96246152D01*
X152359792Y-96223240D01*
X152357200Y-96196927D01*
X152357200Y-95395073D01*
X152359792Y-95368760D01*
X152366742Y-95345848D01*
X152378031Y-95324727D01*
X152393220Y-95306220D01*
X152411727Y-95291031D01*
X152432848Y-95279742D01*
X152455760Y-95272792D01*
X152482073Y-95270200D01*
X153333927Y-95270200D01*
X153360240Y-95272792D01*
G37*
G36*
X151328240Y-95272792D02*
G01*
X151351152Y-95279742D01*
X151372273Y-95291031D01*
X151390780Y-95306220D01*
X151405969Y-95324727D01*
X151417258Y-95345848D01*
X151424208Y-95368760D01*
X151426800Y-95395073D01*
X151426800Y-96196927D01*
X151424208Y-96223240D01*
X151417258Y-96246152D01*
X151405969Y-96267273D01*
X151390780Y-96285780D01*
X151372273Y-96300969D01*
X151351152Y-96312258D01*
X151328240Y-96319208D01*
X151301927Y-96321800D01*
X150450073Y-96321800D01*
X150423760Y-96319208D01*
X150400848Y-96312258D01*
X150379727Y-96300969D01*
X150361220Y-96285780D01*
X150346031Y-96267273D01*
X150334742Y-96246152D01*
X150327792Y-96223240D01*
X150325200Y-96196927D01*
X150325200Y-95395073D01*
X150327792Y-95368760D01*
X150334742Y-95345848D01*
X150346031Y-95324727D01*
X150361220Y-95306220D01*
X150379727Y-95291031D01*
X150400848Y-95279742D01*
X150423760Y-95272792D01*
X150450073Y-95270200D01*
X151301927Y-95270200D01*
X151328240Y-95272792D01*
G37*
G36*
X151328240Y-93672792D02*
G01*
X151351152Y-93679742D01*
X151372273Y-93691031D01*
X151390780Y-93706220D01*
X151405969Y-93724727D01*
X151417258Y-93745848D01*
X151424208Y-93768760D01*
X151426800Y-93795073D01*
X151426800Y-94596927D01*
X151424208Y-94623240D01*
X151417258Y-94646152D01*
X151405969Y-94667273D01*
X151390780Y-94685780D01*
X151372273Y-94700969D01*
X151351152Y-94712258D01*
X151328240Y-94719208D01*
X151301927Y-94721800D01*
X150450073Y-94721800D01*
X150423760Y-94719208D01*
X150400848Y-94712258D01*
X150379727Y-94700969D01*
X150361220Y-94685780D01*
X150346031Y-94667273D01*
X150334742Y-94646152D01*
X150327792Y-94623240D01*
X150325200Y-94596927D01*
X150325200Y-93795073D01*
X150327792Y-93768760D01*
X150334742Y-93745848D01*
X150346031Y-93724727D01*
X150361220Y-93706220D01*
X150379727Y-93691031D01*
X150400848Y-93679742D01*
X150423760Y-93672792D01*
X150450073Y-93670200D01*
X151301927Y-93670200D01*
X151328240Y-93672792D01*
G37*
G36*
X153360240Y-93672792D02*
G01*
X153383152Y-93679742D01*
X153404273Y-93691031D01*
X153422780Y-93706220D01*
X153437969Y-93724727D01*
X153449258Y-93745848D01*
X153456208Y-93768760D01*
X153458800Y-93795073D01*
X153458800Y-94596927D01*
X153456208Y-94623240D01*
X153449258Y-94646152D01*
X153437969Y-94667273D01*
X153422780Y-94685780D01*
X153404273Y-94700969D01*
X153383152Y-94712258D01*
X153360240Y-94719208D01*
X153333927Y-94721800D01*
X152482073Y-94721800D01*
X152455760Y-94719208D01*
X152432848Y-94712258D01*
X152411727Y-94700969D01*
X152393220Y-94685780D01*
X152378031Y-94667273D01*
X152366742Y-94646152D01*
X152359792Y-94623240D01*
X152357200Y-94596927D01*
X152357200Y-93795073D01*
X152359792Y-93768760D01*
X152366742Y-93745848D01*
X152378031Y-93724727D01*
X152393220Y-93706220D01*
X152411727Y-93691031D01*
X152432848Y-93679742D01*
X152455760Y-93672792D01*
X152482073Y-93670200D01*
X153333927Y-93670200D01*
X153360240Y-93672792D01*
G37*
G36*
X142050600Y-94572600D02*
G01*
X140397400Y-94572600D01*
X140397400Y-93419400D01*
X142050600Y-93419400D01*
X142050600Y-94572600D01*
G37*
G36*
X147384600Y-94572600D02*
G01*
X145731400Y-94572600D01*
X145731400Y-93419400D01*
X147384600Y-93419400D01*
X147384600Y-94572600D01*
G37*
G36*
X155766600Y-94572600D02*
G01*
X154113400Y-94572600D01*
X154113400Y-93419400D01*
X155766600Y-93419400D01*
X155766600Y-94572600D01*
G37*
G36*
X138340481Y-90909331D02*
G01*
X138482509Y-90937582D01*
X138673741Y-91016793D01*
X138845846Y-91131790D01*
X138992210Y-91278154D01*
X139107207Y-91450259D01*
X139186418Y-91641491D01*
X139226800Y-91844506D01*
X139226800Y-92051494D01*
X139186418Y-92254509D01*
X139107207Y-92445741D01*
X138992210Y-92617846D01*
X138845846Y-92764210D01*
X138673741Y-92879207D01*
X138482509Y-92958418D01*
X138347166Y-92985339D01*
X138279495Y-92998800D01*
X138072505Y-92998800D01*
X138004834Y-92985339D01*
X137869491Y-92958418D01*
X137678259Y-92879207D01*
X137506154Y-92764210D01*
X137359790Y-92617846D01*
X137244793Y-92445741D01*
X137165582Y-92254509D01*
X137125200Y-92051494D01*
X137125200Y-91844506D01*
X137165582Y-91641491D01*
X137244793Y-91450259D01*
X137359790Y-91278154D01*
X137506154Y-91131790D01*
X137678259Y-91016793D01*
X137869491Y-90937582D01*
X138011519Y-90909331D01*
X138072505Y-90897200D01*
X138279495Y-90897200D01*
X138340481Y-90909331D01*
G37*
G36*
X133260481Y-90909331D02*
G01*
X133402509Y-90937582D01*
X133593741Y-91016793D01*
X133765846Y-91131790D01*
X133912210Y-91278154D01*
X134027207Y-91450259D01*
X134106418Y-91641491D01*
X134146800Y-91844506D01*
X134146800Y-92051494D01*
X134106418Y-92254509D01*
X134027207Y-92445741D01*
X133912210Y-92617846D01*
X133765846Y-92764210D01*
X133593741Y-92879207D01*
X133402509Y-92958418D01*
X133267166Y-92985339D01*
X133199495Y-92998800D01*
X132992505Y-92998800D01*
X132924834Y-92985339D01*
X132789491Y-92958418D01*
X132598259Y-92879207D01*
X132426154Y-92764210D01*
X132279790Y-92617846D01*
X132164793Y-92445741D01*
X132085582Y-92254509D01*
X132045200Y-92051494D01*
X132045200Y-91844506D01*
X132085582Y-91641491D01*
X132164793Y-91450259D01*
X132279790Y-91278154D01*
X132426154Y-91131790D01*
X132598259Y-91016793D01*
X132789491Y-90937582D01*
X132931519Y-90909331D01*
X132992505Y-90897200D01*
X133199495Y-90897200D01*
X133260481Y-90909331D01*
G37*
G36*
X165473800Y-92638800D02*
G01*
X163622200Y-92638800D01*
X163622200Y-83637200D01*
X165473800Y-83637200D01*
X165473800Y-92638800D01*
G37*
G36*
X172673800Y-92638800D02*
G01*
X170822200Y-92638800D01*
X170822200Y-83637200D01*
X172673800Y-83637200D01*
X172673800Y-92638800D01*
G37*
G36*
X141802298Y-90834578D02*
G01*
X141835277Y-90844582D01*
X141865670Y-90860828D01*
X141892310Y-90882691D01*
X141914173Y-90909331D01*
X141930419Y-90939724D01*
X141940423Y-90972703D01*
X141943801Y-91007000D01*
X141943801Y-91757000D01*
X141940423Y-91791297D01*
X141930419Y-91824276D01*
X141914173Y-91854669D01*
X141892310Y-91881309D01*
X141865670Y-91903172D01*
X141835277Y-91919418D01*
X141802298Y-91929422D01*
X141768001Y-91932800D01*
X141767999Y-91932800D01*
X141733702Y-91929422D01*
X141700723Y-91919418D01*
X141670330Y-91903172D01*
X141643690Y-91881309D01*
X141621827Y-91854669D01*
X141605581Y-91824276D01*
X141595577Y-91791297D01*
X141592199Y-91757000D01*
X141592199Y-91007000D01*
X141595577Y-90972703D01*
X141605581Y-90939724D01*
X141621827Y-90909331D01*
X141643690Y-90882691D01*
X141670330Y-90860828D01*
X141700723Y-90844582D01*
X141733702Y-90834578D01*
X141767999Y-90831200D01*
X141768001Y-90831200D01*
X141802298Y-90834578D01*
G37*
G36*
X142302298Y-90834578D02*
G01*
X142335277Y-90844582D01*
X142365670Y-90860828D01*
X142392310Y-90882691D01*
X142414173Y-90909331D01*
X142430419Y-90939724D01*
X142440423Y-90972703D01*
X142443801Y-91007000D01*
X142443801Y-91757000D01*
X142440423Y-91791297D01*
X142430419Y-91824276D01*
X142414173Y-91854669D01*
X142392310Y-91881309D01*
X142365670Y-91903172D01*
X142335277Y-91919418D01*
X142302298Y-91929422D01*
X142268001Y-91932800D01*
X142267999Y-91932800D01*
X142233702Y-91929422D01*
X142200723Y-91919418D01*
X142170330Y-91903172D01*
X142143690Y-91881309D01*
X142121827Y-91854669D01*
X142105581Y-91824276D01*
X142095577Y-91791297D01*
X142092199Y-91757000D01*
X142092199Y-91007000D01*
X142095577Y-90972703D01*
X142105581Y-90939724D01*
X142121827Y-90909331D01*
X142143690Y-90882691D01*
X142170330Y-90860828D01*
X142200723Y-90844582D01*
X142233702Y-90834578D01*
X142267999Y-90831200D01*
X142268001Y-90831200D01*
X142302298Y-90834578D01*
G37*
G36*
X145802298Y-90834578D02*
G01*
X145835277Y-90844582D01*
X145865670Y-90860828D01*
X145892310Y-90882691D01*
X145914173Y-90909331D01*
X145930419Y-90939724D01*
X145940423Y-90972703D01*
X145943801Y-91007000D01*
X145943801Y-91757000D01*
X145940423Y-91791297D01*
X145930419Y-91824276D01*
X145914173Y-91854669D01*
X145892310Y-91881309D01*
X145865670Y-91903172D01*
X145835277Y-91919418D01*
X145802298Y-91929422D01*
X145768001Y-91932800D01*
X145767999Y-91932800D01*
X145733702Y-91929422D01*
X145700723Y-91919418D01*
X145670330Y-91903172D01*
X145643690Y-91881309D01*
X145621827Y-91854669D01*
X145605581Y-91824276D01*
X145595577Y-91791297D01*
X145592199Y-91757000D01*
X145592199Y-91007000D01*
X145595577Y-90972703D01*
X145605581Y-90939724D01*
X145621827Y-90909331D01*
X145643690Y-90882691D01*
X145670330Y-90860828D01*
X145700723Y-90844582D01*
X145733702Y-90834578D01*
X145767999Y-90831200D01*
X145768001Y-90831200D01*
X145802298Y-90834578D01*
G37*
G36*
X142802298Y-90834578D02*
G01*
X142835277Y-90844582D01*
X142865670Y-90860828D01*
X142892310Y-90882691D01*
X142914173Y-90909331D01*
X142930419Y-90939724D01*
X142940423Y-90972703D01*
X142943801Y-91007000D01*
X142943801Y-91757000D01*
X142940423Y-91791297D01*
X142930419Y-91824276D01*
X142914173Y-91854669D01*
X142892310Y-91881309D01*
X142865670Y-91903172D01*
X142835277Y-91919418D01*
X142802298Y-91929422D01*
X142768001Y-91932800D01*
X142767999Y-91932800D01*
X142733702Y-91929422D01*
X142700723Y-91919418D01*
X142670330Y-91903172D01*
X142643690Y-91881309D01*
X142621827Y-91854669D01*
X142605581Y-91824276D01*
X142595577Y-91791297D01*
X142592199Y-91757000D01*
X142592199Y-91007000D01*
X142595577Y-90972703D01*
X142605581Y-90939724D01*
X142621827Y-90909331D01*
X142643690Y-90882691D01*
X142670330Y-90860828D01*
X142700723Y-90844582D01*
X142733702Y-90834578D01*
X142767999Y-90831200D01*
X142768001Y-90831200D01*
X142802298Y-90834578D01*
G37*
G36*
X143802298Y-90834578D02*
G01*
X143835277Y-90844582D01*
X143865670Y-90860828D01*
X143892310Y-90882691D01*
X143914173Y-90909331D01*
X143930419Y-90939724D01*
X143940423Y-90972703D01*
X143943801Y-91007000D01*
X143943801Y-91757000D01*
X143940423Y-91791297D01*
X143930419Y-91824276D01*
X143914173Y-91854669D01*
X143892310Y-91881309D01*
X143865670Y-91903172D01*
X143835277Y-91919418D01*
X143802298Y-91929422D01*
X143768001Y-91932800D01*
X143767999Y-91932800D01*
X143733702Y-91929422D01*
X143700723Y-91919418D01*
X143670330Y-91903172D01*
X143643690Y-91881309D01*
X143621827Y-91854669D01*
X143605581Y-91824276D01*
X143595577Y-91791297D01*
X143592199Y-91757000D01*
X143592199Y-91007000D01*
X143595577Y-90972703D01*
X143605581Y-90939724D01*
X143621827Y-90909331D01*
X143643690Y-90882691D01*
X143670330Y-90860828D01*
X143700723Y-90844582D01*
X143733702Y-90834578D01*
X143767999Y-90831200D01*
X143768001Y-90831200D01*
X143802298Y-90834578D01*
G37*
G36*
X144302298Y-90834578D02*
G01*
X144335277Y-90844582D01*
X144365670Y-90860828D01*
X144392310Y-90882691D01*
X144414173Y-90909331D01*
X144430419Y-90939724D01*
X144440423Y-90972703D01*
X144443801Y-91007000D01*
X144443801Y-91757000D01*
X144440423Y-91791297D01*
X144430419Y-91824276D01*
X144414173Y-91854669D01*
X144392310Y-91881309D01*
X144365670Y-91903172D01*
X144335277Y-91919418D01*
X144302298Y-91929422D01*
X144268001Y-91932800D01*
X144267999Y-91932800D01*
X144233702Y-91929422D01*
X144200723Y-91919418D01*
X144170330Y-91903172D01*
X144143690Y-91881309D01*
X144121827Y-91854669D01*
X144105581Y-91824276D01*
X144095577Y-91791297D01*
X144092199Y-91757000D01*
X144092199Y-91007000D01*
X144095577Y-90972703D01*
X144105581Y-90939724D01*
X144121827Y-90909331D01*
X144143690Y-90882691D01*
X144170330Y-90860828D01*
X144200723Y-90844582D01*
X144233702Y-90834578D01*
X144267999Y-90831200D01*
X144268001Y-90831200D01*
X144302298Y-90834578D01*
G37*
G36*
X144802298Y-90834578D02*
G01*
X144835277Y-90844582D01*
X144865670Y-90860828D01*
X144892310Y-90882691D01*
X144914173Y-90909331D01*
X144930419Y-90939724D01*
X144940423Y-90972703D01*
X144943801Y-91007000D01*
X144943801Y-91757000D01*
X144940423Y-91791297D01*
X144930419Y-91824276D01*
X144914173Y-91854669D01*
X144892310Y-91881309D01*
X144865670Y-91903172D01*
X144835277Y-91919418D01*
X144802298Y-91929422D01*
X144768001Y-91932800D01*
X144767999Y-91932800D01*
X144733702Y-91929422D01*
X144700723Y-91919418D01*
X144670330Y-91903172D01*
X144643690Y-91881309D01*
X144621827Y-91854669D01*
X144605581Y-91824276D01*
X144595577Y-91791297D01*
X144592199Y-91757000D01*
X144592199Y-91007000D01*
X144595577Y-90972703D01*
X144605581Y-90939724D01*
X144621827Y-90909331D01*
X144643690Y-90882691D01*
X144670330Y-90860828D01*
X144700723Y-90844582D01*
X144733702Y-90834578D01*
X144767999Y-90831200D01*
X144768001Y-90831200D01*
X144802298Y-90834578D01*
G37*
G36*
X145302298Y-90834578D02*
G01*
X145335277Y-90844582D01*
X145365670Y-90860828D01*
X145392310Y-90882691D01*
X145414173Y-90909331D01*
X145430419Y-90939724D01*
X145440423Y-90972703D01*
X145443801Y-91007000D01*
X145443801Y-91757000D01*
X145440423Y-91791297D01*
X145430419Y-91824276D01*
X145414173Y-91854669D01*
X145392310Y-91881309D01*
X145365670Y-91903172D01*
X145335277Y-91919418D01*
X145302298Y-91929422D01*
X145268001Y-91932800D01*
X145267999Y-91932800D01*
X145233702Y-91929422D01*
X145200723Y-91919418D01*
X145170330Y-91903172D01*
X145143690Y-91881309D01*
X145121827Y-91854669D01*
X145105581Y-91824276D01*
X145095577Y-91791297D01*
X145092199Y-91757000D01*
X145092199Y-91007000D01*
X145095577Y-90972703D01*
X145105581Y-90939724D01*
X145121827Y-90909331D01*
X145143690Y-90882691D01*
X145170330Y-90860828D01*
X145200723Y-90844582D01*
X145233702Y-90834578D01*
X145267999Y-90831200D01*
X145268001Y-90831200D01*
X145302298Y-90834578D01*
G37*
G36*
X146302298Y-90834578D02*
G01*
X146335277Y-90844582D01*
X146365670Y-90860828D01*
X146392310Y-90882691D01*
X146414173Y-90909331D01*
X146430419Y-90939724D01*
X146440423Y-90972703D01*
X146443801Y-91007000D01*
X146443801Y-91757000D01*
X146440423Y-91791297D01*
X146430419Y-91824276D01*
X146414173Y-91854669D01*
X146392310Y-91881309D01*
X146365670Y-91903172D01*
X146335277Y-91919418D01*
X146302298Y-91929422D01*
X146268001Y-91932800D01*
X146267999Y-91932800D01*
X146233702Y-91929422D01*
X146200723Y-91919418D01*
X146170330Y-91903172D01*
X146143690Y-91881309D01*
X146121827Y-91854669D01*
X146105581Y-91824276D01*
X146095577Y-91791297D01*
X146092199Y-91757000D01*
X146092199Y-91007000D01*
X146095577Y-90972703D01*
X146105581Y-90939724D01*
X146121827Y-90909331D01*
X146143690Y-90882691D01*
X146170330Y-90860828D01*
X146200723Y-90844582D01*
X146233702Y-90834578D01*
X146267999Y-90831200D01*
X146268001Y-90831200D01*
X146302298Y-90834578D01*
G37*
G36*
X143302298Y-90834578D02*
G01*
X143335277Y-90844582D01*
X143365670Y-90860828D01*
X143392310Y-90882691D01*
X143414173Y-90909331D01*
X143430419Y-90939724D01*
X143440423Y-90972703D01*
X143443801Y-91007000D01*
X143443801Y-91757000D01*
X143440423Y-91791297D01*
X143430419Y-91824276D01*
X143414173Y-91854669D01*
X143392310Y-91881309D01*
X143365670Y-91903172D01*
X143335277Y-91919418D01*
X143302298Y-91929422D01*
X143268001Y-91932800D01*
X143267999Y-91932800D01*
X143233702Y-91929422D01*
X143200723Y-91919418D01*
X143170330Y-91903172D01*
X143143690Y-91881309D01*
X143121827Y-91854669D01*
X143105581Y-91824276D01*
X143095577Y-91791297D01*
X143092199Y-91757000D01*
X143092199Y-91007000D01*
X143095577Y-90972703D01*
X143105581Y-90939724D01*
X143121827Y-90909331D01*
X143143690Y-90882691D01*
X143170330Y-90860828D01*
X143200723Y-90844582D01*
X143233702Y-90834578D01*
X143267999Y-90831200D01*
X143268001Y-90831200D01*
X143302298Y-90834578D01*
G37*
G36*
X155405240Y-90383792D02*
G01*
X155428152Y-90390742D01*
X155449273Y-90402031D01*
X155467780Y-90417220D01*
X155482969Y-90435727D01*
X155494258Y-90456848D01*
X155501208Y-90479760D01*
X155503800Y-90506073D01*
X155503800Y-91357927D01*
X155501208Y-91384240D01*
X155494258Y-91407152D01*
X155482969Y-91428273D01*
X155467780Y-91446780D01*
X155449273Y-91461969D01*
X155428152Y-91473258D01*
X155405240Y-91480208D01*
X155378927Y-91482800D01*
X154577073Y-91482800D01*
X154550760Y-91480208D01*
X154527848Y-91473258D01*
X154506727Y-91461969D01*
X154488220Y-91446780D01*
X154473031Y-91428273D01*
X154461742Y-91407152D01*
X154454792Y-91384240D01*
X154452200Y-91357927D01*
X154452200Y-90506073D01*
X154454792Y-90479760D01*
X154461742Y-90456848D01*
X154473031Y-90435727D01*
X154488220Y-90417220D01*
X154506727Y-90402031D01*
X154527848Y-90390742D01*
X154550760Y-90383792D01*
X154577073Y-90381200D01*
X155378927Y-90381200D01*
X155405240Y-90383792D01*
G37*
G36*
X153805240Y-90383792D02*
G01*
X153828152Y-90390742D01*
X153849273Y-90402031D01*
X153867780Y-90417220D01*
X153882969Y-90435727D01*
X153894258Y-90456848D01*
X153901208Y-90479760D01*
X153903800Y-90506073D01*
X153903800Y-91357927D01*
X153901208Y-91384240D01*
X153894258Y-91407152D01*
X153882969Y-91428273D01*
X153867780Y-91446780D01*
X153849273Y-91461969D01*
X153828152Y-91473258D01*
X153805240Y-91480208D01*
X153778927Y-91482800D01*
X152977073Y-91482800D01*
X152950760Y-91480208D01*
X152927848Y-91473258D01*
X152906727Y-91461969D01*
X152888220Y-91446780D01*
X152873031Y-91428273D01*
X152861742Y-91407152D01*
X152854792Y-91384240D01*
X152852200Y-91357927D01*
X152852200Y-90506073D01*
X152854792Y-90479760D01*
X152861742Y-90456848D01*
X152873031Y-90435727D01*
X152888220Y-90417220D01*
X152906727Y-90402031D01*
X152927848Y-90390742D01*
X152950760Y-90383792D01*
X152977073Y-90381200D01*
X153778927Y-90381200D01*
X153805240Y-90383792D01*
G37*
G36*
X141437297Y-90469577D02*
G01*
X141470276Y-90479581D01*
X141500669Y-90495827D01*
X141527309Y-90517690D01*
X141549172Y-90544330D01*
X141565418Y-90574723D01*
X141575422Y-90607702D01*
X141578800Y-90641999D01*
X141578800Y-90642001D01*
X141575422Y-90676298D01*
X141565418Y-90709277D01*
X141549172Y-90739670D01*
X141527309Y-90766310D01*
X141500669Y-90788173D01*
X141470276Y-90804419D01*
X141437297Y-90814423D01*
X141403000Y-90817801D01*
X140653000Y-90817801D01*
X140618703Y-90814423D01*
X140585724Y-90804419D01*
X140555331Y-90788173D01*
X140528691Y-90766310D01*
X140506828Y-90739670D01*
X140490582Y-90709277D01*
X140480578Y-90676298D01*
X140477200Y-90642001D01*
X140477200Y-90641999D01*
X140480578Y-90607702D01*
X140490582Y-90574723D01*
X140506828Y-90544330D01*
X140528691Y-90517690D01*
X140555331Y-90495827D01*
X140585724Y-90479581D01*
X140618703Y-90469577D01*
X140653000Y-90466199D01*
X141403000Y-90466199D01*
X141437297Y-90469577D01*
G37*
G36*
X147417297Y-90469577D02*
G01*
X147450276Y-90479581D01*
X147480669Y-90495827D01*
X147507309Y-90517690D01*
X147529172Y-90544330D01*
X147545418Y-90574723D01*
X147555422Y-90607702D01*
X147558800Y-90641999D01*
X147558800Y-90642001D01*
X147555422Y-90676298D01*
X147545418Y-90709277D01*
X147529172Y-90739670D01*
X147507309Y-90766310D01*
X147480669Y-90788173D01*
X147450276Y-90804419D01*
X147417297Y-90814423D01*
X147383000Y-90817801D01*
X146633000Y-90817801D01*
X146598703Y-90814423D01*
X146565724Y-90804419D01*
X146535331Y-90788173D01*
X146508691Y-90766310D01*
X146486828Y-90739670D01*
X146470582Y-90709277D01*
X146460578Y-90676298D01*
X146457200Y-90642001D01*
X146457200Y-90641999D01*
X146460578Y-90607702D01*
X146470582Y-90574723D01*
X146486828Y-90544330D01*
X146508691Y-90517690D01*
X146535331Y-90495827D01*
X146565724Y-90479581D01*
X146598703Y-90469577D01*
X146633000Y-90466199D01*
X147383000Y-90466199D01*
X147417297Y-90469577D01*
G37*
G36*
X151541600Y-89914237D02*
G01*
X151541668Y-89914237D01*
X151541668Y-89917763D01*
X151541600Y-89917763D01*
X151541600Y-90777600D01*
X150718400Y-90777600D01*
X150718400Y-89917763D01*
X150718332Y-89917763D01*
X150718332Y-89914237D01*
X150718400Y-89914237D01*
X150718400Y-89054400D01*
X151541600Y-89054400D01*
X151541600Y-89914237D01*
G37*
G36*
X146068800Y-90442800D02*
G01*
X141967200Y-90442800D01*
X141967200Y-86341200D01*
X146068800Y-86341200D01*
X146068800Y-90442800D01*
G37*
G36*
X141437297Y-89969577D02*
G01*
X141470276Y-89979581D01*
X141500669Y-89995827D01*
X141527309Y-90017690D01*
X141549172Y-90044330D01*
X141565418Y-90074723D01*
X141575422Y-90107702D01*
X141578800Y-90141999D01*
X141578800Y-90142001D01*
X141575422Y-90176298D01*
X141565418Y-90209277D01*
X141549172Y-90239670D01*
X141527309Y-90266310D01*
X141500669Y-90288173D01*
X141470276Y-90304419D01*
X141437297Y-90314423D01*
X141403000Y-90317801D01*
X140653000Y-90317801D01*
X140618703Y-90314423D01*
X140585724Y-90304419D01*
X140555331Y-90288173D01*
X140528691Y-90266310D01*
X140506828Y-90239670D01*
X140490582Y-90209277D01*
X140480578Y-90176298D01*
X140477200Y-90142001D01*
X140477200Y-90141999D01*
X140480578Y-90107702D01*
X140490582Y-90074723D01*
X140506828Y-90044330D01*
X140528691Y-90017690D01*
X140555331Y-89995827D01*
X140585724Y-89979581D01*
X140618703Y-89969577D01*
X140653000Y-89966199D01*
X141403000Y-89966199D01*
X141437297Y-89969577D01*
G37*
G36*
X147417297Y-89969577D02*
G01*
X147450276Y-89979581D01*
X147480669Y-89995827D01*
X147507309Y-90017690D01*
X147529172Y-90044330D01*
X147545418Y-90074723D01*
X147555422Y-90107702D01*
X147558800Y-90141999D01*
X147558800Y-90142001D01*
X147555422Y-90176298D01*
X147545418Y-90209277D01*
X147529172Y-90239670D01*
X147507309Y-90266310D01*
X147480669Y-90288173D01*
X147450276Y-90304419D01*
X147417297Y-90314423D01*
X147383000Y-90317801D01*
X146633000Y-90317801D01*
X146598703Y-90314423D01*
X146565724Y-90304419D01*
X146535331Y-90288173D01*
X146508691Y-90266310D01*
X146486828Y-90239670D01*
X146470582Y-90209277D01*
X146460578Y-90176298D01*
X146457200Y-90142001D01*
X146457200Y-90141999D01*
X146460578Y-90107702D01*
X146470582Y-90074723D01*
X146486828Y-90044330D01*
X146508691Y-90017690D01*
X146535331Y-89995827D01*
X146565724Y-89979581D01*
X146598703Y-89969577D01*
X146633000Y-89966199D01*
X147383000Y-89966199D01*
X147417297Y-89969577D01*
G37*
G36*
X135339240Y-88859792D02*
G01*
X135362152Y-88866742D01*
X135383273Y-88878031D01*
X135401780Y-88893220D01*
X135416969Y-88911727D01*
X135428258Y-88932848D01*
X135435208Y-88955760D01*
X135437800Y-88982073D01*
X135437800Y-89833927D01*
X135435208Y-89860240D01*
X135428258Y-89883152D01*
X135416969Y-89904273D01*
X135401780Y-89922780D01*
X135383273Y-89937969D01*
X135362152Y-89949258D01*
X135339240Y-89956208D01*
X135312927Y-89958800D01*
X134511073Y-89958800D01*
X134484760Y-89956208D01*
X134461848Y-89949258D01*
X134440727Y-89937969D01*
X134422220Y-89922780D01*
X134407031Y-89904273D01*
X134395742Y-89883152D01*
X134388792Y-89860240D01*
X134386200Y-89833927D01*
X134386200Y-88982073D01*
X134388792Y-88955760D01*
X134395742Y-88932848D01*
X134407031Y-88911727D01*
X134422220Y-88893220D01*
X134440727Y-88878031D01*
X134461848Y-88866742D01*
X134484760Y-88859792D01*
X134511073Y-88857200D01*
X135312927Y-88857200D01*
X135339240Y-88859792D01*
G37*
G36*
X133739240Y-88859792D02*
G01*
X133762152Y-88866742D01*
X133783273Y-88878031D01*
X133801780Y-88893220D01*
X133816969Y-88911727D01*
X133828258Y-88932848D01*
X133835208Y-88955760D01*
X133837800Y-88982073D01*
X133837800Y-89833927D01*
X133835208Y-89860240D01*
X133828258Y-89883152D01*
X133816969Y-89904273D01*
X133801780Y-89922780D01*
X133783273Y-89937969D01*
X133762152Y-89949258D01*
X133739240Y-89956208D01*
X133712927Y-89958800D01*
X132911073Y-89958800D01*
X132884760Y-89956208D01*
X132861848Y-89949258D01*
X132840727Y-89937969D01*
X132822220Y-89922780D01*
X132807031Y-89904273D01*
X132795742Y-89883152D01*
X132788792Y-89860240D01*
X132786200Y-89833927D01*
X132786200Y-88982073D01*
X132788792Y-88955760D01*
X132795742Y-88932848D01*
X132807031Y-88911727D01*
X132822220Y-88893220D01*
X132840727Y-88878031D01*
X132861848Y-88866742D01*
X132884760Y-88859792D01*
X132911073Y-88857200D01*
X133712927Y-88857200D01*
X133739240Y-88859792D01*
G37*
G36*
X147417297Y-89469577D02*
G01*
X147450276Y-89479581D01*
X147480669Y-89495827D01*
X147507309Y-89517690D01*
X147529172Y-89544330D01*
X147545418Y-89574723D01*
X147555422Y-89607702D01*
X147558800Y-89641999D01*
X147558800Y-89642001D01*
X147555422Y-89676298D01*
X147545418Y-89709277D01*
X147529172Y-89739670D01*
X147507309Y-89766310D01*
X147480669Y-89788173D01*
X147450276Y-89804419D01*
X147417297Y-89814423D01*
X147383000Y-89817801D01*
X146633000Y-89817801D01*
X146598703Y-89814423D01*
X146565724Y-89804419D01*
X146535331Y-89788173D01*
X146508691Y-89766310D01*
X146486828Y-89739670D01*
X146470582Y-89709277D01*
X146460578Y-89676298D01*
X146457200Y-89642001D01*
X146457200Y-89641999D01*
X146460578Y-89607702D01*
X146470582Y-89574723D01*
X146486828Y-89544330D01*
X146508691Y-89517690D01*
X146535331Y-89495827D01*
X146565724Y-89479581D01*
X146598703Y-89469577D01*
X146633000Y-89466199D01*
X147383000Y-89466199D01*
X147417297Y-89469577D01*
G37*
G36*
X141437297Y-89469577D02*
G01*
X141470276Y-89479581D01*
X141500669Y-89495827D01*
X141527309Y-89517690D01*
X141549172Y-89544330D01*
X141565418Y-89574723D01*
X141575422Y-89607702D01*
X141578800Y-89641999D01*
X141578800Y-89642001D01*
X141575422Y-89676298D01*
X141565418Y-89709277D01*
X141549172Y-89739670D01*
X141527309Y-89766310D01*
X141500669Y-89788173D01*
X141470276Y-89804419D01*
X141437297Y-89814423D01*
X141403000Y-89817801D01*
X140653000Y-89817801D01*
X140618703Y-89814423D01*
X140585724Y-89804419D01*
X140555331Y-89788173D01*
X140528691Y-89766310D01*
X140506828Y-89739670D01*
X140490582Y-89709277D01*
X140480578Y-89676298D01*
X140477200Y-89642001D01*
X140477200Y-89641999D01*
X140480578Y-89607702D01*
X140490582Y-89574723D01*
X140506828Y-89544330D01*
X140528691Y-89517690D01*
X140555331Y-89495827D01*
X140585724Y-89479581D01*
X140618703Y-89469577D01*
X140653000Y-89466199D01*
X141403000Y-89466199D01*
X141437297Y-89469577D01*
G37*
G36*
X161143457Y-88359782D02*
G01*
X161246783Y-88391126D01*
X161342009Y-88442026D01*
X161425475Y-88510525D01*
X161493974Y-88593991D01*
X161544874Y-88689217D01*
X161576218Y-88792543D01*
X161586801Y-88899999D01*
X161586801Y-88900001D01*
X161576218Y-89007457D01*
X161544874Y-89110783D01*
X161493974Y-89206009D01*
X161425475Y-89289475D01*
X161342009Y-89357974D01*
X161246783Y-89408874D01*
X161143457Y-89440218D01*
X161036001Y-89450801D01*
X161035999Y-89450801D01*
X160928543Y-89440218D01*
X160825217Y-89408874D01*
X160729991Y-89357974D01*
X160646525Y-89289475D01*
X160578026Y-89206009D01*
X160527126Y-89110783D01*
X160495782Y-89007457D01*
X160485199Y-88900001D01*
X160485199Y-88899999D01*
X160495782Y-88792543D01*
X160527126Y-88689217D01*
X160578026Y-88593991D01*
X160646525Y-88510525D01*
X160729991Y-88442026D01*
X160825217Y-88391126D01*
X160928543Y-88359782D01*
X161035999Y-88349199D01*
X161036001Y-88349199D01*
X161143457Y-88359782D01*
G37*
G36*
X153805240Y-88351792D02*
G01*
X153828152Y-88358742D01*
X153849273Y-88370031D01*
X153867780Y-88385220D01*
X153882969Y-88403727D01*
X153894258Y-88424848D01*
X153901208Y-88447760D01*
X153903800Y-88474073D01*
X153903800Y-89325927D01*
X153901208Y-89352240D01*
X153894258Y-89375152D01*
X153882969Y-89396273D01*
X153867780Y-89414780D01*
X153849273Y-89429969D01*
X153828152Y-89441258D01*
X153805240Y-89448208D01*
X153778927Y-89450800D01*
X152977073Y-89450800D01*
X152950760Y-89448208D01*
X152927848Y-89441258D01*
X152906727Y-89429969D01*
X152888220Y-89414780D01*
X152873031Y-89396273D01*
X152861742Y-89375152D01*
X152854792Y-89352240D01*
X152852200Y-89325927D01*
X152852200Y-88474073D01*
X152854792Y-88447760D01*
X152861742Y-88424848D01*
X152873031Y-88403727D01*
X152888220Y-88385220D01*
X152906727Y-88370031D01*
X152927848Y-88358742D01*
X152950760Y-88351792D01*
X152977073Y-88349200D01*
X153778927Y-88349200D01*
X153805240Y-88351792D01*
G37*
G36*
X155405240Y-88351792D02*
G01*
X155428152Y-88358742D01*
X155449273Y-88370031D01*
X155467780Y-88385220D01*
X155482969Y-88403727D01*
X155494258Y-88424848D01*
X155501208Y-88447760D01*
X155503800Y-88474073D01*
X155503800Y-89325927D01*
X155501208Y-89352240D01*
X155494258Y-89375152D01*
X155482969Y-89396273D01*
X155467780Y-89414780D01*
X155449273Y-89429969D01*
X155428152Y-89441258D01*
X155405240Y-89448208D01*
X155378927Y-89450800D01*
X154577073Y-89450800D01*
X154550760Y-89448208D01*
X154527848Y-89441258D01*
X154506727Y-89429969D01*
X154488220Y-89414780D01*
X154473031Y-89396273D01*
X154461742Y-89375152D01*
X154454792Y-89352240D01*
X154452200Y-89325927D01*
X154452200Y-88474073D01*
X154454792Y-88447760D01*
X154461742Y-88424848D01*
X154473031Y-88403727D01*
X154488220Y-88385220D01*
X154506727Y-88370031D01*
X154527848Y-88358742D01*
X154550760Y-88351792D01*
X154577073Y-88349200D01*
X155378927Y-88349200D01*
X155405240Y-88351792D01*
G37*
G36*
X141437297Y-88969577D02*
G01*
X141470276Y-88979581D01*
X141500669Y-88995827D01*
X141527309Y-89017690D01*
X141549172Y-89044330D01*
X141565418Y-89074723D01*
X141575422Y-89107702D01*
X141578800Y-89141999D01*
X141578800Y-89142001D01*
X141575422Y-89176298D01*
X141565418Y-89209277D01*
X141549172Y-89239670D01*
X141527309Y-89266310D01*
X141500669Y-89288173D01*
X141470276Y-89304419D01*
X141437297Y-89314423D01*
X141403000Y-89317801D01*
X140653000Y-89317801D01*
X140618703Y-89314423D01*
X140585724Y-89304419D01*
X140555331Y-89288173D01*
X140528691Y-89266310D01*
X140506828Y-89239670D01*
X140490582Y-89209277D01*
X140480578Y-89176298D01*
X140477200Y-89142001D01*
X140477200Y-89141999D01*
X140480578Y-89107702D01*
X140490582Y-89074723D01*
X140506828Y-89044330D01*
X140528691Y-89017690D01*
X140555331Y-88995827D01*
X140585724Y-88979581D01*
X140618703Y-88969577D01*
X140653000Y-88966199D01*
X141403000Y-88966199D01*
X141437297Y-88969577D01*
G37*
G36*
X147417297Y-88969577D02*
G01*
X147450276Y-88979581D01*
X147480669Y-88995827D01*
X147507309Y-89017690D01*
X147529172Y-89044330D01*
X147545418Y-89074723D01*
X147555422Y-89107702D01*
X147558800Y-89141999D01*
X147558800Y-89142001D01*
X147555422Y-89176298D01*
X147545418Y-89209277D01*
X147529172Y-89239670D01*
X147507309Y-89266310D01*
X147480669Y-89288173D01*
X147450276Y-89304419D01*
X147417297Y-89314423D01*
X147383000Y-89317801D01*
X146633000Y-89317801D01*
X146598703Y-89314423D01*
X146565724Y-89304419D01*
X146535331Y-89288173D01*
X146508691Y-89266310D01*
X146486828Y-89239670D01*
X146470582Y-89209277D01*
X146460578Y-89176298D01*
X146457200Y-89142001D01*
X146457200Y-89141999D01*
X146460578Y-89107702D01*
X146470582Y-89074723D01*
X146486828Y-89044330D01*
X146508691Y-89017690D01*
X146535331Y-88995827D01*
X146565724Y-88979581D01*
X146598703Y-88969577D01*
X146633000Y-88966199D01*
X147383000Y-88966199D01*
X147417297Y-88969577D01*
G37*
G36*
X157735763Y-88488400D02*
G01*
X158595600Y-88488400D01*
X158595600Y-89311600D01*
X157735763Y-89311600D01*
X157735763Y-89311668D01*
X157732237Y-89311668D01*
X157732237Y-89311600D01*
X156872400Y-89311600D01*
X156872400Y-88488400D01*
X157732237Y-88488400D01*
X157732237Y-88488332D01*
X157735763Y-88488332D01*
X157735763Y-88488400D01*
G37*
G36*
X147417297Y-88469577D02*
G01*
X147450276Y-88479581D01*
X147480669Y-88495827D01*
X147507309Y-88517690D01*
X147529172Y-88544330D01*
X147545418Y-88574723D01*
X147555422Y-88607702D01*
X147558800Y-88641999D01*
X147558800Y-88642001D01*
X147555422Y-88676298D01*
X147545418Y-88709277D01*
X147529172Y-88739670D01*
X147507309Y-88766310D01*
X147480669Y-88788173D01*
X147450276Y-88804419D01*
X147417297Y-88814423D01*
X147383000Y-88817801D01*
X146633000Y-88817801D01*
X146598703Y-88814423D01*
X146565724Y-88804419D01*
X146535331Y-88788173D01*
X146508691Y-88766310D01*
X146486828Y-88739670D01*
X146470582Y-88709277D01*
X146460578Y-88676298D01*
X146457200Y-88642001D01*
X146457200Y-88641999D01*
X146460578Y-88607702D01*
X146470582Y-88574723D01*
X146486828Y-88544330D01*
X146508691Y-88517690D01*
X146535331Y-88495827D01*
X146565724Y-88479581D01*
X146598703Y-88469577D01*
X146633000Y-88466199D01*
X147383000Y-88466199D01*
X147417297Y-88469577D01*
G37*
G36*
X141437297Y-88469577D02*
G01*
X141470276Y-88479581D01*
X141500669Y-88495827D01*
X141527309Y-88517690D01*
X141549172Y-88544330D01*
X141565418Y-88574723D01*
X141575422Y-88607702D01*
X141578800Y-88641999D01*
X141578800Y-88642001D01*
X141575422Y-88676298D01*
X141565418Y-88709277D01*
X141549172Y-88739670D01*
X141527309Y-88766310D01*
X141500669Y-88788173D01*
X141470276Y-88804419D01*
X141437297Y-88814423D01*
X141403000Y-88817801D01*
X140653000Y-88817801D01*
X140618703Y-88814423D01*
X140585724Y-88804419D01*
X140555331Y-88788173D01*
X140528691Y-88766310D01*
X140506828Y-88739670D01*
X140490582Y-88709277D01*
X140480578Y-88676298D01*
X140477200Y-88642001D01*
X140477200Y-88641999D01*
X140480578Y-88607702D01*
X140490582Y-88574723D01*
X140506828Y-88544330D01*
X140528691Y-88517690D01*
X140555331Y-88495827D01*
X140585724Y-88479581D01*
X140618703Y-88469577D01*
X140653000Y-88466199D01*
X141403000Y-88466199D01*
X141437297Y-88469577D01*
G37*
G36*
X147417297Y-87969577D02*
G01*
X147450276Y-87979581D01*
X147480669Y-87995827D01*
X147507309Y-88017690D01*
X147529172Y-88044330D01*
X147545418Y-88074723D01*
X147555422Y-88107702D01*
X147558800Y-88141999D01*
X147558800Y-88142001D01*
X147555422Y-88176298D01*
X147545418Y-88209277D01*
X147529172Y-88239670D01*
X147507309Y-88266310D01*
X147480669Y-88288173D01*
X147450276Y-88304419D01*
X147417297Y-88314423D01*
X147383000Y-88317801D01*
X146633000Y-88317801D01*
X146598703Y-88314423D01*
X146565724Y-88304419D01*
X146535331Y-88288173D01*
X146508691Y-88266310D01*
X146486828Y-88239670D01*
X146470582Y-88209277D01*
X146460578Y-88176298D01*
X146457200Y-88142001D01*
X146457200Y-88141999D01*
X146460578Y-88107702D01*
X146470582Y-88074723D01*
X146486828Y-88044330D01*
X146508691Y-88017690D01*
X146535331Y-87995827D01*
X146565724Y-87979581D01*
X146598703Y-87969577D01*
X146633000Y-87966199D01*
X147383000Y-87966199D01*
X147417297Y-87969577D01*
G37*
G36*
X141437297Y-87969577D02*
G01*
X141470276Y-87979581D01*
X141500669Y-87995827D01*
X141527309Y-88017690D01*
X141549172Y-88044330D01*
X141565418Y-88074723D01*
X141575422Y-88107702D01*
X141578800Y-88141999D01*
X141578800Y-88142001D01*
X141575422Y-88176298D01*
X141565418Y-88209277D01*
X141549172Y-88239670D01*
X141527309Y-88266310D01*
X141500669Y-88288173D01*
X141470276Y-88304419D01*
X141437297Y-88314423D01*
X141403000Y-88317801D01*
X140653000Y-88317801D01*
X140618703Y-88314423D01*
X140585724Y-88304419D01*
X140555331Y-88288173D01*
X140528691Y-88266310D01*
X140506828Y-88239670D01*
X140490582Y-88209277D01*
X140480578Y-88176298D01*
X140477200Y-88142001D01*
X140477200Y-88141999D01*
X140480578Y-88107702D01*
X140490582Y-88074723D01*
X140506828Y-88044330D01*
X140528691Y-88017690D01*
X140555331Y-87995827D01*
X140585724Y-87979581D01*
X140618703Y-87969577D01*
X140653000Y-87966199D01*
X141403000Y-87966199D01*
X141437297Y-87969577D01*
G37*
G36*
X138641240Y-86827792D02*
G01*
X138664152Y-86834742D01*
X138685273Y-86846031D01*
X138703780Y-86861220D01*
X138718969Y-86879727D01*
X138730258Y-86900848D01*
X138737208Y-86923760D01*
X138739800Y-86950073D01*
X138739800Y-87801927D01*
X138737208Y-87828240D01*
X138730258Y-87851152D01*
X138718969Y-87872273D01*
X138703780Y-87890780D01*
X138685273Y-87905969D01*
X138664152Y-87917258D01*
X138641240Y-87924208D01*
X138614927Y-87926800D01*
X137813073Y-87926800D01*
X137786760Y-87924208D01*
X137763848Y-87917258D01*
X137742727Y-87905969D01*
X137724220Y-87890780D01*
X137709031Y-87872273D01*
X137697742Y-87851152D01*
X137690792Y-87828240D01*
X137688200Y-87801927D01*
X137688200Y-86950073D01*
X137690792Y-86923760D01*
X137697742Y-86900848D01*
X137709031Y-86879727D01*
X137724220Y-86861220D01*
X137742727Y-86846031D01*
X137763848Y-86834742D01*
X137786760Y-86827792D01*
X137813073Y-86825200D01*
X138614927Y-86825200D01*
X138641240Y-86827792D01*
G37*
G36*
X137041240Y-86827792D02*
G01*
X137064152Y-86834742D01*
X137085273Y-86846031D01*
X137103780Y-86861220D01*
X137118969Y-86879727D01*
X137130258Y-86900848D01*
X137137208Y-86923760D01*
X137139800Y-86950073D01*
X137139800Y-87801927D01*
X137137208Y-87828240D01*
X137130258Y-87851152D01*
X137118969Y-87872273D01*
X137103780Y-87890780D01*
X137085273Y-87905969D01*
X137064152Y-87917258D01*
X137041240Y-87924208D01*
X137014927Y-87926800D01*
X136213073Y-87926800D01*
X136186760Y-87924208D01*
X136163848Y-87917258D01*
X136142727Y-87905969D01*
X136124220Y-87890780D01*
X136109031Y-87872273D01*
X136097742Y-87851152D01*
X136090792Y-87828240D01*
X136088200Y-87801927D01*
X136088200Y-86950073D01*
X136090792Y-86923760D01*
X136097742Y-86900848D01*
X136109031Y-86879727D01*
X136124220Y-86861220D01*
X136142727Y-86846031D01*
X136163848Y-86834742D01*
X136186760Y-86827792D01*
X136213073Y-86825200D01*
X137014927Y-86825200D01*
X137041240Y-86827792D01*
G37*
G36*
X141437297Y-87469577D02*
G01*
X141470276Y-87479581D01*
X141500669Y-87495827D01*
X141527309Y-87517690D01*
X141549172Y-87544330D01*
X141565418Y-87574723D01*
X141575422Y-87607702D01*
X141578800Y-87641999D01*
X141578800Y-87642001D01*
X141575422Y-87676298D01*
X141565418Y-87709277D01*
X141549172Y-87739670D01*
X141527309Y-87766310D01*
X141500669Y-87788173D01*
X141470276Y-87804419D01*
X141437297Y-87814423D01*
X141403000Y-87817801D01*
X140653000Y-87817801D01*
X140618703Y-87814423D01*
X140585724Y-87804419D01*
X140555331Y-87788173D01*
X140528691Y-87766310D01*
X140506828Y-87739670D01*
X140490582Y-87709277D01*
X140480578Y-87676298D01*
X140477200Y-87642001D01*
X140477200Y-87641999D01*
X140480578Y-87607702D01*
X140490582Y-87574723D01*
X140506828Y-87544330D01*
X140528691Y-87517690D01*
X140555331Y-87495827D01*
X140585724Y-87479581D01*
X140618703Y-87469577D01*
X140653000Y-87466199D01*
X141403000Y-87466199D01*
X141437297Y-87469577D01*
G37*
G36*
X147417297Y-87469577D02*
G01*
X147450276Y-87479581D01*
X147480669Y-87495827D01*
X147507309Y-87517690D01*
X147529172Y-87544330D01*
X147545418Y-87574723D01*
X147555422Y-87607702D01*
X147558800Y-87641999D01*
X147558800Y-87642001D01*
X147555422Y-87676298D01*
X147545418Y-87709277D01*
X147529172Y-87739670D01*
X147507309Y-87766310D01*
X147480669Y-87788173D01*
X147450276Y-87804419D01*
X147417297Y-87814423D01*
X147383000Y-87817801D01*
X146633000Y-87817801D01*
X146598703Y-87814423D01*
X146565724Y-87804419D01*
X146535331Y-87788173D01*
X146508691Y-87766310D01*
X146486828Y-87739670D01*
X146470582Y-87709277D01*
X146460578Y-87676298D01*
X146457200Y-87642001D01*
X146457200Y-87641999D01*
X146460578Y-87607702D01*
X146470582Y-87574723D01*
X146486828Y-87544330D01*
X146508691Y-87517690D01*
X146535331Y-87495827D01*
X146565724Y-87479581D01*
X146598703Y-87469577D01*
X146633000Y-87466199D01*
X147383000Y-87466199D01*
X147417297Y-87469577D01*
G37*
G36*
X147417297Y-86969577D02*
G01*
X147450276Y-86979581D01*
X147480669Y-86995827D01*
X147507309Y-87017690D01*
X147529172Y-87044330D01*
X147545418Y-87074723D01*
X147555422Y-87107702D01*
X147558800Y-87141999D01*
X147558800Y-87142001D01*
X147555422Y-87176298D01*
X147545418Y-87209277D01*
X147529172Y-87239670D01*
X147507309Y-87266310D01*
X147480669Y-87288173D01*
X147450276Y-87304419D01*
X147417297Y-87314423D01*
X147383000Y-87317801D01*
X146633000Y-87317801D01*
X146598703Y-87314423D01*
X146565724Y-87304419D01*
X146535331Y-87288173D01*
X146508691Y-87266310D01*
X146486828Y-87239670D01*
X146470582Y-87209277D01*
X146460578Y-87176298D01*
X146457200Y-87142001D01*
X146457200Y-87141999D01*
X146460578Y-87107702D01*
X146470582Y-87074723D01*
X146486828Y-87044330D01*
X146508691Y-87017690D01*
X146535331Y-86995827D01*
X146565724Y-86979581D01*
X146598703Y-86969577D01*
X146633000Y-86966199D01*
X147383000Y-86966199D01*
X147417297Y-86969577D01*
G37*
G36*
X141437297Y-86969577D02*
G01*
X141470276Y-86979581D01*
X141500669Y-86995827D01*
X141527309Y-87017690D01*
X141549172Y-87044330D01*
X141565418Y-87074723D01*
X141575422Y-87107702D01*
X141578800Y-87141999D01*
X141578800Y-87142001D01*
X141575422Y-87176298D01*
X141565418Y-87209277D01*
X141549172Y-87239670D01*
X141527309Y-87266310D01*
X141500669Y-87288173D01*
X141470276Y-87304419D01*
X141437297Y-87314423D01*
X141403000Y-87317801D01*
X140653000Y-87317801D01*
X140618703Y-87314423D01*
X140585724Y-87304419D01*
X140555331Y-87288173D01*
X140528691Y-87266310D01*
X140506828Y-87239670D01*
X140490582Y-87209277D01*
X140480578Y-87176298D01*
X140477200Y-87142001D01*
X140477200Y-87141999D01*
X140480578Y-87107702D01*
X140490582Y-87074723D01*
X140506828Y-87044330D01*
X140528691Y-87017690D01*
X140555331Y-86995827D01*
X140585724Y-86979581D01*
X140618703Y-86969577D01*
X140653000Y-86966199D01*
X141403000Y-86966199D01*
X141437297Y-86969577D01*
G37*
G36*
X159297600Y-86979600D02*
G01*
X157694400Y-86979600D01*
X157694400Y-85826400D01*
X159297600Y-85826400D01*
X159297600Y-86979600D01*
G37*
G36*
X141437297Y-86469577D02*
G01*
X141470276Y-86479581D01*
X141500669Y-86495827D01*
X141527309Y-86517690D01*
X141549172Y-86544330D01*
X141565418Y-86574723D01*
X141575422Y-86607702D01*
X141578800Y-86641999D01*
X141578800Y-86642001D01*
X141575422Y-86676298D01*
X141565418Y-86709277D01*
X141549172Y-86739670D01*
X141527309Y-86766310D01*
X141500669Y-86788173D01*
X141470276Y-86804419D01*
X141437297Y-86814423D01*
X141403000Y-86817801D01*
X140653000Y-86817801D01*
X140618703Y-86814423D01*
X140585724Y-86804419D01*
X140555331Y-86788173D01*
X140528691Y-86766310D01*
X140506828Y-86739670D01*
X140490582Y-86709277D01*
X140480578Y-86676298D01*
X140477200Y-86642001D01*
X140477200Y-86641999D01*
X140480578Y-86607702D01*
X140490582Y-86574723D01*
X140506828Y-86544330D01*
X140528691Y-86517690D01*
X140555331Y-86495827D01*
X140585724Y-86479581D01*
X140618703Y-86469577D01*
X140653000Y-86466199D01*
X141403000Y-86466199D01*
X141437297Y-86469577D01*
G37*
G36*
X147417297Y-86469577D02*
G01*
X147450276Y-86479581D01*
X147480669Y-86495827D01*
X147507309Y-86517690D01*
X147529172Y-86544330D01*
X147545418Y-86574723D01*
X147555422Y-86607702D01*
X147558800Y-86641999D01*
X147558800Y-86642001D01*
X147555422Y-86676298D01*
X147545418Y-86709277D01*
X147529172Y-86739670D01*
X147507309Y-86766310D01*
X147480669Y-86788173D01*
X147450276Y-86804419D01*
X147417297Y-86814423D01*
X147383000Y-86817801D01*
X146633000Y-86817801D01*
X146598703Y-86814423D01*
X146565724Y-86804419D01*
X146535331Y-86788173D01*
X146508691Y-86766310D01*
X146486828Y-86739670D01*
X146470582Y-86709277D01*
X146460578Y-86676298D01*
X146457200Y-86642001D01*
X146457200Y-86641999D01*
X146460578Y-86607702D01*
X146470582Y-86574723D01*
X146486828Y-86544330D01*
X146508691Y-86517690D01*
X146535331Y-86495827D01*
X146565724Y-86479581D01*
X146598703Y-86469577D01*
X146633000Y-86466199D01*
X147383000Y-86466199D01*
X147417297Y-86469577D01*
G37*
G36*
X157447600Y-86579600D02*
G01*
X156494400Y-86579600D01*
X156494400Y-85226400D01*
X157447600Y-85226400D01*
X157447600Y-86579600D01*
G37*
G36*
X160497600Y-86579600D02*
G01*
X159544400Y-86579600D01*
X159544400Y-85226400D01*
X160497600Y-85226400D01*
X160497600Y-86579600D01*
G37*
G36*
X134546800Y-86344800D02*
G01*
X134045200Y-86344800D01*
X134045200Y-84343200D01*
X134546800Y-84343200D01*
X134546800Y-86344800D01*
G37*
G36*
X133346800Y-86344800D02*
G01*
X132845200Y-86344800D01*
X132845200Y-84343200D01*
X133346800Y-84343200D01*
X133346800Y-86344800D01*
G37*
G36*
X132146800Y-86344800D02*
G01*
X131645200Y-86344800D01*
X131645200Y-84343200D01*
X132146800Y-84343200D01*
X132146800Y-86344800D01*
G37*
G36*
X147417297Y-85969577D02*
G01*
X147450276Y-85979581D01*
X147480669Y-85995827D01*
X147507309Y-86017690D01*
X147529172Y-86044330D01*
X147545418Y-86074723D01*
X147555422Y-86107702D01*
X147558800Y-86141999D01*
X147558800Y-86142001D01*
X147555422Y-86176298D01*
X147545418Y-86209277D01*
X147529172Y-86239670D01*
X147507309Y-86266310D01*
X147480669Y-86288173D01*
X147450276Y-86304419D01*
X147417297Y-86314423D01*
X147383000Y-86317801D01*
X146633000Y-86317801D01*
X146598703Y-86314423D01*
X146565724Y-86304419D01*
X146535331Y-86288173D01*
X146508691Y-86266310D01*
X146486828Y-86239670D01*
X146470582Y-86209277D01*
X146460578Y-86176298D01*
X146457200Y-86142001D01*
X146457200Y-86141999D01*
X146460578Y-86107702D01*
X146470582Y-86074723D01*
X146486828Y-86044330D01*
X146508691Y-86017690D01*
X146535331Y-85995827D01*
X146565724Y-85979581D01*
X146598703Y-85969577D01*
X146633000Y-85966199D01*
X147383000Y-85966199D01*
X147417297Y-85969577D01*
G37*
G36*
X141437297Y-85969577D02*
G01*
X141470276Y-85979581D01*
X141500669Y-85995827D01*
X141527309Y-86017690D01*
X141549172Y-86044330D01*
X141565418Y-86074723D01*
X141575422Y-86107702D01*
X141578800Y-86141999D01*
X141578800Y-86142001D01*
X141575422Y-86176298D01*
X141565418Y-86209277D01*
X141549172Y-86239670D01*
X141527309Y-86266310D01*
X141500669Y-86288173D01*
X141470276Y-86304419D01*
X141437297Y-86314423D01*
X141403000Y-86317801D01*
X140653000Y-86317801D01*
X140618703Y-86314423D01*
X140585724Y-86304419D01*
X140555331Y-86288173D01*
X140528691Y-86266310D01*
X140506828Y-86239670D01*
X140490582Y-86209277D01*
X140480578Y-86176298D01*
X140477200Y-86142001D01*
X140477200Y-86141999D01*
X140480578Y-86107702D01*
X140490582Y-86074723D01*
X140506828Y-86044330D01*
X140528691Y-86017690D01*
X140555331Y-85995827D01*
X140585724Y-85979581D01*
X140618703Y-85969577D01*
X140653000Y-85966199D01*
X141403000Y-85966199D01*
X141437297Y-85969577D01*
G37*
G36*
X144302298Y-84854578D02*
G01*
X144335277Y-84864582D01*
X144365670Y-84880828D01*
X144392310Y-84902691D01*
X144414173Y-84929331D01*
X144430419Y-84959724D01*
X144440423Y-84992703D01*
X144443801Y-85027000D01*
X144443801Y-85777000D01*
X144440423Y-85811297D01*
X144430419Y-85844276D01*
X144414173Y-85874669D01*
X144392310Y-85901309D01*
X144365670Y-85923172D01*
X144335277Y-85939418D01*
X144302298Y-85949422D01*
X144268001Y-85952800D01*
X144267999Y-85952800D01*
X144233702Y-85949422D01*
X144200723Y-85939418D01*
X144170330Y-85923172D01*
X144143690Y-85901309D01*
X144121827Y-85874669D01*
X144105581Y-85844276D01*
X144095577Y-85811297D01*
X144092199Y-85777000D01*
X144092199Y-85027000D01*
X144095577Y-84992703D01*
X144105581Y-84959724D01*
X144121827Y-84929331D01*
X144143690Y-84902691D01*
X144170330Y-84880828D01*
X144200723Y-84864582D01*
X144233702Y-84854578D01*
X144267999Y-84851200D01*
X144268001Y-84851200D01*
X144302298Y-84854578D01*
G37*
G36*
X143802298Y-84854578D02*
G01*
X143835277Y-84864582D01*
X143865670Y-84880828D01*
X143892310Y-84902691D01*
X143914173Y-84929331D01*
X143930419Y-84959724D01*
X143940423Y-84992703D01*
X143943801Y-85027000D01*
X143943801Y-85777000D01*
X143940423Y-85811297D01*
X143930419Y-85844276D01*
X143914173Y-85874669D01*
X143892310Y-85901309D01*
X143865670Y-85923172D01*
X143835277Y-85939418D01*
X143802298Y-85949422D01*
X143768001Y-85952800D01*
X143767999Y-85952800D01*
X143733702Y-85949422D01*
X143700723Y-85939418D01*
X143670330Y-85923172D01*
X143643690Y-85901309D01*
X143621827Y-85874669D01*
X143605581Y-85844276D01*
X143595577Y-85811297D01*
X143592199Y-85777000D01*
X143592199Y-85027000D01*
X143595577Y-84992703D01*
X143605581Y-84959724D01*
X143621827Y-84929331D01*
X143643690Y-84902691D01*
X143670330Y-84880828D01*
X143700723Y-84864582D01*
X143733702Y-84854578D01*
X143767999Y-84851200D01*
X143768001Y-84851200D01*
X143802298Y-84854578D01*
G37*
G36*
X144802298Y-84854578D02*
G01*
X144835277Y-84864582D01*
X144865670Y-84880828D01*
X144892310Y-84902691D01*
X144914173Y-84929331D01*
X144930419Y-84959724D01*
X144940423Y-84992703D01*
X144943801Y-85027000D01*
X144943801Y-85777000D01*
X144940423Y-85811297D01*
X144930419Y-85844276D01*
X144914173Y-85874669D01*
X144892310Y-85901309D01*
X144865670Y-85923172D01*
X144835277Y-85939418D01*
X144802298Y-85949422D01*
X144768001Y-85952800D01*
X144767999Y-85952800D01*
X144733702Y-85949422D01*
X144700723Y-85939418D01*
X144670330Y-85923172D01*
X144643690Y-85901309D01*
X144621827Y-85874669D01*
X144605581Y-85844276D01*
X144595577Y-85811297D01*
X144592199Y-85777000D01*
X144592199Y-85027000D01*
X144595577Y-84992703D01*
X144605581Y-84959724D01*
X144621827Y-84929331D01*
X144643690Y-84902691D01*
X144670330Y-84880828D01*
X144700723Y-84864582D01*
X144733702Y-84854578D01*
X144767999Y-84851200D01*
X144768001Y-84851200D01*
X144802298Y-84854578D01*
G37*
G36*
X145302298Y-84854578D02*
G01*
X145335277Y-84864582D01*
X145365670Y-84880828D01*
X145392310Y-84902691D01*
X145414173Y-84929331D01*
X145430419Y-84959724D01*
X145440423Y-84992703D01*
X145443801Y-85027000D01*
X145443801Y-85777000D01*
X145440423Y-85811297D01*
X145430419Y-85844276D01*
X145414173Y-85874669D01*
X145392310Y-85901309D01*
X145365670Y-85923172D01*
X145335277Y-85939418D01*
X145302298Y-85949422D01*
X145268001Y-85952800D01*
X145267999Y-85952800D01*
X145233702Y-85949422D01*
X145200723Y-85939418D01*
X145170330Y-85923172D01*
X145143690Y-85901309D01*
X145121827Y-85874669D01*
X145105581Y-85844276D01*
X145095577Y-85811297D01*
X145092199Y-85777000D01*
X145092199Y-85027000D01*
X145095577Y-84992703D01*
X145105581Y-84959724D01*
X145121827Y-84929331D01*
X145143690Y-84902691D01*
X145170330Y-84880828D01*
X145200723Y-84864582D01*
X145233702Y-84854578D01*
X145267999Y-84851200D01*
X145268001Y-84851200D01*
X145302298Y-84854578D01*
G37*
G36*
X145802298Y-84854578D02*
G01*
X145835277Y-84864582D01*
X145865670Y-84880828D01*
X145892310Y-84902691D01*
X145914173Y-84929331D01*
X145930419Y-84959724D01*
X145940423Y-84992703D01*
X145943801Y-85027000D01*
X145943801Y-85777000D01*
X145940423Y-85811297D01*
X145930419Y-85844276D01*
X145914173Y-85874669D01*
X145892310Y-85901309D01*
X145865670Y-85923172D01*
X145835277Y-85939418D01*
X145802298Y-85949422D01*
X145768001Y-85952800D01*
X145767999Y-85952800D01*
X145733702Y-85949422D01*
X145700723Y-85939418D01*
X145670330Y-85923172D01*
X145643690Y-85901309D01*
X145621827Y-85874669D01*
X145605581Y-85844276D01*
X145595577Y-85811297D01*
X145592199Y-85777000D01*
X145592199Y-85027000D01*
X145595577Y-84992703D01*
X145605581Y-84959724D01*
X145621827Y-84929331D01*
X145643690Y-84902691D01*
X145670330Y-84880828D01*
X145700723Y-84864582D01*
X145733702Y-84854578D01*
X145767999Y-84851200D01*
X145768001Y-84851200D01*
X145802298Y-84854578D01*
G37*
G36*
X143302298Y-84854578D02*
G01*
X143335277Y-84864582D01*
X143365670Y-84880828D01*
X143392310Y-84902691D01*
X143414173Y-84929331D01*
X143430419Y-84959724D01*
X143440423Y-84992703D01*
X143443801Y-85027000D01*
X143443801Y-85777000D01*
X143440423Y-85811297D01*
X143430419Y-85844276D01*
X143414173Y-85874669D01*
X143392310Y-85901309D01*
X143365670Y-85923172D01*
X143335277Y-85939418D01*
X143302298Y-85949422D01*
X143268001Y-85952800D01*
X143267999Y-85952800D01*
X143233702Y-85949422D01*
X143200723Y-85939418D01*
X143170330Y-85923172D01*
X143143690Y-85901309D01*
X143121827Y-85874669D01*
X143105581Y-85844276D01*
X143095577Y-85811297D01*
X143092199Y-85777000D01*
X143092199Y-85027000D01*
X143095577Y-84992703D01*
X143105581Y-84959724D01*
X143121827Y-84929331D01*
X143143690Y-84902691D01*
X143170330Y-84880828D01*
X143200723Y-84864582D01*
X143233702Y-84854578D01*
X143267999Y-84851200D01*
X143268001Y-84851200D01*
X143302298Y-84854578D01*
G37*
G36*
X142802298Y-84854578D02*
G01*
X142835277Y-84864582D01*
X142865670Y-84880828D01*
X142892310Y-84902691D01*
X142914173Y-84929331D01*
X142930419Y-84959724D01*
X142940423Y-84992703D01*
X142943801Y-85027000D01*
X142943801Y-85777000D01*
X142940423Y-85811297D01*
X142930419Y-85844276D01*
X142914173Y-85874669D01*
X142892310Y-85901309D01*
X142865670Y-85923172D01*
X142835277Y-85939418D01*
X142802298Y-85949422D01*
X142768001Y-85952800D01*
X142767999Y-85952800D01*
X142733702Y-85949422D01*
X142700723Y-85939418D01*
X142670330Y-85923172D01*
X142643690Y-85901309D01*
X142621827Y-85874669D01*
X142605581Y-85844276D01*
X142595577Y-85811297D01*
X142592199Y-85777000D01*
X142592199Y-85027000D01*
X142595577Y-84992703D01*
X142605581Y-84959724D01*
X142621827Y-84929331D01*
X142643690Y-84902691D01*
X142670330Y-84880828D01*
X142700723Y-84864582D01*
X142733702Y-84854578D01*
X142767999Y-84851200D01*
X142768001Y-84851200D01*
X142802298Y-84854578D01*
G37*
G36*
X142302298Y-84854578D02*
G01*
X142335277Y-84864582D01*
X142365670Y-84880828D01*
X142392310Y-84902691D01*
X142414173Y-84929331D01*
X142430419Y-84959724D01*
X142440423Y-84992703D01*
X142443801Y-85027000D01*
X142443801Y-85777000D01*
X142440423Y-85811297D01*
X142430419Y-85844276D01*
X142414173Y-85874669D01*
X142392310Y-85901309D01*
X142365670Y-85923172D01*
X142335277Y-85939418D01*
X142302298Y-85949422D01*
X142268001Y-85952800D01*
X142267999Y-85952800D01*
X142233702Y-85949422D01*
X142200723Y-85939418D01*
X142170330Y-85923172D01*
X142143690Y-85901309D01*
X142121827Y-85874669D01*
X142105581Y-85844276D01*
X142095577Y-85811297D01*
X142092199Y-85777000D01*
X142092199Y-85027000D01*
X142095577Y-84992703D01*
X142105581Y-84959724D01*
X142121827Y-84929331D01*
X142143690Y-84902691D01*
X142170330Y-84880828D01*
X142200723Y-84864582D01*
X142233702Y-84854578D01*
X142267999Y-84851200D01*
X142268001Y-84851200D01*
X142302298Y-84854578D01*
G37*
G36*
X141802298Y-84854578D02*
G01*
X141835277Y-84864582D01*
X141865670Y-84880828D01*
X141892310Y-84902691D01*
X141914173Y-84929331D01*
X141930419Y-84959724D01*
X141940423Y-84992703D01*
X141943801Y-85027000D01*
X141943801Y-85777000D01*
X141940423Y-85811297D01*
X141930419Y-85844276D01*
X141914173Y-85874669D01*
X141892310Y-85901309D01*
X141865670Y-85923172D01*
X141835277Y-85939418D01*
X141802298Y-85949422D01*
X141768001Y-85952800D01*
X141767999Y-85952800D01*
X141733702Y-85949422D01*
X141700723Y-85939418D01*
X141670330Y-85923172D01*
X141643690Y-85901309D01*
X141621827Y-85874669D01*
X141605581Y-85844276D01*
X141595577Y-85811297D01*
X141592199Y-85777000D01*
X141592199Y-85027000D01*
X141595577Y-84992703D01*
X141605581Y-84959724D01*
X141621827Y-84929331D01*
X141643690Y-84902691D01*
X141670330Y-84880828D01*
X141700723Y-84864582D01*
X141733702Y-84854578D01*
X141767999Y-84851200D01*
X141768001Y-84851200D01*
X141802298Y-84854578D01*
G37*
G36*
X146302298Y-84854578D02*
G01*
X146335277Y-84864582D01*
X146365670Y-84880828D01*
X146392310Y-84902691D01*
X146414173Y-84929331D01*
X146430419Y-84959724D01*
X146440423Y-84992703D01*
X146443801Y-85027000D01*
X146443801Y-85777000D01*
X146440423Y-85811297D01*
X146430419Y-85844276D01*
X146414173Y-85874669D01*
X146392310Y-85901309D01*
X146365670Y-85923172D01*
X146335277Y-85939418D01*
X146302298Y-85949422D01*
X146268001Y-85952800D01*
X146267999Y-85952800D01*
X146233702Y-85949422D01*
X146200723Y-85939418D01*
X146170330Y-85923172D01*
X146143690Y-85901309D01*
X146121827Y-85874669D01*
X146105581Y-85844276D01*
X146095577Y-85811297D01*
X146092199Y-85777000D01*
X146092199Y-85027000D01*
X146095577Y-84992703D01*
X146105581Y-84959724D01*
X146121827Y-84929331D01*
X146143690Y-84902691D01*
X146170330Y-84880828D01*
X146200723Y-84864582D01*
X146233702Y-84854578D01*
X146267999Y-84851200D01*
X146268001Y-84851200D01*
X146302298Y-84854578D01*
G37*
G36*
X138057240Y-84795792D02*
G01*
X138080152Y-84802742D01*
X138101273Y-84814031D01*
X138119780Y-84829220D01*
X138134969Y-84847727D01*
X138146258Y-84868848D01*
X138153208Y-84891760D01*
X138155800Y-84918073D01*
X138155800Y-85769927D01*
X138153208Y-85796240D01*
X138146258Y-85819152D01*
X138134969Y-85840273D01*
X138119780Y-85858780D01*
X138101273Y-85873969D01*
X138080152Y-85885258D01*
X138057240Y-85892208D01*
X138030927Y-85894800D01*
X137229073Y-85894800D01*
X137202760Y-85892208D01*
X137179848Y-85885258D01*
X137158727Y-85873969D01*
X137140220Y-85858780D01*
X137125031Y-85840273D01*
X137113742Y-85819152D01*
X137106792Y-85796240D01*
X137104200Y-85769927D01*
X137104200Y-84918073D01*
X137106792Y-84891760D01*
X137113742Y-84868848D01*
X137125031Y-84847727D01*
X137140220Y-84829220D01*
X137158727Y-84814031D01*
X137179848Y-84802742D01*
X137202760Y-84795792D01*
X137229073Y-84793200D01*
X138030927Y-84793200D01*
X138057240Y-84795792D01*
G37*
G36*
X139657240Y-84795792D02*
G01*
X139680152Y-84802742D01*
X139701273Y-84814031D01*
X139719780Y-84829220D01*
X139734969Y-84847727D01*
X139746258Y-84868848D01*
X139753208Y-84891760D01*
X139755800Y-84918073D01*
X139755800Y-85769927D01*
X139753208Y-85796240D01*
X139746258Y-85819152D01*
X139734969Y-85840273D01*
X139719780Y-85858780D01*
X139701273Y-85873969D01*
X139680152Y-85885258D01*
X139657240Y-85892208D01*
X139630927Y-85894800D01*
X138829073Y-85894800D01*
X138802760Y-85892208D01*
X138779848Y-85885258D01*
X138758727Y-85873969D01*
X138740220Y-85858780D01*
X138725031Y-85840273D01*
X138713742Y-85819152D01*
X138706792Y-85796240D01*
X138704200Y-85769927D01*
X138704200Y-84918073D01*
X138706792Y-84891760D01*
X138713742Y-84868848D01*
X138725031Y-84847727D01*
X138740220Y-84829220D01*
X138758727Y-84814031D01*
X138779848Y-84802742D01*
X138802760Y-84795792D01*
X138829073Y-84793200D01*
X139630927Y-84793200D01*
X139657240Y-84795792D01*
G37*
G36*
X153119240Y-84795792D02*
G01*
X153142152Y-84802742D01*
X153163273Y-84814031D01*
X153181780Y-84829220D01*
X153196969Y-84847727D01*
X153208258Y-84868848D01*
X153215208Y-84891760D01*
X153217800Y-84918073D01*
X153217800Y-85769927D01*
X153215208Y-85796240D01*
X153208258Y-85819152D01*
X153196969Y-85840273D01*
X153181780Y-85858780D01*
X153163273Y-85873969D01*
X153142152Y-85885258D01*
X153119240Y-85892208D01*
X153092927Y-85894800D01*
X152291073Y-85894800D01*
X152264760Y-85892208D01*
X152241848Y-85885258D01*
X152220727Y-85873969D01*
X152202220Y-85858780D01*
X152187031Y-85840273D01*
X152175742Y-85819152D01*
X152168792Y-85796240D01*
X152166200Y-85769927D01*
X152166200Y-84918073D01*
X152168792Y-84891760D01*
X152175742Y-84868848D01*
X152187031Y-84847727D01*
X152202220Y-84829220D01*
X152220727Y-84814031D01*
X152241848Y-84802742D01*
X152264760Y-84795792D01*
X152291073Y-84793200D01*
X153092927Y-84793200D01*
X153119240Y-84795792D01*
G37*
G36*
X151519240Y-84795792D02*
G01*
X151542152Y-84802742D01*
X151563273Y-84814031D01*
X151581780Y-84829220D01*
X151596969Y-84847727D01*
X151608258Y-84868848D01*
X151615208Y-84891760D01*
X151617800Y-84918073D01*
X151617800Y-85769927D01*
X151615208Y-85796240D01*
X151608258Y-85819152D01*
X151596969Y-85840273D01*
X151581780Y-85858780D01*
X151563273Y-85873969D01*
X151542152Y-85885258D01*
X151519240Y-85892208D01*
X151492927Y-85894800D01*
X150691073Y-85894800D01*
X150664760Y-85892208D01*
X150641848Y-85885258D01*
X150620727Y-85873969D01*
X150602220Y-85858780D01*
X150587031Y-85840273D01*
X150575742Y-85819152D01*
X150568792Y-85796240D01*
X150566200Y-85769927D01*
X150566200Y-84918073D01*
X150568792Y-84891760D01*
X150575742Y-84868848D01*
X150587031Y-84847727D01*
X150602220Y-84829220D01*
X150620727Y-84814031D01*
X150641848Y-84802742D01*
X150664760Y-84795792D01*
X150691073Y-84793200D01*
X151492927Y-84793200D01*
X151519240Y-84795792D01*
G37*
G36*
X145740240Y-82572792D02*
G01*
X145763152Y-82579742D01*
X145784273Y-82591031D01*
X145802780Y-82606220D01*
X145817969Y-82624727D01*
X145829258Y-82645848D01*
X145836208Y-82668760D01*
X145838800Y-82695073D01*
X145838800Y-83496927D01*
X145836208Y-83523240D01*
X145829258Y-83546152D01*
X145817969Y-83567273D01*
X145802780Y-83585780D01*
X145784273Y-83600969D01*
X145763152Y-83612258D01*
X145740240Y-83619208D01*
X145713927Y-83621800D01*
X144862073Y-83621800D01*
X144835760Y-83619208D01*
X144812848Y-83612258D01*
X144791727Y-83600969D01*
X144773220Y-83585780D01*
X144758031Y-83567273D01*
X144746742Y-83546152D01*
X144739792Y-83523240D01*
X144737200Y-83496927D01*
X144737200Y-82695073D01*
X144739792Y-82668760D01*
X144746742Y-82645848D01*
X144758031Y-82624727D01*
X144773220Y-82606220D01*
X144791727Y-82591031D01*
X144812848Y-82579742D01*
X144835760Y-82572792D01*
X144862073Y-82570200D01*
X145713927Y-82570200D01*
X145740240Y-82572792D01*
G37*
G36*
X157447600Y-83429600D02*
G01*
X156494400Y-83429600D01*
X156494400Y-82076400D01*
X157447600Y-82076400D01*
X157447600Y-83429600D01*
G37*
G36*
X160497600Y-83429600D02*
G01*
X159544400Y-83429600D01*
X159544400Y-82076400D01*
X160497600Y-82076400D01*
X160497600Y-83429600D01*
G37*
G36*
X151692800Y-83130800D02*
G01*
X150391200Y-83130800D01*
X150391200Y-81629200D01*
X151692800Y-81629200D01*
X151692800Y-83130800D01*
G37*
G36*
X153392800Y-83130800D02*
G01*
X152091200Y-83130800D01*
X152091200Y-81629200D01*
X153392800Y-81629200D01*
X153392800Y-83130800D01*
G37*
G36*
X159297600Y-82829600D02*
G01*
X157694400Y-82829600D01*
X157694400Y-81676400D01*
X159297600Y-81676400D01*
X159297600Y-82829600D01*
G37*
G36*
X138901800Y-82470800D02*
G01*
X138250200Y-82470800D01*
X138250200Y-80869200D01*
X138901800Y-80869200D01*
X138901800Y-82470800D01*
G37*
G36*
X135701800Y-82470800D02*
G01*
X135050200Y-82470800D01*
X135050200Y-80869200D01*
X135701800Y-80869200D01*
X135701800Y-82470800D01*
G37*
G36*
X136501800Y-82470800D02*
G01*
X135850200Y-82470800D01*
X135850200Y-80869200D01*
X136501800Y-80869200D01*
X136501800Y-82470800D01*
G37*
G36*
X137301800Y-82470800D02*
G01*
X136650200Y-82470800D01*
X136650200Y-80869200D01*
X137301800Y-80869200D01*
X137301800Y-82470800D01*
G37*
G36*
X138101800Y-82470800D02*
G01*
X137450200Y-82470800D01*
X137450200Y-80869200D01*
X138101800Y-80869200D01*
X138101800Y-82470800D01*
G37*
G36*
X140501800Y-82470800D02*
G01*
X139850200Y-82470800D01*
X139850200Y-80869200D01*
X140501800Y-80869200D01*
X140501800Y-82470800D01*
G37*
G36*
X139701800Y-82470800D02*
G01*
X139050200Y-82470800D01*
X139050200Y-80869200D01*
X139701800Y-80869200D01*
X139701800Y-82470800D01*
G37*
G36*
X141301800Y-82470800D02*
G01*
X140650200Y-82470800D01*
X140650200Y-80869200D01*
X141301800Y-80869200D01*
X141301800Y-82470800D01*
G37*
G36*
X145740240Y-80972792D02*
G01*
X145763152Y-80979742D01*
X145784273Y-80991031D01*
X145802780Y-81006220D01*
X145817969Y-81024727D01*
X145829258Y-81045848D01*
X145836208Y-81068760D01*
X145838800Y-81095073D01*
X145838800Y-81896927D01*
X145836208Y-81923240D01*
X145829258Y-81946152D01*
X145817969Y-81967273D01*
X145802780Y-81985780D01*
X145784273Y-82000969D01*
X145763152Y-82012258D01*
X145740240Y-82019208D01*
X145713927Y-82021800D01*
X144862073Y-82021800D01*
X144835760Y-82019208D01*
X144812848Y-82012258D01*
X144791727Y-82000969D01*
X144773220Y-81985780D01*
X144758031Y-81967273D01*
X144746742Y-81946152D01*
X144739792Y-81923240D01*
X144737200Y-81896927D01*
X144737200Y-81095073D01*
X144739792Y-81068760D01*
X144746742Y-81045848D01*
X144758031Y-81024727D01*
X144773220Y-81006220D01*
X144791727Y-80991031D01*
X144812848Y-80979742D01*
X144835760Y-80972792D01*
X144862073Y-80970200D01*
X145713927Y-80970200D01*
X145740240Y-80972792D01*
G37*
G36*
X164593763Y-81122400D02*
G01*
X165453600Y-81122400D01*
X165453600Y-81945600D01*
X164593763Y-81945600D01*
X164593763Y-81945668D01*
X164590237Y-81945668D01*
X164590237Y-81945600D01*
X163730400Y-81945600D01*
X163730400Y-81122400D01*
X164590237Y-81122400D01*
X164590237Y-81122332D01*
X164593763Y-81122332D01*
X164593763Y-81122400D01*
G37*
G36*
X171451763Y-81122400D02*
G01*
X172311600Y-81122400D01*
X172311600Y-81945600D01*
X171451763Y-81945600D01*
X171451763Y-81945668D01*
X171448237Y-81945668D01*
X171448237Y-81945600D01*
X170588400Y-81945600D01*
X170588400Y-81122400D01*
X171448237Y-81122400D01*
X171448237Y-81122332D01*
X171451763Y-81122332D01*
X171451763Y-81122400D01*
G37*
G36*
X153392800Y-80930800D02*
G01*
X152091200Y-80930800D01*
X152091200Y-79429200D01*
X153392800Y-79429200D01*
X153392800Y-80930800D01*
G37*
G36*
X151692800Y-80930800D02*
G01*
X150391200Y-80930800D01*
X150391200Y-79429200D01*
X151692800Y-79429200D01*
X151692800Y-80930800D01*
G37*
G36*
X143176800Y-80595800D02*
G01*
X141575200Y-80595800D01*
X141575200Y-79944200D01*
X143176800Y-79944200D01*
X143176800Y-80595800D01*
G37*
G36*
X134776800Y-80595800D02*
G01*
X133175200Y-80595800D01*
X133175200Y-79944200D01*
X134776800Y-79944200D01*
X134776800Y-80595800D01*
G37*
G36*
X134776800Y-79795800D02*
G01*
X133175200Y-79795800D01*
X133175200Y-79144200D01*
X134776800Y-79144200D01*
X134776800Y-79795800D01*
G37*
G36*
X143176800Y-79795800D02*
G01*
X141575200Y-79795800D01*
X141575200Y-79144200D01*
X143176800Y-79144200D01*
X143176800Y-79795800D01*
G37*
G36*
X134776800Y-78995800D02*
G01*
X133175200Y-78995800D01*
X133175200Y-78344200D01*
X134776800Y-78344200D01*
X134776800Y-78995800D01*
G37*
G36*
X143176800Y-78995800D02*
G01*
X141575200Y-78995800D01*
X141575200Y-78344200D01*
X143176800Y-78344200D01*
X143176800Y-78995800D01*
G37*
G36*
X172293600Y-78808600D02*
G01*
X171190400Y-78808600D01*
X171190400Y-77655400D01*
X172293600Y-77655400D01*
X172293600Y-78808600D01*
G37*
G36*
X170693600Y-78808600D02*
G01*
X169590400Y-78808600D01*
X169590400Y-77655400D01*
X170693600Y-77655400D01*
X170693600Y-78808600D01*
G37*
G36*
X143176800Y-78195800D02*
G01*
X141575200Y-78195800D01*
X141575200Y-77544200D01*
X143176800Y-77544200D01*
X143176800Y-78195800D01*
G37*
G36*
X134776800Y-78195800D02*
G01*
X133175200Y-78195800D01*
X133175200Y-77544200D01*
X134776800Y-77544200D01*
X134776800Y-78195800D01*
G37*
G36*
X151519240Y-76921792D02*
G01*
X151542152Y-76928742D01*
X151563273Y-76940031D01*
X151581780Y-76955220D01*
X151596969Y-76973727D01*
X151608258Y-76994848D01*
X151615208Y-77017760D01*
X151617800Y-77044073D01*
X151617800Y-77895927D01*
X151615208Y-77922240D01*
X151608258Y-77945152D01*
X151596969Y-77966273D01*
X151581780Y-77984780D01*
X151563273Y-77999969D01*
X151542152Y-78011258D01*
X151519240Y-78018208D01*
X151492927Y-78020800D01*
X150691073Y-78020800D01*
X150664760Y-78018208D01*
X150641848Y-78011258D01*
X150620727Y-77999969D01*
X150602220Y-77984780D01*
X150587031Y-77966273D01*
X150575742Y-77945152D01*
X150568792Y-77922240D01*
X150566200Y-77895927D01*
X150566200Y-77044073D01*
X150568792Y-77017760D01*
X150575742Y-76994848D01*
X150587031Y-76973727D01*
X150602220Y-76955220D01*
X150620727Y-76940031D01*
X150641848Y-76928742D01*
X150664760Y-76921792D01*
X150691073Y-76919200D01*
X151492927Y-76919200D01*
X151519240Y-76921792D01*
G37*
G36*
X153119240Y-76921792D02*
G01*
X153142152Y-76928742D01*
X153163273Y-76940031D01*
X153181780Y-76955220D01*
X153196969Y-76973727D01*
X153208258Y-76994848D01*
X153215208Y-77017760D01*
X153217800Y-77044073D01*
X153217800Y-77895927D01*
X153215208Y-77922240D01*
X153208258Y-77945152D01*
X153196969Y-77966273D01*
X153181780Y-77984780D01*
X153163273Y-77999969D01*
X153142152Y-78011258D01*
X153119240Y-78018208D01*
X153092927Y-78020800D01*
X152291073Y-78020800D01*
X152264760Y-78018208D01*
X152241848Y-78011258D01*
X152220727Y-77999969D01*
X152202220Y-77984780D01*
X152187031Y-77966273D01*
X152175742Y-77945152D01*
X152168792Y-77922240D01*
X152166200Y-77895927D01*
X152166200Y-77044073D01*
X152168792Y-77017760D01*
X152175742Y-76994848D01*
X152187031Y-76973727D01*
X152202220Y-76955220D01*
X152220727Y-76940031D01*
X152241848Y-76928742D01*
X152264760Y-76921792D01*
X152291073Y-76919200D01*
X153092927Y-76919200D01*
X153119240Y-76921792D01*
G37*
G36*
X167133763Y-77058400D02*
G01*
X167993600Y-77058400D01*
X167993600Y-77881600D01*
X167133763Y-77881600D01*
X167133763Y-77881668D01*
X167130237Y-77881668D01*
X167130237Y-77881600D01*
X166270400Y-77881600D01*
X166270400Y-77058400D01*
X167130237Y-77058400D01*
X167130237Y-77058332D01*
X167133763Y-77058332D01*
X167133763Y-77058400D01*
G37*
G36*
X134776800Y-77395800D02*
G01*
X133175200Y-77395800D01*
X133175200Y-76744200D01*
X134776800Y-76744200D01*
X134776800Y-77395800D01*
G37*
G36*
X143176800Y-77395800D02*
G01*
X141575200Y-77395800D01*
X141575200Y-76744200D01*
X143176800Y-76744200D01*
X143176800Y-77395800D01*
G37*
G36*
X134776800Y-76595800D02*
G01*
X133175200Y-76595800D01*
X133175200Y-75944200D01*
X134776800Y-75944200D01*
X134776800Y-76595800D01*
G37*
G36*
X143176800Y-76595800D02*
G01*
X141575200Y-76595800D01*
X141575200Y-75944200D01*
X143176800Y-75944200D01*
X143176800Y-76595800D01*
G37*
G36*
X170693600Y-76522600D02*
G01*
X169590400Y-76522600D01*
X169590400Y-75369400D01*
X170693600Y-75369400D01*
X170693600Y-76522600D01*
G37*
G36*
X172293600Y-76522600D02*
G01*
X171190400Y-76522600D01*
X171190400Y-75369400D01*
X172293600Y-75369400D01*
X172293600Y-76522600D01*
G37*
G36*
X167133763Y-75534400D02*
G01*
X167993600Y-75534400D01*
X167993600Y-76357600D01*
X167133763Y-76357600D01*
X167133763Y-76357668D01*
X167130237Y-76357668D01*
X167130237Y-76357600D01*
X166270400Y-76357600D01*
X166270400Y-75534400D01*
X167130237Y-75534400D01*
X167130237Y-75534332D01*
X167133763Y-75534332D01*
X167133763Y-75534400D01*
G37*
G36*
X151893763Y-75534400D02*
G01*
X152753600Y-75534400D01*
X152753600Y-76357600D01*
X151893763Y-76357600D01*
X151893763Y-76357668D01*
X151890237Y-76357668D01*
X151890237Y-76357600D01*
X151030400Y-76357600D01*
X151030400Y-75534400D01*
X151890237Y-75534400D01*
X151890237Y-75534332D01*
X151893763Y-75534332D01*
X151893763Y-75534400D01*
G37*
G36*
X134776800Y-75795800D02*
G01*
X133175200Y-75795800D01*
X133175200Y-75144200D01*
X134776800Y-75144200D01*
X134776800Y-75795800D01*
G37*
G36*
X143176800Y-75795800D02*
G01*
X141575200Y-75795800D01*
X141575200Y-75144200D01*
X143176800Y-75144200D01*
X143176800Y-75795800D01*
G37*
G36*
X134776800Y-74995800D02*
G01*
X133175200Y-74995800D01*
X133175200Y-74344200D01*
X134776800Y-74344200D01*
X134776800Y-74995800D01*
G37*
G36*
X143176800Y-74995800D02*
G01*
X141575200Y-74995800D01*
X141575200Y-74344200D01*
X143176800Y-74344200D01*
X143176800Y-74995800D01*
G37*
G36*
X167133763Y-73756400D02*
G01*
X167993600Y-73756400D01*
X167993600Y-74579600D01*
X167133763Y-74579600D01*
X167133763Y-74579668D01*
X167130237Y-74579668D01*
X167130237Y-74579600D01*
X166270400Y-74579600D01*
X166270400Y-73756400D01*
X167130237Y-73756400D01*
X167130237Y-73756332D01*
X167133763Y-73756332D01*
X167133763Y-73756400D01*
G37*
G36*
X172293600Y-74236600D02*
G01*
X171190400Y-74236600D01*
X171190400Y-73083400D01*
X172293600Y-73083400D01*
X172293600Y-74236600D01*
G37*
G36*
X170693600Y-74236600D02*
G01*
X169590400Y-74236600D01*
X169590400Y-73083400D01*
X170693600Y-73083400D01*
X170693600Y-74236600D01*
G37*
G36*
X138901800Y-74070800D02*
G01*
X138250200Y-74070800D01*
X138250200Y-72469200D01*
X138901800Y-72469200D01*
X138901800Y-74070800D01*
G37*
G36*
X139701800Y-74070800D02*
G01*
X139050200Y-74070800D01*
X139050200Y-72469200D01*
X139701800Y-72469200D01*
X139701800Y-74070800D01*
G37*
G36*
X140501800Y-74070800D02*
G01*
X139850200Y-74070800D01*
X139850200Y-72469200D01*
X140501800Y-72469200D01*
X140501800Y-74070800D01*
G37*
G36*
X141301800Y-74070800D02*
G01*
X140650200Y-74070800D01*
X140650200Y-72469200D01*
X141301800Y-72469200D01*
X141301800Y-74070800D01*
G37*
G36*
X137301800Y-74070800D02*
G01*
X136650200Y-74070800D01*
X136650200Y-72469200D01*
X137301800Y-72469200D01*
X137301800Y-74070800D01*
G37*
G36*
X136501800Y-74070800D02*
G01*
X135850200Y-74070800D01*
X135850200Y-72469200D01*
X136501800Y-72469200D01*
X136501800Y-74070800D01*
G37*
G36*
X135701800Y-74070800D02*
G01*
X135050200Y-74070800D01*
X135050200Y-72469200D01*
X135701800Y-72469200D01*
X135701800Y-74070800D01*
G37*
G36*
X138101800Y-74070800D02*
G01*
X137450200Y-74070800D01*
X137450200Y-72469200D01*
X138101800Y-72469200D01*
X138101800Y-74070800D01*
G37*
G36*
X153497600Y-73474600D02*
G01*
X152394400Y-73474600D01*
X152394400Y-72321400D01*
X153497600Y-72321400D01*
X153497600Y-73474600D01*
G37*
G36*
X151897600Y-73474600D02*
G01*
X150794400Y-73474600D01*
X150794400Y-72321400D01*
X151897600Y-72321400D01*
X151897600Y-73474600D01*
G37*
G36*
X148591763Y-72486400D02*
G01*
X149451600Y-72486400D01*
X149451600Y-73309600D01*
X148591763Y-73309600D01*
X148591763Y-73309668D01*
X148588237Y-73309668D01*
X148588237Y-73309600D01*
X147728400Y-73309600D01*
X147728400Y-72486400D01*
X148588237Y-72486400D01*
X148588237Y-72486332D01*
X148591763Y-72486332D01*
X148591763Y-72486400D01*
G37*
G36*
X134046800Y-71580800D02*
G01*
X132145200Y-71580800D01*
X132145200Y-68879200D01*
X134046800Y-68879200D01*
X134046800Y-71580800D01*
G37*
G36*
X163182894Y-70391324D02*
G01*
X163211019Y-70399856D01*
X163236935Y-70413708D01*
X163259649Y-70432351D01*
X163278292Y-70455065D01*
X163292144Y-70480981D01*
X163300676Y-70509106D01*
X163303800Y-70540831D01*
X163303800Y-70937169D01*
X163300676Y-70968894D01*
X163292144Y-70997019D01*
X163278292Y-71022935D01*
X163259649Y-71045649D01*
X163236935Y-71064292D01*
X163211019Y-71078144D01*
X163182894Y-71086676D01*
X163151169Y-71089800D01*
X161304831Y-71089800D01*
X161273106Y-71086676D01*
X161244981Y-71078144D01*
X161219065Y-71064292D01*
X161196351Y-71045649D01*
X161177708Y-71022935D01*
X161163856Y-70997019D01*
X161155324Y-70968894D01*
X161152200Y-70937169D01*
X161152200Y-70540831D01*
X161155324Y-70509106D01*
X161163856Y-70480981D01*
X161177708Y-70455065D01*
X161196351Y-70432351D01*
X161219065Y-70413708D01*
X161244981Y-70399856D01*
X161273106Y-70391324D01*
X161304831Y-70388200D01*
X163151169Y-70388200D01*
X163182894Y-70391324D01*
G37*
G36*
X172482894Y-70391324D02*
G01*
X172511019Y-70399856D01*
X172536935Y-70413708D01*
X172559649Y-70432351D01*
X172578292Y-70455065D01*
X172592144Y-70480981D01*
X172600676Y-70509106D01*
X172603800Y-70540831D01*
X172603800Y-70937169D01*
X172600676Y-70968894D01*
X172592144Y-70997019D01*
X172578292Y-71022935D01*
X172559649Y-71045649D01*
X172536935Y-71064292D01*
X172511019Y-71078144D01*
X172482894Y-71086676D01*
X172451169Y-71089800D01*
X170604831Y-71089800D01*
X170573106Y-71086676D01*
X170544981Y-71078144D01*
X170519065Y-71064292D01*
X170496351Y-71045649D01*
X170477708Y-71022935D01*
X170463856Y-70997019D01*
X170455324Y-70968894D01*
X170452200Y-70937169D01*
X170452200Y-70540831D01*
X170455324Y-70509106D01*
X170463856Y-70480981D01*
X170477708Y-70455065D01*
X170496351Y-70432351D01*
X170519065Y-70413708D01*
X170544981Y-70399856D01*
X170573106Y-70391324D01*
X170604831Y-70388200D01*
X172451169Y-70388200D01*
X172482894Y-70391324D01*
G37*
G36*
X148753213Y-70242526D02*
G01*
X148763783Y-70245733D01*
X148773518Y-70250936D01*
X148782056Y-70257944D01*
X148789064Y-70266482D01*
X148794267Y-70276217D01*
X148797474Y-70286787D01*
X148798800Y-70300257D01*
X148798800Y-70783743D01*
X148797474Y-70797213D01*
X148794267Y-70807783D01*
X148789064Y-70817518D01*
X148782056Y-70826056D01*
X148773518Y-70833064D01*
X148763783Y-70838267D01*
X148753213Y-70841474D01*
X148739743Y-70842800D01*
X148106257Y-70842800D01*
X148092787Y-70841474D01*
X148082217Y-70838267D01*
X148072482Y-70833064D01*
X148063944Y-70826056D01*
X148056936Y-70817518D01*
X148051733Y-70807783D01*
X148048526Y-70797213D01*
X148047200Y-70783743D01*
X148047200Y-70300257D01*
X148048526Y-70286787D01*
X148051733Y-70276217D01*
X148056936Y-70266482D01*
X148063944Y-70257944D01*
X148072482Y-70250936D01*
X148082217Y-70245733D01*
X148092787Y-70242526D01*
X148106257Y-70241200D01*
X148739743Y-70241200D01*
X148753213Y-70242526D01*
G37*
G36*
X150103213Y-70242526D02*
G01*
X150113783Y-70245733D01*
X150123518Y-70250936D01*
X150132056Y-70257944D01*
X150139064Y-70266482D01*
X150144267Y-70276217D01*
X150147474Y-70286787D01*
X150148800Y-70300257D01*
X150148800Y-70783743D01*
X150147474Y-70797213D01*
X150144267Y-70807783D01*
X150139064Y-70817518D01*
X150132056Y-70826056D01*
X150123518Y-70833064D01*
X150113783Y-70838267D01*
X150103213Y-70841474D01*
X150089743Y-70842800D01*
X149456257Y-70842800D01*
X149442787Y-70841474D01*
X149432217Y-70838267D01*
X149422482Y-70833064D01*
X149413944Y-70826056D01*
X149406936Y-70817518D01*
X149401733Y-70807783D01*
X149398526Y-70797213D01*
X149397200Y-70783743D01*
X149397200Y-70300257D01*
X149398526Y-70286787D01*
X149401733Y-70276217D01*
X149406936Y-70266482D01*
X149413944Y-70257944D01*
X149422482Y-70250936D01*
X149432217Y-70245733D01*
X149442787Y-70242526D01*
X149456257Y-70241200D01*
X150089743Y-70241200D01*
X150103213Y-70242526D01*
G37*
G36*
X158145600Y-69340237D02*
G01*
X158145668Y-69340237D01*
X158145668Y-69343763D01*
X158145600Y-69343763D01*
X158145600Y-70203600D01*
X157322400Y-70203600D01*
X157322400Y-69343763D01*
X157322332Y-69343763D01*
X157322332Y-69340237D01*
X157322400Y-69340237D01*
X157322400Y-68480400D01*
X158145600Y-68480400D01*
X158145600Y-69340237D01*
G37*
G36*
X155605600Y-69340237D02*
G01*
X155605668Y-69340237D01*
X155605668Y-69343763D01*
X155605600Y-69343763D01*
X155605600Y-70203600D01*
X154782400Y-70203600D01*
X154782400Y-69343763D01*
X154782332Y-69343763D01*
X154782332Y-69340237D01*
X154782400Y-69340237D01*
X154782400Y-68480400D01*
X155605600Y-68480400D01*
X155605600Y-69340237D01*
G37*
G36*
X150103213Y-69442526D02*
G01*
X150113783Y-69445733D01*
X150123518Y-69450936D01*
X150132056Y-69457944D01*
X150139064Y-69466482D01*
X150144267Y-69476217D01*
X150147474Y-69486787D01*
X150148800Y-69500257D01*
X150148800Y-69983743D01*
X150147474Y-69997213D01*
X150144267Y-70007783D01*
X150139064Y-70017518D01*
X150132056Y-70026056D01*
X150123518Y-70033064D01*
X150113783Y-70038267D01*
X150103213Y-70041474D01*
X150089743Y-70042800D01*
X149456257Y-70042800D01*
X149442787Y-70041474D01*
X149432217Y-70038267D01*
X149422482Y-70033064D01*
X149413944Y-70026056D01*
X149406936Y-70017518D01*
X149401733Y-70007783D01*
X149398526Y-69997213D01*
X149397200Y-69983743D01*
X149397200Y-69500257D01*
X149398526Y-69486787D01*
X149401733Y-69476217D01*
X149406936Y-69466482D01*
X149413944Y-69457944D01*
X149422482Y-69450936D01*
X149432217Y-69445733D01*
X149442787Y-69442526D01*
X149456257Y-69441200D01*
X150089743Y-69441200D01*
X150103213Y-69442526D01*
G37*
G36*
X148753213Y-69442526D02*
G01*
X148763783Y-69445733D01*
X148773518Y-69450936D01*
X148782056Y-69457944D01*
X148789064Y-69466482D01*
X148794267Y-69476217D01*
X148797474Y-69486787D01*
X148798800Y-69500257D01*
X148798800Y-69983743D01*
X148797474Y-69997213D01*
X148794267Y-70007783D01*
X148789064Y-70017518D01*
X148782056Y-70026056D01*
X148773518Y-70033064D01*
X148763783Y-70038267D01*
X148753213Y-70041474D01*
X148739743Y-70042800D01*
X148106257Y-70042800D01*
X148092787Y-70041474D01*
X148082217Y-70038267D01*
X148072482Y-70033064D01*
X148063944Y-70026056D01*
X148056936Y-70017518D01*
X148051733Y-70007783D01*
X148048526Y-69997213D01*
X148047200Y-69983743D01*
X148047200Y-69500257D01*
X148048526Y-69486787D01*
X148051733Y-69476217D01*
X148056936Y-69466482D01*
X148063944Y-69457944D01*
X148072482Y-69450936D01*
X148082217Y-69445733D01*
X148092787Y-69442526D01*
X148106257Y-69441200D01*
X148739743Y-69441200D01*
X148753213Y-69442526D01*
G37*
G36*
X163182894Y-69121324D02*
G01*
X163211019Y-69129856D01*
X163236935Y-69143708D01*
X163259649Y-69162351D01*
X163278292Y-69185065D01*
X163292144Y-69210981D01*
X163300676Y-69239106D01*
X163303800Y-69270831D01*
X163303800Y-69667169D01*
X163300676Y-69698894D01*
X163292144Y-69727019D01*
X163278292Y-69752935D01*
X163259649Y-69775649D01*
X163236935Y-69794292D01*
X163211019Y-69808144D01*
X163182894Y-69816676D01*
X163151169Y-69819800D01*
X161304831Y-69819800D01*
X161273106Y-69816676D01*
X161244981Y-69808144D01*
X161219065Y-69794292D01*
X161196351Y-69775649D01*
X161177708Y-69752935D01*
X161163856Y-69727019D01*
X161155324Y-69698894D01*
X161152200Y-69667169D01*
X161152200Y-69270831D01*
X161155324Y-69239106D01*
X161163856Y-69210981D01*
X161177708Y-69185065D01*
X161196351Y-69162351D01*
X161219065Y-69143708D01*
X161244981Y-69129856D01*
X161273106Y-69121324D01*
X161304831Y-69118200D01*
X163151169Y-69118200D01*
X163182894Y-69121324D01*
G37*
G36*
X172482894Y-69121324D02*
G01*
X172511019Y-69129856D01*
X172536935Y-69143708D01*
X172559649Y-69162351D01*
X172578292Y-69185065D01*
X172592144Y-69210981D01*
X172600676Y-69239106D01*
X172603800Y-69270831D01*
X172603800Y-69667169D01*
X172600676Y-69698894D01*
X172592144Y-69727019D01*
X172578292Y-69752935D01*
X172559649Y-69775649D01*
X172536935Y-69794292D01*
X172511019Y-69808144D01*
X172482894Y-69816676D01*
X172451169Y-69819800D01*
X170604831Y-69819800D01*
X170573106Y-69816676D01*
X170544981Y-69808144D01*
X170519065Y-69794292D01*
X170496351Y-69775649D01*
X170477708Y-69752935D01*
X170463856Y-69727019D01*
X170455324Y-69698894D01*
X170452200Y-69667169D01*
X170452200Y-69270831D01*
X170455324Y-69239106D01*
X170463856Y-69210981D01*
X170477708Y-69185065D01*
X170496351Y-69162351D01*
X170519065Y-69143708D01*
X170544981Y-69129856D01*
X170573106Y-69121324D01*
X170604831Y-69118200D01*
X172451169Y-69118200D01*
X172482894Y-69121324D01*
G37*
G36*
X148753213Y-68642526D02*
G01*
X148763783Y-68645733D01*
X148773518Y-68650936D01*
X148782056Y-68657944D01*
X148789064Y-68666482D01*
X148794267Y-68676217D01*
X148797474Y-68686787D01*
X148798800Y-68700257D01*
X148798800Y-69183743D01*
X148797474Y-69197213D01*
X148794267Y-69207783D01*
X148789064Y-69217518D01*
X148782056Y-69226056D01*
X148773518Y-69233064D01*
X148763783Y-69238267D01*
X148753213Y-69241474D01*
X148739743Y-69242800D01*
X148106257Y-69242800D01*
X148092787Y-69241474D01*
X148082217Y-69238267D01*
X148072482Y-69233064D01*
X148063944Y-69226056D01*
X148056936Y-69217518D01*
X148051733Y-69207783D01*
X148048526Y-69197213D01*
X148047200Y-69183743D01*
X148047200Y-68700257D01*
X148048526Y-68686787D01*
X148051733Y-68676217D01*
X148056936Y-68666482D01*
X148063944Y-68657944D01*
X148072482Y-68650936D01*
X148082217Y-68645733D01*
X148092787Y-68642526D01*
X148106257Y-68641200D01*
X148739743Y-68641200D01*
X148753213Y-68642526D01*
G37*
G36*
X150103213Y-68642526D02*
G01*
X150113783Y-68645733D01*
X150123518Y-68650936D01*
X150132056Y-68657944D01*
X150139064Y-68666482D01*
X150144267Y-68676217D01*
X150147474Y-68686787D01*
X150148800Y-68700257D01*
X150148800Y-69183743D01*
X150147474Y-69197213D01*
X150144267Y-69207783D01*
X150139064Y-69217518D01*
X150132056Y-69226056D01*
X150123518Y-69233064D01*
X150113783Y-69238267D01*
X150103213Y-69241474D01*
X150089743Y-69242800D01*
X149456257Y-69242800D01*
X149442787Y-69241474D01*
X149432217Y-69238267D01*
X149422482Y-69233064D01*
X149413944Y-69226056D01*
X149406936Y-69217518D01*
X149401733Y-69207783D01*
X149398526Y-69197213D01*
X149397200Y-69183743D01*
X149397200Y-68700257D01*
X149398526Y-68686787D01*
X149401733Y-68676217D01*
X149406936Y-68666482D01*
X149413944Y-68657944D01*
X149422482Y-68650936D01*
X149432217Y-68645733D01*
X149442787Y-68642526D01*
X149456257Y-68641200D01*
X150089743Y-68641200D01*
X150103213Y-68642526D01*
G37*
G36*
X172482894Y-67851324D02*
G01*
X172511019Y-67859856D01*
X172536935Y-67873708D01*
X172559649Y-67892351D01*
X172578292Y-67915065D01*
X172592144Y-67940981D01*
X172600676Y-67969106D01*
X172603800Y-68000831D01*
X172603800Y-68397169D01*
X172600676Y-68428894D01*
X172592144Y-68457019D01*
X172578292Y-68482935D01*
X172559649Y-68505649D01*
X172536935Y-68524292D01*
X172511019Y-68538144D01*
X172482894Y-68546676D01*
X172451169Y-68549800D01*
X170604831Y-68549800D01*
X170573106Y-68546676D01*
X170544981Y-68538144D01*
X170519065Y-68524292D01*
X170496351Y-68505649D01*
X170477708Y-68482935D01*
X170463856Y-68457019D01*
X170455324Y-68428894D01*
X170452200Y-68397169D01*
X170452200Y-68000831D01*
X170455324Y-67969106D01*
X170463856Y-67940981D01*
X170477708Y-67915065D01*
X170496351Y-67892351D01*
X170519065Y-67873708D01*
X170544981Y-67859856D01*
X170573106Y-67851324D01*
X170604831Y-67848200D01*
X172451169Y-67848200D01*
X172482894Y-67851324D01*
G37*
G36*
X163182894Y-67851324D02*
G01*
X163211019Y-67859856D01*
X163236935Y-67873708D01*
X163259649Y-67892351D01*
X163278292Y-67915065D01*
X163292144Y-67940981D01*
X163300676Y-67969106D01*
X163303800Y-68000831D01*
X163303800Y-68397169D01*
X163300676Y-68428894D01*
X163292144Y-68457019D01*
X163278292Y-68482935D01*
X163259649Y-68505649D01*
X163236935Y-68524292D01*
X163211019Y-68538144D01*
X163182894Y-68546676D01*
X163151169Y-68549800D01*
X161304831Y-68549800D01*
X161273106Y-68546676D01*
X161244981Y-68538144D01*
X161219065Y-68524292D01*
X161196351Y-68505649D01*
X161177708Y-68482935D01*
X161163856Y-68457019D01*
X161155324Y-68428894D01*
X161152200Y-68397169D01*
X161152200Y-68000831D01*
X161155324Y-67969106D01*
X161163856Y-67940981D01*
X161177708Y-67915065D01*
X161196351Y-67892351D01*
X161219065Y-67873708D01*
X161244981Y-67859856D01*
X161273106Y-67851324D01*
X161304831Y-67848200D01*
X163151169Y-67848200D01*
X163182894Y-67851324D01*
G37*
G36*
X150103213Y-67842526D02*
G01*
X150113783Y-67845733D01*
X150123518Y-67850936D01*
X150132056Y-67857944D01*
X150139064Y-67866482D01*
X150144267Y-67876217D01*
X150147474Y-67886787D01*
X150148800Y-67900257D01*
X150148800Y-68383743D01*
X150147474Y-68397213D01*
X150144267Y-68407783D01*
X150139064Y-68417518D01*
X150132056Y-68426056D01*
X150123518Y-68433064D01*
X150113783Y-68438267D01*
X150103213Y-68441474D01*
X150089743Y-68442800D01*
X149456257Y-68442800D01*
X149442787Y-68441474D01*
X149432217Y-68438267D01*
X149422482Y-68433064D01*
X149413944Y-68426056D01*
X149406936Y-68417518D01*
X149401733Y-68407783D01*
X149398526Y-68397213D01*
X149397200Y-68383743D01*
X149397200Y-67900257D01*
X149398526Y-67886787D01*
X149401733Y-67876217D01*
X149406936Y-67866482D01*
X149413944Y-67857944D01*
X149422482Y-67850936D01*
X149432217Y-67845733D01*
X149442787Y-67842526D01*
X149456257Y-67841200D01*
X150089743Y-67841200D01*
X150103213Y-67842526D01*
G37*
G36*
X148753213Y-67842526D02*
G01*
X148763783Y-67845733D01*
X148773518Y-67850936D01*
X148782056Y-67857944D01*
X148789064Y-67866482D01*
X148794267Y-67876217D01*
X148797474Y-67886787D01*
X148798800Y-67900257D01*
X148798800Y-68383743D01*
X148797474Y-68397213D01*
X148794267Y-68407783D01*
X148789064Y-68417518D01*
X148782056Y-68426056D01*
X148773518Y-68433064D01*
X148763783Y-68438267D01*
X148753213Y-68441474D01*
X148739743Y-68442800D01*
X148106257Y-68442800D01*
X148092787Y-68441474D01*
X148082217Y-68438267D01*
X148072482Y-68433064D01*
X148063944Y-68426056D01*
X148056936Y-68417518D01*
X148051733Y-68407783D01*
X148048526Y-68397213D01*
X148047200Y-68383743D01*
X148047200Y-67900257D01*
X148048526Y-67886787D01*
X148051733Y-67876217D01*
X148056936Y-67866482D01*
X148063944Y-67857944D01*
X148072482Y-67850936D01*
X148082217Y-67845733D01*
X148092787Y-67842526D01*
X148106257Y-67841200D01*
X148739743Y-67841200D01*
X148753213Y-67842526D01*
G37*
G36*
X134046800Y-68280800D02*
G01*
X132145200Y-68280800D01*
X132145200Y-65579200D01*
X134046800Y-65579200D01*
X134046800Y-68280800D01*
G37*
G36*
X172482894Y-66581324D02*
G01*
X172511019Y-66589856D01*
X172536935Y-66603708D01*
X172559649Y-66622351D01*
X172578292Y-66645065D01*
X172592144Y-66670981D01*
X172600676Y-66699106D01*
X172603800Y-66730831D01*
X172603800Y-67127169D01*
X172600676Y-67158894D01*
X172592144Y-67187019D01*
X172578292Y-67212935D01*
X172559649Y-67235649D01*
X172536935Y-67254292D01*
X172511019Y-67268144D01*
X172482894Y-67276676D01*
X172451169Y-67279800D01*
X170604831Y-67279800D01*
X170573106Y-67276676D01*
X170544981Y-67268144D01*
X170519065Y-67254292D01*
X170496351Y-67235649D01*
X170477708Y-67212935D01*
X170463856Y-67187019D01*
X170455324Y-67158894D01*
X170452200Y-67127169D01*
X170452200Y-66730831D01*
X170455324Y-66699106D01*
X170463856Y-66670981D01*
X170477708Y-66645065D01*
X170496351Y-66622351D01*
X170519065Y-66603708D01*
X170544981Y-66589856D01*
X170573106Y-66581324D01*
X170604831Y-66578200D01*
X172451169Y-66578200D01*
X172482894Y-66581324D01*
G37*
G36*
X163182894Y-66581324D02*
G01*
X163211019Y-66589856D01*
X163236935Y-66603708D01*
X163259649Y-66622351D01*
X163278292Y-66645065D01*
X163292144Y-66670981D01*
X163300676Y-66699106D01*
X163303800Y-66730831D01*
X163303800Y-67127169D01*
X163300676Y-67158894D01*
X163292144Y-67187019D01*
X163278292Y-67212935D01*
X163259649Y-67235649D01*
X163236935Y-67254292D01*
X163211019Y-67268144D01*
X163182894Y-67276676D01*
X163151169Y-67279800D01*
X161304831Y-67279800D01*
X161273106Y-67276676D01*
X161244981Y-67268144D01*
X161219065Y-67254292D01*
X161196351Y-67235649D01*
X161177708Y-67212935D01*
X161163856Y-67187019D01*
X161155324Y-67158894D01*
X161152200Y-67127169D01*
X161152200Y-66730831D01*
X161155324Y-66699106D01*
X161163856Y-66670981D01*
X161177708Y-66645065D01*
X161196351Y-66622351D01*
X161219065Y-66603708D01*
X161244981Y-66589856D01*
X161273106Y-66581324D01*
X161304831Y-66578200D01*
X163151169Y-66578200D01*
X163182894Y-66581324D01*
G37*
G36*
X163182894Y-65311324D02*
G01*
X163211019Y-65319856D01*
X163236935Y-65333708D01*
X163259649Y-65352351D01*
X163278292Y-65375065D01*
X163292144Y-65400981D01*
X163300676Y-65429106D01*
X163303800Y-65460831D01*
X163303800Y-65857169D01*
X163300676Y-65888894D01*
X163292144Y-65917019D01*
X163278292Y-65942935D01*
X163259649Y-65965649D01*
X163236935Y-65984292D01*
X163211019Y-65998144D01*
X163182894Y-66006676D01*
X163151169Y-66009800D01*
X161304831Y-66009800D01*
X161273106Y-66006676D01*
X161244981Y-65998144D01*
X161219065Y-65984292D01*
X161196351Y-65965649D01*
X161177708Y-65942935D01*
X161163856Y-65917019D01*
X161155324Y-65888894D01*
X161152200Y-65857169D01*
X161152200Y-65460831D01*
X161155324Y-65429106D01*
X161163856Y-65400981D01*
X161177708Y-65375065D01*
X161196351Y-65352351D01*
X161219065Y-65333708D01*
X161244981Y-65319856D01*
X161273106Y-65311324D01*
X161304831Y-65308200D01*
X163151169Y-65308200D01*
X163182894Y-65311324D01*
G37*
G36*
X172482894Y-65311324D02*
G01*
X172511019Y-65319856D01*
X172536935Y-65333708D01*
X172559649Y-65352351D01*
X172578292Y-65375065D01*
X172592144Y-65400981D01*
X172600676Y-65429106D01*
X172603800Y-65460831D01*
X172603800Y-65857169D01*
X172600676Y-65888894D01*
X172592144Y-65917019D01*
X172578292Y-65942935D01*
X172559649Y-65965649D01*
X172536935Y-65984292D01*
X172511019Y-65998144D01*
X172482894Y-66006676D01*
X172451169Y-66009800D01*
X170604831Y-66009800D01*
X170573106Y-66006676D01*
X170544981Y-65998144D01*
X170519065Y-65984292D01*
X170496351Y-65965649D01*
X170477708Y-65942935D01*
X170463856Y-65917019D01*
X170455324Y-65888894D01*
X170452200Y-65857169D01*
X170452200Y-65460831D01*
X170455324Y-65429106D01*
X170463856Y-65400981D01*
X170477708Y-65375065D01*
X170496351Y-65352351D01*
X170519065Y-65333708D01*
X170544981Y-65319856D01*
X170573106Y-65311324D01*
X170604831Y-65308200D01*
X172451169Y-65308200D01*
X172482894Y-65311324D01*
G37*
G36*
X155814700Y-65537800D02*
G01*
X154513100Y-65537800D01*
X154513100Y-64886200D01*
X155814700Y-64886200D01*
X155814700Y-65537800D01*
G37*
G36*
X158414900Y-65537800D02*
G01*
X157113300Y-65537800D01*
X157113300Y-64886200D01*
X158414900Y-64886200D01*
X158414900Y-65537800D01*
G37*
G36*
X143377323Y-58812182D02*
G01*
X143982461Y-58995748D01*
X144540159Y-59293844D01*
X145028986Y-59695014D01*
X145430156Y-60183841D01*
X145728252Y-60741539D01*
X145911818Y-61346677D01*
X145973801Y-61975999D01*
X145973801Y-61976001D01*
X145911818Y-62605323D01*
X145728252Y-63210461D01*
X145430156Y-63768159D01*
X145028986Y-64256986D01*
X144540159Y-64658156D01*
X143982461Y-64956252D01*
X143377323Y-65139818D01*
X142748001Y-65201801D01*
X142747999Y-65201801D01*
X142118677Y-65139818D01*
X141513539Y-64956252D01*
X140955841Y-64658156D01*
X140467014Y-64256986D01*
X140065844Y-63768159D01*
X139767748Y-63210461D01*
X139584182Y-62605323D01*
X139522199Y-61976001D01*
X139522199Y-61975999D01*
X139584182Y-61346677D01*
X139767748Y-60741539D01*
X140065844Y-60183841D01*
X140467014Y-59695014D01*
X140955841Y-59293844D01*
X141513539Y-58995748D01*
X142118677Y-58812182D01*
X142747999Y-58750199D01*
X142748001Y-58750199D01*
X143377323Y-58812182D01*
G37*
G36*
X172482894Y-64041324D02*
G01*
X172511019Y-64049856D01*
X172536935Y-64063708D01*
X172559649Y-64082351D01*
X172578292Y-64105065D01*
X172592144Y-64130981D01*
X172600676Y-64159106D01*
X172603800Y-64190831D01*
X172603800Y-64587169D01*
X172600676Y-64618894D01*
X172592144Y-64647019D01*
X172578292Y-64672935D01*
X172559649Y-64695649D01*
X172536935Y-64714292D01*
X172511019Y-64728144D01*
X172482894Y-64736676D01*
X172451169Y-64739800D01*
X170604831Y-64739800D01*
X170573106Y-64736676D01*
X170544981Y-64728144D01*
X170519065Y-64714292D01*
X170496351Y-64695649D01*
X170477708Y-64672935D01*
X170463856Y-64647019D01*
X170455324Y-64618894D01*
X170452200Y-64587169D01*
X170452200Y-64190831D01*
X170455324Y-64159106D01*
X170463856Y-64130981D01*
X170477708Y-64105065D01*
X170496351Y-64082351D01*
X170519065Y-64063708D01*
X170544981Y-64049856D01*
X170573106Y-64041324D01*
X170604831Y-64038200D01*
X172451169Y-64038200D01*
X172482894Y-64041324D01*
G37*
G36*
X163182894Y-64041324D02*
G01*
X163211019Y-64049856D01*
X163236935Y-64063708D01*
X163259649Y-64082351D01*
X163278292Y-64105065D01*
X163292144Y-64130981D01*
X163300676Y-64159106D01*
X163303800Y-64190831D01*
X163303800Y-64587169D01*
X163300676Y-64618894D01*
X163292144Y-64647019D01*
X163278292Y-64672935D01*
X163259649Y-64695649D01*
X163236935Y-64714292D01*
X163211019Y-64728144D01*
X163182894Y-64736676D01*
X163151169Y-64739800D01*
X161304831Y-64739800D01*
X161273106Y-64736676D01*
X161244981Y-64728144D01*
X161219065Y-64714292D01*
X161196351Y-64695649D01*
X161177708Y-64672935D01*
X161163856Y-64647019D01*
X161155324Y-64618894D01*
X161152200Y-64587169D01*
X161152200Y-64190831D01*
X161155324Y-64159106D01*
X161163856Y-64130981D01*
X161177708Y-64105065D01*
X161196351Y-64082351D01*
X161219065Y-64063708D01*
X161244981Y-64049856D01*
X161273106Y-64041324D01*
X161304831Y-64038200D01*
X163151169Y-64038200D01*
X163182894Y-64041324D01*
G37*
G36*
X155814700Y-64587800D02*
G01*
X154513100Y-64587800D01*
X154513100Y-63936200D01*
X155814700Y-63936200D01*
X155814700Y-64587800D01*
G37*
G36*
X158414900Y-63637800D02*
G01*
X157113300Y-63637800D01*
X157113300Y-62986200D01*
X158414900Y-62986200D01*
X158414900Y-63637800D01*
G37*
G36*
X155814700Y-63637800D02*
G01*
X154513100Y-63637800D01*
X154513100Y-62986200D01*
X155814700Y-62986200D01*
X155814700Y-63637800D01*
G37*
G36*
X152624200Y-63626800D02*
G01*
X149322600Y-63626800D01*
X149322600Y-60325200D01*
X152624200Y-60325200D01*
X152624200Y-63626800D01*
G37*
G36*
X136173400Y-63626800D02*
G01*
X132871800Y-63626800D01*
X132871800Y-60325200D01*
X136173400Y-60325200D01*
X136173400Y-63626800D01*
G37*
G36*
X172482894Y-62771324D02*
G01*
X172511019Y-62779856D01*
X172536935Y-62793708D01*
X172559649Y-62812351D01*
X172578292Y-62835065D01*
X172592144Y-62860981D01*
X172600676Y-62889106D01*
X172603800Y-62920831D01*
X172603800Y-63317169D01*
X172600676Y-63348894D01*
X172592144Y-63377019D01*
X172578292Y-63402935D01*
X172559649Y-63425649D01*
X172536935Y-63444292D01*
X172511019Y-63458144D01*
X172482894Y-63466676D01*
X172451169Y-63469800D01*
X170604831Y-63469800D01*
X170573106Y-63466676D01*
X170544981Y-63458144D01*
X170519065Y-63444292D01*
X170496351Y-63425649D01*
X170477708Y-63402935D01*
X170463856Y-63377019D01*
X170455324Y-63348894D01*
X170452200Y-63317169D01*
X170452200Y-62920831D01*
X170455324Y-62889106D01*
X170463856Y-62860981D01*
X170477708Y-62835065D01*
X170496351Y-62812351D01*
X170519065Y-62793708D01*
X170544981Y-62779856D01*
X170573106Y-62771324D01*
X170604831Y-62768200D01*
X172451169Y-62768200D01*
X172482894Y-62771324D01*
G37*
G36*
X163182894Y-62771324D02*
G01*
X163211019Y-62779856D01*
X163236935Y-62793708D01*
X163259649Y-62812351D01*
X163278292Y-62835065D01*
X163292144Y-62860981D01*
X163300676Y-62889106D01*
X163303800Y-62920831D01*
X163303800Y-63317169D01*
X163300676Y-63348894D01*
X163292144Y-63377019D01*
X163278292Y-63402935D01*
X163259649Y-63425649D01*
X163236935Y-63444292D01*
X163211019Y-63458144D01*
X163182894Y-63466676D01*
X163151169Y-63469800D01*
X161304831Y-63469800D01*
X161273106Y-63466676D01*
X161244981Y-63458144D01*
X161219065Y-63444292D01*
X161196351Y-63425649D01*
X161177708Y-63402935D01*
X161163856Y-63377019D01*
X161155324Y-63348894D01*
X161152200Y-63317169D01*
X161152200Y-62920831D01*
X161155324Y-62889106D01*
X161163856Y-62860981D01*
X161177708Y-62835065D01*
X161196351Y-62812351D01*
X161219065Y-62793708D01*
X161244981Y-62779856D01*
X161273106Y-62771324D01*
X161304831Y-62768200D01*
X163151169Y-62768200D01*
X163182894Y-62771324D01*
G37*
G36*
X172482894Y-61501324D02*
G01*
X172511019Y-61509856D01*
X172536935Y-61523708D01*
X172559649Y-61542351D01*
X172578292Y-61565065D01*
X172592144Y-61590981D01*
X172600676Y-61619106D01*
X172603800Y-61650831D01*
X172603800Y-62047169D01*
X172600676Y-62078894D01*
X172592144Y-62107019D01*
X172578292Y-62132935D01*
X172559649Y-62155649D01*
X172536935Y-62174292D01*
X172511019Y-62188144D01*
X172482894Y-62196676D01*
X172451169Y-62199800D01*
X170604831Y-62199800D01*
X170573106Y-62196676D01*
X170544981Y-62188144D01*
X170519065Y-62174292D01*
X170496351Y-62155649D01*
X170477708Y-62132935D01*
X170463856Y-62107019D01*
X170455324Y-62078894D01*
X170452200Y-62047169D01*
X170452200Y-61650831D01*
X170455324Y-61619106D01*
X170463856Y-61590981D01*
X170477708Y-61565065D01*
X170496351Y-61542351D01*
X170519065Y-61523708D01*
X170544981Y-61509856D01*
X170573106Y-61501324D01*
X170604831Y-61498200D01*
X172451169Y-61498200D01*
X172482894Y-61501324D01*
G37*
G36*
X163182894Y-61501324D02*
G01*
X163211019Y-61509856D01*
X163236935Y-61523708D01*
X163259649Y-61542351D01*
X163278292Y-61565065D01*
X163292144Y-61590981D01*
X163300676Y-61619106D01*
X163303800Y-61650831D01*
X163303800Y-62047169D01*
X163300676Y-62078894D01*
X163292144Y-62107019D01*
X163278292Y-62132935D01*
X163259649Y-62155649D01*
X163236935Y-62174292D01*
X163211019Y-62188144D01*
X163182894Y-62196676D01*
X163151169Y-62199800D01*
X161304831Y-62199800D01*
X161273106Y-62196676D01*
X161244981Y-62188144D01*
X161219065Y-62174292D01*
X161196351Y-62155649D01*
X161177708Y-62132935D01*
X161163856Y-62107019D01*
X161155324Y-62078894D01*
X161152200Y-62047169D01*
X161152200Y-61650831D01*
X161155324Y-61619106D01*
X161163856Y-61590981D01*
X161177708Y-61565065D01*
X161196351Y-61542351D01*
X161219065Y-61523708D01*
X161244981Y-61509856D01*
X161273106Y-61501324D01*
X161304831Y-61498200D01*
X163151169Y-61498200D01*
X163182894Y-61501324D01*
G37*
G36*
X157932240Y-60474792D02*
G01*
X157955152Y-60481742D01*
X157976273Y-60493031D01*
X157994780Y-60508220D01*
X158009969Y-60526727D01*
X158021258Y-60547848D01*
X158028208Y-60570760D01*
X158030800Y-60597073D01*
X158030800Y-61398927D01*
X158028208Y-61425240D01*
X158021258Y-61448152D01*
X158009969Y-61469273D01*
X157994780Y-61487780D01*
X157976273Y-61502969D01*
X157955152Y-61514258D01*
X157932240Y-61521208D01*
X157905927Y-61523800D01*
X157054073Y-61523800D01*
X157027760Y-61521208D01*
X157004848Y-61514258D01*
X156983727Y-61502969D01*
X156965220Y-61487780D01*
X156950031Y-61469273D01*
X156938742Y-61448152D01*
X156931792Y-61425240D01*
X156929200Y-61398927D01*
X156929200Y-60597073D01*
X156931792Y-60570760D01*
X156938742Y-60547848D01*
X156950031Y-60526727D01*
X156965220Y-60508220D01*
X156983727Y-60493031D01*
X157004848Y-60481742D01*
X157027760Y-60474792D01*
X157054073Y-60472200D01*
X157905927Y-60472200D01*
X157932240Y-60474792D01*
G37*
G36*
X155646240Y-60474792D02*
G01*
X155669152Y-60481742D01*
X155690273Y-60493031D01*
X155708780Y-60508220D01*
X155723969Y-60526727D01*
X155735258Y-60547848D01*
X155742208Y-60570760D01*
X155744800Y-60597073D01*
X155744800Y-61398927D01*
X155742208Y-61425240D01*
X155735258Y-61448152D01*
X155723969Y-61469273D01*
X155708780Y-61487780D01*
X155690273Y-61502969D01*
X155669152Y-61514258D01*
X155646240Y-61521208D01*
X155619927Y-61523800D01*
X154768073Y-61523800D01*
X154741760Y-61521208D01*
X154718848Y-61514258D01*
X154697727Y-61502969D01*
X154679220Y-61487780D01*
X154664031Y-61469273D01*
X154652742Y-61448152D01*
X154645792Y-61425240D01*
X154643200Y-61398927D01*
X154643200Y-60597073D01*
X154645792Y-60570760D01*
X154652742Y-60547848D01*
X154664031Y-60526727D01*
X154679220Y-60508220D01*
X154697727Y-60493031D01*
X154718848Y-60481742D01*
X154741760Y-60474792D01*
X154768073Y-60472200D01*
X155619927Y-60472200D01*
X155646240Y-60474792D01*
G37*
G36*
X157932240Y-58874792D02*
G01*
X157955152Y-58881742D01*
X157976273Y-58893031D01*
X157994780Y-58908220D01*
X158009969Y-58926727D01*
X158021258Y-58947848D01*
X158028208Y-58970760D01*
X158030800Y-58997073D01*
X158030800Y-59798927D01*
X158028208Y-59825240D01*
X158021258Y-59848152D01*
X158009969Y-59869273D01*
X157994780Y-59887780D01*
X157976273Y-59902969D01*
X157955152Y-59914258D01*
X157932240Y-59921208D01*
X157905927Y-59923800D01*
X157054073Y-59923800D01*
X157027760Y-59921208D01*
X157004848Y-59914258D01*
X156983727Y-59902969D01*
X156965220Y-59887780D01*
X156950031Y-59869273D01*
X156938742Y-59848152D01*
X156931792Y-59825240D01*
X156929200Y-59798927D01*
X156929200Y-58997073D01*
X156931792Y-58970760D01*
X156938742Y-58947848D01*
X156950031Y-58926727D01*
X156965220Y-58908220D01*
X156983727Y-58893031D01*
X157004848Y-58881742D01*
X157027760Y-58874792D01*
X157054073Y-58872200D01*
X157905927Y-58872200D01*
X157932240Y-58874792D01*
G37*
G36*
X155646240Y-58874792D02*
G01*
X155669152Y-58881742D01*
X155690273Y-58893031D01*
X155708780Y-58908220D01*
X155723969Y-58926727D01*
X155735258Y-58947848D01*
X155742208Y-58970760D01*
X155744800Y-58997073D01*
X155744800Y-59798927D01*
X155742208Y-59825240D01*
X155735258Y-59848152D01*
X155723969Y-59869273D01*
X155708780Y-59887780D01*
X155690273Y-59902969D01*
X155669152Y-59914258D01*
X155646240Y-59921208D01*
X155619927Y-59923800D01*
X154768073Y-59923800D01*
X154741760Y-59921208D01*
X154718848Y-59914258D01*
X154697727Y-59902969D01*
X154679220Y-59887780D01*
X154664031Y-59869273D01*
X154652742Y-59848152D01*
X154645792Y-59825240D01*
X154643200Y-59798927D01*
X154643200Y-58997073D01*
X154645792Y-58970760D01*
X154652742Y-58947848D01*
X154664031Y-58926727D01*
X154679220Y-58908220D01*
X154697727Y-58893031D01*
X154718848Y-58881742D01*
X154741760Y-58874792D01*
X154768073Y-58872200D01*
X155619927Y-58872200D01*
X155646240Y-58874792D01*
G37*
G36*
X176786800Y-59438800D02*
G01*
X170685200Y-59438800D01*
X170685200Y-53337200D01*
X176786800Y-53337200D01*
X176786800Y-59438800D01*
G37*
G36*
X135130800Y-59438800D02*
G01*
X129029200Y-59438800D01*
X129029200Y-53337200D01*
X135130800Y-53337200D01*
X135130800Y-59438800D01*
G37*
G36*
X153700600Y-58037237D02*
G01*
X153700668Y-58037237D01*
X153700668Y-58040763D01*
X153700600Y-58040763D01*
X153700600Y-58900600D01*
X152877400Y-58900600D01*
X152877400Y-58040763D01*
X152877332Y-58040763D01*
X152877332Y-58037237D01*
X152877400Y-58037237D01*
X152877400Y-57177400D01*
X153700600Y-57177400D01*
X153700600Y-58037237D01*
G37*
G36*
X151922600Y-58037237D02*
G01*
X151922668Y-58037237D01*
X151922668Y-58040763D01*
X151922600Y-58040763D01*
X151922600Y-58900600D01*
X151099400Y-58900600D01*
X151099400Y-58040763D01*
X151099332Y-58040763D01*
X151099332Y-58037237D01*
X151099400Y-58037237D01*
X151099400Y-57177400D01*
X151922600Y-57177400D01*
X151922600Y-58037237D01*
G37*
M02*
