G04 #@! TF.GenerationSoftware,KiCad,Pcbnew,(5.1.10)-1*
G04 #@! TF.CreationDate,2021-06-08T22:52:37-07:00*
G04 #@! TF.ProjectId,Plug_Pass,506c7567-5f50-4617-9373-2e6b69636164,v3.1*
G04 #@! TF.SameCoordinates,Original*
G04 #@! TF.FileFunction,Legend,Bot*
G04 #@! TF.FilePolarity,Positive*
%FSLAX46Y46*%
G04 Gerber Fmt 4.6, Leading zero omitted, Abs format (unit mm)*
G04 Created by KiCad (PCBNEW (5.1.10)-1) date 2021-06-08 22:52:37*
%MOMM*%
%LPD*%
G01*
G04 APERTURE LIST*
%ADD10C,0.150000*%
%ADD11C,0.120000*%
%ADD12C,0.127000*%
%ADD13C,0.250000*%
%ADD14C,0.100000*%
%ADD15C,0.038608*%
%ADD16C,0.050800*%
G04 APERTURE END LIST*
D10*
X167810952Y-54728714D02*
X167849047Y-54766809D01*
X167963333Y-54804904D01*
X168039523Y-54804904D01*
X168153809Y-54766809D01*
X168230000Y-54690619D01*
X168268095Y-54614428D01*
X168306190Y-54462047D01*
X168306190Y-54347761D01*
X168268095Y-54195380D01*
X168230000Y-54119190D01*
X168153809Y-54043000D01*
X168039523Y-54004904D01*
X167963333Y-54004904D01*
X167849047Y-54043000D01*
X167810952Y-54081095D01*
X167353809Y-54804904D02*
X167430000Y-54766809D01*
X167468095Y-54690619D01*
X167468095Y-54004904D01*
X166706190Y-54804904D02*
X166706190Y-54385857D01*
X166744285Y-54309666D01*
X166820476Y-54271571D01*
X166972857Y-54271571D01*
X167049047Y-54309666D01*
X166706190Y-54766809D02*
X166782380Y-54804904D01*
X166972857Y-54804904D01*
X167049047Y-54766809D01*
X167087142Y-54690619D01*
X167087142Y-54614428D01*
X167049047Y-54538238D01*
X166972857Y-54500142D01*
X166782380Y-54500142D01*
X166706190Y-54462047D01*
X166439523Y-54271571D02*
X166134761Y-54271571D01*
X166325238Y-54004904D02*
X166325238Y-54690619D01*
X166287142Y-54766809D01*
X166210952Y-54804904D01*
X166134761Y-54804904D01*
X165906190Y-54766809D02*
X165830000Y-54804904D01*
X165677619Y-54804904D01*
X165601428Y-54766809D01*
X165563333Y-54690619D01*
X165563333Y-54652523D01*
X165601428Y-54576333D01*
X165677619Y-54538238D01*
X165791904Y-54538238D01*
X165868095Y-54500142D01*
X165906190Y-54423952D01*
X165906190Y-54385857D01*
X165868095Y-54309666D01*
X165791904Y-54271571D01*
X165677619Y-54271571D01*
X165601428Y-54309666D01*
X165220476Y-54804904D02*
X165220476Y-54004904D01*
X165144285Y-54500142D02*
X164915714Y-54804904D01*
X164915714Y-54271571D02*
X165220476Y-54576333D01*
X164230000Y-54804904D02*
X164230000Y-54385857D01*
X164268095Y-54309666D01*
X164344285Y-54271571D01*
X164496666Y-54271571D01*
X164572857Y-54309666D01*
X164230000Y-54766809D02*
X164306190Y-54804904D01*
X164496666Y-54804904D01*
X164572857Y-54766809D01*
X164610952Y-54690619D01*
X164610952Y-54614428D01*
X164572857Y-54538238D01*
X164496666Y-54500142D01*
X164306190Y-54500142D01*
X164230000Y-54462047D01*
X163849047Y-54271571D02*
X163849047Y-54804904D01*
X163849047Y-54347761D02*
X163810952Y-54309666D01*
X163734761Y-54271571D01*
X163620476Y-54271571D01*
X163544285Y-54309666D01*
X163506190Y-54385857D01*
X163506190Y-54804904D01*
X163125238Y-54804904D02*
X163125238Y-54271571D01*
X163125238Y-54004904D02*
X163163333Y-54043000D01*
X163125238Y-54081095D01*
X163087142Y-54043000D01*
X163125238Y-54004904D01*
X163125238Y-54081095D01*
X162439523Y-54766809D02*
X162515714Y-54804904D01*
X162668095Y-54804904D01*
X162744285Y-54766809D01*
X162782380Y-54690619D01*
X162782380Y-54385857D01*
X162744285Y-54309666D01*
X162668095Y-54271571D01*
X162515714Y-54271571D01*
X162439523Y-54309666D01*
X162401428Y-54385857D01*
X162401428Y-54462047D01*
X162782380Y-54538238D01*
X161449047Y-54804904D02*
X161449047Y-54004904D01*
X161144285Y-54004904D01*
X161068095Y-54043000D01*
X161030000Y-54081095D01*
X160991904Y-54157285D01*
X160991904Y-54271571D01*
X161030000Y-54347761D01*
X161068095Y-54385857D01*
X161144285Y-54423952D01*
X161449047Y-54423952D01*
X160649047Y-54004904D02*
X160649047Y-54652523D01*
X160610952Y-54728714D01*
X160572857Y-54766809D01*
X160496666Y-54804904D01*
X160344285Y-54804904D01*
X160268095Y-54766809D01*
X160230000Y-54728714D01*
X160191904Y-54652523D01*
X160191904Y-54004904D01*
X159810952Y-54804904D02*
X159810952Y-54004904D01*
X159620476Y-54004904D01*
X159506190Y-54043000D01*
X159430000Y-54119190D01*
X159391904Y-54195380D01*
X159353809Y-54347761D01*
X159353809Y-54462047D01*
X159391904Y-54614428D01*
X159430000Y-54690619D01*
X159506190Y-54766809D01*
X159620476Y-54804904D01*
X159810952Y-54804904D01*
X169049047Y-56154904D02*
X169049047Y-55354904D01*
X168744285Y-55354904D01*
X168668095Y-55393000D01*
X168630000Y-55431095D01*
X168591904Y-55507285D01*
X168591904Y-55621571D01*
X168630000Y-55697761D01*
X168668095Y-55735857D01*
X168744285Y-55773952D01*
X169049047Y-55773952D01*
X168134761Y-56154904D02*
X168210952Y-56116809D01*
X168249047Y-56040619D01*
X168249047Y-55354904D01*
X167487142Y-55621571D02*
X167487142Y-56154904D01*
X167830000Y-55621571D02*
X167830000Y-56040619D01*
X167791904Y-56116809D01*
X167715714Y-56154904D01*
X167601428Y-56154904D01*
X167525238Y-56116809D01*
X167487142Y-56078714D01*
X166763333Y-55621571D02*
X166763333Y-56269190D01*
X166801428Y-56345380D01*
X166839523Y-56383476D01*
X166915714Y-56421571D01*
X167030000Y-56421571D01*
X167106190Y-56383476D01*
X166763333Y-56116809D02*
X166839523Y-56154904D01*
X166991904Y-56154904D01*
X167068095Y-56116809D01*
X167106190Y-56078714D01*
X167144285Y-56002523D01*
X167144285Y-55773952D01*
X167106190Y-55697761D01*
X167068095Y-55659666D01*
X166991904Y-55621571D01*
X166839523Y-55621571D01*
X166763333Y-55659666D01*
X165772857Y-56154904D02*
X165772857Y-55354904D01*
X165468095Y-55354904D01*
X165391904Y-55393000D01*
X165353809Y-55431095D01*
X165315714Y-55507285D01*
X165315714Y-55621571D01*
X165353809Y-55697761D01*
X165391904Y-55735857D01*
X165468095Y-55773952D01*
X165772857Y-55773952D01*
X164630000Y-56154904D02*
X164630000Y-55735857D01*
X164668095Y-55659666D01*
X164744285Y-55621571D01*
X164896666Y-55621571D01*
X164972857Y-55659666D01*
X164630000Y-56116809D02*
X164706190Y-56154904D01*
X164896666Y-56154904D01*
X164972857Y-56116809D01*
X165010952Y-56040619D01*
X165010952Y-55964428D01*
X164972857Y-55888238D01*
X164896666Y-55850142D01*
X164706190Y-55850142D01*
X164630000Y-55812047D01*
X164287142Y-56116809D02*
X164210952Y-56154904D01*
X164058571Y-56154904D01*
X163982380Y-56116809D01*
X163944285Y-56040619D01*
X163944285Y-56002523D01*
X163982380Y-55926333D01*
X164058571Y-55888238D01*
X164172857Y-55888238D01*
X164249047Y-55850142D01*
X164287142Y-55773952D01*
X164287142Y-55735857D01*
X164249047Y-55659666D01*
X164172857Y-55621571D01*
X164058571Y-55621571D01*
X163982380Y-55659666D01*
X163639523Y-56116809D02*
X163563333Y-56154904D01*
X163410952Y-56154904D01*
X163334761Y-56116809D01*
X163296666Y-56040619D01*
X163296666Y-56002523D01*
X163334761Y-55926333D01*
X163410952Y-55888238D01*
X163525238Y-55888238D01*
X163601428Y-55850142D01*
X163639523Y-55773952D01*
X163639523Y-55735857D01*
X163601428Y-55659666D01*
X163525238Y-55621571D01*
X163410952Y-55621571D01*
X163334761Y-55659666D01*
X162344285Y-55850142D02*
X161734761Y-55850142D01*
X160820476Y-55621571D02*
X160630000Y-56154904D01*
X160439523Y-55621571D01*
X160210952Y-55354904D02*
X159715714Y-55354904D01*
X159982380Y-55659666D01*
X159868095Y-55659666D01*
X159791904Y-55697761D01*
X159753809Y-55735857D01*
X159715714Y-55812047D01*
X159715714Y-56002523D01*
X159753809Y-56078714D01*
X159791904Y-56116809D01*
X159868095Y-56154904D01*
X160096666Y-56154904D01*
X160172857Y-56116809D01*
X160210952Y-56078714D01*
X159372857Y-56078714D02*
X159334761Y-56116809D01*
X159372857Y-56154904D01*
X159410952Y-56116809D01*
X159372857Y-56078714D01*
X159372857Y-56154904D01*
X159030000Y-55431095D02*
X158991904Y-55393000D01*
X158915714Y-55354904D01*
X158725238Y-55354904D01*
X158649047Y-55393000D01*
X158610952Y-55431095D01*
X158572857Y-55507285D01*
X158572857Y-55583476D01*
X158610952Y-55697761D01*
X159068095Y-56154904D01*
X158572857Y-56154904D01*
D11*
X171528000Y-60524000D02*
X134288000Y-60524000D01*
X134288000Y-60524000D02*
X134288000Y-84764000D01*
X134288000Y-84764000D02*
X171528000Y-84764000D01*
X171528000Y-84764000D02*
X171528000Y-60524000D01*
D12*
X173012000Y-110533000D02*
G75*
G03*
X173012000Y-110533000I-800000J0D01*
G01*
X174312000Y-113233000D02*
X170112000Y-113233000D01*
X170112000Y-113233000D02*
X170112000Y-107833000D01*
X170112000Y-107833000D02*
X174312000Y-107833000D01*
X174312000Y-107833000D02*
X174312000Y-113233000D01*
D13*
X136855200Y-126161800D02*
X169365200Y-126161800D01*
X136855200Y-98731800D02*
X169365200Y-98731800D01*
D14*
X144264000Y-98022000D02*
X144864000Y-98022000D01*
X144864000Y-98022000D02*
X145139000Y-97747000D01*
X145139000Y-97747000D02*
X145139000Y-97072000D01*
X144264000Y-90272000D02*
X145139000Y-90272000D01*
X145139000Y-90272000D02*
X145139000Y-90947000D01*
X132389000Y-97647000D02*
X132389000Y-97547000D01*
X132389000Y-97597000D02*
X132389000Y-98022000D01*
X132389000Y-98022000D02*
X132989000Y-98022000D01*
X133014000Y-90272000D02*
X132389000Y-90272000D01*
X132389000Y-90272000D02*
X132389000Y-90722000D01*
D10*
X173426380Y-60888714D02*
X172426380Y-60888714D01*
X172426380Y-61269666D01*
X172474000Y-61364904D01*
X172521619Y-61412523D01*
X172616857Y-61460142D01*
X172759714Y-61460142D01*
X172854952Y-61412523D01*
X172902571Y-61364904D01*
X172950190Y-61269666D01*
X172950190Y-60888714D01*
X173378761Y-61841095D02*
X173426380Y-61983952D01*
X173426380Y-62222047D01*
X173378761Y-62317285D01*
X173331142Y-62364904D01*
X173235904Y-62412523D01*
X173140666Y-62412523D01*
X173045428Y-62364904D01*
X172997809Y-62317285D01*
X172950190Y-62222047D01*
X172902571Y-62031571D01*
X172854952Y-61936333D01*
X172807333Y-61888714D01*
X172712095Y-61841095D01*
X172616857Y-61841095D01*
X172521619Y-61888714D01*
X172474000Y-61936333D01*
X172426380Y-62031571D01*
X172426380Y-62269666D01*
X172474000Y-62412523D01*
X173426380Y-63364904D02*
X173426380Y-62793476D01*
X173426380Y-63079190D02*
X172426380Y-63079190D01*
X172569238Y-62983952D01*
X172664476Y-62888714D01*
X172712095Y-62793476D01*
D15*
X172889575Y-91723996D02*
X172889575Y-91944613D01*
X173275655Y-91834304D02*
X172889575Y-91834304D01*
X172889575Y-92036537D02*
X173275655Y-92293923D01*
X172889575Y-92293923D02*
X173275655Y-92036537D01*
X173275655Y-92643234D02*
X173275655Y-92422617D01*
X173275655Y-92532925D02*
X172889575Y-92532925D01*
X172944729Y-92496156D01*
X172981499Y-92459386D01*
X172999883Y-92422617D01*
D16*
X169563142Y-91467214D02*
X169272857Y-91467214D01*
X169418000Y-91612357D02*
X169418000Y-91322071D01*
D15*
X173275655Y-90175805D02*
X173091807Y-90047112D01*
X173275655Y-89955188D02*
X172889575Y-89955188D01*
X172889575Y-90102266D01*
X172907960Y-90139036D01*
X172926344Y-90157420D01*
X172963114Y-90175805D01*
X173018268Y-90175805D01*
X173055038Y-90157420D01*
X173073422Y-90139036D01*
X173091807Y-90102266D01*
X173091807Y-89955188D01*
X172889575Y-90304499D02*
X173275655Y-90561885D01*
X172889575Y-90561885D02*
X173275655Y-90304499D01*
X173275655Y-90911196D02*
X173275655Y-90690579D01*
X173275655Y-90800887D02*
X172889575Y-90800887D01*
X172944729Y-90764118D01*
X172981499Y-90727348D01*
X172999883Y-90690579D01*
D16*
X169563142Y-89689214D02*
X169272857Y-89689214D01*
X169418000Y-89834357D02*
X169418000Y-89544071D01*
D15*
X148825615Y-59223670D02*
X148641767Y-59094977D01*
X148825615Y-59003053D02*
X148439535Y-59003053D01*
X148439535Y-59150131D01*
X148457920Y-59186900D01*
X148476304Y-59205285D01*
X148513074Y-59223670D01*
X148568228Y-59223670D01*
X148604998Y-59205285D01*
X148623382Y-59186900D01*
X148641767Y-59150131D01*
X148641767Y-59003053D01*
X148825615Y-59407518D02*
X148825615Y-59481057D01*
X148807230Y-59517826D01*
X148788845Y-59536211D01*
X148733691Y-59572980D01*
X148660152Y-59591365D01*
X148513074Y-59591365D01*
X148476304Y-59572980D01*
X148457920Y-59554596D01*
X148439535Y-59517826D01*
X148439535Y-59444287D01*
X148457920Y-59407518D01*
X148476304Y-59389133D01*
X148513074Y-59370748D01*
X148604998Y-59370748D01*
X148641767Y-59389133D01*
X148660152Y-59407518D01*
X148678537Y-59444287D01*
X148678537Y-59517826D01*
X148660152Y-59554596D01*
X148641767Y-59572980D01*
X148604998Y-59591365D01*
X152971620Y-60880655D02*
X152971620Y-60494575D01*
X152824542Y-60494575D01*
X152787773Y-60512960D01*
X152769388Y-60531344D01*
X152751003Y-60568114D01*
X152751003Y-60623268D01*
X152769388Y-60660038D01*
X152787773Y-60678422D01*
X152824542Y-60696807D01*
X152971620Y-60696807D01*
X152622310Y-60494575D02*
X152530386Y-60880655D01*
X152456847Y-60604883D01*
X152383308Y-60880655D01*
X152291384Y-60494575D01*
X151923689Y-60880655D02*
X152052382Y-60696807D01*
X152144306Y-60880655D02*
X152144306Y-60494575D01*
X151997228Y-60494575D01*
X151960459Y-60512960D01*
X151942074Y-60531344D01*
X151923689Y-60568114D01*
X151923689Y-60623268D01*
X151942074Y-60660038D01*
X151960459Y-60678422D01*
X151997228Y-60696807D01*
X152144306Y-60696807D01*
X151555994Y-60880655D02*
X151776611Y-60880655D01*
X151666302Y-60880655D02*
X151666302Y-60494575D01*
X151703072Y-60549729D01*
X151739841Y-60586499D01*
X151776611Y-60604883D01*
D16*
X151910142Y-58701214D02*
X151619857Y-58701214D01*
X151765000Y-58846357D02*
X151765000Y-58556071D01*
D10*
X136037580Y-106111800D02*
X135561390Y-105778466D01*
X136037580Y-105540371D02*
X135037580Y-105540371D01*
X135037580Y-105921323D01*
X135085200Y-106016561D01*
X135132819Y-106064180D01*
X135228057Y-106111800D01*
X135370914Y-106111800D01*
X135466152Y-106064180D01*
X135513771Y-106016561D01*
X135561390Y-105921323D01*
X135561390Y-105540371D01*
X136037580Y-107016561D02*
X136037580Y-106540371D01*
X135037580Y-106540371D01*
X135561390Y-107540371D02*
X136037580Y-107540371D01*
X135037580Y-107207038D02*
X135561390Y-107540371D01*
X135037580Y-107873704D01*
X136037580Y-108730847D02*
X136037580Y-108159419D01*
X136037580Y-108445133D02*
X135037580Y-108445133D01*
X135180438Y-108349895D01*
X135275676Y-108254657D01*
X135323295Y-108159419D01*
X150463095Y-97163000D02*
X150558333Y-97115380D01*
X150701190Y-97115380D01*
X150844047Y-97163000D01*
X150939285Y-97258238D01*
X150986904Y-97353476D01*
X151034523Y-97543952D01*
X151034523Y-97686809D01*
X150986904Y-97877285D01*
X150939285Y-97972523D01*
X150844047Y-98067761D01*
X150701190Y-98115380D01*
X150605952Y-98115380D01*
X150463095Y-98067761D01*
X150415476Y-98020142D01*
X150415476Y-97686809D01*
X150605952Y-97686809D01*
X149986904Y-98115380D02*
X149986904Y-97115380D01*
X149415476Y-98115380D01*
X149415476Y-97115380D01*
X148939285Y-98115380D02*
X148939285Y-97115380D01*
X148701190Y-97115380D01*
X148558333Y-97163000D01*
X148463095Y-97258238D01*
X148415476Y-97353476D01*
X148367857Y-97543952D01*
X148367857Y-97686809D01*
X148415476Y-97877285D01*
X148463095Y-97972523D01*
X148558333Y-98067761D01*
X148701190Y-98115380D01*
X148939285Y-98115380D01*
X147415476Y-98115380D02*
X147986904Y-98115380D01*
X147701190Y-98115380D02*
X147701190Y-97115380D01*
X147796428Y-97258238D01*
X147891666Y-97353476D01*
X147986904Y-97401095D01*
X158075047Y-98115380D02*
X158075047Y-97115380D01*
X157503619Y-98115380D01*
X157503619Y-97115380D01*
X157027428Y-97591571D02*
X156694095Y-97591571D01*
X156551238Y-98115380D02*
X157027428Y-98115380D01*
X157027428Y-97115380D01*
X156551238Y-97115380D01*
X156122666Y-97115380D02*
X156122666Y-97924904D01*
X156075047Y-98020142D01*
X156027428Y-98067761D01*
X155932190Y-98115380D01*
X155741714Y-98115380D01*
X155646476Y-98067761D01*
X155598857Y-98020142D01*
X155551238Y-97924904D01*
X155551238Y-97115380D01*
X155217904Y-97115380D02*
X154646476Y-97115380D01*
X154932190Y-98115380D02*
X154932190Y-97115380D01*
X153789333Y-98115380D02*
X154360761Y-98115380D01*
X154075047Y-98115380D02*
X154075047Y-97115380D01*
X154170285Y-97258238D01*
X154265523Y-97353476D01*
X154360761Y-97401095D01*
X135112000Y-99639380D02*
X135445333Y-99163190D01*
X135683428Y-99639380D02*
X135683428Y-98639380D01*
X135302476Y-98639380D01*
X135207238Y-98687000D01*
X135159619Y-98734619D01*
X135112000Y-98829857D01*
X135112000Y-98972714D01*
X135159619Y-99067952D01*
X135207238Y-99115571D01*
X135302476Y-99163190D01*
X135683428Y-99163190D01*
X134207238Y-99639380D02*
X134683428Y-99639380D01*
X134683428Y-98639380D01*
X133683428Y-99163190D02*
X133683428Y-99639380D01*
X134016761Y-98639380D02*
X133683428Y-99163190D01*
X133350095Y-98639380D01*
X133064380Y-98734619D02*
X133016761Y-98687000D01*
X132921523Y-98639380D01*
X132683428Y-98639380D01*
X132588190Y-98687000D01*
X132540571Y-98734619D01*
X132492952Y-98829857D01*
X132492952Y-98925095D01*
X132540571Y-99067952D01*
X133112000Y-99639380D01*
X132492952Y-99639380D01*
M02*
