M48
; DRILL file {KiCad (5.1.5)-3} date 2020-06-18 1:30:05 PM
; FORMAT={-:-/ absolute / inch / decimal}
; #@! TF.CreationDate,2020-06-18T13:30:05-07:00
; #@! TF.GenerationSoftware,Kicad,Pcbnew,(5.1.5)-3
FMAT,2
INCH
T1C0.0200
T2C0.0394
T3C0.0400
%
G90
G05
T1
X3.7Y-3.96
X3.8Y-4.8
X3.9Y-4.8
X4.0Y-4.8
X4.1Y-4.8
X4.8Y-4.8
X4.96Y-3.02
T2
X4.78Y-2.72
X4.78Y-2.82
X4.78Y-2.92
X4.78Y-3.02
X4.78Y-3.12
X4.78Y-3.22
X3.84Y-3.66
X3.94Y-3.66
X4.04Y-3.66
X4.14Y-3.66
X4.24Y-3.66
X4.34Y-3.66
X4.44Y-3.66
X4.54Y-3.66
T3
X4.72Y-3.68
X4.72Y-3.78
X4.72Y-3.88
X4.72Y-3.98
X4.82Y-3.68
X4.82Y-3.78
X4.82Y-3.88
X4.82Y-3.98
T0
M30
