G04 #@! TF.GenerationSoftware,KiCad,Pcbnew,(5.1.5)-3*
G04 #@! TF.CreationDate,2020-06-18T13:28:00-07:00*
G04 #@! TF.ProjectId,Plug_Pass_AC_shield,506c7567-5f50-4617-9373-5f41435f7368,v2.0*
G04 #@! TF.SameCoordinates,Original*
G04 #@! TF.FileFunction,Soldermask,Bot*
G04 #@! TF.FilePolarity,Negative*
%FSLAX46Y46*%
G04 Gerber Fmt 4.6, Leading zero omitted, Abs format (unit mm)*
G04 Created by KiCad (PCBNEW (5.1.5)-3) date 2020-06-18 13:28:00*
%MOMM*%
%LPD*%
G04 APERTURE LIST*
%ADD10C,0.100000*%
G04 APERTURE END LIST*
D10*
G36*
X220982800Y-132590800D02*
G01*
X214881200Y-132590800D01*
X214881200Y-126489200D01*
X220982800Y-126489200D01*
X220982800Y-132590800D01*
G37*
G36*
X179326800Y-132590800D02*
G01*
X173225200Y-132590800D01*
X173225200Y-126489200D01*
X179326800Y-126489200D01*
X179326800Y-132590800D01*
G37*
G36*
X189302800Y-127326800D02*
G01*
X185601200Y-127326800D01*
X185601200Y-123625200D01*
X189302800Y-123625200D01*
X189302800Y-127326800D01*
G37*
G36*
X200223680Y-123642981D02*
G01*
X200491861Y-123696325D01*
X200828683Y-123835842D01*
X201131817Y-124038389D01*
X201389611Y-124296183D01*
X201592158Y-124599317D01*
X201731675Y-124936139D01*
X201802800Y-125293713D01*
X201802800Y-125658287D01*
X201731675Y-126015861D01*
X201592158Y-126352683D01*
X201389611Y-126655817D01*
X201131817Y-126913611D01*
X200828683Y-127116158D01*
X200491861Y-127255675D01*
X200223681Y-127309019D01*
X200134288Y-127326800D01*
X199769712Y-127326800D01*
X199680319Y-127309019D01*
X199412139Y-127255675D01*
X199075317Y-127116158D01*
X198772183Y-126913611D01*
X198514389Y-126655817D01*
X198311842Y-126352683D01*
X198172325Y-126015861D01*
X198101200Y-125658287D01*
X198101200Y-125293713D01*
X198172325Y-124936139D01*
X198311842Y-124599317D01*
X198514389Y-124296183D01*
X198772183Y-124038389D01*
X199075317Y-123835842D01*
X199412139Y-123696325D01*
X199680320Y-123642981D01*
X199769712Y-123625200D01*
X200134288Y-123625200D01*
X200223680Y-123642981D01*
G37*
G36*
X217087166Y-121390661D02*
G01*
X217222509Y-121417582D01*
X217413741Y-121496793D01*
X217585846Y-121611790D01*
X217732210Y-121758154D01*
X217847207Y-121930259D01*
X217926418Y-122121491D01*
X217966800Y-122324506D01*
X217966800Y-122531494D01*
X217926418Y-122734509D01*
X217847207Y-122925741D01*
X217732210Y-123097846D01*
X217585846Y-123244210D01*
X217413741Y-123359207D01*
X217222509Y-123438418D01*
X217087166Y-123465339D01*
X217019495Y-123478800D01*
X216812505Y-123478800D01*
X216744834Y-123465339D01*
X216609491Y-123438418D01*
X216418259Y-123359207D01*
X216246154Y-123244210D01*
X216099790Y-123097846D01*
X215984793Y-122925741D01*
X215905582Y-122734509D01*
X215865200Y-122531494D01*
X215865200Y-122324506D01*
X215905582Y-122121491D01*
X215984793Y-121930259D01*
X216099790Y-121758154D01*
X216246154Y-121611790D01*
X216418259Y-121496793D01*
X216609491Y-121417582D01*
X216744834Y-121390661D01*
X216812505Y-121377200D01*
X217019495Y-121377200D01*
X217087166Y-121390661D01*
G37*
G36*
X212007166Y-121390661D02*
G01*
X212142509Y-121417582D01*
X212333741Y-121496793D01*
X212505846Y-121611790D01*
X212652210Y-121758154D01*
X212767207Y-121930259D01*
X212846418Y-122121491D01*
X212886800Y-122324506D01*
X212886800Y-122531494D01*
X212846418Y-122734509D01*
X212767207Y-122925741D01*
X212652210Y-123097846D01*
X212505846Y-123244210D01*
X212333741Y-123359207D01*
X212142509Y-123438418D01*
X212007166Y-123465339D01*
X211939495Y-123478800D01*
X211732505Y-123478800D01*
X211664834Y-123465339D01*
X211529491Y-123438418D01*
X211338259Y-123359207D01*
X211166154Y-123244210D01*
X211019790Y-123097846D01*
X210904793Y-122925741D01*
X210825582Y-122734509D01*
X210785200Y-122531494D01*
X210785200Y-122324506D01*
X210825582Y-122121491D01*
X210904793Y-121930259D01*
X211019790Y-121758154D01*
X211166154Y-121611790D01*
X211338259Y-121496793D01*
X211529491Y-121417582D01*
X211664834Y-121390661D01*
X211732505Y-121377200D01*
X211939495Y-121377200D01*
X212007166Y-121390661D01*
G37*
G36*
X187079822Y-112220349D02*
G01*
X187324645Y-112269047D01*
X187670567Y-112412333D01*
X187981890Y-112620352D01*
X188246648Y-112885110D01*
X188454667Y-113196433D01*
X188597953Y-113542355D01*
X188671000Y-113909589D01*
X188671000Y-114284011D01*
X188597953Y-114651245D01*
X188454667Y-114997167D01*
X188246648Y-115308490D01*
X187981890Y-115573248D01*
X187670567Y-115781267D01*
X187324645Y-115924553D01*
X187079822Y-115973251D01*
X186957412Y-115997600D01*
X186582988Y-115997600D01*
X186460578Y-115973251D01*
X186215755Y-115924553D01*
X185869833Y-115781267D01*
X185558510Y-115573248D01*
X185293752Y-115308490D01*
X185085733Y-114997167D01*
X184942447Y-114651245D01*
X184869400Y-114284011D01*
X184869400Y-113909589D01*
X184942447Y-113542355D01*
X185085733Y-113196433D01*
X185293752Y-112885110D01*
X185558510Y-112620352D01*
X185869833Y-112412333D01*
X186215755Y-112269047D01*
X186460578Y-112220349D01*
X186582988Y-112196000D01*
X186957412Y-112196000D01*
X187079822Y-112220349D01*
G37*
G36*
X179459822Y-112220349D02*
G01*
X179704645Y-112269047D01*
X180050567Y-112412333D01*
X180361890Y-112620352D01*
X180626648Y-112885110D01*
X180834667Y-113196433D01*
X180977953Y-113542355D01*
X181051000Y-113909589D01*
X181051000Y-114284011D01*
X180977953Y-114651245D01*
X180834667Y-114997167D01*
X180626648Y-115308490D01*
X180361890Y-115573248D01*
X180050567Y-115781267D01*
X179704645Y-115924553D01*
X179459822Y-115973251D01*
X179337412Y-115997600D01*
X178962988Y-115997600D01*
X178840578Y-115973251D01*
X178595755Y-115924553D01*
X178249833Y-115781267D01*
X177938510Y-115573248D01*
X177673752Y-115308490D01*
X177465733Y-114997167D01*
X177322447Y-114651245D01*
X177249400Y-114284011D01*
X177249400Y-113909589D01*
X177322447Y-113542355D01*
X177465733Y-113196433D01*
X177673752Y-112885110D01*
X177938510Y-112620352D01*
X178249833Y-112412333D01*
X178595755Y-112269047D01*
X178840578Y-112220349D01*
X178962988Y-112196000D01*
X179337412Y-112196000D01*
X179459822Y-112220349D01*
G37*
G36*
X217087166Y-113770661D02*
G01*
X217222509Y-113797582D01*
X217413741Y-113876793D01*
X217585846Y-113991790D01*
X217732210Y-114138154D01*
X217847207Y-114310259D01*
X217926418Y-114501491D01*
X217966800Y-114704506D01*
X217966800Y-114911494D01*
X217926418Y-115114509D01*
X217847207Y-115305741D01*
X217732210Y-115477846D01*
X217585846Y-115624210D01*
X217413741Y-115739207D01*
X217222509Y-115818418D01*
X217087166Y-115845339D01*
X217019495Y-115858800D01*
X216812505Y-115858800D01*
X216744834Y-115845339D01*
X216609491Y-115818418D01*
X216418259Y-115739207D01*
X216246154Y-115624210D01*
X216099790Y-115477846D01*
X215984793Y-115305741D01*
X215905582Y-115114509D01*
X215865200Y-114911494D01*
X215865200Y-114704506D01*
X215905582Y-114501491D01*
X215984793Y-114310259D01*
X216099790Y-114138154D01*
X216246154Y-113991790D01*
X216418259Y-113876793D01*
X216609491Y-113797582D01*
X216744834Y-113770661D01*
X216812505Y-113757200D01*
X217019495Y-113757200D01*
X217087166Y-113770661D01*
G37*
G36*
X212007166Y-113770661D02*
G01*
X212142509Y-113797582D01*
X212333741Y-113876793D01*
X212505846Y-113991790D01*
X212652210Y-114138154D01*
X212767207Y-114310259D01*
X212846418Y-114501491D01*
X212886800Y-114704506D01*
X212886800Y-114911494D01*
X212846418Y-115114509D01*
X212767207Y-115305741D01*
X212652210Y-115477846D01*
X212505846Y-115624210D01*
X212333741Y-115739207D01*
X212142509Y-115818418D01*
X212007166Y-115845339D01*
X211939495Y-115858800D01*
X211732505Y-115858800D01*
X211664834Y-115845339D01*
X211529491Y-115818418D01*
X211338259Y-115739207D01*
X211166154Y-115624210D01*
X211019790Y-115477846D01*
X210904793Y-115305741D01*
X210825582Y-115114509D01*
X210785200Y-114911494D01*
X210785200Y-114704506D01*
X210825582Y-114501491D01*
X210904793Y-114310259D01*
X211019790Y-114138154D01*
X211166154Y-113991790D01*
X211338259Y-113876793D01*
X211529491Y-113797582D01*
X211664834Y-113770661D01*
X211732505Y-113757200D01*
X211939495Y-113757200D01*
X212007166Y-113770661D01*
G37*
G36*
X212007166Y-111230661D02*
G01*
X212142509Y-111257582D01*
X212333741Y-111336793D01*
X212505846Y-111451790D01*
X212652210Y-111598154D01*
X212767207Y-111770259D01*
X212846418Y-111961491D01*
X212886800Y-112164506D01*
X212886800Y-112371494D01*
X212846418Y-112574509D01*
X212767207Y-112765741D01*
X212652210Y-112937846D01*
X212505846Y-113084210D01*
X212333741Y-113199207D01*
X212142509Y-113278418D01*
X212007166Y-113305339D01*
X211939495Y-113318800D01*
X211732505Y-113318800D01*
X211664834Y-113305339D01*
X211529491Y-113278418D01*
X211338259Y-113199207D01*
X211166154Y-113084210D01*
X211019790Y-112937846D01*
X210904793Y-112765741D01*
X210825582Y-112574509D01*
X210785200Y-112371494D01*
X210785200Y-112164506D01*
X210825582Y-111961491D01*
X210904793Y-111770259D01*
X211019790Y-111598154D01*
X211166154Y-111451790D01*
X211338259Y-111336793D01*
X211529491Y-111257582D01*
X211664834Y-111230661D01*
X211732505Y-111217200D01*
X211939495Y-111217200D01*
X212007166Y-111230661D01*
G37*
G36*
X217966800Y-113318800D02*
G01*
X215865200Y-113318800D01*
X215865200Y-111217200D01*
X217966800Y-111217200D01*
X217966800Y-113318800D01*
G37*
G36*
X202389629Y-109035989D02*
G01*
X202626360Y-109134046D01*
X202839412Y-109276403D01*
X203020597Y-109457588D01*
X203162954Y-109670640D01*
X203261011Y-109907371D01*
X203311000Y-110158682D01*
X203311000Y-110414918D01*
X203261011Y-110666229D01*
X203162954Y-110902960D01*
X203020597Y-111116012D01*
X202839412Y-111297197D01*
X202626360Y-111439554D01*
X202389629Y-111537611D01*
X202138318Y-111587600D01*
X201882082Y-111587600D01*
X201630771Y-111537611D01*
X201394040Y-111439554D01*
X201180988Y-111297197D01*
X200999803Y-111116012D01*
X200857446Y-110902960D01*
X200759389Y-110666229D01*
X200709400Y-110414918D01*
X200709400Y-110158682D01*
X200759389Y-109907371D01*
X200857446Y-109670640D01*
X200999803Y-109457588D01*
X201180988Y-109276403D01*
X201394040Y-109134046D01*
X201630771Y-109035989D01*
X201882082Y-108986000D01*
X202138318Y-108986000D01*
X202389629Y-109035989D01*
G37*
G36*
X213030391Y-104767170D02*
G01*
X213118723Y-104784740D01*
X213285131Y-104853669D01*
X213434896Y-104953739D01*
X213562261Y-105081104D01*
X213662331Y-105230869D01*
X213731260Y-105397277D01*
X213766400Y-105573941D01*
X213766400Y-105754059D01*
X213731260Y-105930723D01*
X213662331Y-106097131D01*
X213562261Y-106246896D01*
X213434896Y-106374261D01*
X213285131Y-106474331D01*
X213118723Y-106543260D01*
X213030391Y-106560830D01*
X212942061Y-106578400D01*
X212761939Y-106578400D01*
X212673609Y-106560830D01*
X212585277Y-106543260D01*
X212418869Y-106474331D01*
X212269104Y-106374261D01*
X212141739Y-106246896D01*
X212041669Y-106097131D01*
X211972740Y-105930723D01*
X211937600Y-105754059D01*
X211937600Y-105573941D01*
X211972740Y-105397277D01*
X212041669Y-105230869D01*
X212141739Y-105081104D01*
X212269104Y-104953739D01*
X212418869Y-104853669D01*
X212585277Y-104784740D01*
X212673609Y-104767170D01*
X212761939Y-104749600D01*
X212942061Y-104749600D01*
X213030391Y-104767170D01*
G37*
G36*
X215570391Y-104767170D02*
G01*
X215658723Y-104784740D01*
X215825131Y-104853669D01*
X215974896Y-104953739D01*
X216102261Y-105081104D01*
X216202331Y-105230869D01*
X216271260Y-105397277D01*
X216306400Y-105573941D01*
X216306400Y-105754059D01*
X216271260Y-105930723D01*
X216202331Y-106097131D01*
X216102261Y-106246896D01*
X215974896Y-106374261D01*
X215825131Y-106474331D01*
X215658723Y-106543260D01*
X215570391Y-106560830D01*
X215482061Y-106578400D01*
X215301939Y-106578400D01*
X215213609Y-106560830D01*
X215125277Y-106543260D01*
X214958869Y-106474331D01*
X214809104Y-106374261D01*
X214681739Y-106246896D01*
X214581669Y-106097131D01*
X214512740Y-105930723D01*
X214477600Y-105754059D01*
X214477600Y-105573941D01*
X214512740Y-105397277D01*
X214581669Y-105230869D01*
X214681739Y-105081104D01*
X214809104Y-104953739D01*
X214958869Y-104853669D01*
X215125277Y-104784740D01*
X215213609Y-104767170D01*
X215301939Y-104749600D01*
X215482061Y-104749600D01*
X215570391Y-104767170D01*
G37*
G36*
X213030391Y-102227170D02*
G01*
X213118723Y-102244740D01*
X213285131Y-102313669D01*
X213434896Y-102413739D01*
X213562261Y-102541104D01*
X213662331Y-102690869D01*
X213731260Y-102857277D01*
X213766400Y-103033941D01*
X213766400Y-103214059D01*
X213731260Y-103390723D01*
X213662331Y-103557131D01*
X213562261Y-103706896D01*
X213434896Y-103834261D01*
X213285131Y-103934331D01*
X213118723Y-104003260D01*
X213030391Y-104020830D01*
X212942061Y-104038400D01*
X212761939Y-104038400D01*
X212673609Y-104020830D01*
X212585277Y-104003260D01*
X212418869Y-103934331D01*
X212269104Y-103834261D01*
X212141739Y-103706896D01*
X212041669Y-103557131D01*
X211972740Y-103390723D01*
X211937600Y-103214059D01*
X211937600Y-103033941D01*
X211972740Y-102857277D01*
X212041669Y-102690869D01*
X212141739Y-102541104D01*
X212269104Y-102413739D01*
X212418869Y-102313669D01*
X212585277Y-102244740D01*
X212673609Y-102227170D01*
X212761939Y-102209600D01*
X212942061Y-102209600D01*
X213030391Y-102227170D01*
G37*
G36*
X215570391Y-102227170D02*
G01*
X215658723Y-102244740D01*
X215825131Y-102313669D01*
X215974896Y-102413739D01*
X216102261Y-102541104D01*
X216202331Y-102690869D01*
X216271260Y-102857277D01*
X216306400Y-103033941D01*
X216306400Y-103214059D01*
X216271260Y-103390723D01*
X216202331Y-103557131D01*
X216102261Y-103706896D01*
X215974896Y-103834261D01*
X215825131Y-103934331D01*
X215658723Y-104003260D01*
X215570391Y-104020830D01*
X215482061Y-104038400D01*
X215301939Y-104038400D01*
X215213609Y-104020830D01*
X215125277Y-104003260D01*
X214958869Y-103934331D01*
X214809104Y-103834261D01*
X214681739Y-103706896D01*
X214581669Y-103557131D01*
X214512740Y-103390723D01*
X214477600Y-103214059D01*
X214477600Y-103033941D01*
X214512740Y-102857277D01*
X214581669Y-102690869D01*
X214681739Y-102541104D01*
X214809104Y-102413739D01*
X214958869Y-102313669D01*
X215125277Y-102244740D01*
X215213609Y-102227170D01*
X215301939Y-102209600D01*
X215482061Y-102209600D01*
X215570391Y-102227170D01*
G37*
G36*
X215570391Y-99687170D02*
G01*
X215658723Y-99704740D01*
X215825131Y-99773669D01*
X215974896Y-99873739D01*
X216102261Y-100001104D01*
X216202331Y-100150869D01*
X216271260Y-100317277D01*
X216306400Y-100493941D01*
X216306400Y-100674059D01*
X216271260Y-100850723D01*
X216202331Y-101017131D01*
X216102261Y-101166896D01*
X215974896Y-101294261D01*
X215825131Y-101394331D01*
X215658723Y-101463260D01*
X215570391Y-101480830D01*
X215482061Y-101498400D01*
X215301939Y-101498400D01*
X215213609Y-101480830D01*
X215125277Y-101463260D01*
X214958869Y-101394331D01*
X214809104Y-101294261D01*
X214681739Y-101166896D01*
X214581669Y-101017131D01*
X214512740Y-100850723D01*
X214477600Y-100674059D01*
X214477600Y-100493941D01*
X214512740Y-100317277D01*
X214581669Y-100150869D01*
X214681739Y-100001104D01*
X214809104Y-99873739D01*
X214958869Y-99773669D01*
X215125277Y-99704740D01*
X215213609Y-99687170D01*
X215301939Y-99669600D01*
X215482061Y-99669600D01*
X215570391Y-99687170D01*
G37*
G36*
X213030391Y-99687170D02*
G01*
X213118723Y-99704740D01*
X213285131Y-99773669D01*
X213434896Y-99873739D01*
X213562261Y-100001104D01*
X213662331Y-100150869D01*
X213731260Y-100317277D01*
X213766400Y-100493941D01*
X213766400Y-100674059D01*
X213731260Y-100850723D01*
X213662331Y-101017131D01*
X213562261Y-101166896D01*
X213434896Y-101294261D01*
X213285131Y-101394331D01*
X213118723Y-101463260D01*
X213030391Y-101480830D01*
X212942061Y-101498400D01*
X212761939Y-101498400D01*
X212673609Y-101480830D01*
X212585277Y-101463260D01*
X212418869Y-101394331D01*
X212269104Y-101294261D01*
X212141739Y-101166896D01*
X212041669Y-101017131D01*
X211972740Y-100850723D01*
X211937600Y-100674059D01*
X211937600Y-100493941D01*
X211972740Y-100317277D01*
X212041669Y-100150869D01*
X212141739Y-100001104D01*
X212269104Y-99873739D01*
X212418869Y-99773669D01*
X212585277Y-99704740D01*
X212673609Y-99687170D01*
X212761939Y-99669600D01*
X212942061Y-99669600D01*
X213030391Y-99687170D01*
G37*
G36*
X202389629Y-98875989D02*
G01*
X202626360Y-98974046D01*
X202839412Y-99116403D01*
X203020597Y-99297588D01*
X203162954Y-99510640D01*
X203261011Y-99747371D01*
X203311000Y-99998682D01*
X203311000Y-100254918D01*
X203261011Y-100506229D01*
X203162954Y-100742960D01*
X203020597Y-100956012D01*
X202839412Y-101137197D01*
X202626360Y-101279554D01*
X202389629Y-101377611D01*
X202138318Y-101427600D01*
X201882082Y-101427600D01*
X201630771Y-101377611D01*
X201394040Y-101279554D01*
X201180988Y-101137197D01*
X200999803Y-100956012D01*
X200857446Y-100742960D01*
X200759389Y-100506229D01*
X200709400Y-100254918D01*
X200709400Y-99998682D01*
X200759389Y-99747371D01*
X200857446Y-99510640D01*
X200999803Y-99297588D01*
X201180988Y-99116403D01*
X201394040Y-98974046D01*
X201630771Y-98875989D01*
X201882082Y-98826000D01*
X202138318Y-98826000D01*
X202389629Y-98875989D01*
G37*
G36*
X216306400Y-98958400D02*
G01*
X214477600Y-98958400D01*
X214477600Y-97129600D01*
X216306400Y-97129600D01*
X216306400Y-98958400D01*
G37*
G36*
X213030391Y-97147170D02*
G01*
X213118723Y-97164740D01*
X213285131Y-97233669D01*
X213434896Y-97333739D01*
X213562261Y-97461104D01*
X213662331Y-97610869D01*
X213731260Y-97777277D01*
X213766400Y-97953941D01*
X213766400Y-98134059D01*
X213731260Y-98310723D01*
X213662331Y-98477131D01*
X213562261Y-98626896D01*
X213434896Y-98754261D01*
X213285131Y-98854331D01*
X213118723Y-98923260D01*
X213030391Y-98940830D01*
X212942061Y-98958400D01*
X212761939Y-98958400D01*
X212673609Y-98940830D01*
X212585277Y-98923260D01*
X212418869Y-98854331D01*
X212269104Y-98754261D01*
X212141739Y-98626896D01*
X212041669Y-98477131D01*
X211972740Y-98310723D01*
X211937600Y-98134059D01*
X211937600Y-97953941D01*
X211972740Y-97777277D01*
X212041669Y-97610869D01*
X212141739Y-97461104D01*
X212269104Y-97333739D01*
X212418869Y-97233669D01*
X212585277Y-97164740D01*
X212673609Y-97147170D01*
X212761939Y-97129600D01*
X212942061Y-97129600D01*
X213030391Y-97147170D01*
G37*
G36*
X191111000Y-98117600D02*
G01*
X187509400Y-98117600D01*
X187509400Y-94516000D01*
X191111000Y-94516000D01*
X191111000Y-98117600D01*
G37*
G36*
X179350800Y-82322800D02*
G01*
X176249200Y-82322800D01*
X176249200Y-79221200D01*
X179350800Y-79221200D01*
X179350800Y-82322800D01*
G37*
G36*
X216752352Y-76530796D02*
G01*
X216752355Y-76530797D01*
X216752354Y-76530797D01*
X217034580Y-76647699D01*
X217288578Y-76817415D01*
X217504585Y-77033422D01*
X217674301Y-77287420D01*
X217674301Y-77287421D01*
X217791204Y-77569648D01*
X217850800Y-77869259D01*
X217850800Y-78174741D01*
X217791204Y-78474352D01*
X217791203Y-78474354D01*
X217674301Y-78756580D01*
X217504585Y-79010578D01*
X217288578Y-79226585D01*
X217034580Y-79396301D01*
X216835014Y-79478964D01*
X216752352Y-79513204D01*
X216452741Y-79572800D01*
X216147259Y-79572800D01*
X215847648Y-79513204D01*
X215764986Y-79478964D01*
X215565420Y-79396301D01*
X215311422Y-79226585D01*
X215095415Y-79010578D01*
X214925699Y-78756580D01*
X214808797Y-78474354D01*
X214808796Y-78474352D01*
X214749200Y-78174741D01*
X214749200Y-77869259D01*
X214808796Y-77569648D01*
X214925699Y-77287421D01*
X214925699Y-77287420D01*
X215095415Y-77033422D01*
X215311422Y-76817415D01*
X215565420Y-76647699D01*
X215847646Y-76530797D01*
X215847645Y-76530797D01*
X215847648Y-76530796D01*
X216147259Y-76471200D01*
X216452741Y-76471200D01*
X216752352Y-76530796D01*
G37*
G36*
X178252352Y-68530796D02*
G01*
X178252355Y-68530797D01*
X178252354Y-68530797D01*
X178534580Y-68647699D01*
X178788578Y-68817415D01*
X179004585Y-69033422D01*
X179174301Y-69287420D01*
X179174301Y-69287421D01*
X179291204Y-69569648D01*
X179350800Y-69869259D01*
X179350800Y-70174741D01*
X179291204Y-70474352D01*
X179291203Y-70474354D01*
X179174301Y-70756580D01*
X179004585Y-71010578D01*
X178788578Y-71226585D01*
X178534580Y-71396301D01*
X178335014Y-71478964D01*
X178252352Y-71513204D01*
X177952741Y-71572800D01*
X177647259Y-71572800D01*
X177347648Y-71513204D01*
X177264986Y-71478964D01*
X177065420Y-71396301D01*
X176811422Y-71226585D01*
X176595415Y-71010578D01*
X176425699Y-70756580D01*
X176308797Y-70474354D01*
X176308796Y-70474352D01*
X176249200Y-70174741D01*
X176249200Y-69869259D01*
X176308796Y-69569648D01*
X176425699Y-69287421D01*
X176425699Y-69287420D01*
X176595415Y-69033422D01*
X176811422Y-68817415D01*
X177065420Y-68647699D01*
X177347646Y-68530797D01*
X177347645Y-68530797D01*
X177347648Y-68530796D01*
X177647259Y-68471200D01*
X177952741Y-68471200D01*
X178252352Y-68530796D01*
G37*
G36*
X216752352Y-68530796D02*
G01*
X216752355Y-68530797D01*
X216752354Y-68530797D01*
X217034580Y-68647699D01*
X217288578Y-68817415D01*
X217504585Y-69033422D01*
X217674301Y-69287420D01*
X217674301Y-69287421D01*
X217791204Y-69569648D01*
X217850800Y-69869259D01*
X217850800Y-70174741D01*
X217791204Y-70474352D01*
X217791203Y-70474354D01*
X217674301Y-70756580D01*
X217504585Y-71010578D01*
X217288578Y-71226585D01*
X217034580Y-71396301D01*
X216835014Y-71478964D01*
X216752352Y-71513204D01*
X216452741Y-71572800D01*
X216147259Y-71572800D01*
X215847648Y-71513204D01*
X215764986Y-71478964D01*
X215565420Y-71396301D01*
X215311422Y-71226585D01*
X215095415Y-71010578D01*
X214925699Y-70756580D01*
X214808797Y-70474354D01*
X214808796Y-70474352D01*
X214749200Y-70174741D01*
X214749200Y-69869259D01*
X214808796Y-69569648D01*
X214925699Y-69287421D01*
X214925699Y-69287420D01*
X215095415Y-69033422D01*
X215311422Y-68817415D01*
X215565420Y-68647699D01*
X215847646Y-68530797D01*
X215847645Y-68530797D01*
X215847648Y-68530796D01*
X216147259Y-68471200D01*
X216452741Y-68471200D01*
X216752352Y-68530796D01*
G37*
G36*
X179326800Y-65534800D02*
G01*
X173225200Y-65534800D01*
X173225200Y-59433200D01*
X179326800Y-59433200D01*
X179326800Y-65534800D01*
G37*
G36*
X220982800Y-65534800D02*
G01*
X214881200Y-65534800D01*
X214881200Y-59433200D01*
X220982800Y-59433200D01*
X220982800Y-65534800D01*
G37*
M02*
