G04 #@! TF.GenerationSoftware,KiCad,Pcbnew,(5.1.5)-3*
G04 #@! TF.CreationDate,2020-07-28T07:49:15-07:00*
G04 #@! TF.ProjectId,Plug_Pass,506c7567-5f50-4617-9373-2e6b69636164,v2.2*
G04 #@! TF.SameCoordinates,Original*
G04 #@! TF.FileFunction,Soldermask,Bot*
G04 #@! TF.FilePolarity,Negative*
%FSLAX46Y46*%
G04 Gerber Fmt 4.6, Leading zero omitted, Abs format (unit mm)*
G04 Created by KiCad (PCBNEW (5.1.5)-3) date 2020-07-28 07:49:15*
%MOMM*%
%LPD*%
G04 APERTURE LIST*
%ADD10C,0.100000*%
G04 APERTURE END LIST*
D10*
G36*
X176786800Y-126494800D02*
G01*
X170685200Y-126494800D01*
X170685200Y-120393200D01*
X176786800Y-120393200D01*
X176786800Y-126494800D01*
G37*
G36*
X135130800Y-126494800D02*
G01*
X129029200Y-126494800D01*
X129029200Y-120393200D01*
X135130800Y-120393200D01*
X135130800Y-126494800D01*
G37*
G36*
X158667166Y-123930661D02*
G01*
X158802509Y-123957582D01*
X158993741Y-124036793D01*
X159165846Y-124151790D01*
X159312210Y-124298154D01*
X159427207Y-124470259D01*
X159506418Y-124661491D01*
X159546800Y-124864506D01*
X159546800Y-125071494D01*
X159506418Y-125274509D01*
X159427207Y-125465741D01*
X159312210Y-125637846D01*
X159165846Y-125784210D01*
X158993741Y-125899207D01*
X158802509Y-125978418D01*
X158667166Y-126005339D01*
X158599495Y-126018800D01*
X158392505Y-126018800D01*
X158324834Y-126005339D01*
X158189491Y-125978418D01*
X157998259Y-125899207D01*
X157826154Y-125784210D01*
X157679790Y-125637846D01*
X157564793Y-125465741D01*
X157485582Y-125274509D01*
X157445200Y-125071494D01*
X157445200Y-124864506D01*
X157485582Y-124661491D01*
X157564793Y-124470259D01*
X157679790Y-124298154D01*
X157826154Y-124151790D01*
X157998259Y-124036793D01*
X158189491Y-123957582D01*
X158324834Y-123930661D01*
X158392505Y-123917200D01*
X158599495Y-123917200D01*
X158667166Y-123930661D01*
G37*
G36*
X161207166Y-123930661D02*
G01*
X161342509Y-123957582D01*
X161533741Y-124036793D01*
X161705846Y-124151790D01*
X161852210Y-124298154D01*
X161967207Y-124470259D01*
X162046418Y-124661491D01*
X162086800Y-124864506D01*
X162086800Y-125071494D01*
X162046418Y-125274509D01*
X161967207Y-125465741D01*
X161852210Y-125637846D01*
X161705846Y-125784210D01*
X161533741Y-125899207D01*
X161342509Y-125978418D01*
X161207166Y-126005339D01*
X161139495Y-126018800D01*
X160932505Y-126018800D01*
X160864834Y-126005339D01*
X160729491Y-125978418D01*
X160538259Y-125899207D01*
X160366154Y-125784210D01*
X160219790Y-125637846D01*
X160104793Y-125465741D01*
X160025582Y-125274509D01*
X159985200Y-125071494D01*
X159985200Y-124864506D01*
X160025582Y-124661491D01*
X160104793Y-124470259D01*
X160219790Y-124298154D01*
X160366154Y-124151790D01*
X160538259Y-124036793D01*
X160729491Y-123957582D01*
X160864834Y-123930661D01*
X160932505Y-123917200D01*
X161139495Y-123917200D01*
X161207166Y-123930661D01*
G37*
G36*
X168827166Y-123930661D02*
G01*
X168962509Y-123957582D01*
X169153741Y-124036793D01*
X169325846Y-124151790D01*
X169472210Y-124298154D01*
X169587207Y-124470259D01*
X169666418Y-124661491D01*
X169706800Y-124864506D01*
X169706800Y-125071494D01*
X169666418Y-125274509D01*
X169587207Y-125465741D01*
X169472210Y-125637846D01*
X169325846Y-125784210D01*
X169153741Y-125899207D01*
X168962509Y-125978418D01*
X168827166Y-126005339D01*
X168759495Y-126018800D01*
X168552505Y-126018800D01*
X168484834Y-126005339D01*
X168349491Y-125978418D01*
X168158259Y-125899207D01*
X167986154Y-125784210D01*
X167839790Y-125637846D01*
X167724793Y-125465741D01*
X167645582Y-125274509D01*
X167605200Y-125071494D01*
X167605200Y-124864506D01*
X167645582Y-124661491D01*
X167724793Y-124470259D01*
X167839790Y-124298154D01*
X167986154Y-124151790D01*
X168158259Y-124036793D01*
X168349491Y-123957582D01*
X168484834Y-123930661D01*
X168552505Y-123917200D01*
X168759495Y-123917200D01*
X168827166Y-123930661D01*
G37*
G36*
X155011680Y-120340981D02*
G01*
X155279861Y-120394325D01*
X155616683Y-120533842D01*
X155919817Y-120736389D01*
X156177611Y-120994183D01*
X156380158Y-121297317D01*
X156519675Y-121634139D01*
X156590800Y-121991713D01*
X156590800Y-122356287D01*
X156519675Y-122713861D01*
X156380158Y-123050683D01*
X156177611Y-123353817D01*
X155919817Y-123611611D01*
X155616683Y-123814158D01*
X155279861Y-123953675D01*
X155011681Y-124007019D01*
X154922288Y-124024800D01*
X154557712Y-124024800D01*
X154468319Y-124007019D01*
X154200139Y-123953675D01*
X153863317Y-123814158D01*
X153560183Y-123611611D01*
X153302389Y-123353817D01*
X153099842Y-123050683D01*
X152960325Y-122713861D01*
X152889200Y-122356287D01*
X152889200Y-121991713D01*
X152960325Y-121634139D01*
X153099842Y-121297317D01*
X153302389Y-120994183D01*
X153560183Y-120736389D01*
X153863317Y-120533842D01*
X154200139Y-120394325D01*
X154468320Y-120340981D01*
X154557712Y-120323200D01*
X154922288Y-120323200D01*
X155011680Y-120340981D01*
G37*
G36*
X144090800Y-124024800D02*
G01*
X140389200Y-124024800D01*
X140389200Y-120323200D01*
X144090800Y-120323200D01*
X144090800Y-124024800D01*
G37*
G36*
X161207166Y-118850661D02*
G01*
X161342509Y-118877582D01*
X161533741Y-118956793D01*
X161705846Y-119071790D01*
X161852210Y-119218154D01*
X161967207Y-119390259D01*
X162046418Y-119581491D01*
X162086800Y-119784506D01*
X162086800Y-119991494D01*
X162046418Y-120194509D01*
X161967207Y-120385741D01*
X161852210Y-120557846D01*
X161705846Y-120704210D01*
X161533741Y-120819207D01*
X161342509Y-120898418D01*
X161207166Y-120925339D01*
X161139495Y-120938800D01*
X160932505Y-120938800D01*
X160864834Y-120925339D01*
X160729491Y-120898418D01*
X160538259Y-120819207D01*
X160366154Y-120704210D01*
X160219790Y-120557846D01*
X160104793Y-120385741D01*
X160025582Y-120194509D01*
X159985200Y-119991494D01*
X159985200Y-119784506D01*
X160025582Y-119581491D01*
X160104793Y-119390259D01*
X160219790Y-119218154D01*
X160366154Y-119071790D01*
X160538259Y-118956793D01*
X160729491Y-118877582D01*
X160864834Y-118850661D01*
X160932505Y-118837200D01*
X161139495Y-118837200D01*
X161207166Y-118850661D01*
G37*
G36*
X168827166Y-118850661D02*
G01*
X168962509Y-118877582D01*
X169153741Y-118956793D01*
X169325846Y-119071790D01*
X169472210Y-119218154D01*
X169587207Y-119390259D01*
X169666418Y-119581491D01*
X169706800Y-119784506D01*
X169706800Y-119991494D01*
X169666418Y-120194509D01*
X169587207Y-120385741D01*
X169472210Y-120557846D01*
X169325846Y-120704210D01*
X169153741Y-120819207D01*
X168962509Y-120898418D01*
X168827166Y-120925339D01*
X168759495Y-120938800D01*
X168552505Y-120938800D01*
X168484834Y-120925339D01*
X168349491Y-120898418D01*
X168158259Y-120819207D01*
X167986154Y-120704210D01*
X167839790Y-120557846D01*
X167724793Y-120385741D01*
X167645582Y-120194509D01*
X167605200Y-119991494D01*
X167605200Y-119784506D01*
X167645582Y-119581491D01*
X167724793Y-119390259D01*
X167839790Y-119218154D01*
X167986154Y-119071790D01*
X168158259Y-118956793D01*
X168349491Y-118877582D01*
X168484834Y-118850661D01*
X168552505Y-118837200D01*
X168759495Y-118837200D01*
X168827166Y-118850661D01*
G37*
G36*
X159546800Y-120938800D02*
G01*
X157445200Y-120938800D01*
X157445200Y-118837200D01*
X159546800Y-118837200D01*
X159546800Y-120938800D01*
G37*
G36*
X135154800Y-96546800D02*
G01*
X132053200Y-96546800D01*
X132053200Y-93445200D01*
X135154800Y-93445200D01*
X135154800Y-96546800D01*
G37*
G36*
X172556352Y-90754796D02*
G01*
X172556355Y-90754797D01*
X172556354Y-90754797D01*
X172838580Y-90871699D01*
X173092578Y-91041415D01*
X173308585Y-91257422D01*
X173478301Y-91511420D01*
X173478301Y-91511421D01*
X173595204Y-91793648D01*
X173654800Y-92093259D01*
X173654800Y-92398741D01*
X173595204Y-92698352D01*
X173595203Y-92698354D01*
X173478301Y-92980580D01*
X173308585Y-93234578D01*
X173092578Y-93450585D01*
X172838580Y-93620301D01*
X172639014Y-93702964D01*
X172556352Y-93737204D01*
X172256741Y-93796800D01*
X171951259Y-93796800D01*
X171651648Y-93737204D01*
X171568986Y-93702964D01*
X171369420Y-93620301D01*
X171115422Y-93450585D01*
X170899415Y-93234578D01*
X170729699Y-92980580D01*
X170612797Y-92698354D01*
X170612796Y-92698352D01*
X170553200Y-92398741D01*
X170553200Y-92093259D01*
X170612796Y-91793648D01*
X170729699Y-91511421D01*
X170729699Y-91511420D01*
X170899415Y-91257422D01*
X171115422Y-91041415D01*
X171369420Y-90871699D01*
X171651646Y-90754797D01*
X171651645Y-90754797D01*
X171651648Y-90754796D01*
X171951259Y-90695200D01*
X172256741Y-90695200D01*
X172556352Y-90754796D01*
G37*
G36*
X134056352Y-82754796D02*
G01*
X134056355Y-82754797D01*
X134056354Y-82754797D01*
X134338580Y-82871699D01*
X134592578Y-83041415D01*
X134808585Y-83257422D01*
X134978301Y-83511420D01*
X134978301Y-83511421D01*
X135095204Y-83793648D01*
X135154800Y-84093259D01*
X135154800Y-84398741D01*
X135095204Y-84698352D01*
X135095203Y-84698354D01*
X134978301Y-84980580D01*
X134808585Y-85234578D01*
X134592578Y-85450585D01*
X134338580Y-85620301D01*
X134139014Y-85702964D01*
X134056352Y-85737204D01*
X133756741Y-85796800D01*
X133451259Y-85796800D01*
X133151648Y-85737204D01*
X133068986Y-85702964D01*
X132869420Y-85620301D01*
X132615422Y-85450585D01*
X132399415Y-85234578D01*
X132229699Y-84980580D01*
X132112797Y-84698354D01*
X132112796Y-84698352D01*
X132053200Y-84398741D01*
X132053200Y-84093259D01*
X132112796Y-83793648D01*
X132229699Y-83511421D01*
X132229699Y-83511420D01*
X132399415Y-83257422D01*
X132615422Y-83041415D01*
X132869420Y-82871699D01*
X133151646Y-82754797D01*
X133151645Y-82754797D01*
X133151648Y-82754796D01*
X133451259Y-82695200D01*
X133756741Y-82695200D01*
X134056352Y-82754796D01*
G37*
G36*
X172556352Y-82754796D02*
G01*
X172556355Y-82754797D01*
X172556354Y-82754797D01*
X172838580Y-82871699D01*
X173092578Y-83041415D01*
X173308585Y-83257422D01*
X173478301Y-83511420D01*
X173478301Y-83511421D01*
X173595204Y-83793648D01*
X173654800Y-84093259D01*
X173654800Y-84398741D01*
X173595204Y-84698352D01*
X173595203Y-84698354D01*
X173478301Y-84980580D01*
X173308585Y-85234578D01*
X173092578Y-85450585D01*
X172838580Y-85620301D01*
X172639014Y-85702964D01*
X172556352Y-85737204D01*
X172256741Y-85796800D01*
X171951259Y-85796800D01*
X171651648Y-85737204D01*
X171568986Y-85702964D01*
X171369420Y-85620301D01*
X171115422Y-85450585D01*
X170899415Y-85234578D01*
X170729699Y-84980580D01*
X170612797Y-84698354D01*
X170612796Y-84698352D01*
X170553200Y-84398741D01*
X170553200Y-84093259D01*
X170612796Y-83793648D01*
X170729699Y-83511421D01*
X170729699Y-83511420D01*
X170899415Y-83257422D01*
X171115422Y-83041415D01*
X171369420Y-82871699D01*
X171651646Y-82754797D01*
X171651645Y-82754797D01*
X171651648Y-82754796D01*
X171951259Y-82695200D01*
X172256741Y-82695200D01*
X172556352Y-82754796D01*
G37*
G36*
X170442754Y-74825817D02*
G01*
X170606689Y-74893721D01*
X170754227Y-74992303D01*
X170879697Y-75117773D01*
X170978279Y-75265311D01*
X171046183Y-75429246D01*
X171080800Y-75603279D01*
X171080800Y-75780721D01*
X171046183Y-75954754D01*
X170978279Y-76118689D01*
X170879697Y-76266227D01*
X170754227Y-76391697D01*
X170606689Y-76490279D01*
X170442754Y-76558183D01*
X170268721Y-76592800D01*
X170091279Y-76592800D01*
X169917246Y-76558183D01*
X169753311Y-76490279D01*
X169605773Y-76391697D01*
X169480303Y-76266227D01*
X169381721Y-76118689D01*
X169313817Y-75954754D01*
X169279200Y-75780721D01*
X169279200Y-75603279D01*
X169313817Y-75429246D01*
X169381721Y-75265311D01*
X169480303Y-75117773D01*
X169605773Y-74992303D01*
X169753311Y-74893721D01*
X169917246Y-74825817D01*
X170091279Y-74791200D01*
X170268721Y-74791200D01*
X170442754Y-74825817D01*
G37*
G36*
X146947822Y-72596349D02*
G01*
X147192645Y-72645047D01*
X147538567Y-72788333D01*
X147849890Y-72996352D01*
X148114648Y-73261110D01*
X148322667Y-73572433D01*
X148465953Y-73918355D01*
X148539000Y-74285589D01*
X148539000Y-74660011D01*
X148465953Y-75027245D01*
X148322667Y-75373167D01*
X148114648Y-75684490D01*
X147849890Y-75949248D01*
X147538567Y-76157267D01*
X147192645Y-76300553D01*
X146947822Y-76349251D01*
X146825412Y-76373600D01*
X146450988Y-76373600D01*
X146328578Y-76349251D01*
X146083755Y-76300553D01*
X145737833Y-76157267D01*
X145426510Y-75949248D01*
X145161752Y-75684490D01*
X144953733Y-75373167D01*
X144810447Y-75027245D01*
X144737400Y-74660011D01*
X144737400Y-74285589D01*
X144810447Y-73918355D01*
X144953733Y-73572433D01*
X145161752Y-73261110D01*
X145426510Y-72996352D01*
X145737833Y-72788333D01*
X146083755Y-72645047D01*
X146328578Y-72596349D01*
X146450988Y-72572000D01*
X146825412Y-72572000D01*
X146947822Y-72596349D01*
G37*
G36*
X139327822Y-72596349D02*
G01*
X139572645Y-72645047D01*
X139918567Y-72788333D01*
X140229890Y-72996352D01*
X140494648Y-73261110D01*
X140702667Y-73572433D01*
X140845953Y-73918355D01*
X140919000Y-74285589D01*
X140919000Y-74660011D01*
X140845953Y-75027245D01*
X140702667Y-75373167D01*
X140494648Y-75684490D01*
X140229890Y-75949248D01*
X139918567Y-76157267D01*
X139572645Y-76300553D01*
X139327822Y-76349251D01*
X139205412Y-76373600D01*
X138830988Y-76373600D01*
X138708578Y-76349251D01*
X138463755Y-76300553D01*
X138117833Y-76157267D01*
X137806510Y-75949248D01*
X137541752Y-75684490D01*
X137333733Y-75373167D01*
X137190447Y-75027245D01*
X137117400Y-74660011D01*
X137117400Y-74285589D01*
X137190447Y-73918355D01*
X137333733Y-73572433D01*
X137541752Y-73261110D01*
X137806510Y-72996352D01*
X138117833Y-72788333D01*
X138463755Y-72645047D01*
X138708578Y-72596349D01*
X138830988Y-72572000D01*
X139205412Y-72572000D01*
X139327822Y-72596349D01*
G37*
G36*
X170442754Y-72285817D02*
G01*
X170606689Y-72353721D01*
X170754227Y-72452303D01*
X170879697Y-72577773D01*
X170978279Y-72725311D01*
X171046183Y-72889246D01*
X171080800Y-73063279D01*
X171080800Y-73240721D01*
X171046183Y-73414754D01*
X170978279Y-73578689D01*
X170879697Y-73726227D01*
X170754227Y-73851697D01*
X170606689Y-73950279D01*
X170442754Y-74018183D01*
X170268721Y-74052800D01*
X170091279Y-74052800D01*
X169917246Y-74018183D01*
X169753311Y-73950279D01*
X169605773Y-73851697D01*
X169480303Y-73726227D01*
X169381721Y-73578689D01*
X169313817Y-73414754D01*
X169279200Y-73240721D01*
X169279200Y-73063279D01*
X169313817Y-72889246D01*
X169381721Y-72725311D01*
X169480303Y-72577773D01*
X169605773Y-72452303D01*
X169753311Y-72353721D01*
X169917246Y-72285817D01*
X170091279Y-72251200D01*
X170268721Y-72251200D01*
X170442754Y-72285817D01*
G37*
G36*
X162257629Y-69411989D02*
G01*
X162494360Y-69510046D01*
X162707412Y-69652403D01*
X162888597Y-69833588D01*
X163030954Y-70046640D01*
X163129011Y-70283371D01*
X163179000Y-70534682D01*
X163179000Y-70790918D01*
X163129011Y-71042229D01*
X163030954Y-71278960D01*
X162888597Y-71492012D01*
X162707412Y-71673197D01*
X162494360Y-71815554D01*
X162257629Y-71913611D01*
X162006318Y-71963600D01*
X161750082Y-71963600D01*
X161498771Y-71913611D01*
X161262040Y-71815554D01*
X161048988Y-71673197D01*
X160867803Y-71492012D01*
X160725446Y-71278960D01*
X160627389Y-71042229D01*
X160577400Y-70790918D01*
X160577400Y-70534682D01*
X160627389Y-70283371D01*
X160725446Y-70046640D01*
X160867803Y-69833588D01*
X161048988Y-69652403D01*
X161262040Y-69510046D01*
X161498771Y-69411989D01*
X161750082Y-69362000D01*
X162006318Y-69362000D01*
X162257629Y-69411989D01*
G37*
G36*
X170442754Y-69745817D02*
G01*
X170606689Y-69813721D01*
X170754227Y-69912303D01*
X170879697Y-70037773D01*
X170978279Y-70185311D01*
X171046183Y-70349246D01*
X171080800Y-70523279D01*
X171080800Y-70700721D01*
X171046183Y-70874754D01*
X170978279Y-71038689D01*
X170879697Y-71186227D01*
X170754227Y-71311697D01*
X170606689Y-71410279D01*
X170442754Y-71478183D01*
X170268721Y-71512800D01*
X170091279Y-71512800D01*
X169917246Y-71478183D01*
X169753311Y-71410279D01*
X169605773Y-71311697D01*
X169480303Y-71186227D01*
X169381721Y-71038689D01*
X169313817Y-70874754D01*
X169279200Y-70700721D01*
X169279200Y-70523279D01*
X169313817Y-70349246D01*
X169381721Y-70185311D01*
X169480303Y-70037773D01*
X169605773Y-69912303D01*
X169753311Y-69813721D01*
X169917246Y-69745817D01*
X170091279Y-69711200D01*
X170268721Y-69711200D01*
X170442754Y-69745817D01*
G37*
G36*
X170442754Y-67205817D02*
G01*
X170606689Y-67273721D01*
X170754227Y-67372303D01*
X170879697Y-67497773D01*
X170978279Y-67645311D01*
X171046183Y-67809246D01*
X171080800Y-67983279D01*
X171080800Y-68160721D01*
X171046183Y-68334754D01*
X170978279Y-68498689D01*
X170879697Y-68646227D01*
X170754227Y-68771697D01*
X170606689Y-68870279D01*
X170442754Y-68938183D01*
X170268721Y-68972800D01*
X170091279Y-68972800D01*
X169917246Y-68938183D01*
X169753311Y-68870279D01*
X169605773Y-68771697D01*
X169480303Y-68646227D01*
X169381721Y-68498689D01*
X169313817Y-68334754D01*
X169279200Y-68160721D01*
X169279200Y-67983279D01*
X169313817Y-67809246D01*
X169381721Y-67645311D01*
X169480303Y-67497773D01*
X169605773Y-67372303D01*
X169753311Y-67273721D01*
X169917246Y-67205817D01*
X170091279Y-67171200D01*
X170268721Y-67171200D01*
X170442754Y-67205817D01*
G37*
G36*
X170442754Y-64665817D02*
G01*
X170606689Y-64733721D01*
X170754227Y-64832303D01*
X170879697Y-64957773D01*
X170978279Y-65105311D01*
X171046183Y-65269246D01*
X171080800Y-65443279D01*
X171080800Y-65620721D01*
X171046183Y-65794754D01*
X170978279Y-65958689D01*
X170879697Y-66106227D01*
X170754227Y-66231697D01*
X170606689Y-66330279D01*
X170442754Y-66398183D01*
X170268721Y-66432800D01*
X170091279Y-66432800D01*
X169917246Y-66398183D01*
X169753311Y-66330279D01*
X169605773Y-66231697D01*
X169480303Y-66106227D01*
X169381721Y-65958689D01*
X169313817Y-65794754D01*
X169279200Y-65620721D01*
X169279200Y-65443279D01*
X169313817Y-65269246D01*
X169381721Y-65105311D01*
X169480303Y-64957773D01*
X169605773Y-64832303D01*
X169753311Y-64733721D01*
X169917246Y-64665817D01*
X170091279Y-64631200D01*
X170268721Y-64631200D01*
X170442754Y-64665817D01*
G37*
G36*
X171080800Y-63892800D02*
G01*
X169279200Y-63892800D01*
X169279200Y-62091200D01*
X171080800Y-62091200D01*
X171080800Y-63892800D01*
G37*
G36*
X162257629Y-59251989D02*
G01*
X162494360Y-59350046D01*
X162707412Y-59492403D01*
X162888597Y-59673588D01*
X163030954Y-59886640D01*
X163129011Y-60123371D01*
X163179000Y-60374682D01*
X163179000Y-60630918D01*
X163129011Y-60882229D01*
X163030954Y-61118960D01*
X162888597Y-61332012D01*
X162707412Y-61513197D01*
X162494360Y-61655554D01*
X162257629Y-61753611D01*
X162006318Y-61803600D01*
X161750082Y-61803600D01*
X161498771Y-61753611D01*
X161262040Y-61655554D01*
X161048988Y-61513197D01*
X160867803Y-61332012D01*
X160725446Y-61118960D01*
X160627389Y-60882229D01*
X160577400Y-60630918D01*
X160577400Y-60374682D01*
X160627389Y-60123371D01*
X160725446Y-59886640D01*
X160867803Y-59673588D01*
X161048988Y-59492403D01*
X161262040Y-59350046D01*
X161498771Y-59251989D01*
X161750082Y-59202000D01*
X162006318Y-59202000D01*
X162257629Y-59251989D01*
G37*
G36*
X135130800Y-59438800D02*
G01*
X129029200Y-59438800D01*
X129029200Y-53337200D01*
X135130800Y-53337200D01*
X135130800Y-59438800D01*
G37*
G36*
X176786800Y-59438800D02*
G01*
X170685200Y-59438800D01*
X170685200Y-53337200D01*
X176786800Y-53337200D01*
X176786800Y-59438800D01*
G37*
G36*
X150979000Y-58493600D02*
G01*
X147377400Y-58493600D01*
X147377400Y-54892000D01*
X150979000Y-54892000D01*
X150979000Y-58493600D01*
G37*
M02*
