G04 #@! TF.GenerationSoftware,KiCad,Pcbnew,(5.1.5)-3*
G04 #@! TF.CreationDate,2020-06-18T13:28:00-07:00*
G04 #@! TF.ProjectId,Plug_Pass_AC_shield,506c7567-5f50-4617-9373-5f41435f7368,v2.0*
G04 #@! TF.SameCoordinates,Original*
G04 #@! TF.FileFunction,Legend,Bot*
G04 #@! TF.FilePolarity,Positive*
%FSLAX46Y46*%
G04 Gerber Fmt 4.6, Leading zero omitted, Abs format (unit mm)*
G04 Created by KiCad (PCBNEW (5.1.5)-3) date 2020-06-18 13:28:00*
%MOMM*%
%LPD*%
G04 APERTURE LIST*
%ADD10C,0.300000*%
%ADD11C,0.150000*%
%ADD12C,0.120000*%
%ADD13C,0.100000*%
%ADD14C,0.250000*%
G04 APERTURE END LIST*
D10*
X181598000Y-63626857D02*
X181669428Y-63769714D01*
X181669428Y-63984000D01*
X181598000Y-64198285D01*
X181455142Y-64341142D01*
X181312285Y-64412571D01*
X181026571Y-64484000D01*
X180812285Y-64484000D01*
X180526571Y-64412571D01*
X180383714Y-64341142D01*
X180240857Y-64198285D01*
X180169428Y-63984000D01*
X180169428Y-63841142D01*
X180240857Y-63626857D01*
X180312285Y-63555428D01*
X180812285Y-63555428D01*
X180812285Y-63841142D01*
X180169428Y-62912571D02*
X181669428Y-62912571D01*
X180169428Y-62055428D01*
X181669428Y-62055428D01*
X180169428Y-61341142D02*
X181669428Y-61341142D01*
X181669428Y-60984000D01*
X181598000Y-60769714D01*
X181455142Y-60626857D01*
X181312285Y-60555428D01*
X181026571Y-60484000D01*
X180812285Y-60484000D01*
X180526571Y-60555428D01*
X180383714Y-60626857D01*
X180240857Y-60769714D01*
X180169428Y-60984000D01*
X180169428Y-61341142D01*
X212610000Y-61341142D02*
X212538571Y-61198285D01*
X212538571Y-60984000D01*
X212610000Y-60769714D01*
X212752857Y-60626857D01*
X212895714Y-60555428D01*
X213181428Y-60484000D01*
X213395714Y-60484000D01*
X213681428Y-60555428D01*
X213824285Y-60626857D01*
X213967142Y-60769714D01*
X214038571Y-60984000D01*
X214038571Y-61126857D01*
X213967142Y-61341142D01*
X213895714Y-61412571D01*
X213395714Y-61412571D01*
X213395714Y-61126857D01*
X214038571Y-62055428D02*
X212538571Y-62055428D01*
X214038571Y-62912571D01*
X212538571Y-62912571D01*
X214038571Y-63626857D02*
X212538571Y-63626857D01*
X212538571Y-63984000D01*
X212610000Y-64198285D01*
X212752857Y-64341142D01*
X212895714Y-64412571D01*
X213181428Y-64484000D01*
X213395714Y-64484000D01*
X213681428Y-64412571D01*
X213824285Y-64341142D01*
X213967142Y-64198285D01*
X214038571Y-63984000D01*
X214038571Y-63626857D01*
X219074857Y-124726000D02*
X219217714Y-124654571D01*
X219432000Y-124654571D01*
X219646285Y-124726000D01*
X219789142Y-124868857D01*
X219860571Y-125011714D01*
X219932000Y-125297428D01*
X219932000Y-125511714D01*
X219860571Y-125797428D01*
X219789142Y-125940285D01*
X219646285Y-126083142D01*
X219432000Y-126154571D01*
X219289142Y-126154571D01*
X219074857Y-126083142D01*
X219003428Y-126011714D01*
X219003428Y-125511714D01*
X219289142Y-125511714D01*
X218360571Y-126154571D02*
X218360571Y-124654571D01*
X217503428Y-126154571D01*
X217503428Y-124654571D01*
X216789142Y-126154571D02*
X216789142Y-124654571D01*
X216432000Y-124654571D01*
X216217714Y-124726000D01*
X216074857Y-124868857D01*
X216003428Y-125011714D01*
X215932000Y-125297428D01*
X215932000Y-125511714D01*
X216003428Y-125797428D01*
X216074857Y-125940285D01*
X216217714Y-126083142D01*
X216432000Y-126154571D01*
X216789142Y-126154571D01*
X177418857Y-124726000D02*
X177561714Y-124654571D01*
X177776000Y-124654571D01*
X177990285Y-124726000D01*
X178133142Y-124868857D01*
X178204571Y-125011714D01*
X178276000Y-125297428D01*
X178276000Y-125511714D01*
X178204571Y-125797428D01*
X178133142Y-125940285D01*
X177990285Y-126083142D01*
X177776000Y-126154571D01*
X177633142Y-126154571D01*
X177418857Y-126083142D01*
X177347428Y-126011714D01*
X177347428Y-125511714D01*
X177633142Y-125511714D01*
X176704571Y-126154571D02*
X176704571Y-124654571D01*
X175847428Y-126154571D01*
X175847428Y-124654571D01*
X175133142Y-126154571D02*
X175133142Y-124654571D01*
X174776000Y-124654571D01*
X174561714Y-124726000D01*
X174418857Y-124868857D01*
X174347428Y-125011714D01*
X174276000Y-125297428D01*
X174276000Y-125511714D01*
X174347428Y-125797428D01*
X174418857Y-125940285D01*
X174561714Y-126083142D01*
X174776000Y-126154571D01*
X175133142Y-126154571D01*
D11*
X209389714Y-62016142D02*
X209437333Y-62063761D01*
X209580190Y-62111380D01*
X209675428Y-62111380D01*
X209818285Y-62063761D01*
X209913523Y-61968523D01*
X209961142Y-61873285D01*
X210008761Y-61682809D01*
X210008761Y-61539952D01*
X209961142Y-61349476D01*
X209913523Y-61254238D01*
X209818285Y-61159000D01*
X209675428Y-61111380D01*
X209580190Y-61111380D01*
X209437333Y-61159000D01*
X209389714Y-61206619D01*
X208818285Y-62111380D02*
X208913523Y-62063761D01*
X208961142Y-61968523D01*
X208961142Y-61111380D01*
X208008761Y-62111380D02*
X208008761Y-61587571D01*
X208056380Y-61492333D01*
X208151619Y-61444714D01*
X208342095Y-61444714D01*
X208437333Y-61492333D01*
X208008761Y-62063761D02*
X208104000Y-62111380D01*
X208342095Y-62111380D01*
X208437333Y-62063761D01*
X208484952Y-61968523D01*
X208484952Y-61873285D01*
X208437333Y-61778047D01*
X208342095Y-61730428D01*
X208104000Y-61730428D01*
X208008761Y-61682809D01*
X207675428Y-61444714D02*
X207294476Y-61444714D01*
X207532571Y-61111380D02*
X207532571Y-61968523D01*
X207484952Y-62063761D01*
X207389714Y-62111380D01*
X207294476Y-62111380D01*
X207008761Y-62063761D02*
X206913523Y-62111380D01*
X206723047Y-62111380D01*
X206627809Y-62063761D01*
X206580190Y-61968523D01*
X206580190Y-61920904D01*
X206627809Y-61825666D01*
X206723047Y-61778047D01*
X206865904Y-61778047D01*
X206961142Y-61730428D01*
X207008761Y-61635190D01*
X207008761Y-61587571D01*
X206961142Y-61492333D01*
X206865904Y-61444714D01*
X206723047Y-61444714D01*
X206627809Y-61492333D01*
X206151619Y-62111380D02*
X206151619Y-61111380D01*
X206056380Y-61730428D02*
X205770666Y-62111380D01*
X205770666Y-61444714D02*
X206151619Y-61825666D01*
X204913523Y-62111380D02*
X204913523Y-61587571D01*
X204961142Y-61492333D01*
X205056380Y-61444714D01*
X205246857Y-61444714D01*
X205342095Y-61492333D01*
X204913523Y-62063761D02*
X205008761Y-62111380D01*
X205246857Y-62111380D01*
X205342095Y-62063761D01*
X205389714Y-61968523D01*
X205389714Y-61873285D01*
X205342095Y-61778047D01*
X205246857Y-61730428D01*
X205008761Y-61730428D01*
X204913523Y-61682809D01*
X204437333Y-61444714D02*
X204437333Y-62111380D01*
X204437333Y-61539952D02*
X204389714Y-61492333D01*
X204294476Y-61444714D01*
X204151619Y-61444714D01*
X204056380Y-61492333D01*
X204008761Y-61587571D01*
X204008761Y-62111380D01*
X203532571Y-62111380D02*
X203532571Y-61444714D01*
X203532571Y-61111380D02*
X203580190Y-61159000D01*
X203532571Y-61206619D01*
X203484952Y-61159000D01*
X203532571Y-61111380D01*
X203532571Y-61206619D01*
X202675428Y-62063761D02*
X202770666Y-62111380D01*
X202961142Y-62111380D01*
X203056380Y-62063761D01*
X203104000Y-61968523D01*
X203104000Y-61587571D01*
X203056380Y-61492333D01*
X202961142Y-61444714D01*
X202770666Y-61444714D01*
X202675428Y-61492333D01*
X202627809Y-61587571D01*
X202627809Y-61682809D01*
X203104000Y-61778047D01*
X201437333Y-62111380D02*
X201437333Y-61111380D01*
X201056380Y-61111380D01*
X200961142Y-61159000D01*
X200913523Y-61206619D01*
X200865904Y-61301857D01*
X200865904Y-61444714D01*
X200913523Y-61539952D01*
X200961142Y-61587571D01*
X201056380Y-61635190D01*
X201437333Y-61635190D01*
X200056380Y-62063761D02*
X200151619Y-62111380D01*
X200342095Y-62111380D01*
X200437333Y-62063761D01*
X200484952Y-61968523D01*
X200484952Y-61587571D01*
X200437333Y-61492333D01*
X200342095Y-61444714D01*
X200151619Y-61444714D01*
X200056380Y-61492333D01*
X200008761Y-61587571D01*
X200008761Y-61682809D01*
X200484952Y-61778047D01*
X199437333Y-62111380D02*
X199532571Y-62063761D01*
X199580190Y-62016142D01*
X199627809Y-61920904D01*
X199627809Y-61635190D01*
X199580190Y-61539952D01*
X199532571Y-61492333D01*
X199437333Y-61444714D01*
X199294476Y-61444714D01*
X199199238Y-61492333D01*
X199151619Y-61539952D01*
X199104000Y-61635190D01*
X199104000Y-61920904D01*
X199151619Y-62016142D01*
X199199238Y-62063761D01*
X199294476Y-62111380D01*
X199437333Y-62111380D01*
X198675428Y-61444714D02*
X198675428Y-62444714D01*
X198675428Y-61492333D02*
X198580190Y-61444714D01*
X198389714Y-61444714D01*
X198294476Y-61492333D01*
X198246857Y-61539952D01*
X198199238Y-61635190D01*
X198199238Y-61920904D01*
X198246857Y-62016142D01*
X198294476Y-62063761D01*
X198389714Y-62111380D01*
X198580190Y-62111380D01*
X198675428Y-62063761D01*
X197627809Y-62111380D02*
X197723047Y-62063761D01*
X197770666Y-61968523D01*
X197770666Y-61111380D01*
X196865904Y-62063761D02*
X196961142Y-62111380D01*
X197151619Y-62111380D01*
X197246857Y-62063761D01*
X197294476Y-61968523D01*
X197294476Y-61587571D01*
X197246857Y-61492333D01*
X197151619Y-61444714D01*
X196961142Y-61444714D01*
X196865904Y-61492333D01*
X196818285Y-61587571D01*
X196818285Y-61682809D01*
X197294476Y-61778047D01*
X196342095Y-61111380D02*
X196437333Y-61301857D01*
X195961142Y-62063761D02*
X195865904Y-62111380D01*
X195675428Y-62111380D01*
X195580190Y-62063761D01*
X195532571Y-61968523D01*
X195532571Y-61920904D01*
X195580190Y-61825666D01*
X195675428Y-61778047D01*
X195818285Y-61778047D01*
X195913523Y-61730428D01*
X195961142Y-61635190D01*
X195961142Y-61587571D01*
X195913523Y-61492333D01*
X195818285Y-61444714D01*
X195675428Y-61444714D01*
X195580190Y-61492333D01*
X194342095Y-61111380D02*
X194342095Y-61920904D01*
X194294476Y-62016142D01*
X194246857Y-62063761D01*
X194151619Y-62111380D01*
X193961142Y-62111380D01*
X193865904Y-62063761D01*
X193818285Y-62016142D01*
X193770666Y-61920904D01*
X193770666Y-61111380D01*
X193437333Y-61444714D02*
X193056380Y-61444714D01*
X193294476Y-61111380D02*
X193294476Y-61968523D01*
X193246857Y-62063761D01*
X193151619Y-62111380D01*
X193056380Y-62111380D01*
X192723047Y-62111380D02*
X192723047Y-61444714D01*
X192723047Y-61111380D02*
X192770666Y-61159000D01*
X192723047Y-61206619D01*
X192675428Y-61159000D01*
X192723047Y-61111380D01*
X192723047Y-61206619D01*
X192104000Y-62111380D02*
X192199238Y-62063761D01*
X192246857Y-61968523D01*
X192246857Y-61111380D01*
X191723047Y-62111380D02*
X191723047Y-61444714D01*
X191723047Y-61111380D02*
X191770666Y-61159000D01*
X191723047Y-61206619D01*
X191675428Y-61159000D01*
X191723047Y-61111380D01*
X191723047Y-61206619D01*
X191389714Y-61444714D02*
X191008761Y-61444714D01*
X191246857Y-61111380D02*
X191246857Y-61968523D01*
X191199238Y-62063761D01*
X191104000Y-62111380D01*
X191008761Y-62111380D01*
X190770666Y-61444714D02*
X190532571Y-62111380D01*
X190294476Y-61444714D02*
X190532571Y-62111380D01*
X190627809Y-62349476D01*
X190675428Y-62397095D01*
X190770666Y-62444714D01*
X189151619Y-62111380D02*
X189151619Y-61111380D01*
X188913523Y-61111380D01*
X188770666Y-61159000D01*
X188675428Y-61254238D01*
X188627809Y-61349476D01*
X188580190Y-61539952D01*
X188580190Y-61682809D01*
X188627809Y-61873285D01*
X188675428Y-61968523D01*
X188770666Y-62063761D01*
X188913523Y-62111380D01*
X189151619Y-62111380D01*
X188151619Y-62111380D02*
X188151619Y-61444714D01*
X188151619Y-61111380D02*
X188199238Y-61159000D01*
X188151619Y-61206619D01*
X188104000Y-61159000D01*
X188151619Y-61111380D01*
X188151619Y-61206619D01*
X187723047Y-62063761D02*
X187627809Y-62111380D01*
X187437333Y-62111380D01*
X187342095Y-62063761D01*
X187294476Y-61968523D01*
X187294476Y-61920904D01*
X187342095Y-61825666D01*
X187437333Y-61778047D01*
X187580190Y-61778047D01*
X187675428Y-61730428D01*
X187723047Y-61635190D01*
X187723047Y-61587571D01*
X187675428Y-61492333D01*
X187580190Y-61444714D01*
X187437333Y-61444714D01*
X187342095Y-61492333D01*
X187008761Y-61444714D02*
X186627809Y-61444714D01*
X186865904Y-61111380D02*
X186865904Y-61968523D01*
X186818285Y-62063761D01*
X186723047Y-62111380D01*
X186627809Y-62111380D01*
X186294476Y-62111380D02*
X186294476Y-61444714D01*
X186294476Y-61635190D02*
X186246857Y-61539952D01*
X186199238Y-61492333D01*
X186104000Y-61444714D01*
X186008761Y-61444714D01*
X185675428Y-62111380D02*
X185675428Y-61444714D01*
X185675428Y-61111380D02*
X185723047Y-61159000D01*
X185675428Y-61206619D01*
X185627809Y-61159000D01*
X185675428Y-61111380D01*
X185675428Y-61206619D01*
X184770666Y-62063761D02*
X184865904Y-62111380D01*
X185056380Y-62111380D01*
X185151619Y-62063761D01*
X185199238Y-62016142D01*
X185246857Y-61920904D01*
X185246857Y-61635190D01*
X185199238Y-61539952D01*
X185151619Y-61492333D01*
X185056380Y-61444714D01*
X184865904Y-61444714D01*
X184770666Y-61492333D01*
X184484952Y-61444714D02*
X184104000Y-61444714D01*
X184342095Y-61111380D02*
X184342095Y-61968523D01*
X184294476Y-62063761D01*
X184199238Y-62111380D01*
X184104000Y-62111380D01*
X208556380Y-63761380D02*
X208556380Y-62761380D01*
X208175428Y-62761380D01*
X208080190Y-62809000D01*
X208032571Y-62856619D01*
X207984952Y-62951857D01*
X207984952Y-63094714D01*
X208032571Y-63189952D01*
X208080190Y-63237571D01*
X208175428Y-63285190D01*
X208556380Y-63285190D01*
X207413523Y-63761380D02*
X207508761Y-63713761D01*
X207556380Y-63618523D01*
X207556380Y-62761380D01*
X206604000Y-63094714D02*
X206604000Y-63761380D01*
X207032571Y-63094714D02*
X207032571Y-63618523D01*
X206984952Y-63713761D01*
X206889714Y-63761380D01*
X206746857Y-63761380D01*
X206651619Y-63713761D01*
X206604000Y-63666142D01*
X205699238Y-63094714D02*
X205699238Y-63904238D01*
X205746857Y-63999476D01*
X205794476Y-64047095D01*
X205889714Y-64094714D01*
X206032571Y-64094714D01*
X206127809Y-64047095D01*
X205699238Y-63713761D02*
X205794476Y-63761380D01*
X205984952Y-63761380D01*
X206080190Y-63713761D01*
X206127809Y-63666142D01*
X206175428Y-63570904D01*
X206175428Y-63285190D01*
X206127809Y-63189952D01*
X206080190Y-63142333D01*
X205984952Y-63094714D01*
X205794476Y-63094714D01*
X205699238Y-63142333D01*
X204461142Y-63761380D02*
X204461142Y-62761380D01*
X204080190Y-62761380D01*
X203984952Y-62809000D01*
X203937333Y-62856619D01*
X203889714Y-62951857D01*
X203889714Y-63094714D01*
X203937333Y-63189952D01*
X203984952Y-63237571D01*
X204080190Y-63285190D01*
X204461142Y-63285190D01*
X203032571Y-63761380D02*
X203032571Y-63237571D01*
X203080190Y-63142333D01*
X203175428Y-63094714D01*
X203365904Y-63094714D01*
X203461142Y-63142333D01*
X203032571Y-63713761D02*
X203127809Y-63761380D01*
X203365904Y-63761380D01*
X203461142Y-63713761D01*
X203508761Y-63618523D01*
X203508761Y-63523285D01*
X203461142Y-63428047D01*
X203365904Y-63380428D01*
X203127809Y-63380428D01*
X203032571Y-63332809D01*
X202604000Y-63713761D02*
X202508761Y-63761380D01*
X202318285Y-63761380D01*
X202223047Y-63713761D01*
X202175428Y-63618523D01*
X202175428Y-63570904D01*
X202223047Y-63475666D01*
X202318285Y-63428047D01*
X202461142Y-63428047D01*
X202556380Y-63380428D01*
X202604000Y-63285190D01*
X202604000Y-63237571D01*
X202556380Y-63142333D01*
X202461142Y-63094714D01*
X202318285Y-63094714D01*
X202223047Y-63142333D01*
X201794476Y-63713761D02*
X201699238Y-63761380D01*
X201508761Y-63761380D01*
X201413523Y-63713761D01*
X201365904Y-63618523D01*
X201365904Y-63570904D01*
X201413523Y-63475666D01*
X201508761Y-63428047D01*
X201651619Y-63428047D01*
X201746857Y-63380428D01*
X201794476Y-63285190D01*
X201794476Y-63237571D01*
X201746857Y-63142333D01*
X201651619Y-63094714D01*
X201508761Y-63094714D01*
X201413523Y-63142333D01*
X200175428Y-63380428D02*
X199413523Y-63380428D01*
X198270666Y-63094714D02*
X198032571Y-63761380D01*
X197794476Y-63094714D01*
X197461142Y-62856619D02*
X197413523Y-62809000D01*
X197318285Y-62761380D01*
X197080190Y-62761380D01*
X196984952Y-62809000D01*
X196937333Y-62856619D01*
X196889714Y-62951857D01*
X196889714Y-63047095D01*
X196937333Y-63189952D01*
X197508761Y-63761380D01*
X196889714Y-63761380D01*
X196461142Y-63666142D02*
X196413523Y-63713761D01*
X196461142Y-63761380D01*
X196508761Y-63713761D01*
X196461142Y-63666142D01*
X196461142Y-63761380D01*
X195794476Y-62761380D02*
X195699238Y-62761380D01*
X195604000Y-62809000D01*
X195556380Y-62856619D01*
X195508761Y-62951857D01*
X195461142Y-63142333D01*
X195461142Y-63380428D01*
X195508761Y-63570904D01*
X195556380Y-63666142D01*
X195604000Y-63713761D01*
X195699238Y-63761380D01*
X195794476Y-63761380D01*
X195889714Y-63713761D01*
X195937333Y-63666142D01*
X195984952Y-63570904D01*
X196032571Y-63380428D01*
X196032571Y-63142333D01*
X195984952Y-62951857D01*
X195937333Y-62856619D01*
X195889714Y-62809000D01*
X195794476Y-62761380D01*
X194270666Y-63380428D02*
X193508761Y-63380428D01*
X192318285Y-63475666D02*
X191842095Y-63475666D01*
X192413523Y-63761380D02*
X192080190Y-62761380D01*
X191746857Y-63761380D01*
X190842095Y-63666142D02*
X190889714Y-63713761D01*
X191032571Y-63761380D01*
X191127809Y-63761380D01*
X191270666Y-63713761D01*
X191365904Y-63618523D01*
X191413523Y-63523285D01*
X191461142Y-63332809D01*
X191461142Y-63189952D01*
X191413523Y-62999476D01*
X191365904Y-62904238D01*
X191270666Y-62809000D01*
X191127809Y-62761380D01*
X191032571Y-62761380D01*
X190889714Y-62809000D01*
X190842095Y-62856619D01*
X189699238Y-63713761D02*
X189604000Y-63761380D01*
X189413523Y-63761380D01*
X189318285Y-63713761D01*
X189270666Y-63618523D01*
X189270666Y-63570904D01*
X189318285Y-63475666D01*
X189413523Y-63428047D01*
X189556380Y-63428047D01*
X189651619Y-63380428D01*
X189699238Y-63285190D01*
X189699238Y-63237571D01*
X189651619Y-63142333D01*
X189556380Y-63094714D01*
X189413523Y-63094714D01*
X189318285Y-63142333D01*
X188842095Y-63761380D02*
X188842095Y-62761380D01*
X188413523Y-63761380D02*
X188413523Y-63237571D01*
X188461142Y-63142333D01*
X188556380Y-63094714D01*
X188699238Y-63094714D01*
X188794476Y-63142333D01*
X188842095Y-63189952D01*
X187937333Y-63761380D02*
X187937333Y-63094714D01*
X187937333Y-62761380D02*
X187984952Y-62809000D01*
X187937333Y-62856619D01*
X187889714Y-62809000D01*
X187937333Y-62761380D01*
X187937333Y-62856619D01*
X187080190Y-63713761D02*
X187175428Y-63761380D01*
X187365904Y-63761380D01*
X187461142Y-63713761D01*
X187508761Y-63618523D01*
X187508761Y-63237571D01*
X187461142Y-63142333D01*
X187365904Y-63094714D01*
X187175428Y-63094714D01*
X187080190Y-63142333D01*
X187032571Y-63237571D01*
X187032571Y-63332809D01*
X187508761Y-63428047D01*
X186461142Y-63761380D02*
X186556380Y-63713761D01*
X186604000Y-63618523D01*
X186604000Y-62761380D01*
X185651619Y-63761380D02*
X185651619Y-62761380D01*
X185651619Y-63713761D02*
X185746857Y-63761380D01*
X185937333Y-63761380D01*
X186032571Y-63713761D01*
X186080190Y-63666142D01*
X186127809Y-63570904D01*
X186127809Y-63285190D01*
X186080190Y-63189952D01*
X186032571Y-63142333D01*
X185937333Y-63094714D01*
X185746857Y-63094714D01*
X185651619Y-63142333D01*
D12*
X182152000Y-121226000D02*
X182152000Y-125476000D01*
X202002000Y-121226000D02*
X182152000Y-121226000D01*
X201952000Y-125476000D02*
X201952000Y-121226000D01*
X201952000Y-129726000D02*
X201952000Y-125476000D01*
X182152000Y-129726000D02*
X201952000Y-129726000D01*
X182152000Y-125476000D02*
X182152000Y-129726000D01*
D13*
X210541000Y-123643000D02*
X210991000Y-123643000D01*
X210541000Y-123018000D02*
X210541000Y-123643000D01*
X218291000Y-123643000D02*
X218291000Y-123043000D01*
X217866000Y-123643000D02*
X218291000Y-123643000D01*
X217916000Y-123643000D02*
X217816000Y-123643000D01*
X210541000Y-110893000D02*
X211216000Y-110893000D01*
X210541000Y-111768000D02*
X210541000Y-110893000D01*
X218016000Y-110893000D02*
X217341000Y-110893000D01*
X218291000Y-111168000D02*
X218016000Y-110893000D01*
X218291000Y-111768000D02*
X218291000Y-111168000D01*
D14*
X175590200Y-93016800D02*
X208100200Y-93016800D01*
X175590200Y-120446800D02*
X208100200Y-120446800D01*
D12*
X174100000Y-92072000D02*
X174100000Y-66472000D01*
X174100000Y-66472000D02*
X220000000Y-66472000D01*
X174100000Y-92072000D02*
X220000000Y-92072000D01*
X220000000Y-92072000D02*
X220000000Y-66472000D01*
X173800000Y-81772000D02*
X173800000Y-79772000D01*
X219047000Y-92444000D02*
X216507000Y-92444000D01*
X219047000Y-92444000D02*
X219047000Y-94984000D01*
X218797000Y-92694000D02*
X209447000Y-92694000D01*
X218797000Y-111014000D02*
X218797000Y-92694000D01*
X209447000Y-111014000D02*
X218797000Y-111014000D01*
X209447000Y-92694000D02*
X209447000Y-111014000D01*
D11*
X202652380Y-125142666D02*
X203366666Y-125142666D01*
X203509523Y-125095047D01*
X203604761Y-124999809D01*
X203652380Y-124856952D01*
X203652380Y-124761714D01*
X202652380Y-126047428D02*
X202652380Y-125856952D01*
X202700000Y-125761714D01*
X202747619Y-125714095D01*
X202890476Y-125618857D01*
X203080952Y-125571238D01*
X203461904Y-125571238D01*
X203557142Y-125618857D01*
X203604761Y-125666476D01*
X203652380Y-125761714D01*
X203652380Y-125952190D01*
X203604761Y-126047428D01*
X203557142Y-126095047D01*
X203461904Y-126142666D01*
X203223809Y-126142666D01*
X203128571Y-126095047D01*
X203080952Y-126047428D01*
X203033333Y-125952190D01*
X203033333Y-125761714D01*
X203080952Y-125666476D01*
X203128571Y-125618857D01*
X203223809Y-125571238D01*
X181554380Y-123833142D02*
X180554380Y-123833142D01*
X181554380Y-124404571D01*
X180554380Y-124404571D01*
X181030571Y-124880761D02*
X181030571Y-125214095D01*
X181554380Y-125356952D02*
X181554380Y-124880761D01*
X180554380Y-124880761D01*
X180554380Y-125356952D01*
X180554380Y-125785523D02*
X181363904Y-125785523D01*
X181459142Y-125833142D01*
X181506761Y-125880761D01*
X181554380Y-125976000D01*
X181554380Y-126166476D01*
X181506761Y-126261714D01*
X181459142Y-126309333D01*
X181363904Y-126356952D01*
X180554380Y-126356952D01*
X180554380Y-126690285D02*
X180554380Y-127261714D01*
X181554380Y-126976000D02*
X180554380Y-126976000D01*
X209748380Y-113808000D02*
X209272190Y-113474666D01*
X209748380Y-113236571D02*
X208748380Y-113236571D01*
X208748380Y-113617523D01*
X208796000Y-113712761D01*
X208843619Y-113760380D01*
X208938857Y-113808000D01*
X209081714Y-113808000D01*
X209176952Y-113760380D01*
X209224571Y-113712761D01*
X209272190Y-113617523D01*
X209272190Y-113236571D01*
X209748380Y-114712761D02*
X209748380Y-114236571D01*
X208748380Y-114236571D01*
X209272190Y-115236571D02*
X209748380Y-115236571D01*
X208748380Y-114903238D02*
X209272190Y-115236571D01*
X208748380Y-115569904D01*
X208843619Y-115855619D02*
X208796000Y-115903238D01*
X208748380Y-115998476D01*
X208748380Y-116236571D01*
X208796000Y-116331809D01*
X208843619Y-116379428D01*
X208938857Y-116427047D01*
X209034095Y-116427047D01*
X209176952Y-116379428D01*
X209748380Y-115808000D01*
X209748380Y-116427047D01*
X174950380Y-111014000D02*
X174474190Y-110680666D01*
X174950380Y-110442571D02*
X173950380Y-110442571D01*
X173950380Y-110823523D01*
X173998000Y-110918761D01*
X174045619Y-110966380D01*
X174140857Y-111014000D01*
X174283714Y-111014000D01*
X174378952Y-110966380D01*
X174426571Y-110918761D01*
X174474190Y-110823523D01*
X174474190Y-110442571D01*
X174950380Y-111918761D02*
X174950380Y-111442571D01*
X173950380Y-111442571D01*
X174474190Y-112442571D02*
X174950380Y-112442571D01*
X173950380Y-112109238D02*
X174474190Y-112442571D01*
X173950380Y-112775904D01*
X174950380Y-113633047D02*
X174950380Y-113061619D01*
X174950380Y-113347333D02*
X173950380Y-113347333D01*
X174093238Y-113252095D01*
X174188476Y-113156857D01*
X174236095Y-113061619D01*
X207970285Y-65984380D02*
X207970285Y-64984380D01*
X207589333Y-64984380D01*
X207494095Y-65032000D01*
X207446476Y-65079619D01*
X207398857Y-65174857D01*
X207398857Y-65317714D01*
X207446476Y-65412952D01*
X207494095Y-65460571D01*
X207589333Y-65508190D01*
X207970285Y-65508190D01*
X207017904Y-65936761D02*
X206875047Y-65984380D01*
X206636952Y-65984380D01*
X206541714Y-65936761D01*
X206494095Y-65889142D01*
X206446476Y-65793904D01*
X206446476Y-65698666D01*
X206494095Y-65603428D01*
X206541714Y-65555809D01*
X206636952Y-65508190D01*
X206827428Y-65460571D01*
X206922666Y-65412952D01*
X206970285Y-65365333D01*
X207017904Y-65270095D01*
X207017904Y-65174857D01*
X206970285Y-65079619D01*
X206922666Y-65032000D01*
X206827428Y-64984380D01*
X206589333Y-64984380D01*
X206446476Y-65032000D01*
X205494095Y-65984380D02*
X206065523Y-65984380D01*
X205779809Y-65984380D02*
X205779809Y-64984380D01*
X205875047Y-65127238D01*
X205970285Y-65222476D01*
X206065523Y-65270095D01*
X219416380Y-109394666D02*
X220130666Y-109394666D01*
X220273523Y-109347047D01*
X220368761Y-109251809D01*
X220416380Y-109108952D01*
X220416380Y-109013714D01*
X219749714Y-110299428D02*
X220416380Y-110299428D01*
X219368761Y-110061333D02*
X220083047Y-109823238D01*
X220083047Y-110442285D01*
M02*
